<svg width="2151" height="1110" viewBox="0 0 2151 1110" fill="none" xmlns="http://www.w3.org/2000/svg">
<rect x="0.605469" width="2149.59" height="1110.01" rx="84.5184" fill="#171717"/>
<path d="M491.322 577.191L419.609 314.928H451.88L506.689 528.529H509.25L565.083 314.928H600.94L656.773 528.529H659.334L714.143 314.928H746.414L674.701 577.191H641.918L584.036 368.2H581.987L524.105 577.191H491.322ZM821.456 581.802C808.992 581.802 797.68 579.454 787.521 574.758C777.361 569.977 769.294 563.105 763.318 554.141C757.341 545.091 754.353 534.164 754.353 521.358C754.353 510.089 756.573 500.954 761.012 493.954C765.452 486.868 771.385 481.318 778.813 477.306C786.24 473.293 794.436 470.305 803.4 468.342C812.449 466.293 821.541 464.671 830.676 463.476C842.628 461.939 852.318 460.786 859.745 460.018C867.258 459.164 872.722 457.756 876.137 455.792C879.637 453.829 881.387 450.414 881.387 445.548V444.523C881.387 431.888 877.93 422.07 871.015 415.07C864.185 408.069 853.812 404.569 839.896 404.569C825.468 404.569 814.157 407.728 805.961 414.045C797.765 420.363 792.003 427.107 788.673 434.278L759.988 424.034C765.11 412.082 771.94 402.776 780.477 396.117C789.1 389.373 798.491 384.677 808.65 382.031C818.895 379.299 828.969 377.933 838.872 377.933C845.189 377.933 852.446 378.701 860.642 380.238C868.923 381.689 876.905 384.72 884.589 389.33C892.358 393.94 898.803 400.898 903.925 410.203C909.048 419.509 911.609 431.973 911.609 447.596V577.191H881.387V550.555H879.851C877.802 554.824 874.387 559.391 869.606 564.258C864.825 569.124 858.465 573.264 850.525 576.679C842.586 580.094 832.896 581.802 821.456 581.802ZM826.066 554.653C838.018 554.653 848.092 552.305 856.288 547.61C864.569 542.914 870.801 536.853 874.984 529.426C879.253 521.998 881.387 514.187 881.387 505.991V478.33C880.107 479.867 877.289 481.276 872.935 482.556C868.667 483.752 863.715 484.819 858.081 485.758C852.531 486.612 847.11 487.38 841.817 488.063C836.61 488.66 832.384 489.173 829.139 489.6C821.285 490.624 813.943 492.289 807.113 494.594C800.369 496.814 794.905 500.186 790.722 504.71C786.624 509.15 784.575 515.211 784.575 522.895C784.575 533.395 788.46 541.335 796.229 546.714C804.083 552.007 814.029 554.653 826.066 554.653ZM996.992 314.928V577.191H966.77V314.928H996.992ZM1080.52 505.479L1080.01 468.086H1086.15L1172.21 380.494H1209.6L1117.91 473.208H1115.35L1080.52 505.479ZM1052.34 577.191V314.928H1082.57V577.191H1052.34ZM1177.33 577.191L1100.49 479.867L1122.01 458.866L1215.75 577.191H1177.33ZM1248.5 577.191V380.494H1278.72V577.191H1248.5ZM1263.87 347.711C1257.97 347.711 1252.89 345.705 1248.63 341.692C1244.44 337.68 1242.35 332.856 1242.35 327.222C1242.35 321.587 1244.44 316.764 1248.63 312.751C1252.89 308.739 1257.97 306.732 1263.87 306.732C1269.76 306.732 1274.79 308.739 1278.98 312.751C1283.24 316.764 1285.38 321.587 1285.38 327.222C1285.38 332.856 1283.24 337.68 1278.98 341.692C1274.79 345.705 1269.76 347.711 1263.87 347.711ZM1364.29 458.866V577.191H1334.07V380.494H1363.27V411.228H1365.83C1370.44 401.239 1377.44 393.214 1386.83 387.153C1396.22 381.006 1408.35 377.933 1423.2 377.933C1436.52 377.933 1448.17 380.665 1458.16 386.129C1468.15 391.507 1475.92 399.703 1481.47 410.716C1487.02 421.643 1489.79 435.474 1489.79 452.207V577.191H1459.57V454.256C1459.57 438.803 1455.56 426.766 1447.53 418.143C1439.51 409.435 1428.49 405.081 1414.49 405.081C1404.85 405.081 1396.22 407.173 1388.63 411.356C1381.11 415.539 1375.18 421.643 1370.83 429.668C1366.47 437.693 1364.29 447.426 1364.29 458.866ZM1624.41 655.051C1609.81 655.051 1597.26 653.173 1586.76 649.416C1576.26 645.745 1567.51 640.879 1560.51 634.818C1553.6 628.842 1548.09 622.439 1543.99 615.609L1568.07 598.705C1570.8 602.291 1574.26 606.389 1578.44 610.999C1582.62 615.694 1588.34 619.749 1595.6 623.164C1602.94 626.665 1612.55 628.415 1624.41 628.415C1640.29 628.415 1653.4 624.573 1663.73 616.889C1674.06 609.206 1679.22 597.168 1679.22 580.777V540.823H1676.66C1674.44 544.408 1671.28 548.848 1667.18 554.141C1663.17 559.349 1657.37 564.001 1649.77 568.099C1642.26 572.112 1632.1 574.118 1619.29 574.118C1603.41 574.118 1589.15 570.362 1576.52 562.849C1563.97 555.336 1554.02 544.408 1546.68 530.066C1539.43 515.723 1535.8 498.308 1535.8 477.818C1535.8 457.67 1539.34 440.126 1546.43 425.186C1553.51 410.161 1563.37 398.55 1576.01 390.354C1588.64 382.073 1603.24 377.933 1619.8 377.933C1632.61 377.933 1642.77 380.067 1650.28 384.336C1657.88 388.519 1663.68 393.3 1667.7 398.678C1671.79 403.971 1674.95 408.325 1677.17 411.74H1680.25V380.494H1709.44V582.826C1709.44 599.73 1705.6 613.475 1697.92 624.061C1690.32 634.732 1680.08 642.544 1667.18 647.495C1654.38 652.532 1640.12 655.051 1624.41 655.051ZM1623.39 546.97C1635.51 546.97 1645.76 544.195 1654.12 538.646C1662.49 533.097 1668.85 525.114 1673.2 514.699C1677.56 504.284 1679.73 491.819 1679.73 477.306C1679.73 463.134 1677.6 450.627 1673.33 439.785C1669.06 428.943 1662.75 420.448 1654.38 414.301C1646.01 408.155 1635.68 405.081 1623.39 405.081C1610.58 405.081 1599.91 408.325 1591.37 414.814C1582.92 421.302 1576.56 430.01 1572.29 440.937C1568.11 451.865 1566.02 463.988 1566.02 477.306C1566.02 490.966 1568.15 503.046 1572.42 513.546C1576.78 523.962 1583.18 532.158 1591.63 538.134C1600.17 544.024 1610.75 546.97 1623.39 546.97Z" fill="white"/>
<rect x="0.605469" width="2149.59" height="1110.01" rx="84.5184" fill="#171717"/>
<rect x="178.488" y="232.539" width="1793.72" height="396.506" rx="43.725" fill="#FF0095"/>
<path d="M516.018 398.401C515.255 391.964 512.164 386.967 506.744 383.41C501.323 379.852 494.675 378.074 486.798 378.074C481.039 378.074 475.999 379.005 471.68 380.869C467.403 382.732 464.057 385.294 461.644 388.555C459.272 391.816 458.087 395.521 458.087 399.671C458.087 403.143 458.912 406.129 460.564 408.627C462.258 411.084 464.417 413.137 467.043 414.789C469.669 416.398 472.421 417.732 475.301 418.791C478.18 419.807 480.827 420.633 483.241 421.268L496.453 424.825C499.841 425.715 503.61 426.943 507.76 428.509C511.952 430.076 515.954 432.215 519.765 434.925C523.619 437.593 526.795 441.023 529.294 445.216C531.792 449.408 533.041 454.553 533.041 460.651C533.041 467.681 531.199 474.033 527.515 479.707C523.873 485.382 518.537 489.892 511.508 493.237C504.52 496.583 496.03 498.256 486.036 498.256C476.719 498.256 468.652 496.752 461.834 493.746C455.059 490.739 449.723 486.546 445.827 481.168C441.973 475.79 439.792 469.544 439.284 462.43H455.546C455.969 467.342 457.621 471.407 460.5 474.626C463.422 477.802 467.107 480.173 471.553 481.74C476.042 483.265 480.869 484.027 486.036 484.027C492.049 484.027 497.448 483.053 502.234 481.105C507.019 479.115 510.809 476.362 513.604 472.847C516.399 469.29 517.796 465.14 517.796 460.397C517.796 456.078 516.589 452.563 514.176 449.853C511.762 447.142 508.586 444.94 504.647 443.246C500.709 441.552 496.453 440.07 491.88 438.8L475.872 434.226C465.709 431.304 457.663 427.133 451.734 421.713C445.806 416.292 442.841 409.199 442.841 400.433C442.841 393.149 444.811 386.797 448.749 381.377C452.73 375.914 458.065 371.679 464.756 368.673C471.489 365.624 479.006 364.099 487.306 364.099C495.691 364.099 503.144 365.603 509.666 368.609C516.187 371.574 521.353 375.639 525.165 380.805C529.018 385.972 531.051 391.837 531.263 398.401H516.018ZM651.957 495.969V365.878H695.913C706.119 365.878 714.462 367.72 720.941 371.404C727.462 375.046 732.29 379.979 735.423 386.205C738.557 392.43 740.124 399.375 740.124 407.039C740.124 414.704 738.557 421.67 735.423 427.938C732.332 434.205 727.547 439.202 721.068 442.929C714.589 446.613 706.289 448.455 696.167 448.455H664.661V434.48H695.659C702.647 434.48 708.258 433.274 712.492 430.86C716.727 428.446 719.797 425.185 721.703 421.078C723.651 416.928 724.625 412.248 724.625 407.039C724.625 401.831 723.651 397.172 721.703 393.065C719.797 388.957 716.706 385.739 712.429 383.41C708.152 381.038 702.477 379.852 695.405 379.852H667.71V495.969H651.957ZM858.516 495.969V365.878H937.028V379.852H874.269V423.809H932.962V437.784H874.269V481.994H938.044V495.969H858.516ZM1163.12 406.531H1147.37C1146.43 402 1144.8 398.019 1142.47 394.589C1140.19 391.159 1137.39 388.28 1134.09 385.95C1130.83 383.579 1127.21 381.8 1123.23 380.615C1119.25 379.429 1115.1 378.836 1110.78 378.836C1102.9 378.836 1095.77 380.826 1089.37 384.807C1083.02 388.788 1077.96 394.653 1074.19 402.402C1070.46 410.152 1068.6 419.659 1068.6 430.923C1068.6 442.188 1070.46 451.695 1074.19 459.444C1077.96 467.194 1083.02 473.059 1089.37 477.04C1095.77 481.02 1102.9 483.01 1110.78 483.01C1115.1 483.01 1119.25 482.418 1123.23 481.232C1127.21 480.046 1130.83 478.289 1134.09 475.96C1137.39 473.588 1140.19 470.687 1142.47 467.257C1144.8 463.785 1146.43 459.804 1147.37 455.315H1163.12C1161.93 461.964 1159.77 467.914 1156.64 473.165C1153.51 478.416 1149.61 482.883 1144.95 486.568C1140.29 490.21 1135.06 492.983 1129.26 494.889C1123.5 496.795 1117.34 497.747 1110.78 497.747C1099.68 497.747 1089.82 495.037 1081.18 489.617C1072.54 484.196 1065.74 476.489 1060.79 466.495C1055.83 456.501 1053.35 444.644 1053.35 430.923C1053.35 417.203 1055.83 405.346 1060.79 395.352C1065.74 385.358 1072.54 377.65 1081.18 372.23C1089.82 366.809 1099.68 364.099 1110.78 364.099C1117.34 364.099 1123.5 365.052 1129.26 366.958C1135.06 368.863 1140.29 371.658 1144.95 375.342C1149.61 378.984 1153.51 383.431 1156.64 388.682C1159.77 393.891 1161.93 399.84 1163.12 406.531ZM1297.34 365.878V495.969H1281.59V365.878H1297.34ZM1427.28 495.969H1410.76L1458.53 365.878H1474.79L1522.56 495.969H1506.05L1467.17 386.459H1466.15L1427.28 495.969ZM1433.38 445.152H1499.95V459.127H1433.38V445.152ZM1635.84 495.969V365.878H1651.59V481.994H1712.06V495.969H1635.84Z" fill="black"/>
</svg>
