<svg width="763" height="394" viewBox="0 0 763 394" fill="none" xmlns="http://www.w3.org/2000/svg">
<rect width="763" height="394" rx="30" fill="#171717"/>
<path d="M259.091 205H247.273L281.455 111.909H293.091L327.273 205H315.455L287.636 126.636H286.909L259.091 205ZM263.455 168.636H311.091V178.636H263.455V168.636ZM415.591 111.909V205H404.682L353.955 131.909H353.045V205H341.773V111.909H352.682L403.591 185.182H404.5V111.909H415.591ZM466.875 205H438.148V111.909H468.148C477.178 111.909 484.905 113.773 491.33 117.5C497.754 121.197 502.678 126.515 506.102 133.455C509.527 140.364 511.239 148.636 511.239 158.273C511.239 167.97 509.511 176.318 506.057 183.318C502.602 190.288 497.572 195.652 490.966 199.409C484.36 203.136 476.33 205 466.875 205ZM449.42 195H466.148C473.845 195 480.223 193.515 485.284 190.545C490.345 187.576 494.117 183.348 496.602 177.864C499.087 172.379 500.33 165.848 500.33 158.273C500.33 150.758 499.102 144.288 496.648 138.864C494.193 133.409 490.527 129.227 485.648 126.318C480.769 123.379 474.693 121.909 467.42 121.909H449.42V195Z" fill="white"/>
</svg>
