<svg width="2164" height="1117" viewBox="0 0 2164 1117" fill="none" xmlns="http://www.w3.org/2000/svg">
<rect width="2163.1" height="1116.99" rx="85.05" fill="#171717"/>
<path d="M543.938 580.635V316.722H636.204C654.589 316.722 669.752 319.901 681.693 326.258C693.634 332.529 702.526 340.991 708.368 351.644C714.21 362.211 717.13 373.937 717.13 386.824C717.13 398.164 715.112 407.528 711.074 414.916C707.122 422.304 701.882 428.146 695.353 432.442C688.909 436.737 681.908 439.916 674.348 441.977V444.555C682.423 445.07 690.542 447.905 698.703 453.06C706.864 458.214 713.694 465.602 719.192 475.224C724.69 484.846 727.44 496.616 727.44 510.533C727.44 523.763 724.433 535.661 718.419 546.228C712.405 556.795 702.913 565.171 689.94 571.357C676.968 577.542 660.087 580.635 639.297 580.635H543.938ZM575.896 552.285H639.297C660.173 552.285 674.992 548.247 683.755 540.172C692.603 532.01 697.028 522.131 697.028 510.533C697.028 501.598 694.751 493.351 690.198 485.791C685.645 478.145 679.159 472.046 670.74 467.492C662.32 462.853 652.355 460.534 640.843 460.534H575.896V552.285ZM575.896 432.699H635.173C644.795 432.699 653.472 430.809 661.204 427.029C669.021 423.249 675.207 417.923 679.76 411.05C684.399 404.177 686.719 396.102 686.719 386.824C686.719 375.226 682.681 365.39 674.605 357.314C666.53 349.153 653.73 345.072 636.204 345.072H575.896V432.699ZM900.568 499.708V382.7H930.98V580.635H900.568V547.13H898.506C893.867 557.182 886.651 565.73 876.857 572.774C867.063 579.733 854.692 583.212 839.744 583.212C827.373 583.212 816.377 580.506 806.755 575.094C797.133 569.595 789.573 561.348 784.075 550.352C778.577 539.27 775.828 525.309 775.828 508.471V382.7H806.24V506.409C806.24 520.842 810.277 532.354 818.353 540.945C826.514 549.536 836.909 553.831 849.538 553.831C857.098 553.831 864.787 551.898 872.604 548.032C880.508 544.166 887.123 538.239 892.449 530.249C897.862 522.26 900.568 512.079 900.568 499.708ZM1072.76 382.7V408.473H970.186V382.7H1072.76ZM1000.08 335.278H1030.49V523.935C1030.49 532.526 1031.74 538.969 1034.23 543.264C1036.81 547.474 1040.07 550.309 1044.03 551.769C1048.06 553.144 1052.32 553.831 1056.78 553.831C1060.13 553.831 1062.88 553.659 1065.03 553.316C1067.18 552.886 1068.9 552.542 1070.18 552.285L1076.37 579.604C1074.31 580.377 1071.43 581.15 1067.74 581.923C1064.04 582.782 1059.36 583.212 1053.69 583.212C1045.1 583.212 1036.68 581.365 1028.43 577.671C1020.27 573.977 1013.48 568.35 1008.07 560.79C1002.75 553.23 1000.08 543.694 1000.08 532.182V335.278ZM1204.59 382.7V408.473H1102.01V382.7H1204.59ZM1131.91 335.278H1162.32V523.935C1162.32 532.526 1163.57 538.969 1166.06 543.264C1168.64 547.474 1171.9 550.309 1175.85 551.769C1179.89 553.144 1184.14 553.831 1188.61 553.831C1191.96 553.831 1194.71 553.659 1196.86 553.316C1199.01 552.886 1200.72 552.542 1202.01 552.285L1208.2 579.604C1206.14 580.377 1203.26 581.15 1199.56 581.923C1195.87 582.782 1191.19 583.212 1185.52 583.212C1176.93 583.212 1168.51 581.365 1160.26 577.671C1152.1 573.977 1145.31 568.35 1139.9 560.79C1134.57 553.23 1131.91 543.694 1131.91 532.182V335.278ZM1328.62 584.758C1310.75 584.758 1295.07 580.506 1281.59 572.001C1268.18 563.496 1257.7 551.597 1250.14 536.306C1242.67 521.014 1238.93 503.145 1238.93 482.698C1238.93 462.08 1242.67 444.082 1250.14 428.705C1257.7 413.327 1268.18 401.385 1281.59 392.88C1295.07 384.375 1310.75 380.123 1328.62 380.123C1346.49 380.123 1362.13 384.375 1375.53 392.88C1389.01 401.385 1399.5 413.327 1406.97 428.705C1414.53 444.082 1418.31 462.08 1418.31 482.698C1418.31 503.145 1414.53 521.014 1406.97 536.306C1399.5 551.597 1389.01 563.496 1375.53 572.001C1362.13 580.506 1346.49 584.758 1328.62 584.758ZM1328.62 557.439C1342.19 557.439 1353.36 553.96 1362.13 547.001C1370.89 540.043 1377.37 530.893 1381.58 519.553C1385.79 508.213 1387.9 495.928 1387.9 482.698C1387.9 469.468 1385.79 457.14 1381.58 445.715C1377.37 434.289 1370.89 425.053 1362.13 418.009C1353.36 410.964 1342.19 407.442 1328.62 407.442C1315.05 407.442 1303.88 410.964 1295.12 418.009C1286.35 425.053 1279.87 434.289 1275.66 445.715C1271.45 457.14 1269.34 469.468 1269.34 482.698C1269.34 495.928 1271.45 508.213 1275.66 519.553C1279.87 530.893 1286.35 540.043 1295.12 547.001C1303.88 553.96 1315.05 557.439 1328.62 557.439ZM1495.14 461.565V580.635H1464.73V382.7H1494.11V413.628H1496.69C1501.33 403.576 1508.37 395.501 1517.82 389.401C1527.27 383.216 1539.47 380.123 1554.42 380.123C1567.82 380.123 1579.55 382.872 1589.6 388.37C1599.65 393.783 1607.47 402.03 1613.05 413.112C1618.64 424.108 1621.43 438.026 1621.43 454.864V580.635H1591.02V456.926C1591.02 441.376 1586.98 429.263 1578.91 420.586C1570.83 411.823 1559.75 407.442 1545.66 407.442C1535.95 407.442 1527.27 409.547 1519.63 413.756C1512.07 417.966 1506.1 424.108 1501.72 432.184C1497.34 440.259 1495.14 450.053 1495.14 461.565Z" fill="white"/>
<circle cx="1080.94" cy="858.945" r="189.945" fill="#592929"/>
<circle cx="1080.95" cy="841.935" r="172.935" fill="#703434"/>
</svg>
