<svg width="2164" height="1117" viewBox="0 0 2164 1117" fill="none" xmlns="http://www.w3.org/2000/svg">
<rect width="2163.1" height="1116.99" rx="85.05" fill="#171717"/>
<path d="M85.8224 131.427C81.5699 131.427 77.7792 130.697 74.4502 129.237C71.1427 127.776 68.5117 125.747 66.5573 123.148C64.6243 120.528 63.5719 117.489 63.4001 114.031H71.5185C71.6904 116.157 72.4206 117.993 73.7092 119.54C74.9979 121.065 76.6838 122.246 78.7671 123.084C80.8504 123.921 83.1592 124.34 85.6935 124.34C88.5285 124.34 91.0414 123.846 93.2321 122.858C95.4227 121.87 97.1409 120.496 98.3866 118.734C99.6323 116.973 100.255 114.933 100.255 112.613C100.255 110.186 99.6538 108.049 98.451 106.202C97.2483 104.334 95.4872 102.873 93.1676 101.821C90.8481 100.769 88.0131 100.242 84.6626 100.242H79.3792V93.1549H84.6626C87.2829 93.1549 89.5809 92.6824 91.5568 91.7374C93.5542 90.7924 95.1113 89.4608 96.2281 87.7427C97.3664 86.0245 97.9356 84.0056 97.9356 81.6861C97.9356 79.4524 97.4416 77.5087 96.4536 75.855C95.4657 74.2012 94.0697 72.9126 92.2656 71.9891C90.483 71.0656 88.3782 70.6038 85.9513 70.6038C83.6747 70.6038 81.5269 71.0226 79.5081 71.8602C77.5107 72.6764 75.8784 73.8683 74.6113 75.4362C73.3441 76.9826 72.6568 78.8511 72.5494 81.0418H64.8176C64.9465 77.5839 65.9881 74.5556 67.9426 71.9569C69.897 69.3366 72.4528 67.2963 75.61 65.8358C78.7886 64.3754 82.2786 63.6452 86.0801 63.6452C90.1608 63.6452 93.6616 64.472 96.5825 66.1258C99.5034 67.7581 101.748 69.9165 103.316 72.6012C104.883 75.2858 105.667 78.1853 105.667 81.2995C105.667 85.0151 104.69 88.1829 102.736 90.8032C100.803 93.4234 98.1718 95.2382 94.8429 96.2477V96.7631C99.0094 97.4504 102.263 99.2223 104.604 102.079C106.945 104.914 108.116 108.425 108.116 112.613C108.116 116.2 107.139 119.422 105.184 122.278C103.251 125.113 100.61 127.347 97.259 128.979C93.9086 130.611 90.0964 131.427 85.8224 131.427ZM124.924 131.041C123.335 131.041 121.971 130.472 120.833 129.333C119.695 128.195 119.126 126.831 119.126 125.242C119.126 123.653 119.695 122.289 120.833 121.151C121.971 120.012 123.335 119.443 124.924 119.443C126.514 119.443 127.878 120.012 129.016 121.151C130.154 122.289 130.723 123.653 130.723 125.242C130.723 126.294 130.455 127.261 129.918 128.141C129.402 129.022 128.704 129.731 127.824 130.268C126.965 130.783 125.998 131.041 124.924 131.041Z" fill="white"/>
<path d="M233.818 782.048V823.284H228.985L206.515 790.907H206.112V823.284H201.119V782.048H205.951L228.502 814.505H228.905V782.048H233.818ZM255.73 823.928C252.937 823.928 250.488 823.264 248.38 821.935C246.286 820.606 244.649 818.747 243.467 816.358C242.3 813.968 241.716 811.176 241.716 807.982C241.716 804.76 242.3 801.948 243.467 799.545C244.649 797.142 246.286 795.276 248.38 793.948C250.488 792.619 252.937 791.954 255.73 791.954C258.522 791.954 260.965 792.619 263.059 793.948C265.166 795.276 266.804 797.142 267.972 799.545C269.153 801.948 269.743 804.76 269.743 807.982C269.743 811.176 269.153 813.968 267.972 816.358C266.804 818.747 265.166 820.606 263.059 821.935C260.965 823.264 258.522 823.928 255.73 823.928ZM255.73 819.66C257.85 819.66 259.595 819.116 260.965 818.029C262.334 816.942 263.347 815.512 264.005 813.74C264.663 811.968 264.992 810.049 264.992 807.982C264.992 805.914 264.663 803.988 264.005 802.203C263.347 800.418 262.334 798.975 260.965 797.874C259.595 796.773 257.85 796.223 255.73 796.223C253.609 796.223 251.864 796.773 250.494 797.874C249.125 798.975 248.112 800.418 247.454 802.203C246.796 803.988 246.467 805.914 246.467 807.982C246.467 810.049 246.796 811.968 247.454 813.74C248.112 815.512 249.125 816.942 250.494 818.029C251.864 819.116 253.609 819.66 255.73 819.66ZM282.952 823.284L273.529 792.357H278.522L285.207 816.036H285.529L292.133 792.357H297.208L303.731 815.955H304.053L310.738 792.357H315.732L306.308 823.284H301.637L294.872 799.525H294.389L287.623 823.284H282.952ZM344.968 823.284L335.544 792.357H340.538L347.223 816.036H347.545L354.149 792.357H359.223L365.747 815.955H366.069L372.754 792.357H377.747L368.324 823.284H363.653L356.887 799.525H356.404L349.639 823.284H344.968ZM388.781 804.679V823.284H384.029V782.048H388.781V797.189H389.184C389.909 795.592 390.996 794.323 392.446 793.384C393.909 792.431 395.855 791.954 398.285 791.954C400.392 791.954 402.238 792.377 403.822 793.223C405.406 794.055 406.634 795.337 407.507 797.068C408.393 798.787 408.836 800.975 408.836 803.632V823.284H404.084V803.955C404.084 801.498 403.446 799.599 402.171 798.256C400.909 796.901 399.157 796.223 396.916 796.223C395.359 796.223 393.963 796.552 392.728 797.209C391.506 797.867 390.54 798.827 389.828 800.089C389.13 801.351 388.781 802.881 388.781 804.679ZM430.496 823.928C427.516 823.928 424.945 823.271 422.784 821.955C420.636 820.626 418.979 818.774 417.811 816.398C416.656 814.009 416.079 811.23 416.079 808.062C416.079 804.894 416.656 802.102 417.811 799.686C418.979 797.256 420.603 795.364 422.683 794.008C424.777 792.639 427.221 791.954 430.013 791.954C431.623 791.954 433.214 792.223 434.785 792.76C436.355 793.297 437.785 794.169 439.073 795.377C440.362 796.572 441.389 798.156 442.154 800.129C442.919 802.102 443.302 804.532 443.302 807.418V809.431H419.462V805.324H438.469C438.469 803.579 438.12 802.022 437.422 800.653C436.738 799.283 435.758 798.203 434.483 797.411C433.221 796.619 431.731 796.223 430.013 796.223C428.12 796.223 426.482 796.693 425.1 797.632C423.73 798.558 422.677 799.767 421.938 801.257C421.2 802.747 420.831 804.344 420.831 806.049V808.787C420.831 811.123 421.234 813.103 422.039 814.727C422.858 816.338 423.992 817.566 425.442 818.412C426.892 819.244 428.576 819.66 430.496 819.66C431.744 819.66 432.872 819.485 433.878 819.136C434.899 818.774 435.778 818.237 436.516 817.526C437.254 816.801 437.825 815.901 438.228 814.828L442.818 816.116C442.335 817.673 441.523 819.042 440.382 820.224C439.241 821.391 437.832 822.304 436.154 822.962C434.476 823.606 432.59 823.928 430.496 823.928ZM455.282 804.679V823.284H450.53V792.357H455.121V797.189H455.524C456.248 795.619 457.349 794.357 458.826 793.404C460.302 792.437 462.208 791.954 464.544 791.954C466.638 791.954 468.47 792.384 470.041 793.243C471.611 794.089 472.833 795.377 473.705 797.109C474.578 798.827 475.014 801.002 475.014 803.632V823.284H470.262V803.955C470.262 801.525 469.631 799.632 468.37 798.277C467.108 796.907 465.376 796.223 463.175 796.223C461.658 796.223 460.302 796.552 459.108 797.209C457.926 797.867 456.993 798.827 456.309 800.089C455.624 801.351 455.282 802.881 455.282 804.679ZM502.705 834.882C501.899 834.882 501.181 834.815 500.55 834.681C499.919 834.56 499.483 834.439 499.242 834.318L500.45 830.13C501.604 830.425 502.624 830.533 503.51 830.452C504.396 830.372 505.181 829.976 505.866 829.264C506.564 828.566 507.202 827.432 507.779 825.861L508.665 823.445L497.228 792.357H502.383L510.92 817.002H511.242L519.779 792.357H524.934L511.806 827.794C511.215 829.392 510.484 830.714 509.611 831.761C508.739 832.821 507.725 833.607 506.571 834.117C505.43 834.627 504.141 834.882 502.705 834.882ZM542.663 823.928C539.87 823.928 537.421 823.264 535.313 821.935C533.219 820.606 531.582 818.747 530.4 816.358C529.233 813.968 528.649 811.176 528.649 807.982C528.649 804.76 529.233 801.948 530.4 799.545C531.582 797.142 533.219 795.276 535.313 793.948C537.421 792.619 539.87 791.954 542.663 791.954C545.455 791.954 547.898 792.619 549.992 793.948C552.099 795.276 553.737 797.142 554.905 799.545C556.086 801.948 556.676 804.76 556.676 807.982C556.676 811.176 556.086 813.968 554.905 816.358C553.737 818.747 552.099 820.606 549.992 821.935C547.898 823.264 545.455 823.928 542.663 823.928ZM542.663 819.66C544.783 819.66 546.528 819.116 547.898 818.029C549.267 816.942 550.28 815.512 550.938 813.74C551.596 811.968 551.925 810.049 551.925 807.982C551.925 805.914 551.596 803.988 550.938 802.203C550.28 800.418 549.267 798.975 547.898 797.874C546.528 796.773 544.783 796.223 542.663 796.223C540.542 796.223 538.797 796.773 537.427 797.874C536.058 798.975 535.045 800.418 534.387 802.203C533.729 803.988 533.4 805.914 533.4 807.982C533.4 810.049 533.729 811.968 534.387 813.74C535.045 815.512 536.058 816.942 537.427 818.029C538.797 819.116 540.542 819.66 542.663 819.66ZM583.421 810.639V792.357H588.173V823.284H583.421V818.049H583.099C582.374 819.62 581.246 820.955 579.716 822.056C578.186 823.143 576.253 823.687 573.917 823.687C571.984 823.687 570.266 823.264 568.762 822.418C567.259 821.559 566.078 820.271 565.219 818.552C564.36 816.821 563.93 814.64 563.93 812.009V792.357H568.682V811.686C568.682 813.942 569.313 815.74 570.575 817.083C571.85 818.425 573.474 819.096 575.447 819.096C576.628 819.096 577.83 818.794 579.051 818.19C580.286 817.586 581.32 816.66 582.152 815.411C582.998 814.163 583.421 812.572 583.421 810.639ZM612.823 834.882V792.357H617.413V797.27H617.977C618.326 796.733 618.81 796.048 619.427 795.216C620.058 794.37 620.957 793.619 622.125 792.961C623.306 792.29 624.904 791.954 626.917 791.954C629.521 791.954 631.817 792.605 633.803 793.907C635.79 795.209 637.34 797.055 638.455 799.444C639.569 801.834 640.126 804.653 640.126 807.901C640.126 811.176 639.569 814.015 638.455 816.418C637.34 818.808 635.797 820.66 633.823 821.975C631.85 823.277 629.575 823.928 626.998 823.928C625.011 823.928 623.42 823.6 622.226 822.942C621.031 822.271 620.112 821.512 619.467 820.667C618.823 819.808 618.326 819.096 617.977 818.532H617.575V834.882H612.823ZM617.494 807.821C617.494 810.156 617.836 812.217 618.521 814.002C619.205 815.774 620.206 817.163 621.521 818.17C622.836 819.163 624.447 819.66 626.353 819.66C628.34 819.66 629.998 819.136 631.327 818.089C632.669 817.029 633.676 815.606 634.347 813.821C635.032 812.022 635.374 810.022 635.374 807.821C635.374 805.646 635.038 803.686 634.367 801.941C633.709 800.183 632.709 798.793 631.367 797.773C630.038 796.74 628.367 796.223 626.353 796.223C624.42 796.223 622.796 796.713 621.481 797.693C620.165 798.659 619.172 800.015 618.501 801.76C617.83 803.492 617.494 805.512 617.494 807.821ZM647.374 823.284V792.357H651.965V797.028H652.287C652.851 795.498 653.871 794.256 655.348 793.303C656.824 792.35 658.489 791.874 660.341 791.874C660.69 791.874 661.126 791.88 661.65 791.894C662.173 791.907 662.569 791.927 662.838 791.954V796.787C662.677 796.746 662.308 796.686 661.731 796.605C661.167 796.511 660.569 796.464 659.938 796.464C658.435 796.464 657.093 796.78 655.912 797.411C654.744 798.028 653.817 798.887 653.133 799.988C652.462 801.075 652.126 802.317 652.126 803.713V823.284H647.374ZM680.496 823.928C677.516 823.928 674.946 823.271 672.785 821.955C670.637 820.626 668.979 818.774 667.811 816.398C666.657 814.009 666.08 811.23 666.08 808.062C666.08 804.894 666.657 802.102 667.811 799.686C668.979 797.256 670.603 795.364 672.684 794.008C674.778 792.639 677.221 791.954 680.013 791.954C681.624 791.954 683.214 792.223 684.785 792.76C686.356 793.297 687.785 794.169 689.074 795.377C690.362 796.572 691.389 798.156 692.154 800.129C692.92 802.102 693.302 804.532 693.302 807.418V809.431H669.462V805.324H688.47C688.47 803.579 688.121 802.022 687.423 800.653C686.738 799.283 685.758 798.203 684.483 797.411C683.221 796.619 681.731 796.223 680.013 796.223C678.12 796.223 676.483 796.693 675.1 797.632C673.731 798.558 672.677 799.767 671.939 801.257C671.201 802.747 670.831 804.344 670.831 806.049V808.787C670.831 811.123 671.234 813.103 672.04 814.727C672.858 816.338 673.993 817.566 675.442 818.412C676.892 819.244 678.577 819.66 680.496 819.66C681.745 819.66 682.872 819.485 683.879 819.136C684.899 818.774 685.778 818.237 686.517 817.526C687.255 816.801 687.825 815.901 688.228 814.828L692.819 816.116C692.336 817.673 691.523 819.042 690.383 820.224C689.242 821.391 687.832 822.304 686.154 822.962C684.476 823.606 682.59 823.928 680.496 823.928ZM722.437 799.283L718.169 800.491C717.9 799.78 717.504 799.089 716.981 798.418C716.471 797.733 715.773 797.169 714.887 796.726C714.001 796.283 712.867 796.062 711.484 796.062C709.591 796.062 708.014 796.498 706.752 797.371C705.504 798.23 704.88 799.324 704.88 800.653C704.88 801.834 705.309 802.767 706.168 803.451C707.027 804.136 708.37 804.706 710.195 805.163L714.786 806.29C717.551 806.961 719.612 807.988 720.968 809.371C722.323 810.74 723.001 812.505 723.001 814.666C723.001 816.438 722.491 818.022 721.471 819.418C720.464 820.814 719.055 821.915 717.243 822.72C715.43 823.526 713.323 823.928 710.92 823.928C707.766 823.928 705.155 823.244 703.088 821.875C701.02 820.506 699.712 818.505 699.161 815.875L703.672 814.747C704.101 816.411 704.913 817.66 706.108 818.492C707.316 819.324 708.893 819.74 710.84 819.74C713.054 819.74 714.813 819.271 716.115 818.331C717.43 817.378 718.088 816.237 718.088 814.908C718.088 813.834 717.712 812.935 716.961 812.21C716.209 811.472 715.055 810.921 713.497 810.559L708.343 809.351C705.511 808.68 703.43 807.639 702.101 806.23C700.786 804.807 700.128 803.028 700.128 800.894C700.128 799.149 700.618 797.605 701.598 796.263C702.591 794.921 703.94 793.867 705.645 793.102C707.363 792.337 709.309 791.954 711.484 791.954C714.544 791.954 716.947 792.625 718.692 793.968C720.451 795.31 721.699 797.082 722.437 799.283ZM752.061 799.283L747.792 800.491C747.524 799.78 747.128 799.089 746.604 798.418C746.094 797.733 745.396 797.169 744.51 796.726C743.624 796.283 742.49 796.062 741.107 796.062C739.215 796.062 737.638 796.498 736.376 797.371C735.127 798.23 734.503 799.324 734.503 800.653C734.503 801.834 734.933 802.767 735.792 803.451C736.651 804.136 737.993 804.706 739.819 805.163L744.41 806.29C747.175 806.961 749.235 807.988 750.591 809.371C751.947 810.74 752.625 812.505 752.625 814.666C752.625 816.438 752.115 818.022 751.094 819.418C750.088 820.814 748.678 821.915 746.866 822.72C745.054 823.526 742.946 823.928 740.544 823.928C737.389 823.928 734.778 823.244 732.711 821.875C730.644 820.506 729.335 818.505 728.785 815.875L733.295 814.747C733.725 816.411 734.537 817.66 735.731 818.492C736.94 819.324 738.517 819.74 740.463 819.74C742.678 819.74 744.436 819.271 745.739 818.331C747.054 817.378 747.712 816.237 747.712 814.908C747.712 813.834 747.336 812.935 746.584 812.21C745.832 811.472 744.678 810.921 743.121 810.559L737.966 809.351C735.134 808.68 733.054 807.639 731.725 806.23C730.409 804.807 729.751 803.028 729.751 800.894C729.751 799.149 730.241 797.605 731.221 796.263C732.215 794.921 733.564 793.867 735.268 793.102C736.987 792.337 738.933 791.954 741.107 791.954C744.168 791.954 746.571 792.625 748.316 793.968C750.074 795.31 751.323 797.082 752.061 799.283ZM789.175 792.357V796.384H773.147V792.357H789.175ZM777.818 784.947H782.57V814.425C782.57 815.767 782.765 816.774 783.154 817.445C783.557 818.103 784.067 818.546 784.685 818.774C785.315 818.989 785.98 819.096 786.678 819.096C787.201 819.096 787.631 819.069 787.966 819.016C788.302 818.948 788.571 818.895 788.772 818.854L789.738 823.123C789.416 823.244 788.967 823.365 788.389 823.486C787.812 823.62 787.081 823.687 786.195 823.687C784.852 823.687 783.537 823.398 782.248 822.821C780.973 822.244 779.913 821.365 779.067 820.183C778.235 819.002 777.818 817.512 777.818 815.713V784.947ZM801.739 804.679V823.284H796.987V782.048H801.739V797.189H802.142C802.866 795.592 803.954 794.323 805.403 793.384C806.867 792.431 808.813 791.954 811.243 791.954C813.35 791.954 815.196 792.377 816.78 793.223C818.364 794.055 819.592 795.337 820.464 797.068C821.35 798.787 821.793 800.975 821.793 803.632V823.284H817.041V803.955C817.041 801.498 816.404 799.599 815.129 798.256C813.867 796.901 812.115 796.223 809.873 796.223C808.316 796.223 806.92 796.552 805.685 797.209C804.464 797.867 803.497 798.827 802.786 800.089C802.088 801.351 801.739 802.881 801.739 804.679ZM843.453 823.928C840.473 823.928 837.903 823.271 835.742 821.955C833.594 820.626 831.936 818.774 830.768 816.398C829.614 814.009 829.037 811.23 829.037 808.062C829.037 804.894 829.614 802.102 830.768 799.686C831.936 797.256 833.56 795.364 835.641 794.008C837.735 792.639 840.178 791.954 842.97 791.954C844.581 791.954 846.172 792.223 847.742 792.76C849.313 793.297 850.742 794.169 852.031 795.377C853.32 796.572 854.346 798.156 855.112 800.129C855.877 802.102 856.259 804.532 856.259 807.418V809.431H832.419V805.324H851.427C851.427 803.579 851.078 802.022 850.38 800.653C849.695 799.283 848.715 798.203 847.44 797.411C846.178 796.619 844.688 796.223 842.97 796.223C841.077 796.223 839.44 796.693 838.057 797.632C836.688 798.558 835.634 799.767 834.896 801.257C834.158 802.747 833.789 804.344 833.789 806.049V808.787C833.789 811.123 834.191 813.103 834.997 814.727C835.816 816.338 836.95 817.566 838.4 818.412C839.849 819.244 841.534 819.66 843.453 819.66C844.702 819.66 845.829 819.485 846.836 819.136C847.856 818.774 848.735 818.237 849.474 817.526C850.212 816.801 850.782 815.901 851.185 814.828L855.776 816.116C855.293 817.673 854.481 819.042 853.34 820.224C852.199 821.391 850.789 822.304 849.111 822.962C847.433 823.606 845.547 823.928 843.453 823.928ZM880.079 823.284V782.048H884.831V797.27H885.233C885.582 796.733 886.066 796.048 886.683 795.216C887.314 794.37 888.213 793.619 889.381 792.961C890.562 792.29 892.16 791.954 894.173 791.954C896.777 791.954 899.073 792.605 901.059 793.907C903.046 795.209 904.597 797.055 905.711 799.444C906.825 801.834 907.382 804.653 907.382 807.901C907.382 811.176 906.825 814.015 905.711 816.418C904.597 818.808 903.053 820.66 901.08 821.975C899.106 823.277 896.831 823.928 894.254 823.928C892.267 823.928 890.677 823.6 889.482 822.942C888.287 822.271 887.368 821.512 886.723 820.667C886.079 819.808 885.582 819.096 885.233 818.532H884.67V823.284H880.079ZM884.75 807.821C884.75 810.156 885.092 812.217 885.777 814.002C886.462 815.774 887.462 817.163 888.777 818.17C890.093 819.163 891.703 819.66 893.61 819.66C895.596 819.66 897.254 819.136 898.583 818.089C899.925 817.029 900.932 815.606 901.603 813.821C902.288 812.022 902.63 810.022 902.63 807.821C902.63 805.646 902.294 803.686 901.623 801.941C900.966 800.183 899.965 798.793 898.623 797.773C897.294 796.74 895.623 796.223 893.61 796.223C891.677 796.223 890.052 796.713 888.737 797.693C887.421 798.659 886.428 800.015 885.757 801.76C885.086 803.492 884.75 805.512 884.75 807.821ZM934.141 810.639V792.357H938.893V823.284H934.141V818.049H933.819C933.094 819.62 931.967 820.955 930.436 822.056C928.906 823.143 926.973 823.687 924.637 823.687C922.705 823.687 920.986 823.264 919.483 822.418C917.98 821.559 916.798 820.271 915.939 818.552C915.08 816.821 914.651 814.64 914.651 812.009V792.357H919.402V811.686C919.402 813.942 920.033 815.74 921.295 817.083C922.57 818.425 924.195 819.096 926.168 819.096C927.349 819.096 928.55 818.794 929.772 818.19C931.007 817.586 932.04 816.66 932.873 815.411C933.718 814.163 934.141 812.572 934.141 810.639ZM961.046 792.357V796.384H945.019V792.357H961.046ZM949.69 784.947H954.442V814.425C954.442 815.767 954.637 816.774 955.026 817.445C955.429 818.103 955.939 818.546 956.556 818.774C957.187 818.989 957.852 819.096 958.55 819.096C959.073 819.096 959.503 819.069 959.838 819.016C960.174 818.948 960.442 818.895 960.644 818.854L961.61 823.123C961.288 823.244 960.838 823.365 960.261 823.486C959.684 823.62 958.952 823.687 958.067 823.687C956.724 823.687 955.409 823.398 954.12 822.821C952.845 822.244 951.784 821.365 950.939 820.183C950.106 819.002 949.69 817.512 949.69 815.713V784.947ZM981.645 792.357V796.384H965.617V792.357H981.645ZM970.288 784.947H975.04V814.425C975.04 815.767 975.235 816.774 975.624 817.445C976.027 818.103 976.537 818.546 977.154 818.774C977.785 818.989 978.45 819.096 979.148 819.096C979.671 819.096 980.101 819.069 980.436 819.016C980.772 818.948 981.041 818.895 981.242 818.854L982.208 823.123C981.886 823.244 981.437 823.365 980.859 823.486C980.282 823.62 979.551 823.687 978.665 823.687C977.322 823.687 976.007 823.398 974.718 822.821C973.443 822.244 972.382 821.365 971.537 820.183C970.705 819.002 970.288 817.512 970.288 815.713V784.947ZM1001.02 823.928C998.232 823.928 995.783 823.264 993.675 821.935C991.581 820.606 989.944 818.747 988.762 816.358C987.594 813.968 987.011 811.176 987.011 807.982C987.011 804.76 987.594 801.948 988.762 799.545C989.944 797.142 991.581 795.276 993.675 793.948C995.783 792.619 998.232 791.954 1001.02 791.954C1003.82 791.954 1006.26 792.619 1008.35 793.948C1010.46 795.276 1012.1 797.142 1013.27 799.545C1014.45 801.948 1015.04 804.76 1015.04 807.982C1015.04 811.176 1014.45 813.968 1013.27 816.358C1012.1 818.747 1010.46 820.606 1008.35 821.935C1006.26 823.264 1003.82 823.928 1001.02 823.928ZM1001.02 819.66C1003.15 819.66 1004.89 819.116 1006.26 818.029C1007.63 816.942 1008.64 815.512 1009.3 813.74C1009.96 811.968 1010.29 810.049 1010.29 807.982C1010.29 805.914 1009.96 803.988 1009.3 802.203C1008.64 800.418 1007.63 798.975 1006.26 797.874C1004.89 796.773 1003.15 796.223 1001.02 796.223C998.904 796.223 997.159 796.773 995.789 797.874C994.42 798.975 993.407 800.418 992.749 802.203C992.091 803.988 991.762 805.914 991.762 807.982C991.762 810.049 992.091 811.968 992.749 813.74C993.407 815.512 994.42 816.942 995.789 818.029C997.159 819.116 998.904 819.66 1001.02 819.66ZM1027.04 804.679V823.284H1022.29V792.357H1026.88V797.189H1027.29C1028.01 795.619 1029.11 794.357 1030.59 793.404C1032.06 792.437 1033.97 791.954 1036.31 791.954C1038.4 791.954 1040.23 792.384 1041.8 793.243C1043.37 794.089 1044.59 795.377 1045.47 797.109C1046.34 798.827 1046.78 801.002 1046.78 803.632V823.284H1042.02V803.955C1042.02 801.525 1041.39 799.632 1040.13 798.277C1038.87 796.907 1037.14 796.223 1034.94 796.223C1033.42 796.223 1032.06 796.552 1030.87 797.209C1029.69 797.867 1028.76 798.827 1028.07 800.089C1027.39 801.351 1027.04 802.881 1027.04 804.679ZM1062.55 817.646L1062.22 819.821C1062 821.351 1061.65 822.989 1061.18 824.734C1060.72 826.479 1060.24 828.123 1059.75 829.667C1059.25 831.211 1058.84 832.439 1058.52 833.352H1054.9C1055.07 832.493 1055.3 831.358 1055.58 829.949C1055.86 828.539 1056.14 826.962 1056.43 825.217C1056.72 823.486 1056.96 821.714 1057.15 819.902L1057.39 817.646H1062.55ZM1087.3 823.284V792.357H1092.05V823.284H1087.3ZM1089.71 787.202C1088.79 787.202 1087.99 786.887 1087.32 786.256C1086.66 785.625 1086.33 784.867 1086.33 783.981C1086.33 783.095 1086.66 782.336 1087.32 781.706C1087.99 781.075 1088.79 780.759 1089.71 780.759C1090.64 780.759 1091.43 781.075 1092.09 781.706C1092.76 782.336 1093.1 783.095 1093.1 783.981C1093.1 784.867 1092.76 785.625 1092.09 786.256C1091.43 786.887 1090.64 787.202 1089.71 787.202ZM1114.2 792.357V796.384H1098.18V792.357H1114.2ZM1102.85 784.947H1107.6V814.425C1107.6 815.767 1107.79 816.774 1108.18 817.445C1108.59 818.103 1109.1 818.546 1109.71 818.774C1110.34 818.989 1111.01 819.096 1111.71 819.096C1112.23 819.096 1112.66 819.069 1112.99 819.016C1113.33 818.948 1113.6 818.895 1113.8 818.854L1114.77 823.123C1114.44 823.244 1113.99 823.365 1113.42 823.486C1112.84 823.62 1112.11 823.687 1111.22 823.687C1109.88 823.687 1108.57 823.398 1107.28 822.821C1106 822.244 1104.94 821.365 1104.1 820.183C1103.26 819.002 1102.85 817.512 1102.85 815.713V784.947ZM1159.2 799.283L1154.94 800.491C1154.67 799.78 1154.27 799.089 1153.75 798.418C1153.24 797.733 1152.54 797.169 1151.65 796.726C1150.77 796.283 1149.63 796.062 1148.25 796.062C1146.36 796.062 1144.78 796.498 1143.52 797.371C1142.27 798.23 1141.65 799.324 1141.65 800.653C1141.65 801.834 1142.08 802.767 1142.94 803.451C1143.79 804.136 1145.14 804.706 1146.96 805.163L1151.55 806.29C1154.32 806.961 1156.38 807.988 1157.73 809.371C1159.09 810.74 1159.77 812.505 1159.77 814.666C1159.77 816.438 1159.26 818.022 1158.24 819.418C1157.23 820.814 1155.82 821.915 1154.01 822.72C1152.2 823.526 1150.09 823.928 1147.69 823.928C1144.53 823.928 1141.92 823.244 1139.85 821.875C1137.79 820.506 1136.48 818.505 1135.93 815.875L1140.44 814.747C1140.87 816.411 1141.68 817.66 1142.88 818.492C1144.08 819.324 1145.66 819.74 1147.61 819.74C1149.82 819.74 1151.58 819.271 1152.88 818.331C1154.2 817.378 1154.86 816.237 1154.86 814.908C1154.86 813.834 1154.48 812.935 1153.73 812.21C1152.98 811.472 1151.82 810.921 1150.26 810.559L1145.11 809.351C1142.28 808.68 1140.2 807.639 1138.87 806.23C1137.55 804.807 1136.89 803.028 1136.89 800.894C1136.89 799.149 1137.38 797.605 1138.36 796.263C1139.36 794.921 1140.71 793.867 1142.41 793.102C1144.13 792.337 1146.08 791.954 1148.25 791.954C1151.31 791.954 1153.71 792.625 1155.46 793.968C1157.22 795.31 1158.47 797.082 1159.2 799.283ZM1171.67 804.679V823.284H1166.92V782.048H1171.67V797.189H1172.08C1172.8 795.592 1173.89 794.323 1175.34 793.384C1176.8 792.431 1178.75 791.954 1181.18 791.954C1183.28 791.954 1185.13 792.377 1186.71 793.223C1188.3 794.055 1189.53 795.337 1190.4 797.068C1191.28 798.787 1191.73 800.975 1191.73 803.632V823.284H1186.98V803.955C1186.98 801.498 1186.34 799.599 1185.06 798.256C1183.8 796.901 1182.05 796.223 1179.81 796.223C1178.25 796.223 1176.85 796.552 1175.62 797.209C1174.4 797.867 1173.43 798.827 1172.72 800.089C1172.02 801.351 1171.67 802.881 1171.67 804.679ZM1212.98 823.928C1210.19 823.928 1207.74 823.264 1205.64 821.935C1203.54 820.606 1201.9 818.747 1200.72 816.358C1199.55 813.968 1198.97 811.176 1198.97 807.982C1198.97 804.76 1199.55 801.948 1200.72 799.545C1201.9 797.142 1203.54 795.276 1205.64 793.948C1207.74 792.619 1210.19 791.954 1212.98 791.954C1215.78 791.954 1218.22 792.619 1220.31 793.948C1222.42 795.276 1224.06 797.142 1225.23 799.545C1226.41 801.948 1227 804.76 1227 807.982C1227 811.176 1226.41 813.968 1225.23 816.358C1224.06 818.747 1222.42 820.606 1220.31 821.935C1218.22 823.264 1215.78 823.928 1212.98 823.928ZM1212.98 819.66C1215.11 819.66 1216.85 819.116 1218.22 818.029C1219.59 816.942 1220.6 815.512 1221.26 813.74C1221.92 811.968 1222.25 810.049 1222.25 807.982C1222.25 805.914 1221.92 803.988 1221.26 802.203C1220.6 800.418 1219.59 798.975 1218.22 797.874C1216.85 796.773 1215.11 796.223 1212.98 796.223C1210.86 796.223 1209.12 796.773 1207.75 797.874C1206.38 798.975 1205.37 800.418 1204.71 802.203C1204.05 803.988 1203.72 805.914 1203.72 807.982C1203.72 810.049 1204.05 811.968 1204.71 813.74C1205.37 815.512 1206.38 816.942 1207.75 818.029C1209.12 819.116 1210.86 819.66 1212.98 819.66ZM1253.74 810.639V792.357H1258.49V823.284H1253.74V818.049H1253.42C1252.7 819.62 1251.57 820.955 1250.04 822.056C1248.51 823.143 1246.58 823.687 1244.24 823.687C1242.31 823.687 1240.59 823.264 1239.08 822.418C1237.58 821.559 1236.4 820.271 1235.54 818.552C1234.68 816.821 1234.25 814.64 1234.25 812.009V792.357H1239V811.686C1239 813.942 1239.64 815.74 1240.9 817.083C1242.17 818.425 1243.8 819.096 1245.77 819.096C1246.95 819.096 1248.15 818.794 1249.37 818.19C1250.61 817.586 1251.64 816.66 1252.47 815.411C1253.32 814.163 1253.74 812.572 1253.74 810.639ZM1271.95 782.048V823.284H1267.2V782.048H1271.95ZM1292.33 823.928C1289.75 823.928 1287.48 823.277 1285.51 821.975C1283.53 820.66 1281.99 818.808 1280.87 816.418C1279.76 814.015 1279.2 811.176 1279.2 807.901C1279.2 804.653 1279.76 801.834 1280.87 799.444C1281.99 797.055 1283.54 795.209 1285.53 793.907C1287.51 792.605 1289.81 791.954 1292.41 791.954C1294.43 791.954 1296.02 792.29 1297.18 792.961C1298.37 793.619 1299.26 794.37 1299.88 795.216C1300.51 796.048 1301 796.733 1301.35 797.27H1301.75V782.048H1306.51V823.284H1301.92V818.532H1301.35C1301 819.096 1300.51 819.808 1299.86 820.667C1299.22 821.512 1298.3 822.271 1297.1 822.942C1295.91 823.6 1294.32 823.928 1292.33 823.928ZM1292.98 819.66C1294.88 819.66 1296.49 819.163 1297.81 818.17C1299.12 817.163 1300.12 815.774 1300.81 814.002C1301.49 812.217 1301.84 810.156 1301.84 807.821C1301.84 805.512 1301.5 803.492 1300.83 801.76C1300.16 800.015 1299.16 798.659 1297.85 797.693C1296.53 796.713 1294.91 796.223 1292.98 796.223C1290.96 796.223 1289.28 796.74 1287.94 797.773C1286.61 798.793 1285.61 800.183 1284.94 801.941C1284.28 803.686 1283.96 805.646 1283.96 807.821C1283.96 810.022 1284.29 812.022 1284.96 813.821C1285.65 815.606 1286.65 817.029 1287.98 818.089C1289.32 819.136 1290.99 819.66 1292.98 819.66ZM1340.92 824.009C1338.96 824.009 1337.18 823.64 1335.58 822.902C1333.98 822.15 1332.72 821.069 1331.78 819.66C1330.84 818.237 1330.37 816.519 1330.37 814.505C1330.37 812.733 1330.72 811.297 1331.41 810.196C1332.11 809.082 1333.04 808.21 1334.21 807.579C1335.38 806.948 1336.67 806.478 1338.08 806.169C1339.5 805.847 1340.93 805.592 1342.37 805.404C1344.25 805.163 1345.77 804.982 1346.94 804.861C1348.12 804.726 1348.98 804.505 1349.52 804.196C1350.07 803.888 1350.34 803.351 1350.34 802.585V802.424C1350.34 800.438 1349.8 798.894 1348.71 797.793C1347.64 796.693 1346 796.142 1343.82 796.142C1341.55 796.142 1339.77 796.639 1338.48 797.632C1337.19 798.626 1336.29 799.686 1335.76 800.814L1331.25 799.203C1332.06 797.324 1333.13 795.86 1334.47 794.813C1335.83 793.753 1337.31 793.015 1338.9 792.599C1340.51 792.169 1342.1 791.954 1343.66 791.954C1344.65 791.954 1345.79 792.075 1347.08 792.317C1348.38 792.545 1349.64 793.021 1350.84 793.746C1352.07 794.471 1353.08 795.565 1353.88 797.028C1354.69 798.491 1355.09 800.451 1355.09 802.908V823.284H1350.34V819.096H1350.1C1349.78 819.767 1349.24 820.485 1348.49 821.251C1347.74 822.016 1346.74 822.667 1345.49 823.204C1344.24 823.741 1342.72 824.009 1340.92 824.009ZM1341.64 819.74C1343.52 819.74 1345.11 819.371 1346.39 818.633C1347.7 817.895 1348.68 816.942 1349.33 815.774C1350 814.606 1350.34 813.378 1350.34 812.089V807.74C1350.14 807.982 1349.7 808.203 1349.01 808.404C1348.34 808.592 1347.56 808.76 1346.68 808.908C1345.8 809.042 1344.95 809.163 1344.12 809.27C1343.3 809.364 1342.64 809.445 1342.13 809.512C1340.89 809.673 1339.74 809.935 1338.66 810.297C1337.6 810.646 1336.74 811.176 1336.09 811.888C1335.44 812.586 1335.12 813.539 1335.12 814.747C1335.12 816.398 1335.73 817.646 1336.95 818.492C1338.19 819.324 1339.75 819.74 1341.64 819.74ZM1376.33 823.928C1373.43 823.928 1370.93 823.244 1368.84 821.875C1366.75 820.506 1365.13 818.62 1364.01 816.217C1362.88 813.814 1362.32 811.069 1362.32 807.982C1362.32 804.841 1362.89 802.069 1364.05 799.666C1365.22 797.25 1366.84 795.364 1368.92 794.008C1371.01 792.639 1373.46 791.954 1376.25 791.954C1378.42 791.954 1380.38 792.357 1382.13 793.162C1383.87 793.968 1385.3 795.095 1386.42 796.545C1387.53 797.995 1388.22 799.686 1388.49 801.619H1383.74C1383.38 800.21 1382.57 798.961 1381.32 797.874C1380.09 796.773 1378.42 796.223 1376.33 796.223C1374.48 796.223 1372.85 796.706 1371.46 797.673C1370.07 798.626 1368.99 799.975 1368.22 801.72C1367.45 803.451 1367.07 805.485 1367.07 807.821C1367.07 810.21 1367.44 812.291 1368.2 814.062C1368.96 815.834 1370.03 817.21 1371.42 818.19C1372.81 819.17 1374.45 819.66 1376.33 819.66C1377.56 819.66 1378.69 819.445 1379.69 819.016C1380.7 818.586 1381.55 817.969 1382.25 817.163C1382.95 816.358 1383.44 815.391 1383.74 814.264H1388.49C1388.22 816.089 1387.56 817.734 1386.5 819.197C1385.45 820.647 1384.06 821.801 1382.33 822.66C1380.61 823.506 1378.61 823.928 1376.33 823.928ZM1408.89 792.357V796.384H1392.86V792.357H1408.89ZM1397.53 784.947H1402.28V814.425C1402.28 815.767 1402.48 816.774 1402.87 817.445C1403.27 818.103 1403.78 818.546 1404.4 818.774C1405.03 818.989 1405.69 819.096 1406.39 819.096C1406.91 819.096 1407.34 819.069 1407.68 819.016C1408.02 818.948 1408.28 818.895 1408.49 818.854L1409.45 823.123C1409.13 823.244 1408.68 823.365 1408.1 823.486C1407.53 823.62 1406.79 823.687 1405.91 823.687C1404.57 823.687 1403.25 823.398 1401.96 822.821C1400.69 822.244 1399.63 821.365 1398.78 820.183C1397.95 819.002 1397.53 817.512 1397.53 815.713V784.947ZM1416.04 823.284V792.357H1420.79V823.284H1416.04ZM1418.45 787.202C1417.53 787.202 1416.73 786.887 1416.06 786.256C1415.4 785.625 1415.07 784.867 1415.07 783.981C1415.07 783.095 1415.4 782.336 1416.06 781.706C1416.73 781.075 1417.53 780.759 1418.45 780.759C1419.38 780.759 1420.17 781.075 1420.83 781.706C1421.5 782.336 1421.83 783.095 1421.83 783.981C1421.83 784.867 1421.5 785.625 1420.83 786.256C1420.17 786.887 1419.38 787.202 1418.45 787.202ZM1454.78 792.357L1443.34 823.284H1438.51L1427.07 792.357H1432.23L1440.77 817.002H1441.09L1449.63 792.357H1454.78ZM1469.21 824.009C1467.25 824.009 1465.47 823.64 1463.88 822.902C1462.28 822.15 1461.01 821.069 1460.07 819.66C1459.13 818.237 1458.66 816.519 1458.66 814.505C1458.66 812.733 1459.01 811.297 1459.71 810.196C1460.41 809.082 1461.34 808.21 1462.51 807.579C1463.67 806.948 1464.96 806.478 1466.37 806.169C1467.8 805.847 1469.23 805.592 1470.66 805.404C1472.54 805.163 1474.06 804.982 1475.23 804.861C1476.41 804.726 1477.27 804.505 1477.81 804.196C1478.36 803.888 1478.64 803.351 1478.64 802.585V802.424C1478.64 800.438 1478.09 798.894 1477 797.793C1475.93 796.693 1474.3 796.142 1472.11 796.142C1469.84 796.142 1468.06 796.639 1466.78 797.632C1465.49 798.626 1464.58 799.686 1464.06 800.814L1459.55 799.203C1460.35 797.324 1461.43 795.86 1462.77 794.813C1464.12 793.753 1465.6 793.015 1467.2 792.599C1468.81 792.169 1470.39 791.954 1471.95 791.954C1472.94 791.954 1474.08 792.075 1475.37 792.317C1476.68 792.545 1477.93 793.021 1479.14 793.746C1480.36 794.471 1481.37 795.565 1482.18 797.028C1482.98 798.491 1483.39 800.451 1483.39 802.908V823.284H1478.64V819.096H1478.39C1478.07 819.767 1477.53 820.485 1476.78 821.251C1476.03 822.016 1475.03 822.667 1473.78 823.204C1472.53 823.741 1471.01 824.009 1469.21 824.009ZM1469.94 819.74C1471.82 819.74 1473.4 819.371 1474.69 818.633C1475.99 817.895 1476.97 816.942 1477.63 815.774C1478.3 814.606 1478.64 813.378 1478.64 812.089V807.74C1478.43 807.982 1477.99 808.203 1477.31 808.404C1476.64 808.592 1475.86 808.76 1474.97 808.908C1474.1 809.042 1473.25 809.163 1472.41 809.27C1471.59 809.364 1470.93 809.445 1470.42 809.512C1469.19 809.673 1468.03 809.935 1466.96 810.297C1465.9 810.646 1465.04 811.176 1464.38 811.888C1463.74 812.586 1463.41 813.539 1463.41 814.747C1463.41 816.398 1464.02 817.646 1465.25 818.492C1466.48 819.324 1468.04 819.74 1469.94 819.74ZM1505.51 792.357V796.384H1489.48V792.357H1505.51ZM1494.15 784.947H1498.91V814.425C1498.91 815.767 1499.1 816.774 1499.49 817.445C1499.89 818.103 1500.4 818.546 1501.02 818.774C1501.65 818.989 1502.32 819.096 1503.01 819.096C1503.54 819.096 1503.97 819.069 1504.3 819.016C1504.64 818.948 1504.91 818.895 1505.11 818.854L1506.07 823.123C1505.75 823.244 1505.3 823.365 1504.73 823.486C1504.15 823.62 1503.42 823.687 1502.53 823.687C1501.19 823.687 1499.87 823.398 1498.58 822.821C1497.31 822.244 1496.25 821.365 1495.4 820.183C1494.57 819.002 1494.15 817.512 1494.15 815.713V784.947ZM1525.29 823.928C1522.31 823.928 1519.74 823.271 1517.58 821.955C1515.43 820.626 1513.78 818.774 1512.61 816.398C1511.45 814.009 1510.88 811.23 1510.88 808.062C1510.88 804.894 1511.45 802.102 1512.61 799.686C1513.78 797.256 1515.4 795.364 1517.48 794.008C1519.57 792.639 1522.02 791.954 1524.81 791.954C1526.42 791.954 1528.01 792.223 1529.58 792.76C1531.15 793.297 1532.58 794.169 1533.87 795.377C1535.16 796.572 1536.19 798.156 1536.95 800.129C1537.72 802.102 1538.1 804.532 1538.1 807.418V809.431H1514.26V805.324H1533.27C1533.27 803.579 1532.92 802.022 1532.22 800.653C1531.53 799.283 1530.56 798.203 1529.28 797.411C1528.02 796.619 1526.53 796.223 1524.81 796.223C1522.92 796.223 1521.28 796.693 1519.9 797.632C1518.53 798.558 1517.47 799.767 1516.74 801.257C1516 802.747 1515.63 804.344 1515.63 806.049V808.787C1515.63 811.123 1516.03 813.103 1516.84 814.727C1517.66 816.338 1518.79 817.566 1520.24 818.412C1521.69 819.244 1523.37 819.66 1525.29 819.66C1526.54 819.66 1527.67 819.485 1528.68 819.136C1529.7 818.774 1530.58 818.237 1531.31 817.526C1532.05 816.801 1532.62 815.901 1533.02 814.828L1537.62 816.116C1537.13 817.673 1536.32 819.042 1535.18 820.224C1534.04 821.391 1532.63 822.304 1530.95 822.962C1529.27 823.606 1527.39 823.928 1525.29 823.928ZM1574.72 792.357V796.384H1558.7V792.357H1574.72ZM1563.37 784.947H1568.12V814.425C1568.12 815.767 1568.31 816.774 1568.7 817.445C1569.11 818.103 1569.62 818.546 1570.23 818.774C1570.87 818.989 1571.53 819.096 1572.23 819.096C1572.75 819.096 1573.18 819.069 1573.52 819.016C1573.85 818.948 1574.12 818.895 1574.32 818.854L1575.29 823.123C1574.97 823.244 1574.52 823.365 1573.94 823.486C1573.36 823.62 1572.63 823.687 1571.74 823.687C1570.4 823.687 1569.09 823.398 1567.8 822.821C1566.52 822.244 1565.46 821.365 1564.62 820.183C1563.78 819.002 1563.37 817.512 1563.37 815.713V784.947ZM1587.29 804.679V823.284H1582.54V782.048H1587.29V797.189H1587.69C1588.42 795.592 1589.5 794.323 1590.95 793.384C1592.42 792.431 1594.36 791.954 1596.79 791.954C1598.9 791.954 1600.75 792.377 1602.33 793.223C1603.91 794.055 1605.14 795.337 1606.01 797.068C1606.9 798.787 1607.34 800.975 1607.34 803.632V823.284H1602.59V803.955C1602.59 801.498 1601.95 799.599 1600.68 798.256C1599.42 796.901 1597.66 796.223 1595.42 796.223C1593.87 796.223 1592.47 796.552 1591.23 797.209C1590.01 797.867 1589.05 798.827 1588.34 800.089C1587.64 801.351 1587.29 802.881 1587.29 804.679ZM1629 823.928C1626.02 823.928 1623.45 823.271 1621.29 821.955C1619.14 820.626 1617.49 818.774 1616.32 816.398C1615.16 814.009 1614.59 811.23 1614.59 808.062C1614.59 804.894 1615.16 802.102 1616.32 799.686C1617.49 797.256 1619.11 795.364 1621.19 794.008C1623.28 792.639 1625.73 791.954 1628.52 791.954C1630.13 791.954 1631.72 792.223 1633.29 792.76C1634.86 793.297 1636.29 794.169 1637.58 795.377C1638.87 796.572 1639.9 798.156 1640.66 800.129C1641.43 802.102 1641.81 804.532 1641.81 807.418V809.431H1617.97V805.324H1636.98C1636.98 803.579 1636.63 802.022 1635.93 800.653C1635.24 799.283 1634.26 798.203 1632.99 797.411C1631.73 796.619 1630.24 796.223 1628.52 796.223C1626.63 796.223 1624.99 796.693 1623.61 797.632C1622.24 798.558 1621.18 799.767 1620.45 801.257C1619.71 802.747 1619.34 804.344 1619.34 806.049V808.787C1619.34 811.123 1619.74 813.103 1620.55 814.727C1621.37 816.338 1622.5 817.566 1623.95 818.412C1625.4 819.244 1627.08 819.66 1629 819.66C1630.25 819.66 1631.38 819.485 1632.39 819.136C1633.41 818.774 1634.29 818.237 1635.02 817.526C1635.76 816.801 1636.33 815.901 1636.73 814.828L1641.33 816.116C1640.84 817.673 1640.03 819.042 1638.89 820.224C1637.75 821.391 1636.34 822.304 1634.66 822.962C1632.98 823.606 1631.1 823.928 1629 823.928ZM1674.09 824.009C1672.13 824.009 1670.35 823.64 1668.75 822.902C1667.15 822.15 1665.88 821.069 1664.94 819.66C1664 818.237 1663.53 816.519 1663.53 814.505C1663.53 812.733 1663.88 811.297 1664.58 810.196C1665.28 809.082 1666.21 808.21 1667.38 807.579C1668.55 806.948 1669.84 806.478 1671.25 806.169C1672.67 805.847 1674.1 805.592 1675.53 805.404C1677.41 805.163 1678.94 804.982 1680.11 804.861C1681.29 804.726 1682.15 804.505 1682.68 804.196C1683.23 803.888 1683.51 803.351 1683.51 802.585V802.424C1683.51 800.438 1682.96 798.894 1681.88 797.793C1680.8 796.693 1679.17 796.142 1676.98 796.142C1674.72 796.142 1672.94 796.639 1671.65 797.632C1670.36 798.626 1669.45 799.686 1668.93 800.814L1664.42 799.203C1665.23 797.324 1666.3 795.86 1667.64 794.813C1669 793.753 1670.47 793.015 1672.07 792.599C1673.68 792.169 1675.27 791.954 1676.82 791.954C1677.82 791.954 1678.96 792.075 1680.25 792.317C1681.55 792.545 1682.8 793.021 1684.01 793.746C1685.23 794.471 1686.25 795.565 1687.05 797.028C1687.86 798.491 1688.26 800.451 1688.26 802.908V823.284H1683.51V819.096H1683.27C1682.94 819.767 1682.41 820.485 1681.66 821.251C1680.9 822.016 1679.9 822.667 1678.66 823.204C1677.41 823.741 1675.88 824.009 1674.09 824.009ZM1674.81 819.74C1676.69 819.74 1678.27 819.371 1679.56 818.633C1680.86 817.895 1681.84 816.942 1682.5 815.774C1683.17 814.606 1683.51 813.378 1683.51 812.089V807.74C1683.31 807.982 1682.86 808.203 1682.18 808.404C1681.51 808.592 1680.73 808.76 1679.84 808.908C1678.97 809.042 1678.12 809.163 1677.29 809.27C1676.47 809.364 1675.8 809.445 1675.29 809.512C1674.06 809.673 1672.9 809.935 1671.83 810.297C1670.77 810.646 1669.91 811.176 1669.25 811.888C1668.61 812.586 1668.29 813.539 1668.29 814.747C1668.29 816.398 1668.9 817.646 1670.12 818.492C1671.35 819.324 1672.92 819.74 1674.81 819.74ZM1701.69 804.679V823.284H1696.93V792.357H1701.52V797.189H1701.93C1702.65 795.619 1703.75 794.357 1705.23 793.404C1706.71 792.437 1708.61 791.954 1710.95 791.954C1713.04 791.954 1714.87 792.384 1716.44 793.243C1718.01 794.089 1719.24 795.377 1720.11 797.109C1720.98 798.827 1721.42 801.002 1721.42 803.632V823.284H1716.67V803.955C1716.67 801.525 1716.03 799.632 1714.77 798.277C1713.51 796.907 1711.78 796.223 1709.58 796.223C1708.06 796.223 1706.71 796.552 1705.51 797.209C1704.33 797.867 1703.4 798.827 1702.71 800.089C1702.03 801.351 1701.69 802.881 1701.69 804.679ZM1730.1 823.284V792.357H1734.85V823.284H1730.1ZM1732.52 787.202C1731.59 787.202 1730.79 786.887 1730.12 786.256C1729.46 785.625 1729.13 784.867 1729.13 783.981C1729.13 783.095 1729.46 782.336 1730.12 781.706C1730.79 781.075 1731.59 780.759 1732.52 780.759C1733.44 780.759 1734.23 781.075 1734.89 781.706C1735.56 782.336 1735.9 783.095 1735.9 783.981C1735.9 784.867 1735.56 785.625 1734.89 786.256C1734.23 786.887 1733.44 787.202 1732.52 787.202ZM1743.56 823.284V792.357H1748.15V797.189H1748.55C1749.19 795.538 1750.23 794.256 1751.67 793.344C1753.11 792.417 1754.83 791.954 1756.84 791.954C1758.89 791.954 1760.58 792.417 1761.94 793.344C1763.31 794.256 1764.38 795.538 1765.14 797.189H1765.46C1766.25 795.592 1767.44 794.323 1769.03 793.384C1770.61 792.431 1772.51 791.954 1774.72 791.954C1777.49 791.954 1779.75 792.82 1781.51 794.552C1783.27 796.27 1784.15 798.948 1784.15 802.585V823.284H1779.4V802.585C1779.4 800.303 1778.77 798.673 1777.52 797.693C1776.27 796.713 1774.81 796.223 1773.11 796.223C1770.94 796.223 1769.25 796.881 1768.06 798.196C1766.87 799.498 1766.27 801.149 1766.27 803.149V823.284H1761.44V802.102C1761.44 800.344 1760.87 798.928 1759.72 797.854C1758.58 796.766 1757.11 796.223 1755.31 796.223C1754.08 796.223 1752.93 796.552 1751.85 797.209C1750.79 797.867 1749.93 798.78 1749.27 799.948C1748.63 801.102 1748.31 802.438 1748.31 803.955V823.284H1743.56ZM1801.94 824.009C1799.98 824.009 1798.2 823.64 1796.6 822.902C1795 822.15 1793.74 821.069 1792.8 819.66C1791.86 818.237 1791.39 816.519 1791.39 814.505C1791.39 812.733 1791.74 811.297 1792.43 810.196C1793.13 809.082 1794.06 808.21 1795.23 807.579C1796.4 806.948 1797.69 806.478 1799.1 806.169C1800.52 805.847 1801.95 805.592 1803.39 805.404C1805.27 805.163 1806.79 804.982 1807.96 804.861C1809.14 804.726 1810 804.505 1810.53 804.196C1811.08 803.888 1811.36 803.351 1811.36 802.585V802.424C1811.36 800.438 1810.82 798.894 1809.73 797.793C1808.66 796.693 1807.02 796.142 1804.84 796.142C1802.57 796.142 1800.79 796.639 1799.5 797.632C1798.21 798.626 1797.31 799.686 1796.78 800.814L1792.27 799.203C1793.08 797.324 1794.15 795.86 1795.49 794.813C1796.85 793.753 1798.33 793.015 1799.92 792.599C1801.53 792.169 1803.12 791.954 1804.68 791.954C1805.67 791.954 1806.81 792.075 1808.1 792.317C1809.4 792.545 1810.66 793.021 1811.86 793.746C1813.09 794.471 1814.1 795.565 1814.9 797.028C1815.71 798.491 1816.11 800.451 1816.11 802.908V823.284H1811.36V819.096H1811.12C1810.8 819.767 1810.26 820.485 1809.51 821.251C1808.76 822.016 1807.76 822.667 1806.51 823.204C1805.26 823.741 1803.74 824.009 1801.94 824.009ZM1802.66 819.74C1804.54 819.74 1806.13 819.371 1807.41 818.633C1808.72 817.895 1809.7 816.942 1810.35 815.774C1811.02 814.606 1811.36 813.378 1811.36 812.089V807.74C1811.16 807.982 1810.72 808.203 1810.03 808.404C1809.36 808.592 1808.58 808.76 1807.7 808.908C1806.82 809.042 1805.97 809.163 1805.14 809.27C1804.32 809.364 1803.66 809.445 1803.15 809.512C1801.91 809.673 1800.76 809.935 1799.68 810.297C1798.62 810.646 1797.76 811.176 1797.1 811.888C1796.46 812.586 1796.14 813.539 1796.14 814.747C1796.14 816.398 1796.75 817.646 1797.97 818.492C1799.21 819.324 1800.77 819.74 1802.66 819.74ZM1838.24 792.357V796.384H1822.21V792.357H1838.24ZM1826.88 784.947H1831.63V814.425C1831.63 815.767 1831.83 816.774 1832.21 817.445C1832.62 818.103 1833.13 818.546 1833.75 818.774C1834.38 818.989 1835.04 819.096 1835.74 819.096C1836.26 819.096 1836.69 819.069 1837.03 819.016C1837.36 818.948 1837.63 818.895 1837.83 818.854L1838.8 823.123C1838.48 823.244 1838.03 823.365 1837.45 823.486C1836.87 823.62 1836.14 823.687 1835.26 823.687C1833.91 823.687 1832.6 823.398 1831.31 822.821C1830.03 822.244 1828.97 821.365 1828.13 820.183C1827.3 819.002 1826.88 817.512 1826.88 815.713V784.947ZM1845.38 823.284V792.357H1850.14V823.284H1845.38ZM1847.8 787.202C1846.87 787.202 1846.07 786.887 1845.4 786.256C1844.75 785.625 1844.42 784.867 1844.42 783.981C1844.42 783.095 1844.75 782.336 1845.4 781.706C1846.07 781.075 1846.87 780.759 1847.8 780.759C1848.73 780.759 1849.52 781.075 1850.18 781.706C1850.85 782.336 1851.18 783.095 1851.18 783.981C1851.18 784.867 1850.85 785.625 1850.18 786.256C1849.52 786.887 1848.73 787.202 1847.8 787.202ZM1871.4 823.928C1868.61 823.928 1866.16 823.264 1864.05 821.935C1861.96 820.606 1860.32 818.747 1859.14 816.358C1857.97 813.968 1857.39 811.176 1857.39 807.982C1857.39 804.76 1857.97 801.948 1859.14 799.545C1860.32 797.142 1861.96 795.276 1864.05 793.948C1866.16 792.619 1868.61 791.954 1871.4 791.954C1874.19 791.954 1876.64 792.619 1878.73 793.948C1880.84 795.276 1882.48 797.142 1883.64 799.545C1884.83 801.948 1885.42 804.76 1885.42 807.982C1885.42 811.176 1884.83 813.968 1883.64 816.358C1882.48 818.747 1880.84 820.606 1878.73 821.935C1876.64 823.264 1874.19 823.928 1871.4 823.928ZM1871.4 819.66C1873.52 819.66 1875.27 819.116 1876.64 818.029C1878.01 816.942 1879.02 815.512 1879.68 813.74C1880.34 811.968 1880.66 810.049 1880.66 807.982C1880.66 805.914 1880.34 803.988 1879.68 802.203C1879.02 800.418 1878.01 798.975 1876.64 797.874C1875.27 796.773 1873.52 796.223 1871.4 796.223C1869.28 796.223 1867.54 796.773 1866.17 797.874C1864.8 798.975 1863.78 800.418 1863.13 802.203C1862.47 803.988 1862.14 805.914 1862.14 807.982C1862.14 810.049 1862.47 811.968 1863.13 813.74C1863.78 815.512 1864.8 816.942 1866.17 818.029C1867.54 819.116 1869.28 819.66 1871.4 819.66ZM1897.42 804.679V823.284H1892.67V792.357H1897.26V797.189H1897.66C1898.39 795.619 1899.49 794.357 1900.97 793.404C1902.44 792.437 1904.35 791.954 1906.68 791.954C1908.78 791.954 1910.61 792.384 1912.18 793.243C1913.75 794.089 1914.97 795.377 1915.85 797.109C1916.72 798.827 1917.15 801.002 1917.15 803.632V823.284H1912.4V803.955C1912.4 801.525 1911.77 799.632 1910.51 798.277C1909.25 796.907 1907.52 796.223 1905.31 796.223C1903.8 796.223 1902.44 796.552 1901.25 797.209C1900.07 797.867 1899.13 798.827 1898.45 800.089C1897.76 801.351 1897.42 802.881 1897.42 804.679ZM1947.74 799.283L1943.48 800.491C1943.21 799.78 1942.81 799.089 1942.29 798.418C1941.78 797.733 1941.08 797.169 1940.19 796.726C1939.31 796.283 1938.17 796.062 1936.79 796.062C1934.9 796.062 1933.32 796.498 1932.06 797.371C1930.81 798.23 1930.19 799.324 1930.19 800.653C1930.19 801.834 1930.62 802.767 1931.48 803.451C1932.33 804.136 1933.68 804.706 1935.5 805.163L1940.09 806.29C1942.86 806.961 1944.92 807.988 1946.27 809.371C1947.63 810.74 1948.31 812.505 1948.31 814.666C1948.31 816.438 1947.8 818.022 1946.78 819.418C1945.77 820.814 1944.36 821.915 1942.55 822.72C1940.74 823.526 1938.63 823.928 1936.23 823.928C1933.07 823.928 1930.46 823.244 1928.39 821.875C1926.33 820.506 1925.02 818.505 1924.47 815.875L1928.98 814.747C1929.41 816.411 1930.22 817.66 1931.41 818.492C1932.62 819.324 1934.2 819.74 1936.15 819.74C1938.36 819.74 1940.12 819.271 1941.42 818.331C1942.74 817.378 1943.4 816.237 1943.4 814.908C1943.4 813.834 1943.02 812.935 1942.27 812.21C1941.52 811.472 1940.36 810.921 1938.8 810.559L1933.65 809.351C1930.82 808.68 1928.74 807.639 1927.41 806.23C1926.09 804.807 1925.43 803.028 1925.43 800.894C1925.43 799.149 1925.92 797.605 1926.9 796.263C1927.9 794.921 1929.25 793.867 1930.95 793.102C1932.67 792.337 1934.62 791.954 1936.79 791.954C1939.85 791.954 1942.25 792.625 1944 793.968C1945.76 795.31 1947.01 797.082 1947.74 799.283ZM1958.92 823.606C1957.93 823.606 1957.08 823.251 1956.37 822.539C1955.66 821.828 1955.3 820.975 1955.3 819.982C1955.3 818.989 1955.66 818.136 1956.37 817.425C1957.08 816.713 1957.93 816.358 1958.92 816.358C1959.92 816.358 1960.77 816.713 1961.48 817.425C1962.19 818.136 1962.55 818.989 1962.55 819.982C1962.55 820.64 1962.38 821.244 1962.05 821.794C1961.72 822.345 1961.29 822.788 1960.74 823.123C1960.2 823.445 1959.6 823.606 1958.92 823.606Z" fill="white"/>
<rect x="332" y="271" width="300" height="300" fill="#514D4D"/>
<rect x="332" y="258" width="300" height="300" fill="#7B7070"/>
<circle cx="482" cy="408" r="93" fill="#572C2C"/>
<circle cx="482" cy="407" r="93" fill="#873F3F"/>
<circle cx="408.545" cy="442.545" r="70.875" fill="black"/>
<circle cx="402.875" cy="436.875" r="70.875" fill="#BABABA"/>
<mask id="mask0_916_2196" style="mask-type:alpha" maskUnits="userSpaceOnUse" x="1255" y="46" width="302" height="443">
<rect x="1255" y="46" width="302" height="443" fill="#3C3B39"/>
</mask>
<g mask="url(#mask0_916_2196)">
<rect x="1050" y="116" width="712" height="397" fill="#2C2C2B"/>
</g>
<mask id="mask1_916_2196" style="mask-type:alpha" maskUnits="userSpaceOnUse" x="1255" y="117" width="302" height="356">
<rect x="1255" y="204.332" width="302" height="268.668" fill="#3C3B39"/>
<ellipse cx="1406" cy="208.577" rx="151" ry="91.5775" fill="#3C3B39"/>
</mask>
<g mask="url(#mask1_916_2196)">
<rect x="1050" y="246.785" width="712" height="240.77" fill="#3C3B39"/>
</g>
<mask id="mask2_916_2196" style="mask-type:alpha" maskUnits="userSpaceOnUse" x="1255" y="117" width="302" height="356">
<rect width="302" height="268.668" transform="matrix(1 0 0 -1 1255 385.668)" fill="#3C3B39"/>
<ellipse cx="151" cy="91.5775" rx="151" ry="91.5775" transform="matrix(1 0 0 -1 1255 473)" fill="#3C3B39"/>
</mask>
<g mask="url(#mask2_916_2196)">
<rect width="712" height="240.77" transform="matrix(1 0 0 -1 1050 343.215)" fill="#3C3B39"/>
</g>
<path fill-rule="evenodd" clip-rule="evenodd" d="M1142 97H1670V716H1557V280V273H1556.84C1553.18 192.855 1487.05 129 1406 129C1324.95 129 1258.82 192.855 1255.16 273H1255V280V716H1142V97Z" fill="#4D4C49"/>
<path d="M1586.06 510.843C1585.47 510.257 1584.53 510.257 1583.94 510.843L1574.39 520.389C1573.81 520.974 1573.81 521.924 1574.39 522.51C1574.98 523.096 1575.93 523.096 1576.51 522.51L1585 514.025L1593.49 522.51C1594.07 523.096 1595.02 523.096 1595.61 522.51C1596.19 521.924 1596.19 520.974 1595.61 520.389L1586.06 510.843ZM1586.5 698V511.903H1583.5V698H1586.5Z" fill="#777373"/>
<path d="M1225.94 510.843C1226.53 510.257 1227.47 510.257 1228.06 510.843L1237.61 520.389C1238.19 520.974 1238.19 521.924 1237.61 522.51C1237.02 523.096 1236.07 523.096 1235.49 522.51L1227 514.025L1218.51 522.51C1217.93 523.096 1216.98 523.096 1216.39 522.51C1215.81 521.924 1215.81 520.974 1216.39 520.389L1225.94 510.843ZM1225.5 698V511.903H1228.5V698H1225.5Z" fill="#777373"/>
</svg>
