<svg width="2164" height="1117" viewBox="0 0 2164 1117" fill="none" xmlns="http://www.w3.org/2000/svg">
<rect width="2163.1" height="1116.99" rx="85.05" fill="#171717"/>
<path d="M534.224 69.3919V54.8767H635.567V69.3919H593.077V190H576.714V69.3919H534.224ZM648.185 190V88.6575H663.228V103.964H664.284C666.131 98.9501 669.474 94.8815 674.313 91.7585C679.151 88.6355 684.605 87.074 690.675 87.074C691.819 87.074 693.248 87.096 694.964 87.14C696.679 87.184 697.977 87.25 698.856 87.338V103.173C698.329 103.041 697.119 102.843 695.228 102.579C693.38 102.271 691.423 102.117 689.356 102.117C684.429 102.117 680.031 103.151 676.16 105.218C672.333 107.241 669.298 110.056 667.055 113.663C664.856 117.226 663.756 121.295 663.756 125.869V190H648.185ZM717.314 190V88.6575H732.885V190H717.314ZM725.231 71.7671C722.196 71.7671 719.579 70.7334 717.38 68.6661C715.225 66.5988 714.147 64.1136 714.147 61.2106C714.147 58.3076 715.225 55.8224 717.38 53.7551C719.579 51.6877 722.196 50.6541 725.231 50.6541C728.266 50.6541 730.861 51.6877 733.017 53.7551C735.216 55.8224 736.316 58.3076 736.316 61.2106C736.316 64.1136 735.216 66.5988 733.017 68.6661C730.861 70.7334 728.266 71.7671 725.231 71.7671ZM802.31 230.115C794.789 230.115 788.323 229.147 782.913 227.212C777.502 225.32 772.994 222.813 769.387 219.69C765.824 216.611 762.987 213.312 760.876 209.793L773.28 201.084C774.687 202.932 776.469 205.043 778.624 207.418C780.779 209.837 783.726 211.927 787.465 213.686C791.248 215.49 796.196 216.391 802.31 216.391C810.492 216.391 817.243 214.412 822.566 210.453C827.888 206.495 830.549 200.293 830.549 191.847V171.262H829.229C828.086 173.11 826.458 175.397 824.347 178.124C822.28 180.807 819.289 183.204 815.374 185.316C811.503 187.383 806.269 188.417 799.671 188.417C791.49 188.417 784.144 186.481 777.634 182.61C771.169 178.74 766.044 173.11 762.261 165.72C758.523 158.33 756.653 149.357 756.653 138.801C756.653 128.42 758.479 119.381 762.13 111.684C765.78 103.942 770.861 97.9604 777.37 93.7378C783.88 89.4712 791.402 87.338 799.935 87.338C806.533 87.338 811.767 88.4376 815.638 90.6369C819.553 92.7921 822.544 95.2553 824.611 98.0264C826.722 100.754 828.35 102.997 829.493 104.756H831.077V88.6575H846.12V192.903C846.12 201.612 844.14 208.694 840.182 214.148C836.267 219.646 830.989 223.671 824.347 226.222C817.749 228.817 810.404 230.115 802.31 230.115ZM801.782 174.429C808.028 174.429 813.307 173 817.617 170.141C821.928 167.282 825.205 163.169 827.448 157.803C829.691 152.436 830.813 146.015 830.813 138.537C830.813 131.235 829.713 124.792 827.514 119.205C825.315 113.619 822.06 109.243 817.749 106.076C813.439 102.909 808.116 101.325 801.782 101.325C795.185 101.325 789.686 102.997 785.288 106.34C780.933 109.683 777.656 114.169 775.457 119.799C773.302 125.429 772.224 131.675 772.224 138.537C772.224 145.575 773.324 151.799 775.523 157.209C777.766 162.575 781.065 166.798 785.42 169.877C789.818 172.912 795.273 174.429 801.782 174.429ZM915.529 230.115C908.007 230.115 901.541 229.147 896.131 227.212C890.721 225.32 886.212 222.813 882.606 219.69C879.043 216.611 876.206 213.312 874.094 209.793L886.498 201.084C887.906 202.932 889.687 205.043 891.843 207.418C893.998 209.837 896.945 211.927 900.684 213.686C904.466 215.49 909.415 216.391 915.529 216.391C923.71 216.391 930.462 214.412 935.784 210.453C941.106 206.495 943.767 200.293 943.767 191.847V171.262H942.448C941.304 173.11 939.677 175.397 937.566 178.124C935.498 180.807 932.507 183.204 928.592 185.316C924.722 187.383 919.487 188.417 912.89 188.417C904.708 188.417 897.363 186.481 890.853 182.61C884.387 178.74 879.263 173.11 875.48 165.72C871.741 158.33 869.872 149.357 869.872 138.801C869.872 128.42 871.697 119.381 875.348 111.684C878.999 103.942 884.079 97.9604 890.589 93.7378C897.099 89.4712 904.62 87.338 913.154 87.338C919.751 87.338 924.986 88.4376 928.856 90.6369C932.771 92.7921 935.762 95.2553 937.829 98.0264C939.941 100.754 941.568 102.997 942.712 104.756H944.295V88.6575H959.338V192.903C959.338 201.612 957.359 208.694 953.4 214.148C949.486 219.646 944.207 223.671 937.566 226.222C930.968 228.817 923.622 230.115 915.529 230.115ZM915.001 174.429C921.247 174.429 926.525 173 930.836 170.141C935.146 167.282 938.423 163.169 940.666 157.803C942.91 152.436 944.031 146.015 944.031 138.537C944.031 131.235 942.932 124.792 940.732 119.205C938.533 113.619 935.278 109.243 930.968 106.076C926.657 102.909 921.335 101.325 915.001 101.325C908.403 101.325 902.905 102.997 898.506 106.34C894.152 109.683 890.875 114.169 888.676 119.799C886.52 125.429 885.443 131.675 885.443 138.537C885.443 145.575 886.542 151.799 888.742 157.209C890.985 162.575 894.284 166.798 898.638 169.877C903.037 172.912 908.491 174.429 915.001 174.429ZM1030.33 192.111C1020.57 192.111 1012.14 189.956 1005.06 185.645C998.023 181.291 992.591 175.221 988.765 167.435C984.982 159.606 983.09 150.501 983.09 140.12C983.09 129.74 984.982 120.591 988.765 112.674C992.591 104.712 997.914 98.5103 1004.73 94.0677C1011.59 89.5812 1019.6 87.338 1028.75 87.338C1034.03 87.338 1039.24 88.2177 1044.38 89.9771C1049.53 91.7365 1054.21 94.5955 1058.44 98.5542C1062.66 102.469 1066.03 107.659 1068.53 114.125C1071.04 120.591 1072.29 128.552 1072.29 138.009V144.607H994.175V131.147H1056.46C1056.46 125.429 1055.31 120.327 1053.03 115.841C1050.78 111.354 1047.57 107.813 1043.39 105.218C1039.26 102.623 1034.38 101.325 1028.75 101.325C1022.55 101.325 1017.18 102.865 1012.65 105.944C1008.16 108.979 1004.71 112.937 1002.29 117.82C999.871 122.702 998.661 127.937 998.661 133.523V142.496C998.661 150.149 999.981 156.637 1002.62 161.959C1005.3 167.238 1009.02 171.262 1013.77 174.033C1018.52 176.76 1024.04 178.124 1030.33 178.124C1034.42 178.124 1038.12 177.552 1041.42 176.408C1044.76 175.221 1047.64 173.461 1050.06 171.13C1052.48 168.755 1054.35 165.808 1055.67 162.289L1070.71 166.512C1069.13 171.614 1066.46 176.101 1062.73 179.971C1058.99 183.798 1054.37 186.789 1048.87 188.944C1043.37 191.056 1037.19 192.111 1030.33 192.111ZM1095.98 190V88.6575H1111.02V103.964H1112.08C1113.93 98.9501 1117.27 94.8815 1122.11 91.7585C1126.94 88.6355 1132.4 87.074 1138.47 87.074C1139.61 87.074 1141.04 87.096 1142.76 87.14C1144.47 87.184 1145.77 87.25 1146.65 87.338V103.173C1146.12 103.041 1144.91 102.843 1143.02 102.579C1141.17 102.271 1139.22 102.117 1137.15 102.117C1132.22 102.117 1127.82 103.151 1123.95 105.218C1120.13 107.241 1117.09 110.056 1114.85 113.663C1112.65 117.226 1111.55 121.295 1111.55 125.869V190H1095.98ZM1204.51 192.111C1194.75 192.111 1186.33 189.956 1179.24 185.645C1172.21 181.291 1166.77 175.221 1162.95 167.435C1159.16 159.606 1157.27 150.501 1157.27 140.12C1157.27 129.74 1159.16 120.591 1162.95 112.674C1166.77 104.712 1172.1 98.5103 1178.91 94.0677C1185.78 89.5812 1193.78 87.338 1202.93 87.338C1208.21 87.338 1213.42 88.2177 1218.57 89.9771C1223.71 91.7365 1228.4 94.5955 1232.62 98.5542C1236.84 102.469 1240.21 107.659 1242.71 114.125C1245.22 120.591 1246.48 128.552 1246.48 138.009V144.607H1168.36V131.147H1230.64C1230.64 125.429 1229.5 120.327 1227.21 115.841C1224.97 111.354 1221.76 107.813 1217.58 105.218C1213.44 102.623 1208.56 101.325 1202.93 101.325C1196.73 101.325 1191.36 102.865 1186.83 105.944C1182.34 108.979 1178.89 112.937 1176.47 117.82C1174.05 122.702 1172.84 127.937 1172.84 133.523V142.496C1172.84 150.149 1174.16 156.637 1176.8 161.959C1179.49 167.238 1183.2 171.262 1187.95 174.033C1192.7 176.76 1198.22 178.124 1204.51 178.124C1208.6 178.124 1212.3 177.552 1215.6 176.408C1218.94 175.221 1221.82 173.461 1224.24 171.13C1226.66 168.755 1228.53 165.808 1229.85 162.289L1244.89 166.512C1243.31 171.614 1240.65 176.101 1236.91 179.971C1233.17 183.798 1228.55 186.789 1223.05 188.944C1217.55 191.056 1211.37 192.111 1204.51 192.111ZM1308.43 192.111C1299.98 192.111 1292.53 189.978 1286.06 185.711C1279.6 181.401 1274.54 175.331 1270.89 167.501C1267.24 159.628 1265.41 150.325 1265.41 139.593C1265.41 128.948 1267.24 119.711 1270.89 111.882C1274.54 104.052 1279.62 98.0044 1286.13 93.7378C1292.64 89.4712 1300.16 87.338 1308.69 87.338C1315.29 87.338 1320.5 88.4376 1324.33 90.6369C1328.2 92.7921 1331.15 95.2553 1333.17 98.0264C1335.24 100.754 1336.84 102.997 1337.99 104.756H1339.31V54.8767H1354.88V190H1339.83V174.429H1337.99C1336.84 176.277 1335.22 178.608 1333.1 181.423C1330.99 184.194 1327.98 186.679 1324.07 188.878C1320.15 191.034 1314.94 192.111 1308.43 192.111ZM1310.54 178.124C1316.79 178.124 1322.06 176.496 1326.37 173.242C1330.69 169.943 1333.96 165.39 1336.21 159.584C1338.45 153.734 1339.57 146.982 1339.57 139.329C1339.57 131.763 1338.47 125.143 1336.27 119.469C1334.07 113.751 1330.82 109.309 1326.51 106.142C1322.2 102.931 1316.87 101.325 1310.54 101.325C1303.94 101.325 1298.44 103.019 1294.05 106.406C1289.69 109.749 1286.41 114.301 1284.21 120.063C1282.06 125.781 1280.98 132.203 1280.98 139.329C1280.98 146.542 1282.08 153.096 1284.28 158.99C1286.52 164.84 1289.82 169.503 1294.18 172.978C1298.58 176.408 1304.03 178.124 1310.54 178.124ZM1439.92 190V54.8767H1455.49V104.756H1456.81C1457.96 102.997 1459.54 100.754 1461.56 98.0264C1463.63 95.2553 1466.58 92.7921 1470.41 90.6369C1474.28 88.4376 1479.51 87.338 1486.11 87.338C1494.64 87.338 1502.16 89.4712 1508.67 93.7378C1515.18 98.0044 1520.26 104.052 1523.91 111.882C1527.56 119.711 1529.39 128.948 1529.39 139.593C1529.39 150.325 1527.56 159.628 1523.91 167.501C1520.26 175.331 1515.2 181.401 1508.74 185.711C1502.27 189.978 1494.82 192.111 1486.37 192.111C1479.86 192.111 1474.65 191.034 1470.74 188.878C1466.82 186.679 1463.81 184.194 1461.7 181.423C1459.58 178.608 1457.96 176.277 1456.81 174.429H1454.97V190H1439.92ZM1455.23 139.329C1455.23 146.982 1456.35 153.734 1458.6 159.584C1460.84 165.39 1464.12 169.943 1468.43 173.242C1472.74 176.496 1478.01 178.124 1484.26 178.124C1490.77 178.124 1496.2 176.408 1500.56 172.978C1504.96 169.503 1508.25 164.84 1510.45 158.99C1512.7 153.096 1513.82 146.542 1513.82 139.329C1513.82 132.203 1512.72 125.781 1510.52 120.063C1508.36 114.301 1505.09 109.749 1500.69 106.406C1496.33 103.019 1490.86 101.325 1484.26 101.325C1477.93 101.325 1472.6 102.931 1468.29 106.142C1463.98 109.309 1460.73 113.751 1458.53 119.469C1456.33 125.143 1455.23 131.763 1455.23 139.329ZM1559.61 228.003C1556.97 228.003 1554.62 227.784 1552.55 227.344C1550.48 226.948 1549.05 226.552 1548.26 226.156L1552.22 212.433C1556 213.4 1559.34 213.752 1562.25 213.488C1565.15 213.224 1567.72 211.927 1569.97 209.596C1572.25 207.308 1574.34 203.592 1576.23 198.445L1579.14 190.528L1541.66 88.6575H1558.55L1586.53 169.415H1587.58L1615.56 88.6575H1632.45L1589.43 204.779C1587.49 210.013 1585.1 214.346 1582.24 217.777C1579.38 221.252 1576.06 223.825 1572.28 225.496C1568.54 227.168 1564.31 228.003 1559.61 228.003Z" fill="white"/>
<path d="M525.251 226.948H775.672V239.616H525.251V226.948ZM828.875 226.948H888.891V239.616H828.875V226.948ZM942.094 226.948H1544.19V239.616H942.094V226.948ZM1574.66 226.948H1638.78V239.616H1574.66V226.948Z" fill="white"/>
<path d="M996.749 1040.4C994.883 1040.4 993.431 1039.92 992.394 1038.95C991.427 1037.91 990.943 1036.46 990.943 1034.59V973.112C990.943 971.245 991.427 969.828 992.394 968.861C993.431 967.824 994.883 967.305 996.749 967.305H1021.42C1026.47 967.305 1030.76 968.066 1034.28 969.586C1037.88 971.107 1040.61 973.284 1042.47 976.118C1044.41 978.952 1045.37 982.374 1045.37 986.383C1045.37 990.806 1044.06 994.539 1041.43 997.58C1038.81 1000.62 1035.25 1002.66 1030.76 1003.7V1002.14C1035.87 1002.83 1039.88 1004.77 1042.78 1007.95C1045.69 1011.06 1047.14 1015.14 1047.14 1020.18C1047.14 1026.68 1044.99 1031.69 1040.71 1035.22C1036.42 1038.67 1030.41 1040.4 1022.67 1040.4H996.749ZM1001.31 1032.11H1021.42C1026.61 1032.11 1030.44 1031.1 1032.93 1029.1C1035.42 1027.03 1036.67 1023.91 1036.67 1019.77C1036.67 1015.62 1035.42 1012.54 1032.93 1010.54C1030.44 1008.54 1026.61 1007.53 1021.42 1007.53H1001.31V1032.11ZM1001.31 999.239H1019.77C1024.74 999.239 1028.51 998.237 1031.07 996.232C1033.62 994.228 1034.9 991.29 1034.9 987.419C1034.9 983.549 1033.62 980.611 1031.07 978.607C1028.51 976.602 1024.74 975.6 1019.77 975.6H1001.31V999.239ZM1076.75 1041.33C1071.36 1041.33 1067.28 1039.78 1064.52 1036.67C1061.82 1033.49 1060.47 1028.93 1060.47 1022.98V971.867C1060.47 970.139 1060.92 968.826 1061.82 967.928C1062.72 967.029 1064 966.58 1065.66 966.58C1067.32 966.58 1068.6 967.029 1069.49 967.928C1070.46 968.826 1070.95 970.139 1070.95 971.867V1022.36C1070.95 1025.82 1071.64 1028.41 1073.02 1030.14C1074.47 1031.79 1076.55 1032.62 1079.24 1032.62C1079.86 1032.62 1080.42 1032.62 1080.9 1032.62C1081.38 1032.55 1081.87 1032.49 1082.35 1032.42C1083.18 1032.35 1083.77 1032.59 1084.11 1033.14C1084.46 1033.63 1084.63 1034.66 1084.63 1036.25C1084.63 1037.7 1084.32 1038.84 1083.7 1039.67C1083.08 1040.43 1082.07 1040.92 1080.69 1041.13C1080.07 1041.19 1079.41 1041.23 1078.72 1041.23C1078.03 1041.3 1077.37 1041.33 1076.75 1041.33ZM1113.64 1041.33C1108.53 1041.33 1104.1 1040.26 1100.37 1038.12C1096.71 1035.98 1093.84 1032.93 1091.76 1029C1089.69 1025.06 1088.65 1020.42 1088.65 1015.1C1088.65 1011.02 1089.24 1007.4 1090.42 1004.22C1091.59 1001.04 1093.25 998.306 1095.39 996.025C1097.6 993.675 1100.23 991.912 1103.27 990.737C1106.38 989.493 1109.84 988.871 1113.64 988.871C1118.69 988.871 1123.04 989.942 1126.7 992.085C1130.44 994.228 1133.34 997.269 1135.41 1001.21C1137.49 1005.08 1138.52 1009.71 1138.52 1015.1C1138.52 1019.11 1137.94 1022.74 1136.76 1025.99C1135.59 1029.24 1133.89 1032 1131.68 1034.28C1129.54 1036.56 1126.91 1038.33 1123.8 1039.57C1120.76 1040.75 1117.37 1041.33 1113.64 1041.33ZM1113.64 1033.25C1116.47 1033.25 1118.96 1032.55 1121.1 1031.17C1123.25 1029.79 1124.91 1027.75 1126.08 1025.06C1127.33 1022.36 1127.95 1019.04 1127.95 1015.1C1127.95 1009.16 1126.63 1004.66 1124.01 1001.62C1121.38 998.582 1117.93 997.062 1113.64 997.062C1110.74 997.062 1108.21 997.753 1106.07 999.135C1103.93 1000.45 1102.24 1002.45 1100.99 1005.15C1099.82 1007.84 1099.23 1011.16 1099.23 1015.1C1099.23 1020.98 1100.54 1025.47 1103.17 1028.58C1105.79 1031.69 1109.29 1033.25 1113.64 1033.25ZM1172.57 1041.33C1167.39 1041.33 1162.9 1040.26 1159.1 1038.12C1155.36 1035.91 1152.46 1032.83 1150.39 1028.89C1148.31 1024.88 1147.28 1020.18 1147.28 1014.79C1147.28 1010.78 1147.86 1007.19 1149.04 1004.01C1150.21 1000.76 1151.87 998.029 1154.02 995.818C1156.23 993.606 1158.89 991.912 1162 990.737C1165.18 989.493 1168.7 988.871 1172.57 988.871C1174.99 988.871 1177.52 989.251 1180.14 990.011C1182.84 990.703 1185.33 991.878 1187.61 993.537C1188.51 994.089 1189.06 994.781 1189.27 995.61C1189.54 996.37 1189.58 997.165 1189.37 997.995C1189.23 998.824 1188.85 999.55 1188.23 1000.17C1187.68 1000.73 1186.99 1001.07 1186.16 1001.21C1185.33 1001.28 1184.43 1001.04 1183.46 1000.48C1181.8 999.308 1180.11 998.479 1178.38 997.995C1176.65 997.442 1174.99 997.165 1173.4 997.165C1170.92 997.165 1168.7 997.58 1166.77 998.409C1164.9 999.17 1163.31 1000.31 1162 1001.83C1160.69 1003.28 1159.68 1005.11 1158.99 1007.33C1158.37 1009.54 1158.06 1012.06 1158.06 1014.89C1158.06 1020.56 1159.37 1025.02 1162 1028.27C1164.7 1031.45 1168.5 1033.04 1173.4 1033.04C1174.99 1033.04 1176.65 1032.8 1178.38 1032.31C1180.11 1031.83 1181.8 1031 1183.46 1029.82C1184.43 1029.27 1185.33 1029.06 1186.16 1029.2C1186.99 1029.34 1187.64 1029.72 1188.13 1030.34C1188.68 1030.9 1189.03 1031.59 1189.16 1032.42C1189.37 1033.18 1189.34 1033.97 1189.06 1034.8C1188.78 1035.63 1188.2 1036.32 1187.3 1036.87C1185.09 1038.46 1182.67 1039.61 1180.04 1040.3C1177.48 1040.99 1174.99 1041.33 1172.57 1041.33ZM1203.87 1041.13C1202.21 1041.13 1200.93 1040.68 1200.03 1039.78C1199.13 1038.81 1198.68 1037.5 1198.68 1035.84V971.867C1198.68 970.139 1199.13 968.826 1200.03 967.928C1200.93 967.029 1202.21 966.58 1203.87 966.58C1205.52 966.58 1206.8 967.029 1207.7 967.928C1208.67 968.826 1209.15 970.139 1209.15 971.867V1011.89H1209.36L1228.75 992.603C1229.85 991.497 1230.86 990.633 1231.75 990.011C1232.65 989.389 1233.83 989.078 1235.28 989.078C1236.73 989.078 1237.84 989.458 1238.6 990.219C1239.36 990.979 1239.74 991.912 1239.74 993.018C1239.74 994.055 1239.22 995.126 1238.18 996.232L1217.65 1016.55V1011.68L1240.05 1033.97C1241.16 1035.08 1241.67 1036.18 1241.6 1037.29C1241.54 1038.4 1241.09 1039.33 1240.26 1040.09C1239.43 1040.78 1238.39 1041.13 1237.15 1041.13C1235.56 1041.13 1234.28 1040.81 1233.31 1040.19C1232.41 1039.57 1231.34 1038.64 1230.1 1037.39L1209.36 1017.28H1209.15V1035.84C1209.15 1039.36 1207.39 1041.13 1203.87 1041.13Z" fill="white"/>
<path fill-rule="evenodd" clip-rule="evenodd" d="M832.68 938.28C815.184 938.28 801 952.464 801 969.96V1041.96C801 1059.46 815.184 1073.64 832.68 1073.64H904.68C922.176 1073.64 936.36 1059.46 936.36 1041.96V969.96C936.36 952.464 922.176 938.28 904.68 938.28H832.68ZM832.681 949.8C821.547 949.8 812.521 958.826 812.521 969.96V1041.96C812.521 1053.09 821.547 1062.12 832.681 1062.12H904.681C915.815 1062.12 924.841 1053.09 924.841 1041.96V969.96C924.841 958.826 915.815 949.8 904.681 949.8H832.681Z" fill="white"/>
<path d="M1025.16 875.733C1017.21 875.733 1010.5 874.247 1005.04 871.275C999.583 868.233 995.436 863.913 992.602 858.315C989.837 852.716 988.454 846.046 988.454 838.304C988.454 832.498 989.249 827.314 990.839 822.752C992.498 818.121 994.848 814.182 997.889 810.933C1001 807.615 1004.77 805.092 1009.19 803.364C1013.68 801.636 1018.76 800.772 1024.43 800.772C1028.58 800.772 1032.66 801.325 1036.67 802.431C1040.67 803.468 1044.34 805.196 1047.66 807.615C1048.62 808.306 1049.25 809.101 1049.52 810C1049.8 810.898 1049.8 811.831 1049.52 812.799C1049.31 813.698 1048.87 814.493 1048.17 815.184C1047.55 815.875 1046.76 816.29 1045.79 816.428C1044.89 816.566 1043.89 816.29 1042.78 815.599C1040.09 813.732 1037.25 812.384 1034.28 811.555C1031.31 810.656 1028.03 810.207 1024.43 810.207C1019.04 810.207 1014.48 811.313 1010.75 813.525C1007.08 815.737 1004.32 818.951 1002.45 823.167C1000.59 827.314 999.652 832.36 999.652 838.304C999.652 847.497 1001.83 854.479 1006.18 859.248C1010.54 864.017 1017 866.402 1025.57 866.402C1028.68 866.402 1031.72 866.125 1034.7 865.572C1037.74 864.95 1040.64 864.086 1043.4 862.98L1041.23 868.372V844.214H1027.85C1026.47 844.214 1025.36 843.869 1024.54 843.177C1023.77 842.417 1023.39 841.38 1023.39 840.067C1023.39 838.754 1023.77 837.786 1024.54 837.164C1025.36 836.473 1026.47 836.127 1027.85 836.127H1045.79C1047.24 836.127 1048.35 836.507 1049.11 837.268C1049.87 838.028 1050.25 839.134 1050.25 840.585V866.713C1050.25 867.957 1050.01 869.028 1049.52 869.927C1049.11 870.756 1048.38 871.378 1047.34 871.793C1044.37 872.968 1040.88 873.936 1036.87 874.696C1032.86 875.387 1028.96 875.733 1025.16 875.733ZM1070.93 875.526C1069.2 875.526 1067.88 875.076 1066.99 874.178C1066.09 873.21 1065.64 871.897 1065.64 870.238V828.766C1065.64 827.038 1066.09 825.725 1066.99 824.826C1067.88 823.927 1069.13 823.478 1070.72 823.478C1072.38 823.478 1073.62 823.927 1074.45 824.826C1075.35 825.725 1075.8 827.038 1075.8 828.766V836.335H1074.76C1075.87 832.187 1077.91 829.042 1080.88 826.9C1083.85 824.757 1087.65 823.513 1092.28 823.167C1093.53 823.098 1094.5 823.409 1095.19 824.1C1095.95 824.791 1096.36 825.863 1096.43 827.314C1096.57 828.766 1096.26 829.941 1095.5 830.839C1094.74 831.669 1093.56 832.153 1091.97 832.291L1090 832.498C1085.51 832.913 1082.09 834.33 1079.74 836.749C1077.39 839.168 1076.21 842.486 1076.21 846.703V870.238C1076.21 871.897 1075.76 873.21 1074.87 874.178C1074.04 875.076 1072.72 875.526 1070.93 875.526ZM1119.98 875.733C1116.46 875.733 1113.28 875.042 1110.45 873.659C1107.68 872.277 1105.5 870.411 1103.91 868.061C1102.32 865.711 1101.53 863.049 1101.53 860.077C1101.53 856.345 1102.46 853.407 1104.33 851.264C1106.26 849.053 1109.41 847.497 1113.76 846.599C1118.19 845.631 1124.13 845.147 1131.6 845.147H1136.47V851.575H1131.7C1126.72 851.575 1122.78 851.817 1119.88 852.301C1116.98 852.785 1114.9 853.615 1113.66 854.79C1112.48 855.895 1111.9 857.451 1111.9 859.455C1111.9 862.082 1112.8 864.224 1114.59 865.883C1116.39 867.473 1118.88 868.268 1122.06 868.268C1124.61 868.268 1126.86 867.68 1128.8 866.505C1130.73 865.261 1132.25 863.602 1133.36 861.529C1134.53 859.455 1135.12 857.071 1135.12 854.375V842.452C1135.12 838.512 1134.29 835.678 1132.63 833.95C1130.97 832.222 1128.24 831.358 1124.44 831.358C1122.23 831.358 1119.91 831.634 1117.5 832.187C1115.15 832.74 1112.69 833.673 1110.13 834.987C1108.96 835.54 1107.96 835.712 1107.13 835.505C1106.3 835.298 1105.64 834.848 1105.16 834.157C1104.67 833.397 1104.4 832.602 1104.33 831.773C1104.33 830.874 1104.54 830.01 1104.95 829.181C1105.43 828.351 1106.23 827.729 1107.33 827.314C1110.38 825.863 1113.38 824.826 1116.36 824.204C1119.33 823.582 1122.13 823.271 1124.75 823.271C1129.38 823.271 1133.19 823.997 1136.16 825.448C1139.2 826.9 1141.45 829.111 1142.9 832.084C1144.35 835.056 1145.07 838.892 1145.07 843.592V870.238C1145.07 871.897 1144.66 873.21 1143.83 874.178C1143 875.076 1141.79 875.526 1140.2 875.526C1138.68 875.526 1137.47 875.076 1136.57 874.178C1135.67 873.21 1135.22 871.897 1135.22 870.238V863.499H1136.16C1135.61 866.056 1134.57 868.268 1133.05 870.134C1131.6 871.931 1129.76 873.314 1127.55 874.281C1125.34 875.249 1122.82 875.733 1119.98 875.733ZM1164.68 894.188C1163.02 894.188 1161.74 893.739 1160.85 892.84C1159.95 891.942 1159.5 890.628 1159.5 888.9V828.766C1159.5 827.038 1159.95 825.725 1160.85 824.826C1161.74 823.927 1162.99 823.478 1164.58 823.478C1166.24 823.478 1167.52 823.927 1168.41 824.826C1169.31 825.725 1169.76 827.038 1169.76 828.766V837.786L1168.62 835.609C1169.73 831.876 1171.9 828.904 1175.15 826.692C1178.4 824.411 1182.24 823.271 1186.66 823.271C1191.15 823.271 1195.06 824.342 1198.38 826.485C1201.76 828.628 1204.36 831.634 1206.15 835.505C1208.02 839.376 1208.95 844.041 1208.95 849.502C1208.95 854.824 1208.02 859.49 1206.15 863.499C1204.36 867.439 1201.8 870.48 1198.48 872.623C1195.16 874.696 1191.22 875.733 1186.66 875.733C1182.31 875.733 1178.51 874.627 1175.26 872.415C1172.01 870.203 1169.83 867.266 1168.72 863.602H1169.97V888.9C1169.97 890.628 1169.49 891.942 1168.52 892.84C1167.62 893.739 1166.34 894.188 1164.68 894.188ZM1184.07 867.646C1186.97 867.646 1189.5 866.955 1191.64 865.572C1193.78 864.19 1195.44 862.151 1196.61 859.455C1197.79 856.759 1198.38 853.442 1198.38 849.502C1198.38 843.558 1197.06 839.065 1194.44 836.023C1191.88 832.982 1188.42 831.462 1184.07 831.462C1181.24 831.462 1178.71 832.153 1176.5 833.535C1174.36 834.848 1172.7 836.853 1171.52 839.549C1170.35 842.244 1169.76 845.562 1169.76 849.502C1169.76 855.377 1171.07 859.87 1173.7 862.98C1176.33 866.091 1179.78 867.646 1184.07 867.646ZM1225.94 894.188C1224.28 894.188 1223 893.739 1222.1 892.84C1221.2 891.942 1220.75 890.628 1220.75 888.9V828.766C1220.75 827.038 1221.2 825.725 1222.1 824.826C1223 823.927 1224.24 823.478 1225.83 823.478C1227.49 823.478 1228.77 823.927 1229.67 824.826C1230.57 825.725 1231.02 827.038 1231.02 828.766V837.786L1229.88 835.609C1230.98 831.876 1233.16 828.904 1236.41 826.692C1239.66 824.411 1243.49 823.271 1247.92 823.271C1252.41 823.271 1256.32 824.342 1259.63 826.485C1263.02 828.628 1265.61 831.634 1267.41 835.505C1269.28 839.376 1270.21 844.041 1270.21 849.502C1270.21 854.824 1269.28 859.49 1267.41 863.499C1265.61 867.439 1263.06 870.48 1259.74 872.623C1256.42 874.696 1252.48 875.733 1247.92 875.733C1243.56 875.733 1239.76 874.627 1236.51 872.415C1233.26 870.203 1231.09 867.266 1229.98 863.602H1231.23V888.9C1231.23 890.628 1230.74 891.942 1229.77 892.84C1228.88 893.739 1227.6 894.188 1225.94 894.188ZM1245.33 867.646C1248.23 867.646 1250.75 866.955 1252.89 865.572C1255.04 864.19 1256.7 862.151 1257.87 859.455C1259.05 856.759 1259.63 853.442 1259.63 849.502C1259.63 843.558 1258.32 839.065 1255.69 836.023C1253.14 832.982 1249.68 831.462 1245.33 831.462C1242.49 831.462 1239.97 832.153 1237.76 833.535C1235.61 834.848 1233.96 836.853 1232.78 839.549C1231.61 842.244 1231.02 845.562 1231.02 849.502C1231.02 855.377 1232.33 859.87 1234.96 862.98C1237.58 866.091 1241.04 867.646 1245.33 867.646ZM1298.29 875.733C1292.9 875.733 1288.82 874.178 1286.05 871.067C1283.36 867.888 1282.01 863.326 1282.01 857.382V806.267C1282.01 804.539 1282.46 803.226 1283.36 802.327C1284.26 801.429 1285.53 800.98 1287.19 800.98C1288.85 800.98 1290.13 801.429 1291.03 802.327C1292 803.226 1292.48 804.539 1292.48 806.267V856.759C1292.48 860.215 1293.17 862.807 1294.56 864.535C1296.01 866.194 1298.08 867.024 1300.78 867.024C1301.4 867.024 1301.95 867.024 1302.43 867.024C1302.92 866.955 1303.4 866.886 1303.89 866.816C1304.72 866.747 1305.3 866.989 1305.65 867.542C1305.99 868.026 1306.17 869.063 1306.17 870.653C1306.17 872.104 1305.86 873.245 1305.23 874.074C1304.61 874.834 1303.61 875.318 1302.23 875.526C1301.61 875.595 1300.95 875.629 1300.26 875.629C1299.57 875.698 1298.91 875.733 1298.29 875.733ZM1336.94 875.733C1331.41 875.733 1326.64 874.696 1322.63 872.623C1318.69 870.48 1315.61 867.473 1313.4 863.602C1311.26 859.663 1310.19 854.997 1310.19 849.606C1310.19 844.352 1311.26 839.756 1313.4 835.816C1315.54 831.876 1318.48 828.8 1322.21 826.589C1325.95 824.377 1330.2 823.271 1334.97 823.271C1338.49 823.271 1341.64 823.858 1344.4 825.033C1347.17 826.139 1349.52 827.798 1351.45 830.01C1353.46 832.153 1354.94 834.779 1355.91 837.89C1356.95 841 1357.47 844.491 1357.47 848.361C1357.47 849.536 1357.12 850.435 1356.43 851.057C1355.74 851.61 1354.7 851.887 1353.32 851.887H1318.48V845.458H1350.42L1348.65 846.91C1348.65 843.454 1348.13 840.516 1347.1 838.097C1346.13 835.678 1344.64 833.846 1342.64 832.602C1340.7 831.289 1338.29 830.632 1335.38 830.632C1332.13 830.632 1329.37 831.392 1327.09 832.913C1324.88 834.434 1323.18 836.542 1322.01 839.238C1320.83 841.933 1320.25 845.078 1320.25 848.672V849.295C1320.25 855.377 1321.66 859.974 1324.5 863.084C1327.4 866.125 1331.58 867.646 1337.04 867.646C1339.11 867.646 1341.29 867.369 1343.57 866.816C1345.92 866.263 1348.13 865.33 1350.21 864.017C1351.38 863.326 1352.42 863.015 1353.32 863.084C1354.29 863.153 1355.05 863.464 1355.6 864.017C1356.22 864.57 1356.6 865.261 1356.74 866.091C1356.88 866.92 1356.74 867.784 1356.33 868.683C1355.91 869.512 1355.19 870.272 1354.15 870.964C1351.8 872.553 1349.07 873.763 1345.96 874.592C1342.85 875.353 1339.84 875.733 1336.94 875.733Z" fill="white"/>
<path fill-rule="evenodd" clip-rule="evenodd" d="M832.68 772.68C815.184 772.68 801 786.864 801 804.36V876.36C801 893.857 815.184 908.04 832.68 908.04H904.68C922.176 908.04 936.36 893.857 936.36 876.36V804.36C936.36 786.864 922.176 772.68 904.68 772.68H832.68ZM832.681 784.2C821.547 784.2 812.521 793.226 812.521 804.36V876.36C812.521 887.494 821.547 896.52 832.681 896.52H904.681C915.815 896.52 924.841 887.494 924.841 876.36V804.36C924.841 793.226 915.815 784.2 904.681 784.2H832.681Z" fill="white"/>
<path d="M996.645 709.926C994.848 709.926 993.431 709.442 992.394 708.474C991.427 707.507 990.943 706.09 990.943 704.224V641.912C990.943 640.046 991.427 638.629 992.394 637.661C993.431 636.624 994.883 636.106 996.749 636.106H1033.66C1035.18 636.106 1036.29 636.486 1036.98 637.246C1037.74 637.937 1038.12 638.974 1038.12 640.357C1038.12 641.808 1037.74 642.914 1036.98 643.674C1036.29 644.435 1035.18 644.815 1033.66 644.815H1001.73V668.143H1031.59C1032.97 668.143 1034.04 668.523 1034.8 669.283C1035.63 669.975 1036.04 671.011 1036.04 672.394C1036.04 673.845 1035.63 674.951 1034.8 675.712C1034.04 676.472 1032.97 676.852 1031.59 676.852H1001.73V704.224C1001.73 708.025 1000.03 709.926 996.645 709.926ZM1069.03 710.133C1063.5 710.133 1058.73 709.097 1054.72 707.023C1050.78 704.88 1047.71 701.873 1045.49 698.003C1043.35 694.063 1042.28 689.397 1042.28 684.006C1042.28 678.753 1043.35 674.156 1045.49 670.217C1047.64 666.277 1050.58 663.201 1054.31 660.989C1058.04 658.777 1062.29 657.671 1067.06 657.671C1070.59 657.671 1073.73 658.259 1076.5 659.434C1079.26 660.54 1081.61 662.199 1083.55 664.41C1085.55 666.553 1087.04 669.18 1088 672.29C1089.04 675.401 1089.56 678.891 1089.56 682.762C1089.56 683.937 1089.21 684.835 1088.52 685.457C1087.83 686.01 1086.79 686.287 1085.41 686.287H1050.58V679.859H1082.51L1080.75 681.31C1080.75 677.854 1080.23 674.917 1079.19 672.497C1078.22 670.078 1076.74 668.247 1074.73 667.002C1072.8 665.689 1070.38 665.033 1067.47 665.033C1064.23 665.033 1061.46 665.793 1059.18 667.313C1056.97 668.834 1055.28 670.942 1054.1 673.638C1052.93 676.334 1052.34 679.479 1052.34 683.073V683.695C1052.34 689.777 1053.75 694.374 1056.59 697.484C1059.49 700.526 1063.67 702.046 1069.13 702.046C1071.21 702.046 1073.38 701.77 1075.67 701.217C1078.02 700.664 1080.23 699.731 1082.3 698.417C1083.48 697.726 1084.51 697.415 1085.41 697.484C1086.38 697.553 1087.14 697.865 1087.69 698.417C1088.31 698.97 1088.69 699.662 1088.83 700.491C1088.97 701.321 1088.83 702.185 1088.42 703.083C1088 703.913 1087.28 704.673 1086.24 705.364C1083.89 706.954 1081.16 708.163 1078.05 708.993C1074.94 709.753 1071.93 710.133 1069.03 710.133ZM1124.72 710.133C1119.19 710.133 1114.42 709.097 1110.41 707.023C1106.47 704.88 1103.39 701.873 1101.18 698.003C1099.04 694.063 1097.97 689.397 1097.97 684.006C1097.97 678.753 1099.04 674.156 1101.18 670.217C1103.32 666.277 1106.26 663.201 1109.99 660.989C1113.73 658.777 1117.98 657.671 1122.75 657.671C1126.27 657.671 1129.42 658.259 1132.18 659.434C1134.95 660.54 1137.3 662.199 1139.23 664.41C1141.24 666.553 1142.72 669.18 1143.69 672.29C1144.73 675.401 1145.25 678.891 1145.25 682.762C1145.25 683.937 1144.9 684.835 1144.21 685.457C1143.52 686.01 1142.48 686.287 1141.1 686.287H1106.26V679.859H1138.2L1136.43 681.31C1136.43 677.854 1135.91 674.917 1134.88 672.497C1133.91 670.078 1132.42 668.247 1130.42 667.002C1128.48 665.689 1126.07 665.033 1123.16 665.033C1119.91 665.033 1117.15 665.793 1114.87 667.313C1112.66 668.834 1110.96 670.942 1109.79 673.638C1108.61 676.334 1108.03 679.479 1108.03 683.073V683.695C1108.03 689.777 1109.44 694.374 1112.28 697.484C1115.18 700.526 1119.36 702.046 1124.82 702.046C1126.89 702.046 1129.07 701.77 1131.35 701.217C1133.7 700.664 1135.91 699.731 1137.99 698.417C1139.16 697.726 1140.2 697.415 1141.1 697.484C1142.07 697.553 1142.83 697.865 1143.38 698.417C1144 698.97 1144.38 699.662 1144.52 700.491C1144.66 701.321 1144.52 702.185 1144.11 703.083C1143.69 703.913 1142.97 704.673 1141.93 705.364C1139.58 706.954 1136.85 708.163 1133.74 708.993C1130.63 709.753 1127.62 710.133 1124.72 710.133ZM1178.13 710.133C1173.98 710.133 1170.49 709.408 1167.65 707.956C1164.82 706.505 1162.71 704.362 1161.33 701.528C1159.95 698.694 1159.26 695.238 1159.26 691.16V666.691H1153.04C1151.65 666.691 1150.58 666.346 1149.82 665.655C1149.06 664.894 1148.68 663.892 1148.68 662.648C1148.68 661.335 1149.06 660.332 1149.82 659.641C1150.58 658.95 1151.65 658.604 1153.04 658.604H1159.26V647.925C1159.26 646.197 1159.71 644.884 1160.6 643.985C1161.57 643.087 1162.89 642.638 1164.54 642.638C1166.2 642.638 1167.48 643.087 1168.38 643.985C1169.28 644.884 1169.73 646.197 1169.73 647.925V658.604H1181.86C1183.24 658.604 1184.31 658.95 1185.07 659.641C1185.83 660.332 1186.21 661.335 1186.21 662.648C1186.21 663.892 1185.83 664.894 1185.07 665.655C1184.31 666.346 1183.24 666.691 1181.86 666.691H1169.73V690.33C1169.73 693.994 1170.49 696.759 1172.01 698.625C1173.6 700.491 1176.16 701.424 1179.68 701.424C1180.93 701.424 1182 701.321 1182.9 701.113C1183.86 700.837 1184.66 700.664 1185.28 700.595C1186.04 700.595 1186.66 700.871 1187.15 701.424C1187.63 701.908 1187.87 702.876 1187.87 704.327C1187.87 705.364 1187.67 706.332 1187.25 707.23C1186.9 708.129 1186.25 708.716 1185.28 708.993C1184.45 709.269 1183.31 709.511 1181.86 709.719C1180.48 709.995 1179.23 710.133 1178.13 710.133Z" fill="white"/>
<path fill-rule="evenodd" clip-rule="evenodd" d="M832.68 607.081C815.184 607.081 801 621.264 801 638.761V710.761C801 728.257 815.184 742.441 832.68 742.441H904.68C922.176 742.441 936.36 728.257 936.36 710.761V638.761C936.36 621.264 922.176 607.081 904.68 607.081H832.68ZM832.681 618.6C821.547 618.6 812.521 627.626 812.521 638.76V710.76C812.521 721.894 821.547 730.92 832.681 730.92H904.681C915.815 730.92 924.841 721.894 924.841 710.76V638.76C924.841 627.626 915.815 618.6 904.681 618.6H832.681Z" fill="white"/>
<path d="M996.334 544.326C994.606 544.326 993.258 543.842 992.291 542.874C991.392 541.907 990.943 540.559 990.943 538.831V475.275C990.943 473.478 991.392 472.13 992.291 471.231C993.258 470.264 994.606 469.78 996.334 469.78C998.062 469.78 999.375 470.264 1000.27 471.231C1001.24 472.13 1001.73 473.478 1001.73 475.275V502.024H1042.68V475.275C1042.68 473.478 1043.13 472.13 1044.03 471.231C1044.99 470.264 1046.34 469.78 1048.07 469.78C1049.8 469.78 1051.11 470.264 1052.01 471.231C1052.91 472.13 1053.36 473.478 1053.36 475.275V538.831C1053.36 540.559 1052.91 541.907 1052.01 542.874C1051.11 543.842 1049.8 544.326 1048.07 544.326C1046.34 544.326 1044.99 543.842 1044.03 542.874C1043.13 541.907 1042.68 540.559 1042.68 538.831V511.045H1001.73V538.831C1001.73 540.559 1001.28 541.907 1000.38 542.874C999.479 543.842 998.131 544.326 996.334 544.326ZM1093.03 544.533C1087.5 544.533 1082.73 543.496 1078.72 541.423C1074.78 539.28 1071.7 536.273 1069.49 532.403C1067.35 528.463 1066.28 523.797 1066.28 518.406C1066.28 513.153 1067.35 508.556 1069.49 504.616C1071.63 500.677 1074.57 497.601 1078.3 495.389C1082.04 493.177 1086.29 492.071 1091.06 492.071C1094.58 492.071 1097.73 492.659 1100.49 493.834C1103.26 494.94 1105.61 496.598 1107.54 498.81C1109.55 500.953 1111.03 503.58 1112 506.69C1113.04 509.8 1113.55 513.291 1113.55 517.162C1113.55 518.337 1113.21 519.235 1112.52 519.857C1111.83 520.41 1110.79 520.687 1109.41 520.687H1074.57V514.259H1106.5L1104.74 515.71C1104.74 512.254 1104.22 509.317 1103.19 506.897C1102.22 504.478 1100.73 502.646 1098.73 501.402C1096.79 500.089 1094.37 499.432 1091.47 499.432C1088.22 499.432 1085.46 500.193 1083.18 501.713C1080.96 503.234 1079.27 505.342 1078.1 508.038C1076.92 510.734 1076.33 513.878 1076.33 517.473V518.095C1076.33 524.177 1077.75 528.774 1080.58 531.884C1083.49 534.926 1087.67 536.446 1093.13 536.446C1095.2 536.446 1097.38 536.17 1099.66 535.617C1102.01 535.064 1104.22 534.131 1106.3 532.817C1107.47 532.126 1108.51 531.815 1109.41 531.884C1110.38 531.953 1111.14 532.264 1111.69 532.817C1112.31 533.37 1112.69 534.062 1112.83 534.891C1112.97 535.72 1112.83 536.584 1112.41 537.483C1112 538.312 1111.27 539.073 1110.24 539.764C1107.89 541.354 1105.16 542.563 1102.05 543.393C1098.94 544.153 1095.93 544.533 1093.03 544.533ZM1141.15 544.533C1137.62 544.533 1134.44 543.842 1131.61 542.46C1128.84 541.077 1126.66 539.211 1125.07 536.861C1123.48 534.511 1122.69 531.85 1122.69 528.878C1122.69 525.145 1123.62 522.207 1125.49 520.065C1127.42 517.853 1130.57 516.298 1134.92 515.399C1139.35 514.431 1145.29 513.948 1152.76 513.948H1157.63V520.376H1152.86C1147.88 520.376 1143.94 520.618 1141.04 521.102C1138.14 521.585 1136.06 522.415 1134.82 523.59C1133.65 524.696 1133.06 526.251 1133.06 528.255C1133.06 530.882 1133.96 533.025 1135.75 534.684C1137.55 536.273 1140.04 537.068 1143.22 537.068C1145.78 537.068 1148.02 536.481 1149.96 535.306C1151.89 534.062 1153.41 532.403 1154.52 530.329C1155.69 528.255 1156.28 525.871 1156.28 523.175V511.252C1156.28 507.312 1155.45 504.478 1153.79 502.75C1152.14 501.022 1149.4 500.158 1145.6 500.158C1143.39 500.158 1141.08 500.435 1138.66 500.988C1136.31 501.541 1133.85 502.474 1131.3 503.787C1130.12 504.34 1129.12 504.513 1128.29 504.305C1127.46 504.098 1126.8 503.649 1126.32 502.958C1125.84 502.197 1125.56 501.402 1125.49 500.573C1125.49 499.674 1125.7 498.81 1126.11 497.981C1126.6 497.151 1127.39 496.529 1128.5 496.115C1131.54 494.663 1134.54 493.626 1137.52 493.004C1140.49 492.382 1143.29 492.071 1145.91 492.071C1150.55 492.071 1154.35 492.797 1157.32 494.248C1160.36 495.7 1162.61 497.912 1164.06 500.884C1165.51 503.856 1166.24 507.692 1166.24 512.392V539.038C1166.24 540.697 1165.82 542.01 1164.99 542.978C1164.16 543.877 1162.95 544.326 1161.36 544.326C1159.84 544.326 1158.63 543.877 1157.73 542.978C1156.84 542.01 1156.39 540.697 1156.39 539.038V532.299H1157.32C1156.77 534.856 1155.73 537.068 1154.21 538.934C1152.76 540.732 1150.93 542.114 1148.71 543.082C1146.5 544.049 1143.98 544.533 1141.15 544.533ZM1199.94 544.533C1195.52 544.533 1191.61 543.496 1188.23 541.423C1184.91 539.28 1182.32 536.239 1180.45 532.299C1178.58 528.29 1177.65 523.624 1177.65 518.302C1177.65 512.842 1178.58 508.176 1180.45 504.305C1182.32 500.435 1184.91 497.428 1188.23 495.285C1191.61 493.142 1195.52 492.071 1199.94 492.071C1204.37 492.071 1208.17 493.177 1211.35 495.389C1214.6 497.532 1216.77 500.435 1217.88 504.098H1216.74V475.068C1216.74 473.34 1217.19 472.026 1218.09 471.128C1218.99 470.229 1220.26 469.78 1221.92 469.78C1223.58 469.78 1224.86 470.229 1225.76 471.128C1226.73 472.026 1227.21 473.34 1227.21 475.068V539.038C1227.21 540.697 1226.76 542.01 1225.86 542.978C1224.96 543.877 1223.69 544.326 1222.03 544.326C1220.37 544.326 1219.09 543.877 1218.19 542.978C1217.29 542.01 1216.84 540.697 1216.84 539.038V529.914L1217.98 532.195C1216.88 535.928 1214.7 538.934 1211.45 541.215C1208.27 543.427 1204.44 544.533 1199.94 544.533ZM1202.64 536.446C1205.47 536.446 1207.96 535.755 1210.1 534.373C1212.25 532.99 1213.91 530.951 1215.08 528.255C1216.32 525.56 1216.95 522.242 1216.95 518.302C1216.95 512.358 1215.63 507.865 1213.01 504.824C1210.38 501.782 1206.92 500.262 1202.64 500.262C1199.74 500.262 1197.21 500.953 1195.07 502.335C1192.93 503.649 1191.23 505.653 1189.99 508.349C1188.81 511.045 1188.23 514.362 1188.23 518.302C1188.23 524.177 1189.54 528.67 1192.17 531.781C1194.79 534.891 1198.28 536.446 1202.64 536.446Z" fill="white"/>
<path fill-rule="evenodd" clip-rule="evenodd" d="M832.68 441.48C815.184 441.48 801 455.664 801 473.16V545.16C801 562.657 815.184 576.84 832.68 576.84H904.68C922.176 576.84 936.36 562.657 936.36 545.16V473.16C936.36 455.664 922.176 441.48 904.68 441.48H832.68ZM832.681 453C821.547 453 812.521 462.026 812.521 473.16V545.16C812.521 556.294 821.547 565.32 832.681 565.32H904.681C915.815 565.32 924.841 556.294 924.841 545.16V473.16C924.841 462.026 915.815 453 904.681 453H832.681Z" fill="white"/>
<path d="M996.334 378.726C994.606 378.726 993.258 378.242 992.291 377.274C991.392 376.307 990.943 374.959 990.943 373.231V309.675C990.943 307.878 991.392 306.53 992.291 305.631C993.258 304.664 994.606 304.18 996.334 304.18C998.062 304.18 999.375 304.664 1000.27 305.631C1001.24 306.53 1001.73 307.878 1001.73 309.675V336.424H1042.68V309.675C1042.68 307.878 1043.13 306.53 1044.03 305.631C1044.99 304.664 1046.34 304.18 1048.07 304.18C1049.8 304.18 1051.11 304.664 1052.01 305.631C1052.91 306.53 1053.36 307.878 1053.36 309.675V373.231C1053.36 374.959 1052.91 376.307 1052.01 377.274C1051.11 378.242 1049.8 378.726 1048.07 378.726C1046.34 378.726 1044.99 378.242 1044.03 377.274C1043.13 376.307 1042.68 374.959 1042.68 373.231V345.444H1001.73V373.231C1001.73 374.959 1001.28 376.307 1000.38 377.274C999.479 378.242 998.131 378.726 996.334 378.726ZM1085.46 378.933C1081.93 378.933 1078.75 378.242 1075.92 376.86C1073.15 375.477 1070.98 373.611 1069.39 371.261C1067.8 368.911 1067 366.25 1067 363.277C1067 359.545 1067.94 356.607 1069.8 354.465C1071.74 352.253 1074.88 350.698 1079.24 349.799C1083.66 348.831 1089.6 348.348 1097.07 348.348H1101.94V354.776H1097.17C1092.2 354.776 1088.26 355.018 1085.35 355.501C1082.45 355.985 1080.38 356.815 1079.13 357.99C1077.96 359.096 1077.37 360.651 1077.37 362.655C1077.37 365.282 1078.27 367.425 1080.07 369.084C1081.86 370.673 1084.35 371.468 1087.53 371.468C1090.09 371.468 1092.34 370.881 1094.27 369.706C1096.21 368.461 1097.73 366.803 1098.83 364.729C1100.01 362.655 1100.59 360.271 1100.59 357.575V345.652C1100.59 341.712 1099.77 338.878 1098.11 337.15C1096.45 335.422 1093.72 334.558 1089.92 334.558C1087.7 334.558 1085.39 334.835 1082.97 335.388C1080.62 335.94 1078.17 336.874 1075.61 338.187C1074.43 338.74 1073.43 338.913 1072.6 338.705C1071.77 338.498 1071.12 338.049 1070.63 337.357C1070.15 336.597 1069.87 335.802 1069.8 334.973C1069.8 334.074 1070.01 333.21 1070.42 332.381C1070.91 331.551 1071.7 330.929 1072.81 330.515C1075.85 329.063 1078.86 328.026 1081.83 327.404C1084.8 326.782 1087.6 326.471 1090.23 326.471C1094.86 326.471 1098.66 327.197 1101.63 328.648C1104.67 330.1 1106.92 332.312 1108.37 335.284C1109.82 338.256 1110.55 342.092 1110.55 346.792V373.438C1110.55 375.097 1110.13 376.41 1109.3 377.378C1108.47 378.276 1107.27 378.726 1105.68 378.726C1104.15 378.726 1102.95 378.276 1102.05 377.378C1101.15 376.41 1100.7 375.097 1100.7 373.438V366.699H1101.63C1101.08 369.256 1100.04 371.468 1098.52 373.334C1097.07 375.132 1095.24 376.514 1093.03 377.482C1090.81 378.449 1088.29 378.933 1085.46 378.933ZM1130.16 378.726C1128.5 378.726 1127.22 378.276 1126.32 377.378C1125.42 376.41 1124.97 375.097 1124.97 373.438V331.966C1124.97 330.238 1125.42 328.925 1126.32 328.026C1127.22 327.128 1128.46 326.678 1130.05 326.678C1131.71 326.678 1132.95 327.128 1133.78 328.026C1134.68 328.925 1135.13 330.238 1135.13 331.966V340.053L1133.99 338.187C1135.51 334.316 1137.9 331.413 1141.15 329.478C1144.39 327.473 1148.13 326.471 1152.34 326.471C1156.35 326.471 1159.67 327.231 1162.3 328.752C1164.99 330.204 1167 332.45 1168.31 335.491C1169.62 338.463 1170.28 342.23 1170.28 346.792V373.438C1170.28 375.097 1169.83 376.41 1168.93 377.378C1168.03 378.276 1166.75 378.726 1165.1 378.726C1163.37 378.726 1162.05 378.276 1161.16 377.378C1160.26 376.41 1159.81 375.097 1159.81 373.438V347.414C1159.81 343.06 1158.94 339.88 1157.22 337.876C1155.56 335.871 1152.93 334.869 1149.34 334.869C1145.12 334.869 1141.73 336.182 1139.18 338.809C1136.69 341.436 1135.44 344.961 1135.44 349.384V373.438C1135.44 376.963 1133.68 378.726 1130.16 378.726ZM1203.99 378.933C1199.57 378.933 1195.66 377.896 1192.28 375.823C1188.96 373.68 1186.37 370.639 1184.5 366.699C1182.63 362.69 1181.7 358.024 1181.7 352.702C1181.7 347.242 1182.63 342.576 1184.5 338.705C1186.37 334.835 1188.96 331.828 1192.28 329.685C1195.66 327.542 1199.57 326.471 1203.99 326.471C1208.42 326.471 1212.22 327.577 1215.4 329.789C1218.65 331.932 1220.82 334.835 1221.93 338.498H1220.79V309.468C1220.79 307.74 1221.24 306.426 1222.14 305.528C1223.04 304.629 1224.31 304.18 1225.97 304.18C1227.63 304.18 1228.91 304.629 1229.81 305.528C1230.78 306.426 1231.26 307.74 1231.26 309.468V373.438C1231.26 375.097 1230.81 376.41 1229.91 377.378C1229.01 378.276 1227.74 378.726 1226.08 378.726C1224.42 378.726 1223.14 378.276 1222.24 377.378C1221.34 376.41 1220.89 375.097 1220.89 373.438V364.314L1222.03 366.595C1220.93 370.328 1218.75 373.334 1215.5 375.615C1212.32 377.827 1208.49 378.933 1203.99 378.933ZM1206.69 370.846C1209.52 370.846 1212.01 370.155 1214.15 368.772C1216.3 367.39 1217.96 365.351 1219.13 362.655C1220.37 359.96 1221 356.642 1221 352.702C1221 346.758 1219.68 342.265 1217.06 339.224C1214.43 336.182 1210.97 334.662 1206.69 334.662C1203.79 334.662 1201.26 335.353 1199.12 336.735C1196.98 338.049 1195.28 340.053 1194.04 342.749C1192.86 345.444 1192.28 348.762 1192.28 352.702C1192.28 358.577 1193.59 363.07 1196.22 366.18C1198.84 369.291 1202.33 370.846 1206.69 370.846Z" fill="white"/>
<path fill-rule="evenodd" clip-rule="evenodd" d="M832.68 275.88C815.184 275.88 801 290.064 801 307.56V379.56C801 397.057 815.184 411.24 832.68 411.24H904.68C922.176 411.24 936.36 397.057 936.36 379.56V307.56C936.36 290.064 922.176 275.88 904.68 275.88H832.68ZM832.681 287.4C821.547 287.4 812.521 296.426 812.521 307.56V379.56C812.521 390.694 821.547 399.72 832.681 399.72H904.681C915.815 399.72 924.841 390.694 924.841 379.56V307.56C924.841 296.426 915.815 287.4 904.681 287.4H832.681Z" fill="white"/>
</svg>
