<svg width="2164" height="1117" viewBox="0 0 2164 1117" fill="none" xmlns="http://www.w3.org/2000/svg">
<rect width="2163.1" height="1116.99" rx="85.05" fill="#171717"/>
<line y1="-18" x2="257.002" y2="-18" transform="matrix(0 -1 -1 0 1507 257.002)" stroke="#2D2B2B" stroke-width="36"/>
<line x1="639" y1="257.002" x2="639" stroke="#2D2B2B" stroke-width="36"/>
<rect x="-17.5" y="17.5" width="1117" height="585" transform="matrix(-1 0 0 1 1623 215)" fill="#3C3120" stroke="#2A2318" stroke-width="35"/>
<path d="M816.557 459.065C815.011 446.007 808.739 435.87 797.743 428.654C786.747 421.437 773.259 417.829 757.28 417.829C745.596 417.829 735.373 419.719 726.61 423.499C717.933 427.279 711.147 432.477 706.25 439.092C701.439 445.707 699.033 453.224 699.033 461.643C699.033 468.687 700.709 474.744 704.059 479.813C707.495 484.795 711.877 488.962 717.203 492.312C722.53 495.577 728.114 498.283 733.955 500.431C739.797 502.493 745.167 504.168 750.063 505.456L776.867 512.673C783.74 514.477 791.386 516.968 799.805 520.147C808.31 523.325 816.428 527.664 824.16 533.162C831.978 538.574 838.421 545.533 843.49 554.038C848.558 562.543 851.092 572.981 851.092 585.352C851.092 599.613 847.355 612.499 839.881 624.011C832.493 635.523 821.669 644.672 807.408 651.459C793.233 658.246 776.008 661.639 755.733 661.639C736.833 661.639 720.468 658.589 706.636 652.49C692.891 646.39 682.066 637.885 674.163 626.975C666.345 616.064 661.921 603.393 660.89 588.96H693.879C694.738 598.925 698.088 607.173 703.93 613.702C709.858 620.145 717.332 624.956 726.352 628.135C735.459 631.227 745.252 632.774 755.733 632.774C767.932 632.774 778.886 630.798 788.594 626.846C798.301 622.808 805.99 617.224 811.66 610.094C817.33 602.877 820.165 594.458 820.165 584.836C820.165 576.074 817.717 568.943 812.82 563.445C807.923 557.947 801.48 553.48 793.49 550.043C785.501 546.607 776.867 543.6 767.589 541.023L735.115 531.745C714.497 525.817 698.174 517.355 686.147 506.358C674.12 495.362 668.106 480.972 668.106 463.189C668.106 448.413 672.101 435.526 680.09 424.53C688.166 413.448 698.99 404.857 712.564 398.757C726.224 392.572 741.472 389.479 758.311 389.479C775.321 389.479 790.441 392.529 803.671 398.628C816.901 404.642 827.382 412.889 835.113 423.37C842.931 433.851 847.055 445.75 847.484 459.065H816.557ZM929.925 537.93V657H899.513V393.087H929.925V489.993H932.502C937.141 479.77 944.1 471.651 953.378 465.638C962.742 459.538 975.199 456.488 990.748 456.488C1004.24 456.488 1016.05 459.194 1026.19 464.607C1036.32 469.933 1044.18 478.137 1049.77 489.22C1055.44 500.216 1058.27 514.219 1058.27 531.229V657H1027.86V533.291C1027.86 517.57 1023.78 505.413 1015.62 496.823C1007.54 488.146 996.333 483.807 981.986 483.807C972.02 483.807 963.086 485.912 955.182 490.122C947.364 494.331 941.179 500.474 936.626 508.549C932.158 516.625 929.925 526.418 929.925 537.93ZM1194.32 661.124C1176.45 661.124 1160.77 656.871 1147.29 648.366C1133.88 639.861 1123.4 627.963 1115.84 612.671C1108.37 597.379 1104.63 579.51 1104.63 559.064C1104.63 538.445 1108.37 520.448 1115.84 505.07C1123.4 489.692 1133.88 477.751 1147.29 469.246C1160.77 460.741 1176.45 456.488 1194.32 456.488C1212.19 456.488 1227.83 460.741 1241.23 469.246C1254.71 477.751 1265.2 489.692 1272.67 505.07C1280.23 520.448 1284.01 538.445 1284.01 559.064C1284.01 579.51 1280.23 597.379 1272.67 612.671C1265.2 627.963 1254.71 639.861 1241.23 648.366C1227.83 656.871 1212.19 661.124 1194.32 661.124ZM1194.32 633.805C1207.89 633.805 1219.06 630.325 1227.83 623.367C1236.59 616.408 1243.07 607.259 1247.28 595.919C1251.49 584.579 1253.6 572.294 1253.6 559.064C1253.6 545.834 1251.49 533.506 1247.28 522.08C1243.07 510.654 1236.59 501.419 1227.83 494.374C1219.06 487.33 1207.89 483.807 1194.32 483.807C1180.75 483.807 1169.58 487.33 1160.82 494.374C1152.05 501.419 1145.57 510.654 1141.36 522.08C1137.15 533.506 1135.04 545.834 1135.04 559.064C1135.04 572.294 1137.15 584.579 1141.36 595.919C1145.57 607.259 1152.05 616.408 1160.82 623.367C1169.58 630.325 1180.75 633.805 1194.32 633.805ZM1330.43 731.225V459.065H1359.81V490.508H1363.42C1365.66 487.072 1368.75 482.69 1372.7 477.364C1376.74 471.952 1382.49 467.141 1389.97 462.931C1397.53 458.636 1407.75 456.488 1420.64 456.488C1437.3 456.488 1451.99 460.655 1464.71 468.988C1477.42 477.321 1487.35 489.134 1494.48 504.425C1501.61 519.717 1505.17 537.758 1505.17 558.548C1505.17 579.51 1501.61 597.68 1494.48 613.058C1487.35 628.349 1477.47 640.205 1464.84 648.624C1452.21 656.957 1437.65 661.124 1421.15 661.124C1408.44 661.124 1398.26 659.019 1390.61 654.809C1382.97 650.514 1377.08 645.66 1372.96 640.248C1368.83 634.75 1365.66 630.196 1363.42 626.588H1360.84V731.225H1330.43ZM1360.33 558.033C1360.33 572.981 1362.52 586.168 1366.9 597.594C1371.28 608.934 1377.68 617.825 1386.1 624.269C1394.52 630.626 1404.83 633.805 1417.03 633.805C1429.74 633.805 1440.35 630.454 1448.86 623.753C1457.45 616.966 1463.89 607.86 1468.19 596.434C1472.57 584.922 1474.76 572.122 1474.76 558.033C1474.76 544.115 1472.61 531.573 1468.32 520.405C1464.11 509.15 1457.71 500.259 1449.12 493.73C1440.61 487.115 1429.92 483.807 1417.03 483.807C1404.66 483.807 1394.26 486.943 1385.84 493.214C1377.43 499.4 1371.07 508.077 1366.77 519.245C1362.48 530.327 1360.33 543.256 1360.33 558.033Z" fill="white"/>
</svg>
