<svg width="763" height="394" viewBox="0 0 763 394" fill="none" xmlns="http://www.w3.org/2000/svg">
<rect width="763" height="394" rx="30" fill="#171717"/>
<path d="M381.818 158.455C381.818 168.273 380.045 176.758 376.5 183.909C372.955 191.061 368.091 196.576 361.909 200.455C355.727 204.333 348.667 206.273 340.727 206.273C332.788 206.273 325.727 204.333 319.545 200.455C313.364 196.576 308.5 191.061 304.955 183.909C301.409 176.758 299.636 168.273 299.636 158.455C299.636 148.636 301.409 140.152 304.955 133C308.5 125.848 313.364 120.333 319.545 116.455C325.727 112.576 332.788 110.636 340.727 110.636C348.667 110.636 355.727 112.576 361.909 116.455C368.091 120.333 372.955 125.848 376.5 133C380.045 140.152 381.818 148.636 381.818 158.455ZM370.909 158.455C370.909 150.394 369.561 143.591 366.864 138.045C364.197 132.5 360.576 128.303 356 125.455C351.455 122.606 346.364 121.182 340.727 121.182C335.091 121.182 329.985 122.606 325.409 125.455C320.864 128.303 317.242 132.5 314.545 138.045C311.879 143.591 310.545 150.394 310.545 158.455C310.545 166.515 311.879 173.318 314.545 178.864C317.242 184.409 320.864 188.606 325.409 191.455C329.985 194.303 335.091 195.727 340.727 195.727C346.364 195.727 351.455 194.303 356 191.455C360.576 188.606 364.197 184.409 366.864 178.864C369.561 173.318 370.909 166.515 370.909 158.455ZM400.773 205V111.909H432.227C439.5 111.909 445.47 113.152 450.136 115.636C454.803 118.091 458.258 121.47 460.5 125.773C462.742 130.076 463.864 134.97 463.864 140.455C463.864 145.939 462.742 150.803 460.5 155.045C458.258 159.288 454.818 162.621 450.182 165.045C445.545 167.439 439.621 168.636 432.409 168.636H406.955V158.455H432.045C437.015 158.455 441.015 157.727 444.045 156.273C447.106 154.818 449.318 152.758 450.682 150.091C452.076 147.394 452.773 144.182 452.773 140.455C452.773 136.727 452.076 133.47 450.682 130.682C449.288 127.894 447.061 125.742 444 124.227C440.939 122.682 436.894 121.909 431.864 121.909H412.045V205H400.773ZM444.591 163.182L467.5 205H454.409L431.864 163.182H444.591Z" fill="white"/>
</svg>
