<svg width="2302" height="1189" viewBox="0 0 2302 1189" fill="none" xmlns="http://www.w3.org/2000/svg">
<rect width="2301.52" height="1188.46" rx="90.4922" fill="#171717"/>
<path d="M92.2746 68.8V139H83.7738V77.7121H83.3625L66.2238 89.0922V80.4543L83.7738 68.8H92.2746ZM114.349 139.548C112.658 139.548 111.207 138.943 109.996 137.732C108.785 136.521 108.179 135.07 108.179 133.379C108.179 131.687 108.785 130.236 109.996 129.025C111.207 127.814 112.658 127.209 114.349 127.209C116.04 127.209 117.491 127.814 118.702 129.025C119.914 130.236 120.519 131.687 120.519 133.379C120.519 134.498 120.234 135.527 119.662 136.463C119.114 137.4 118.371 138.154 117.434 138.726C116.52 139.274 115.492 139.548 114.349 139.548Z" fill="white"/>
<path d="M119.097 842.094C118.84 839.923 117.797 838.238 115.969 837.038C114.141 835.838 111.899 835.238 109.242 835.238C107.3 835.238 105.6 835.552 104.144 836.181C102.701 836.809 101.573 837.673 100.759 838.773C99.9589 839.873 99.559 841.123 99.559 842.522C99.559 843.693 99.8375 844.7 100.394 845.543C100.966 846.371 101.694 847.064 102.58 847.621C103.465 848.164 104.393 848.614 105.365 848.971C106.336 849.313 107.229 849.592 108.043 849.806L112.499 851.006C113.641 851.306 114.912 851.72 116.312 852.248C117.726 852.777 119.076 853.498 120.361 854.412C121.661 855.312 122.732 856.469 123.575 857.883C124.417 859.297 124.839 861.032 124.839 863.089C124.839 865.459 124.217 867.602 122.975 869.516C121.746 871.429 119.947 872.951 117.576 874.079C115.219 875.207 112.356 875.771 108.985 875.771C105.843 875.771 103.122 875.264 100.823 874.25C98.5378 873.236 96.7382 871.822 95.4243 870.008C94.1246 868.195 93.389 866.088 93.2177 863.688H98.702C98.8448 865.345 99.4019 866.716 100.373 867.802C101.359 868.873 102.601 869.673 104.101 870.201C105.615 870.715 107.243 870.972 108.985 870.972C111.013 870.972 112.834 870.644 114.448 869.987C116.062 869.316 117.34 868.387 118.283 867.202C119.226 866.002 119.697 864.603 119.697 863.003C119.697 861.546 119.29 860.361 118.476 859.447C117.662 858.533 116.591 857.79 115.262 857.219C113.934 856.647 112.499 856.147 110.956 855.719L105.557 854.177C102.13 853.191 99.4161 851.784 97.4166 849.956C95.4171 848.128 94.4174 845.736 94.4174 842.779C94.4174 840.323 95.0815 838.18 96.4097 836.352C97.7523 834.51 99.5518 833.082 101.808 832.068C104.079 831.039 106.614 830.525 109.414 830.525C112.242 830.525 114.755 831.032 116.955 832.046C119.154 833.046 120.897 834.417 122.182 836.159C123.482 837.902 124.167 839.88 124.239 842.094H119.097ZM137.944 855.205V875H132.888V831.125H137.944V847.235H138.373C139.144 845.536 140.301 844.186 141.843 843.186C143.4 842.172 145.471 841.665 148.056 841.665C150.298 841.665 152.262 842.115 153.947 843.015C155.633 843.9 156.94 845.264 157.868 847.107C158.811 848.935 159.282 851.263 159.282 854.091V875H154.226V854.434C154.226 851.82 153.548 849.799 152.191 848.371C150.848 846.928 148.984 846.207 146.599 846.207C144.943 846.207 143.457 846.557 142.143 847.257C140.844 847.957 139.815 848.978 139.058 850.32C138.316 851.663 137.944 853.291 137.944 855.205ZM181.9 875.686C178.929 875.686 176.322 874.979 174.08 873.565C171.852 872.151 170.11 870.173 168.853 867.63C167.61 865.088 166.989 862.117 166.989 858.718C166.989 855.291 167.61 852.298 168.853 849.742C170.11 847.185 171.852 845.2 174.08 843.786C176.322 842.372 178.929 841.665 181.9 841.665C184.87 841.665 187.47 842.372 189.698 843.786C191.94 845.2 193.682 847.185 194.925 849.742C196.182 852.298 196.81 855.291 196.81 858.718C196.81 862.117 196.182 865.088 194.925 867.63C193.682 870.173 191.94 872.151 189.698 873.565C187.47 874.979 184.87 875.686 181.9 875.686ZM181.9 871.144C184.156 871.144 186.013 870.565 187.47 869.409C188.926 868.252 190.005 866.731 190.705 864.845C191.404 862.96 191.754 860.918 191.754 858.718C191.754 856.519 191.404 854.469 190.705 852.57C190.005 850.67 188.926 849.135 187.47 847.964C186.013 846.793 184.156 846.207 181.9 846.207C179.643 846.207 177.786 846.793 176.33 847.964C174.873 849.135 173.794 850.67 173.095 852.57C172.395 854.469 172.045 856.519 172.045 858.718C172.045 860.918 172.395 862.96 173.095 864.845C173.794 866.731 174.873 868.252 176.33 869.409C177.786 870.565 179.643 871.144 181.9 871.144ZM210.864 875L200.838 842.094H206.151L213.263 867.288H213.606L220.633 842.094H226.032L232.973 867.202H233.316L240.428 842.094H245.741L235.715 875H230.745L223.547 849.72H223.032L215.834 875H210.864ZM264.674 875.686C261.589 875.686 258.933 874.957 256.705 873.5C254.477 872.044 252.763 870.037 251.563 867.48C250.363 864.924 249.763 862.003 249.763 858.718C249.763 855.376 250.378 852.427 251.606 849.87C252.848 847.3 254.576 845.293 256.79 843.85C259.018 842.394 261.618 841.665 264.588 841.665C266.902 841.665 268.987 842.094 270.844 842.951C272.701 843.808 274.222 845.007 275.407 846.55C276.593 848.092 277.328 849.892 277.614 851.948H272.558C272.172 850.449 271.315 849.121 269.987 847.964C268.673 846.793 266.902 846.207 264.674 846.207C262.703 846.207 260.975 846.721 259.49 847.75C258.018 848.764 256.869 850.199 256.04 852.056C255.226 853.898 254.819 856.062 254.819 858.547C254.819 861.089 255.219 863.303 256.019 865.188C256.833 867.073 257.976 868.537 259.447 869.58C260.932 870.622 262.675 871.144 264.674 871.144C265.988 871.144 267.181 870.915 268.252 870.458C269.323 870.001 270.23 869.344 270.972 868.487C271.715 867.63 272.244 866.602 272.558 865.402H277.614C277.328 867.345 276.621 869.094 275.493 870.651C274.379 872.194 272.901 873.422 271.058 874.336C269.23 875.236 267.102 875.686 264.674 875.686ZM294.688 875.771C292.603 875.771 290.711 875.378 289.011 874.593C287.311 873.793 285.962 872.643 284.962 871.144C283.962 869.63 283.462 867.802 283.462 865.659C283.462 863.774 283.834 862.246 284.576 861.075C285.319 859.889 286.312 858.961 287.554 858.29C288.797 857.619 290.168 857.119 291.667 856.79C293.181 856.447 294.702 856.176 296.231 855.976C298.23 855.719 299.851 855.526 301.094 855.398C302.351 855.255 303.265 855.019 303.836 854.691C304.421 854.362 304.714 853.791 304.714 852.977V852.805C304.714 850.692 304.136 849.049 302.979 847.878C301.836 846.707 300.101 846.121 297.773 846.121C295.359 846.121 293.467 846.65 292.096 847.707C290.725 848.764 289.761 849.892 289.204 851.092L284.405 849.378C285.262 847.378 286.404 845.821 287.833 844.707C289.275 843.579 290.846 842.794 292.546 842.351C294.26 841.894 295.945 841.665 297.602 841.665C298.659 841.665 299.873 841.794 301.244 842.051C302.629 842.294 303.964 842.801 305.25 843.572C306.55 844.343 307.628 845.507 308.485 847.064C309.342 848.621 309.77 850.706 309.77 853.32V875H304.714V870.544H304.457C304.114 871.258 303.543 872.022 302.743 872.836C301.943 873.65 300.879 874.343 299.551 874.914C298.223 875.486 296.602 875.771 294.688 875.771ZM295.459 871.229C297.459 871.229 299.144 870.837 300.515 870.051C301.901 869.266 302.943 868.252 303.643 867.009C304.357 865.767 304.714 864.46 304.714 863.089V858.461C304.5 858.718 304.029 858.954 303.3 859.168C302.586 859.368 301.758 859.547 300.815 859.704C299.887 859.847 298.98 859.975 298.094 860.089C297.223 860.189 296.516 860.275 295.974 860.346C294.66 860.518 293.431 860.796 292.289 861.182C291.16 861.553 290.246 862.117 289.547 862.874C288.861 863.617 288.518 864.631 288.518 865.917C288.518 867.673 289.168 869.001 290.468 869.901C291.782 870.787 293.446 871.229 295.459 871.229ZM342.307 849.463L337.765 850.749C337.479 849.992 337.058 849.256 336.501 848.542C335.958 847.814 335.216 847.214 334.273 846.743C333.33 846.271 332.124 846.036 330.653 846.036C328.639 846.036 326.961 846.5 325.618 847.428C324.29 848.342 323.626 849.506 323.626 850.92C323.626 852.177 324.083 853.17 324.997 853.898C325.911 854.626 327.339 855.233 329.281 855.719L334.166 856.919C337.108 857.633 339.3 858.725 340.743 860.196C342.185 861.653 342.907 863.531 342.907 865.831C342.907 867.716 342.364 869.401 341.279 870.887C340.207 872.372 338.708 873.543 336.78 874.4C334.852 875.257 332.609 875.686 330.053 875.686C326.696 875.686 323.918 874.957 321.719 873.5C319.52 872.044 318.127 869.916 317.541 867.116L322.34 865.917C322.797 867.687 323.661 869.016 324.933 869.901C326.218 870.787 327.896 871.229 329.967 871.229C332.324 871.229 334.195 870.73 335.58 869.73C336.98 868.716 337.679 867.502 337.679 866.088C337.679 864.945 337.28 863.988 336.48 863.217C335.68 862.432 334.452 861.846 332.795 861.46L327.311 860.175C324.297 859.461 322.083 858.354 320.669 856.854C319.27 855.341 318.57 853.448 318.57 851.177C318.57 849.321 319.091 847.678 320.134 846.25C321.191 844.822 322.626 843.7 324.44 842.886C326.268 842.072 328.339 841.665 330.653 841.665C333.909 841.665 336.465 842.379 338.322 843.808C340.193 845.236 341.521 847.121 342.307 849.463ZM364.314 875.686C361.143 875.686 358.408 874.986 356.109 873.586C353.824 872.172 352.06 870.201 350.817 867.673C349.589 865.131 348.975 862.175 348.975 858.804C348.975 855.433 349.589 852.463 350.817 849.892C352.06 847.307 353.788 845.293 356.002 843.85C358.23 842.394 360.829 841.665 363.8 841.665C365.514 841.665 367.206 841.951 368.877 842.522C370.548 843.094 372.069 844.022 373.44 845.307C374.811 846.578 375.904 848.264 376.718 850.363C377.532 852.463 377.939 855.048 377.939 858.118V860.261H352.574V855.89H372.798C372.798 854.034 372.426 852.377 371.684 850.92C370.955 849.463 369.913 848.314 368.556 847.471C367.213 846.628 365.628 846.207 363.8 846.207C361.786 846.207 360.044 846.707 358.573 847.707C357.116 848.692 355.995 849.978 355.209 851.563C354.424 853.148 354.031 854.848 354.031 856.662V859.575C354.031 862.06 354.459 864.167 355.316 865.895C356.187 867.609 357.394 868.916 358.937 869.816C360.479 870.701 362.272 871.144 364.314 871.144C365.642 871.144 366.842 870.958 367.913 870.587C368.999 870.201 369.934 869.63 370.72 868.873C371.505 868.102 372.112 867.145 372.541 866.002L377.425 867.373C376.911 869.03 376.047 870.487 374.833 871.744C373.619 872.986 372.119 873.957 370.334 874.657C368.549 875.343 366.542 875.686 364.314 875.686ZM403.283 831.125H409.624L424.535 867.545H425.049L439.96 831.125H446.301V875H441.331V841.665H440.902L427.192 875H422.393L408.682 841.665H408.253V875H403.283V831.125ZM465.952 875.771C463.866 875.771 461.974 875.378 460.274 874.593C458.575 873.793 457.225 872.643 456.225 871.144C455.226 869.63 454.726 867.802 454.726 865.659C454.726 863.774 455.097 862.246 455.84 861.075C456.583 859.889 457.575 858.961 458.818 858.29C460.06 857.619 461.431 857.119 462.931 856.79C464.445 856.447 465.966 856.176 467.494 855.976C469.494 855.719 471.115 855.526 472.357 855.398C473.614 855.255 474.528 855.019 475.099 854.691C475.685 854.362 475.978 853.791 475.978 852.977V852.805C475.978 850.692 475.399 849.049 474.242 847.878C473.1 846.707 471.365 846.121 469.037 846.121C466.623 846.121 464.731 846.65 463.359 847.707C461.988 848.764 461.024 849.892 460.467 851.092L455.668 849.378C456.525 847.378 457.668 845.821 459.096 844.707C460.539 843.579 462.11 842.794 463.809 842.351C465.523 841.894 467.208 841.665 468.865 841.665C469.922 841.665 471.136 841.794 472.507 842.051C473.893 842.294 475.228 842.801 476.513 843.572C477.813 844.343 478.891 845.507 479.748 847.064C480.605 848.621 481.034 850.706 481.034 853.32V875H475.978V870.544H475.721C475.378 871.258 474.807 872.022 474.007 872.836C473.207 873.65 472.143 874.343 470.815 874.914C469.487 875.486 467.865 875.771 465.952 875.771ZM466.723 871.229C468.722 871.229 470.408 870.837 471.779 870.051C473.164 869.266 474.207 868.252 474.907 867.009C475.621 865.767 475.978 864.46 475.978 863.089V858.461C475.764 858.718 475.292 858.954 474.564 859.168C473.85 859.368 473.021 859.547 472.079 859.704C471.15 859.847 470.243 859.975 469.358 860.089C468.487 860.189 467.78 860.275 467.237 860.346C465.923 860.518 464.695 860.796 463.552 861.182C462.424 861.553 461.51 862.117 460.81 862.874C460.125 863.617 459.782 864.631 459.782 865.917C459.782 867.673 460.432 869.001 461.731 869.901C463.045 870.787 464.709 871.229 466.723 871.229ZM490.262 887.34V842.094H495.146V847.321H495.746C496.118 846.75 496.632 846.021 497.289 845.136C497.96 844.236 498.917 843.436 500.159 842.736C501.416 842.022 503.116 841.665 505.258 841.665C508.029 841.665 510.471 842.358 512.585 843.743C514.699 845.129 516.348 847.093 517.534 849.635C518.719 852.177 519.312 855.176 519.312 858.633C519.312 862.117 518.719 865.138 517.534 867.695C516.348 870.237 514.706 872.208 512.606 873.607C510.507 874.993 508.086 875.686 505.344 875.686C503.23 875.686 501.538 875.336 500.267 874.636C498.995 873.922 498.017 873.115 497.332 872.215C496.646 871.301 496.118 870.544 495.746 869.944H495.318V887.34H490.262ZM495.232 858.547C495.232 861.032 495.596 863.224 496.325 865.124C497.053 867.009 498.117 868.487 499.517 869.558C500.916 870.615 502.63 871.144 504.658 871.144C506.772 871.144 508.536 870.587 509.95 869.473C511.378 868.344 512.449 866.831 513.163 864.931C513.892 863.017 514.256 860.889 514.256 858.547C514.256 856.233 513.899 854.148 513.185 852.291C512.485 850.42 511.421 848.942 509.993 847.857C508.579 846.757 506.801 846.207 504.658 846.207C502.602 846.207 500.874 846.728 499.474 847.771C498.074 848.799 497.017 850.242 496.303 852.098C495.589 853.941 495.232 856.09 495.232 858.547ZM550.333 849.463L545.791 850.749C545.505 849.992 545.084 849.256 544.527 848.542C543.984 847.814 543.242 847.214 542.299 846.743C541.356 846.271 540.15 846.036 538.679 846.036C536.665 846.036 534.987 846.5 533.644 847.428C532.316 848.342 531.652 849.506 531.652 850.92C531.652 852.177 532.109 853.17 533.023 853.898C533.937 854.626 535.365 855.233 537.307 855.719L542.192 856.919C545.134 857.633 547.326 858.725 548.769 860.196C550.211 861.653 550.933 863.531 550.933 865.831C550.933 867.716 550.39 869.401 549.305 870.887C548.233 872.372 546.734 873.543 544.806 874.4C542.878 875.257 540.635 875.686 538.079 875.686C534.722 875.686 531.944 874.957 529.745 873.5C527.546 872.044 526.153 869.916 525.567 867.116L530.366 865.917C530.823 867.687 531.687 869.016 532.959 869.901C534.244 870.787 535.922 871.229 537.993 871.229C540.35 871.229 542.221 870.73 543.606 869.73C545.006 868.716 545.705 867.502 545.705 866.088C545.705 864.945 545.306 863.988 544.506 863.217C543.706 862.432 542.478 861.846 540.821 861.46L535.337 860.175C532.323 859.461 530.109 858.354 528.695 856.854C527.296 855.341 526.596 853.448 526.596 851.177C526.596 849.321 527.117 847.678 528.16 846.25C529.217 844.822 530.652 843.7 532.466 842.886C534.294 842.072 536.365 841.665 538.679 841.665C541.935 841.665 544.491 842.379 546.348 843.808C548.219 845.236 549.547 847.121 550.333 849.463ZM585.194 875.771C583.109 875.771 581.216 875.378 579.517 874.593C577.817 873.793 576.468 872.643 575.468 871.144C574.468 869.63 573.968 867.802 573.968 865.659C573.968 863.774 574.34 862.246 575.082 861.075C575.825 859.889 576.817 858.961 578.06 858.29C579.303 857.619 580.674 857.119 582.173 856.79C583.687 856.447 585.208 856.176 586.736 855.976C588.736 855.719 590.357 855.526 591.6 855.398C592.856 855.255 593.77 855.019 594.342 854.691C594.927 854.362 595.22 853.791 595.22 852.977V852.805C595.22 850.692 594.642 849.049 593.485 847.878C592.342 846.707 590.607 846.121 588.279 846.121C585.865 846.121 583.973 846.65 582.602 847.707C581.231 848.764 580.267 849.892 579.71 851.092L574.911 849.378C575.768 847.378 576.91 845.821 578.339 844.707C579.781 843.579 581.352 842.794 583.052 842.351C584.766 841.894 586.451 841.665 588.108 841.665C589.164 841.665 590.378 841.794 591.75 842.051C593.135 842.294 594.47 842.801 595.756 843.572C597.055 844.343 598.134 845.507 598.991 847.064C599.848 848.621 600.276 850.706 600.276 853.32V875H595.22V870.544H594.963C594.62 871.258 594.049 872.022 593.249 872.836C592.449 873.65 591.385 874.343 590.057 874.914C588.729 875.486 587.108 875.771 585.194 875.771ZM585.965 871.229C587.965 871.229 589.65 870.837 591.021 870.051C592.407 869.266 593.449 868.252 594.149 867.009C594.863 865.767 595.22 864.46 595.22 863.089V858.461C595.006 858.718 594.535 858.954 593.806 859.168C593.092 859.368 592.264 859.547 591.321 859.704C590.393 859.847 589.486 859.975 588.6 860.089C587.729 860.189 587.022 860.275 586.479 860.346C585.165 860.518 583.937 860.796 582.795 861.182C581.666 861.553 580.752 862.117 580.052 862.874C579.367 863.617 579.024 864.631 579.024 865.917C579.024 867.673 579.674 869.001 580.974 869.901C582.288 870.787 583.951 871.229 585.965 871.229ZM609.504 875V842.094H614.389V847.064H614.731C615.331 845.436 616.417 844.115 617.988 843.101C619.559 842.087 621.33 841.58 623.301 841.58C623.672 841.58 624.136 841.587 624.693 841.601C625.25 841.615 625.672 841.637 625.957 841.665V846.807C625.786 846.764 625.393 846.7 624.779 846.614C624.179 846.514 623.544 846.464 622.872 846.464C621.273 846.464 619.844 846.8 618.588 847.471C617.345 848.128 616.36 849.042 615.631 850.213C614.917 851.37 614.56 852.691 614.56 854.177V875H609.504ZM644.746 875.686C641.575 875.686 638.84 874.986 636.54 873.586C634.255 872.172 632.491 870.201 631.249 867.673C630.021 865.131 629.406 862.175 629.406 858.804C629.406 855.433 630.021 852.463 631.249 849.892C632.491 847.307 634.22 845.293 636.433 843.85C638.661 842.394 641.261 841.665 644.231 841.665C645.945 841.665 647.638 841.951 649.309 842.522C650.98 843.094 652.501 844.022 653.872 845.307C655.243 846.578 656.336 848.264 657.15 850.363C657.964 852.463 658.371 855.048 658.371 858.118V860.261H633.006V855.89H653.229C653.229 854.034 652.858 852.377 652.115 850.92C651.387 849.463 650.344 848.314 648.987 847.471C647.645 846.628 646.06 846.207 644.231 846.207C642.218 846.207 640.475 846.707 639.004 847.707C637.547 848.692 636.426 849.978 635.641 851.563C634.855 853.148 634.462 854.848 634.462 856.662V859.575C634.462 862.06 634.891 864.167 635.748 865.895C636.619 867.609 637.826 868.916 639.368 869.816C640.911 870.701 642.703 871.144 644.746 871.144C646.074 871.144 647.274 870.958 648.345 870.587C649.43 870.201 650.366 869.63 651.151 868.873C651.937 868.102 652.544 867.145 652.972 866.002L657.857 867.373C657.342 869.03 656.478 870.487 655.264 871.744C654.05 872.986 652.551 873.957 650.766 874.657C648.98 875.343 646.974 875.686 644.746 875.686ZM690.484 875L680.458 842.094H685.771L692.884 867.288H693.227L700.253 842.094H705.652L712.593 867.202H712.936L720.049 842.094H725.362L715.335 875H710.365L703.167 849.72H702.653L695.455 875H690.484ZM737.102 855.205V875H732.046V831.125H737.102V847.235H737.53C738.301 845.536 739.458 844.186 741.001 843.186C742.557 842.172 744.628 841.665 747.213 841.665C749.456 841.665 751.419 842.115 753.105 843.015C754.79 843.9 756.097 845.264 757.025 847.107C757.968 848.935 758.439 851.263 758.439 854.091V875H753.383V854.434C753.383 851.82 752.705 849.799 751.348 848.371C750.006 846.928 748.142 846.207 745.757 846.207C744.1 846.207 742.615 846.557 741.301 847.257C740.001 847.957 738.973 848.978 738.216 850.32C737.473 851.663 737.102 853.291 737.102 855.205ZM777.372 875.771C775.287 875.771 773.394 875.378 771.695 874.593C769.995 873.793 768.646 872.643 767.646 871.144C766.646 869.63 766.146 867.802 766.146 865.659C766.146 863.774 766.518 862.246 767.26 861.075C768.003 859.889 768.996 858.961 770.238 858.29C771.481 857.619 772.852 857.119 774.351 856.79C775.865 856.447 777.386 856.176 778.915 855.976C780.914 855.719 782.535 855.526 783.778 855.398C785.034 855.255 785.949 855.019 786.52 854.691C787.105 854.362 787.398 853.791 787.398 852.977V852.805C787.398 850.692 786.82 849.049 785.663 847.878C784.52 846.707 782.785 846.121 780.457 846.121C778.043 846.121 776.151 846.65 774.78 847.707C773.409 848.764 772.445 849.892 771.888 851.092L767.089 849.378C767.946 847.378 769.088 845.821 770.517 844.707C771.959 843.579 773.53 842.794 775.23 842.351C776.944 841.894 778.629 841.665 780.286 841.665C781.343 841.665 782.557 841.794 783.928 842.051C785.313 842.294 786.648 842.801 787.934 843.572C789.233 844.343 790.312 845.507 791.169 847.064C792.026 848.621 792.454 850.706 792.454 853.32V875H787.398V870.544H787.141C786.798 871.258 786.227 872.022 785.427 872.836C784.627 873.65 783.563 874.343 782.235 874.914C780.907 875.486 779.286 875.771 777.372 875.771ZM778.143 871.229C780.143 871.229 781.828 870.837 783.199 870.051C784.585 869.266 785.627 868.252 786.327 867.009C787.041 865.767 787.398 864.46 787.398 863.089V858.461C787.184 858.718 786.713 858.954 785.984 859.168C785.27 859.368 784.442 859.547 783.499 859.704C782.571 859.847 781.664 859.975 780.778 860.089C779.907 860.189 779.2 860.275 778.657 860.346C777.344 860.518 776.115 860.796 774.973 861.182C773.844 861.553 772.93 862.117 772.23 862.874C771.545 863.617 771.202 864.631 771.202 865.917C771.202 867.673 771.852 869.001 773.152 869.901C774.466 870.787 776.13 871.229 778.143 871.229ZM815.993 842.094V846.378H798.94V842.094H815.993ZM803.91 834.21H808.966V865.574C808.966 867.002 809.173 868.073 809.587 868.787C810.016 869.487 810.559 869.958 811.216 870.201C811.887 870.43 812.594 870.544 813.337 870.544C813.894 870.544 814.351 870.515 814.708 870.458C815.065 870.387 815.35 870.33 815.565 870.287L816.593 874.829C816.25 874.957 815.772 875.086 815.158 875.214C814.543 875.357 813.765 875.428 812.822 875.428C811.394 875.428 809.995 875.121 808.623 874.507C807.267 873.893 806.138 872.958 805.239 871.701C804.353 870.444 803.91 868.859 803.91 866.945V834.21ZM840.566 875V842.094H845.622V875H840.566ZM843.136 836.609C842.151 836.609 841.301 836.274 840.587 835.602C839.887 834.931 839.537 834.124 839.537 833.182C839.537 832.239 839.887 831.432 840.587 830.761C841.301 830.09 842.151 829.754 843.136 829.754C844.122 829.754 844.965 830.09 845.664 830.761C846.378 831.432 846.736 832.239 846.736 833.182C846.736 834.124 846.378 834.931 845.664 835.602C844.965 836.274 844.122 836.609 843.136 836.609ZM869.193 842.094V846.378H852.14V842.094H869.193ZM857.11 834.21H862.166V865.574C862.166 867.002 862.373 868.073 862.787 868.787C863.215 869.487 863.758 869.958 864.415 870.201C865.086 870.43 865.793 870.544 866.536 870.544C867.093 870.544 867.55 870.515 867.907 870.458C868.264 870.387 868.55 870.33 868.764 870.287L869.792 874.829C869.45 874.957 868.971 875.086 868.357 875.214C867.743 875.357 866.964 875.428 866.022 875.428C864.594 875.428 863.194 875.121 861.823 874.507C860.466 873.893 859.338 872.958 858.438 871.701C857.552 870.444 857.11 868.859 857.11 866.945V834.21ZM917.074 849.463L912.532 850.749C912.246 849.992 911.825 849.256 911.268 848.542C910.725 847.814 909.983 847.214 909.04 846.743C908.097 846.271 906.891 846.036 905.419 846.036C903.406 846.036 901.727 846.5 900.385 847.428C899.057 848.342 898.393 849.506 898.393 850.92C898.393 852.177 898.85 853.17 899.764 853.898C900.678 854.626 902.106 855.233 904.048 855.719L908.933 856.919C911.875 857.633 914.067 858.725 915.51 860.196C916.952 861.653 917.674 863.531 917.674 865.831C917.674 867.716 917.131 869.401 916.045 870.887C914.974 872.372 913.475 873.543 911.547 874.4C909.618 875.257 907.376 875.686 904.82 875.686C901.463 875.686 898.685 874.957 896.486 873.5C894.286 872.044 892.894 869.916 892.308 867.116L897.107 865.917C897.564 867.687 898.428 869.016 899.699 869.901C900.985 870.787 902.663 871.229 904.734 871.229C907.09 871.229 908.961 870.73 910.347 869.73C911.746 868.716 912.446 867.502 912.446 866.088C912.446 864.945 912.046 863.988 911.247 863.217C910.447 862.432 909.219 861.846 907.562 861.46L902.077 860.175C899.064 859.461 896.85 858.354 895.436 856.854C894.036 855.341 893.337 853.448 893.337 851.177C893.337 849.321 893.858 847.678 894.901 846.25C895.957 844.822 897.393 843.7 899.207 842.886C901.035 842.072 903.106 841.665 905.419 841.665C908.676 841.665 911.232 842.379 913.089 843.808C914.96 845.236 916.288 847.121 917.074 849.463ZM934.968 875.771C932.882 875.771 930.99 875.378 929.29 874.593C927.591 873.793 926.241 872.643 925.241 871.144C924.242 869.63 923.742 867.802 923.742 865.659C923.742 863.774 924.113 862.246 924.856 861.075C925.598 859.889 926.591 858.961 927.834 858.29C929.076 857.619 930.447 857.119 931.947 856.79C933.461 856.447 934.982 856.176 936.51 855.976C938.51 855.719 940.131 855.526 941.373 855.398C942.63 855.255 943.544 855.019 944.115 854.691C944.701 854.362 944.994 853.791 944.994 852.977V852.805C944.994 850.692 944.415 849.049 943.258 847.878C942.116 846.707 940.38 846.121 938.052 846.121C935.639 846.121 933.746 846.65 932.375 847.707C931.004 848.764 930.04 849.892 929.483 851.092L924.684 849.378C925.541 847.378 926.684 845.821 928.112 844.707C929.555 843.579 931.126 842.794 932.825 842.351C934.539 841.894 936.224 841.665 937.881 841.665C938.938 841.665 940.152 841.794 941.523 842.051C942.908 842.294 944.244 842.801 945.529 843.572C946.829 844.343 947.907 845.507 948.764 847.064C949.621 848.621 950.05 850.706 950.05 853.32V875H944.994V870.544H944.737C944.394 871.258 943.823 872.022 943.023 872.836C942.223 873.65 941.159 874.343 939.831 874.914C938.502 875.486 936.881 875.771 934.968 875.771ZM935.739 871.229C937.738 871.229 939.424 870.837 940.795 870.051C942.18 869.266 943.223 868.252 943.922 867.009C944.637 865.767 944.994 864.46 944.994 863.089V858.461C944.779 858.718 944.308 858.954 943.58 859.168C942.866 859.368 942.037 859.547 941.095 859.704C940.166 859.847 939.259 859.975 938.374 860.089C937.503 860.189 936.796 860.275 936.253 860.346C934.939 860.518 933.711 860.796 932.568 861.182C931.44 861.553 930.526 862.117 929.826 862.874C929.14 863.617 928.798 864.631 928.798 865.917C928.798 867.673 929.447 869.001 930.747 869.901C932.061 870.787 933.725 871.229 935.739 871.229ZM961.356 887.34C960.499 887.34 959.735 887.268 959.063 887.126C958.392 886.997 957.928 886.869 957.671 886.74L958.956 882.284C960.185 882.598 961.27 882.712 962.213 882.627C963.155 882.541 963.991 882.12 964.719 881.363C965.462 880.62 966.14 879.413 966.754 877.742L967.697 875.171L955.529 842.094H961.013L970.096 868.316H970.439L979.523 842.094H985.007L971.039 879.799C970.411 881.498 969.632 882.905 968.704 884.019C967.776 885.148 966.697 885.983 965.469 886.526C964.255 887.068 962.884 887.34 961.356 887.34ZM1014.99 849.463L1010.45 850.749C1010.16 849.992 1009.74 849.256 1009.18 848.542C1008.64 847.814 1007.9 847.214 1006.96 846.743C1006.01 846.271 1004.81 846.036 1003.33 846.036C1001.32 846.036 999.643 846.5 998.3 847.428C996.972 848.342 996.308 849.506 996.308 850.92C996.308 852.177 996.765 853.17 997.679 853.898C998.593 854.626 1000.02 855.233 1001.96 855.719L1006.85 856.919C1009.79 857.633 1011.98 858.725 1013.43 860.196C1014.87 861.653 1015.59 863.531 1015.59 865.831C1015.59 867.716 1015.05 869.401 1013.96 870.887C1012.89 872.372 1011.39 873.543 1009.46 874.4C1007.53 875.257 1005.29 875.686 1002.73 875.686C999.379 875.686 996.601 874.957 994.401 873.5C992.202 872.044 990.809 869.916 990.224 867.116L995.023 865.917C995.48 867.687 996.344 869.016 997.615 869.901C998.9 870.787 1000.58 871.229 1002.65 871.229C1005.01 871.229 1006.88 870.73 1008.26 869.73C1009.66 868.716 1010.36 867.502 1010.36 866.088C1010.36 864.945 1009.96 863.988 1009.16 863.217C1008.36 862.432 1007.13 861.846 1005.48 861.46L999.993 860.175C996.979 859.461 994.765 858.354 993.352 856.854C991.952 855.341 991.252 853.448 991.252 851.177C991.252 849.321 991.773 847.678 992.816 846.25C993.873 844.822 995.308 843.7 997.122 842.886C998.95 842.072 1001.02 841.665 1003.33 841.665C1006.59 841.665 1009.15 842.379 1011 843.808C1012.88 845.236 1014.2 847.121 1014.99 849.463ZM1030.74 869.001L1030.4 871.315C1030.16 872.943 1029.78 874.686 1029.28 876.542C1028.8 878.399 1028.29 880.149 1027.76 881.791C1027.23 883.434 1026.8 884.74 1026.46 885.712H1022.6C1022.79 884.798 1023.03 883.591 1023.33 882.091C1023.63 880.591 1023.93 878.913 1024.23 877.057C1024.54 875.214 1024.8 873.329 1025 871.401L1025.26 869.001H1030.74ZM1057.08 875V842.094H1061.96V847.235H1062.39C1063.07 845.479 1064.18 844.115 1065.71 843.143C1067.24 842.158 1069.07 841.665 1071.21 841.665C1073.39 841.665 1075.19 842.158 1076.63 843.143C1078.09 844.115 1079.23 845.479 1080.04 847.235H1080.38C1081.23 845.536 1082.49 844.186 1084.18 843.186C1085.86 842.172 1087.88 841.665 1090.24 841.665C1093.18 841.665 1095.59 842.586 1097.46 844.429C1099.33 846.257 1100.26 849.106 1100.26 852.977V875H1095.21V852.977C1095.21 850.549 1094.54 848.814 1093.22 847.771C1091.89 846.728 1090.32 846.207 1088.52 846.207C1086.21 846.207 1084.42 846.907 1083.15 848.307C1081.88 849.692 1081.24 851.449 1081.24 853.577V875H1076.1V852.463C1076.1 850.592 1075.49 849.085 1074.28 847.942C1073.06 846.785 1071.5 846.207 1069.59 846.207C1068.27 846.207 1067.04 846.557 1065.9 847.257C1064.77 847.957 1063.86 848.928 1063.16 850.17C1062.47 851.399 1062.13 852.82 1062.13 854.434V875H1057.08ZM1119.19 875.771C1117.11 875.771 1115.21 875.378 1113.52 874.593C1111.82 873.793 1110.47 872.643 1109.47 871.144C1108.47 869.63 1107.97 867.802 1107.97 865.659C1107.97 863.774 1108.34 862.246 1109.08 861.075C1109.82 859.889 1110.82 858.961 1112.06 858.29C1113.3 857.619 1114.67 857.119 1116.17 856.79C1117.69 856.447 1119.21 856.176 1120.73 855.976C1122.73 855.719 1124.36 855.526 1125.6 855.398C1126.85 855.255 1127.77 855.019 1128.34 854.691C1128.93 854.362 1129.22 853.791 1129.22 852.977V852.805C1129.22 850.692 1128.64 849.049 1127.48 847.878C1126.34 846.707 1124.61 846.121 1122.28 846.121C1119.86 846.121 1117.97 846.65 1116.6 847.707C1115.23 848.764 1114.26 849.892 1113.71 851.092L1108.91 849.378C1109.77 847.378 1110.91 845.821 1112.34 844.707C1113.78 843.579 1115.35 842.794 1117.05 842.351C1118.76 841.894 1120.45 841.665 1122.11 841.665C1123.16 841.665 1124.38 841.794 1125.75 842.051C1127.13 842.294 1128.47 842.801 1129.75 843.572C1131.05 844.343 1132.13 845.507 1132.99 847.064C1133.85 848.621 1134.27 850.706 1134.27 853.32V875H1129.22V870.544H1128.96C1128.62 871.258 1128.05 872.022 1127.25 872.836C1126.45 873.65 1125.38 874.343 1124.06 874.914C1122.73 875.486 1121.11 875.771 1119.19 875.771ZM1119.96 871.229C1121.96 871.229 1123.65 870.837 1125.02 870.051C1126.4 869.266 1127.45 868.252 1128.15 867.009C1128.86 865.767 1129.22 864.46 1129.22 863.089V858.461C1129 858.718 1128.53 858.954 1127.8 859.168C1127.09 859.368 1126.26 859.547 1125.32 859.704C1124.39 859.847 1123.48 859.975 1122.6 860.089C1121.73 860.189 1121.02 860.275 1120.48 860.346C1119.16 860.518 1117.94 860.796 1116.79 861.182C1115.66 861.553 1114.75 862.117 1114.05 862.874C1113.37 863.617 1113.02 864.631 1113.02 865.917C1113.02 867.673 1113.67 869.001 1114.97 869.901C1116.29 870.787 1117.95 871.229 1119.96 871.229ZM1143.5 887.34V842.094H1148.39V847.321H1148.99C1149.36 846.75 1149.87 846.021 1150.53 845.136C1151.2 844.236 1152.16 843.436 1153.4 842.736C1154.66 842.022 1156.36 841.665 1158.5 841.665C1161.27 841.665 1163.71 842.358 1165.83 843.743C1167.94 845.129 1169.59 847.093 1170.77 849.635C1171.96 852.177 1172.55 855.176 1172.55 858.633C1172.55 862.117 1171.96 865.138 1170.77 867.695C1169.59 870.237 1167.95 872.208 1165.85 873.607C1163.75 874.993 1161.33 875.686 1158.58 875.686C1156.47 875.686 1154.78 875.336 1153.51 874.636C1152.24 873.922 1151.26 873.115 1150.57 872.215C1149.89 871.301 1149.36 870.544 1148.99 869.944H1148.56V887.34H1143.5ZM1148.47 858.547C1148.47 861.032 1148.84 863.224 1149.57 865.124C1150.29 867.009 1151.36 868.487 1152.76 869.558C1154.16 870.615 1155.87 871.144 1157.9 871.144C1160.01 871.144 1161.78 870.587 1163.19 869.473C1164.62 868.344 1165.69 866.831 1166.4 864.931C1167.13 863.017 1167.5 860.889 1167.5 858.547C1167.5 856.233 1167.14 854.148 1166.43 852.291C1165.73 850.42 1164.66 848.942 1163.23 847.857C1161.82 846.757 1160.04 846.207 1157.9 846.207C1155.84 846.207 1154.11 846.728 1152.71 847.771C1151.31 848.799 1150.26 850.242 1149.54 852.098C1148.83 853.941 1148.47 856.09 1148.47 858.547ZM1203.57 849.463L1199.03 850.749C1198.75 849.992 1198.32 849.256 1197.77 848.542C1197.22 847.814 1196.48 847.214 1195.54 846.743C1194.6 846.271 1193.39 846.036 1191.92 846.036C1189.91 846.036 1188.23 846.5 1186.88 847.428C1185.56 848.342 1184.89 849.506 1184.89 850.92C1184.89 852.177 1185.35 853.17 1186.26 853.898C1187.18 854.626 1188.61 855.233 1190.55 855.719L1195.43 856.919C1198.37 857.633 1200.57 858.725 1202.01 860.196C1203.45 861.653 1204.17 863.531 1204.17 865.831C1204.17 867.716 1203.63 869.401 1202.55 870.887C1201.47 872.372 1199.97 873.543 1198.05 874.4C1196.12 875.257 1193.88 875.686 1191.32 875.686C1187.96 875.686 1185.18 874.957 1182.99 873.5C1180.79 872.044 1179.39 869.916 1178.81 867.116L1183.61 865.917C1184.06 867.687 1184.93 869.016 1186.2 869.901C1187.48 870.787 1189.16 871.229 1191.23 871.229C1193.59 871.229 1195.46 870.73 1196.85 869.73C1198.25 868.716 1198.95 867.502 1198.95 866.088C1198.95 864.945 1198.55 863.988 1197.75 863.217C1196.95 862.432 1195.72 861.846 1194.06 861.46L1188.58 860.175C1185.56 859.461 1183.35 858.354 1181.94 856.854C1180.54 855.341 1179.84 853.448 1179.84 851.177C1179.84 849.321 1180.36 847.678 1181.4 846.25C1182.46 844.822 1183.89 843.7 1185.71 842.886C1187.53 842.072 1189.61 841.665 1191.92 841.665C1195.18 841.665 1197.73 842.379 1199.59 843.808C1201.46 845.236 1202.79 847.121 1203.57 849.463ZM1243.06 842.094V846.378H1226.01V842.094H1243.06ZM1230.98 834.21H1236.04V865.574C1236.04 867.002 1236.24 868.073 1236.66 868.787C1237.08 869.487 1237.63 869.958 1238.28 870.201C1238.96 870.43 1239.66 870.544 1240.41 870.544C1240.96 870.544 1241.42 870.515 1241.78 870.458C1242.13 870.387 1242.42 870.33 1242.63 870.287L1243.66 874.829C1243.32 874.957 1242.84 875.086 1242.23 875.214C1241.61 875.357 1240.83 875.428 1239.89 875.428C1238.46 875.428 1237.06 875.121 1235.69 874.507C1234.34 873.893 1233.21 872.958 1232.31 871.701C1231.42 870.444 1230.98 868.859 1230.98 866.945V834.21ZM1256.43 855.205V875H1251.37V831.125H1256.43V847.235H1256.86C1257.63 845.536 1258.79 844.186 1260.33 843.186C1261.89 842.172 1263.96 841.665 1266.54 841.665C1268.78 841.665 1270.75 842.115 1272.43 843.015C1274.12 843.9 1275.43 845.264 1276.35 847.107C1277.3 848.935 1277.77 851.263 1277.77 854.091V875H1272.71V854.434C1272.71 851.82 1272.03 849.799 1270.68 848.371C1269.33 846.928 1267.47 846.207 1265.09 846.207C1263.43 846.207 1261.94 846.557 1260.63 847.257C1259.33 847.957 1258.3 848.978 1257.54 850.32C1256.8 851.663 1256.43 853.291 1256.43 855.205ZM1296.7 875.771C1294.62 875.771 1292.72 875.378 1291.02 874.593C1289.32 873.793 1287.97 872.643 1286.97 871.144C1285.97 869.63 1285.47 867.802 1285.47 865.659C1285.47 863.774 1285.85 862.246 1286.59 861.075C1287.33 859.889 1288.32 858.961 1289.57 858.29C1290.81 857.619 1292.18 857.119 1293.68 856.79C1295.19 856.447 1296.71 856.176 1298.24 855.976C1300.24 855.719 1301.86 855.526 1303.11 855.398C1304.36 855.255 1305.28 855.019 1305.85 854.691C1306.43 854.362 1306.73 853.791 1306.73 852.977V852.805C1306.73 850.692 1306.15 849.049 1304.99 847.878C1303.85 846.707 1302.11 846.121 1299.79 846.121C1297.37 846.121 1295.48 846.65 1294.11 847.707C1292.74 848.764 1291.77 849.892 1291.22 851.092L1286.42 849.378C1287.27 847.378 1288.42 845.821 1289.85 844.707C1291.29 843.579 1292.86 842.794 1294.56 842.351C1296.27 841.894 1297.96 841.665 1299.61 841.665C1300.67 841.665 1301.89 841.794 1303.26 842.051C1304.64 842.294 1305.98 842.801 1307.26 843.572C1308.56 844.343 1309.64 845.507 1310.5 847.064C1311.35 848.621 1311.78 850.706 1311.78 853.32V875H1306.73V870.544H1306.47C1306.13 871.258 1305.56 872.022 1304.76 872.836C1303.96 873.65 1302.89 874.343 1301.56 874.914C1300.24 875.486 1298.61 875.771 1296.7 875.771ZM1297.47 871.229C1299.47 871.229 1301.16 870.837 1302.53 870.051C1303.91 869.266 1304.96 868.252 1305.66 867.009C1306.37 865.767 1306.73 864.46 1306.73 863.089V858.461C1306.51 858.718 1306.04 858.954 1305.31 859.168C1304.6 859.368 1303.77 859.547 1302.83 859.704C1301.9 859.847 1300.99 859.975 1300.11 860.089C1299.24 860.189 1298.53 860.275 1297.99 860.346C1296.67 860.518 1295.44 860.796 1294.3 861.182C1293.17 861.553 1292.26 862.117 1291.56 862.874C1290.87 863.617 1290.53 864.631 1290.53 865.917C1290.53 867.673 1291.18 869.001 1292.48 869.901C1293.79 870.787 1295.46 871.229 1297.47 871.229ZM1335.32 842.094V846.378H1318.27V842.094H1335.32ZM1323.24 834.21H1328.29V865.574C1328.29 867.002 1328.5 868.073 1328.92 868.787C1329.34 869.487 1329.89 869.958 1330.54 870.201C1331.22 870.43 1331.92 870.544 1332.67 870.544C1333.22 870.544 1333.68 870.515 1334.04 870.458C1334.39 870.387 1334.68 870.33 1334.89 870.287L1335.92 874.829C1335.58 874.957 1335.1 875.086 1334.49 875.214C1333.87 875.357 1333.09 875.428 1332.15 875.428C1330.72 875.428 1329.32 875.121 1327.95 874.507C1326.6 873.893 1325.47 872.958 1324.57 871.701C1323.68 870.444 1323.24 868.859 1323.24 866.945V834.21ZM1369.58 875.771C1367.49 875.771 1365.6 875.378 1363.9 874.593C1362.2 873.793 1360.85 872.643 1359.85 871.144C1358.85 869.63 1358.35 867.802 1358.35 865.659C1358.35 863.774 1358.72 862.246 1359.47 861.075C1360.21 859.889 1361.2 858.961 1362.44 858.29C1363.69 857.619 1365.06 857.119 1366.56 856.79C1368.07 856.447 1369.59 856.176 1371.12 855.976C1373.12 855.719 1374.74 855.526 1375.98 855.398C1377.24 855.255 1378.15 855.019 1378.73 854.691C1379.31 854.362 1379.6 853.791 1379.6 852.977V852.805C1379.6 850.692 1379.03 849.049 1377.87 847.878C1376.73 846.707 1374.99 846.121 1372.66 846.121C1370.25 846.121 1368.36 846.65 1366.99 847.707C1365.61 848.764 1364.65 849.892 1364.09 851.092L1359.29 849.378C1360.15 847.378 1361.29 845.821 1362.72 844.707C1364.16 843.579 1365.74 842.794 1367.44 842.351C1369.15 841.894 1370.83 841.665 1372.49 841.665C1373.55 841.665 1374.76 841.794 1376.13 842.051C1377.52 842.294 1378.85 842.801 1380.14 843.572C1381.44 844.343 1382.52 845.507 1383.37 847.064C1384.23 848.621 1384.66 850.706 1384.66 853.32V875H1379.6V870.544H1379.35C1379 871.258 1378.43 872.022 1377.63 872.836C1376.83 873.65 1375.77 874.343 1374.44 874.914C1373.11 875.486 1371.49 875.771 1369.58 875.771ZM1370.35 871.229C1372.35 871.229 1374.03 870.837 1375.4 870.051C1376.79 869.266 1377.83 868.252 1378.53 867.009C1379.25 865.767 1379.6 864.46 1379.6 863.089V858.461C1379.39 858.718 1378.92 858.954 1378.19 859.168C1377.48 859.368 1376.65 859.547 1375.7 859.704C1374.78 859.847 1373.87 859.975 1372.98 860.089C1372.11 860.189 1371.41 860.275 1370.86 860.346C1369.55 860.518 1368.32 860.796 1367.18 861.182C1366.05 861.553 1365.14 862.117 1364.44 862.874C1363.75 863.617 1363.41 864.631 1363.41 865.917C1363.41 867.673 1364.06 869.001 1365.36 869.901C1366.67 870.787 1368.33 871.229 1370.35 871.229ZM1393.89 875V842.094H1398.77V847.064H1399.11C1399.71 845.436 1400.8 844.115 1402.37 843.101C1403.94 842.087 1405.71 841.58 1407.68 841.58C1408.06 841.58 1408.52 841.587 1409.08 841.601C1409.63 841.615 1410.06 841.637 1410.34 841.665V846.807C1410.17 846.764 1409.78 846.7 1409.16 846.614C1408.56 846.514 1407.93 846.464 1407.26 846.464C1405.66 846.464 1404.23 846.8 1402.97 847.471C1401.73 848.128 1400.74 849.042 1400.01 850.213C1399.3 851.37 1398.94 852.691 1398.94 854.177V875H1393.89ZM1429.13 875.686C1425.96 875.686 1423.22 874.986 1420.92 873.586C1418.64 872.172 1416.87 870.201 1415.63 867.673C1414.4 865.131 1413.79 862.175 1413.79 858.804C1413.79 855.433 1414.4 852.463 1415.63 849.892C1416.87 847.307 1418.6 845.293 1420.82 843.85C1423.04 842.394 1425.64 841.665 1428.61 841.665C1430.33 841.665 1432.02 841.951 1433.69 842.522C1435.36 843.094 1436.88 844.022 1438.26 845.307C1439.63 846.578 1440.72 848.264 1441.53 850.363C1442.35 852.463 1442.75 855.048 1442.75 858.118V860.261H1417.39V855.89H1437.61C1437.61 854.034 1437.24 852.377 1436.5 850.92C1435.77 849.463 1434.73 848.314 1433.37 847.471C1432.03 846.628 1430.44 846.207 1428.61 846.207C1426.6 846.207 1424.86 846.707 1423.39 847.707C1421.93 848.692 1420.81 849.978 1420.02 851.563C1419.24 853.148 1418.85 854.848 1418.85 856.662V859.575C1418.85 862.06 1419.27 864.167 1420.13 865.895C1421 867.609 1422.21 868.916 1423.75 869.816C1425.29 870.701 1427.09 871.144 1429.13 871.144C1430.46 871.144 1431.66 870.958 1432.73 870.587C1433.81 870.201 1434.75 869.63 1435.53 868.873C1436.32 868.102 1436.93 867.145 1437.36 866.002L1442.24 867.373C1441.73 869.03 1440.86 870.487 1439.65 871.744C1438.43 872.986 1436.93 873.957 1435.15 874.657C1433.36 875.343 1431.36 875.686 1429.13 875.686ZM1490.72 849.463L1486.18 850.749C1485.89 849.992 1485.47 849.256 1484.92 848.542C1484.37 847.814 1483.63 847.214 1482.69 846.743C1481.74 846.271 1480.54 846.036 1479.07 846.036C1477.05 846.036 1475.37 846.5 1474.03 847.428C1472.7 848.342 1472.04 849.506 1472.04 850.92C1472.04 852.177 1472.5 853.17 1473.41 853.898C1474.33 854.626 1475.75 855.233 1477.7 855.719L1482.58 856.919C1485.52 857.633 1487.71 858.725 1489.16 860.196C1490.6 861.653 1491.32 863.531 1491.32 865.831C1491.32 867.716 1490.78 869.401 1489.69 870.887C1488.62 872.372 1487.12 873.543 1485.19 874.4C1483.27 875.257 1481.02 875.686 1478.47 875.686C1475.11 875.686 1472.33 874.957 1470.13 873.5C1467.93 872.044 1466.54 869.916 1465.96 867.116L1470.75 865.917C1471.21 867.687 1472.08 869.016 1473.35 869.901C1474.63 870.787 1476.31 871.229 1478.38 871.229C1480.74 871.229 1482.61 870.73 1483.99 869.73C1485.39 868.716 1486.09 867.502 1486.09 866.088C1486.09 864.945 1485.69 863.988 1484.89 863.217C1484.09 862.432 1482.87 861.846 1481.21 861.46L1475.72 860.175C1472.71 859.461 1470.5 858.354 1469.08 856.854C1467.68 855.341 1466.98 853.448 1466.98 851.177C1466.98 849.321 1467.51 847.678 1468.55 846.25C1469.6 844.822 1471.04 843.7 1472.85 842.886C1474.68 842.072 1476.75 841.665 1479.07 841.665C1482.32 841.665 1484.88 842.379 1486.74 843.808C1488.61 845.236 1489.94 847.121 1490.72 849.463ZM1512.3 875.686C1509.33 875.686 1506.72 874.979 1504.48 873.565C1502.25 872.151 1500.51 870.173 1499.25 867.63C1498.01 865.088 1497.39 862.117 1497.39 858.718C1497.39 855.291 1498.01 852.298 1499.25 849.742C1500.51 847.185 1502.25 845.2 1504.48 843.786C1506.72 842.372 1509.33 841.665 1512.3 841.665C1515.27 841.665 1517.87 842.372 1520.1 843.786C1522.34 845.2 1524.08 847.185 1525.33 849.742C1526.58 852.298 1527.21 855.291 1527.21 858.718C1527.21 862.117 1526.58 865.088 1525.33 867.63C1524.08 870.173 1522.34 872.151 1520.1 873.565C1517.87 874.979 1515.27 875.686 1512.3 875.686ZM1512.3 871.144C1514.56 871.144 1516.41 870.565 1517.87 869.409C1519.33 868.252 1520.4 866.731 1521.1 864.845C1521.8 862.96 1522.15 860.918 1522.15 858.718C1522.15 856.519 1521.8 854.469 1521.1 852.57C1520.4 850.67 1519.33 849.135 1517.87 847.964C1516.41 846.793 1514.56 846.207 1512.3 846.207C1510.04 846.207 1508.19 846.793 1506.73 847.964C1505.27 849.135 1504.19 850.67 1503.49 852.57C1502.79 854.469 1502.45 856.519 1502.45 858.718C1502.45 860.918 1502.79 862.96 1503.49 864.845C1504.19 866.731 1505.27 868.252 1506.73 869.409C1508.19 870.565 1510.04 871.144 1512.3 871.144ZM1559.35 875L1549.32 842.094H1554.64L1561.75 867.288H1562.09L1569.12 842.094H1574.52L1581.46 867.202H1581.8L1588.92 842.094H1594.23L1584.2 875H1579.23L1572.03 849.72H1571.52L1564.32 875H1559.35ZM1613.59 875.686C1610.42 875.686 1607.68 874.986 1605.38 873.586C1603.1 872.172 1601.34 870.201 1600.09 867.673C1598.86 865.131 1598.25 862.175 1598.25 858.804C1598.25 855.433 1598.86 852.463 1600.09 849.892C1601.34 847.307 1603.06 845.293 1605.28 843.85C1607.51 842.394 1610.1 841.665 1613.08 841.665C1614.79 841.665 1616.48 841.951 1618.15 842.522C1619.82 843.094 1621.34 844.022 1622.72 845.307C1624.09 846.578 1625.18 848.264 1625.99 850.363C1626.81 852.463 1627.21 855.048 1627.21 858.118V860.261H1601.85V855.89H1622.07C1622.07 854.034 1621.7 852.377 1620.96 850.92C1620.23 849.463 1619.19 848.314 1617.83 847.471C1616.49 846.628 1614.9 846.207 1613.08 846.207C1611.06 846.207 1609.32 846.707 1607.85 847.707C1606.39 848.692 1605.27 849.978 1604.48 851.563C1603.7 853.148 1603.31 854.848 1603.31 856.662V859.575C1603.31 862.06 1603.73 864.167 1604.59 865.895C1605.46 867.609 1606.67 868.916 1608.21 869.816C1609.75 870.701 1611.55 871.144 1613.59 871.144C1614.92 871.144 1616.12 870.958 1617.19 870.587C1618.27 870.201 1619.21 869.63 1619.99 868.873C1620.78 868.102 1621.39 867.145 1621.82 866.002L1626.7 867.373C1626.19 869.03 1625.32 870.487 1624.11 871.744C1622.89 872.986 1621.39 873.957 1619.61 874.657C1617.82 875.343 1615.82 875.686 1613.59 875.686ZM1639.96 831.125V875H1634.91V831.125H1639.96ZM1654.28 831.125V875H1649.22V831.125H1654.28ZM1692.93 875.686C1690.19 875.686 1687.77 874.993 1685.67 873.607C1683.57 872.208 1681.93 870.237 1680.74 867.695C1679.56 865.138 1678.96 862.117 1678.96 858.633C1678.96 855.176 1679.56 852.177 1680.74 849.635C1681.93 847.093 1683.58 845.129 1685.69 843.743C1687.8 842.358 1690.25 841.665 1693.02 841.665C1695.16 841.665 1696.85 842.022 1698.09 842.736C1699.35 843.436 1700.31 844.236 1700.96 845.136C1701.64 846.021 1702.16 846.75 1702.53 847.321H1702.96V831.125H1708.01V875H1703.13V869.944H1702.53C1702.16 870.544 1701.63 871.301 1700.94 872.215C1700.26 873.115 1699.28 873.922 1698.01 874.636C1696.74 875.336 1695.04 875.686 1692.93 875.686ZM1693.62 871.144C1695.64 871.144 1697.36 870.615 1698.76 869.558C1700.16 868.487 1701.22 867.009 1701.95 865.124C1702.68 863.224 1703.04 861.032 1703.04 858.547C1703.04 856.09 1702.69 853.941 1701.97 852.098C1701.26 850.242 1700.2 848.799 1698.8 847.771C1697.4 846.728 1695.67 846.207 1693.62 846.207C1691.47 846.207 1689.69 846.757 1688.26 847.857C1686.85 848.942 1685.78 850.42 1685.07 852.291C1684.37 854.148 1684.02 856.233 1684.02 858.547C1684.02 860.889 1684.38 863.017 1685.09 864.931C1685.82 866.831 1686.89 868.344 1688.3 869.473C1689.73 870.587 1691.5 871.144 1693.62 871.144ZM1731.34 875.686C1728.37 875.686 1725.77 874.979 1723.52 873.565C1721.3 872.151 1719.55 870.173 1718.3 867.63C1717.05 865.088 1716.43 862.117 1716.43 858.718C1716.43 855.291 1717.05 852.298 1718.3 849.742C1719.55 847.185 1721.3 845.2 1723.52 843.786C1725.77 842.372 1728.37 841.665 1731.34 841.665C1734.31 841.665 1736.91 842.372 1739.14 843.786C1741.38 845.2 1743.13 847.185 1744.37 849.742C1745.63 852.298 1746.25 855.291 1746.25 858.718C1746.25 862.117 1745.63 865.088 1744.37 867.63C1743.13 870.173 1741.38 872.151 1739.14 873.565C1736.91 874.979 1734.31 875.686 1731.34 875.686ZM1731.34 871.144C1733.6 871.144 1735.46 870.565 1736.91 869.409C1738.37 868.252 1739.45 866.731 1740.15 864.845C1740.85 862.96 1741.2 860.918 1741.2 858.718C1741.2 856.519 1740.85 854.469 1740.15 852.57C1739.45 850.67 1738.37 849.135 1736.91 847.964C1735.46 846.793 1733.6 846.207 1731.34 846.207C1729.09 846.207 1727.23 846.793 1725.77 847.964C1724.32 849.135 1723.24 850.67 1722.54 852.57C1721.84 854.469 1721.49 856.519 1721.49 858.718C1721.49 860.918 1721.84 862.96 1722.54 864.845C1723.24 866.731 1724.32 868.252 1725.77 869.409C1727.23 870.565 1729.09 871.144 1731.34 871.144ZM1759.03 855.205V875H1753.97V842.094H1758.86V847.235H1759.28C1760.06 845.564 1761.23 844.222 1762.8 843.208C1764.37 842.179 1766.4 841.665 1768.88 841.665C1771.11 841.665 1773.06 842.122 1774.73 843.036C1776.4 843.936 1777.7 845.307 1778.63 847.15C1779.56 848.978 1780.02 851.292 1780.02 854.091V875H1774.97V854.434C1774.97 851.849 1774.29 849.835 1772.95 848.392C1771.61 846.935 1769.77 846.207 1767.43 846.207C1765.81 846.207 1764.37 846.557 1763.1 847.257C1761.84 847.957 1760.85 848.978 1760.12 850.32C1759.39 851.663 1759.03 853.291 1759.03 855.205ZM1803.06 875.686C1799.89 875.686 1797.15 874.986 1794.85 873.586C1792.57 872.172 1790.8 870.201 1789.56 867.673C1788.33 865.131 1787.72 862.175 1787.72 858.804C1787.72 855.433 1788.33 852.463 1789.56 849.892C1790.8 847.307 1792.53 845.293 1794.75 843.85C1796.97 842.394 1799.57 841.665 1802.54 841.665C1804.26 841.665 1805.95 841.951 1807.62 842.522C1809.29 843.094 1810.81 844.022 1812.18 845.307C1813.55 846.578 1814.65 848.264 1815.46 850.363C1816.28 852.463 1816.68 855.048 1816.68 858.118V860.261H1791.32V855.89H1811.54C1811.54 854.034 1811.17 852.377 1810.43 850.92C1809.7 849.463 1808.66 848.314 1807.3 847.471C1805.96 846.628 1804.37 846.207 1802.54 846.207C1800.53 846.207 1798.79 846.707 1797.32 847.707C1795.86 848.692 1794.74 849.978 1793.95 851.563C1793.17 853.148 1792.77 854.848 1792.77 856.662V859.575C1792.77 862.06 1793.2 864.167 1794.06 865.895C1794.93 867.609 1796.14 868.916 1797.68 869.816C1799.22 870.701 1801.02 871.144 1803.06 871.144C1804.39 871.144 1805.59 870.958 1806.66 870.587C1807.74 870.201 1808.68 869.63 1809.46 868.873C1810.25 868.102 1810.86 867.145 1811.28 866.002L1816.17 867.373C1815.65 869.03 1814.79 870.487 1813.58 871.744C1812.36 872.986 1810.86 873.957 1809.08 874.657C1807.29 875.343 1805.29 875.686 1803.06 875.686ZM1841.34 875V842.094H1846.4V875H1841.34ZM1843.91 836.609C1842.93 836.609 1842.08 836.274 1841.36 835.602C1840.66 834.931 1840.31 834.124 1840.31 833.182C1840.31 832.239 1840.66 831.432 1841.36 830.761C1842.08 830.09 1842.93 829.754 1843.91 829.754C1844.9 829.754 1845.74 830.09 1846.44 830.761C1847.15 831.432 1847.51 832.239 1847.51 833.182C1847.51 834.124 1847.15 834.931 1846.44 835.602C1845.74 836.274 1844.9 836.609 1843.91 836.609ZM1860.71 855.205V875H1855.66V842.094H1860.54V847.235H1860.97C1861.74 845.564 1862.91 844.222 1864.48 843.208C1866.05 842.179 1868.08 841.665 1870.57 841.665C1872.8 841.665 1874.75 842.122 1876.42 843.036C1878.09 843.936 1879.39 845.307 1880.32 847.15C1881.24 848.978 1881.71 851.292 1881.71 854.091V875H1876.65V854.434C1876.65 851.849 1875.98 849.835 1874.64 848.392C1873.3 846.935 1871.45 846.207 1869.11 846.207C1867.5 846.207 1866.05 846.557 1864.78 847.257C1863.53 847.957 1862.53 848.978 1861.81 850.32C1861.08 851.663 1860.71 853.291 1860.71 855.205ZM1920.34 875.686C1917.6 875.686 1915.18 874.993 1913.08 873.607C1910.98 872.208 1909.34 870.237 1908.15 867.695C1906.96 865.138 1906.37 862.117 1906.37 858.633C1906.37 855.176 1906.96 852.177 1908.15 849.635C1909.34 847.093 1910.98 845.129 1913.1 843.743C1915.21 842.358 1917.65 841.665 1920.43 841.665C1922.57 841.665 1924.26 842.022 1925.5 842.736C1926.76 843.436 1927.72 844.236 1928.37 845.136C1929.04 846.021 1929.57 846.75 1929.94 847.321H1930.37V831.125H1935.42V875H1930.54V869.944H1929.94C1929.57 870.544 1929.04 871.301 1928.35 872.215C1927.67 873.115 1926.69 873.922 1925.42 874.636C1924.15 875.336 1922.45 875.686 1920.34 875.686ZM1921.03 871.144C1923.05 871.144 1924.77 870.615 1926.17 869.558C1927.57 868.487 1928.63 867.009 1929.36 865.124C1930.09 863.224 1930.45 861.032 1930.45 858.547C1930.45 856.09 1930.09 853.941 1929.38 852.098C1928.67 850.242 1927.61 848.799 1926.21 847.771C1924.81 846.728 1923.08 846.207 1921.03 846.207C1918.88 846.207 1917.1 846.757 1915.67 847.857C1914.26 848.942 1913.19 850.42 1912.48 852.291C1911.78 854.148 1911.43 856.233 1911.43 858.547C1911.43 860.889 1911.78 863.017 1912.5 864.931C1913.23 866.831 1914.3 868.344 1915.71 869.473C1917.14 870.587 1918.91 871.144 1921.03 871.144ZM1959.18 875.686C1956.01 875.686 1953.27 874.986 1950.97 873.586C1948.69 872.172 1946.93 870.201 1945.68 867.673C1944.46 865.131 1943.84 862.175 1943.84 858.804C1943.84 855.433 1944.46 852.463 1945.68 849.892C1946.93 847.307 1948.65 845.293 1950.87 843.85C1953.1 842.394 1955.7 841.665 1958.67 841.665C1960.38 841.665 1962.07 841.951 1963.74 842.522C1965.41 843.094 1966.94 844.022 1968.31 845.307C1969.68 846.578 1970.77 848.264 1971.58 850.363C1972.4 852.463 1972.81 855.048 1972.81 858.118V860.261H1947.44V855.89H1967.66C1967.66 854.034 1967.29 852.377 1966.55 850.92C1965.82 849.463 1964.78 848.314 1963.42 847.471C1962.08 846.628 1960.49 846.207 1958.67 846.207C1956.65 846.207 1954.91 846.707 1953.44 847.707C1951.98 848.692 1950.86 849.978 1950.08 851.563C1949.29 853.148 1948.9 854.848 1948.9 856.662V859.575C1948.9 862.06 1949.33 864.167 1950.18 865.895C1951.05 867.609 1952.26 868.916 1953.8 869.816C1955.35 870.701 1957.14 871.144 1959.18 871.144C1960.51 871.144 1961.71 870.958 1962.78 870.587C1963.86 870.201 1964.8 869.63 1965.59 868.873C1966.37 868.102 1966.98 867.145 1967.41 866.002L1972.29 867.373C1971.78 869.03 1970.91 870.487 1969.7 871.744C1968.48 872.986 1966.99 873.957 1965.2 874.657C1963.41 875.343 1961.41 875.686 1959.18 875.686ZM1993.86 875.686C1990.78 875.686 1988.12 874.957 1985.9 873.5C1983.67 872.044 1981.95 870.037 1980.75 867.48C1979.55 864.924 1978.95 862.003 1978.95 858.718C1978.95 855.376 1979.57 852.427 1980.8 849.87C1982.04 847.3 1983.77 845.293 1985.98 843.85C1988.21 842.394 1990.81 841.665 1993.78 841.665C1996.09 841.665 1998.18 842.094 2000.03 842.951C2001.89 843.808 2003.41 845.007 2004.6 846.55C2005.78 848.092 2006.52 849.892 2006.8 851.948H2001.75C2001.36 850.449 2000.51 849.121 1999.18 847.964C1997.86 846.793 1996.09 846.207 1993.86 846.207C1991.89 846.207 1990.17 846.721 1988.68 847.75C1987.21 848.764 1986.06 850.199 1985.23 852.056C1984.42 853.898 1984.01 856.062 1984.01 858.547C1984.01 861.089 1984.41 863.303 1985.21 865.188C1986.02 867.073 1987.17 868.537 1988.64 869.58C1990.12 870.622 1991.86 871.144 1993.86 871.144C1995.18 871.144 1996.37 870.915 1997.44 870.458C1998.51 870.001 1999.42 869.344 2000.16 868.487C2000.91 867.63 2001.43 866.602 2001.75 865.402H2006.8C2006.52 867.345 2005.81 869.094 2004.68 870.651C2003.57 872.194 2002.09 873.422 2000.25 874.336C1998.42 875.236 1996.29 875.686 1993.86 875.686ZM2027.56 875.686C2024.59 875.686 2021.99 874.979 2019.74 873.565C2017.52 872.151 2015.77 870.173 2014.52 867.63C2013.27 865.088 2012.65 862.117 2012.65 858.718C2012.65 855.291 2013.27 852.298 2014.52 849.742C2015.77 847.185 2017.52 845.2 2019.74 843.786C2021.99 842.372 2024.59 841.665 2027.56 841.665C2030.53 841.665 2033.13 842.372 2035.36 843.786C2037.6 845.2 2039.35 847.185 2040.59 849.742C2041.85 852.298 2042.47 855.291 2042.47 858.718C2042.47 862.117 2041.85 865.088 2040.59 867.63C2039.35 870.173 2037.6 872.151 2035.36 873.565C2033.13 874.979 2030.53 875.686 2027.56 875.686ZM2027.56 871.144C2029.82 871.144 2031.68 870.565 2033.13 869.409C2034.59 868.252 2035.67 866.731 2036.37 864.845C2037.07 862.96 2037.42 860.918 2037.42 858.718C2037.42 856.519 2037.07 854.469 2036.37 852.57C2035.67 850.67 2034.59 849.135 2033.13 847.964C2031.68 846.793 2029.82 846.207 2027.56 846.207C2025.31 846.207 2023.45 846.793 2021.99 847.964C2020.54 849.135 2019.46 850.67 2018.76 852.57C2018.06 854.469 2017.71 856.519 2017.71 858.718C2017.71 860.918 2018.06 862.96 2018.76 864.845C2019.46 866.731 2020.54 868.252 2021.99 869.409C2023.45 870.565 2025.31 871.144 2027.56 871.144ZM2050.19 875V842.094H2055.08V847.064H2055.42C2056.02 845.436 2057.1 844.115 2058.68 843.101C2060.25 842.087 2062.02 841.58 2063.99 841.58C2064.36 841.58 2064.82 841.587 2065.38 841.601C2065.94 841.615 2066.36 841.637 2066.64 841.665V846.807C2066.47 846.764 2066.08 846.7 2065.47 846.614C2064.87 846.514 2064.23 846.464 2063.56 846.464C2061.96 846.464 2060.53 846.8 2059.28 847.471C2058.03 848.128 2057.05 849.042 2056.32 850.213C2055.6 851.37 2055.25 852.691 2055.25 854.177V875H2050.19ZM2082.32 875.771C2080.24 875.771 2078.34 875.378 2076.64 874.593C2074.94 873.793 2073.59 872.643 2072.6 871.144C2071.6 869.63 2071.1 867.802 2071.1 865.659C2071.1 863.774 2071.47 862.246 2072.21 861.075C2072.95 859.889 2073.94 858.961 2075.19 858.29C2076.43 857.619 2077.8 857.119 2079.3 856.79C2080.81 856.447 2082.34 856.176 2083.86 855.976C2085.86 855.719 2087.48 855.526 2088.73 855.398C2089.98 855.255 2090.9 855.019 2091.47 854.691C2092.05 854.362 2092.35 853.791 2092.35 852.977V852.805C2092.35 850.692 2091.77 849.049 2090.61 847.878C2089.47 846.707 2087.73 846.121 2085.41 846.121C2082.99 846.121 2081.1 846.65 2079.73 847.707C2078.36 848.764 2077.39 849.892 2076.84 851.092L2072.04 849.378C2072.9 847.378 2074.04 845.821 2075.47 844.707C2076.91 843.579 2078.48 842.794 2080.18 842.351C2081.89 841.894 2083.58 841.665 2085.23 841.665C2086.29 841.665 2087.51 841.794 2088.88 842.051C2090.26 842.294 2091.6 842.801 2092.88 843.572C2094.18 844.343 2095.26 845.507 2096.12 847.064C2096.97 848.621 2097.4 850.706 2097.4 853.32V875H2092.35V870.544H2092.09C2091.75 871.258 2091.18 872.022 2090.38 872.836C2089.58 873.65 2088.51 874.343 2087.18 874.914C2085.86 875.486 2084.24 875.771 2082.32 875.771ZM2083.09 871.229C2085.09 871.229 2086.78 870.837 2088.15 870.051C2089.53 869.266 2090.58 868.252 2091.28 867.009C2091.99 865.767 2092.35 864.46 2092.35 863.089V858.461C2092.13 858.718 2091.66 858.954 2090.93 859.168C2090.22 859.368 2089.39 859.547 2088.45 859.704C2087.52 859.847 2086.61 859.975 2085.73 860.089C2084.86 860.189 2084.15 860.275 2083.61 860.346C2082.29 860.518 2081.06 860.796 2079.92 861.182C2078.79 861.553 2077.88 862.117 2077.18 862.874C2076.49 863.617 2076.15 864.631 2076.15 865.917C2076.15 867.673 2076.8 869.001 2078.1 869.901C2079.41 870.787 2081.08 871.229 2083.09 871.229ZM2120.94 842.094V846.378H2103.89V842.094H2120.94ZM2108.86 834.21H2113.92V865.574C2113.92 867.002 2114.12 868.073 2114.54 868.787C2114.97 869.487 2115.51 869.958 2116.16 870.201C2116.84 870.43 2117.54 870.544 2118.29 870.544C2118.84 870.544 2119.3 870.515 2119.66 870.458C2120.01 870.387 2120.3 870.33 2120.51 870.287L2121.54 874.829C2121.2 874.957 2120.72 875.086 2120.11 875.214C2119.49 875.357 2118.71 875.428 2117.77 875.428C2116.34 875.428 2114.94 875.121 2113.57 874.507C2112.22 873.893 2111.09 872.958 2110.19 871.701C2109.3 870.444 2108.86 868.859 2108.86 866.945V834.21ZM2128.55 875V842.094H2133.6V875H2128.55ZM2131.12 836.609C2130.13 836.609 2129.28 836.274 2128.57 835.602C2127.87 834.931 2127.52 834.124 2127.52 833.182C2127.52 832.239 2127.87 831.432 2128.57 830.761C2129.28 830.09 2130.13 829.754 2131.12 829.754C2132.1 829.754 2132.95 830.09 2133.65 830.761C2134.36 831.432 2134.72 832.239 2134.72 833.182C2134.72 834.124 2134.36 834.931 2133.65 835.602C2132.95 836.274 2132.1 836.609 2131.12 836.609ZM2156.23 875.686C2153.26 875.686 2150.65 874.979 2148.41 873.565C2146.18 872.151 2144.44 870.173 2143.19 867.63C2141.94 865.088 2141.32 862.117 2141.32 858.718C2141.32 855.291 2141.94 852.298 2143.19 849.742C2144.44 847.185 2146.18 845.2 2148.41 843.786C2150.65 842.372 2153.26 841.665 2156.23 841.665C2159.2 841.665 2161.8 842.372 2164.03 843.786C2166.27 845.2 2168.01 847.185 2169.26 849.742C2170.51 852.298 2171.14 855.291 2171.14 858.718C2171.14 862.117 2170.51 865.088 2169.26 867.63C2168.01 870.173 2166.27 872.151 2164.03 873.565C2161.8 874.979 2159.2 875.686 2156.23 875.686ZM2156.23 871.144C2158.49 871.144 2160.35 870.565 2161.8 869.409C2163.26 868.252 2164.34 866.731 2165.04 864.845C2165.74 862.96 2166.09 860.918 2166.09 858.718C2166.09 856.519 2165.74 854.469 2165.04 852.57C2164.34 850.67 2163.26 849.135 2161.8 847.964C2160.35 846.793 2158.49 846.207 2156.23 846.207C2153.98 846.207 2152.12 846.793 2150.66 847.964C2149.21 849.135 2148.13 850.67 2147.43 852.57C2146.73 854.469 2146.38 856.519 2146.38 858.718C2146.38 860.918 2146.73 862.96 2147.43 864.845C2148.13 866.731 2149.21 868.252 2150.66 869.409C2152.12 870.565 2153.98 871.144 2156.23 871.144ZM2183.92 855.205V875H2178.86V842.094H2183.74V847.235H2184.17C2184.94 845.564 2186.12 844.222 2187.69 843.208C2189.26 842.179 2191.29 841.665 2193.77 841.665C2196 841.665 2197.95 842.122 2199.62 843.036C2201.29 843.936 2202.59 845.307 2203.52 847.15C2204.45 848.978 2204.91 851.292 2204.91 854.091V875H2199.86V854.434C2199.86 851.849 2199.18 849.835 2197.84 848.392C2196.5 846.935 2194.66 846.207 2192.31 846.207C2190.7 846.207 2189.26 846.557 2187.99 847.257C2186.73 847.957 2185.74 848.978 2185.01 850.32C2184.28 851.663 2183.92 853.291 2183.92 855.205ZM848.867 915.094V919.378H831.814V915.094H848.867ZM836.784 907.21H841.84V938.574C841.84 940.002 842.047 941.073 842.462 941.787C842.89 942.487 843.433 942.958 844.09 943.201C844.761 943.43 845.468 943.544 846.211 943.544C846.768 943.544 847.225 943.515 847.582 943.458C847.939 943.387 848.224 943.33 848.439 943.287L849.467 947.829C849.124 947.957 848.646 948.086 848.032 948.214C847.418 948.357 846.639 948.428 845.697 948.428C844.268 948.428 842.869 948.121 841.498 947.507C840.141 946.893 839.012 945.958 838.113 944.701C837.227 943.444 836.784 941.859 836.784 939.945V907.21ZM862.235 928.205V948H857.179V904.125H862.235V920.235H862.664C863.435 918.536 864.592 917.186 866.134 916.186C867.691 915.172 869.762 914.665 872.347 914.665C874.589 914.665 876.553 915.115 878.239 916.015C879.924 916.9 881.231 918.264 882.159 920.107C883.102 921.935 883.573 924.263 883.573 927.091V948H878.517V927.434C878.517 924.82 877.839 922.799 876.482 921.371C875.139 919.928 873.276 919.207 870.89 919.207C869.234 919.207 867.748 919.557 866.434 920.257C865.135 920.957 864.106 921.978 863.349 923.32C862.607 924.663 862.235 926.291 862.235 928.205ZM902.506 948.771C900.421 948.771 898.528 948.378 896.829 947.593C895.129 946.793 893.779 945.643 892.78 944.144C891.78 942.63 891.28 940.802 891.28 938.659C891.28 936.774 891.651 935.246 892.394 934.075C893.137 932.889 894.129 931.961 895.372 931.29C896.614 930.619 897.986 930.119 899.485 929.79C900.999 929.447 902.52 929.176 904.048 928.976C906.048 928.719 907.669 928.526 908.911 928.398C910.168 928.255 911.082 928.019 911.654 927.691C912.239 927.362 912.532 926.791 912.532 925.977V925.805C912.532 923.692 911.954 922.049 910.797 920.878C909.654 919.707 907.919 919.121 905.591 919.121C903.177 919.121 901.285 919.65 899.914 920.707C898.543 921.764 897.578 922.892 897.021 924.092L892.223 922.378C893.08 920.378 894.222 918.821 895.65 917.707C897.093 916.579 898.664 915.794 900.364 915.351C902.077 914.894 903.763 914.665 905.419 914.665C906.476 914.665 907.69 914.794 909.061 915.051C910.447 915.294 911.782 915.801 913.068 916.572C914.367 917.343 915.446 918.507 916.302 920.064C917.159 921.621 917.588 923.706 917.588 926.32V948H912.532V943.544H912.275C911.932 944.258 911.361 945.022 910.561 945.836C909.761 946.65 908.697 947.343 907.369 947.914C906.041 948.486 904.42 948.771 902.506 948.771ZM903.277 944.229C905.277 944.229 906.962 943.837 908.333 943.051C909.718 942.266 910.761 941.252 911.461 940.009C912.175 938.767 912.532 937.46 912.532 936.089V931.461C912.318 931.718 911.846 931.954 911.118 932.168C910.404 932.368 909.576 932.547 908.633 932.704C907.705 932.847 906.798 932.975 905.912 933.089C905.041 933.189 904.334 933.275 903.791 933.346C902.477 933.518 901.249 933.796 900.106 934.182C898.978 934.553 898.064 935.117 897.364 935.874C896.679 936.617 896.336 937.631 896.336 938.917C896.336 940.673 896.986 942.001 898.285 942.901C899.599 943.787 901.263 944.229 903.277 944.229ZM941.127 915.094V919.378H924.074V915.094H941.127ZM929.044 907.21H934.1V938.574C934.1 940.002 934.307 941.073 934.721 941.787C935.15 942.487 935.692 942.958 936.349 943.201C937.021 943.43 937.728 943.544 938.47 943.544C939.027 943.544 939.484 943.515 939.841 943.458C940.198 943.387 940.484 943.33 940.698 943.287L941.727 947.829C941.384 947.957 940.905 948.086 940.291 948.214C939.677 948.357 938.899 948.428 937.956 948.428C936.528 948.428 935.128 948.121 933.757 947.507C932.4 946.893 931.272 945.958 930.372 944.701C929.487 943.444 929.044 941.859 929.044 939.945V907.21ZM980.01 915.094V919.378H962.957V915.094H980.01ZM967.927 907.21H972.983V938.574C972.983 940.002 973.19 941.073 973.605 941.787C974.033 942.487 974.576 942.958 975.233 943.201C975.904 943.43 976.611 943.544 977.354 943.544C977.911 943.544 978.368 943.515 978.725 943.458C979.082 943.387 979.367 943.33 979.582 943.287L980.61 947.829C980.267 947.957 979.789 948.086 979.175 948.214C978.561 948.357 977.782 948.428 976.84 948.428C975.411 948.428 974.012 948.121 972.641 947.507C971.284 946.893 970.155 945.958 969.256 944.701C968.37 943.444 967.927 941.859 967.927 939.945V907.21ZM993.378 928.205V948H988.322V904.125H993.378V920.235H993.807C994.578 918.536 995.735 917.186 997.277 916.186C998.834 915.172 1000.91 914.665 1003.49 914.665C1005.73 914.665 1007.7 915.115 1009.38 916.015C1011.07 916.9 1012.37 918.264 1013.3 920.107C1014.24 921.935 1014.72 924.263 1014.72 927.091V948H1009.66V927.434C1009.66 924.82 1008.98 922.799 1007.62 921.371C1006.28 919.928 1004.42 919.207 1002.03 919.207C1000.38 919.207 998.891 919.557 997.577 920.257C996.278 920.957 995.249 921.978 994.492 923.32C993.75 924.663 993.378 926.291 993.378 928.205ZM1037.76 948.686C1034.59 948.686 1031.86 947.986 1029.56 946.586C1027.27 945.172 1025.51 943.201 1024.27 940.673C1023.04 938.131 1022.42 935.175 1022.42 931.804C1022.42 928.433 1023.04 925.463 1024.27 922.892C1025.51 920.307 1027.24 918.293 1029.45 916.85C1031.68 915.394 1034.28 914.665 1037.25 914.665C1038.96 914.665 1040.65 914.951 1042.33 915.522C1044 916.094 1045.52 917.022 1046.89 918.307C1048.26 919.578 1049.35 921.264 1050.17 923.363C1050.98 925.463 1051.39 928.048 1051.39 931.118V933.261H1026.02V928.89H1046.25C1046.25 927.034 1045.87 925.377 1045.13 923.92C1044.4 922.463 1043.36 921.314 1042 920.471C1040.66 919.628 1039.08 919.207 1037.25 919.207C1035.23 919.207 1033.49 919.707 1032.02 920.707C1030.56 921.692 1029.44 922.978 1028.66 924.563C1027.87 926.148 1027.48 927.848 1027.48 929.662V932.575C1027.48 935.06 1027.91 937.167 1028.76 938.895C1029.64 940.609 1030.84 941.916 1032.38 942.816C1033.93 943.701 1035.72 944.144 1037.76 944.144C1039.09 944.144 1040.29 943.958 1041.36 943.587C1042.45 943.201 1043.38 942.63 1044.17 941.873C1044.95 941.102 1045.56 940.145 1045.99 939.002L1050.87 940.373C1050.36 942.03 1049.49 943.487 1048.28 944.744C1047.07 945.986 1045.57 946.957 1043.78 947.657C1042 948.343 1039.99 948.686 1037.76 948.686ZM1061.33 960.34C1060.48 960.34 1059.71 960.268 1059.04 960.126C1058.37 959.997 1057.91 959.869 1057.65 959.74L1058.93 955.284C1060.16 955.598 1061.25 955.712 1062.19 955.627C1063.13 955.541 1063.97 955.12 1064.7 954.363C1065.44 953.62 1066.12 952.413 1066.73 950.742L1067.67 948.171L1055.51 915.094H1060.99L1070.07 941.316H1070.42L1079.5 915.094H1084.98L1071.02 952.799C1070.39 954.498 1069.61 955.905 1068.68 957.019C1067.75 958.148 1066.67 958.983 1065.45 959.526C1064.23 960.068 1062.86 960.34 1061.33 960.34ZM1121.91 961.025C1119.47 961.025 1117.37 960.711 1115.61 960.083C1113.85 959.469 1112.39 958.655 1111.22 957.641C1110.06 956.641 1109.14 955.57 1108.45 954.427L1112.48 951.599C1112.94 952.199 1113.52 952.885 1114.22 953.656C1114.92 954.441 1115.87 955.12 1117.09 955.691C1118.32 956.277 1119.92 956.569 1121.91 956.569C1124.56 956.569 1126.76 955.927 1128.48 954.641C1130.21 953.356 1131.08 951.342 1131.08 948.6V941.916H1130.65C1130.28 942.516 1129.75 943.258 1129.06 944.144C1128.39 945.015 1127.42 945.793 1126.15 946.479C1124.89 947.15 1123.19 947.486 1121.05 947.486C1118.39 947.486 1116.01 946.857 1113.9 945.601C1111.8 944.344 1110.13 942.516 1108.9 940.116C1107.69 937.717 1107.08 934.803 1107.08 931.375C1107.08 928.005 1107.68 925.07 1108.86 922.57C1110.05 920.057 1111.7 918.114 1113.81 916.743C1115.92 915.358 1118.37 914.665 1121.14 914.665C1123.28 914.665 1124.98 915.022 1126.24 915.736C1127.51 916.436 1128.48 917.236 1129.15 918.136C1129.83 919.021 1130.36 919.75 1130.73 920.321H1131.25V915.094H1136.13V948.943C1136.13 951.771 1135.49 954.07 1134.2 955.841C1132.93 957.626 1131.22 958.933 1129.06 959.761C1126.92 960.604 1124.54 961.025 1121.91 961.025ZM1121.74 942.944C1123.76 942.944 1125.48 942.48 1126.88 941.552C1128.28 940.623 1129.34 939.288 1130.07 937.545C1130.8 935.803 1131.16 933.718 1131.16 931.29C1131.16 928.919 1130.81 926.827 1130.09 925.013C1129.38 923.199 1128.32 921.778 1126.92 920.75C1125.52 919.721 1123.79 919.207 1121.74 919.207C1119.59 919.207 1117.81 919.75 1116.38 920.835C1114.97 921.921 1113.9 923.377 1113.19 925.206C1112.49 927.034 1112.14 929.062 1112.14 931.29C1112.14 933.575 1112.5 935.596 1113.21 937.353C1113.94 939.095 1115.01 940.466 1116.42 941.466C1117.85 942.451 1119.62 942.944 1121.74 942.944ZM1159.18 948.686C1156.01 948.686 1153.28 947.986 1150.98 946.586C1148.69 945.172 1146.93 943.201 1145.69 940.673C1144.46 938.131 1143.85 935.175 1143.85 931.804C1143.85 928.433 1144.46 925.463 1145.69 922.892C1146.93 920.307 1148.66 918.293 1150.87 916.85C1153.1 915.394 1155.7 914.665 1158.67 914.665C1160.38 914.665 1162.08 914.951 1163.75 915.522C1165.42 916.094 1166.94 917.022 1168.31 918.307C1169.68 919.578 1170.77 921.264 1171.59 923.363C1172.4 925.463 1172.81 928.048 1172.81 931.118V933.261H1147.44V928.89H1167.67C1167.67 927.034 1167.3 925.377 1166.55 923.92C1165.83 922.463 1164.78 921.314 1163.43 920.471C1162.08 919.628 1160.5 919.207 1158.67 919.207C1156.66 919.207 1154.91 919.707 1153.44 920.707C1151.99 921.692 1150.86 922.978 1150.08 924.563C1149.29 926.148 1148.9 927.848 1148.9 929.662V932.575C1148.9 935.06 1149.33 937.167 1150.19 938.895C1151.06 940.609 1152.26 941.916 1153.81 942.816C1155.35 943.701 1157.14 944.144 1159.18 944.144C1160.51 944.144 1161.71 943.958 1162.78 943.587C1163.87 943.201 1164.8 942.63 1165.59 941.873C1166.38 941.102 1166.98 940.145 1167.41 939.002L1172.3 940.373C1171.78 942.03 1170.92 943.487 1169.7 944.744C1168.49 945.986 1166.99 946.957 1165.2 947.657C1163.42 948.343 1161.41 948.686 1159.18 948.686ZM1194.81 915.094V919.378H1177.76V915.094H1194.81ZM1182.73 907.21H1187.78V938.574C1187.78 940.002 1187.99 941.073 1188.41 941.787C1188.83 942.487 1189.38 942.958 1190.03 943.201C1190.71 943.43 1191.41 943.544 1192.15 943.544C1192.71 943.544 1193.17 943.515 1193.53 943.458C1193.88 943.387 1194.17 943.33 1194.38 943.287L1195.41 947.829C1195.07 947.957 1194.59 948.086 1193.98 948.214C1193.36 948.357 1192.58 948.428 1191.64 948.428C1190.21 948.428 1188.81 948.121 1187.44 947.507C1186.08 946.893 1184.96 945.958 1184.06 944.701C1183.17 943.444 1182.73 941.859 1182.73 939.945V907.21ZM1219.38 960.34V915.094H1224.27V920.321H1224.87C1225.24 919.75 1225.75 919.021 1226.41 918.136C1227.08 917.236 1228.04 916.436 1229.28 915.736C1230.54 915.022 1232.24 914.665 1234.38 914.665C1237.15 914.665 1239.59 915.358 1241.71 916.743C1243.82 918.129 1245.47 920.093 1246.66 922.635C1247.84 925.177 1248.43 928.176 1248.43 931.633C1248.43 935.117 1247.84 938.138 1246.66 940.695C1245.47 943.237 1243.83 945.208 1241.73 946.607C1239.63 947.993 1237.21 948.686 1234.47 948.686C1232.35 948.686 1230.66 948.336 1229.39 947.636C1228.12 946.922 1227.14 946.115 1226.45 945.215C1225.77 944.301 1225.24 943.544 1224.87 942.944H1224.44V960.34H1219.38ZM1224.35 931.547C1224.35 934.032 1224.72 936.224 1225.45 938.124C1226.18 940.009 1227.24 941.487 1228.64 942.558C1230.04 943.615 1231.75 944.144 1233.78 944.144C1235.89 944.144 1237.66 943.587 1239.07 942.473C1240.5 941.344 1241.57 939.831 1242.29 937.931C1243.01 936.017 1243.38 933.889 1243.38 931.547C1243.38 929.233 1243.02 927.148 1242.31 925.291C1241.61 923.42 1240.54 921.942 1239.11 920.857C1237.7 919.757 1235.92 919.207 1233.78 919.207C1231.72 919.207 1230 919.728 1228.6 920.771C1227.2 921.799 1226.14 923.242 1225.43 925.098C1224.71 926.941 1224.35 929.09 1224.35 931.547ZM1276.88 934.546V915.094H1281.94V948H1276.88V942.43H1276.54C1275.77 944.101 1274.57 945.522 1272.94 946.693C1271.31 947.85 1269.26 948.428 1266.77 948.428C1264.72 948.428 1262.89 947.979 1261.29 947.079C1259.69 946.165 1258.43 944.794 1257.52 942.966C1256.6 941.123 1256.15 938.802 1256.15 936.003V915.094H1261.2V935.66C1261.2 938.06 1261.87 939.973 1263.22 941.402C1264.57 942.83 1266.3 943.544 1268.4 943.544C1269.66 943.544 1270.94 943.223 1272.24 942.58C1273.55 941.937 1274.65 940.952 1275.53 939.623C1276.43 938.295 1276.88 936.603 1276.88 934.546ZM1305.51 915.094V919.378H1288.46V915.094H1305.51ZM1293.43 907.21H1298.48V938.574C1298.48 940.002 1298.69 941.073 1299.11 941.787C1299.53 942.487 1300.08 942.958 1300.73 943.201C1301.4 943.43 1302.11 943.544 1302.85 943.544C1303.41 943.544 1303.87 943.515 1304.23 943.458C1304.58 943.387 1304.87 943.33 1305.08 943.287L1306.11 947.829C1305.77 947.957 1305.29 948.086 1304.68 948.214C1304.06 948.357 1303.28 948.428 1302.34 948.428C1300.91 948.428 1299.51 948.121 1298.14 947.507C1296.78 946.893 1295.66 945.958 1294.76 944.701C1293.87 943.444 1293.43 941.859 1293.43 939.945V907.21ZM1335.14 928.205V948H1330.08V904.125H1335.14V920.235H1335.57C1336.34 918.536 1337.5 917.186 1339.04 916.186C1340.6 915.172 1342.67 914.665 1345.25 914.665C1347.49 914.665 1349.46 915.115 1351.14 916.015C1352.83 916.9 1354.13 918.264 1355.06 920.107C1356.01 921.935 1356.48 924.263 1356.48 927.091V948H1351.42V927.434C1351.42 924.82 1350.74 922.799 1349.39 921.371C1348.04 919.928 1346.18 919.207 1343.79 919.207C1342.14 919.207 1340.65 919.557 1339.34 920.257C1338.04 920.957 1337.01 921.978 1336.25 923.32C1335.51 924.663 1335.14 926.291 1335.14 928.205ZM1379.52 948.686C1376.35 948.686 1373.62 947.986 1371.32 946.586C1369.03 945.172 1367.27 943.201 1366.03 940.673C1364.8 938.131 1364.18 935.175 1364.18 931.804C1364.18 928.433 1364.8 925.463 1366.03 922.892C1367.27 920.307 1369 918.293 1371.21 916.85C1373.44 915.394 1376.04 914.665 1379.01 914.665C1380.72 914.665 1382.42 914.951 1384.09 915.522C1385.76 916.094 1387.28 917.022 1388.65 918.307C1390.02 919.578 1391.11 921.264 1391.93 923.363C1392.74 925.463 1393.15 928.048 1393.15 931.118V933.261H1367.78V928.89H1388.01C1388.01 927.034 1387.64 925.377 1386.89 923.92C1386.16 922.463 1385.12 921.314 1383.77 920.471C1382.42 919.628 1380.84 919.207 1379.01 919.207C1377 919.207 1375.25 919.707 1373.78 920.707C1372.33 921.692 1371.2 922.978 1370.42 924.563C1369.63 926.148 1369.24 927.848 1369.24 929.662V932.575C1369.24 935.06 1369.67 937.167 1370.53 938.895C1371.4 940.609 1372.6 941.916 1374.15 942.816C1375.69 943.701 1377.48 944.144 1379.52 944.144C1380.85 944.144 1382.05 943.958 1383.12 943.587C1384.21 943.201 1385.14 942.63 1385.93 941.873C1386.71 941.102 1387.32 940.145 1387.75 939.002L1392.63 940.373C1392.12 942.03 1391.26 943.487 1390.04 944.744C1388.83 945.986 1387.33 946.957 1385.54 947.657C1383.76 948.343 1381.75 948.686 1379.52 948.686ZM1400.84 948V915.094H1405.72V920.064H1406.07C1406.67 918.436 1407.75 917.115 1409.32 916.101C1410.89 915.087 1412.67 914.58 1414.64 914.58C1415.01 914.58 1415.47 914.587 1416.03 914.601C1416.59 914.615 1417.01 914.637 1417.29 914.665V919.807C1417.12 919.764 1416.73 919.7 1416.11 919.614C1415.51 919.514 1414.88 919.464 1414.21 919.464C1412.61 919.464 1411.18 919.8 1409.92 920.471C1408.68 921.128 1407.7 922.042 1406.97 923.213C1406.25 924.37 1405.9 925.691 1405.9 927.177V948H1400.84ZM1436.08 948.686C1432.91 948.686 1430.18 947.986 1427.88 946.586C1425.59 945.172 1423.83 943.201 1422.58 940.673C1421.36 938.131 1420.74 935.175 1420.74 931.804C1420.74 928.433 1421.36 925.463 1422.58 922.892C1423.83 920.307 1425.56 918.293 1427.77 916.85C1430 915.394 1432.6 914.665 1435.57 914.665C1437.28 914.665 1438.97 914.951 1440.64 915.522C1442.32 916.094 1443.84 917.022 1445.21 918.307C1446.58 919.578 1447.67 921.264 1448.49 923.363C1449.3 925.463 1449.71 928.048 1449.71 931.118V933.261H1424.34V928.89H1444.56C1444.56 927.034 1444.19 925.377 1443.45 923.92C1442.72 922.463 1441.68 921.314 1440.32 920.471C1438.98 919.628 1437.4 919.207 1435.57 919.207C1433.55 919.207 1431.81 919.707 1430.34 920.707C1428.88 921.692 1427.76 922.978 1426.98 924.563C1426.19 926.148 1425.8 927.848 1425.8 929.662V932.575C1425.8 935.06 1426.23 937.167 1427.08 938.895C1427.95 940.609 1429.16 941.916 1430.7 942.816C1432.25 943.701 1434.04 944.144 1436.08 944.144C1437.41 944.144 1438.61 943.958 1439.68 943.587C1440.77 943.201 1441.7 942.63 1442.49 941.873C1443.27 941.102 1443.88 940.145 1444.31 939.002L1449.19 940.373C1448.68 942.03 1447.81 943.487 1446.6 944.744C1445.39 945.986 1443.89 946.957 1442.1 947.657C1440.32 948.343 1438.31 948.686 1436.08 948.686ZM1461.08 948.343C1460.03 948.343 1459.12 947.964 1458.36 947.207C1457.6 946.45 1457.23 945.543 1457.23 944.487C1457.23 943.43 1457.6 942.523 1458.36 941.766C1459.12 941.009 1460.03 940.63 1461.08 940.63C1462.14 940.63 1463.05 941.009 1463.8 941.766C1464.56 942.523 1464.94 943.43 1464.94 944.487C1464.94 945.186 1464.76 945.829 1464.4 946.415C1464.06 947 1463.6 947.472 1463.01 947.829C1462.44 948.171 1461.8 948.343 1461.08 948.343Z" fill="white"/>
<g filter="url(#filter0_d_624_157)">
<rect x="614" y="344" width="1090" height="214" fill="black" fill-opacity="0.19" shape-rendering="crispEdges"/>
<rect x="620" y="350" width="1078" height="202" stroke="white" stroke-width="12" shape-rendering="crispEdges"/>
</g>
<g filter="url(#filter1_d_624_157)">
<path d="M782.925 489.017C779.384 489.017 775.919 488.716 772.529 488.113C769.139 487.51 765.975 486.644 763.037 485.514C760.174 484.384 757.575 482.953 755.24 481.22C754.336 480.542 753.696 479.789 753.319 478.96C753.018 478.056 752.942 477.19 753.093 476.361C753.319 475.457 753.696 474.704 754.223 474.101C754.826 473.498 755.541 473.159 756.37 473.084C757.199 473.009 758.103 473.272 759.082 473.875C762.472 476.286 766.088 478.056 769.93 479.186C773.772 480.241 778.104 480.768 782.925 480.768C789.705 480.768 794.715 479.525 797.954 477.039C801.269 474.478 802.926 471.125 802.926 466.982C802.926 463.592 801.721 460.955 799.31 459.072C796.975 457.113 793.02 455.569 787.445 454.439L775.693 452.066C768.612 450.559 763.301 448.111 759.76 444.721C756.295 441.256 754.562 436.66 754.562 430.935C754.562 427.394 755.278 424.193 756.709 421.33C758.14 418.392 760.137 415.906 762.698 413.872C765.259 411.763 768.31 410.143 771.851 409.013C775.392 407.883 779.309 407.318 783.603 407.318C788.349 407.318 792.756 407.996 796.824 409.352C800.967 410.633 804.696 412.591 808.011 415.228C808.84 415.906 809.405 416.697 809.706 417.601C810.007 418.43 810.045 419.258 809.819 420.087C809.593 420.84 809.179 421.481 808.576 422.008C808.049 422.535 807.333 422.837 806.429 422.912C805.6 422.987 804.659 422.686 803.604 422.008C800.591 419.748 797.464 418.128 794.225 417.149C790.986 416.094 787.407 415.567 783.49 415.567C779.497 415.567 776.032 416.17 773.094 417.375C770.231 418.58 767.971 420.351 766.314 422.686C764.732 424.946 763.941 427.583 763.941 430.596C763.941 434.212 765.033 437.075 767.218 439.184C769.478 441.293 773.132 442.838 778.179 443.817L789.931 446.303C797.54 447.885 803.152 450.296 806.768 453.535C810.459 456.699 812.305 461.031 812.305 466.53C812.305 469.845 811.627 472.896 810.271 475.683C808.915 478.47 806.956 480.881 804.395 482.915C801.834 484.874 798.745 486.38 795.129 487.435C791.513 488.49 787.445 489.017 782.925 489.017ZM829.96 488.791C828.453 488.791 827.323 488.377 826.57 487.548C825.816 486.719 825.44 485.552 825.44 484.045V412.177C825.44 410.67 825.816 409.54 826.57 408.787C827.323 407.958 828.453 407.544 829.96 407.544C831.391 407.544 832.521 407.958 833.35 408.787C834.178 409.54 834.593 410.67 834.593 412.177V445.286H833.124C834.706 440.917 837.267 437.64 840.808 435.455C844.424 433.195 848.567 432.065 853.238 432.065C857.607 432.065 861.223 432.856 864.086 434.438C867.024 436.02 869.208 438.431 870.64 441.67C872.071 444.834 872.787 448.864 872.787 453.761V484.045C872.787 485.552 872.372 486.719 871.544 487.548C870.79 488.377 869.698 488.791 868.267 488.791C866.76 488.791 865.592 488.377 864.764 487.548C864.01 486.719 863.634 485.552 863.634 484.045V454.326C863.634 449.203 862.617 445.474 860.583 443.139C858.624 440.728 855.46 439.523 851.091 439.523C846.043 439.523 842.013 441.105 839 444.269C836.062 447.358 834.593 451.501 834.593 456.699V484.045C834.593 487.209 833.048 488.791 829.96 488.791ZM912.49 489.017C907.142 489.017 902.509 487.849 898.591 485.514C894.674 483.179 891.623 479.902 889.438 475.683C887.329 471.389 886.274 466.342 886.274 460.541C886.274 456.172 886.877 452.254 888.082 448.789C889.288 445.248 891.058 442.235 893.393 439.749C895.729 437.263 898.478 435.38 901.642 434.099C904.882 432.743 908.498 432.065 912.49 432.065C917.839 432.065 922.472 433.233 926.389 435.568C930.307 437.903 933.32 441.218 935.429 445.512C937.614 449.731 938.706 454.74 938.706 460.541C938.706 464.91 938.104 468.828 936.898 472.293C935.693 475.758 933.923 478.772 931.587 481.333C929.252 483.819 926.465 485.74 923.225 487.096C920.061 488.377 916.483 489.017 912.49 489.017ZM912.49 481.672C915.88 481.672 918.856 480.843 921.417 479.186C923.979 477.529 925.937 475.118 927.293 471.954C928.725 468.79 929.44 464.986 929.44 460.541C929.44 453.686 927.896 448.45 924.807 444.834C921.794 441.218 917.688 439.41 912.49 439.41C909.025 439.41 906.012 440.239 903.45 441.896C900.964 443.478 899.006 445.851 897.574 449.015C896.218 452.104 895.54 455.946 895.54 460.541C895.54 467.321 897.085 472.557 900.173 476.248C903.262 479.864 907.368 481.672 912.49 481.672ZM970.666 488.791C969.385 488.791 968.255 488.452 967.276 487.774C966.296 487.096 965.505 486.004 964.903 484.497L948.066 438.732C947.614 437.451 947.463 436.321 947.614 435.342C947.84 434.363 948.329 433.609 949.083 433.082C949.836 432.555 950.778 432.291 951.908 432.291C953.038 432.291 953.942 432.555 954.62 433.082C955.373 433.609 955.976 434.589 956.428 436.02L972.248 481.22H969.536L985.808 436.02C986.335 434.664 986.975 433.722 987.729 433.195C988.557 432.592 989.612 432.291 990.893 432.291C992.098 432.291 993.115 432.592 993.944 433.195C994.772 433.798 995.413 434.739 995.865 436.02L1011.8 481.22H1009.2L1025.24 435.794C1025.77 434.438 1026.41 433.534 1027.17 433.082C1027.92 432.555 1028.82 432.291 1029.88 432.291C1031.08 432.291 1031.99 432.592 1032.59 433.195C1033.27 433.798 1033.64 434.589 1033.72 435.568C1033.8 436.547 1033.61 437.602 1033.15 438.732L1016.32 484.497C1015.79 485.928 1015 487.021 1013.94 487.774C1012.97 488.452 1011.84 488.791 1010.55 488.791C1009.27 488.791 1008.14 488.452 1007.16 487.774C1006.19 487.021 1005.43 485.928 1004.9 484.497L988.181 438.619H993.04L976.429 484.497C975.901 485.928 975.148 487.021 974.169 487.774C973.189 488.452 972.022 488.791 970.666 488.791ZM1069.2 489.017C1063.7 489.017 1058.95 487.812 1054.96 485.401C1050.97 482.99 1047.88 479.638 1045.7 475.344C1043.59 470.975 1042.53 465.927 1042.53 460.202C1042.53 455.833 1043.13 451.915 1044.34 448.45C1045.55 444.985 1047.32 442.047 1049.65 439.636C1051.99 437.15 1054.77 435.267 1058.01 433.986C1061.33 432.705 1065.06 432.065 1069.2 432.065C1071.91 432.065 1074.74 432.479 1077.67 433.308C1080.61 434.137 1083.29 435.568 1085.7 437.602C1086.45 438.129 1086.94 438.77 1087.17 439.523C1087.39 440.276 1087.39 441.03 1087.17 441.783C1086.94 442.461 1086.56 443.064 1086.04 443.591C1085.51 444.043 1084.83 444.307 1084 444.382C1083.25 444.457 1082.46 444.194 1081.63 443.591C1079.67 442.084 1077.67 441.03 1075.64 440.427C1073.61 439.824 1071.65 439.523 1069.76 439.523C1066.83 439.523 1064.27 440.013 1062.08 440.992C1059.9 441.896 1058.05 443.214 1056.54 444.947C1055.04 446.68 1053.87 448.827 1053.04 451.388C1052.29 453.949 1051.91 456.925 1051.91 460.315C1051.91 466.869 1053.46 472.067 1056.54 475.909C1059.63 479.676 1064.04 481.559 1069.76 481.559C1071.65 481.559 1073.57 481.258 1075.53 480.655C1077.56 480.052 1079.6 478.998 1081.63 477.491C1082.46 476.888 1083.25 476.625 1084 476.7C1084.76 476.775 1085.4 477.077 1085.92 477.604C1086.45 478.056 1086.79 478.659 1086.94 479.412C1087.17 480.165 1087.17 480.919 1086.94 481.672C1086.71 482.35 1086.23 482.953 1085.47 483.48C1083.06 485.439 1080.42 486.87 1077.56 487.774C1074.7 488.603 1071.91 489.017 1069.2 489.017ZM1115.08 489.017C1111.31 489.017 1107.92 488.301 1104.91 486.87C1101.97 485.363 1099.63 483.329 1097.9 480.768C1096.17 478.207 1095.3 475.344 1095.3 472.18C1095.3 468.112 1096.32 464.91 1098.35 462.575C1100.46 460.24 1103.89 458.582 1108.64 457.603C1113.46 456.624 1120.01 456.134 1128.3 456.134H1133.38V462.123H1128.41C1122.31 462.123 1117.49 462.424 1113.95 463.027C1110.48 463.554 1108.03 464.496 1106.6 465.852C1105.25 467.208 1104.57 469.129 1104.57 471.615C1104.57 474.704 1105.62 477.227 1107.73 479.186C1109.92 481.145 1112.85 482.124 1116.55 482.124C1119.56 482.124 1122.2 481.408 1124.46 479.977C1126.79 478.546 1128.6 476.587 1129.88 474.101C1131.24 471.615 1131.91 468.752 1131.91 465.513V452.631C1131.91 447.96 1130.97 444.608 1129.09 442.574C1127.2 440.465 1124.12 439.41 1119.82 439.41C1117.19 439.41 1114.55 439.749 1111.91 440.427C1109.28 441.105 1106.49 442.197 1103.55 443.704C1102.5 444.231 1101.59 444.42 1100.84 444.269C1100.08 444.043 1099.48 443.629 1099.03 443.026C1098.58 442.423 1098.31 441.745 1098.24 440.992C1098.16 440.163 1098.31 439.372 1098.69 438.619C1099.14 437.866 1099.82 437.263 1100.73 436.811C1104.04 435.154 1107.32 433.948 1110.56 433.195C1113.8 432.442 1116.88 432.065 1119.82 432.065C1124.57 432.065 1128.49 432.856 1131.57 434.438C1134.66 435.945 1136.96 438.28 1138.47 441.444C1139.97 444.533 1140.73 448.525 1140.73 453.422V484.045C1140.73 485.552 1140.35 486.719 1139.6 487.548C1138.92 488.377 1137.9 488.791 1136.55 488.791C1135.11 488.791 1134.02 488.377 1133.27 487.548C1132.52 486.719 1132.14 485.552 1132.14 484.045V475.231H1133.16C1132.55 478.094 1131.39 480.542 1129.65 482.576C1128 484.61 1125.92 486.192 1123.44 487.322C1120.95 488.452 1118.16 489.017 1115.08 489.017ZM1176.24 489.017C1172.85 489.017 1169.42 488.603 1165.96 487.774C1162.57 486.945 1159.4 485.514 1156.47 483.48C1155.71 482.953 1155.18 482.35 1154.88 481.672C1154.58 480.919 1154.47 480.203 1154.54 479.525C1154.69 478.772 1155 478.131 1155.45 477.604C1155.98 477.077 1156.58 476.775 1157.26 476.7C1158.01 476.549 1158.84 476.7 1159.74 477.152C1162.68 478.96 1165.51 480.241 1168.22 480.994C1171 481.672 1173.75 482.011 1176.47 482.011C1180.76 482.011 1184 481.22 1186.18 479.638C1188.37 478.056 1189.46 475.909 1189.46 473.197C1189.46 471.088 1188.75 469.43 1187.31 468.225C1185.88 466.944 1183.62 465.965 1180.53 465.287L1170.25 463.027C1165.51 462.048 1161.96 460.353 1159.63 457.942C1157.37 455.531 1156.24 452.405 1156.24 448.563C1156.24 445.173 1157.11 442.273 1158.84 439.862C1160.65 437.376 1163.17 435.455 1166.41 434.099C1169.65 432.743 1173.42 432.065 1177.71 432.065C1181.02 432.065 1184.15 432.517 1187.09 433.421C1190.1 434.25 1192.81 435.606 1195.22 437.489C1195.98 438.016 1196.47 438.657 1196.69 439.41C1196.99 440.088 1197.03 440.804 1196.81 441.557C1196.66 442.235 1196.32 442.838 1195.79 443.365C1195.26 443.817 1194.62 444.081 1193.87 444.156C1193.11 444.231 1192.32 444.005 1191.5 443.478C1189.24 441.971 1186.94 440.879 1184.6 440.201C1182.27 439.448 1179.97 439.071 1177.71 439.071C1173.49 439.071 1170.29 439.9 1168.1 441.557C1165.92 443.214 1164.83 445.399 1164.83 448.111C1164.83 450.22 1165.51 451.953 1166.86 453.309C1168.22 454.665 1170.33 455.644 1173.19 456.247L1183.47 458.394C1188.37 459.449 1192.02 461.144 1194.43 463.479C1196.92 465.739 1198.16 468.828 1198.16 472.745C1198.16 477.717 1196.17 481.672 1192.17 484.61C1188.18 487.548 1182.87 489.017 1176.24 489.017ZM1236.86 489.017C1231.06 489.017 1226.05 487.887 1221.83 485.627C1217.69 483.292 1214.45 480.015 1212.11 475.796C1209.85 471.577 1208.72 466.53 1208.72 460.654C1208.72 454.929 1209.85 449.957 1212.11 445.738C1214.37 441.444 1217.46 438.092 1221.38 435.681C1225.37 433.27 1229.97 432.065 1235.16 432.065C1238.85 432.065 1242.17 432.705 1245.11 433.986C1248.05 435.191 1250.53 436.962 1252.57 439.297C1254.67 441.632 1256.26 444.457 1257.31 447.772C1258.44 451.087 1259.01 454.816 1259.01 458.959C1259.01 460.164 1258.67 461.068 1257.99 461.671C1257.31 462.198 1256.33 462.462 1255.05 462.462H1215.73V456.473H1252.9L1251.1 457.942C1251.1 453.874 1250.49 450.446 1249.29 447.659C1248.08 444.796 1246.31 442.612 1243.98 441.105C1241.72 439.598 1238.85 438.845 1235.39 438.845C1231.55 438.845 1228.27 439.749 1225.56 441.557C1222.92 443.29 1220.93 445.738 1219.57 448.902C1218.21 451.991 1217.54 455.607 1217.54 459.75V460.428C1217.54 467.359 1219.19 472.632 1222.51 476.248C1225.9 479.864 1230.68 481.672 1236.86 481.672C1239.42 481.672 1241.94 481.333 1244.43 480.655C1246.99 479.977 1249.48 478.847 1251.89 477.265C1252.94 476.587 1253.88 476.286 1254.71 476.361C1255.62 476.361 1256.33 476.625 1256.86 477.152C1257.39 477.604 1257.73 478.207 1257.88 478.96C1258.1 479.638 1258.03 480.391 1257.65 481.22C1257.35 482.049 1256.71 482.764 1255.73 483.367C1253.24 485.175 1250.31 486.569 1246.92 487.548C1243.53 488.527 1240.17 489.017 1236.86 489.017ZM1307.15 488.791C1305.79 488.791 1304.74 488.414 1303.98 487.661C1303.23 486.832 1302.85 485.702 1302.85 484.271V412.064C1302.85 410.557 1303.23 409.427 1303.98 408.674C1304.74 407.921 1305.79 407.544 1307.15 407.544C1308.35 407.544 1309.3 407.808 1309.97 408.335C1310.73 408.787 1311.41 409.578 1312.01 410.708L1342.97 469.016H1339.58L1370.43 410.708C1371.03 409.578 1371.67 408.787 1372.35 408.335C1373.03 407.808 1374.01 407.544 1375.29 407.544C1376.57 407.544 1377.59 407.921 1378.34 408.674C1379.09 409.427 1379.47 410.557 1379.47 412.064V484.271C1379.47 485.702 1379.09 486.832 1378.34 487.661C1377.66 488.414 1376.61 488.791 1375.17 488.791C1373.82 488.791 1372.76 488.414 1372.01 487.661C1371.26 486.832 1370.88 485.702 1370.88 484.271V420.765H1373.59L1345.34 473.762C1344.82 474.741 1344.25 475.457 1343.65 475.909C1343.12 476.286 1342.33 476.474 1341.27 476.474C1340.22 476.474 1339.39 476.248 1338.79 475.796C1338.19 475.344 1337.66 474.666 1337.21 473.762L1308.62 420.652H1311.33V484.271C1311.33 485.702 1310.95 486.832 1310.2 487.661C1309.52 488.414 1308.5 488.791 1307.15 488.791ZM1415.34 489.017C1411.58 489.017 1408.19 488.301 1405.17 486.87C1402.23 485.363 1399.9 483.329 1398.17 480.768C1396.43 478.207 1395.57 475.344 1395.57 472.18C1395.57 468.112 1396.58 464.91 1398.62 462.575C1400.73 460.24 1404.16 458.582 1408.9 457.603C1413.72 456.624 1420.28 456.134 1428.56 456.134H1433.65V462.123H1428.68C1422.57 462.123 1417.75 462.424 1414.21 463.027C1410.75 463.554 1408.3 464.496 1406.87 465.852C1405.51 467.208 1404.83 469.129 1404.83 471.615C1404.83 474.704 1405.89 477.227 1408 479.186C1410.18 481.145 1413.12 482.124 1416.81 482.124C1419.83 482.124 1422.46 481.408 1424.72 479.977C1427.06 478.546 1428.87 476.587 1430.15 474.101C1431.5 471.615 1432.18 468.752 1432.18 465.513V452.631C1432.18 447.96 1431.24 444.608 1429.35 442.574C1427.47 440.465 1424.38 439.41 1420.09 439.41C1417.45 439.41 1414.82 439.749 1412.18 440.427C1409.54 441.105 1406.75 442.197 1403.82 443.704C1402.76 444.231 1401.86 444.42 1401.1 444.269C1400.35 444.043 1399.75 443.629 1399.3 443.026C1398.84 442.423 1398.58 441.745 1398.51 440.992C1398.43 440.163 1398.58 439.372 1398.96 438.619C1399.41 437.866 1400.09 437.263 1400.99 436.811C1404.31 435.154 1407.58 433.948 1410.82 433.195C1414.06 432.442 1417.15 432.065 1420.09 432.065C1424.83 432.065 1428.75 432.856 1431.84 434.438C1434.93 435.945 1437.23 438.28 1438.73 441.444C1440.24 444.533 1440.99 448.525 1440.99 453.422V484.045C1440.99 485.552 1440.62 486.719 1439.86 487.548C1439.19 488.377 1438.17 488.791 1436.81 488.791C1435.38 488.791 1434.29 488.377 1433.54 487.548C1432.78 486.719 1432.41 485.552 1432.41 484.045V475.231H1433.42C1432.82 478.094 1431.65 480.542 1429.92 482.576C1428.26 484.61 1426.19 486.192 1423.7 487.322C1421.22 488.452 1418.43 489.017 1415.34 489.017ZM1462.49 509.131C1460.99 509.131 1459.86 508.717 1459.1 507.888C1458.35 507.135 1457.97 506.005 1457.97 504.498V436.924C1457.97 435.417 1458.35 434.287 1459.1 433.534C1459.86 432.705 1460.95 432.291 1462.38 432.291C1463.89 432.291 1465.02 432.705 1465.77 433.534C1466.6 434.287 1467.01 435.417 1467.01 436.924V447.659L1465.77 446.077C1466.98 441.783 1469.35 438.393 1472.89 435.907C1476.51 433.346 1480.8 432.065 1485.77 432.065C1490.67 432.065 1494.93 433.233 1498.54 435.568C1502.23 437.828 1505.06 441.105 1507.02 445.399C1509.05 449.618 1510.07 454.665 1510.07 460.541C1510.07 466.342 1509.05 471.389 1507.02 475.683C1505.06 479.902 1502.27 483.179 1498.65 485.514C1495.04 487.849 1490.74 489.017 1485.77 489.017C1480.8 489.017 1476.54 487.774 1473 485.288C1469.46 482.727 1467.05 479.337 1465.77 475.118H1467.13V504.498C1467.13 506.005 1466.71 507.135 1465.88 507.888C1465.06 508.717 1463.93 509.131 1462.49 509.131ZM1483.85 481.672C1487.32 481.672 1490.29 480.843 1492.78 479.186C1495.34 477.529 1497.3 475.118 1498.65 471.954C1500.09 468.79 1500.8 464.986 1500.8 460.541C1500.8 453.686 1499.26 448.45 1496.17 444.834C1493.16 441.218 1489.05 439.41 1483.85 439.41C1480.46 439.41 1477.49 440.239 1474.92 441.896C1472.36 443.478 1470.37 445.851 1468.94 449.015C1467.58 452.104 1466.9 455.946 1466.9 460.541C1466.9 467.321 1468.45 472.557 1471.53 476.248C1474.62 479.864 1478.73 481.672 1483.85 481.672ZM1542.39 489.017C1539 489.017 1535.57 488.603 1532.1 487.774C1528.71 486.945 1525.55 485.514 1522.61 483.48C1521.86 482.953 1521.33 482.35 1521.03 481.672C1520.73 480.919 1520.62 480.203 1520.69 479.525C1520.84 478.772 1521.14 478.131 1521.59 477.604C1522.12 477.077 1522.72 476.775 1523.4 476.7C1524.16 476.549 1524.98 476.7 1525.89 477.152C1528.83 478.96 1531.65 480.241 1534.36 480.994C1537.15 481.672 1539.9 482.011 1542.61 482.011C1546.91 482.011 1550.15 481.22 1552.33 479.638C1554.52 478.056 1555.61 475.909 1555.61 473.197C1555.61 471.088 1554.89 469.43 1553.46 468.225C1552.03 466.944 1549.77 465.965 1546.68 465.287L1536.4 463.027C1531.65 462.048 1528.11 460.353 1525.78 457.942C1523.52 455.531 1522.39 452.405 1522.39 448.563C1522.39 445.173 1523.25 442.273 1524.98 439.862C1526.79 437.376 1529.32 435.455 1532.56 434.099C1535.79 432.743 1539.56 432.065 1543.86 432.065C1547.17 432.065 1550.3 432.517 1553.23 433.421C1556.25 434.25 1558.96 435.606 1561.37 437.489C1562.12 438.016 1562.61 438.657 1562.84 439.41C1563.14 440.088 1563.18 440.804 1562.95 441.557C1562.8 442.235 1562.46 442.838 1561.94 443.365C1561.41 443.817 1560.77 444.081 1560.01 444.156C1559.26 444.231 1558.47 444.005 1557.64 443.478C1555.38 441.971 1553.08 440.879 1550.75 440.201C1548.41 439.448 1546.12 439.071 1543.86 439.071C1539.64 439.071 1536.44 439.9 1534.25 441.557C1532.07 443.214 1530.97 445.399 1530.97 448.111C1530.97 450.22 1531.65 451.953 1533.01 453.309C1534.36 454.665 1536.47 455.644 1539.34 456.247L1549.62 458.394C1554.52 459.449 1558.17 461.144 1560.58 463.479C1563.07 465.739 1564.31 468.828 1564.31 472.745C1564.31 477.717 1562.31 481.672 1558.32 484.61C1554.33 487.548 1549.02 489.017 1542.39 489.017Z" fill="white"/>
</g>
<defs>
<filter id="filter0_d_624_157" x="610" y="344" width="1098" height="222" filterUnits="userSpaceOnUse" color-interpolation-filters="sRGB">
<feFlood flood-opacity="0" result="BackgroundImageFix"/>
<feColorMatrix in="SourceAlpha" type="matrix" values="0 0 0 0 0 0 0 0 0 0 0 0 0 0 0 0 0 0 127 0" result="hardAlpha"/>
<feOffset dy="4"/>
<feGaussianBlur stdDeviation="2"/>
<feComposite in2="hardAlpha" operator="out"/>
<feColorMatrix type="matrix" values="0 0 0 0 0 0 0 0 0 0 0 0 0 0 0 0 0 0 0.25 0"/>
<feBlend mode="normal" in2="BackgroundImageFix" result="effect1_dropShadow_624_157"/>
<feBlend mode="normal" in="SourceGraphic" in2="effect1_dropShadow_624_157" result="shape"/>
</filter>
<filter id="filter1_d_624_157" x="752.867" y="407.318" width="815.741" height="110.113" filterUnits="userSpaceOnUse" color-interpolation-filters="sRGB">
<feFlood flood-opacity="0" result="BackgroundImageFix"/>
<feColorMatrix in="SourceAlpha" type="matrix" values="0 0 0 0 0 0 0 0 0 0 0 0 0 0 0 0 0 0 127 0" result="hardAlpha"/>
<feOffset dx="4" dy="8"/>
<feGaussianBlur stdDeviation="0.15"/>
<feComposite in2="hardAlpha" operator="out"/>
<feColorMatrix type="matrix" values="0 0 0 0 0 0 0 0 0 0 0 0 0 0 0 0 0 0 1 0"/>
<feBlend mode="normal" in2="BackgroundImageFix" result="effect1_dropShadow_624_157"/>
<feBlend mode="normal" in="SourceGraphic" in2="effect1_dropShadow_624_157" result="shape"/>
</filter>
</defs>
</svg>
