<svg width="2862" height="1478" viewBox="0 0 2862 1478" fill="none" xmlns="http://www.w3.org/2000/svg">
<rect x="0.460938" width="2861.25" height="1477.5" rx="112.5" fill="#171717"/>
<path d="M113.984 173.443C108.359 173.443 103.344 172.477 98.9411 170.545C94.5661 168.614 91.0859 165.929 88.5007 162.491C85.9439 159.026 84.5518 155.006 84.3246 150.432H95.0632C95.2905 153.244 96.2564 155.673 97.9609 157.719C99.6655 159.736 101.896 161.298 104.651 162.406C107.407 163.514 110.461 164.068 113.813 164.068C117.563 164.068 120.887 163.415 123.785 162.108C126.683 160.801 128.955 158.983 130.603 156.653C132.251 154.324 133.075 151.625 133.075 148.557C133.075 145.347 132.279 142.52 130.688 140.077C129.097 137.605 126.768 135.673 123.7 134.281C120.631 132.889 116.881 132.193 112.45 132.193H105.461V122.818H112.45C115.915 122.818 118.955 122.193 121.569 120.943C124.211 119.693 126.271 117.932 127.748 115.659C129.254 113.386 130.006 110.716 130.006 107.648C130.006 104.693 129.353 102.122 128.046 99.9347C126.739 97.7472 124.893 96.0426 122.506 94.821C120.148 93.5994 117.364 92.9886 114.154 92.9886C111.143 92.9886 108.302 93.5426 105.631 94.6506C102.989 95.7301 100.83 97.3068 99.1541 99.3807C97.478 101.426 96.5689 103.898 96.4268 106.795H86.1996C86.37 102.222 87.7479 98.2159 90.3331 94.7784C92.9183 91.3125 96.299 88.6136 100.475 86.6818C104.68 84.75 109.296 83.7841 114.325 83.7841C119.722 83.7841 124.353 84.8778 128.217 87.0653C132.08 89.2244 135.049 92.0795 137.123 95.6307C139.197 99.1818 140.234 103.017 140.234 107.136C140.234 112.051 138.941 116.241 136.356 119.707C133.799 123.173 130.319 125.574 125.915 126.909V127.591C131.427 128.5 135.731 130.844 138.827 134.622C141.924 138.372 143.472 143.017 143.472 148.557C143.472 153.301 142.18 157.562 139.594 161.341C137.038 165.091 133.543 168.045 129.112 170.205C124.68 172.364 119.637 173.443 113.984 173.443ZM165.706 172.932C163.604 172.932 161.8 172.179 160.294 170.673C158.788 169.168 158.036 167.364 158.036 165.261C158.036 163.159 158.788 161.355 160.294 159.849C161.8 158.344 163.604 157.591 165.706 157.591C167.808 157.591 169.612 158.344 171.118 159.849C172.624 161.355 173.376 163.159 173.376 165.261C173.376 166.653 173.021 167.932 172.311 169.097C171.629 170.261 170.706 171.199 169.541 171.909C168.405 172.591 167.126 172.932 165.706 172.932Z" fill="white"/>
<path d="M673.45 1040.56V1034.7H714.359V1040.56H697.207V1089.25H690.602V1040.56H673.45ZM729.987 1064.64V1089.25H723.701V1034.7H729.987V1054.73H730.519C731.478 1052.62 732.916 1050.94 734.834 1049.7C736.769 1048.44 739.344 1047.81 742.558 1047.81C745.345 1047.81 747.787 1048.37 749.882 1049.49C751.977 1050.59 753.602 1052.28 754.756 1054.57C755.928 1056.85 756.514 1059.74 756.514 1063.26V1089.25H750.228V1063.68C750.228 1060.43 749.385 1057.92 747.698 1056.14C746.029 1054.35 743.712 1053.45 740.747 1053.45C738.687 1053.45 736.84 1053.89 735.207 1054.76C733.591 1055.63 732.313 1056.9 731.372 1058.57C730.448 1060.24 729.987 1062.26 729.987 1064.64ZM768.013 1089.25V1048.34H774.298V1089.25H768.013ZM771.209 1041.52C769.983 1041.52 768.927 1041.11 768.039 1040.27C767.169 1039.44 766.734 1038.43 766.734 1037.26C766.734 1036.09 767.169 1035.09 768.039 1034.25C768.927 1033.42 769.983 1033 771.209 1033C772.434 1033 773.481 1033.42 774.351 1034.25C775.239 1035.09 775.683 1036.09 775.683 1037.26C775.683 1038.43 775.239 1039.44 774.351 1040.27C773.481 1041.11 772.434 1041.52 771.209 1041.52ZM814.788 1057.5L809.141 1059.1C808.786 1058.16 808.263 1057.25 807.57 1056.36C806.895 1055.45 805.972 1054.71 804.8 1054.12C803.628 1053.53 802.128 1053.24 800.299 1053.24C797.796 1053.24 795.709 1053.82 794.04 1054.97C792.389 1056.11 791.563 1057.56 791.563 1059.31C791.563 1060.88 792.131 1062.11 793.268 1063.02C794.404 1063.92 796.18 1064.68 798.595 1065.28L804.667 1066.77C808.325 1067.66 811.05 1069.02 812.843 1070.85C814.637 1072.66 815.533 1074.99 815.533 1077.85C815.533 1080.19 814.859 1082.29 813.509 1084.14C812.178 1085.98 810.313 1087.44 807.916 1088.5C805.519 1089.57 802.732 1090.1 799.553 1090.1C795.381 1090.1 791.927 1089.2 789.193 1087.39C786.459 1085.57 784.727 1082.93 783.999 1079.45L789.965 1077.96C790.533 1080.16 791.608 1081.81 793.188 1082.91C794.786 1084.01 796.872 1084.56 799.447 1084.56C802.377 1084.56 804.703 1083.94 806.425 1082.7C808.165 1081.44 809.035 1079.93 809.035 1078.17C809.035 1076.75 808.538 1075.56 807.543 1074.6C806.549 1073.62 805.022 1072.9 802.962 1072.42L796.144 1070.82C792.398 1069.93 789.646 1068.56 787.888 1066.69C786.148 1064.81 785.278 1062.46 785.278 1059.63C785.278 1057.33 785.926 1055.28 787.222 1053.51C788.536 1051.73 790.32 1050.34 792.575 1049.33C794.848 1048.31 797.423 1047.81 800.299 1047.81C804.347 1047.81 807.526 1048.7 809.834 1050.47C812.16 1052.25 813.811 1054.59 814.788 1057.5ZM846.089 1089.25V1048.34H852.374V1089.25H846.089ZM849.285 1041.52C848.06 1041.52 847.003 1041.11 846.115 1040.27C845.245 1039.44 844.81 1038.43 844.81 1037.26C844.81 1036.09 845.245 1035.09 846.115 1034.25C847.003 1033.42 848.06 1033 849.285 1033C850.51 1033 851.558 1033.42 852.428 1034.25C853.315 1035.09 853.759 1036.09 853.759 1037.26C853.759 1038.43 853.315 1039.44 852.428 1040.27C851.558 1041.11 850.51 1041.52 849.285 1041.52ZM892.864 1057.5L887.218 1059.1C886.862 1058.16 886.339 1057.25 885.646 1056.36C884.972 1055.45 884.048 1054.71 882.876 1054.12C881.704 1053.53 880.204 1053.24 878.375 1053.24C875.872 1053.24 873.785 1053.82 872.116 1054.97C870.465 1056.11 869.639 1057.56 869.639 1059.31C869.639 1060.88 870.208 1062.11 871.344 1063.02C872.48 1063.92 874.256 1064.68 876.671 1065.28L882.743 1066.77C886.401 1067.66 889.126 1069.02 890.92 1070.85C892.713 1072.66 893.61 1074.99 893.61 1077.85C893.61 1080.19 892.935 1082.29 891.585 1084.14C890.254 1085.98 888.389 1087.44 885.992 1088.5C883.595 1089.57 880.808 1090.1 877.63 1090.1C873.457 1090.1 870.003 1089.2 867.269 1087.39C864.535 1085.57 862.804 1082.93 862.076 1079.45L868.041 1077.96C868.61 1080.16 869.684 1081.81 871.264 1082.91C872.862 1084.01 874.948 1084.56 877.523 1084.56C880.453 1084.56 882.779 1083.94 884.501 1082.7C886.241 1081.44 887.111 1079.93 887.111 1078.17C887.111 1076.75 886.614 1075.56 885.62 1074.6C884.625 1073.62 883.098 1072.9 881.039 1072.42L874.22 1070.82C870.474 1069.93 867.722 1068.56 865.964 1066.69C864.224 1064.81 863.354 1062.46 863.354 1059.63C863.354 1057.33 864.002 1055.28 865.298 1053.51C866.612 1051.73 868.397 1050.34 870.652 1049.33C872.924 1048.31 875.499 1047.81 878.375 1047.81C882.424 1047.81 885.602 1048.7 887.91 1050.47C890.236 1052.25 891.887 1054.59 892.864 1057.5ZM941.956 1048.34V1053.67H920.756V1048.34H941.956ZM926.935 1038.54H933.22V1077.53C933.22 1079.31 933.478 1080.64 933.993 1081.53C934.525 1082.4 935.2 1082.98 936.017 1083.28C936.851 1083.57 937.73 1083.71 938.654 1083.71C939.346 1083.71 939.914 1083.67 940.358 1083.6C940.802 1083.51 941.157 1083.44 941.423 1083.39L942.702 1089.04C942.276 1089.2 941.681 1089.36 940.917 1089.52C940.154 1089.69 939.186 1089.78 938.014 1089.78C936.239 1089.78 934.499 1089.4 932.794 1088.64C931.107 1087.87 929.705 1086.71 928.586 1085.15C927.485 1083.59 926.935 1081.62 926.935 1079.24V1038.54ZM958.575 1064.64V1089.25H952.29V1034.7H958.575V1054.73H959.108C960.067 1052.62 961.505 1050.94 963.423 1049.7C965.358 1048.44 967.933 1047.81 971.146 1047.81C973.934 1047.81 976.376 1048.37 978.471 1049.49C980.566 1050.59 982.191 1052.28 983.345 1054.57C984.517 1056.85 985.102 1059.74 985.102 1063.26V1089.25H978.817V1063.68C978.817 1060.43 977.974 1057.92 976.287 1056.14C974.618 1054.35 972.301 1053.45 969.335 1053.45C967.276 1053.45 965.429 1053.89 963.796 1054.76C962.18 1055.63 960.901 1056.9 959.96 1058.57C959.037 1060.24 958.575 1062.26 958.575 1064.64ZM1013.75 1090.1C1009.81 1090.1 1006.41 1089.23 1003.55 1087.49C1000.71 1085.73 998.519 1083.28 996.974 1080.14C995.447 1076.98 994.684 1073.31 994.684 1069.12C994.684 1064.92 995.447 1061.23 996.974 1058.04C998.519 1054.82 1000.67 1052.32 1003.42 1050.52C1006.19 1048.71 1009.42 1047.81 1013.11 1047.81C1015.24 1047.81 1017.35 1048.16 1019.43 1048.87C1021.5 1049.58 1023.39 1050.74 1025.1 1052.34C1026.8 1053.92 1028.16 1056.01 1029.17 1058.62C1030.19 1061.23 1030.69 1064.45 1030.69 1068.26V1070.93H999.158V1065.49H1024.3C1024.3 1063.18 1023.84 1061.12 1022.92 1059.31C1022.01 1057.5 1020.71 1056.07 1019.03 1055.03C1017.36 1053.98 1015.39 1053.45 1013.11 1053.45C1010.61 1053.45 1008.44 1054.08 1006.62 1055.32C1004.8 1056.54 1003.41 1058.14 1002.43 1060.11C1001.46 1062.08 1000.97 1064.2 1000.97 1066.45V1070.07C1000.97 1073.16 1001.5 1075.78 1002.57 1077.93C1003.65 1080.06 1005.15 1081.69 1007.07 1082.8C1008.99 1083.91 1011.21 1084.46 1013.75 1084.46C1015.4 1084.46 1016.9 1084.23 1018.23 1083.76C1019.58 1083.28 1020.74 1082.57 1021.72 1081.63C1022.69 1080.67 1023.45 1079.48 1023.98 1078.06L1030.05 1079.77C1029.41 1081.83 1028.34 1083.64 1026.83 1085.2C1025.32 1086.75 1023.46 1087.95 1021.24 1088.82C1019.02 1089.68 1016.52 1090.1 1013.75 1090.1ZM1090.32 1057.5L1084.68 1059.1C1084.32 1058.16 1083.8 1057.25 1083.11 1056.36C1082.43 1055.45 1081.51 1054.71 1080.34 1054.12C1079.17 1053.53 1077.67 1053.24 1075.84 1053.24C1073.33 1053.24 1071.25 1053.82 1069.58 1054.97C1067.93 1056.11 1067.1 1057.56 1067.1 1059.31C1067.1 1060.88 1067.67 1062.11 1068.8 1063.02C1069.94 1063.92 1071.72 1064.68 1074.13 1065.28L1080.2 1066.77C1083.86 1067.66 1086.59 1069.02 1088.38 1070.85C1090.17 1072.66 1091.07 1074.99 1091.07 1077.85C1091.07 1080.19 1090.4 1082.29 1089.05 1084.14C1087.71 1085.98 1085.85 1087.44 1083.45 1088.5C1081.06 1089.57 1078.27 1090.1 1075.09 1090.1C1070.92 1090.1 1067.46 1089.2 1064.73 1087.39C1062 1085.57 1060.26 1082.93 1059.54 1079.45L1065.5 1077.96C1066.07 1080.16 1067.14 1081.81 1068.73 1082.91C1070.32 1084.01 1072.41 1084.56 1074.98 1084.56C1077.91 1084.56 1080.24 1083.94 1081.96 1082.7C1083.7 1081.44 1084.57 1079.93 1084.57 1078.17C1084.57 1076.75 1084.07 1075.56 1083.08 1074.6C1082.09 1073.62 1080.56 1072.9 1078.5 1072.42L1071.68 1070.82C1067.93 1069.93 1065.18 1068.56 1063.42 1066.69C1061.68 1064.81 1060.81 1062.46 1060.81 1059.63C1060.81 1057.33 1061.46 1055.28 1062.76 1053.51C1064.07 1051.73 1065.86 1050.34 1068.11 1049.33C1070.39 1048.31 1072.96 1047.81 1075.84 1047.81C1079.88 1047.81 1083.06 1048.7 1085.37 1050.47C1087.7 1052.25 1089.35 1054.59 1090.32 1057.5ZM1118.32 1048.34V1053.67H1097.12V1048.34H1118.32ZM1103.3 1038.54H1109.59V1077.53C1109.59 1079.31 1109.84 1080.64 1110.36 1081.53C1110.89 1082.4 1111.57 1082.98 1112.38 1083.28C1113.22 1083.57 1114.1 1083.71 1115.02 1083.71C1115.71 1083.71 1116.28 1083.67 1116.73 1083.6C1117.17 1083.51 1117.52 1083.44 1117.79 1083.39L1119.07 1089.04C1118.64 1089.2 1118.05 1089.36 1117.28 1089.52C1116.52 1089.69 1115.55 1089.78 1114.38 1089.78C1112.61 1089.78 1110.87 1089.4 1109.16 1088.64C1107.47 1087.87 1106.07 1086.71 1104.95 1085.15C1103.85 1083.59 1103.3 1081.62 1103.3 1079.24V1038.54ZM1127.78 1089.25V1048.34H1133.85V1054.52H1134.28C1135.02 1052.5 1136.37 1050.85 1138.33 1049.59C1140.28 1048.33 1142.48 1047.7 1144.93 1047.7C1145.39 1047.7 1145.97 1047.71 1146.66 1047.73C1147.35 1047.75 1147.88 1047.77 1148.23 1047.81V1054.2C1148.02 1054.15 1147.53 1054.07 1146.77 1053.96C1146.02 1053.84 1145.23 1053.77 1144.4 1053.77C1142.41 1053.77 1140.63 1054.19 1139.07 1055.03C1137.53 1055.84 1136.3 1056.98 1135.4 1058.44C1134.51 1059.87 1134.06 1061.52 1134.06 1063.36V1089.25H1127.78ZM1171.59 1090.1C1167.65 1090.1 1164.25 1089.23 1161.39 1087.49C1158.55 1085.73 1156.36 1083.28 1154.81 1080.14C1153.28 1076.98 1152.52 1073.31 1152.52 1069.12C1152.52 1064.92 1153.28 1061.23 1154.81 1058.04C1156.36 1054.82 1158.5 1052.32 1161.26 1050.52C1164.03 1048.71 1167.26 1047.81 1170.95 1047.81C1173.08 1047.81 1175.19 1048.16 1177.26 1048.87C1179.34 1049.58 1181.23 1050.74 1182.94 1052.34C1184.64 1053.92 1186 1056.01 1187.01 1058.62C1188.02 1061.23 1188.53 1064.45 1188.53 1068.26V1070.93H1157V1065.49H1182.14C1182.14 1063.18 1181.68 1061.12 1180.75 1059.31C1179.85 1057.5 1178.55 1056.07 1176.86 1055.03C1175.19 1053.98 1173.22 1053.45 1170.95 1053.45C1168.45 1053.45 1166.28 1054.08 1164.45 1055.32C1162.64 1056.54 1161.25 1058.14 1160.27 1060.11C1159.29 1062.08 1158.81 1064.2 1158.81 1066.45V1070.07C1158.81 1073.16 1159.34 1075.78 1160.4 1077.93C1161.49 1080.06 1162.99 1081.69 1164.91 1082.8C1166.82 1083.91 1169.05 1084.46 1171.59 1084.46C1173.24 1084.46 1174.73 1084.23 1176.06 1083.76C1177.41 1083.28 1178.58 1082.57 1179.55 1081.63C1180.53 1080.67 1181.28 1079.48 1181.82 1078.06L1187.89 1079.77C1187.25 1081.83 1186.18 1083.64 1184.67 1085.2C1183.16 1086.75 1181.29 1087.95 1179.07 1088.82C1176.85 1089.68 1174.36 1090.1 1171.59 1090.1ZM1204.38 1064.64V1089.25H1198.09V1048.34H1204.16V1054.73H1204.7C1205.65 1052.66 1207.11 1050.99 1209.06 1049.73C1211.02 1048.45 1213.54 1047.81 1216.63 1047.81C1219.4 1047.81 1221.82 1048.38 1223.9 1049.51C1225.98 1050.63 1227.59 1052.34 1228.75 1054.63C1229.9 1056.9 1230.48 1059.78 1230.48 1063.26V1089.25H1224.19V1063.68C1224.19 1060.47 1223.36 1057.96 1221.69 1056.17C1220.02 1054.36 1217.73 1053.45 1214.82 1053.45C1212.81 1053.45 1211.02 1053.89 1209.44 1054.76C1207.87 1055.63 1206.64 1056.9 1205.73 1058.57C1204.83 1060.24 1204.38 1062.26 1204.38 1064.64ZM1258.48 1105.44C1255.44 1105.44 1252.83 1105.05 1250.65 1104.27C1248.46 1103.51 1246.64 1102.5 1245.19 1101.24C1243.75 1099.99 1242.6 1098.66 1241.75 1097.24L1246.76 1093.72C1247.33 1094.47 1248.04 1095.32 1248.91 1096.28C1249.78 1097.26 1250.97 1098.1 1252.48 1098.81C1254.01 1099.54 1256.01 1099.9 1258.48 1099.9C1261.78 1099.9 1264.5 1099.1 1266.65 1097.51C1268.8 1095.91 1269.87 1093.4 1269.87 1090V1081.69H1269.34C1268.88 1082.43 1268.22 1083.36 1267.37 1084.46C1266.54 1085.54 1265.33 1086.51 1263.75 1087.36C1262.19 1088.19 1260.07 1088.61 1257.41 1088.61C1254.11 1088.61 1251.14 1087.83 1248.51 1086.27C1245.9 1084.7 1243.84 1082.43 1242.31 1079.45C1240.8 1076.47 1240.05 1072.84 1240.05 1068.58C1240.05 1064.39 1240.78 1060.74 1242.26 1057.64C1243.73 1054.51 1245.78 1052.1 1248.41 1050.39C1251.04 1048.67 1254.07 1047.81 1257.52 1047.81C1260.18 1047.81 1262.29 1048.25 1263.86 1049.14C1265.44 1050.01 1266.64 1051 1267.48 1052.12C1268.33 1053.22 1268.99 1054.13 1269.45 1054.84H1270.09V1048.34H1276.16V1090.42C1276.16 1093.94 1275.36 1096.8 1273.76 1099C1272.18 1101.22 1270.05 1102.84 1267.37 1103.87C1264.71 1104.92 1261.74 1105.44 1258.48 1105.44ZM1258.26 1082.96C1260.78 1082.96 1262.91 1082.39 1264.65 1081.23C1266.39 1080.08 1267.72 1078.42 1268.62 1076.25C1269.53 1074.09 1269.98 1071.49 1269.98 1068.48C1269.98 1065.53 1269.54 1062.93 1268.65 1060.67C1267.76 1058.42 1266.45 1056.65 1264.71 1055.37C1262.97 1054.09 1260.82 1053.45 1258.26 1053.45C1255.6 1053.45 1253.38 1054.13 1251.6 1055.48C1249.85 1056.83 1248.52 1058.64 1247.64 1060.91C1246.77 1063.18 1246.33 1065.71 1246.33 1068.48C1246.33 1071.32 1246.77 1073.83 1247.66 1076.01C1248.57 1078.18 1249.9 1079.88 1251.66 1081.13C1253.43 1082.35 1255.63 1082.96 1258.26 1082.96ZM1305.46 1048.34V1053.67H1284.26V1048.34H1305.46ZM1290.44 1038.54H1296.72V1077.53C1296.72 1079.31 1296.98 1080.64 1297.49 1081.53C1298.03 1082.4 1298.7 1082.98 1299.52 1083.28C1300.35 1083.57 1301.23 1083.71 1302.15 1083.71C1302.85 1083.71 1303.42 1083.67 1303.86 1083.6C1304.3 1083.51 1304.66 1083.44 1304.92 1083.39L1306.2 1089.04C1305.78 1089.2 1305.18 1089.36 1304.42 1089.52C1303.65 1089.69 1302.69 1089.78 1301.52 1089.78C1299.74 1089.78 1298 1089.4 1296.3 1088.64C1294.61 1087.87 1293.21 1086.71 1292.09 1085.15C1290.99 1083.59 1290.44 1081.62 1290.44 1079.24V1038.54ZM1322.08 1064.64V1089.25H1315.79V1034.7H1322.08V1054.73H1322.61C1323.57 1052.62 1325.01 1050.94 1326.92 1049.7C1328.86 1048.44 1331.43 1047.81 1334.65 1047.81C1337.44 1047.81 1339.88 1048.37 1341.97 1049.49C1344.07 1050.59 1345.69 1052.28 1346.85 1054.57C1348.02 1056.85 1348.6 1059.74 1348.6 1063.26V1089.25H1342.32V1063.68C1342.32 1060.43 1341.47 1057.92 1339.79 1056.14C1338.12 1054.35 1335.8 1053.45 1332.84 1053.45C1330.78 1053.45 1328.93 1053.89 1327.3 1054.76C1325.68 1055.63 1324.4 1056.9 1323.46 1058.57C1322.54 1060.24 1322.08 1062.26 1322.08 1064.64ZM1397.82 1090.1C1394.12 1090.1 1390.88 1089.22 1388.09 1087.47C1385.32 1085.71 1383.16 1083.25 1381.6 1080.09C1380.05 1076.93 1379.28 1073.23 1379.28 1069.01C1379.28 1064.75 1380.05 1061.03 1381.6 1057.85C1383.16 1054.67 1385.32 1052.2 1388.09 1050.44C1390.88 1048.69 1394.12 1047.81 1397.82 1047.81C1401.51 1047.81 1404.74 1048.69 1407.51 1050.44C1410.3 1052.2 1412.46 1054.67 1414.01 1057.85C1415.57 1061.03 1416.35 1064.75 1416.35 1069.01C1416.35 1073.23 1415.57 1076.93 1414.01 1080.09C1412.46 1083.25 1410.3 1085.71 1407.51 1087.47C1404.74 1089.22 1401.51 1090.1 1397.82 1090.1ZM1397.82 1084.46C1400.62 1084.46 1402.93 1083.74 1404.74 1082.3C1406.55 1080.86 1407.89 1078.97 1408.76 1076.63C1409.63 1074.28 1410.07 1071.74 1410.07 1069.01C1410.07 1066.27 1409.63 1063.73 1408.76 1061.36C1407.89 1059 1406.55 1057.09 1404.74 1055.64C1402.93 1054.18 1400.62 1053.45 1397.82 1053.45C1395.01 1053.45 1392.7 1054.18 1390.89 1055.64C1389.08 1057.09 1387.74 1059 1386.87 1061.36C1386 1063.73 1385.56 1066.27 1385.56 1069.01C1385.56 1071.74 1386 1074.28 1386.87 1076.63C1387.74 1078.97 1389.08 1080.86 1390.89 1082.3C1392.7 1083.74 1395.01 1084.46 1397.82 1084.46ZM1444.16 1048.34V1053.67H1422.11V1048.34H1444.16ZM1428.72 1089.25V1042.69C1428.72 1040.35 1429.27 1038.4 1430.37 1036.84C1431.47 1035.27 1432.9 1034.1 1434.66 1033.32C1436.41 1032.54 1438.27 1032.15 1440.22 1032.15C1441.77 1032.15 1443.03 1032.27 1444 1032.52C1444.98 1032.77 1445.71 1033 1446.19 1033.21L1444.38 1038.65C1444.06 1038.54 1443.61 1038.41 1443.05 1038.25C1442.5 1038.09 1441.77 1038.01 1440.86 1038.01C1438.78 1038.01 1437.28 1038.53 1436.36 1039.58C1435.46 1040.63 1435 1042.16 1435 1044.19V1089.25H1428.72ZM1491.22 1090.1C1487.28 1090.1 1483.88 1089.23 1481.02 1087.49C1478.18 1085.73 1475.98 1083.28 1474.44 1080.14C1472.91 1076.98 1472.15 1073.31 1472.15 1069.12C1472.15 1064.92 1472.91 1061.23 1474.44 1058.04C1475.98 1054.82 1478.13 1052.32 1480.89 1050.52C1483.66 1048.71 1486.89 1047.81 1490.58 1047.81C1492.71 1047.81 1494.81 1048.16 1496.89 1048.87C1498.97 1049.58 1500.86 1050.74 1502.57 1052.34C1504.27 1053.92 1505.63 1056.01 1506.64 1058.62C1507.65 1061.23 1508.16 1064.45 1508.16 1068.26V1070.93H1476.62V1065.49H1501.77C1501.77 1063.18 1501.3 1061.12 1500.38 1059.31C1499.48 1057.5 1498.18 1056.07 1496.49 1055.03C1494.82 1053.98 1492.85 1053.45 1490.58 1053.45C1488.08 1053.45 1485.91 1054.08 1484.08 1055.32C1482.27 1056.54 1480.88 1058.14 1479.9 1060.11C1478.92 1062.08 1478.44 1064.2 1478.44 1066.45V1070.07C1478.44 1073.16 1478.97 1075.78 1480.03 1077.93C1481.12 1080.06 1482.62 1081.69 1484.53 1082.8C1486.45 1083.91 1488.68 1084.46 1491.22 1084.46C1492.87 1084.46 1494.36 1084.23 1495.69 1083.76C1497.04 1083.28 1498.21 1082.57 1499.18 1081.63C1500.16 1080.67 1500.91 1079.48 1501.45 1078.06L1507.52 1079.77C1506.88 1081.83 1505.81 1083.64 1504.3 1085.2C1502.79 1086.75 1500.92 1087.95 1498.7 1088.82C1496.48 1089.68 1493.99 1090.1 1491.22 1090.1ZM1529.76 1090.21C1527.17 1090.21 1524.81 1089.72 1522.7 1088.74C1520.59 1087.75 1518.91 1086.32 1517.67 1084.46C1516.42 1082.57 1515.8 1080.3 1515.8 1077.64C1515.8 1075.29 1516.26 1073.39 1517.19 1071.94C1518.11 1070.46 1519.34 1069.31 1520.89 1068.48C1522.43 1067.64 1524.14 1067.02 1526 1066.61C1527.88 1066.19 1529.78 1065.85 1531.68 1065.6C1534.16 1065.28 1536.18 1065.04 1537.72 1064.88C1539.28 1064.7 1540.42 1064.41 1541.13 1064C1541.86 1063.59 1542.22 1062.88 1542.22 1061.87V1061.66C1542.22 1059.03 1541.5 1056.99 1540.07 1055.53C1538.64 1054.08 1536.49 1053.35 1533.59 1053.35C1530.59 1053.35 1528.24 1054 1526.54 1055.32C1524.83 1056.63 1523.63 1058.04 1522.94 1059.53L1516.97 1057.4C1518.04 1054.91 1519.46 1052.98 1521.24 1051.59C1523.03 1050.19 1524.98 1049.21 1527.09 1048.66C1529.23 1048.09 1531.32 1047.81 1533.38 1047.81C1534.69 1047.81 1536.2 1047.97 1537.91 1048.29C1539.63 1048.59 1541.29 1049.22 1542.89 1050.18C1544.5 1051.14 1545.84 1052.58 1546.91 1054.52C1547.98 1056.46 1548.51 1059.05 1548.51 1062.3V1089.25H1542.22V1083.71H1541.9C1541.48 1084.6 1540.77 1085.55 1539.77 1086.56C1538.78 1087.57 1537.46 1088.43 1535.8 1089.14C1534.15 1089.85 1532.14 1090.21 1529.76 1090.21ZM1530.72 1084.56C1533.2 1084.56 1535.3 1084.07 1537 1083.1C1538.72 1082.12 1540.02 1080.86 1540.89 1079.32C1541.78 1077.77 1542.22 1076.15 1542.22 1074.44V1068.69C1541.96 1069.01 1541.37 1069.3 1540.46 1069.57C1539.58 1069.82 1538.55 1070.04 1537.38 1070.23C1536.22 1070.41 1535.09 1070.57 1533.99 1070.71C1532.91 1070.84 1532.03 1070.94 1531.36 1071.03C1529.72 1071.25 1528.2 1071.59 1526.78 1072.07C1525.37 1072.53 1524.24 1073.23 1523.37 1074.18C1522.51 1075.1 1522.09 1076.36 1522.09 1077.96C1522.09 1080.14 1522.9 1081.79 1524.51 1082.91C1526.14 1084.01 1528.21 1084.56 1530.72 1084.56ZM1576.6 1090.1C1572.76 1090.1 1569.46 1089.2 1566.69 1087.39C1563.92 1085.57 1561.79 1083.08 1560.3 1079.9C1558.81 1076.72 1558.06 1073.09 1558.06 1069.01C1558.06 1064.85 1558.83 1061.19 1560.35 1058.01C1561.9 1054.81 1564.05 1052.32 1566.8 1050.52C1569.57 1048.71 1572.8 1047.81 1576.49 1047.81C1579.37 1047.81 1581.96 1048.34 1584.27 1049.41C1586.58 1050.47 1588.47 1051.96 1589.94 1053.88C1591.42 1055.8 1592.33 1058.04 1592.69 1060.59H1586.4C1585.92 1058.73 1584.86 1057.08 1583.2 1055.64C1581.57 1054.18 1579.37 1053.45 1576.6 1053.45C1574.15 1053.45 1572 1054.09 1570.15 1055.37C1568.33 1056.63 1566.9 1058.42 1565.87 1060.73C1564.85 1063.02 1564.35 1065.71 1564.35 1068.8C1564.35 1071.96 1564.85 1074.71 1565.84 1077.05C1566.85 1079.4 1568.27 1081.22 1570.1 1082.51C1571.95 1083.81 1574.11 1084.46 1576.6 1084.46C1578.23 1084.46 1579.72 1084.17 1581.05 1083.6C1582.38 1083.04 1583.51 1082.22 1584.43 1081.15C1585.35 1080.09 1586.01 1078.81 1586.4 1077.32H1592.69C1592.33 1079.73 1591.45 1081.91 1590.05 1083.84C1588.66 1085.76 1586.83 1087.29 1584.54 1088.42C1582.26 1089.54 1579.62 1090.1 1576.6 1090.1ZM1608.16 1064.64V1089.25H1601.87V1034.7H1608.16V1054.73H1608.69C1609.65 1052.62 1611.09 1050.94 1613.01 1049.7C1614.94 1048.44 1617.52 1047.81 1620.73 1047.81C1623.52 1047.81 1625.96 1048.37 1628.06 1049.49C1630.15 1050.59 1631.78 1052.28 1632.93 1054.57C1634.1 1056.85 1634.69 1059.74 1634.69 1063.26V1089.25H1628.4V1063.68C1628.4 1060.43 1627.56 1057.92 1625.87 1056.14C1624.2 1054.35 1621.89 1053.45 1618.92 1053.45C1616.86 1053.45 1615.01 1053.89 1613.38 1054.76C1611.76 1055.63 1610.49 1056.9 1609.55 1058.57C1608.62 1060.24 1608.16 1062.26 1608.16 1064.64ZM1682.73 1090.1C1679.32 1090.1 1676.31 1089.24 1673.7 1087.52C1671.09 1085.78 1669.05 1083.33 1667.57 1080.17C1666.1 1076.99 1665.36 1073.23 1665.36 1068.9C1665.36 1064.61 1666.1 1060.88 1667.57 1057.72C1669.05 1054.56 1671.1 1052.11 1673.73 1050.39C1676.35 1048.67 1679.39 1047.81 1682.83 1047.81C1685.5 1047.81 1687.6 1048.25 1689.15 1049.14C1690.71 1050.01 1691.9 1051 1692.72 1052.12C1693.55 1053.22 1694.2 1054.13 1694.66 1054.84H1695.19V1034.7H1701.48V1089.25H1695.41V1082.96H1694.66C1694.2 1083.71 1693.54 1084.65 1692.69 1085.79C1691.84 1086.91 1690.62 1087.91 1689.04 1088.8C1687.46 1089.67 1685.36 1090.1 1682.73 1090.1ZM1683.58 1084.46C1686.1 1084.46 1688.23 1083.8 1689.97 1082.49C1691.71 1081.15 1693.03 1079.32 1693.94 1076.97C1694.85 1074.61 1695.3 1071.88 1695.3 1068.8C1695.3 1065.74 1694.85 1063.07 1693.97 1060.78C1693.08 1058.47 1691.77 1056.68 1690.03 1055.4C1688.29 1054.1 1686.14 1053.45 1683.58 1053.45C1680.92 1053.45 1678.7 1054.14 1676.92 1055.51C1675.16 1056.85 1673.84 1058.69 1672.95 1061.02C1672.08 1063.33 1671.65 1065.92 1671.65 1068.8C1671.65 1071.71 1672.09 1074.35 1672.98 1076.73C1673.89 1079.09 1675.22 1080.98 1676.97 1082.38C1678.75 1083.76 1680.95 1084.46 1683.58 1084.46ZM1713.86 1089.25V1048.34H1720.15V1089.25H1713.86ZM1717.06 1041.52C1715.83 1041.52 1714.78 1041.11 1713.89 1040.27C1713.02 1039.44 1712.58 1038.43 1712.58 1037.26C1712.58 1036.09 1713.02 1035.09 1713.89 1034.25C1714.78 1033.42 1715.83 1033 1717.06 1033C1718.28 1033 1719.33 1033.42 1720.2 1034.25C1721.09 1035.09 1721.53 1036.09 1721.53 1037.26C1721.53 1038.43 1721.09 1039.44 1720.2 1040.27C1719.33 1041.11 1718.28 1041.52 1717.06 1041.52ZM1731.66 1089.25V1048.34H1737.73V1054.52H1738.16C1738.9 1052.5 1740.25 1050.85 1742.21 1049.59C1744.16 1048.33 1746.36 1047.7 1748.81 1047.7C1749.27 1047.7 1749.85 1047.71 1750.54 1047.73C1751.24 1047.75 1751.76 1047.77 1752.11 1047.81V1054.2C1751.9 1054.15 1751.41 1054.07 1750.65 1053.96C1749.9 1053.84 1749.11 1053.77 1748.28 1053.77C1746.29 1053.77 1744.52 1054.19 1742.95 1055.03C1741.41 1055.84 1740.18 1056.98 1739.28 1058.44C1738.39 1059.87 1737.95 1061.52 1737.95 1063.36V1089.25H1731.66ZM1775.47 1090.1C1771.53 1090.1 1768.13 1089.23 1765.27 1087.49C1762.43 1085.73 1760.24 1083.28 1758.69 1080.14C1757.17 1076.98 1756.4 1073.31 1756.4 1069.12C1756.4 1064.92 1757.17 1061.23 1758.69 1058.04C1760.24 1054.82 1762.39 1052.32 1765.14 1050.52C1767.91 1048.71 1771.14 1047.81 1774.83 1047.81C1776.96 1047.81 1779.07 1048.16 1781.15 1048.87C1783.22 1049.58 1785.11 1050.74 1786.82 1052.34C1788.52 1053.92 1789.88 1056.01 1790.89 1058.62C1791.91 1061.23 1792.41 1064.45 1792.41 1068.26V1070.93H1760.88V1065.49H1786.02C1786.02 1063.18 1785.56 1061.12 1784.63 1059.31C1783.73 1057.5 1782.43 1056.07 1780.75 1055.03C1779.08 1053.98 1777.11 1053.45 1774.83 1053.45C1772.33 1053.45 1770.16 1054.08 1768.33 1055.32C1766.52 1056.54 1765.13 1058.14 1764.15 1060.11C1763.18 1062.08 1762.69 1064.2 1762.69 1066.45V1070.07C1762.69 1073.16 1763.22 1075.78 1764.29 1077.93C1765.37 1080.06 1766.87 1081.69 1768.79 1082.8C1770.7 1083.91 1772.93 1084.46 1775.47 1084.46C1777.12 1084.46 1778.61 1084.23 1779.95 1083.76C1781.3 1083.28 1782.46 1082.57 1783.44 1081.63C1784.41 1080.67 1785.17 1079.48 1785.7 1078.06L1791.77 1079.77C1791.13 1081.83 1790.06 1083.64 1788.55 1085.2C1787.04 1086.75 1785.18 1087.95 1782.96 1088.82C1780.74 1089.68 1778.24 1090.1 1775.47 1090.1ZM1818.59 1090.1C1814.76 1090.1 1811.45 1089.2 1808.68 1087.39C1805.91 1085.57 1803.78 1083.08 1802.29 1079.9C1800.8 1076.72 1800.05 1073.09 1800.05 1069.01C1800.05 1064.85 1800.82 1061.19 1802.35 1058.01C1803.89 1054.81 1806.04 1052.32 1808.79 1050.52C1811.56 1048.71 1814.79 1047.81 1818.49 1047.81C1821.36 1047.81 1823.95 1048.34 1826.26 1049.41C1828.57 1050.47 1830.46 1051.96 1831.94 1053.88C1833.41 1055.8 1834.32 1058.04 1834.68 1060.59H1828.39C1827.91 1058.73 1826.85 1057.08 1825.2 1055.64C1823.56 1054.18 1821.36 1053.45 1818.59 1053.45C1816.14 1053.45 1813.99 1054.09 1812.15 1055.37C1810.32 1056.63 1808.89 1058.42 1807.86 1060.73C1806.85 1063.02 1806.34 1065.71 1806.34 1068.8C1806.34 1071.96 1806.84 1074.71 1807.83 1077.05C1808.84 1079.4 1810.26 1081.22 1812.09 1082.51C1813.94 1083.81 1816.11 1084.46 1818.59 1084.46C1820.23 1084.46 1821.71 1084.17 1823.04 1083.6C1824.37 1083.04 1825.5 1082.22 1826.42 1081.15C1827.35 1080.09 1828 1078.81 1828.39 1077.32H1834.68C1834.32 1079.73 1833.44 1081.91 1832.04 1083.84C1830.66 1085.76 1828.82 1087.29 1826.53 1088.42C1824.26 1089.54 1821.61 1090.1 1818.59 1090.1ZM1861.66 1048.34V1053.67H1840.46V1048.34H1861.66ZM1846.64 1038.54H1852.92V1077.53C1852.92 1079.31 1853.18 1080.64 1853.69 1081.53C1854.23 1082.4 1854.9 1082.98 1855.72 1083.28C1856.55 1083.57 1857.43 1083.71 1858.36 1083.71C1859.05 1083.71 1859.62 1083.67 1860.06 1083.6C1860.5 1083.51 1860.86 1083.44 1861.13 1083.39L1862.4 1089.04C1861.98 1089.2 1861.38 1089.36 1860.62 1089.52C1859.86 1089.69 1858.89 1089.78 1857.72 1089.78C1855.94 1089.78 1854.2 1089.4 1852.5 1088.64C1850.81 1087.87 1849.41 1086.71 1848.29 1085.15C1847.19 1083.59 1846.64 1081.62 1846.64 1079.24V1038.54ZM1871.11 1089.25V1048.34H1877.4V1089.25H1871.11ZM1874.31 1041.52C1873.08 1041.52 1872.03 1041.11 1871.14 1040.27C1870.27 1039.44 1869.83 1038.43 1869.83 1037.26C1869.83 1036.09 1870.27 1035.09 1871.14 1034.25C1872.03 1033.42 1873.08 1033 1874.31 1033C1875.53 1033 1876.58 1033.42 1877.45 1034.25C1878.34 1035.09 1878.78 1036.09 1878.78 1037.26C1878.78 1038.43 1878.34 1039.44 1877.45 1040.27C1876.58 1041.11 1875.53 1041.52 1874.31 1041.52ZM1905.53 1090.1C1901.84 1090.1 1898.6 1089.22 1895.81 1087.47C1893.04 1085.71 1890.87 1083.25 1889.31 1080.09C1887.77 1076.93 1886.99 1073.23 1886.99 1069.01C1886.99 1064.75 1887.77 1061.03 1889.31 1057.85C1890.87 1054.67 1893.04 1052.2 1895.81 1050.44C1898.6 1048.69 1901.84 1047.81 1905.53 1047.81C1909.22 1047.81 1912.46 1048.69 1915.22 1050.44C1918.01 1052.2 1920.18 1054.67 1921.72 1057.85C1923.29 1061.03 1924.07 1064.75 1924.07 1069.01C1924.07 1073.23 1923.29 1076.93 1921.72 1080.09C1920.18 1083.25 1918.01 1085.71 1915.22 1087.47C1912.46 1089.22 1909.22 1090.1 1905.53 1090.1ZM1905.53 1084.46C1908.34 1084.46 1910.64 1083.74 1912.46 1082.3C1914.27 1080.86 1915.61 1078.97 1916.48 1076.63C1917.35 1074.28 1917.78 1071.74 1917.78 1069.01C1917.78 1066.27 1917.35 1063.73 1916.48 1061.36C1915.61 1059 1914.27 1057.09 1912.46 1055.64C1910.64 1054.18 1908.34 1053.45 1905.53 1053.45C1902.72 1053.45 1900.42 1054.18 1898.61 1055.64C1896.79 1057.09 1895.45 1059 1894.58 1061.36C1893.71 1063.73 1893.28 1066.27 1893.28 1069.01C1893.28 1071.74 1893.71 1074.28 1894.58 1076.63C1895.45 1078.97 1896.79 1080.86 1898.61 1082.3C1900.42 1083.74 1902.72 1084.46 1905.53 1084.46ZM1939.95 1064.64V1089.25H1933.66V1048.34H1939.73V1054.73H1940.27C1941.23 1052.66 1942.68 1050.99 1944.64 1049.73C1946.59 1048.45 1949.11 1047.81 1952.2 1047.81C1954.97 1047.81 1957.39 1048.38 1959.47 1049.51C1961.55 1050.63 1963.16 1052.34 1964.32 1054.63C1965.47 1056.9 1966.05 1059.78 1966.05 1063.26V1089.25H1959.76V1063.68C1959.76 1060.47 1958.93 1057.96 1957.26 1056.17C1955.59 1054.36 1953.3 1053.45 1950.39 1053.45C1948.38 1053.45 1946.59 1053.89 1945.01 1054.76C1943.45 1055.63 1942.21 1056.9 1941.31 1058.57C1940.4 1060.24 1939.95 1062.26 1939.95 1064.64ZM2000.87 1061.98C2000.87 1055.27 2001.74 1049.1 2003.48 1043.47C2005.23 1037.82 2007.74 1032.63 2010.99 1027.89H2016.53C2015.25 1029.64 2014.05 1031.81 2012.93 1034.38C2011.83 1036.94 2010.86 1039.76 2010.03 1042.83C2009.19 1045.88 2008.54 1049.04 2008.06 1052.31C2007.59 1055.58 2007.36 1058.8 2007.36 1061.98C2007.36 1066.2 2007.77 1070.49 2008.59 1074.84C2009.41 1079.19 2010.51 1083.23 2011.89 1086.96C2013.28 1090.69 2014.82 1093.72 2016.53 1096.07H2010.99C2007.74 1091.33 2005.23 1086.14 2003.48 1080.51C2001.74 1074.87 2000.87 1068.69 2000.87 1061.98ZM2029.85 1034.7L2043.91 1057.4H2044.34L2058.4 1034.7H2066.18L2049.03 1061.98L2066.18 1089.25H2058.4L2044.34 1066.98H2043.91L2029.85 1089.25H2022.07L2039.65 1061.98L2022.07 1034.7H2029.85ZM2070.09 1034.7H2077.65L2092.78 1060.17H2093.42L2108.54 1034.7H2116.11L2096.4 1066.77V1089.25H2089.79V1066.77L2070.09 1034.7ZM2122.84 1089.25V1084.46L2152.24 1040.56H2122.52V1034.7H2160.13V1039.5L2130.72 1083.39H2160.45V1089.25H2122.84ZM2184.1 1061.98C2184.1 1068.69 2183.22 1074.87 2181.46 1080.51C2179.72 1086.14 2177.23 1091.33 2173.98 1096.07H2168.44C2169.71 1094.31 2170.9 1092.14 2172.01 1089.57C2173.12 1087.01 2174.1 1084.21 2174.94 1081.15C2175.77 1078.08 2176.42 1074.91 2176.88 1071.65C2177.36 1068.36 2177.6 1065.14 2177.6 1061.98C2177.6 1057.75 2177.19 1053.46 2176.37 1049.11C2175.56 1044.76 2174.46 1040.72 2173.07 1037C2171.69 1033.27 2170.14 1030.23 2168.44 1027.89H2173.98C2177.23 1032.63 2179.72 1037.82 2181.46 1043.47C2183.22 1049.1 2184.1 1055.27 2184.1 1061.98ZM885.466 1180.25V1125.7H918.385V1131.56H892.072V1149.99H916.681V1155.85H892.072V1174.39H918.812V1180.25H885.466ZM941.477 1181.21C938.884 1181.21 936.532 1180.72 934.419 1179.74C932.306 1178.75 930.628 1177.32 929.385 1175.46C928.142 1173.57 927.521 1171.3 927.521 1168.64C927.521 1166.29 927.982 1164.39 928.906 1162.94C929.829 1161.46 931.063 1160.31 932.608 1159.48C934.153 1158.64 935.857 1158.02 937.721 1157.61C939.604 1157.19 941.494 1156.85 943.394 1156.6C945.88 1156.28 947.895 1156.04 949.44 1155.88C951.003 1155.7 952.139 1155.41 952.849 1155C953.577 1154.59 953.941 1153.88 953.941 1152.87V1152.66C953.941 1150.03 953.222 1147.99 951.784 1146.53C950.363 1145.08 948.206 1144.35 945.312 1144.35C942.311 1144.35 939.959 1145 938.254 1146.32C936.55 1147.63 935.351 1149.04 934.659 1150.53L928.693 1148.4C929.758 1145.91 931.178 1143.98 932.954 1142.59C934.747 1141.19 936.7 1140.21 938.813 1139.66C940.944 1139.09 943.039 1138.81 945.099 1138.81C946.413 1138.81 947.922 1138.97 949.627 1139.29C951.349 1139.59 953.009 1140.22 954.607 1141.18C956.223 1142.14 957.563 1143.58 958.629 1145.52C959.694 1147.46 960.227 1150.05 960.227 1153.3V1180.25H953.941V1174.71H953.622C953.195 1175.6 952.485 1176.55 951.491 1177.56C950.497 1178.57 949.174 1179.43 947.523 1180.14C945.871 1180.85 943.856 1181.21 941.477 1181.21ZM942.436 1175.56C944.921 1175.56 947.017 1175.07 948.721 1174.1C950.443 1173.12 951.74 1171.86 952.61 1170.32C953.497 1168.77 953.941 1167.15 953.941 1165.44V1159.69C953.675 1160.01 953.089 1160.3 952.183 1160.57C951.296 1160.82 950.266 1161.04 949.094 1161.23C947.94 1161.41 946.812 1161.57 945.711 1161.71C944.628 1161.84 943.749 1161.94 943.075 1162.03C941.441 1162.25 939.914 1162.59 938.494 1163.07C937.091 1163.53 935.955 1164.23 935.085 1165.18C934.232 1166.1 933.806 1167.36 933.806 1168.96C933.806 1171.14 934.614 1172.79 936.23 1173.91C937.863 1175.01 939.932 1175.56 942.436 1175.56ZM988.318 1181.1C984.483 1181.1 981.181 1180.2 978.411 1178.39C975.641 1176.57 973.51 1174.08 972.019 1170.9C970.527 1167.72 969.782 1164.09 969.782 1160.01C969.782 1155.85 970.545 1152.19 972.072 1149.01C973.617 1145.81 975.765 1143.32 978.517 1141.52C981.287 1139.71 984.519 1138.81 988.212 1138.81C991.088 1138.81 993.681 1139.34 995.989 1140.41C998.297 1141.47 1000.19 1142.96 1001.66 1144.88C1003.14 1146.8 1004.05 1149.04 1004.41 1151.59H998.12C997.64 1149.73 996.575 1148.08 994.924 1146.64C993.29 1145.18 991.088 1144.45 988.318 1144.45C985.868 1144.45 983.72 1145.09 981.873 1146.37C980.044 1147.63 978.615 1149.42 977.585 1151.73C976.573 1154.02 976.067 1156.71 976.067 1159.8C976.067 1162.96 976.564 1165.71 977.559 1168.05C978.571 1170.4 979.991 1172.22 981.82 1173.51C983.666 1174.81 985.833 1175.46 988.318 1175.46C989.952 1175.46 991.435 1175.17 992.766 1174.6C994.098 1174.04 995.225 1173.22 996.149 1172.15C997.072 1171.09 997.729 1169.81 998.12 1168.32H1004.41C1004.05 1170.73 1003.17 1172.91 1001.77 1174.84C1000.38 1176.76 998.546 1178.29 996.255 1179.42C993.983 1180.54 991.337 1181.1 988.318 1181.1ZM1019.88 1155.64V1180.25H1013.59V1125.7H1019.88V1145.73H1020.41C1021.37 1143.62 1022.81 1141.94 1024.73 1140.7C1026.66 1139.44 1029.24 1138.81 1032.45 1138.81C1035.24 1138.81 1037.68 1139.37 1039.77 1140.49C1041.87 1141.59 1043.49 1143.28 1044.65 1145.57C1045.82 1147.85 1046.41 1150.74 1046.41 1154.26V1180.25H1040.12V1154.68C1040.12 1151.43 1039.28 1148.92 1037.59 1147.14C1035.92 1145.35 1033.6 1144.45 1030.64 1144.45C1028.58 1144.45 1026.73 1144.89 1025.1 1145.76C1023.48 1146.63 1022.21 1147.9 1021.26 1149.57C1020.34 1151.24 1019.88 1153.26 1019.88 1155.64ZM1095.62 1181.1C1091.93 1181.1 1088.68 1180.22 1085.9 1178.47C1083.13 1176.71 1080.96 1174.25 1079.4 1171.09C1077.85 1167.93 1077.08 1164.23 1077.08 1160.01C1077.08 1155.75 1077.85 1152.03 1079.4 1148.85C1080.96 1145.67 1083.13 1143.2 1085.9 1141.44C1088.68 1139.69 1091.93 1138.81 1095.62 1138.81C1099.31 1138.81 1102.54 1139.69 1105.31 1141.44C1108.1 1143.2 1110.27 1145.67 1111.81 1148.85C1113.37 1152.03 1114.16 1155.75 1114.16 1160.01C1114.16 1164.23 1113.37 1167.93 1111.81 1171.09C1110.27 1174.25 1108.1 1176.71 1105.31 1178.47C1102.54 1180.22 1099.31 1181.1 1095.62 1181.1ZM1095.62 1175.46C1098.42 1175.46 1100.73 1174.74 1102.54 1173.3C1104.35 1171.86 1105.69 1169.97 1106.56 1167.63C1107.43 1165.28 1107.87 1162.74 1107.87 1160.01C1107.87 1157.27 1107.43 1154.73 1106.56 1152.36C1105.69 1150 1104.35 1148.09 1102.54 1146.64C1100.73 1145.18 1098.42 1144.45 1095.62 1144.45C1092.81 1144.45 1090.5 1145.18 1088.69 1146.64C1086.88 1148.09 1085.54 1150 1084.67 1152.36C1083.8 1154.73 1083.37 1157.27 1083.37 1160.01C1083.37 1162.74 1083.8 1165.28 1084.67 1167.63C1085.54 1169.97 1086.88 1171.86 1088.69 1173.3C1090.5 1174.74 1092.81 1175.46 1095.62 1175.46ZM1141.97 1139.34V1144.67H1119.91V1139.34H1141.97ZM1126.52 1180.25V1133.69C1126.52 1131.35 1127.07 1129.4 1128.17 1127.84C1129.27 1126.27 1130.7 1125.1 1132.46 1124.32C1134.22 1123.54 1136.07 1123.15 1138.03 1123.15C1139.57 1123.15 1140.83 1123.27 1141.81 1123.52C1142.78 1123.77 1143.51 1124 1143.99 1124.21L1142.18 1129.65C1141.86 1129.54 1141.42 1129.41 1140.85 1129.25C1140.3 1129.09 1139.57 1129.01 1138.66 1129.01C1136.59 1129.01 1135.09 1129.53 1134.16 1130.58C1133.26 1131.63 1132.81 1133.16 1132.81 1135.19V1180.25H1126.52ZM1189.66 1139.34V1144.67H1168.46V1139.34H1189.66ZM1174.64 1129.54H1180.93V1168.53C1180.93 1170.31 1181.18 1171.64 1181.7 1172.53C1182.23 1173.4 1182.91 1173.98 1183.72 1174.28C1184.56 1174.57 1185.44 1174.71 1186.36 1174.71C1187.05 1174.71 1187.62 1174.67 1188.06 1174.6C1188.51 1174.51 1188.86 1174.44 1189.13 1174.39L1190.41 1180.04C1189.98 1180.2 1189.39 1180.36 1188.62 1180.52C1187.86 1180.69 1186.89 1180.78 1185.72 1180.78C1183.94 1180.78 1182.2 1180.4 1180.5 1179.64C1178.81 1178.87 1177.41 1177.71 1176.29 1176.15C1175.19 1174.59 1174.64 1172.62 1174.64 1170.24V1129.54ZM1206.28 1155.64V1180.25H1200V1125.7H1206.28V1145.73H1206.81C1207.77 1143.62 1209.21 1141.94 1211.13 1140.7C1213.06 1139.44 1215.64 1138.81 1218.85 1138.81C1221.64 1138.81 1224.08 1139.37 1226.18 1140.49C1228.27 1141.59 1229.9 1143.28 1231.05 1145.57C1232.22 1147.85 1232.81 1150.74 1232.81 1154.26V1180.25H1226.52V1154.68C1226.52 1151.43 1225.68 1148.92 1223.99 1147.14C1222.32 1145.35 1220.01 1144.45 1217.04 1144.45C1214.98 1144.45 1213.13 1144.89 1211.5 1145.76C1209.88 1146.63 1208.61 1147.9 1207.67 1149.57C1206.74 1151.24 1206.28 1153.26 1206.28 1155.64ZM1261.46 1181.1C1257.52 1181.1 1254.12 1180.23 1251.26 1178.49C1248.42 1176.73 1246.22 1174.28 1244.68 1171.14C1243.15 1167.98 1242.39 1164.31 1242.39 1160.12C1242.39 1155.92 1243.15 1152.23 1244.68 1149.04C1246.22 1145.82 1248.37 1143.32 1251.12 1141.52C1253.89 1139.71 1257.13 1138.81 1260.82 1138.81C1262.95 1138.81 1265.05 1139.16 1267.13 1139.87C1269.21 1140.58 1271.1 1141.74 1272.8 1143.34C1274.51 1144.92 1275.87 1147.01 1276.88 1149.62C1277.89 1152.23 1278.4 1155.45 1278.4 1159.26V1161.93H1246.86V1156.49H1272.01C1272.01 1154.18 1271.54 1152.12 1270.62 1150.31C1269.71 1148.5 1268.42 1147.07 1266.73 1146.03C1265.06 1144.98 1263.09 1144.45 1260.82 1144.45C1258.32 1144.45 1256.15 1145.08 1254.32 1146.32C1252.51 1147.54 1251.12 1149.14 1250.14 1151.11C1249.16 1153.08 1248.67 1155.2 1248.67 1157.45V1161.07C1248.67 1164.16 1249.21 1166.78 1250.27 1168.93C1251.36 1171.06 1252.86 1172.69 1254.77 1173.8C1256.69 1174.91 1258.92 1175.46 1261.46 1175.46C1263.11 1175.46 1264.6 1175.23 1265.93 1174.76C1267.28 1174.28 1268.45 1173.57 1269.42 1172.63C1270.4 1171.67 1271.15 1170.48 1271.69 1169.06L1277.76 1170.77C1277.12 1172.83 1276.04 1174.64 1274.54 1176.2C1273.03 1177.75 1271.16 1178.95 1268.94 1179.82C1266.72 1180.68 1264.23 1181.1 1261.46 1181.1ZM1287.96 1180.25V1139.34H1294.03V1145.73H1294.56C1295.42 1143.55 1296.79 1141.85 1298.69 1140.65C1300.59 1139.42 1302.87 1138.81 1305.54 1138.81C1308.24 1138.81 1310.48 1139.42 1312.28 1140.65C1314.09 1141.85 1315.5 1143.55 1316.51 1145.73H1316.94C1317.98 1143.62 1319.56 1141.94 1321.65 1140.7C1323.75 1139.44 1326.26 1138.81 1329.19 1138.81C1332.85 1138.81 1335.84 1139.95 1338.16 1142.24C1340.49 1144.52 1341.65 1148.06 1341.65 1152.87V1180.25H1335.37V1152.87C1335.37 1149.85 1334.54 1147.69 1332.89 1146.4C1331.24 1145.1 1329.29 1144.45 1327.06 1144.45C1324.18 1144.45 1321.95 1145.32 1320.37 1147.06C1318.79 1148.79 1318 1150.97 1318 1153.62V1180.25H1311.61V1152.23C1311.61 1149.91 1310.85 1148.03 1309.35 1146.61C1307.84 1145.17 1305.89 1144.45 1303.51 1144.45C1301.88 1144.45 1300.35 1144.89 1298.93 1145.76C1297.53 1146.63 1296.39 1147.84 1295.52 1149.38C1294.67 1150.91 1294.24 1152.68 1294.24 1154.68V1180.25H1287.96ZM1390.75 1196.44C1387.71 1196.44 1385.1 1196.05 1382.92 1195.27C1380.74 1194.51 1378.92 1193.5 1377.46 1192.24C1376.02 1190.99 1374.88 1189.66 1374.03 1188.24L1379.03 1184.72C1379.6 1185.47 1380.32 1186.32 1381.19 1187.28C1382.06 1188.26 1383.25 1189.1 1384.76 1189.81C1386.29 1190.54 1388.28 1190.9 1390.75 1190.9C1394.05 1190.9 1396.78 1190.1 1398.93 1188.51C1401.08 1186.91 1402.15 1184.4 1402.15 1181V1172.69H1401.62C1401.16 1173.43 1400.5 1174.36 1399.65 1175.46C1398.81 1176.54 1397.6 1177.51 1396.02 1178.36C1394.46 1179.19 1392.35 1179.61 1389.69 1179.61C1386.38 1179.61 1383.42 1178.83 1380.79 1177.27C1378.18 1175.7 1376.11 1173.43 1374.58 1170.45C1373.08 1167.47 1372.32 1163.84 1372.32 1159.58C1372.32 1155.39 1373.06 1151.74 1374.53 1148.64C1376 1145.51 1378.06 1143.1 1380.68 1141.39C1383.31 1139.67 1386.35 1138.81 1389.79 1138.81C1392.46 1138.81 1394.57 1139.25 1396.13 1140.14C1397.71 1141.01 1398.92 1142 1399.75 1143.12C1400.61 1144.22 1401.26 1145.13 1401.72 1145.84H1402.36V1139.34H1408.44V1181.42C1408.44 1184.94 1407.64 1187.8 1406.04 1190C1404.46 1192.22 1402.33 1193.84 1399.65 1194.87C1396.98 1195.92 1394.02 1196.44 1390.75 1196.44ZM1390.54 1173.96C1393.06 1173.96 1395.19 1173.39 1396.93 1172.23C1398.67 1171.08 1399.99 1169.42 1400.9 1167.25C1401.8 1165.09 1402.26 1162.49 1402.26 1159.48C1402.26 1156.53 1401.81 1153.93 1400.92 1151.67C1400.04 1149.42 1398.72 1147.65 1396.98 1146.37C1395.24 1145.09 1393.09 1144.45 1390.54 1144.45C1387.87 1144.45 1385.66 1145.13 1383.88 1146.48C1382.12 1147.83 1380.8 1149.64 1379.91 1151.91C1379.04 1154.18 1378.61 1156.71 1378.61 1159.48C1378.61 1162.32 1379.05 1164.83 1379.94 1167.01C1380.84 1169.18 1382.17 1170.88 1383.93 1172.13C1385.71 1173.35 1387.91 1173.96 1390.54 1173.96ZM1436.56 1181.1C1432.87 1181.1 1429.63 1180.22 1426.84 1178.47C1424.07 1176.71 1421.9 1174.25 1420.34 1171.09C1418.8 1167.93 1418.02 1164.23 1418.02 1160.01C1418.02 1155.75 1418.8 1152.03 1420.34 1148.85C1421.9 1145.67 1424.07 1143.2 1426.84 1141.44C1429.63 1139.69 1432.87 1138.81 1436.56 1138.81C1440.25 1138.81 1443.49 1139.69 1446.26 1141.44C1449.04 1143.2 1451.21 1145.67 1452.75 1148.85C1454.32 1152.03 1455.1 1155.75 1455.1 1160.01C1455.1 1164.23 1454.32 1167.93 1452.75 1171.09C1451.21 1174.25 1449.04 1176.71 1446.26 1178.47C1443.49 1180.22 1440.25 1181.1 1436.56 1181.1ZM1436.56 1175.46C1439.37 1175.46 1441.67 1174.74 1443.49 1173.3C1445.3 1171.86 1446.64 1169.97 1447.51 1167.63C1448.38 1165.28 1448.81 1162.74 1448.81 1160.01C1448.81 1157.27 1448.38 1154.73 1447.51 1152.36C1446.64 1150 1445.3 1148.09 1443.49 1146.64C1441.67 1145.18 1439.37 1144.45 1436.56 1144.45C1433.76 1144.45 1431.45 1145.18 1429.64 1146.64C1427.82 1148.09 1426.48 1150 1425.61 1152.36C1424.74 1154.73 1424.31 1157.27 1424.31 1160.01C1424.31 1162.74 1424.74 1165.28 1425.61 1167.63C1426.48 1169.97 1427.82 1171.86 1429.64 1173.3C1431.45 1174.74 1433.76 1175.46 1436.56 1175.46ZM1504 1139.34V1144.67H1481.95V1139.34H1504ZM1488.56 1180.25V1133.69C1488.56 1131.35 1489.11 1129.4 1490.21 1127.84C1491.31 1126.27 1492.74 1125.1 1494.5 1124.32C1496.25 1123.54 1498.11 1123.15 1500.06 1123.15C1501.61 1123.15 1502.87 1123.27 1503.84 1123.52C1504.82 1123.77 1505.55 1124 1506.03 1124.21L1504.22 1129.65C1503.9 1129.54 1503.45 1129.41 1502.88 1129.25C1502.33 1129.09 1501.61 1129.01 1500.7 1129.01C1498.62 1129.01 1497.12 1129.53 1496.2 1130.58C1495.29 1131.63 1494.84 1133.16 1494.84 1135.19V1180.25H1488.56ZM1512.81 1180.25V1139.34H1518.88V1145.52H1519.31C1520.06 1143.5 1521.41 1141.85 1523.36 1140.59C1525.31 1139.33 1527.51 1138.7 1529.96 1138.7C1530.43 1138.7 1531 1138.71 1531.7 1138.73C1532.39 1138.75 1532.91 1138.77 1533.27 1138.81V1145.2C1533.05 1145.15 1532.57 1145.07 1531.8 1144.96C1531.06 1144.84 1530.27 1144.77 1529.43 1144.77C1527.44 1144.77 1525.67 1145.19 1524.11 1146.03C1522.56 1146.84 1521.34 1147.98 1520.43 1149.44C1519.54 1150.87 1519.1 1152.52 1519.1 1154.36V1180.25H1512.81ZM1556.09 1181.1C1552.4 1181.1 1549.16 1180.22 1546.37 1178.47C1543.6 1176.71 1541.43 1174.25 1539.87 1171.09C1538.33 1167.93 1537.55 1164.23 1537.55 1160.01C1537.55 1155.75 1538.33 1152.03 1539.87 1148.85C1541.43 1145.67 1543.6 1143.2 1546.37 1141.44C1549.16 1139.69 1552.4 1138.81 1556.09 1138.81C1559.79 1138.81 1563.02 1139.69 1565.79 1141.44C1568.57 1143.2 1570.74 1145.67 1572.29 1148.85C1573.85 1152.03 1574.63 1155.75 1574.63 1160.01C1574.63 1164.23 1573.85 1167.93 1572.29 1171.09C1570.74 1174.25 1568.57 1176.71 1565.79 1178.47C1563.02 1180.22 1559.79 1181.1 1556.09 1181.1ZM1556.09 1175.46C1558.9 1175.46 1561.21 1174.74 1563.02 1173.3C1564.83 1171.86 1566.17 1169.97 1567.04 1167.63C1567.91 1165.28 1568.34 1162.74 1568.34 1160.01C1568.34 1157.27 1567.91 1154.73 1567.04 1152.36C1566.17 1150 1564.83 1148.09 1563.02 1146.64C1561.21 1145.18 1558.9 1144.45 1556.09 1144.45C1553.29 1144.45 1550.98 1145.18 1549.17 1146.64C1547.36 1148.09 1546.02 1150 1545.15 1152.36C1544.28 1154.73 1543.84 1157.27 1543.84 1160.01C1543.84 1162.74 1544.28 1165.28 1545.15 1167.63C1546.02 1169.97 1547.36 1171.86 1549.17 1173.3C1550.98 1174.74 1553.29 1175.46 1556.09 1175.46ZM1584.22 1180.25V1139.34H1590.3V1145.73H1590.83C1591.68 1143.55 1593.06 1141.85 1594.96 1140.65C1596.86 1139.42 1599.14 1138.81 1601.8 1138.81C1604.5 1138.81 1606.75 1139.42 1608.54 1140.65C1610.35 1141.85 1611.76 1143.55 1612.77 1145.73H1613.2C1614.25 1143.62 1615.82 1141.94 1617.91 1140.7C1620.01 1139.44 1622.52 1138.81 1625.45 1138.81C1629.11 1138.81 1632.1 1139.95 1634.43 1142.24C1636.75 1144.52 1637.92 1148.06 1637.92 1152.87V1180.25H1631.63V1152.87C1631.63 1149.85 1630.81 1147.69 1629.15 1146.4C1627.5 1145.1 1625.56 1144.45 1623.32 1144.45C1620.45 1144.45 1618.22 1145.32 1616.64 1147.06C1615.06 1148.79 1614.27 1150.97 1614.27 1153.62V1180.25H1607.87V1152.23C1607.87 1149.91 1607.12 1148.03 1605.61 1146.61C1604.1 1145.17 1602.16 1144.45 1599.78 1144.45C1598.14 1144.45 1596.62 1144.89 1595.2 1145.76C1593.79 1146.63 1592.66 1147.84 1591.79 1149.38C1590.94 1150.91 1590.51 1152.68 1590.51 1154.68V1180.25H1584.22ZM1688.19 1181C1684.17 1181 1680.76 1179.9 1677.93 1177.72C1675.11 1175.52 1672.95 1172.33 1671.46 1168.16C1669.97 1163.97 1669.22 1158.91 1669.22 1152.98C1669.22 1147.08 1669.97 1142.05 1671.46 1137.88C1672.97 1133.69 1675.14 1130.49 1677.96 1128.29C1680.8 1126.07 1684.21 1124.96 1688.19 1124.96C1692.16 1124.96 1695.56 1126.07 1698.39 1128.29C1701.23 1130.49 1703.4 1133.69 1704.89 1137.88C1706.4 1142.05 1707.15 1147.08 1707.15 1152.98C1707.15 1158.91 1706.4 1163.97 1704.91 1168.16C1703.42 1172.33 1701.26 1175.52 1698.44 1177.72C1695.62 1179.9 1692.2 1181 1688.19 1181ZM1688.19 1175.14C1692.16 1175.14 1695.25 1173.22 1697.46 1169.38C1699.66 1165.55 1700.76 1160.08 1700.76 1152.98C1700.76 1148.25 1700.25 1144.23 1699.24 1140.91C1698.25 1137.59 1696.81 1135.06 1694.93 1133.32C1693.06 1131.58 1690.82 1130.71 1688.19 1130.71C1684.25 1130.71 1681.17 1132.66 1678.95 1136.54C1676.73 1140.42 1675.62 1145.89 1675.62 1152.98C1675.62 1157.7 1676.11 1161.71 1677.11 1165.02C1678.1 1168.32 1679.53 1170.83 1681.4 1172.55C1683.28 1174.28 1685.54 1175.14 1688.19 1175.14ZM1733.89 1196.44C1730.85 1196.44 1728.24 1196.05 1726.06 1195.27C1723.88 1194.51 1722.06 1193.5 1720.6 1192.24C1719.16 1190.99 1718.02 1189.66 1717.16 1188.24L1722.17 1184.72C1722.74 1185.47 1723.46 1186.32 1724.33 1187.28C1725.2 1188.26 1726.39 1189.1 1727.9 1189.81C1729.43 1190.54 1731.42 1190.9 1733.89 1190.9C1737.19 1190.9 1739.92 1190.1 1742.07 1188.51C1744.22 1186.91 1745.29 1184.4 1745.29 1181V1172.69H1744.76C1744.3 1173.43 1743.64 1174.36 1742.79 1175.46C1741.95 1176.54 1740.74 1177.51 1739.16 1178.36C1737.6 1179.19 1735.49 1179.61 1732.83 1179.61C1729.52 1179.61 1726.56 1178.83 1723.93 1177.27C1721.32 1175.7 1719.25 1173.43 1717.72 1170.45C1716.21 1167.47 1715.46 1163.84 1715.46 1159.58C1715.46 1155.39 1716.2 1151.74 1717.67 1148.64C1719.14 1145.51 1721.2 1143.1 1723.82 1141.39C1726.45 1139.67 1729.49 1138.81 1732.93 1138.81C1735.6 1138.81 1737.71 1139.25 1739.27 1140.14C1740.85 1141.01 1742.06 1142 1742.89 1143.12C1743.75 1144.22 1744.4 1145.13 1744.86 1145.84H1745.5V1139.34H1751.58V1181.42C1751.58 1184.94 1750.78 1187.8 1749.18 1190C1747.6 1192.22 1745.47 1193.84 1742.79 1194.87C1740.12 1195.92 1737.16 1196.44 1733.89 1196.44ZM1733.68 1173.96C1736.2 1173.96 1738.33 1173.39 1740.07 1172.23C1741.81 1171.08 1743.13 1169.42 1744.04 1167.25C1744.94 1165.09 1745.4 1162.49 1745.4 1159.48C1745.4 1156.53 1744.95 1153.93 1744.06 1151.67C1743.18 1149.42 1741.86 1147.65 1740.12 1146.37C1738.38 1145.09 1736.23 1144.45 1733.68 1144.45C1731.01 1144.45 1728.79 1145.13 1727.02 1146.48C1725.26 1147.83 1723.94 1149.64 1723.05 1151.91C1722.18 1154.18 1721.75 1156.71 1721.75 1159.48C1721.75 1162.32 1722.19 1164.83 1723.08 1167.01C1723.98 1169.18 1725.31 1170.88 1727.07 1172.13C1728.85 1173.35 1731.05 1173.96 1733.68 1173.96ZM1801.97 1139.34V1144.67H1780.77V1139.34H1801.97ZM1786.94 1129.54H1793.23V1168.53C1793.23 1170.31 1793.49 1171.64 1794 1172.53C1794.54 1173.4 1795.21 1173.98 1796.03 1174.28C1796.86 1174.57 1797.74 1174.71 1798.66 1174.71C1799.36 1174.71 1799.92 1174.67 1800.37 1174.6C1800.81 1174.51 1801.17 1174.44 1801.43 1174.39L1802.71 1180.04C1802.29 1180.2 1801.69 1180.36 1800.93 1180.52C1800.16 1180.69 1799.2 1180.78 1798.02 1180.78C1796.25 1180.78 1794.51 1180.4 1792.8 1179.64C1791.12 1178.87 1789.71 1177.71 1788.6 1176.15C1787.5 1174.59 1786.94 1172.62 1786.94 1170.24V1129.54ZM1827.6 1181.1C1823.91 1181.1 1820.67 1180.22 1817.88 1178.47C1815.11 1176.71 1812.94 1174.25 1811.38 1171.09C1809.84 1167.93 1809.06 1164.23 1809.06 1160.01C1809.06 1155.75 1809.84 1152.03 1811.38 1148.85C1812.94 1145.67 1815.11 1143.2 1817.88 1141.44C1820.67 1139.69 1823.91 1138.81 1827.6 1138.81C1831.29 1138.81 1834.53 1139.69 1837.3 1141.44C1840.08 1143.2 1842.25 1145.67 1843.79 1148.85C1845.36 1152.03 1846.14 1155.75 1846.14 1160.01C1846.14 1164.23 1845.36 1167.93 1843.79 1171.09C1842.25 1174.25 1840.08 1176.71 1837.3 1178.47C1834.53 1180.22 1831.29 1181.1 1827.6 1181.1ZM1827.6 1175.46C1830.41 1175.46 1832.71 1174.74 1834.53 1173.3C1836.34 1171.86 1837.68 1169.97 1838.55 1167.63C1839.42 1165.28 1839.85 1162.74 1839.85 1160.01C1839.85 1157.27 1839.42 1154.73 1838.55 1152.36C1837.68 1150 1836.34 1148.09 1834.53 1146.64C1832.71 1145.18 1830.41 1144.45 1827.6 1144.45C1824.8 1144.45 1822.49 1145.18 1820.68 1146.64C1818.86 1148.09 1817.52 1150 1816.65 1152.36C1815.78 1154.73 1815.35 1157.27 1815.35 1160.01C1815.35 1162.74 1815.78 1165.28 1816.65 1167.63C1817.52 1169.97 1818.86 1171.86 1820.68 1173.3C1822.49 1174.74 1824.8 1175.46 1827.6 1175.46ZM1893.77 1181C1890.64 1181 1887.83 1180.37 1885.32 1179.13C1882.82 1177.89 1880.81 1176.18 1879.3 1174.02C1877.79 1171.85 1876.97 1169.38 1876.83 1166.61H1883.22C1883.47 1169.08 1884.59 1171.12 1886.57 1172.74C1888.58 1174.34 1890.98 1175.14 1893.77 1175.14C1896 1175.14 1897.99 1174.61 1899.73 1173.56C1901.49 1172.52 1902.86 1171.08 1903.86 1169.25C1904.87 1167.4 1905.38 1165.32 1905.38 1162.99C1905.38 1160.61 1904.85 1158.49 1903.81 1156.63C1902.78 1154.74 1901.36 1153.26 1899.54 1152.18C1897.73 1151.1 1895.66 1150.54 1893.34 1150.53C1891.67 1150.51 1889.96 1150.77 1888.2 1151.3C1886.44 1151.81 1884.99 1152.48 1883.86 1153.3L1877.68 1152.55L1880.98 1125.7H1909.32V1131.56H1886.52L1884.6 1147.65H1884.92C1886.04 1146.76 1887.44 1146.03 1889.13 1145.44C1890.82 1144.85 1892.58 1144.56 1894.4 1144.56C1897.74 1144.56 1900.72 1145.36 1903.33 1146.96C1905.95 1148.54 1908.01 1150.7 1909.51 1153.46C1911.01 1156.21 1911.77 1159.35 1911.77 1162.88C1911.77 1166.37 1910.99 1169.47 1909.43 1172.21C1907.88 1174.92 1905.75 1177.07 1903.03 1178.65C1900.32 1180.21 1897.23 1181 1893.77 1181ZM1938.97 1196.44C1935.93 1196.44 1933.32 1196.05 1931.14 1195.27C1928.95 1194.51 1927.13 1193.5 1925.68 1192.24C1924.24 1190.99 1923.1 1189.66 1922.24 1188.24L1927.25 1184.72C1927.82 1185.47 1928.54 1186.32 1929.41 1187.28C1930.28 1188.26 1931.47 1189.1 1932.98 1189.81C1934.5 1190.54 1936.5 1190.9 1938.97 1190.9C1942.27 1190.9 1945 1190.1 1947.15 1188.51C1949.29 1186.91 1950.37 1184.4 1950.37 1181V1172.69H1949.84C1949.37 1173.43 1948.72 1174.36 1947.86 1175.46C1947.03 1176.54 1945.82 1177.51 1944.24 1178.36C1942.68 1179.19 1940.57 1179.61 1937.9 1179.61C1934.6 1179.61 1931.64 1178.83 1929.01 1177.27C1926.4 1175.7 1924.33 1173.43 1922.8 1170.45C1921.29 1167.47 1920.54 1163.84 1920.54 1159.58C1920.54 1155.39 1921.28 1151.74 1922.75 1148.64C1924.22 1145.51 1926.27 1143.1 1928.9 1141.39C1931.53 1139.67 1934.57 1138.81 1938.01 1138.81C1940.67 1138.81 1942.79 1139.25 1944.35 1140.14C1945.93 1141.01 1947.14 1142 1947.97 1143.12C1948.82 1144.22 1949.48 1145.13 1949.94 1145.84H1950.58V1139.34H1956.65V1181.42C1956.65 1184.94 1955.85 1187.8 1954.26 1190C1952.68 1192.22 1950.55 1193.84 1947.86 1194.87C1945.2 1195.92 1942.24 1196.44 1938.97 1196.44ZM1938.76 1173.96C1941.28 1173.96 1943.41 1173.39 1945.15 1172.23C1946.89 1171.08 1948.21 1169.42 1949.12 1167.25C1950.02 1165.09 1950.47 1162.49 1950.47 1159.48C1950.47 1156.53 1950.03 1153.93 1949.14 1151.67C1948.25 1149.42 1946.94 1147.65 1945.2 1146.37C1943.46 1145.09 1941.31 1144.45 1938.76 1144.45C1936.09 1144.45 1933.87 1145.13 1932.1 1146.48C1930.34 1147.83 1929.02 1149.64 1928.13 1151.91C1927.26 1154.18 1926.82 1156.71 1926.82 1159.48C1926.82 1162.32 1927.27 1164.83 1928.16 1167.01C1929.06 1169.18 1930.39 1170.88 1932.15 1172.13C1933.93 1173.35 1936.13 1173.96 1938.76 1173.96ZM1972.74 1180.68C1971.43 1180.68 1970.3 1180.21 1969.36 1179.26C1968.42 1178.32 1967.95 1177.2 1967.95 1175.88C1967.95 1174.57 1968.42 1173.44 1969.36 1172.5C1970.3 1171.56 1971.43 1171.09 1972.74 1171.09C1974.05 1171.09 1975.18 1171.56 1976.12 1172.5C1977.06 1173.44 1977.53 1174.57 1977.53 1175.88C1977.53 1176.75 1977.31 1177.55 1976.87 1178.28C1976.44 1179.01 1975.87 1179.59 1975.14 1180.04C1974.43 1180.46 1973.63 1180.68 1972.74 1180.68Z" fill="white"/>
<rect x="223.586" y="163.125" width="2418.75" height="307.5" fill="#565656" stroke="#565656" stroke-width="26.25" stroke-linejoin="round"/>
<rect x="223.586" y="538.125" width="2418.75" height="307.5" fill="#565656" stroke="#565656" stroke-width="26.25" stroke-linejoin="round"/>
<path d="M244.552 198.114L255.802 216.267H256.143L267.393 198.114H273.614L259.893 219.932L273.614 241.75H267.393L256.143 223.938H255.802L244.552 241.75H238.33L252.393 219.932L238.33 198.114H244.552ZM283.474 236.168C282.423 236.168 281.521 235.791 280.768 235.038C280.015 234.286 279.639 233.384 279.639 232.332C279.639 231.281 280.015 230.379 280.768 229.626C281.521 228.874 282.423 228.497 283.474 228.497C284.525 228.497 285.427 228.874 286.18 229.626C286.933 230.379 287.309 231.281 287.309 232.332C287.309 233.028 287.132 233.668 286.777 234.25C286.436 234.832 285.974 235.301 285.392 235.656C284.824 235.997 284.184 236.168 283.474 236.168ZM283.474 214.094C282.423 214.094 281.521 213.717 280.768 212.964C280.015 212.212 279.639 211.31 279.639 210.259C279.639 209.207 280.015 208.305 280.768 207.553C281.521 206.8 282.423 206.423 283.474 206.423C284.525 206.423 285.427 206.8 286.18 207.553C286.933 208.305 287.309 209.207 287.309 210.259C287.309 210.955 287.132 211.594 286.777 212.176C286.436 212.759 285.974 213.227 285.392 213.582C284.824 213.923 284.184 214.094 283.474 214.094Z" fill="white"/>
<path d="M2573.42 242.347C2570.21 242.347 2567.47 241.473 2565.21 239.726C2562.96 237.964 2561.23 235.415 2560.04 232.077C2558.84 228.724 2558.25 224.676 2558.25 219.932C2558.25 215.216 2558.84 211.189 2560.04 207.851C2561.24 204.499 2562.98 201.942 2565.24 200.18C2567.51 198.405 2570.24 197.517 2573.42 197.517C2576.6 197.517 2579.32 198.405 2581.58 200.18C2583.85 201.942 2585.58 204.499 2586.78 207.851C2587.98 211.189 2588.59 215.216 2588.59 219.932C2588.59 224.676 2587.99 228.724 2586.8 232.077C2585.61 235.415 2583.88 237.964 2581.62 239.726C2579.36 241.473 2576.63 242.347 2573.42 242.347ZM2573.42 237.659C2576.6 237.659 2579.07 236.125 2580.83 233.057C2582.59 229.989 2583.47 225.614 2583.47 219.932C2583.47 216.153 2583.07 212.936 2582.26 210.28C2581.46 207.624 2580.31 205.599 2578.81 204.207C2577.32 202.815 2575.52 202.119 2573.42 202.119C2570.26 202.119 2567.8 203.675 2566.02 206.786C2564.25 209.882 2563.36 214.264 2563.36 219.932C2563.36 223.71 2563.76 226.92 2564.55 229.562C2565.35 232.205 2566.49 234.214 2567.98 235.592C2569.49 236.97 2571.3 237.659 2573.42 237.659ZM2609.98 254.705C2607.55 254.705 2605.46 254.392 2603.72 253.767C2601.97 253.156 2600.51 252.347 2599.35 251.338C2598.2 250.344 2597.28 249.278 2596.6 248.142L2600.61 245.33C2601.06 245.926 2601.64 246.608 2602.33 247.375C2603.03 248.156 2603.98 248.831 2605.19 249.399C2606.41 249.982 2608.01 250.273 2609.98 250.273C2612.62 250.273 2614.8 249.634 2616.52 248.355C2618.24 247.077 2619.1 245.074 2619.1 242.347V235.699H2618.67C2618.3 236.295 2617.78 237.034 2617.1 237.915C2616.43 238.781 2615.46 239.555 2614.2 240.237C2612.95 240.905 2611.26 241.239 2609.13 241.239C2606.49 241.239 2604.11 240.614 2602.01 239.364C2599.92 238.114 2598.27 236.295 2597.05 233.909C2595.84 231.523 2595.24 228.625 2595.24 225.216C2595.24 221.864 2595.83 218.945 2597 216.459C2598.18 213.959 2599.82 212.027 2601.93 210.663C2604.03 209.286 2606.46 208.597 2609.21 208.597C2611.34 208.597 2613.03 208.952 2614.28 209.662C2615.55 210.358 2616.51 211.153 2617.18 212.048C2617.86 212.929 2618.39 213.653 2618.76 214.222H2619.27V209.023H2624.13V242.688C2624.13 245.5 2623.49 247.787 2622.21 249.548C2620.95 251.324 2619.24 252.624 2617.1 253.447C2614.97 254.286 2612.59 254.705 2609.98 254.705ZM2609.81 236.722C2611.83 236.722 2613.53 236.26 2614.92 235.337C2616.32 234.413 2617.37 233.085 2618.1 231.352C2618.82 229.619 2619.19 227.545 2619.19 225.131C2619.19 222.773 2618.83 220.692 2618.12 218.888C2617.41 217.084 2616.36 215.67 2614.97 214.648C2613.57 213.625 2611.86 213.114 2609.81 213.114C2607.68 213.114 2605.9 213.653 2604.48 214.733C2603.08 215.812 2602.02 217.261 2601.31 219.08C2600.61 220.898 2600.26 222.915 2600.26 225.131C2600.26 227.403 2600.62 229.413 2601.33 231.161C2602.05 232.893 2603.12 234.257 2604.53 235.251C2605.95 236.232 2607.71 236.722 2609.81 236.722Z" fill="white"/>
<path d="M382.602 216L2451.46 218.75" stroke="white" stroke-width="7.5" stroke-linecap="round"/>
<rect x="378.461" y="178" width="30" height="78.75" rx="15" fill="#010003"/>
<path d="M245.552 573.114L256.802 591.267H257.143L268.393 573.114H274.614L260.893 594.932L274.614 616.75H268.393L257.143 598.938H256.802L245.552 616.75H239.33L253.393 594.932L239.33 573.114H245.552ZM284.474 611.168C283.423 611.168 282.521 610.791 281.768 610.038C281.015 609.286 280.639 608.384 280.639 607.332C280.639 606.281 281.015 605.379 281.768 604.626C282.521 603.874 283.423 603.497 284.474 603.497C285.525 603.497 286.427 603.874 287.18 604.626C287.933 605.379 288.309 606.281 288.309 607.332C288.309 608.028 288.132 608.668 287.777 609.25C287.436 609.832 286.974 610.301 286.392 610.656C285.824 610.997 285.184 611.168 284.474 611.168ZM284.474 589.094C283.423 589.094 282.521 588.717 281.768 587.964C281.015 587.212 280.639 586.31 280.639 585.259C280.639 584.207 281.015 583.305 281.768 582.553C282.521 581.8 283.423 581.423 284.474 581.423C285.525 581.423 286.427 581.8 287.18 582.553C287.933 583.305 288.309 584.207 288.309 585.259C288.309 585.955 288.132 586.594 287.777 587.176C287.436 587.759 286.974 588.227 286.392 588.582C285.824 588.923 285.184 589.094 284.474 589.094Z" fill="white"/>
<path d="M2574.82 617.347C2572.32 617.347 2570.07 616.849 2568.06 615.855C2566.06 614.861 2564.46 613.497 2563.25 611.764C2562.04 610.031 2561.38 608.057 2561.27 605.841H2566.38C2566.58 607.815 2567.47 609.449 2569.06 610.741C2570.67 612.02 2572.59 612.659 2574.82 612.659C2576.61 612.659 2578.2 612.24 2579.59 611.402C2581 610.564 2582.1 609.413 2582.89 607.95C2583.7 606.473 2584.11 604.804 2584.11 602.943C2584.11 601.04 2583.69 599.342 2582.85 597.851C2582.03 596.345 2580.89 595.159 2579.44 594.293C2577.99 593.426 2576.34 592.986 2574.48 592.972C2573.14 592.957 2571.77 593.163 2570.36 593.589C2568.96 594.001 2567.8 594.534 2566.89 595.188L2561.95 594.591L2564.59 573.114H2587.26V577.801H2569.02L2567.49 590.67H2567.74C2568.64 589.96 2569.76 589.371 2571.11 588.902C2572.46 588.433 2573.87 588.199 2575.33 588.199C2578 588.199 2580.38 588.838 2582.47 590.116C2584.57 591.381 2586.22 593.114 2587.41 595.315C2588.62 597.517 2589.22 600.031 2589.22 602.858C2589.22 605.642 2588.6 608.128 2587.35 610.315C2586.11 612.489 2584.41 614.207 2582.23 615.472C2580.06 616.722 2577.59 617.347 2574.82 617.347ZM2610.98 629.705C2608.55 629.705 2606.46 629.392 2604.72 628.767C2602.97 628.156 2601.51 627.347 2600.35 626.338C2599.2 625.344 2598.28 624.278 2597.6 623.142L2601.61 620.33C2602.06 620.926 2602.64 621.608 2603.33 622.375C2604.03 623.156 2604.98 623.831 2606.19 624.399C2607.41 624.982 2609.01 625.273 2610.98 625.273C2613.62 625.273 2615.8 624.634 2617.52 623.355C2619.24 622.077 2620.1 620.074 2620.1 617.347V610.699H2619.67C2619.3 611.295 2618.78 612.034 2618.1 612.915C2617.43 613.781 2616.46 614.555 2615.2 615.237C2613.95 615.905 2612.26 616.239 2610.13 616.239C2607.49 616.239 2605.11 615.614 2603.01 614.364C2600.92 613.114 2599.27 611.295 2598.05 608.909C2596.84 606.523 2596.24 603.625 2596.24 600.216C2596.24 596.864 2596.83 593.945 2598 591.459C2599.18 588.959 2600.82 587.027 2602.93 585.663C2605.03 584.286 2607.46 583.597 2610.21 583.597C2612.34 583.597 2614.03 583.952 2615.28 584.662C2616.55 585.358 2617.51 586.153 2618.18 587.048C2618.86 587.929 2619.39 588.653 2619.76 589.222H2620.27V584.023H2625.13V617.688C2625.13 620.5 2624.49 622.787 2623.21 624.548C2621.95 626.324 2620.24 627.624 2618.1 628.447C2615.97 629.286 2613.59 629.705 2610.98 629.705ZM2610.81 611.722C2612.83 611.722 2614.53 611.26 2615.92 610.337C2617.32 609.413 2618.37 608.085 2619.1 606.352C2619.82 604.619 2620.19 602.545 2620.19 600.131C2620.19 597.773 2619.83 595.692 2619.12 593.888C2618.41 592.084 2617.36 590.67 2615.97 589.648C2614.57 588.625 2612.86 588.114 2610.81 588.114C2608.68 588.114 2606.9 588.653 2605.48 589.733C2604.08 590.812 2603.02 592.261 2602.31 594.08C2601.61 595.898 2601.26 597.915 2601.26 600.131C2601.26 602.403 2601.62 604.413 2602.33 606.161C2603.05 607.893 2604.12 609.257 2605.53 610.251C2606.95 611.232 2608.71 611.722 2610.81 611.722Z" fill="white"/>
<path d="M383.602 591L2452.46 593.75" stroke="white" stroke-width="7.5" stroke-linecap="round"/>
<rect x="2427.46" y="553" width="30" height="78.75" rx="15" fill="#010003"/>
<path d="M236.995 299.114H243.046L255.148 319.483H255.66L267.762 299.114H273.813L258.046 324.767V342.75H252.762V324.767L236.995 299.114ZM279.88 337.168C278.829 337.168 277.927 336.791 277.174 336.038C276.422 335.286 276.045 334.384 276.045 333.332C276.045 332.281 276.422 331.379 277.174 330.626C277.927 329.874 278.829 329.497 279.88 329.497C280.931 329.497 281.833 329.874 282.586 330.626C283.339 331.379 283.716 332.281 283.716 333.332C283.716 334.028 283.538 334.668 283.183 335.25C282.842 335.832 282.38 336.301 281.798 336.656C281.23 336.997 280.591 337.168 279.88 337.168ZM279.88 315.094C278.829 315.094 277.927 314.717 277.174 313.964C276.422 313.212 276.045 312.31 276.045 311.259C276.045 310.207 276.422 309.305 277.174 308.553C277.927 307.8 278.829 307.423 279.88 307.423C280.931 307.423 281.833 307.8 282.586 308.553C283.339 309.305 283.716 310.207 283.716 311.259C283.716 311.955 283.538 312.594 283.183 313.176C282.842 313.759 282.38 314.227 281.798 314.582C281.23 314.923 280.591 315.094 279.88 315.094Z" fill="white"/>
<path d="M2582.89 299.114V342.75H2577.6V304.653H2577.35L2566.69 311.727V306.358L2577.6 299.114H2582.89ZM2608.73 355.705C2606.3 355.705 2604.21 355.392 2602.47 354.767C2600.72 354.156 2599.26 353.347 2598.1 352.338C2596.95 351.344 2596.03 350.278 2595.35 349.142L2599.36 346.33C2599.81 346.926 2600.39 347.608 2601.08 348.375C2601.78 349.156 2602.73 349.831 2603.94 350.399C2605.16 350.982 2606.76 351.273 2608.73 351.273C2611.37 351.273 2613.55 350.634 2615.27 349.355C2616.99 348.077 2617.85 346.074 2617.85 343.347V336.699H2617.42C2617.05 337.295 2616.53 338.034 2615.85 338.915C2615.18 339.781 2614.21 340.555 2612.95 341.237C2611.7 341.905 2610.01 342.239 2607.88 342.239C2605.24 342.239 2602.86 341.614 2600.76 340.364C2598.67 339.114 2597.02 337.295 2595.8 334.909C2594.59 332.523 2593.99 329.625 2593.99 326.216C2593.99 322.864 2594.58 319.945 2595.75 317.459C2596.93 314.959 2598.57 313.027 2600.68 311.663C2602.78 310.286 2605.21 309.597 2607.96 309.597C2610.09 309.597 2611.78 309.952 2613.03 310.662C2614.3 311.358 2615.26 312.153 2615.93 313.048C2616.61 313.929 2617.14 314.653 2617.51 315.222H2618.02V310.023H2622.88V343.688C2622.88 346.5 2622.24 348.787 2620.96 350.548C2619.7 352.324 2617.99 353.624 2615.85 354.447C2613.72 355.286 2611.34 355.705 2608.73 355.705ZM2608.56 337.722C2610.58 337.722 2612.28 337.26 2613.67 336.337C2615.07 335.413 2616.12 334.085 2616.85 332.352C2617.57 330.619 2617.94 328.545 2617.94 326.131C2617.94 323.773 2617.58 321.692 2616.87 319.888C2616.16 318.084 2615.11 316.67 2613.72 315.648C2612.32 314.625 2610.61 314.114 2608.56 314.114C2606.43 314.114 2604.65 314.653 2603.23 315.733C2601.83 316.812 2600.77 318.261 2600.06 320.08C2599.36 321.898 2599.01 323.915 2599.01 326.131C2599.01 328.403 2599.37 330.413 2600.08 332.161C2600.8 333.893 2601.87 335.257 2603.28 336.251C2604.7 337.232 2606.46 337.722 2608.56 337.722Z" fill="white"/>
<path d="M381.211 317L2450.07 319.749" stroke="white" stroke-width="7.5" stroke-linecap="round"/>
<rect x="784.461" y="279" width="30" height="78.75" rx="15" fill="#010003"/>
<path d="M237.995 674.114H244.046L256.148 694.483H256.66L268.762 674.114H274.813L259.046 699.767V717.75H253.762V699.767L237.995 674.114ZM280.88 712.168C279.829 712.168 278.927 711.791 278.174 711.038C277.422 710.286 277.045 709.384 277.045 708.332C277.045 707.281 277.422 706.379 278.174 705.626C278.927 704.874 279.829 704.497 280.88 704.497C281.931 704.497 282.833 704.874 283.586 705.626C284.339 706.379 284.716 707.281 284.716 708.332C284.716 709.028 284.538 709.668 284.183 710.25C283.842 710.832 283.38 711.301 282.798 711.656C282.23 711.997 281.591 712.168 280.88 712.168ZM280.88 690.094C279.829 690.094 278.927 689.717 278.174 688.964C277.422 688.212 277.045 687.31 277.045 686.259C277.045 685.207 277.422 684.305 278.174 683.553C278.927 682.8 279.829 682.423 280.88 682.423C281.931 682.423 282.833 682.8 283.586 683.553C284.339 684.305 284.716 685.207 284.716 686.259C284.716 686.955 284.538 687.594 284.183 688.176C283.842 688.759 283.38 689.227 282.798 689.582C282.23 689.923 281.591 690.094 280.88 690.094Z" fill="white"/>
<path d="M2573.57 718.347C2571.07 718.347 2568.82 717.849 2566.81 716.855C2564.81 715.861 2563.21 714.497 2562 712.764C2560.79 711.031 2560.13 709.057 2560.02 706.841H2565.13C2565.33 708.815 2566.22 710.449 2567.81 711.741C2569.42 713.02 2571.34 713.659 2573.57 713.659C2575.36 713.659 2576.95 713.24 2578.34 712.402C2579.75 711.564 2580.85 710.413 2581.64 708.95C2582.45 707.473 2582.86 705.804 2582.86 703.943C2582.86 702.04 2582.44 700.342 2581.6 698.851C2580.78 697.345 2579.64 696.159 2578.19 695.293C2576.74 694.426 2575.09 693.986 2573.23 693.972C2571.89 693.957 2570.52 694.163 2569.11 694.589C2567.71 695.001 2566.55 695.534 2565.64 696.188L2560.7 695.591L2563.34 674.114H2586.01V678.801H2567.77L2566.24 691.67H2566.49C2567.39 690.96 2568.51 690.371 2569.86 689.902C2571.21 689.433 2572.62 689.199 2574.08 689.199C2576.75 689.199 2579.13 689.838 2581.22 691.116C2583.32 692.381 2584.97 694.114 2586.16 696.315C2587.37 698.517 2587.97 701.031 2587.97 703.858C2587.97 706.642 2587.35 709.128 2586.1 711.315C2584.86 713.489 2583.16 715.207 2580.98 716.472C2578.81 717.722 2576.34 718.347 2573.57 718.347ZM2609.73 730.705C2607.3 730.705 2605.21 730.392 2603.47 729.767C2601.72 729.156 2600.26 728.347 2599.1 727.338C2597.95 726.344 2597.03 725.278 2596.35 724.142L2600.36 721.33C2600.81 721.926 2601.39 722.608 2602.08 723.375C2602.78 724.156 2603.73 724.831 2604.94 725.399C2606.16 725.982 2607.76 726.273 2609.73 726.273C2612.37 726.273 2614.55 725.634 2616.27 724.355C2617.99 723.077 2618.85 721.074 2618.85 718.347V711.699H2618.42C2618.05 712.295 2617.53 713.034 2616.85 713.915C2616.18 714.781 2615.21 715.555 2613.95 716.237C2612.7 716.905 2611.01 717.239 2608.88 717.239C2606.24 717.239 2603.86 716.614 2601.76 715.364C2599.67 714.114 2598.02 712.295 2596.8 709.909C2595.59 707.523 2594.99 704.625 2594.99 701.216C2594.99 697.864 2595.58 694.945 2596.75 692.459C2597.93 689.959 2599.57 688.027 2601.68 686.663C2603.78 685.286 2606.21 684.597 2608.96 684.597C2611.09 684.597 2612.78 684.952 2614.03 685.662C2615.3 686.358 2616.26 687.153 2616.93 688.048C2617.61 688.929 2618.14 689.653 2618.51 690.222H2619.02V685.023H2623.88V718.688C2623.88 721.5 2623.24 723.787 2621.96 725.548C2620.7 727.324 2618.99 728.624 2616.85 729.447C2614.72 730.286 2612.34 730.705 2609.73 730.705ZM2609.56 712.722C2611.58 712.722 2613.28 712.26 2614.67 711.337C2616.07 710.413 2617.12 709.085 2617.85 707.352C2618.57 705.619 2618.94 703.545 2618.94 701.131C2618.94 698.773 2618.58 696.692 2617.87 694.888C2617.16 693.084 2616.11 691.67 2614.72 690.648C2613.32 689.625 2611.61 689.114 2609.56 689.114C2607.43 689.114 2605.65 689.653 2604.23 690.733C2602.83 691.812 2601.77 693.261 2601.06 695.08C2600.36 696.898 2600.01 698.915 2600.01 701.131C2600.01 703.403 2600.37 705.413 2601.08 707.161C2601.8 708.893 2602.87 710.257 2604.28 711.251C2605.7 712.232 2607.46 712.722 2609.56 712.722Z" fill="white"/>
<path d="M382.211 692L2451.07 694.749" stroke="white" stroke-width="7.5" stroke-linecap="round"/>
<rect x="2426.46" y="654" width="30" height="78.75" rx="15" fill="#010003"/>
<path d="M239.296 436.75V432.915L262.819 397.801H239.04V393.114H269.126V396.949L245.603 432.062H269.381V436.75H239.296ZM281.228 431.168C280.177 431.168 279.275 430.791 278.522 430.038C277.769 429.286 277.393 428.384 277.393 427.332C277.393 426.281 277.769 425.379 278.522 424.626C279.275 423.874 280.177 423.497 281.228 423.497C282.279 423.497 283.181 423.874 283.934 424.626C284.687 425.379 285.063 426.281 285.063 427.332C285.063 428.028 284.886 428.668 284.531 429.25C284.19 429.832 283.728 430.301 283.146 430.656C282.577 430.997 281.938 431.168 281.228 431.168ZM281.228 409.094C280.177 409.094 279.275 408.717 278.522 407.964C277.769 407.212 277.393 406.31 277.393 405.259C277.393 404.207 277.769 403.305 278.522 402.553C279.275 401.8 280.177 401.423 281.228 401.423C282.279 401.423 283.181 401.8 283.934 402.553C284.687 403.305 285.063 404.207 285.063 405.259C285.063 405.955 284.886 406.594 284.531 407.176C284.19 407.759 283.728 408.227 283.146 408.582C282.577 408.923 281.938 409.094 281.228 409.094Z" fill="white"/>
<path d="M2572.17 437.347C2568.96 437.347 2566.22 436.473 2563.96 434.726C2561.71 432.964 2559.98 430.415 2558.79 427.077C2557.59 423.724 2557 419.676 2557 414.932C2557 410.216 2557.59 406.189 2558.79 402.851C2559.99 399.499 2561.73 396.942 2563.99 395.18C2566.26 393.405 2568.99 392.517 2572.17 392.517C2575.35 392.517 2578.07 393.405 2580.33 395.18C2582.6 396.942 2584.33 399.499 2585.53 402.851C2586.73 406.189 2587.34 410.216 2587.34 414.932C2587.34 419.676 2586.74 423.724 2585.55 427.077C2584.36 430.415 2582.63 432.964 2580.37 434.726C2578.11 436.473 2575.38 437.347 2572.17 437.347ZM2572.17 432.659C2575.35 432.659 2577.82 431.125 2579.58 428.057C2581.34 424.989 2582.22 420.614 2582.22 414.932C2582.22 411.153 2581.82 407.936 2581.01 405.28C2580.21 402.624 2579.06 400.599 2577.56 399.207C2576.07 397.815 2574.27 397.119 2572.17 397.119C2569.01 397.119 2566.55 398.675 2564.77 401.786C2563 404.882 2562.11 409.264 2562.11 414.932C2562.11 418.71 2562.51 421.92 2563.3 424.562C2564.1 427.205 2565.24 429.214 2566.73 430.592C2568.24 431.97 2570.05 432.659 2572.17 432.659ZM2608.73 449.705C2606.3 449.705 2604.21 449.392 2602.47 448.767C2600.72 448.156 2599.26 447.347 2598.1 446.338C2596.95 445.344 2596.03 444.278 2595.35 443.142L2599.36 440.33C2599.81 440.926 2600.39 441.608 2601.08 442.375C2601.78 443.156 2602.73 443.831 2603.94 444.399C2605.16 444.982 2606.76 445.273 2608.73 445.273C2611.37 445.273 2613.55 444.634 2615.27 443.355C2616.99 442.077 2617.85 440.074 2617.85 437.347V430.699H2617.42C2617.05 431.295 2616.53 432.034 2615.85 432.915C2615.18 433.781 2614.21 434.555 2612.95 435.237C2611.7 435.905 2610.01 436.239 2607.88 436.239C2605.24 436.239 2602.86 435.614 2600.76 434.364C2598.67 433.114 2597.02 431.295 2595.8 428.909C2594.59 426.523 2593.99 423.625 2593.99 420.216C2593.99 416.864 2594.58 413.945 2595.75 411.459C2596.93 408.959 2598.57 407.027 2600.68 405.663C2602.78 404.286 2605.21 403.597 2607.96 403.597C2610.09 403.597 2611.78 403.952 2613.03 404.662C2614.3 405.358 2615.26 406.153 2615.93 407.048C2616.61 407.929 2617.14 408.653 2617.51 409.222H2618.02V404.023H2622.88V437.688C2622.88 440.5 2622.24 442.787 2620.96 444.548C2619.7 446.324 2617.99 447.624 2615.85 448.447C2613.72 449.286 2611.34 449.705 2608.73 449.705ZM2608.56 431.722C2610.58 431.722 2612.28 431.26 2613.67 430.337C2615.07 429.413 2616.12 428.085 2616.85 426.352C2617.57 424.619 2617.94 422.545 2617.94 420.131C2617.94 417.773 2617.58 415.692 2616.87 413.888C2616.16 412.084 2615.11 410.67 2613.72 409.648C2612.32 408.625 2610.61 408.114 2608.56 408.114C2606.43 408.114 2604.65 408.653 2603.23 409.733C2601.83 410.812 2600.77 412.261 2600.06 414.08C2599.36 415.898 2599.01 417.915 2599.01 420.131C2599.01 422.403 2599.37 424.413 2600.08 426.161C2600.8 427.893 2601.87 429.257 2603.28 430.251C2604.7 431.232 2606.46 431.722 2608.56 431.722Z" fill="white"/>
<path d="M381.211 411L2450.07 413.749" stroke="white" stroke-width="7.5" stroke-linecap="round"/>
<rect x="377.211" y="373" width="30" height="78.75" rx="15" fill="#010003"/>
<path d="M240.296 811.75V807.915L263.819 772.801H240.04V768.114H270.126V771.949L246.603 807.062H270.381V811.75H240.296ZM282.228 806.168C281.177 806.168 280.275 805.791 279.522 805.038C278.769 804.286 278.393 803.384 278.393 802.332C278.393 801.281 278.769 800.379 279.522 799.626C280.275 798.874 281.177 798.497 282.228 798.497C283.279 798.497 284.181 798.874 284.934 799.626C285.687 800.379 286.063 801.281 286.063 802.332C286.063 803.028 285.886 803.668 285.531 804.25C285.19 804.832 284.728 805.301 284.146 805.656C283.577 805.997 282.938 806.168 282.228 806.168ZM282.228 784.094C281.177 784.094 280.275 783.717 279.522 782.964C278.769 782.212 278.393 781.31 278.393 780.259C278.393 779.207 278.769 778.305 279.522 777.553C280.275 776.8 281.177 776.423 282.228 776.423C283.279 776.423 284.181 776.8 284.934 777.553C285.687 778.305 286.063 779.207 286.063 780.259C286.063 780.955 285.886 781.594 285.531 782.176C285.19 782.759 284.728 783.227 284.146 783.582C283.577 783.923 282.938 784.094 282.228 784.094Z" fill="white"/>
<path d="M2573.57 812.347C2571.07 812.347 2568.82 811.849 2566.81 810.855C2564.81 809.861 2563.21 808.497 2562 806.764C2560.79 805.031 2560.13 803.057 2560.02 800.841H2565.13C2565.33 802.815 2566.22 804.449 2567.81 805.741C2569.42 807.02 2571.34 807.659 2573.57 807.659C2575.36 807.659 2576.95 807.24 2578.34 806.402C2579.75 805.564 2580.85 804.413 2581.64 802.95C2582.45 801.473 2582.86 799.804 2582.86 797.943C2582.86 796.04 2582.44 794.342 2581.6 792.851C2580.78 791.345 2579.64 790.159 2578.19 789.293C2576.74 788.426 2575.09 787.986 2573.23 787.972C2571.89 787.957 2570.52 788.163 2569.11 788.589C2567.71 789.001 2566.55 789.534 2565.64 790.188L2560.7 789.591L2563.34 768.114H2586.01V772.801H2567.77L2566.24 785.67H2566.49C2567.39 784.96 2568.51 784.371 2569.86 783.902C2571.21 783.433 2572.62 783.199 2574.08 783.199C2576.75 783.199 2579.13 783.838 2581.22 785.116C2583.32 786.381 2584.97 788.114 2586.16 790.315C2587.37 792.517 2587.97 795.031 2587.97 797.858C2587.97 800.642 2587.35 803.128 2586.1 805.315C2584.86 807.489 2583.16 809.207 2580.98 810.472C2578.81 811.722 2576.34 812.347 2573.57 812.347ZM2609.73 824.705C2607.3 824.705 2605.21 824.392 2603.47 823.767C2601.72 823.156 2600.26 822.347 2599.1 821.338C2597.95 820.344 2597.03 819.278 2596.35 818.142L2600.36 815.33C2600.81 815.926 2601.39 816.608 2602.08 817.375C2602.78 818.156 2603.73 818.831 2604.94 819.399C2606.16 819.982 2607.76 820.273 2609.73 820.273C2612.37 820.273 2614.55 819.634 2616.27 818.355C2617.99 817.077 2618.85 815.074 2618.85 812.347V805.699H2618.42C2618.05 806.295 2617.53 807.034 2616.85 807.915C2616.18 808.781 2615.21 809.555 2613.95 810.237C2612.7 810.905 2611.01 811.239 2608.88 811.239C2606.24 811.239 2603.86 810.614 2601.76 809.364C2599.67 808.114 2598.02 806.295 2596.8 803.909C2595.59 801.523 2594.99 798.625 2594.99 795.216C2594.99 791.864 2595.58 788.945 2596.75 786.459C2597.93 783.959 2599.57 782.027 2601.68 780.663C2603.78 779.286 2606.21 778.597 2608.96 778.597C2611.09 778.597 2612.78 778.952 2614.03 779.662C2615.3 780.358 2616.26 781.153 2616.93 782.048C2617.61 782.929 2618.14 783.653 2618.51 784.222H2619.02V779.023H2623.88V812.688C2623.88 815.5 2623.24 817.787 2621.96 819.548C2620.7 821.324 2618.99 822.624 2616.85 823.447C2614.72 824.286 2612.34 824.705 2609.73 824.705ZM2609.56 806.722C2611.58 806.722 2613.28 806.26 2614.67 805.337C2616.07 804.413 2617.12 803.085 2617.85 801.352C2618.57 799.619 2618.94 797.545 2618.94 795.131C2618.94 792.773 2618.58 790.692 2617.87 788.888C2617.16 787.084 2616.11 785.67 2614.72 784.648C2613.32 783.625 2611.61 783.114 2609.56 783.114C2607.43 783.114 2605.65 783.653 2604.23 784.733C2602.83 785.812 2601.77 787.261 2601.06 789.08C2600.36 790.898 2600.01 792.915 2600.01 795.131C2600.01 797.403 2600.37 799.413 2601.08 801.161C2601.8 802.893 2602.87 804.257 2604.28 805.251C2605.7 806.232 2607.46 806.722 2609.56 806.722Z" fill="white"/>
<path d="M382.211 786L2451.07 788.749" stroke="white" stroke-width="7.5" stroke-linecap="round"/>
<rect x="2425.46" y="748" width="30" height="78.75" rx="15" fill="#010003"/>
</svg>
