<svg width="2862" height="1478" viewBox="0 0 2862 1478" fill="none" xmlns="http://www.w3.org/2000/svg">
<rect x="0.460938" width="2861.25" height="1477.5" rx="112.5" fill="#171717"/>
<path d="M84.495 172.25V164.58L113.302 133.045C116.683 129.352 119.467 126.142 121.654 123.415C123.842 120.659 125.461 118.074 126.512 115.659C127.592 113.216 128.131 110.659 128.131 107.989C128.131 104.92 127.393 102.264 125.915 100.02C124.467 97.7756 122.478 96.0426 119.95 94.821C117.421 93.5994 114.58 92.9886 111.427 92.9886C108.075 92.9886 105.148 93.6847 102.648 95.0767C100.177 96.4403 98.2592 98.358 96.8956 100.83C95.5604 103.301 94.8928 106.199 94.8928 109.523H84.8359C84.8359 104.409 86.0149 99.9205 88.3729 96.0568C90.7308 92.1932 93.9411 89.1818 98.0036 87.0227C102.094 84.8636 106.683 83.7841 111.768 83.7841C116.881 83.7841 121.413 84.8636 125.362 87.0227C129.31 89.1818 132.407 92.0937 134.651 95.7585C136.896 99.4233 138.018 103.5 138.018 107.989C138.018 111.199 137.435 114.338 136.271 117.406C135.134 120.446 133.146 123.841 130.305 127.591C127.492 131.312 123.586 135.858 118.586 141.227L98.9837 162.193V162.875H139.552V172.25H84.495ZM164.651 172.932C162.549 172.932 160.745 172.179 159.239 170.673C157.734 169.168 156.981 167.364 156.981 165.261C156.981 163.159 157.734 161.355 159.239 159.849C160.745 158.344 162.549 157.591 164.651 157.591C166.754 157.591 168.558 158.344 170.063 159.849C171.569 161.355 172.322 163.159 172.322 165.261C172.322 166.653 171.967 167.932 171.256 169.097C170.575 170.261 169.651 171.199 168.487 171.909C167.35 172.591 166.072 172.932 164.651 172.932Z" fill="white"/>
<path d="M255.311 1040.56V1034.7H296.22V1040.56H279.068V1089.25H272.463V1040.56H255.311ZM311.847 1064.64V1089.25H305.561V1034.7H311.847V1054.73H312.38C313.338 1052.62 314.777 1050.94 316.694 1049.7C318.63 1048.44 321.204 1047.81 324.418 1047.81C327.206 1047.81 329.647 1048.37 331.742 1049.49C333.837 1050.59 335.462 1052.28 336.616 1054.57C337.788 1056.85 338.374 1059.74 338.374 1063.26V1089.25H332.088V1063.68C332.088 1060.43 331.245 1057.92 329.558 1056.14C327.889 1054.35 325.572 1053.45 322.607 1053.45C320.547 1053.45 318.701 1053.89 317.067 1054.76C315.451 1055.63 314.173 1056.9 313.232 1058.57C312.309 1060.24 311.847 1062.26 311.847 1064.64ZM349.873 1089.25V1048.34H356.158V1089.25H349.873ZM353.069 1041.52C351.844 1041.52 350.787 1041.11 349.9 1040.27C349.03 1039.44 348.595 1038.43 348.595 1037.26C348.595 1036.09 349.03 1035.09 349.9 1034.25C350.787 1033.42 351.844 1033 353.069 1033C354.294 1033 355.342 1033.42 356.212 1034.25C357.1 1035.09 357.543 1036.09 357.543 1037.26C357.543 1038.43 357.1 1039.44 356.212 1040.27C355.342 1041.11 354.294 1041.52 353.069 1041.52ZM396.648 1057.5L391.002 1059.1C390.647 1058.16 390.123 1057.25 389.43 1056.36C388.756 1055.45 387.832 1054.71 386.661 1054.12C385.489 1053.53 383.988 1053.24 382.159 1053.24C379.656 1053.24 377.57 1053.82 375.901 1054.97C374.249 1056.11 373.424 1057.56 373.424 1059.31C373.424 1060.88 373.992 1062.11 375.128 1063.02C376.265 1063.92 378.04 1064.68 380.455 1065.28L386.527 1066.77C390.185 1067.66 392.911 1069.02 394.704 1070.85C396.497 1072.66 397.394 1074.99 397.394 1077.85C397.394 1080.19 396.719 1082.29 395.37 1084.14C394.038 1085.98 392.174 1087.44 389.777 1088.5C387.38 1089.57 384.592 1090.1 381.414 1090.1C377.241 1090.1 373.788 1089.2 371.053 1087.39C368.319 1085.57 366.588 1082.93 365.86 1079.45L371.826 1077.96C372.394 1080.16 373.468 1081.81 375.048 1082.91C376.646 1084.01 378.733 1084.56 381.307 1084.56C384.237 1084.56 386.563 1083.94 388.285 1082.7C390.025 1081.44 390.895 1079.93 390.895 1078.17C390.895 1076.75 390.398 1075.56 389.404 1074.6C388.409 1073.62 386.882 1072.9 384.823 1072.42L378.005 1070.82C374.258 1069.93 371.506 1068.56 369.748 1066.69C368.008 1064.81 367.138 1062.46 367.138 1059.63C367.138 1057.33 367.786 1055.28 369.082 1053.51C370.396 1051.73 372.181 1050.34 374.436 1049.33C376.708 1048.31 379.283 1047.81 382.159 1047.81C386.208 1047.81 389.386 1048.7 391.694 1050.47C394.02 1052.25 395.672 1054.59 396.648 1057.5ZM427.949 1089.25V1048.34H434.235V1089.25H427.949ZM431.145 1041.52C429.92 1041.52 428.864 1041.11 427.976 1040.27C427.106 1039.44 426.671 1038.43 426.671 1037.26C426.671 1036.09 427.106 1035.09 427.976 1034.25C428.864 1033.42 429.92 1033 431.145 1033C432.37 1033 433.418 1033.42 434.288 1034.25C435.176 1035.09 435.62 1036.09 435.62 1037.26C435.62 1038.43 435.176 1039.44 434.288 1040.27C433.418 1041.11 432.37 1041.52 431.145 1041.52ZM474.724 1057.5L469.078 1059.1C468.723 1058.16 468.199 1057.25 467.507 1056.36C466.832 1055.45 465.909 1054.71 464.737 1054.12C463.565 1053.53 462.064 1053.24 460.236 1053.24C457.732 1053.24 455.646 1053.82 453.977 1054.97C452.325 1056.11 451.5 1057.56 451.5 1059.31C451.5 1060.88 452.068 1062.11 453.204 1063.02C454.341 1063.92 456.116 1064.68 458.531 1065.28L464.604 1066.77C468.261 1067.66 470.987 1069.02 472.78 1070.85C474.573 1072.66 475.47 1074.99 475.47 1077.85C475.47 1080.19 474.795 1082.29 473.446 1084.14C472.114 1085.98 470.25 1087.44 467.853 1088.5C465.456 1089.57 462.668 1090.1 459.49 1090.1C455.317 1090.1 451.864 1089.2 449.129 1087.39C446.395 1085.57 444.664 1082.93 443.936 1079.45L449.902 1077.96C450.47 1080.16 451.544 1081.81 453.124 1082.91C454.722 1084.01 456.809 1084.56 459.383 1084.56C462.313 1084.56 464.639 1083.94 466.361 1082.7C468.101 1081.44 468.971 1079.93 468.971 1078.17C468.971 1076.75 468.474 1075.56 467.48 1074.6C466.486 1073.62 464.959 1072.9 462.899 1072.42L456.081 1070.82C452.334 1069.93 449.582 1068.56 447.824 1066.69C446.084 1064.81 445.214 1062.46 445.214 1059.63C445.214 1057.33 445.862 1055.28 447.159 1053.51C448.472 1051.73 450.257 1050.34 452.512 1049.33C454.785 1048.31 457.359 1047.81 460.236 1047.81C464.284 1047.81 467.462 1048.7 469.77 1050.47C472.096 1052.25 473.748 1054.59 474.724 1057.5ZM515.294 1089.25L502.829 1048.34H509.434L518.277 1079.66H518.703L527.439 1048.34H534.15L542.78 1079.56H543.206L552.048 1048.34H558.653L546.189 1089.25H540.01L531.061 1057.82H530.422L521.473 1089.25H515.294ZM573.248 1064.64V1089.25H566.963V1034.7H573.248V1054.73H573.781C574.74 1052.62 576.178 1050.94 578.096 1049.7C580.031 1048.44 582.606 1047.81 585.819 1047.81C588.607 1047.81 591.048 1048.37 593.144 1049.49C595.239 1050.59 596.863 1052.28 598.017 1054.57C599.189 1056.85 599.775 1059.74 599.775 1063.26V1089.25H593.49V1063.68C593.49 1060.43 592.646 1057.92 590.96 1056.14C589.291 1054.35 586.973 1053.45 584.008 1053.45C581.949 1053.45 580.102 1053.89 578.468 1054.76C576.853 1055.63 575.574 1056.9 574.633 1058.57C573.71 1060.24 573.248 1062.26 573.248 1064.64ZM623.313 1090.21C620.72 1090.21 618.368 1089.72 616.255 1088.74C614.142 1087.75 612.464 1086.32 611.221 1084.46C609.978 1082.57 609.357 1080.3 609.357 1077.64C609.357 1075.29 609.818 1073.39 610.742 1071.94C611.665 1070.46 612.899 1069.31 614.444 1068.48C615.988 1067.64 617.693 1067.02 619.557 1066.61C621.439 1066.19 623.33 1065.85 625.23 1065.6C627.716 1065.28 629.731 1065.04 631.276 1064.88C632.839 1064.7 633.975 1064.41 634.685 1064C635.413 1063.59 635.777 1062.88 635.777 1061.87V1061.66C635.777 1059.03 635.058 1056.99 633.62 1055.53C632.199 1054.08 630.042 1053.35 627.148 1053.35C624.147 1053.35 621.795 1054 620.09 1055.32C618.385 1056.63 617.187 1058.04 616.494 1059.53L610.529 1057.4C611.594 1054.91 613.014 1052.98 614.79 1051.59C616.583 1050.19 618.536 1049.21 620.649 1048.66C622.78 1048.09 624.875 1047.81 626.935 1047.81C628.249 1047.81 629.758 1047.97 631.463 1048.29C633.185 1048.59 634.845 1049.22 636.443 1050.18C638.059 1051.14 639.399 1052.58 640.465 1054.52C641.53 1056.46 642.063 1059.05 642.063 1062.3V1089.25H635.777V1083.71H635.458C635.031 1084.6 634.321 1085.55 633.327 1086.56C632.333 1087.57 631.01 1088.43 629.358 1089.14C627.707 1089.85 625.692 1090.21 623.313 1090.21ZM624.271 1084.56C626.757 1084.56 628.852 1084.07 630.557 1083.1C632.279 1082.12 633.575 1080.86 634.445 1079.32C635.333 1077.77 635.777 1076.15 635.777 1074.44V1068.69C635.511 1069.01 634.925 1069.3 634.019 1069.57C633.132 1069.82 632.102 1070.04 630.93 1070.23C629.776 1070.41 628.648 1070.57 627.547 1070.71C626.464 1070.84 625.585 1070.94 624.911 1071.03C623.277 1071.25 621.75 1071.59 620.33 1072.07C618.927 1072.53 617.791 1073.23 616.921 1074.18C616.068 1075.1 615.642 1076.36 615.642 1077.96C615.642 1080.14 616.45 1081.79 618.066 1082.91C619.699 1084.01 621.768 1084.56 624.271 1084.56ZM671.326 1048.34V1053.67H650.126V1048.34H671.326ZM656.305 1038.54H662.59V1077.53C662.59 1079.31 662.848 1080.64 663.363 1081.53C663.896 1082.4 664.57 1082.98 665.387 1083.28C666.222 1083.57 667.1 1083.71 668.024 1083.71C668.716 1083.71 669.284 1083.67 669.728 1083.6C670.172 1083.51 670.527 1083.44 670.794 1083.39L672.072 1089.04C671.646 1089.2 671.051 1089.36 670.288 1089.52C669.524 1089.69 668.556 1089.78 667.385 1089.78C665.609 1089.78 663.869 1089.4 662.164 1088.64C660.478 1087.87 659.075 1086.71 657.956 1085.15C656.855 1083.59 656.305 1081.62 656.305 1079.24V1038.54ZM705.923 1104.59C704.858 1104.59 703.908 1104.5 703.073 1104.32C702.239 1104.16 701.662 1104 701.342 1103.85L702.94 1098.31C704.467 1098.7 705.817 1098.84 706.989 1098.73C708.16 1098.62 709.199 1098.1 710.105 1097.16C711.028 1096.24 711.871 1094.74 712.635 1092.66L713.807 1089.46L698.679 1048.34H705.497L716.79 1080.94H717.216L728.508 1048.34H735.327L717.962 1095.22C717.18 1097.33 716.213 1099.08 715.059 1100.46C713.904 1101.87 712.564 1102.9 711.037 1103.58C709.528 1104.25 707.823 1104.59 705.923 1104.59ZM758.777 1090.1C755.084 1090.1 751.844 1089.22 749.056 1087.47C746.286 1085.71 744.12 1083.25 742.558 1080.09C741.013 1076.93 740.241 1073.23 740.241 1069.01C740.241 1064.75 741.013 1061.03 742.558 1057.85C744.12 1054.67 746.286 1052.2 749.056 1050.44C751.844 1048.69 755.084 1047.81 758.777 1047.81C762.471 1047.81 765.702 1048.69 768.472 1050.44C771.26 1052.2 773.426 1054.67 774.971 1057.85C776.533 1061.03 777.314 1064.75 777.314 1069.01C777.314 1073.23 776.533 1076.93 774.971 1080.09C773.426 1083.25 771.26 1085.71 768.472 1087.47C765.702 1089.22 762.471 1090.1 758.777 1090.1ZM758.777 1084.46C761.583 1084.46 763.891 1083.74 765.702 1082.3C767.513 1080.86 768.854 1078.97 769.724 1076.63C770.594 1074.28 771.029 1071.74 771.029 1069.01C771.029 1066.27 770.594 1063.73 769.724 1061.36C768.854 1059 767.513 1057.09 765.702 1055.64C763.891 1054.18 761.583 1053.45 758.777 1053.45C755.972 1053.45 753.664 1054.18 751.853 1055.64C750.042 1057.09 748.701 1059 747.831 1061.36C746.961 1063.73 746.526 1066.27 746.526 1069.01C746.526 1071.74 746.961 1074.28 747.831 1076.63C748.701 1078.97 750.042 1080.86 751.853 1082.3C753.664 1083.74 755.972 1084.46 758.777 1084.46ZM812.69 1072.52V1048.34H818.976V1089.25H812.69V1082.33H812.264C811.305 1084.4 809.814 1086.17 807.79 1087.63C805.766 1089.06 803.209 1089.78 800.119 1089.78C797.562 1089.78 795.29 1089.22 793.301 1088.1C791.313 1086.97 789.75 1085.26 788.614 1082.99C787.477 1080.7 786.909 1077.82 786.909 1074.34V1048.34H793.195V1073.91C793.195 1076.89 794.029 1079.27 795.698 1081.05C797.385 1082.82 799.533 1083.71 802.143 1083.71C803.706 1083.71 805.295 1083.31 806.911 1082.51C808.544 1081.71 809.912 1080.49 811.012 1078.84C812.131 1077.19 812.69 1075.08 812.69 1072.52ZM880.559 1057.5L874.913 1059.1C874.558 1058.16 874.034 1057.25 873.342 1056.36C872.667 1055.45 871.744 1054.71 870.572 1054.12C869.4 1053.53 867.899 1053.24 866.071 1053.24C863.567 1053.24 861.481 1053.82 859.812 1054.97C858.16 1056.11 857.335 1057.56 857.335 1059.31C857.335 1060.88 857.903 1062.11 859.039 1063.02C860.176 1063.92 861.951 1064.68 864.366 1065.28L870.438 1066.77C874.096 1067.66 876.822 1069.02 878.615 1070.85C880.408 1072.66 881.305 1074.99 881.305 1077.85C881.305 1080.19 880.63 1082.29 879.281 1084.14C877.949 1085.98 876.085 1087.44 873.688 1088.5C871.291 1089.57 868.503 1090.1 865.325 1090.1C861.152 1090.1 857.699 1089.2 854.964 1087.39C852.23 1085.57 850.499 1082.93 849.771 1079.45L855.737 1077.96C856.305 1080.16 857.379 1081.81 858.959 1082.91C860.557 1084.01 862.644 1084.56 865.218 1084.56C868.148 1084.56 870.474 1083.94 872.196 1082.7C873.936 1081.44 874.806 1079.93 874.806 1078.17C874.806 1076.75 874.309 1075.56 873.315 1074.6C872.321 1073.62 870.794 1072.9 868.734 1072.42L861.916 1070.82C858.169 1069.93 855.417 1068.56 853.659 1066.69C851.919 1064.81 851.049 1062.46 851.049 1059.63C851.049 1057.33 851.697 1055.28 852.994 1053.51C854.307 1051.73 856.092 1050.34 858.347 1049.33C860.62 1048.31 863.194 1047.81 866.071 1047.81C870.119 1047.81 873.297 1048.7 875.605 1050.47C877.931 1052.25 879.583 1054.59 880.559 1057.5ZM907.919 1090.1C903.977 1090.1 900.577 1089.23 897.718 1087.49C894.877 1085.73 892.684 1083.28 891.139 1080.14C889.612 1076.98 888.849 1073.31 888.849 1069.12C888.849 1064.92 889.612 1061.23 891.139 1058.04C892.684 1054.82 894.833 1052.32 897.585 1050.52C900.355 1048.71 903.586 1047.81 907.279 1047.81C909.41 1047.81 911.514 1048.16 913.591 1048.87C915.669 1049.58 917.56 1050.74 919.264 1052.34C920.969 1053.92 922.327 1056.01 923.339 1058.62C924.351 1061.23 924.857 1064.45 924.857 1068.26V1070.93H893.323V1065.49H918.465C918.465 1063.18 918.004 1061.12 917.08 1059.31C916.175 1057.5 914.879 1056.07 913.192 1055.03C911.523 1053.98 909.552 1053.45 907.279 1053.45C904.776 1053.45 902.61 1054.08 900.781 1055.32C898.97 1056.54 897.576 1058.14 896.599 1060.11C895.623 1062.08 895.134 1064.2 895.134 1066.45V1070.07C895.134 1073.16 895.667 1075.78 896.732 1077.93C897.816 1080.06 899.316 1081.69 901.233 1082.8C903.151 1083.91 905.379 1084.46 907.919 1084.46C909.57 1084.46 911.061 1084.23 912.393 1083.76C913.742 1083.28 914.905 1082.57 915.882 1081.63C916.858 1080.67 917.613 1079.48 918.146 1078.06L924.218 1079.77C923.579 1081.83 922.505 1083.64 920.996 1085.2C919.486 1086.75 917.622 1087.95 915.403 1088.82C913.183 1089.68 910.688 1090.1 907.919 1090.1ZM951.571 1090.1C947.629 1090.1 944.229 1089.23 941.37 1087.49C938.529 1085.73 936.336 1083.28 934.792 1080.14C933.265 1076.98 932.501 1073.31 932.501 1069.12C932.501 1064.92 933.265 1061.23 934.792 1058.04C936.336 1054.82 938.485 1052.32 941.237 1050.52C944.007 1048.71 947.238 1047.81 950.932 1047.81C953.062 1047.81 955.166 1048.16 957.244 1048.87C959.321 1049.58 961.212 1050.74 962.917 1052.34C964.621 1053.92 965.98 1056.01 966.992 1058.62C968.004 1061.23 968.51 1064.45 968.51 1068.26V1070.93H936.976V1065.49H962.118C962.118 1063.18 961.656 1061.12 960.733 1059.31C959.827 1057.5 958.531 1056.07 956.844 1055.03C955.175 1053.98 953.204 1053.45 950.932 1053.45C948.428 1053.45 946.262 1054.08 944.433 1055.32C942.622 1056.54 941.228 1058.14 940.252 1060.11C939.275 1062.08 938.787 1064.2 938.787 1066.45V1070.07C938.787 1073.16 939.319 1075.78 940.385 1077.93C941.468 1080.06 942.968 1081.69 944.886 1082.8C946.803 1083.91 949.032 1084.46 951.571 1084.46C953.222 1084.46 954.714 1084.23 956.045 1083.76C957.395 1083.28 958.558 1082.57 959.534 1081.63C960.511 1080.67 961.265 1079.48 961.798 1078.06L967.871 1079.77C967.231 1081.83 966.157 1083.64 964.648 1085.2C963.139 1086.75 961.274 1087.95 959.055 1088.82C956.835 1089.68 954.341 1090.1 951.571 1090.1ZM999.165 1089.25V1048.34H1005.45V1089.25H999.165ZM1002.36 1041.52C1001.14 1041.52 1000.08 1041.11 999.192 1040.27C998.322 1039.44 997.887 1038.43 997.887 1037.26C997.887 1036.09 998.322 1035.09 999.192 1034.25C1000.08 1033.42 1001.14 1033 1002.36 1033C1003.59 1033 1004.63 1033.42 1005.5 1034.25C1006.39 1035.09 1006.84 1036.09 1006.84 1037.26C1006.84 1038.43 1006.39 1039.44 1005.5 1040.27C1004.63 1041.11 1003.59 1041.52 1002.36 1041.52ZM1023.25 1064.64V1089.25H1016.96V1048.34H1023.04V1054.73H1023.57C1024.53 1052.66 1025.98 1050.99 1027.94 1049.73C1029.89 1048.45 1032.41 1047.81 1035.5 1047.81C1038.27 1047.81 1040.69 1048.38 1042.77 1049.51C1044.85 1050.63 1046.46 1052.34 1047.62 1054.63C1048.77 1056.9 1049.35 1059.78 1049.35 1063.26V1089.25H1043.06V1063.68C1043.06 1060.47 1042.23 1057.96 1040.56 1056.17C1038.89 1054.36 1036.6 1053.45 1033.69 1053.45C1031.68 1053.45 1029.89 1053.89 1028.31 1054.76C1026.75 1055.63 1025.51 1056.9 1024.61 1058.57C1023.7 1060.24 1023.25 1062.26 1023.25 1064.64ZM1099.72 1048.34V1053.67H1078.52V1048.34H1099.72ZM1084.7 1038.54H1090.98V1077.53C1090.98 1079.31 1091.24 1080.64 1091.76 1081.53C1092.29 1082.4 1092.96 1082.98 1093.78 1083.28C1094.62 1083.57 1095.49 1083.71 1096.42 1083.71C1097.11 1083.71 1097.68 1083.67 1098.12 1083.6C1098.57 1083.51 1098.92 1083.44 1099.19 1083.39L1100.47 1089.04C1100.04 1089.2 1099.44 1089.36 1098.68 1089.52C1097.92 1089.69 1096.95 1089.78 1095.78 1089.78C1094 1089.78 1092.26 1089.4 1090.56 1088.64C1088.87 1087.87 1087.47 1086.71 1086.35 1085.15C1085.25 1083.59 1084.7 1081.62 1084.7 1079.24V1038.54ZM1116.34 1064.64V1089.25H1110.05V1034.7H1116.34V1054.73H1116.87C1117.83 1052.62 1119.27 1050.94 1121.19 1049.7C1123.12 1048.44 1125.7 1047.81 1128.91 1047.81C1131.7 1047.81 1134.14 1048.37 1136.23 1049.49C1138.33 1050.59 1139.95 1052.28 1141.11 1054.57C1142.28 1056.85 1142.87 1059.74 1142.87 1063.26V1089.25H1136.58V1063.68C1136.58 1060.43 1135.74 1057.92 1134.05 1056.14C1132.38 1054.35 1130.06 1053.45 1127.1 1053.45C1125.04 1053.45 1123.19 1053.89 1121.56 1054.76C1119.94 1055.63 1118.67 1056.9 1117.72 1058.57C1116.8 1060.24 1116.34 1062.26 1116.34 1064.64ZM1171.52 1090.1C1167.58 1090.1 1164.18 1089.23 1161.32 1087.49C1158.48 1085.73 1156.28 1083.28 1154.74 1080.14C1153.21 1076.98 1152.45 1073.31 1152.45 1069.12C1152.45 1064.92 1153.21 1061.23 1154.74 1058.04C1156.28 1054.82 1158.43 1052.32 1161.18 1050.52C1163.95 1048.71 1167.18 1047.81 1170.88 1047.81C1173.01 1047.81 1175.11 1048.16 1177.19 1048.87C1179.27 1049.58 1181.16 1050.74 1182.86 1052.34C1184.57 1053.92 1185.93 1056.01 1186.94 1058.62C1187.95 1061.23 1188.46 1064.45 1188.46 1068.26V1070.93H1156.92V1065.49H1182.06C1182.06 1063.18 1181.6 1061.12 1180.68 1059.31C1179.77 1057.5 1178.48 1056.07 1176.79 1055.03C1175.12 1053.98 1173.15 1053.45 1170.88 1053.45C1168.37 1053.45 1166.21 1054.08 1164.38 1055.32C1162.57 1056.54 1161.17 1058.14 1160.2 1060.11C1159.22 1062.08 1158.73 1064.2 1158.73 1066.45V1070.07C1158.73 1073.16 1159.27 1075.78 1160.33 1077.93C1161.41 1080.06 1162.91 1081.69 1164.83 1082.8C1166.75 1083.91 1168.98 1084.46 1171.52 1084.46C1173.17 1084.46 1174.66 1084.23 1175.99 1083.76C1177.34 1083.28 1178.5 1082.57 1179.48 1081.63C1180.46 1080.67 1181.21 1079.48 1181.74 1078.06L1187.82 1079.77C1187.18 1081.83 1186.1 1083.64 1184.59 1085.2C1183.08 1086.75 1181.22 1087.95 1179 1088.82C1176.78 1089.68 1174.29 1090.1 1171.52 1090.1ZM1248.09 1057.5L1242.44 1059.1C1242.09 1058.16 1241.56 1057.25 1240.87 1056.36C1240.2 1055.45 1239.27 1054.71 1238.1 1054.12C1236.93 1053.53 1235.43 1053.24 1233.6 1053.24C1231.1 1053.24 1229.01 1053.82 1227.34 1054.97C1225.69 1056.11 1224.86 1057.56 1224.86 1059.31C1224.86 1060.88 1225.43 1062.11 1226.57 1063.02C1227.7 1063.92 1229.48 1064.68 1231.9 1065.28L1237.97 1066.77C1241.63 1067.66 1244.35 1069.02 1246.14 1070.85C1247.94 1072.66 1248.83 1074.99 1248.83 1077.85C1248.83 1080.19 1248.16 1082.29 1246.81 1084.14C1245.48 1085.98 1243.61 1087.44 1241.22 1088.5C1238.82 1089.57 1236.03 1090.1 1232.85 1090.1C1228.68 1090.1 1225.23 1089.2 1222.49 1087.39C1219.76 1085.57 1218.03 1082.93 1217.3 1079.45L1223.27 1077.96C1223.83 1080.16 1224.91 1081.81 1226.49 1082.91C1228.09 1084.01 1230.17 1084.56 1232.75 1084.56C1235.68 1084.56 1238 1083.94 1239.73 1082.7C1241.47 1081.44 1242.34 1079.93 1242.34 1078.17C1242.34 1076.75 1241.84 1075.56 1240.84 1074.6C1239.85 1073.62 1238.32 1072.9 1236.26 1072.42L1229.45 1070.82C1225.7 1069.93 1222.95 1068.56 1221.19 1066.69C1219.45 1064.81 1218.58 1062.46 1218.58 1059.63C1218.58 1057.33 1219.23 1055.28 1220.52 1053.51C1221.84 1051.73 1223.62 1050.34 1225.88 1049.33C1228.15 1048.31 1230.72 1047.81 1233.6 1047.81C1237.65 1047.81 1240.83 1048.7 1243.13 1050.47C1245.46 1052.25 1247.11 1054.59 1248.09 1057.5ZM1275.45 1090.1C1271.51 1090.1 1268.11 1089.23 1265.25 1087.49C1262.41 1085.73 1260.21 1083.28 1258.67 1080.14C1257.14 1076.98 1256.38 1073.31 1256.38 1069.12C1256.38 1064.92 1257.14 1061.23 1258.67 1058.04C1260.21 1054.82 1262.36 1052.32 1265.11 1050.52C1267.88 1048.71 1271.12 1047.81 1274.81 1047.81C1276.94 1047.81 1279.04 1048.16 1281.12 1048.87C1283.2 1049.58 1285.09 1050.74 1286.79 1052.34C1288.5 1053.92 1289.86 1056.01 1290.87 1058.62C1291.88 1061.23 1292.39 1064.45 1292.39 1068.26V1070.93H1260.85V1065.49H1285.99C1285.99 1063.18 1285.53 1061.12 1284.61 1059.31C1283.7 1057.5 1282.41 1056.07 1280.72 1055.03C1279.05 1053.98 1277.08 1053.45 1274.81 1053.45C1272.31 1053.45 1270.14 1054.08 1268.31 1055.32C1266.5 1056.54 1265.11 1058.14 1264.13 1060.11C1263.15 1062.08 1262.66 1064.2 1262.66 1066.45V1070.07C1262.66 1073.16 1263.2 1075.78 1264.26 1077.93C1265.34 1080.06 1266.85 1081.69 1268.76 1082.8C1270.68 1083.91 1272.91 1084.46 1275.45 1084.46C1277.1 1084.46 1278.59 1084.23 1279.92 1083.76C1281.27 1083.28 1282.43 1082.57 1283.41 1081.63C1284.39 1080.67 1285.14 1079.48 1285.68 1078.06L1291.75 1079.77C1291.11 1081.83 1290.03 1083.64 1288.52 1085.2C1287.02 1086.75 1285.15 1087.95 1282.93 1088.82C1280.71 1089.68 1278.22 1090.1 1275.45 1090.1ZM1308.23 1034.7V1089.25H1301.95V1034.7H1308.23ZM1336.9 1090.1C1332.96 1090.1 1329.56 1089.23 1326.7 1087.49C1323.86 1085.73 1321.66 1083.28 1320.12 1080.14C1318.59 1076.98 1317.83 1073.31 1317.83 1069.12C1317.83 1064.92 1318.59 1061.23 1320.12 1058.04C1321.66 1054.82 1323.81 1052.32 1326.56 1050.52C1329.33 1048.71 1332.57 1047.81 1336.26 1047.81C1338.39 1047.81 1340.49 1048.16 1342.57 1048.87C1344.65 1049.58 1346.54 1050.74 1348.24 1052.34C1349.95 1053.92 1351.31 1056.01 1352.32 1058.62C1353.33 1061.23 1353.84 1064.45 1353.84 1068.26V1070.93H1322.3V1065.49H1347.44C1347.44 1063.18 1346.98 1061.12 1346.06 1059.31C1345.15 1057.5 1343.86 1056.07 1342.17 1055.03C1340.5 1053.98 1338.53 1053.45 1336.26 1053.45C1333.76 1053.45 1331.59 1054.08 1329.76 1055.32C1327.95 1056.54 1326.56 1058.14 1325.58 1060.11C1324.6 1062.08 1324.11 1064.2 1324.11 1066.45V1070.07C1324.11 1073.16 1324.65 1075.78 1325.71 1077.93C1326.8 1080.06 1328.3 1081.69 1330.21 1082.8C1332.13 1083.91 1334.36 1084.46 1336.9 1084.46C1338.55 1084.46 1340.04 1084.23 1341.37 1083.76C1342.72 1083.28 1343.88 1082.57 1344.86 1081.63C1345.84 1080.67 1346.59 1079.48 1347.13 1078.06L1353.2 1079.77C1352.56 1081.83 1351.48 1083.64 1349.98 1085.2C1348.47 1086.75 1346.6 1087.95 1344.38 1088.82C1342.16 1089.68 1339.67 1090.1 1336.9 1090.1ZM1380.02 1090.1C1376.18 1090.1 1372.88 1089.2 1370.11 1087.39C1367.34 1085.57 1365.21 1083.08 1363.72 1079.9C1362.23 1076.72 1361.48 1073.09 1361.48 1069.01C1361.48 1064.85 1362.24 1061.19 1363.77 1058.01C1365.32 1054.81 1367.46 1052.32 1370.22 1050.52C1372.99 1048.71 1376.22 1047.81 1379.91 1047.81C1382.79 1047.81 1385.38 1048.34 1387.69 1049.41C1390 1050.47 1391.89 1051.96 1393.36 1053.88C1394.83 1055.8 1395.75 1058.04 1396.1 1060.59H1389.82C1389.34 1058.73 1388.27 1057.08 1386.62 1055.64C1384.99 1054.18 1382.79 1053.45 1380.02 1053.45C1377.57 1053.45 1375.42 1054.09 1373.57 1055.37C1371.74 1056.63 1370.31 1058.42 1369.28 1060.73C1368.27 1063.02 1367.77 1065.71 1367.77 1068.8C1367.77 1071.96 1368.26 1074.71 1369.26 1077.05C1370.27 1079.4 1371.69 1081.22 1373.52 1082.51C1375.37 1083.81 1377.53 1084.46 1380.02 1084.46C1381.65 1084.46 1383.13 1084.17 1384.47 1083.6C1385.8 1083.04 1386.92 1082.22 1387.85 1081.15C1388.77 1080.09 1389.43 1078.81 1389.82 1077.32H1396.1C1395.75 1079.73 1394.87 1081.91 1393.47 1083.84C1392.08 1085.76 1390.24 1087.29 1387.95 1088.42C1385.68 1089.54 1383.04 1090.1 1380.02 1090.1ZM1423.08 1048.34V1053.67H1401.88V1048.34H1423.08ZM1408.06 1038.54H1414.35V1077.53C1414.35 1079.31 1414.61 1080.64 1415.12 1081.53C1415.65 1082.4 1416.33 1082.98 1417.14 1083.28C1417.98 1083.57 1418.86 1083.71 1419.78 1083.71C1420.47 1083.71 1421.04 1083.67 1421.49 1083.6C1421.93 1083.51 1422.29 1083.44 1422.55 1083.39L1423.83 1089.04C1423.4 1089.2 1422.81 1089.36 1422.05 1089.52C1421.28 1089.69 1420.31 1089.78 1419.14 1089.78C1417.37 1089.78 1415.63 1089.4 1413.92 1088.64C1412.24 1087.87 1410.83 1086.71 1409.71 1085.15C1408.61 1083.59 1408.06 1081.62 1408.06 1079.24V1038.54ZM1432.54 1089.25V1048.34H1438.82V1089.25H1432.54ZM1435.73 1041.52C1434.51 1041.52 1433.45 1041.11 1432.57 1040.27C1431.7 1039.44 1431.26 1038.43 1431.26 1037.26C1431.26 1036.09 1431.7 1035.09 1432.57 1034.25C1433.45 1033.42 1434.51 1033 1435.73 1033C1436.96 1033 1438.01 1033.42 1438.88 1034.25C1439.77 1035.09 1440.21 1036.09 1440.21 1037.26C1440.21 1038.43 1439.77 1039.44 1438.88 1040.27C1438.01 1041.11 1436.96 1041.52 1435.73 1041.52ZM1466.96 1090.1C1463.26 1090.1 1460.02 1089.22 1457.23 1087.47C1454.47 1085.71 1452.3 1083.25 1450.74 1080.09C1449.19 1076.93 1448.42 1073.23 1448.42 1069.01C1448.42 1064.75 1449.19 1061.03 1450.74 1057.85C1452.3 1054.67 1454.47 1052.2 1457.23 1050.44C1460.02 1048.69 1463.26 1047.81 1466.96 1047.81C1470.65 1047.81 1473.88 1048.69 1476.65 1050.44C1479.44 1052.2 1481.6 1054.67 1483.15 1057.85C1484.71 1061.03 1485.49 1064.75 1485.49 1069.01C1485.49 1073.23 1484.71 1076.93 1483.15 1080.09C1481.6 1083.25 1479.44 1085.71 1476.65 1087.47C1473.88 1089.22 1470.65 1090.1 1466.96 1090.1ZM1466.96 1084.46C1469.76 1084.46 1472.07 1083.74 1473.88 1082.3C1475.69 1080.86 1477.03 1078.97 1477.9 1076.63C1478.77 1074.28 1479.21 1071.74 1479.21 1069.01C1479.21 1066.27 1478.77 1063.73 1477.9 1061.36C1477.03 1059 1475.69 1057.09 1473.88 1055.64C1472.07 1054.18 1469.76 1053.45 1466.96 1053.45C1464.15 1053.45 1461.84 1054.18 1460.03 1055.64C1458.22 1057.09 1456.88 1059 1456.01 1061.36C1455.14 1063.73 1454.7 1066.27 1454.7 1069.01C1454.7 1071.74 1455.14 1074.28 1456.01 1076.63C1456.88 1078.97 1458.22 1080.86 1460.03 1082.3C1461.84 1083.74 1464.15 1084.46 1466.96 1084.46ZM1501.37 1064.64V1089.25H1495.09V1048.34H1501.16V1054.73H1501.69C1502.65 1052.66 1504.11 1050.99 1506.06 1049.73C1508.01 1048.45 1510.54 1047.81 1513.62 1047.81C1516.39 1047.81 1518.82 1048.38 1520.9 1049.51C1522.97 1050.63 1524.59 1052.34 1525.74 1054.63C1526.9 1056.9 1527.47 1059.78 1527.47 1063.26V1089.25H1521.19V1063.68C1521.19 1060.47 1520.35 1057.96 1518.69 1056.17C1517.02 1054.36 1514.73 1053.45 1511.81 1053.45C1509.81 1053.45 1508.01 1053.89 1506.43 1054.76C1504.87 1055.63 1503.64 1056.9 1502.73 1058.57C1501.83 1060.24 1501.37 1062.26 1501.37 1064.64ZM1577.84 1048.34V1053.67H1556.64V1048.34H1577.84ZM1562.82 1038.54H1569.11V1077.53C1569.11 1079.31 1569.37 1080.64 1569.88 1081.53C1570.41 1082.4 1571.09 1082.98 1571.91 1083.28C1572.74 1083.57 1573.62 1083.71 1574.54 1083.71C1575.23 1083.71 1575.8 1083.67 1576.25 1083.6C1576.69 1083.51 1577.05 1083.44 1577.31 1083.39L1578.59 1089.04C1578.16 1089.2 1577.57 1089.36 1576.81 1089.52C1576.04 1089.69 1575.07 1089.78 1573.9 1089.78C1572.13 1089.78 1570.39 1089.4 1568.68 1088.64C1567 1087.87 1565.59 1086.71 1564.47 1085.15C1563.37 1083.59 1562.82 1081.62 1562.82 1079.24V1038.54ZM1599.34 1090.21C1596.75 1090.21 1594.39 1089.72 1592.28 1088.74C1590.17 1087.75 1588.49 1086.32 1587.25 1084.46C1586 1082.57 1585.38 1080.3 1585.38 1077.64C1585.38 1075.29 1585.84 1073.39 1586.77 1071.94C1587.69 1070.46 1588.92 1069.31 1590.47 1068.48C1592.01 1067.64 1593.72 1067.02 1595.58 1066.61C1597.46 1066.19 1599.36 1065.85 1601.26 1065.6C1603.74 1065.28 1605.76 1065.04 1607.3 1064.88C1608.86 1064.7 1610 1064.41 1610.71 1064C1611.44 1063.59 1611.8 1062.88 1611.8 1061.87V1061.66C1611.8 1059.03 1611.08 1056.99 1609.65 1055.53C1608.22 1054.08 1606.07 1053.35 1603.17 1053.35C1600.17 1053.35 1597.82 1054 1596.12 1055.32C1594.41 1056.63 1593.21 1058.04 1592.52 1059.53L1586.55 1057.4C1587.62 1054.91 1589.04 1052.98 1590.82 1051.59C1592.61 1050.19 1594.56 1049.21 1596.67 1048.66C1598.81 1048.09 1600.9 1047.81 1602.96 1047.81C1604.27 1047.81 1605.78 1047.97 1607.49 1048.29C1609.21 1048.59 1610.87 1049.22 1612.47 1050.18C1614.08 1051.14 1615.42 1052.58 1616.49 1054.52C1617.56 1056.46 1618.09 1059.05 1618.09 1062.3V1089.25H1611.8V1083.71H1611.48C1611.06 1084.6 1610.35 1085.55 1609.35 1086.56C1608.36 1087.57 1607.04 1088.43 1605.38 1089.14C1603.73 1089.85 1601.72 1090.21 1599.34 1090.21ZM1600.3 1084.56C1602.78 1084.56 1604.88 1084.07 1606.58 1083.1C1608.3 1082.12 1609.6 1080.86 1610.47 1079.32C1611.36 1077.77 1611.8 1076.15 1611.8 1074.44V1068.69C1611.54 1069.01 1610.95 1069.3 1610.04 1069.57C1609.16 1069.82 1608.13 1070.04 1606.96 1070.23C1605.8 1070.41 1604.67 1070.57 1603.57 1070.71C1602.49 1070.84 1601.61 1070.94 1600.94 1071.03C1599.3 1071.25 1597.78 1071.59 1596.36 1072.07C1594.95 1072.53 1593.82 1073.23 1592.95 1074.18C1592.09 1075.1 1591.67 1076.36 1591.67 1077.96C1591.67 1080.14 1592.48 1081.79 1594.09 1082.91C1595.72 1084.01 1597.79 1084.56 1600.3 1084.56ZM1630.41 1089.25V1034.7H1636.7V1054.84H1637.23C1637.69 1054.13 1638.33 1053.22 1639.15 1052.12C1639.98 1051 1641.17 1050.01 1642.72 1049.14C1644.28 1048.25 1646.39 1047.81 1649.06 1047.81C1652.5 1047.81 1655.54 1048.67 1658.16 1050.39C1660.79 1052.11 1662.84 1054.56 1664.32 1057.72C1665.79 1060.88 1666.53 1064.61 1666.53 1068.9C1666.53 1073.23 1665.79 1076.99 1664.32 1080.17C1662.84 1083.33 1660.8 1085.78 1658.19 1087.52C1655.58 1089.24 1652.57 1090.1 1649.16 1090.1C1646.53 1090.1 1644.43 1089.67 1642.85 1088.8C1641.27 1087.91 1640.05 1086.91 1639.2 1085.79C1638.35 1084.65 1637.69 1083.71 1637.23 1082.96H1636.49V1089.25H1630.41ZM1636.59 1068.8C1636.59 1071.88 1637.04 1074.61 1637.95 1076.97C1638.86 1079.32 1640.18 1081.15 1641.92 1082.49C1643.66 1083.8 1645.79 1084.46 1648.31 1084.46C1650.94 1084.46 1653.13 1083.76 1654.89 1082.38C1656.66 1080.98 1658 1079.09 1658.88 1076.73C1659.79 1074.35 1660.24 1071.71 1660.24 1068.8C1660.24 1065.92 1659.8 1063.33 1658.91 1061.02C1658.04 1058.69 1656.72 1056.85 1654.94 1055.51C1653.18 1054.14 1650.97 1053.45 1648.31 1053.45C1645.75 1053.45 1643.61 1054.1 1641.87 1055.4C1640.13 1056.68 1638.81 1058.47 1637.92 1060.78C1637.04 1063.07 1636.59 1065.74 1636.59 1068.8ZM1706.5 1089.25L1694.04 1048.34H1700.65L1709.49 1079.66H1709.91L1718.65 1048.34H1725.36L1733.99 1079.56H1734.42L1743.26 1048.34H1749.86L1737.4 1089.25H1731.22L1722.27 1057.82H1721.63L1712.68 1089.25H1706.5ZM1764.46 1064.64V1089.25H1758.17V1034.7H1764.46V1054.73H1764.99C1765.95 1052.62 1767.39 1050.94 1769.31 1049.7C1771.24 1048.44 1773.82 1047.81 1777.03 1047.81C1779.82 1047.81 1782.26 1048.37 1784.35 1049.49C1786.45 1050.59 1788.07 1052.28 1789.23 1054.57C1790.4 1056.85 1790.99 1059.74 1790.99 1063.26V1089.25H1784.7V1063.68C1784.7 1060.43 1783.86 1057.92 1782.17 1056.14C1780.5 1054.35 1778.18 1053.45 1775.22 1053.45C1773.16 1053.45 1771.31 1053.89 1769.68 1054.76C1768.06 1055.63 1766.79 1056.9 1765.84 1058.57C1764.92 1060.24 1764.46 1062.26 1764.46 1064.64ZM1819.64 1090.1C1815.7 1090.1 1812.3 1089.23 1809.44 1087.49C1806.6 1085.73 1804.4 1083.28 1802.86 1080.14C1801.33 1076.98 1800.57 1073.31 1800.57 1069.12C1800.57 1064.92 1801.33 1061.23 1802.86 1058.04C1804.4 1054.82 1806.55 1052.32 1809.3 1050.52C1812.07 1048.71 1815.3 1047.81 1819 1047.81C1821.13 1047.81 1823.23 1048.16 1825.31 1048.87C1827.39 1049.58 1829.28 1050.74 1830.98 1052.34C1832.69 1053.92 1834.05 1056.01 1835.06 1058.62C1836.07 1061.23 1836.58 1064.45 1836.58 1068.26V1070.93H1805.04V1065.49H1830.18C1830.18 1063.18 1829.72 1061.12 1828.8 1059.31C1827.89 1057.5 1826.6 1056.07 1824.91 1055.03C1823.24 1053.98 1821.27 1053.45 1819 1053.45C1816.49 1053.45 1814.33 1054.08 1812.5 1055.32C1810.69 1056.54 1809.29 1058.14 1808.32 1060.11C1807.34 1062.08 1806.85 1064.2 1806.85 1066.45V1070.07C1806.85 1073.16 1807.39 1075.78 1808.45 1077.93C1809.53 1080.06 1811.03 1081.69 1812.95 1082.8C1814.87 1083.91 1817.1 1084.46 1819.64 1084.46C1821.29 1084.46 1822.78 1084.23 1824.11 1083.76C1825.46 1083.28 1826.62 1082.57 1827.6 1081.63C1828.58 1080.67 1829.33 1079.48 1829.86 1078.06L1835.94 1079.77C1835.3 1081.83 1834.22 1083.64 1832.71 1085.2C1831.21 1086.75 1829.34 1087.95 1827.12 1088.82C1824.9 1089.68 1822.41 1090.1 1819.64 1090.1ZM1852.42 1064.64V1089.25H1846.14V1048.34H1852.21V1054.73H1852.74C1853.7 1052.66 1855.16 1050.99 1857.11 1049.73C1859.06 1048.45 1861.59 1047.81 1864.67 1047.81C1867.44 1047.81 1869.87 1048.38 1871.95 1049.51C1874.02 1050.63 1875.64 1052.34 1876.79 1054.63C1877.95 1056.9 1878.52 1059.78 1878.52 1063.26V1089.25H1872.24V1063.68C1872.24 1060.47 1871.4 1057.96 1869.73 1056.17C1868.07 1054.36 1865.78 1053.45 1862.86 1053.45C1860.86 1053.45 1859.06 1053.89 1857.48 1054.76C1855.92 1055.63 1854.69 1056.9 1853.78 1058.57C1852.88 1060.24 1852.42 1062.26 1852.42 1064.64ZM1940.08 1057.5L1934.43 1059.1C1934.08 1058.16 1933.56 1057.25 1932.86 1056.36C1932.19 1055.45 1931.27 1054.71 1930.09 1054.12C1928.92 1053.53 1927.42 1053.24 1925.59 1053.24C1923.09 1053.24 1921 1053.82 1919.33 1054.97C1917.68 1056.11 1916.86 1057.56 1916.86 1059.31C1916.86 1060.88 1917.42 1062.11 1918.56 1063.02C1919.7 1063.92 1921.47 1064.68 1923.89 1065.28L1929.96 1066.77C1933.62 1067.66 1936.34 1069.02 1938.14 1070.85C1939.93 1072.66 1940.83 1074.99 1940.83 1077.85C1940.83 1080.19 1940.15 1082.29 1938.8 1084.14C1937.47 1085.98 1935.61 1087.44 1933.21 1088.5C1930.81 1089.57 1928.02 1090.1 1924.85 1090.1C1920.67 1090.1 1917.22 1089.2 1914.49 1087.39C1911.75 1085.57 1910.02 1082.93 1909.29 1079.45L1915.26 1077.96C1915.83 1080.16 1916.9 1081.81 1918.48 1082.91C1920.08 1084.01 1922.17 1084.56 1924.74 1084.56C1927.67 1084.56 1930 1083.94 1931.72 1082.7C1933.46 1081.44 1934.33 1079.93 1934.33 1078.17C1934.33 1076.75 1933.83 1075.56 1932.84 1074.6C1931.84 1073.62 1930.32 1072.9 1928.26 1072.42L1921.44 1070.82C1917.69 1069.93 1914.94 1068.56 1913.18 1066.69C1911.44 1064.81 1910.57 1062.46 1910.57 1059.63C1910.57 1057.33 1911.22 1055.28 1912.52 1053.51C1913.83 1051.73 1915.61 1050.34 1917.87 1049.33C1920.14 1048.31 1922.72 1047.81 1925.59 1047.81C1929.64 1047.81 1932.82 1048.7 1935.13 1050.47C1937.45 1052.25 1939.1 1054.59 1940.08 1057.5ZM1967.44 1090.1C1963.5 1090.1 1960.1 1089.23 1957.24 1087.49C1954.4 1085.73 1952.21 1083.28 1950.66 1080.14C1949.13 1076.98 1948.37 1073.31 1948.37 1069.12C1948.37 1064.92 1949.13 1061.23 1950.66 1058.04C1952.21 1054.82 1954.35 1052.32 1957.11 1050.52C1959.88 1048.71 1963.11 1047.81 1966.8 1047.81C1968.93 1047.81 1971.04 1048.16 1973.11 1048.87C1975.19 1049.58 1977.08 1050.74 1978.79 1052.34C1980.49 1053.92 1981.85 1056.01 1982.86 1058.62C1983.87 1061.23 1984.38 1064.45 1984.38 1068.26V1070.93H1952.84V1065.49H1977.99C1977.99 1063.18 1977.53 1061.12 1976.6 1059.31C1975.7 1057.5 1974.4 1056.07 1972.71 1055.03C1971.04 1053.98 1969.07 1053.45 1966.8 1053.45C1964.3 1053.45 1962.13 1054.08 1960.3 1055.32C1958.49 1056.54 1957.1 1058.14 1956.12 1060.11C1955.14 1062.08 1954.66 1064.2 1954.66 1066.45V1070.07C1954.66 1073.16 1955.19 1075.78 1956.25 1077.93C1957.34 1080.06 1958.84 1081.69 1960.75 1082.8C1962.67 1083.91 1964.9 1084.46 1967.44 1084.46C1969.09 1084.46 1970.58 1084.23 1971.91 1083.76C1973.26 1083.28 1974.43 1082.57 1975.4 1081.63C1976.38 1080.67 1977.13 1079.48 1977.67 1078.06L1983.74 1079.77C1983.1 1081.83 1982.03 1083.64 1980.52 1085.2C1979.01 1086.75 1977.14 1087.95 1974.92 1088.82C1972.7 1089.68 1970.21 1090.1 1967.44 1090.1ZM2000.23 1034.7V1089.25H1993.94V1034.7H2000.23ZM2028.89 1090.1C2024.95 1090.1 2021.55 1089.23 2018.69 1087.49C2015.85 1085.73 2013.66 1083.28 2012.11 1080.14C2010.58 1076.98 2009.82 1073.31 2009.82 1069.12C2009.82 1064.92 2010.58 1061.23 2012.11 1058.04C2013.66 1054.82 2015.8 1052.32 2018.56 1050.52C2021.33 1048.71 2024.56 1047.81 2028.25 1047.81C2030.38 1047.81 2032.49 1048.16 2034.56 1048.87C2036.64 1049.58 2038.53 1050.74 2040.24 1052.34C2041.94 1053.92 2043.3 1056.01 2044.31 1058.62C2045.32 1061.23 2045.83 1064.45 2045.83 1068.26V1070.93H2014.3V1065.49H2039.44C2039.44 1063.18 2038.98 1061.12 2038.05 1059.31C2037.15 1057.5 2035.85 1056.07 2034.16 1055.03C2032.49 1053.98 2030.52 1053.45 2028.25 1053.45C2025.75 1053.45 2023.58 1054.08 2021.75 1055.32C2019.94 1056.54 2018.55 1058.14 2017.57 1060.11C2016.59 1062.08 2016.11 1064.2 2016.11 1066.45V1070.07C2016.11 1073.16 2016.64 1075.78 2017.7 1077.93C2018.79 1080.06 2020.29 1081.69 2022.21 1082.8C2024.12 1083.91 2026.35 1084.46 2028.89 1084.46C2030.54 1084.46 2032.03 1084.23 2033.36 1083.76C2034.71 1083.28 2035.88 1082.57 2036.85 1081.63C2037.83 1080.67 2038.58 1079.48 2039.12 1078.06L2045.19 1079.77C2044.55 1081.83 2043.48 1083.64 2041.97 1085.2C2040.46 1086.75 2038.59 1087.95 2036.37 1088.82C2034.15 1089.68 2031.66 1090.1 2028.89 1090.1ZM2072.01 1090.1C2068.17 1090.1 2064.87 1089.2 2062.1 1087.39C2059.33 1085.57 2057.2 1083.08 2055.71 1079.9C2054.22 1076.72 2053.47 1073.09 2053.47 1069.01C2053.47 1064.85 2054.24 1061.19 2055.76 1058.01C2057.31 1054.81 2059.46 1052.32 2062.21 1050.52C2064.98 1048.71 2068.21 1047.81 2071.9 1047.81C2074.78 1047.81 2077.37 1048.34 2079.68 1049.41C2081.99 1050.47 2083.88 1051.96 2085.35 1053.88C2086.83 1055.8 2087.74 1058.04 2088.1 1060.59H2081.81C2081.33 1058.73 2080.27 1057.08 2078.61 1055.64C2076.98 1054.18 2074.78 1053.45 2072.01 1053.45C2069.56 1053.45 2067.41 1054.09 2065.56 1055.37C2063.74 1056.63 2062.31 1058.42 2061.28 1060.73C2060.26 1063.02 2059.76 1065.71 2059.76 1068.8C2059.76 1071.96 2060.26 1074.71 2061.25 1077.05C2062.26 1079.4 2063.68 1081.22 2065.51 1082.51C2067.36 1083.81 2069.52 1084.46 2072.01 1084.46C2073.64 1084.46 2075.13 1084.17 2076.46 1083.6C2077.79 1083.04 2078.92 1082.22 2079.84 1081.15C2080.76 1080.09 2081.42 1078.81 2081.81 1077.32H2088.1C2087.74 1079.73 2086.86 1081.91 2085.46 1083.84C2084.07 1085.76 2082.24 1087.29 2079.95 1088.42C2077.67 1089.54 2075.03 1090.1 2072.01 1090.1ZM2115.08 1048.34V1053.67H2093.88V1048.34H2115.08ZM2100.05 1038.54H2106.34V1077.53C2106.34 1079.31 2106.6 1080.64 2107.11 1081.53C2107.65 1082.4 2108.32 1082.98 2109.14 1083.28C2109.97 1083.57 2110.85 1083.71 2111.77 1083.71C2112.47 1083.71 2113.03 1083.67 2113.48 1083.6C2113.92 1083.51 2114.28 1083.44 2114.54 1083.39L2115.82 1089.04C2115.4 1089.2 2114.8 1089.36 2114.04 1089.52C2113.27 1089.69 2112.31 1089.78 2111.13 1089.78C2109.36 1089.78 2107.62 1089.4 2105.91 1088.64C2104.23 1087.87 2102.82 1086.71 2101.71 1085.15C2100.61 1083.59 2100.05 1081.62 2100.05 1079.24V1038.54ZM2124.53 1089.25V1048.34H2130.82V1089.25H2124.53ZM2127.73 1041.52C2126.5 1041.52 2125.45 1041.11 2124.56 1040.27C2123.69 1039.44 2123.25 1038.43 2123.25 1037.26C2123.25 1036.09 2123.69 1035.09 2124.56 1034.25C2125.45 1033.42 2126.5 1033 2127.73 1033C2128.95 1033 2130 1033.42 2130.87 1034.25C2131.76 1035.09 2132.2 1036.09 2132.2 1037.26C2132.2 1038.43 2131.76 1039.44 2130.87 1040.27C2130 1041.11 2128.95 1041.52 2127.73 1041.52ZM2148.61 1064.64V1089.25H2142.33V1048.34H2148.4V1054.73H2148.93C2149.89 1052.66 2151.35 1050.99 2153.3 1049.73C2155.26 1048.45 2157.78 1047.81 2160.87 1047.81C2163.64 1047.81 2166.06 1048.38 2168.14 1049.51C2170.21 1050.63 2171.83 1052.34 2172.98 1054.63C2174.14 1056.9 2174.72 1059.78 2174.72 1063.26V1089.25H2168.43V1063.68C2168.43 1060.47 2167.6 1057.96 2165.93 1056.17C2164.26 1054.36 2161.97 1053.45 2159.05 1053.45C2157.05 1053.45 2155.26 1053.89 2153.67 1054.76C2152.11 1055.63 2150.88 1056.9 2149.97 1058.57C2149.07 1060.24 2148.61 1062.26 2148.61 1064.64ZM2202.71 1105.44C2199.68 1105.44 2197.07 1105.05 2194.88 1104.27C2192.7 1103.51 2190.88 1102.5 2189.42 1101.24C2187.99 1099.99 2186.84 1098.66 2185.99 1097.24L2191 1093.72C2191.56 1094.47 2192.28 1095.32 2193.15 1096.28C2194.02 1097.26 2195.21 1098.1 2196.72 1098.81C2198.25 1099.54 2200.25 1099.9 2202.71 1099.9C2206.02 1099.9 2208.74 1099.1 2210.89 1097.51C2213.04 1095.91 2214.11 1093.4 2214.11 1090V1081.69H2213.58C2213.12 1082.43 2212.46 1083.36 2211.61 1084.46C2210.77 1085.54 2209.57 1086.51 2207.99 1087.36C2206.42 1088.19 2204.31 1088.61 2201.65 1088.61C2198.35 1088.61 2195.38 1087.83 2192.75 1086.27C2190.14 1084.7 2188.07 1082.43 2186.55 1079.45C2185.04 1076.47 2184.28 1072.84 2184.28 1068.58C2184.28 1064.39 2185.02 1060.74 2186.49 1057.64C2187.97 1054.51 2190.02 1052.1 2192.65 1050.39C2195.27 1048.67 2198.31 1047.81 2201.76 1047.81C2204.42 1047.81 2206.53 1048.25 2208.09 1049.14C2209.67 1050.01 2210.88 1051 2211.72 1052.12C2212.57 1053.22 2213.23 1054.13 2213.69 1054.84H2214.33V1048.34H2220.4V1090.42C2220.4 1093.94 2219.6 1096.8 2218 1099C2216.42 1101.22 2214.29 1102.84 2211.61 1103.87C2208.95 1104.92 2205.98 1105.44 2202.71 1105.44ZM2202.5 1082.96C2205.02 1082.96 2207.15 1082.39 2208.89 1081.23C2210.63 1080.08 2211.96 1078.42 2212.86 1076.25C2213.77 1074.09 2214.22 1071.49 2214.22 1068.48C2214.22 1065.53 2213.78 1062.93 2212.89 1060.67C2212 1058.42 2210.69 1056.65 2208.95 1055.37C2207.21 1054.09 2205.06 1053.45 2202.5 1053.45C2199.84 1053.45 2197.62 1054.13 2195.84 1055.48C2194.08 1056.83 2192.76 1058.64 2191.87 1060.91C2191 1063.18 2190.57 1065.71 2190.57 1068.48C2190.57 1071.32 2191.01 1073.83 2191.9 1076.01C2192.81 1078.18 2194.14 1079.88 2195.9 1081.13C2197.67 1082.35 2199.87 1082.96 2202.5 1082.96ZM2270.79 1048.34V1053.67H2249.59V1048.34H2270.79ZM2255.77 1038.54H2262.05V1077.53C2262.05 1079.31 2262.31 1080.64 2262.83 1081.53C2263.36 1082.4 2264.03 1082.98 2264.85 1083.28C2265.68 1083.57 2266.56 1083.71 2267.49 1083.71C2268.18 1083.71 2268.75 1083.67 2269.19 1083.6C2269.64 1083.51 2269.99 1083.44 2270.26 1083.39L2271.53 1089.04C2271.11 1089.2 2270.51 1089.36 2269.75 1089.52C2268.99 1089.69 2268.02 1089.78 2266.85 1089.78C2265.07 1089.78 2263.33 1089.4 2261.63 1088.64C2259.94 1087.87 2258.54 1086.71 2257.42 1085.15C2256.32 1083.59 2255.77 1081.62 2255.77 1079.24V1038.54ZM2287.41 1064.64V1089.25H2281.12V1034.7H2287.41V1054.73H2287.94C2288.9 1052.62 2290.34 1050.94 2292.26 1049.7C2294.19 1048.44 2296.77 1047.81 2299.98 1047.81C2302.77 1047.81 2305.21 1048.37 2307.3 1049.49C2309.4 1050.59 2311.02 1052.28 2312.18 1054.57C2313.35 1056.85 2313.94 1059.74 2313.94 1063.26V1089.25H2307.65V1063.68C2307.65 1060.43 2306.81 1057.92 2305.12 1056.14C2303.45 1054.35 2301.13 1053.45 2298.17 1053.45C2296.11 1053.45 2294.26 1053.89 2292.63 1054.76C2291.01 1055.63 2289.73 1056.9 2288.79 1058.57C2287.87 1060.24 2287.41 1062.26 2287.41 1064.64ZM2325.43 1089.25V1048.34H2331.72V1089.25H2325.43ZM2328.63 1041.52C2327.41 1041.52 2326.35 1041.11 2325.46 1040.27C2324.59 1039.44 2324.16 1038.43 2324.16 1037.26C2324.16 1036.09 2324.59 1035.09 2325.46 1034.25C2326.35 1033.42 2327.41 1033 2328.63 1033C2329.86 1033 2330.9 1033.42 2331.77 1034.25C2332.66 1035.09 2333.1 1036.09 2333.1 1037.26C2333.1 1038.43 2332.66 1039.44 2331.77 1040.27C2330.9 1041.11 2329.86 1041.52 2328.63 1041.52ZM2372.21 1057.5L2366.56 1059.1C2366.21 1058.16 2365.68 1057.25 2364.99 1056.36C2364.32 1055.45 2363.39 1054.71 2362.22 1054.12C2361.05 1053.53 2359.55 1053.24 2357.72 1053.24C2355.22 1053.24 2353.13 1053.82 2351.46 1054.97C2349.81 1056.11 2348.99 1057.56 2348.99 1059.31C2348.99 1060.88 2349.55 1062.11 2350.69 1063.02C2351.83 1063.92 2353.6 1064.68 2356.02 1065.28L2362.09 1066.77C2365.75 1067.66 2368.47 1069.02 2370.27 1070.85C2372.06 1072.66 2372.96 1074.99 2372.96 1077.85C2372.96 1080.19 2372.28 1082.29 2370.93 1084.14C2369.6 1085.98 2367.74 1087.44 2365.34 1088.5C2362.94 1089.57 2360.15 1090.1 2356.98 1090.1C2352.8 1090.1 2349.35 1089.2 2346.61 1087.39C2343.88 1085.57 2342.15 1082.93 2341.42 1079.45L2347.39 1077.96C2347.96 1080.16 2349.03 1081.81 2350.61 1082.91C2352.21 1084.01 2354.29 1084.56 2356.87 1084.56C2359.8 1084.56 2362.12 1083.94 2363.85 1082.7C2365.59 1081.44 2366.46 1079.93 2366.46 1078.17C2366.46 1076.75 2365.96 1075.56 2364.97 1074.6C2363.97 1073.62 2362.44 1072.9 2360.38 1072.42L2353.57 1070.82C2349.82 1069.93 2347.07 1068.56 2345.31 1066.69C2343.57 1064.81 2342.7 1062.46 2342.7 1059.63C2342.7 1057.33 2343.35 1055.28 2344.64 1053.51C2345.96 1051.73 2347.74 1050.34 2350 1049.33C2352.27 1048.31 2354.84 1047.81 2357.72 1047.81C2361.77 1047.81 2364.95 1048.7 2367.26 1050.47C2369.58 1052.25 2371.23 1054.59 2372.21 1057.5ZM2404.36 1089.25V1034.7H2410.65V1054.84H2411.18C2411.64 1054.13 2412.28 1053.22 2413.1 1052.12C2413.93 1051 2415.12 1050.01 2416.67 1049.14C2418.23 1048.25 2420.34 1047.81 2423.01 1047.81C2426.45 1047.81 2429.49 1048.67 2432.12 1050.39C2434.74 1052.11 2436.79 1054.56 2438.27 1057.72C2439.74 1060.88 2440.48 1064.61 2440.48 1068.9C2440.48 1073.23 2439.74 1076.99 2438.27 1080.17C2436.79 1083.33 2434.75 1085.78 2432.14 1087.52C2429.53 1089.24 2426.52 1090.1 2423.11 1090.1C2420.49 1090.1 2418.38 1089.67 2416.8 1088.8C2415.22 1087.91 2414 1086.91 2413.15 1085.79C2412.3 1084.65 2411.64 1083.71 2411.18 1082.96H2410.44V1089.25H2404.36ZM2410.54 1068.8C2410.54 1071.88 2410.99 1074.61 2411.9 1076.97C2412.81 1079.32 2414.13 1081.15 2415.87 1082.49C2417.61 1083.8 2419.74 1084.46 2422.26 1084.46C2424.89 1084.46 2427.08 1083.76 2428.84 1082.38C2430.61 1080.98 2431.95 1079.09 2432.83 1076.73C2433.74 1074.35 2434.19 1071.71 2434.19 1068.8C2434.19 1065.92 2433.75 1063.33 2432.86 1061.02C2431.99 1058.69 2430.67 1056.85 2428.89 1055.51C2427.13 1054.14 2424.92 1053.45 2422.26 1053.45C2419.7 1053.45 2417.56 1054.1 2415.82 1055.4C2414.08 1056.68 2412.76 1058.47 2411.87 1060.78C2410.99 1063.07 2410.54 1065.74 2410.54 1068.8ZM2456.38 1034.7V1089.25H2450.09V1034.7H2456.38ZM2484.51 1090.1C2480.82 1090.1 2477.58 1089.22 2474.79 1087.47C2472.02 1085.71 2469.85 1083.25 2468.29 1080.09C2466.75 1076.93 2465.97 1073.23 2465.97 1069.01C2465.97 1064.75 2466.75 1061.03 2468.29 1057.85C2469.85 1054.67 2472.02 1052.2 2474.79 1050.44C2477.58 1048.69 2480.82 1047.81 2484.51 1047.81C2488.2 1047.81 2491.43 1048.69 2494.2 1050.44C2496.99 1052.2 2499.16 1054.67 2500.7 1057.85C2502.27 1061.03 2503.05 1064.75 2503.05 1069.01C2503.05 1073.23 2502.27 1076.93 2500.7 1080.09C2499.16 1083.25 2496.99 1085.71 2494.2 1087.47C2491.43 1089.22 2488.2 1090.1 2484.51 1090.1ZM2484.51 1084.46C2487.32 1084.46 2489.62 1083.74 2491.43 1082.3C2493.25 1080.86 2494.59 1078.97 2495.46 1076.63C2496.33 1074.28 2496.76 1071.74 2496.76 1069.01C2496.76 1066.27 2496.33 1063.73 2495.46 1061.36C2494.59 1059 2493.25 1057.09 2491.43 1055.64C2489.62 1054.18 2487.32 1053.45 2484.51 1053.45C2481.7 1053.45 2479.4 1054.18 2477.59 1055.64C2475.77 1057.09 2474.43 1059 2473.56 1061.36C2472.69 1063.73 2472.26 1066.27 2472.26 1069.01C2472.26 1071.74 2472.69 1074.28 2473.56 1076.63C2474.43 1078.97 2475.77 1080.86 2477.59 1082.3C2479.4 1083.74 2481.7 1084.46 2484.51 1084.46ZM2529.26 1090.1C2525.43 1090.1 2522.12 1089.2 2519.35 1087.39C2516.58 1085.57 2514.45 1083.08 2512.96 1079.9C2511.47 1076.72 2510.72 1073.09 2510.72 1069.01C2510.72 1064.85 2511.49 1061.19 2513.01 1058.01C2514.56 1054.81 2516.71 1052.32 2519.46 1050.52C2522.23 1048.71 2525.46 1047.81 2529.15 1047.81C2532.03 1047.81 2534.62 1048.34 2536.93 1049.41C2539.24 1050.47 2541.13 1051.96 2542.6 1053.88C2544.08 1055.8 2544.99 1058.04 2545.35 1060.59H2539.06C2538.58 1058.73 2537.52 1057.08 2535.87 1055.64C2534.23 1054.18 2532.03 1053.45 2529.26 1053.45C2526.81 1053.45 2524.66 1054.09 2522.82 1055.37C2520.99 1056.63 2519.56 1058.42 2518.53 1060.73C2517.52 1063.02 2517.01 1065.71 2517.01 1068.8C2517.01 1071.96 2517.51 1074.71 2518.5 1077.05C2519.51 1079.4 2520.93 1081.22 2522.76 1082.51C2524.61 1083.81 2526.78 1084.46 2529.26 1084.46C2530.89 1084.46 2532.38 1084.17 2533.71 1083.6C2535.04 1083.04 2536.17 1082.22 2537.09 1081.15C2538.01 1080.09 2538.67 1078.81 2539.06 1077.32H2545.35C2544.99 1079.73 2544.11 1081.91 2542.71 1083.84C2541.33 1085.76 2539.49 1087.29 2537.2 1088.42C2534.92 1089.54 2532.28 1090.1 2529.26 1090.1ZM2560.4 1074.34L2560.29 1066.56H2561.57L2579.47 1048.34H2587.24L2568.17 1067.62H2567.64L2560.4 1074.34ZM2554.54 1089.25V1034.7H2560.82V1089.25H2554.54ZM2580.53 1089.25L2564.55 1069.01L2569.02 1064.64L2588.52 1089.25H2580.53ZM2599.91 1089.68C2598.6 1089.68 2597.47 1089.21 2596.53 1088.26C2595.59 1087.32 2595.12 1086.2 2595.12 1084.88C2595.12 1083.57 2595.59 1082.44 2596.53 1081.5C2597.47 1080.56 2598.6 1080.09 2599.91 1080.09C2601.23 1080.09 2602.35 1080.56 2603.3 1081.5C2604.24 1082.44 2604.71 1083.57 2604.71 1084.88C2604.71 1085.75 2604.48 1086.55 2604.04 1087.28C2603.61 1088.01 2603.04 1088.59 2602.31 1089.04C2601.6 1089.46 2600.8 1089.68 2599.91 1089.68Z" fill="white"/>
<rect x="223.336" y="255.875" width="2419.25" height="509.25" fill="#565656" stroke="#565656" stroke-width="26.25" stroke-linejoin="round"/>
<path d="M244.552 291.114L255.802 309.267H256.143L267.393 291.114H273.614L259.893 312.932L273.614 334.75H267.393L256.143 316.938H255.802L244.552 334.75H238.33L252.393 312.932L238.33 291.114H244.552ZM283.474 329.168C282.423 329.168 281.521 328.791 280.768 328.038C280.015 327.286 279.639 326.384 279.639 325.332C279.639 324.281 280.015 323.379 280.768 322.626C281.521 321.874 282.423 321.497 283.474 321.497C284.525 321.497 285.427 321.874 286.18 322.626C286.933 323.379 287.309 324.281 287.309 325.332C287.309 326.028 287.132 326.668 286.777 327.25C286.436 327.832 285.974 328.301 285.392 328.656C284.824 328.997 284.184 329.168 283.474 329.168ZM283.474 307.094C282.423 307.094 281.521 306.717 280.768 305.964C280.015 305.212 279.639 304.31 279.639 303.259C279.639 302.207 280.015 301.305 280.768 300.553C281.521 299.8 282.423 299.423 283.474 299.423C284.525 299.423 285.427 299.8 286.18 300.553C286.933 301.305 287.309 302.207 287.309 303.259C287.309 303.955 287.132 304.594 286.777 305.176C286.436 305.759 285.974 306.227 285.392 306.582C284.824 306.923 284.184 307.094 283.474 307.094Z" fill="white"/>
<path d="M2573.42 335.347C2570.21 335.347 2567.47 334.473 2565.21 332.726C2562.96 330.964 2561.23 328.415 2560.04 325.077C2558.84 321.724 2558.25 317.676 2558.25 312.932C2558.25 308.216 2558.84 304.189 2560.04 300.851C2561.24 297.499 2562.98 294.942 2565.24 293.18C2567.51 291.405 2570.24 290.517 2573.42 290.517C2576.6 290.517 2579.32 291.405 2581.58 293.18C2583.85 294.942 2585.58 297.499 2586.78 300.851C2587.98 304.189 2588.59 308.216 2588.59 312.932C2588.59 317.676 2587.99 321.724 2586.8 325.077C2585.61 328.415 2583.88 330.964 2581.62 332.726C2579.36 334.473 2576.63 335.347 2573.42 335.347ZM2573.42 330.659C2576.6 330.659 2579.07 329.125 2580.83 326.057C2582.59 322.989 2583.47 318.614 2583.47 312.932C2583.47 309.153 2583.07 305.936 2582.26 303.28C2581.46 300.624 2580.31 298.599 2578.81 297.207C2577.32 295.815 2575.52 295.119 2573.42 295.119C2570.26 295.119 2567.8 296.675 2566.02 299.786C2564.25 302.882 2563.36 307.264 2563.36 312.932C2563.36 316.71 2563.76 319.92 2564.55 322.562C2565.35 325.205 2566.49 327.214 2567.98 328.592C2569.49 329.97 2571.3 330.659 2573.42 330.659ZM2609.98 347.705C2607.55 347.705 2605.46 347.392 2603.72 346.767C2601.97 346.156 2600.51 345.347 2599.35 344.338C2598.2 343.344 2597.28 342.278 2596.6 341.142L2600.61 338.33C2601.06 338.926 2601.64 339.608 2602.33 340.375C2603.03 341.156 2603.98 341.831 2605.19 342.399C2606.41 342.982 2608.01 343.273 2609.98 343.273C2612.62 343.273 2614.8 342.634 2616.52 341.355C2618.24 340.077 2619.1 338.074 2619.1 335.347V328.699H2618.67C2618.3 329.295 2617.78 330.034 2617.1 330.915C2616.43 331.781 2615.46 332.555 2614.2 333.237C2612.95 333.905 2611.26 334.239 2609.13 334.239C2606.49 334.239 2604.11 333.614 2602.01 332.364C2599.92 331.114 2598.27 329.295 2597.05 326.909C2595.84 324.523 2595.24 321.625 2595.24 318.216C2595.24 314.864 2595.83 311.945 2597 309.459C2598.18 306.959 2599.82 305.027 2601.93 303.663C2604.03 302.286 2606.46 301.597 2609.21 301.597C2611.34 301.597 2613.03 301.952 2614.28 302.662C2615.55 303.358 2616.51 304.153 2617.18 305.048C2617.86 305.929 2618.39 306.653 2618.76 307.222H2619.27V302.023H2624.13V335.688C2624.13 338.5 2623.49 340.787 2622.21 342.548C2620.95 344.324 2619.24 345.624 2617.1 346.447C2614.97 347.286 2612.59 347.705 2609.98 347.705ZM2609.81 329.722C2611.83 329.722 2613.53 329.26 2614.92 328.337C2616.32 327.413 2617.37 326.085 2618.1 324.352C2618.82 322.619 2619.19 320.545 2619.19 318.131C2619.19 315.773 2618.83 313.692 2618.12 311.888C2617.41 310.084 2616.36 308.67 2614.97 307.648C2613.57 306.625 2611.86 306.114 2609.81 306.114C2607.68 306.114 2605.9 306.653 2604.48 307.733C2603.08 308.812 2602.02 310.261 2601.31 312.08C2600.61 313.898 2600.26 315.915 2600.26 318.131C2600.26 320.403 2600.62 322.413 2601.33 324.161C2602.05 325.893 2603.12 327.257 2604.53 328.251C2605.95 329.232 2607.71 329.722 2609.81 329.722Z" fill="white"/>
<path d="M382.602 309L2451.46 311.75" stroke="white" stroke-width="7.5" stroke-linecap="round"/>
<rect x="378.461" y="271" width="30" height="78.75" rx="15" fill="#010003"/>
<path d="M236.995 392.114H243.046L255.148 412.483H255.66L267.762 392.114H273.813L258.046 417.767V435.75H252.762V417.767L236.995 392.114ZM279.88 430.168C278.829 430.168 277.927 429.791 277.174 429.038C276.422 428.286 276.045 427.384 276.045 426.332C276.045 425.281 276.422 424.379 277.174 423.626C277.927 422.874 278.829 422.497 279.88 422.497C280.931 422.497 281.833 422.874 282.586 423.626C283.339 424.379 283.716 425.281 283.716 426.332C283.716 427.028 283.538 427.668 283.183 428.25C282.842 428.832 282.38 429.301 281.798 429.656C281.23 429.997 280.591 430.168 279.88 430.168ZM279.88 408.094C278.829 408.094 277.927 407.717 277.174 406.964C276.422 406.212 276.045 405.31 276.045 404.259C276.045 403.207 276.422 402.305 277.174 401.553C277.927 400.8 278.829 400.423 279.88 400.423C280.931 400.423 281.833 400.8 282.586 401.553C283.339 402.305 283.716 403.207 283.716 404.259C283.716 404.955 283.538 405.594 283.183 406.176C282.842 406.759 282.38 407.227 281.798 407.582C281.23 407.923 280.591 408.094 279.88 408.094Z" fill="white"/>
<path d="M2582.89 392.114V435.75H2577.6V397.653H2577.35L2566.69 404.727V399.358L2577.6 392.114H2582.89ZM2608.73 448.705C2606.3 448.705 2604.21 448.392 2602.47 447.767C2600.72 447.156 2599.26 446.347 2598.1 445.338C2596.95 444.344 2596.03 443.278 2595.35 442.142L2599.36 439.33C2599.81 439.926 2600.39 440.608 2601.08 441.375C2601.78 442.156 2602.73 442.831 2603.94 443.399C2605.16 443.982 2606.76 444.273 2608.73 444.273C2611.37 444.273 2613.55 443.634 2615.27 442.355C2616.99 441.077 2617.85 439.074 2617.85 436.347V429.699H2617.42C2617.05 430.295 2616.53 431.034 2615.85 431.915C2615.18 432.781 2614.21 433.555 2612.95 434.237C2611.7 434.905 2610.01 435.239 2607.88 435.239C2605.24 435.239 2602.86 434.614 2600.76 433.364C2598.67 432.114 2597.02 430.295 2595.8 427.909C2594.59 425.523 2593.99 422.625 2593.99 419.216C2593.99 415.864 2594.58 412.945 2595.75 410.459C2596.93 407.959 2598.57 406.027 2600.68 404.663C2602.78 403.286 2605.21 402.597 2607.96 402.597C2610.09 402.597 2611.78 402.952 2613.03 403.662C2614.3 404.358 2615.26 405.153 2615.93 406.048C2616.61 406.929 2617.14 407.653 2617.51 408.222H2618.02V403.023H2622.88V436.688C2622.88 439.5 2622.24 441.787 2620.96 443.548C2619.7 445.324 2617.99 446.624 2615.85 447.447C2613.72 448.286 2611.34 448.705 2608.73 448.705ZM2608.56 430.722C2610.58 430.722 2612.28 430.26 2613.67 429.337C2615.07 428.413 2616.12 427.085 2616.85 425.352C2617.57 423.619 2617.94 421.545 2617.94 419.131C2617.94 416.773 2617.58 414.692 2616.87 412.888C2616.16 411.084 2615.11 409.67 2613.72 408.648C2612.32 407.625 2610.61 407.114 2608.56 407.114C2606.43 407.114 2604.65 407.653 2603.23 408.733C2601.83 409.812 2600.77 411.261 2600.06 413.08C2599.36 414.898 2599.01 416.915 2599.01 419.131C2599.01 421.403 2599.37 423.413 2600.08 425.161C2600.8 426.893 2601.87 428.257 2603.28 429.251C2604.7 430.232 2606.46 430.722 2608.56 430.722Z" fill="white"/>
<path d="M381.211 410L2450.07 412.749" stroke="white" stroke-width="7.5" stroke-linecap="round"/>
<rect x="784.461" y="372" width="30" height="78.75" rx="15" fill="#010003"/>
<path d="M239.296 529.75V525.915L262.819 490.801H239.04V486.114H269.126V489.949L245.603 525.062H269.381V529.75H239.296ZM281.228 524.168C280.177 524.168 279.275 523.791 278.522 523.038C277.769 522.286 277.393 521.384 277.393 520.332C277.393 519.281 277.769 518.379 278.522 517.626C279.275 516.874 280.177 516.497 281.228 516.497C282.279 516.497 283.181 516.874 283.934 517.626C284.687 518.379 285.063 519.281 285.063 520.332C285.063 521.028 284.886 521.668 284.531 522.25C284.19 522.832 283.728 523.301 283.146 523.656C282.577 523.997 281.938 524.168 281.228 524.168ZM281.228 502.094C280.177 502.094 279.275 501.717 278.522 500.964C277.769 500.212 277.393 499.31 277.393 498.259C277.393 497.207 277.769 496.305 278.522 495.553C279.275 494.8 280.177 494.423 281.228 494.423C282.279 494.423 283.181 494.8 283.934 495.553C284.687 496.305 285.063 497.207 285.063 498.259C285.063 498.955 284.886 499.594 284.531 500.176C284.19 500.759 283.728 501.227 283.146 501.582C282.577 501.923 281.938 502.094 281.228 502.094Z" fill="white"/>
<path d="M2572.17 530.347C2568.96 530.347 2566.22 529.473 2563.96 527.726C2561.71 525.964 2559.98 523.415 2558.79 520.077C2557.59 516.724 2557 512.676 2557 507.932C2557 503.216 2557.59 499.189 2558.79 495.851C2559.99 492.499 2561.73 489.942 2563.99 488.18C2566.26 486.405 2568.99 485.517 2572.17 485.517C2575.35 485.517 2578.07 486.405 2580.33 488.18C2582.6 489.942 2584.33 492.499 2585.53 495.851C2586.73 499.189 2587.34 503.216 2587.34 507.932C2587.34 512.676 2586.74 516.724 2585.55 520.077C2584.36 523.415 2582.63 525.964 2580.37 527.726C2578.11 529.473 2575.38 530.347 2572.17 530.347ZM2572.17 525.659C2575.35 525.659 2577.82 524.125 2579.58 521.057C2581.34 517.989 2582.22 513.614 2582.22 507.932C2582.22 504.153 2581.82 500.936 2581.01 498.28C2580.21 495.624 2579.06 493.599 2577.56 492.207C2576.07 490.815 2574.27 490.119 2572.17 490.119C2569.01 490.119 2566.55 491.675 2564.77 494.786C2563 497.882 2562.11 502.264 2562.11 507.932C2562.11 511.71 2562.51 514.92 2563.3 517.562C2564.1 520.205 2565.24 522.214 2566.73 523.592C2568.24 524.97 2570.05 525.659 2572.17 525.659ZM2608.73 542.705C2606.3 542.705 2604.21 542.392 2602.47 541.767C2600.72 541.156 2599.26 540.347 2598.1 539.338C2596.95 538.344 2596.03 537.278 2595.35 536.142L2599.36 533.33C2599.81 533.926 2600.39 534.608 2601.08 535.375C2601.78 536.156 2602.73 536.831 2603.94 537.399C2605.16 537.982 2606.76 538.273 2608.73 538.273C2611.37 538.273 2613.55 537.634 2615.27 536.355C2616.99 535.077 2617.85 533.074 2617.85 530.347V523.699H2617.42C2617.05 524.295 2616.53 525.034 2615.85 525.915C2615.18 526.781 2614.21 527.555 2612.95 528.237C2611.7 528.905 2610.01 529.239 2607.88 529.239C2605.24 529.239 2602.86 528.614 2600.76 527.364C2598.67 526.114 2597.02 524.295 2595.8 521.909C2594.59 519.523 2593.99 516.625 2593.99 513.216C2593.99 509.864 2594.58 506.945 2595.75 504.459C2596.93 501.959 2598.57 500.027 2600.68 498.663C2602.78 497.286 2605.21 496.597 2607.96 496.597C2610.09 496.597 2611.78 496.952 2613.03 497.662C2614.3 498.358 2615.26 499.153 2615.93 500.048C2616.61 500.929 2617.14 501.653 2617.51 502.222H2618.02V497.023H2622.88V530.688C2622.88 533.5 2622.24 535.787 2620.96 537.548C2619.7 539.324 2617.99 540.624 2615.85 541.447C2613.72 542.286 2611.34 542.705 2608.73 542.705ZM2608.56 524.722C2610.58 524.722 2612.28 524.26 2613.67 523.337C2615.07 522.413 2616.12 521.085 2616.85 519.352C2617.57 517.619 2617.94 515.545 2617.94 513.131C2617.94 510.773 2617.58 508.692 2616.87 506.888C2616.16 505.084 2615.11 503.67 2613.72 502.648C2612.32 501.625 2610.61 501.114 2608.56 501.114C2606.43 501.114 2604.65 501.653 2603.23 502.733C2601.83 503.812 2600.77 505.261 2600.06 507.08C2599.36 508.898 2599.01 510.915 2599.01 513.131C2599.01 515.403 2599.37 517.413 2600.08 519.161C2600.8 520.893 2601.87 522.257 2603.28 523.251C2604.7 524.232 2606.46 524.722 2608.56 524.722Z" fill="white"/>
<path d="M381.211 504L2450.07 506.749" stroke="white" stroke-width="7.5" stroke-linecap="round"/>
<rect x="377.211" y="466" width="30" height="78.75" rx="15" fill="#010003"/>
<path d="M1182.76 626.455H1191.28L1206.1 662.636H1206.65L1221.47 626.455H1229.99V673H1223.31V639.318H1222.88L1209.15 672.932H1203.6L1189.88 639.295H1189.44V673H1182.76V626.455ZM1280.63 649.727C1280.63 654.697 1279.72 658.97 1277.9 662.545C1276.09 666.106 1273.59 668.848 1270.43 670.773C1267.28 672.682 1263.69 673.636 1259.68 673.636C1255.65 673.636 1252.05 672.682 1248.88 670.773C1245.73 668.848 1243.25 666.098 1241.43 662.523C1239.61 658.947 1238.7 654.682 1238.7 649.727C1238.7 644.758 1239.61 640.492 1241.43 636.932C1243.25 633.356 1245.73 630.614 1248.88 628.705C1252.05 626.78 1255.65 625.818 1259.68 625.818C1263.69 625.818 1267.28 626.78 1270.43 628.705C1273.59 630.614 1276.09 633.356 1277.9 636.932C1279.72 640.492 1280.63 644.758 1280.63 649.727ZM1273.68 649.727C1273.68 645.939 1273.06 642.75 1271.84 640.159C1270.62 637.553 1268.96 635.583 1266.84 634.25C1264.73 632.902 1262.34 632.227 1259.68 632.227C1257 632.227 1254.6 632.902 1252.5 634.25C1250.39 635.583 1248.72 637.553 1247.5 640.159C1246.28 642.75 1245.68 645.939 1245.68 649.727C1245.68 653.515 1246.28 656.712 1247.5 659.318C1248.72 661.909 1250.39 663.879 1252.5 665.227C1254.6 666.561 1257 667.227 1259.68 667.227C1262.34 667.227 1264.73 666.561 1266.84 665.227C1268.96 663.879 1270.62 661.909 1271.84 659.318C1273.06 656.712 1273.68 653.515 1273.68 649.727ZM1304.46 673H1289.39V626.455H1304.93C1309.49 626.455 1313.41 627.386 1316.68 629.25C1319.96 631.098 1322.46 633.758 1324.21 637.227C1325.96 640.682 1326.84 644.826 1326.84 649.659C1326.84 654.508 1325.96 658.674 1324.18 662.159C1322.42 665.644 1319.88 668.326 1316.55 670.205C1313.21 672.068 1309.18 673 1304.46 673ZM1296.41 666.864H1304.07C1307.61 666.864 1310.56 666.197 1312.91 664.864C1315.26 663.515 1317.02 661.568 1318.18 659.023C1319.35 656.462 1319.93 653.341 1319.93 649.659C1319.93 646.008 1319.35 642.909 1318.18 640.364C1317.03 637.818 1315.31 635.886 1313.02 634.568C1310.74 633.25 1307.89 632.591 1304.5 632.591H1296.41V666.864ZM1335.57 673V626.455H1364.76V632.5H1342.6V646.682H1363.23V652.705H1342.6V666.955H1365.03V673H1335.57ZM1378.07 667.227C1376.83 667.227 1375.76 666.788 1374.86 665.909C1373.97 665.015 1373.52 663.939 1373.52 662.682C1373.52 661.439 1373.97 660.379 1374.86 659.5C1375.76 658.606 1376.83 658.159 1378.07 658.159C1379.31 658.159 1380.38 658.606 1381.27 659.5C1382.17 660.379 1382.61 661.439 1382.61 662.682C1382.61 663.515 1382.4 664.28 1381.98 664.977C1381.57 665.659 1381.02 666.205 1380.34 666.614C1379.66 667.023 1378.9 667.227 1378.07 667.227ZM1378.07 643.909C1376.83 643.909 1375.76 643.47 1374.86 642.591C1373.97 641.697 1373.52 640.621 1373.52 639.364C1373.52 638.121 1373.97 637.061 1374.86 636.182C1375.76 635.288 1376.83 634.841 1378.07 634.841C1379.31 634.841 1380.38 635.288 1381.27 636.182C1382.17 637.061 1382.61 638.121 1382.61 639.364C1382.61 640.197 1382.4 640.962 1381.98 641.659C1381.57 642.341 1381.02 642.886 1380.34 643.295C1379.66 643.705 1378.9 643.909 1378.07 643.909ZM1424.27 673H1409.2V626.455H1424.75C1429.31 626.455 1433.22 627.386 1436.5 629.25C1439.77 631.098 1442.28 633.758 1444.02 637.227C1445.78 640.682 1446.65 644.826 1446.65 649.659C1446.65 654.508 1445.77 658.674 1444 662.159C1442.24 665.644 1439.69 668.326 1436.36 670.205C1433.03 672.068 1429 673 1424.27 673ZM1416.22 666.864H1423.88C1427.43 666.864 1430.37 666.197 1432.72 664.864C1435.07 663.515 1436.83 661.568 1438 659.023C1439.16 656.462 1439.75 653.341 1439.75 649.659C1439.75 646.008 1439.16 642.909 1438 640.364C1436.84 637.818 1435.12 635.886 1432.84 634.568C1430.55 633.25 1427.71 632.591 1424.31 632.591H1416.22V666.864ZM1455.39 673V626.455H1484.57V632.5H1462.41V646.682H1483.05V652.705H1462.41V666.955H1484.84V673H1455.39ZM1493.95 673V626.455H1522.81V632.5H1500.97V646.682H1520.75V652.705H1500.97V673H1493.95ZM1529.57 673H1522.11L1538.86 626.455H1546.98L1563.73 673H1556.27L1543.11 634.909H1542.75L1529.57 673ZM1530.82 654.773H1555V660.682H1530.82V654.773ZM1600.38 626.455H1607.43V657.068C1607.43 660.326 1606.66 663.212 1605.13 665.727C1603.6 668.227 1601.45 670.197 1598.68 671.636C1595.9 673.061 1592.65 673.773 1588.93 673.773C1585.21 673.773 1581.97 673.061 1579.2 671.636C1576.43 670.197 1574.28 668.227 1572.75 665.727C1571.21 663.212 1570.45 660.326 1570.45 657.068V626.455H1577.47V656.5C1577.47 658.606 1577.93 660.477 1578.86 662.114C1579.8 663.75 1581.12 665.038 1582.84 665.977C1584.55 666.902 1586.58 667.364 1588.93 667.364C1591.29 667.364 1593.33 666.902 1595.04 665.977C1596.77 665.038 1598.09 663.75 1599 662.114C1599.92 660.477 1600.38 658.606 1600.38 656.5V626.455ZM1617.64 673V626.455H1624.66V666.955H1645.75V673H1617.64ZM1645.4 632.5V626.455H1681.43V632.5H1666.9V673H1659.9V632.5H1645.4Z" fill="white"/>
</svg>
