<svg width="763" height="394" viewBox="0 0 763 394" fill="none" xmlns="http://www.w3.org/2000/svg">
<rect width="763" height="394" rx="30" fill="#171717"/>
<path d="M330.091 111.909V205H319.182L268.455 131.909H267.545V205H256.273V111.909H267.182L318.091 185.182H319V111.909H330.091ZM431.193 158.455C431.193 168.273 429.42 176.758 425.875 183.909C422.33 191.061 417.466 196.576 411.284 200.455C405.102 204.333 398.042 206.273 390.102 206.273C382.163 206.273 375.102 204.333 368.92 200.455C362.739 196.576 357.875 191.061 354.33 183.909C350.784 176.758 349.011 168.273 349.011 158.455C349.011 148.636 350.784 140.152 354.33 133C357.875 125.848 362.739 120.333 368.92 116.455C375.102 112.576 382.163 110.636 390.102 110.636C398.042 110.636 405.102 112.576 411.284 116.455C417.466 120.333 422.33 125.848 425.875 133C429.42 140.152 431.193 148.636 431.193 158.455ZM420.284 158.455C420.284 150.394 418.936 143.591 416.239 138.045C413.572 132.5 409.951 128.303 405.375 125.455C400.83 122.606 395.739 121.182 390.102 121.182C384.466 121.182 379.36 122.606 374.784 125.455C370.239 128.303 366.617 132.5 363.92 138.045C361.254 143.591 359.92 150.394 359.92 158.455C359.92 166.515 361.254 173.318 363.92 178.864C366.617 184.409 370.239 188.606 374.784 191.455C379.36 194.303 384.466 195.727 390.102 195.727C395.739 195.727 400.83 194.303 405.375 191.455C409.951 188.606 413.572 184.409 416.239 178.864C418.936 173.318 420.284 166.515 420.284 158.455ZM441.182 121.909V111.909H511V121.909H481.727V205H470.455V121.909H441.182Z" fill="white"/>
</svg>
