<svg width="763" height="394" viewBox="0 0 763 394" fill="none" xmlns="http://www.w3.org/2000/svg">
<rect width="763" height="394" rx="30" fill="#171717"/>
<path d="M30.5909 22.7273V46H27.7727V25.6818H27.6364L21.9545 29.4545V26.5909L27.7727 22.7273H30.5909ZM37.9091 46.1818C37.3485 46.1818 36.8674 45.9811 36.4659 45.5795C36.0644 45.178 35.8636 44.697 35.8636 44.1364C35.8636 43.5758 36.0644 43.0947 36.4659 42.6932C36.8674 42.2917 37.3485 42.0909 37.9091 42.0909C38.4697 42.0909 38.9508 42.2917 39.3523 42.6932C39.7538 43.0947 39.9545 43.5758 39.9545 44.1364C39.9545 44.5076 39.8598 44.8485 39.6705 45.1591C39.4886 45.4697 39.2424 45.7197 38.9318 45.9091C38.6288 46.0909 38.2879 46.1818 37.9091 46.1818Z" fill="white"/>
<path d="M274.218 290V275.455H275.98V288.438H282.741V290H274.218ZM289.815 290.227C288.764 290.227 287.857 289.995 287.095 289.531C286.337 289.062 285.752 288.409 285.341 287.571C284.933 286.728 284.73 285.748 284.73 284.631C284.73 283.513 284.933 282.528 285.341 281.676C285.752 280.819 286.325 280.152 287.059 279.673C287.798 279.19 288.66 278.949 289.645 278.949C290.213 278.949 290.774 279.044 291.328 279.233C291.882 279.422 292.386 279.73 292.841 280.156C293.295 280.578 293.657 281.136 293.927 281.832C294.197 282.528 294.332 283.385 294.332 284.403V285.114H285.923V283.665H292.627C292.627 283.049 292.504 282.5 292.258 282.017C292.017 281.534 291.671 281.153 291.221 280.874C290.776 280.594 290.251 280.455 289.645 280.455C288.977 280.455 288.399 280.62 287.912 280.952C287.429 281.278 287.057 281.705 286.797 282.23C286.536 282.756 286.406 283.319 286.406 283.92V284.886C286.406 285.71 286.548 286.409 286.832 286.982C287.121 287.55 287.521 287.983 288.032 288.281C288.544 288.575 289.138 288.722 289.815 288.722C290.255 288.722 290.653 288.66 291.008 288.537C291.368 288.409 291.678 288.22 291.939 287.969C292.199 287.713 292.4 287.396 292.542 287.017L294.162 287.472C293.991 288.021 293.705 288.504 293.302 288.92C292.9 289.332 292.403 289.654 291.811 289.886C291.219 290.114 290.554 290.227 289.815 290.227ZM301.626 279.091V280.511H295.973V279.091H301.626ZM297.62 276.477H299.297V286.875C299.297 287.348 299.365 287.704 299.502 287.94C299.645 288.172 299.824 288.329 300.042 288.409C300.265 288.485 300.499 288.523 300.745 288.523C300.93 288.523 301.082 288.513 301.2 288.494C301.318 288.471 301.413 288.452 301.484 288.438L301.825 289.943C301.711 289.986 301.553 290.028 301.349 290.071C301.145 290.118 300.887 290.142 300.575 290.142C300.101 290.142 299.637 290.04 299.183 289.837C298.733 289.633 298.359 289.323 298.061 288.906C297.767 288.49 297.62 287.964 297.62 287.33V276.477ZM306.191 275.455V276.733C306.191 277.121 306.12 277.536 305.978 277.976C305.841 278.411 305.637 278.835 305.367 279.247C305.102 279.654 304.78 280.009 304.401 280.312L303.492 279.574C303.79 279.148 304.049 278.705 304.266 278.246C304.489 277.782 304.6 277.287 304.6 276.761V275.455H306.191ZM314.589 281.534L313.084 281.96C312.989 281.709 312.849 281.465 312.665 281.229C312.485 280.987 312.239 280.788 311.926 280.632C311.614 280.476 311.214 280.398 310.726 280.398C310.058 280.398 309.502 280.552 309.057 280.859C308.616 281.162 308.396 281.548 308.396 282.017C308.396 282.434 308.548 282.763 308.851 283.004C309.154 283.246 309.627 283.447 310.271 283.608L311.891 284.006C312.866 284.242 313.593 284.605 314.071 285.092C314.549 285.575 314.788 286.198 314.788 286.96C314.788 287.585 314.608 288.144 314.249 288.636C313.893 289.129 313.396 289.517 312.757 289.801C312.118 290.085 311.375 290.227 310.527 290.227C309.414 290.227 308.493 289.986 307.764 289.503C307.035 289.02 306.573 288.314 306.379 287.386L307.97 286.989C308.122 287.576 308.408 288.016 308.83 288.31C309.256 288.603 309.812 288.75 310.499 288.75C311.28 288.75 311.9 288.584 312.359 288.253C312.823 287.917 313.055 287.514 313.055 287.045C313.055 286.667 312.923 286.349 312.658 286.094C312.393 285.833 311.985 285.639 311.436 285.511L309.618 285.085C308.619 284.848 307.885 284.482 307.416 283.984C306.952 283.482 306.72 282.855 306.72 282.102C306.72 281.487 306.893 280.942 307.239 280.469C307.589 279.995 308.065 279.624 308.666 279.354C309.272 279.084 309.959 278.949 310.726 278.949C311.805 278.949 312.653 279.186 313.268 279.659C313.889 280.133 314.329 280.758 314.589 281.534ZM322.936 290V279.091H324.556V280.795H324.698C324.925 280.213 325.292 279.761 325.799 279.439C326.305 279.112 326.914 278.949 327.624 278.949C328.344 278.949 328.943 279.112 329.421 279.439C329.904 279.761 330.28 280.213 330.55 280.795H330.664C330.943 280.232 331.362 279.785 331.921 279.453C332.48 279.117 333.15 278.949 333.931 278.949C334.906 278.949 335.704 279.254 336.324 279.865C336.944 280.471 337.255 281.416 337.255 282.699V290H335.578V282.699C335.578 281.894 335.358 281.319 334.918 280.973C334.478 280.627 333.959 280.455 333.363 280.455C332.596 280.455 332.001 280.687 331.58 281.151C331.158 281.61 330.948 282.192 330.948 282.898V290H329.243V282.528C329.243 281.908 329.042 281.409 328.64 281.03C328.237 280.646 327.719 280.455 327.084 280.455C326.649 280.455 326.241 280.571 325.863 280.803C325.489 281.035 325.185 281.357 324.953 281.768C324.726 282.176 324.613 282.647 324.613 283.182V290H322.936ZM343.529 290.256C342.838 290.256 342.211 290.125 341.647 289.865C341.084 289.6 340.636 289.219 340.305 288.722C339.974 288.22 339.808 287.614 339.808 286.903C339.808 286.278 339.931 285.772 340.177 285.384C340.423 284.991 340.752 284.683 341.164 284.46C341.576 284.238 342.031 284.072 342.528 283.963C343.03 283.849 343.534 283.759 344.041 283.693C344.704 283.608 345.241 283.544 345.653 283.501C346.07 283.454 346.373 283.376 346.562 283.267C346.756 283.158 346.853 282.969 346.853 282.699V282.642C346.853 281.941 346.662 281.397 346.278 281.009C345.899 280.62 345.324 280.426 344.552 280.426C343.752 280.426 343.125 280.601 342.67 280.952C342.216 281.302 341.896 281.676 341.711 282.074L340.12 281.506C340.404 280.843 340.783 280.327 341.257 279.957C341.735 279.583 342.256 279.323 342.819 279.176C343.387 279.025 343.946 278.949 344.495 278.949C344.846 278.949 345.248 278.991 345.703 279.077C346.162 279.157 346.605 279.325 347.031 279.581C347.462 279.837 347.819 280.223 348.103 280.739C348.387 281.255 348.529 281.946 348.529 282.812V290H346.853V288.523H346.768C346.654 288.759 346.465 289.013 346.2 289.283C345.935 289.553 345.582 289.782 345.142 289.972C344.701 290.161 344.164 290.256 343.529 290.256ZM343.785 288.75C344.448 288.75 345.007 288.62 345.461 288.359C345.921 288.099 346.266 287.763 346.498 287.351C346.735 286.939 346.853 286.506 346.853 286.051V284.517C346.782 284.602 346.626 284.68 346.385 284.751C346.148 284.818 345.873 284.877 345.561 284.929C345.253 284.976 344.952 285.019 344.659 285.057C344.37 285.09 344.136 285.118 343.956 285.142C343.52 285.199 343.113 285.291 342.734 285.419C342.36 285.542 342.057 285.729 341.825 285.98C341.598 286.226 341.484 286.562 341.484 286.989C341.484 287.571 341.699 288.011 342.13 288.31C342.566 288.603 343.118 288.75 343.785 288.75ZM353.151 286.023L353.123 283.949H353.464L358.237 279.091H360.31L355.225 284.233H355.083L353.151 286.023ZM351.589 290V275.455H353.265V290H351.589ZM358.521 290L354.259 284.602L355.452 283.438L360.651 290H358.521ZM366.592 290.227C365.541 290.227 364.634 289.995 363.872 289.531C363.115 289.062 362.53 288.409 362.118 287.571C361.711 286.728 361.507 285.748 361.507 284.631C361.507 283.513 361.711 282.528 362.118 281.676C362.53 280.819 363.103 280.152 363.837 279.673C364.575 279.19 365.437 278.949 366.422 278.949C366.99 278.949 367.551 279.044 368.105 279.233C368.659 279.422 369.163 279.73 369.618 280.156C370.072 280.578 370.435 281.136 370.705 281.832C370.974 282.528 371.109 283.385 371.109 284.403V285.114H362.7V283.665H369.405C369.405 283.049 369.282 282.5 369.036 282.017C368.794 281.534 368.448 281.153 367.999 280.874C367.554 280.594 367.028 280.455 366.422 280.455C365.754 280.455 365.177 280.62 364.689 280.952C364.206 281.278 363.834 281.705 363.574 282.23C363.313 282.756 363.183 283.319 363.183 283.92V284.886C363.183 285.71 363.325 286.409 363.609 286.982C363.898 287.55 364.298 287.983 364.81 288.281C365.321 288.575 365.915 288.722 366.592 288.722C367.033 288.722 367.43 288.66 367.786 288.537C368.145 288.409 368.455 288.22 368.716 287.969C368.976 287.713 369.178 287.396 369.32 287.017L370.939 287.472C370.768 288.021 370.482 288.504 370.08 288.92C369.677 289.332 369.18 289.654 368.588 289.886C367.996 290.114 367.331 290.227 366.592 290.227ZM382.494 290.256C381.803 290.256 381.176 290.125 380.612 289.865C380.049 289.6 379.601 289.219 379.27 288.722C378.938 288.22 378.773 287.614 378.773 286.903C378.773 286.278 378.896 285.772 379.142 285.384C379.388 284.991 379.717 284.683 380.129 284.46C380.541 284.238 380.996 284.072 381.493 283.963C381.995 283.849 382.499 283.759 383.006 283.693C383.669 283.608 384.206 283.544 384.618 283.501C385.035 283.454 385.338 283.376 385.527 283.267C385.721 283.158 385.818 282.969 385.818 282.699V282.642C385.818 281.941 385.626 281.397 385.243 281.009C384.864 280.62 384.289 280.426 383.517 280.426C382.717 280.426 382.089 280.601 381.635 280.952C381.18 281.302 380.861 281.676 380.676 282.074L379.085 281.506C379.369 280.843 379.748 280.327 380.222 279.957C380.7 279.583 381.221 279.323 381.784 279.176C382.352 279.025 382.911 278.949 383.46 278.949C383.811 278.949 384.213 278.991 384.668 279.077C385.127 279.157 385.57 279.325 385.996 279.581C386.427 279.837 386.784 280.223 387.068 280.739C387.352 281.255 387.494 281.946 387.494 282.812V290H385.818V288.523H385.733C385.619 288.759 385.43 289.013 385.165 289.283C384.9 289.553 384.547 289.782 384.107 289.972C383.666 290.161 383.129 290.256 382.494 290.256ZM382.75 288.75C383.413 288.75 383.972 288.62 384.426 288.359C384.885 288.099 385.231 287.763 385.463 287.351C385.7 286.939 385.818 286.506 385.818 286.051V284.517C385.747 284.602 385.591 284.68 385.349 284.751C385.113 284.818 384.838 284.877 384.526 284.929C384.218 284.976 383.917 285.019 383.624 285.057C383.335 285.09 383.1 285.118 382.92 285.142C382.485 285.199 382.078 285.291 381.699 285.419C381.325 285.542 381.022 285.729 380.79 285.98C380.563 286.226 380.449 286.562 380.449 286.989C380.449 287.571 380.664 288.011 381.095 288.31C381.531 288.603 382.082 288.75 382.75 288.75ZM407.94 275.455V290H406.235L398.309 278.58H398.167V290H396.406V275.455H398.11L406.065 286.903H406.207V275.455H407.94ZM423.737 282.727C423.737 284.261 423.46 285.587 422.906 286.705C422.352 287.822 421.592 288.684 420.626 289.29C419.661 289.896 418.557 290.199 417.317 290.199C416.076 290.199 414.973 289.896 414.007 289.29C413.041 288.684 412.281 287.822 411.727 286.705C411.173 285.587 410.896 284.261 410.896 282.727C410.896 281.193 411.173 279.867 411.727 278.75C412.281 277.633 413.041 276.771 414.007 276.165C414.973 275.559 416.076 275.256 417.317 275.256C418.557 275.256 419.661 275.559 420.626 276.165C421.592 276.771 422.352 277.633 422.906 278.75C423.46 279.867 423.737 281.193 423.737 282.727ZM422.033 282.727C422.033 281.468 421.822 280.405 421.401 279.538C420.984 278.672 420.418 278.016 419.703 277.571C418.993 277.126 418.197 276.903 417.317 276.903C416.436 276.903 415.638 277.126 414.923 277.571C414.213 278.016 413.647 278.672 413.226 279.538C412.809 280.405 412.601 281.468 412.601 282.727C412.601 283.987 412.809 285.05 413.226 285.916C413.647 286.783 414.213 287.438 414.923 287.884C415.638 288.329 416.436 288.551 417.317 288.551C418.197 288.551 418.993 288.329 419.703 287.884C420.418 287.438 420.984 286.783 421.401 285.916C421.822 285.05 422.033 283.987 422.033 282.727ZM425.298 277.017V275.455H436.207V277.017H431.633V290H429.872V277.017H425.298ZM448.727 294.318C447.917 294.318 447.221 294.214 446.638 294.006C446.056 293.802 445.571 293.532 445.183 293.196C444.799 292.865 444.494 292.509 444.266 292.131L445.602 291.193C445.753 291.392 445.945 291.619 446.177 291.875C446.409 292.135 446.726 292.36 447.129 292.55C447.536 292.744 448.068 292.841 448.727 292.841C449.607 292.841 450.334 292.628 450.907 292.202C451.48 291.776 451.766 291.108 451.766 290.199V287.983H451.624C451.501 288.182 451.326 288.428 451.099 288.722C450.876 289.01 450.554 289.268 450.133 289.496C449.716 289.718 449.153 289.83 448.442 289.83C447.562 289.83 446.771 289.621 446.07 289.205C445.374 288.788 444.823 288.182 444.415 287.386C444.013 286.591 443.812 285.625 443.812 284.489C443.812 283.371 444.008 282.398 444.401 281.57C444.794 280.736 445.341 280.092 446.042 279.638C446.743 279.179 447.552 278.949 448.471 278.949C449.181 278.949 449.745 279.067 450.161 279.304C450.583 279.536 450.905 279.801 451.127 280.099C451.354 280.393 451.53 280.634 451.653 280.824H451.823V279.091H453.442V290.312C453.442 291.25 453.229 292.012 452.803 292.599C452.382 293.191 451.814 293.625 451.099 293.899C450.388 294.179 449.598 294.318 448.727 294.318ZM448.67 288.324C449.342 288.324 449.91 288.17 450.374 287.862C450.838 287.554 451.191 287.112 451.433 286.534C451.674 285.956 451.795 285.265 451.795 284.46C451.795 283.674 451.676 282.981 451.44 282.379C451.203 281.778 450.853 281.307 450.388 280.966C449.924 280.625 449.352 280.455 448.67 280.455C447.96 280.455 447.368 280.634 446.894 280.994C446.425 281.354 446.073 281.837 445.836 282.443C445.604 283.049 445.488 283.722 445.488 284.46C445.488 285.218 445.606 285.888 445.843 286.47C446.085 287.048 446.44 287.502 446.908 287.834C447.382 288.161 447.969 288.324 448.67 288.324ZM459.721 290.256C459.03 290.256 458.402 290.125 457.839 289.865C457.275 289.6 456.828 289.219 456.496 288.722C456.165 288.22 455.999 287.614 455.999 286.903C455.999 286.278 456.122 285.772 456.369 285.384C456.615 284.991 456.944 284.683 457.356 284.46C457.768 284.238 458.222 284.072 458.719 283.963C459.221 283.849 459.726 283.759 460.232 283.693C460.895 283.608 461.433 283.544 461.844 283.501C462.261 283.454 462.564 283.376 462.754 283.267C462.948 283.158 463.045 282.969 463.045 282.699V282.642C463.045 281.941 462.853 281.397 462.469 281.009C462.091 280.62 461.515 280.426 460.744 280.426C459.943 280.426 459.316 280.601 458.862 280.952C458.407 281.302 458.087 281.676 457.903 282.074L456.312 281.506C456.596 280.843 456.975 280.327 457.448 279.957C457.926 279.583 458.447 279.323 459.011 279.176C459.579 279.025 460.138 278.949 460.687 278.949C461.037 278.949 461.44 278.991 461.894 279.077C462.353 279.157 462.796 279.325 463.222 279.581C463.653 279.837 464.011 280.223 464.295 280.739C464.579 281.255 464.721 281.946 464.721 282.812V290H463.045V288.523H462.96C462.846 288.759 462.656 289.013 462.391 289.283C462.126 289.553 461.773 289.782 461.333 289.972C460.893 290.161 460.355 290.256 459.721 290.256ZM459.977 288.75C460.639 288.75 461.198 288.62 461.653 288.359C462.112 288.099 462.458 287.763 462.69 287.351C462.926 286.939 463.045 286.506 463.045 286.051V284.517C462.974 284.602 462.817 284.68 462.576 284.751C462.339 284.818 462.065 284.877 461.752 284.929C461.444 284.976 461.144 285.019 460.85 285.057C460.561 285.09 460.327 285.118 460.147 285.142C459.711 285.199 459.304 285.291 458.925 285.419C458.551 285.542 458.248 285.729 458.016 285.98C457.789 286.226 457.675 286.562 457.675 286.989C457.675 287.571 457.891 288.011 458.322 288.31C458.757 288.603 459.309 288.75 459.977 288.75ZM472.525 279.091V280.511H466.871V279.091H472.525ZM468.519 276.477H470.195V286.875C470.195 287.348 470.264 287.704 470.401 287.94C470.543 288.172 470.723 288.329 470.941 288.409C471.163 288.485 471.398 288.523 471.644 288.523C471.828 288.523 471.98 288.513 472.098 288.494C472.217 288.471 472.311 288.452 472.382 288.438L472.723 289.943C472.61 289.986 472.451 290.028 472.248 290.071C472.044 290.118 471.786 290.142 471.473 290.142C471 290.142 470.536 290.04 470.081 289.837C469.632 289.633 469.257 289.323 468.959 288.906C468.666 288.49 468.519 287.964 468.519 287.33V276.477ZM479.502 290.227C478.451 290.227 477.545 289.995 476.782 289.531C476.025 289.062 475.44 288.409 475.028 287.571C474.621 286.728 474.417 285.748 474.417 284.631C474.417 283.513 474.621 282.528 475.028 281.676C475.44 280.819 476.013 280.152 476.747 279.673C477.485 279.19 478.347 278.949 479.332 278.949C479.9 278.949 480.461 279.044 481.015 279.233C481.569 279.422 482.074 279.73 482.528 280.156C482.983 280.578 483.345 281.136 483.615 281.832C483.885 282.528 484.02 283.385 484.02 284.403V285.114H475.61V283.665H482.315C482.315 283.049 482.192 282.5 481.946 282.017C481.704 281.534 481.359 281.153 480.909 280.874C480.464 280.594 479.938 280.455 479.332 280.455C478.664 280.455 478.087 280.62 477.599 280.952C477.116 281.278 476.744 281.705 476.484 282.23C476.224 282.756 476.093 283.319 476.093 283.92V284.886C476.093 285.71 476.235 286.409 476.52 286.982C476.808 287.55 477.208 287.983 477.72 288.281C478.231 288.575 478.825 288.722 479.502 288.722C479.943 288.722 480.341 288.66 480.696 288.537C481.056 288.409 481.366 288.22 481.626 287.969C481.886 287.713 482.088 287.396 482.23 287.017L483.849 287.472C483.679 288.021 483.392 288.504 482.99 288.92C482.587 289.332 482.09 289.654 481.498 289.886C480.906 290.114 480.241 290.227 479.502 290.227ZM487.791 290.114C487.44 290.114 487.14 289.988 486.889 289.737C486.638 289.486 486.512 289.186 486.512 288.835C486.512 288.485 486.638 288.184 486.889 287.933C487.14 287.682 487.44 287.557 487.791 287.557C488.141 287.557 488.442 287.682 488.693 287.933C488.944 288.184 489.069 288.485 489.069 288.835C489.069 289.067 489.01 289.28 488.892 289.474C488.778 289.669 488.624 289.825 488.43 289.943C488.241 290.057 488.028 290.114 487.791 290.114ZM277.329 303.091C277.244 302.371 276.898 301.812 276.292 301.415C275.686 301.017 274.943 300.818 274.062 300.818C273.418 300.818 272.855 300.922 272.372 301.131C271.894 301.339 271.52 301.625 271.25 301.99C270.984 302.355 270.852 302.769 270.852 303.233C270.852 303.621 270.944 303.955 271.129 304.234C271.318 304.509 271.56 304.739 271.853 304.923C272.147 305.103 272.455 305.252 272.777 305.371C273.099 305.484 273.395 305.577 273.664 305.648L275.142 306.045C275.52 306.145 275.942 306.282 276.406 306.457C276.875 306.633 277.322 306.872 277.748 307.175C278.179 307.473 278.534 307.857 278.814 308.325C279.093 308.794 279.233 309.369 279.233 310.051C279.233 310.837 279.027 311.547 278.615 312.182C278.208 312.816 277.611 313.321 276.825 313.695C276.044 314.069 275.094 314.256 273.977 314.256C272.935 314.256 272.033 314.088 271.271 313.751C270.513 313.415 269.917 312.946 269.481 312.345C269.05 311.744 268.806 311.045 268.75 310.25H270.568C270.615 310.799 270.8 311.254 271.122 311.614C271.449 311.969 271.86 312.234 272.358 312.409C272.859 312.58 273.399 312.665 273.977 312.665C274.649 312.665 275.253 312.556 275.788 312.338C276.323 312.116 276.747 311.808 277.059 311.415C277.372 311.017 277.528 310.553 277.528 310.023C277.528 309.54 277.393 309.147 277.123 308.844C276.853 308.541 276.498 308.295 276.058 308.105C275.618 307.916 275.142 307.75 274.63 307.608L272.841 307.097C271.704 306.77 270.805 306.304 270.142 305.697C269.479 305.091 269.147 304.298 269.147 303.318C269.147 302.504 269.368 301.794 269.808 301.188C270.253 300.577 270.85 300.103 271.598 299.767C272.35 299.426 273.191 299.256 274.119 299.256C275.056 299.256 275.89 299.424 276.619 299.76C277.348 300.091 277.926 300.546 278.352 301.124C278.783 301.701 279.01 302.357 279.034 303.091H277.329ZM286.646 303.091V304.511H280.992V303.091H286.646ZM282.64 300.477H284.316V310.875C284.316 311.348 284.385 311.704 284.522 311.94C284.664 312.172 284.844 312.329 285.062 312.409C285.284 312.485 285.519 312.523 285.765 312.523C285.95 312.523 286.101 312.513 286.219 312.494C286.338 312.471 286.433 312.452 286.504 312.438L286.844 313.943C286.731 313.986 286.572 314.028 286.369 314.071C286.165 314.118 285.907 314.142 285.594 314.142C285.121 314.142 284.657 314.04 284.202 313.837C283.753 313.633 283.379 313.323 283.08 312.906C282.787 312.49 282.64 311.964 282.64 311.33V300.477ZM292.377 314.256C291.686 314.256 291.058 314.125 290.495 313.865C289.932 313.6 289.484 313.219 289.153 312.722C288.821 312.22 288.656 311.614 288.656 310.903C288.656 310.278 288.779 309.772 289.025 309.384C289.271 308.991 289.6 308.683 290.012 308.46C290.424 308.238 290.879 308.072 291.376 307.963C291.878 307.849 292.382 307.759 292.888 307.693C293.551 307.608 294.089 307.544 294.501 307.501C294.917 307.454 295.22 307.376 295.41 307.267C295.604 307.158 295.701 306.969 295.701 306.699V306.642C295.701 305.941 295.509 305.397 295.126 305.009C294.747 304.62 294.172 304.426 293.4 304.426C292.6 304.426 291.972 304.601 291.518 304.952C291.063 305.302 290.744 305.676 290.559 306.074L288.968 305.506C289.252 304.843 289.631 304.327 290.104 303.957C290.583 303.583 291.103 303.323 291.667 303.176C292.235 303.025 292.794 302.949 293.343 302.949C293.693 302.949 294.096 302.991 294.55 303.077C295.01 303.157 295.452 303.325 295.879 303.581C296.309 303.837 296.667 304.223 296.951 304.739C297.235 305.255 297.377 305.946 297.377 306.812V314H295.701V312.523H295.616C295.502 312.759 295.313 313.013 295.048 313.283C294.782 313.553 294.43 313.782 293.989 313.972C293.549 314.161 293.012 314.256 292.377 314.256ZM292.633 312.75C293.296 312.75 293.854 312.62 294.309 312.359C294.768 312.099 295.114 311.763 295.346 311.351C295.583 310.939 295.701 310.506 295.701 310.051V308.517C295.63 308.602 295.474 308.68 295.232 308.751C294.996 308.818 294.721 308.877 294.408 308.929C294.101 308.976 293.8 309.019 293.506 309.057C293.218 309.09 292.983 309.118 292.803 309.142C292.368 309.199 291.96 309.291 291.582 309.419C291.208 309.542 290.905 309.729 290.673 309.98C290.445 310.226 290.332 310.562 290.332 310.989C290.332 311.571 290.547 312.011 290.978 312.31C291.414 312.603 291.965 312.75 292.633 312.75ZM300.436 314V303.091H302.056V304.739H302.169C302.368 304.199 302.728 303.761 303.249 303.425C303.77 303.089 304.357 302.92 305.01 302.92C305.133 302.92 305.287 302.923 305.472 302.928C305.657 302.932 305.796 302.939 305.891 302.949V304.653C305.834 304.639 305.704 304.618 305.5 304.589C305.301 304.556 305.091 304.54 304.868 304.54C304.338 304.54 303.864 304.651 303.448 304.874C303.036 305.091 302.709 305.394 302.468 305.783C302.231 306.166 302.113 306.604 302.113 307.097V314H300.436ZM313.306 303.091V304.511H307.652V303.091H313.306ZM309.3 300.477H310.976V310.875C310.976 311.348 311.045 311.704 311.182 311.94C311.324 312.172 311.504 312.329 311.722 312.409C311.944 312.485 312.179 312.523 312.425 312.523C312.61 312.523 312.761 312.513 312.88 312.494C312.998 312.471 313.093 312.452 313.164 312.438L313.505 313.943C313.391 313.986 313.232 314.028 313.029 314.071C312.825 314.118 312.567 314.142 312.255 314.142C311.781 314.142 311.317 314.04 310.863 313.837C310.413 313.633 310.039 313.323 309.74 312.906C309.447 312.49 309.3 311.964 309.3 311.33V300.477ZM325.884 314.227C324.899 314.227 324.035 313.993 323.292 313.524C322.553 313.055 321.975 312.4 321.559 311.557C321.147 310.714 320.941 309.729 320.941 308.602C320.941 307.466 321.147 306.474 321.559 305.626C321.975 304.779 322.553 304.121 323.292 303.652C324.035 303.183 324.899 302.949 325.884 302.949C326.869 302.949 327.73 303.183 328.469 303.652C329.212 304.121 329.79 304.779 330.202 305.626C330.619 306.474 330.827 307.466 330.827 308.602C330.827 309.729 330.619 310.714 330.202 311.557C329.79 312.4 329.212 313.055 328.469 313.524C327.73 313.993 326.869 314.227 325.884 314.227ZM325.884 312.722C326.632 312.722 327.248 312.53 327.73 312.146C328.213 311.763 328.571 311.259 328.803 310.634C329.035 310.009 329.151 309.331 329.151 308.602C329.151 307.873 329.035 307.194 328.803 306.564C328.571 305.934 328.213 305.425 327.73 305.037C327.248 304.649 326.632 304.455 325.884 304.455C325.136 304.455 324.52 304.649 324.037 305.037C323.554 305.425 323.197 305.934 322.965 306.564C322.733 307.194 322.617 307.873 322.617 308.602C322.617 309.331 322.733 310.009 322.965 310.634C323.197 311.259 323.554 311.763 324.037 312.146C324.52 312.53 325.136 312.722 325.884 312.722ZM338.244 303.091V304.511H332.363V303.091H338.244ZM334.124 314V301.585C334.124 300.96 334.271 300.439 334.565 300.023C334.858 299.606 335.239 299.294 335.708 299.085C336.177 298.877 336.672 298.773 337.192 298.773C337.604 298.773 337.941 298.806 338.201 298.872C338.461 298.938 338.656 299 338.783 299.057L338.3 300.506C338.215 300.477 338.097 300.442 337.945 300.399C337.799 300.357 337.604 300.335 337.363 300.335C336.809 300.335 336.409 300.475 336.163 300.754C335.921 301.034 335.8 301.443 335.8 301.983V314H334.124ZM345.451 303.091V304.511H339.57V303.091H345.451ZM341.331 314V301.585C341.331 300.96 341.478 300.439 341.772 300.023C342.065 299.606 342.446 299.294 342.915 299.085C343.384 298.877 343.879 298.773 344.4 298.773C344.811 298.773 345.148 298.806 345.408 298.872C345.668 298.938 345.863 299 345.99 299.057L345.507 300.506C345.422 300.477 345.304 300.442 345.152 300.399C345.006 300.357 344.811 300.335 344.57 300.335C344.016 300.335 343.616 300.475 343.37 300.754C343.128 301.034 343.007 301.443 343.007 301.983V314H341.331ZM355.896 314L352.572 303.091H354.334L356.692 311.443H356.805L359.135 303.091H360.925L363.226 311.415H363.339L365.697 303.091H367.459L364.135 314H362.487L360.101 305.619H359.93L357.544 314H355.896ZM369.675 314V303.091H371.351V314H369.675ZM370.527 301.273C370.2 301.273 369.919 301.161 369.682 300.939C369.45 300.716 369.334 300.449 369.334 300.136C369.334 299.824 369.45 299.556 369.682 299.334C369.919 299.111 370.2 299 370.527 299C370.854 299 371.133 299.111 371.365 299.334C371.602 299.556 371.72 299.824 371.72 300.136C371.72 300.449 371.602 300.716 371.365 300.939C371.133 301.161 370.854 301.273 370.527 301.273ZM379.165 303.091V304.511H373.512V303.091H379.165ZM375.159 300.477H376.836V310.875C376.836 311.348 376.904 311.704 377.042 311.94C377.184 312.172 377.364 312.329 377.581 312.409C377.804 312.485 378.038 312.523 378.284 312.523C378.469 312.523 378.621 312.513 378.739 312.494C378.857 312.471 378.952 312.452 379.023 312.438L379.364 313.943C379.25 313.986 379.092 314.028 378.888 314.071C378.685 314.118 378.426 314.142 378.114 314.142C377.641 314.142 377.176 314.04 376.722 313.837C376.272 313.633 375.898 313.323 375.6 312.906C375.306 312.49 375.159 311.964 375.159 311.33V300.477ZM383.597 307.438V314H381.921V299.455H383.597V304.795H383.739C383.995 304.232 384.378 303.785 384.89 303.453C385.406 303.117 386.092 302.949 386.949 302.949C387.693 302.949 388.344 303.098 388.902 303.396C389.461 303.69 389.894 304.142 390.202 304.753C390.515 305.359 390.671 306.131 390.671 307.068V314H388.995V307.182C388.995 306.315 388.77 305.645 388.32 305.172C387.875 304.694 387.257 304.455 386.466 304.455C385.917 304.455 385.425 304.571 384.989 304.803C384.558 305.035 384.217 305.373 383.966 305.818C383.72 306.263 383.597 306.803 383.597 307.438ZM403.794 314.227C402.809 314.227 401.945 313.993 401.202 313.524C400.463 313.055 399.885 312.4 399.469 311.557C399.057 310.714 398.851 309.729 398.851 308.602C398.851 307.466 399.057 306.474 399.469 305.626C399.885 304.779 400.463 304.121 401.202 303.652C401.945 303.183 402.809 302.949 403.794 302.949C404.779 302.949 405.641 303.183 406.379 303.652C407.123 304.121 407.7 304.779 408.112 305.626C408.529 306.474 408.737 307.466 408.737 308.602C408.737 309.729 408.529 310.714 408.112 311.557C407.7 312.4 407.123 313.055 406.379 313.524C405.641 313.993 404.779 314.227 403.794 314.227ZM403.794 312.722C404.542 312.722 405.158 312.53 405.641 312.146C406.124 311.763 406.481 311.259 406.713 310.634C406.945 310.009 407.061 309.331 407.061 308.602C407.061 307.873 406.945 307.194 406.713 306.564C406.481 305.934 406.124 305.425 405.641 305.037C405.158 304.649 404.542 304.455 403.794 304.455C403.046 304.455 402.43 304.649 401.947 305.037C401.464 305.425 401.107 305.934 400.875 306.564C400.643 307.194 400.527 307.873 400.527 308.602C400.527 309.331 400.643 310.009 400.875 310.634C401.107 311.259 401.464 311.763 401.947 312.146C402.43 312.53 403.046 312.722 403.794 312.722ZM412.972 307.438V314H411.296V303.091H412.915V304.795H413.057C413.313 304.241 413.701 303.796 414.222 303.46C414.743 303.119 415.415 302.949 416.239 302.949C416.978 302.949 417.624 303.1 418.178 303.403C418.732 303.702 419.163 304.156 419.471 304.767C419.778 305.373 419.932 306.14 419.932 307.068V314H418.256V307.182C418.256 306.325 418.033 305.657 417.588 305.179C417.143 304.696 416.533 304.455 415.756 304.455C415.221 304.455 414.743 304.571 414.321 304.803C413.905 305.035 413.576 305.373 413.334 305.818C413.093 306.263 412.972 306.803 412.972 307.438ZM427.569 314.227C426.518 314.227 425.611 313.995 424.849 313.531C424.091 313.062 423.506 312.409 423.094 311.571C422.687 310.728 422.484 309.748 422.484 308.631C422.484 307.513 422.687 306.528 423.094 305.676C423.506 304.819 424.079 304.152 424.813 303.673C425.552 303.19 426.414 302.949 427.398 302.949C427.967 302.949 428.528 303.044 429.082 303.233C429.636 303.422 430.14 303.73 430.594 304.156C431.049 304.578 431.411 305.136 431.681 305.832C431.951 306.528 432.086 307.385 432.086 308.403V309.114H423.677V307.665H430.381C430.381 307.049 430.258 306.5 430.012 306.017C429.771 305.534 429.425 305.153 428.975 304.874C428.53 304.594 428.004 304.455 427.398 304.455C426.731 304.455 426.153 304.62 425.665 304.952C425.183 305.278 424.811 305.705 424.55 306.23C424.29 306.756 424.16 307.319 424.16 307.92V308.886C424.16 309.71 424.302 310.409 424.586 310.982C424.875 311.55 425.275 311.983 425.786 312.281C426.298 312.575 426.892 312.722 427.569 312.722C428.009 312.722 428.407 312.66 428.762 312.537C429.122 312.409 429.432 312.22 429.692 311.969C429.953 311.713 430.154 311.396 430.296 311.017L431.915 311.472C431.745 312.021 431.459 312.504 431.056 312.92C430.654 313.332 430.156 313.654 429.565 313.886C428.973 314.114 428.308 314.227 427.569 314.227ZM440.488 314V299.455H442.164V304.824H442.306C442.429 304.634 442.6 304.393 442.817 304.099C443.04 303.801 443.357 303.536 443.769 303.304C444.186 303.067 444.749 302.949 445.46 302.949C446.378 302.949 447.188 303.179 447.888 303.638C448.589 304.097 449.136 304.748 449.529 305.591C449.922 306.434 450.119 307.428 450.119 308.574C450.119 309.729 449.922 310.731 449.529 311.578C449.136 312.421 448.592 313.074 447.896 313.538C447.2 313.998 446.397 314.227 445.488 314.227C444.787 314.227 444.226 314.111 443.805 313.879C443.383 313.643 443.059 313.375 442.832 313.077C442.604 312.774 442.429 312.523 442.306 312.324H442.107V314H440.488ZM442.136 308.545C442.136 309.369 442.256 310.096 442.498 310.726C442.739 311.351 443.092 311.841 443.556 312.196C444.02 312.546 444.588 312.722 445.261 312.722C445.961 312.722 446.546 312.537 447.015 312.168C447.488 311.794 447.844 311.292 448.08 310.662C448.322 310.027 448.442 309.322 448.442 308.545C448.442 307.778 448.324 307.087 448.087 306.472C447.855 305.851 447.503 305.361 447.029 305.001C446.56 304.637 445.971 304.455 445.261 304.455C444.579 304.455 444.006 304.627 443.542 304.973C443.078 305.314 442.728 305.792 442.491 306.408C442.254 307.018 442.136 307.731 442.136 308.545ZM454.359 299.455V314H452.683V299.455H454.359ZM461.86 314.227C460.876 314.227 460.011 313.993 459.268 313.524C458.529 313.055 457.952 312.4 457.535 311.557C457.123 310.714 456.917 309.729 456.917 308.602C456.917 307.466 457.123 306.474 457.535 305.626C457.952 304.779 458.529 304.121 459.268 303.652C460.011 303.183 460.876 302.949 461.86 302.949C462.845 302.949 463.707 303.183 464.446 303.652C465.189 304.121 465.767 304.779 466.179 305.626C466.595 306.474 466.804 307.466 466.804 308.602C466.804 309.729 466.595 310.714 466.179 311.557C465.767 312.4 465.189 313.055 464.446 313.524C463.707 313.993 462.845 314.227 461.86 314.227ZM461.86 312.722C462.609 312.722 463.224 312.53 463.707 312.146C464.19 311.763 464.547 311.259 464.779 310.634C465.011 310.009 465.127 309.331 465.127 308.602C465.127 307.873 465.011 307.194 464.779 306.564C464.547 305.934 464.19 305.425 463.707 305.037C463.224 304.649 462.609 304.455 461.86 304.455C461.112 304.455 460.497 304.649 460.014 305.037C459.531 305.425 459.173 305.934 458.941 306.564C458.709 307.194 458.593 307.873 458.593 308.602C458.593 309.331 458.709 310.009 458.941 310.634C459.173 311.259 459.531 311.763 460.014 312.146C460.497 312.53 461.112 312.722 461.86 312.722ZM473.794 314.227C472.771 314.227 471.891 313.986 471.152 313.503C470.413 313.02 469.845 312.355 469.447 311.507C469.05 310.66 468.851 309.691 468.851 308.602C468.851 307.494 469.054 306.517 469.462 305.669C469.874 304.817 470.446 304.152 471.18 303.673C471.919 303.19 472.781 302.949 473.766 302.949C474.533 302.949 475.224 303.091 475.839 303.375C476.455 303.659 476.959 304.057 477.352 304.568C477.745 305.08 477.989 305.676 478.084 306.358H476.408C476.28 305.861 475.996 305.42 475.555 305.037C475.12 304.649 474.533 304.455 473.794 304.455C473.141 304.455 472.568 304.625 472.075 304.966C471.588 305.302 471.206 305.778 470.932 306.393C470.662 307.004 470.527 307.722 470.527 308.545C470.527 309.388 470.66 310.122 470.925 310.747C471.195 311.372 471.573 311.857 472.061 312.203C472.554 312.549 473.131 312.722 473.794 312.722C474.23 312.722 474.625 312.646 474.98 312.494C475.335 312.343 475.636 312.125 475.882 311.841C476.128 311.557 476.304 311.216 476.408 310.818H478.084C477.989 311.462 477.755 312.042 477.381 312.558C477.011 313.07 476.521 313.477 475.911 313.78C475.304 314.078 474.599 314.227 473.794 314.227ZM482.097 310.023L482.068 307.949H482.409L487.182 303.091H489.256L484.17 308.233H484.028L482.097 310.023ZM480.534 314V299.455H482.21V314H480.534ZM487.466 314L483.205 308.602L484.398 307.438L489.597 314H487.466ZM492.635 314.114C492.284 314.114 491.984 313.988 491.733 313.737C491.482 313.486 491.356 313.186 491.356 312.835C491.356 312.485 491.482 312.184 491.733 311.933C491.984 311.682 492.284 311.557 492.635 311.557C492.985 311.557 493.286 311.682 493.537 311.933C493.788 312.184 493.913 312.485 493.913 312.835C493.913 313.067 493.854 313.28 493.735 313.474C493.622 313.669 493.468 313.825 493.274 313.943C493.084 314.057 492.871 314.114 492.635 314.114ZM58.8899 323.455V338H57.1286V323.455H58.8899ZM63.6715 323.455V324.733C63.6715 325.121 63.6005 325.536 63.4585 325.976C63.3211 326.411 63.1175 326.835 62.8477 327.247C62.5825 327.654 62.2605 328.009 61.8817 328.312L60.9727 327.574C61.271 327.148 61.529 326.705 61.7468 326.246C61.9693 325.782 62.0806 325.287 62.0806 324.761V323.455H63.6715ZM75.0991 327.091L71.065 338H69.3604L65.3263 327.091H67.1445L70.1559 335.784H70.2695L73.2809 327.091H75.0991ZM81.4947 338.227C80.4435 338.227 79.5368 337.995 78.7745 337.531C78.0169 337.062 77.4322 336.409 77.0202 335.571C76.613 334.728 76.4094 333.748 76.4094 332.631C76.4094 331.513 76.613 330.528 77.0202 329.676C77.4322 328.819 78.0051 328.152 78.739 327.673C79.4776 327.19 80.3394 326.949 81.3242 326.949C81.8924 326.949 82.4535 327.044 83.0075 327.233C83.5614 327.422 84.0657 327.73 84.5202 328.156C84.9748 328.578 85.337 329.136 85.6069 329.832C85.8768 330.528 86.0117 331.385 86.0117 332.403V333.114H77.6026V331.665H84.3072C84.3072 331.049 84.1841 330.5 83.9379 330.017C83.6964 329.534 83.3507 329.153 82.9009 328.874C82.4558 328.594 81.9303 328.455 81.3242 328.455C80.6566 328.455 80.079 328.62 79.5913 328.952C79.1083 329.278 78.7366 329.705 78.4762 330.23C78.2158 330.756 78.0856 331.319 78.0856 331.92V332.886C78.0856 333.71 78.2276 334.409 78.5117 334.982C78.8005 335.55 79.2006 335.983 79.712 336.281C80.2234 336.575 80.8176 336.722 81.4947 336.722C81.935 336.722 82.3327 336.66 82.6879 336.537C83.0477 336.409 83.3578 336.22 83.6183 335.969C83.8787 335.713 84.0799 335.396 84.2219 335.017L85.8413 335.472C85.6708 336.021 85.3844 336.504 84.9819 336.92C84.5794 337.332 84.0823 337.654 83.4904 337.886C82.8986 338.114 82.2333 338.227 81.4947 338.227ZM98.6183 338.227C97.5955 338.227 96.7148 337.986 95.9762 337.503C95.2376 337.02 94.6694 336.355 94.2717 335.507C93.8739 334.66 93.6751 333.691 93.6751 332.602C93.6751 331.494 93.8787 330.517 94.2859 329.669C94.6978 328.817 95.2707 328.152 96.0046 327.673C96.7433 327.19 97.605 326.949 98.5898 326.949C99.3569 326.949 100.048 327.091 100.664 327.375C101.279 327.659 101.783 328.057 102.176 328.568C102.569 329.08 102.813 329.676 102.908 330.358H101.232C101.104 329.861 100.82 329.42 100.38 329.037C99.944 328.649 99.3569 328.455 98.6183 328.455C97.9648 328.455 97.3919 328.625 96.8995 328.966C96.4118 329.302 96.0307 329.778 95.756 330.393C95.4862 331.004 95.3512 331.722 95.3512 332.545C95.3512 333.388 95.4838 334.122 95.7489 334.747C96.0188 335.372 96.3976 335.857 96.8853 336.203C97.3777 336.549 97.9554 336.722 98.6183 336.722C99.0539 336.722 99.4492 336.646 99.8043 336.494C100.159 336.343 100.46 336.125 100.706 335.841C100.953 335.557 101.128 335.216 101.232 334.818H102.908C102.813 335.462 102.579 336.042 102.205 336.558C101.836 337.07 101.346 337.477 100.735 337.78C100.129 338.078 99.4232 338.227 98.6183 338.227ZM107.034 331.438V338H105.358V323.455H107.034V328.795H107.176C107.432 328.232 107.816 327.785 108.327 327.453C108.843 327.117 109.53 326.949 110.387 326.949C111.13 326.949 111.781 327.098 112.34 327.396C112.899 327.69 113.332 328.142 113.64 328.753C113.952 329.359 114.108 330.131 114.108 331.068V338H112.432V331.182C112.432 330.315 112.207 329.645 111.757 329.172C111.312 328.694 110.694 328.455 109.904 328.455C109.355 328.455 108.862 328.571 108.426 328.803C107.996 329.035 107.655 329.373 107.404 329.818C107.158 330.263 107.034 330.803 107.034 331.438ZM121.607 338.227C120.622 338.227 119.758 337.993 119.014 337.524C118.276 337.055 117.698 336.4 117.281 335.557C116.869 334.714 116.663 333.729 116.663 332.602C116.663 331.466 116.869 330.474 117.281 329.626C117.698 328.779 118.276 328.121 119.014 327.652C119.758 327.183 120.622 326.949 121.607 326.949C122.591 326.949 123.453 327.183 124.192 327.652C124.935 328.121 125.513 328.779 125.925 329.626C126.341 330.474 126.55 331.466 126.55 332.602C126.55 333.729 126.341 334.714 125.925 335.557C125.513 336.4 124.935 337.055 124.192 337.524C123.453 337.993 122.591 338.227 121.607 338.227ZM121.607 336.722C122.355 336.722 122.97 336.53 123.453 336.146C123.936 335.763 124.294 335.259 124.526 334.634C124.758 334.009 124.874 333.331 124.874 332.602C124.874 331.873 124.758 331.194 124.526 330.564C124.294 329.934 123.936 329.425 123.453 329.037C122.97 328.649 122.355 328.455 121.607 328.455C120.858 328.455 120.243 328.649 119.76 329.037C119.277 329.425 118.92 329.934 118.688 330.564C118.455 331.194 118.339 331.873 118.339 332.602C118.339 333.331 118.455 334.009 118.688 334.634C118.92 335.259 119.277 335.763 119.76 336.146C120.243 336.53 120.858 336.722 121.607 336.722ZM136.836 329.534L135.33 329.96C135.235 329.709 135.096 329.465 134.911 329.229C134.731 328.987 134.485 328.788 134.172 328.632C133.86 328.476 133.46 328.398 132.972 328.398C132.304 328.398 131.748 328.552 131.303 328.859C130.863 329.162 130.642 329.548 130.642 330.017C130.642 330.434 130.794 330.763 131.097 331.004C131.4 331.246 131.873 331.447 132.517 331.608L134.137 332.006C135.112 332.242 135.839 332.605 136.317 333.092C136.795 333.575 137.034 334.198 137.034 334.96C137.034 335.585 136.855 336.144 136.495 336.636C136.14 337.129 135.642 337.517 135.003 337.801C134.364 338.085 133.621 338.227 132.773 338.227C131.66 338.227 130.739 337.986 130.01 337.503C129.281 337.02 128.819 336.314 128.625 335.386L130.216 334.989C130.368 335.576 130.654 336.016 131.076 336.31C131.502 336.603 132.058 336.75 132.745 336.75C133.526 336.75 134.146 336.584 134.605 336.253C135.069 335.917 135.301 335.514 135.301 335.045C135.301 334.667 135.169 334.349 134.904 334.094C134.639 333.833 134.231 333.639 133.682 333.511L131.864 333.085C130.865 332.848 130.131 332.482 129.662 331.984C129.198 331.482 128.966 330.855 128.966 330.102C128.966 329.487 129.139 328.942 129.485 328.469C129.835 327.995 130.311 327.624 130.912 327.354C131.518 327.084 132.205 326.949 132.972 326.949C134.051 326.949 134.899 327.186 135.515 327.659C136.135 328.133 136.575 328.758 136.836 329.534ZM144.131 338.227C143.08 338.227 142.174 337.995 141.411 337.531C140.654 337.062 140.069 336.409 139.657 335.571C139.25 334.728 139.046 333.748 139.046 332.631C139.046 331.513 139.25 330.528 139.657 329.676C140.069 328.819 140.642 328.152 141.376 327.673C142.114 327.19 142.976 326.949 143.961 326.949C144.529 326.949 145.09 327.044 145.644 327.233C146.198 327.422 146.702 327.73 147.157 328.156C147.612 328.578 147.974 329.136 148.244 329.832C148.513 330.528 148.648 331.385 148.648 332.403V333.114H140.239V331.665H146.944C146.944 331.049 146.821 330.5 146.575 330.017C146.333 329.534 145.987 329.153 145.538 328.874C145.093 328.594 144.567 328.455 143.961 328.455C143.293 328.455 142.716 328.62 142.228 328.952C141.745 329.278 141.373 329.705 141.113 330.23C140.853 330.756 140.722 331.319 140.722 331.92V332.886C140.722 333.71 140.864 334.409 141.148 334.982C141.437 335.55 141.837 335.983 142.349 336.281C142.86 336.575 143.454 336.722 144.131 336.722C144.572 336.722 144.969 336.66 145.325 336.537C145.684 336.409 145.995 336.22 146.255 335.969C146.515 335.713 146.717 335.396 146.859 335.017L148.478 335.472C148.308 336.021 148.021 336.504 147.619 336.92C147.216 337.332 146.719 337.654 146.127 337.886C145.535 338.114 144.87 338.227 144.131 338.227ZM152.874 331.438V338H151.198V327.091H152.817V328.795H152.96C153.215 328.241 153.603 327.796 154.124 327.46C154.645 327.119 155.317 326.949 156.141 326.949C156.88 326.949 157.526 327.1 158.08 327.403C158.634 327.702 159.065 328.156 159.373 328.767C159.681 329.373 159.835 330.14 159.835 331.068V338H158.158V331.182C158.158 330.325 157.936 329.657 157.491 329.179C157.046 328.696 156.435 328.455 155.658 328.455C155.123 328.455 154.645 328.571 154.224 328.803C153.807 329.035 153.478 329.373 153.237 329.818C152.995 330.263 152.874 330.803 152.874 331.438ZM173.267 327.091V328.511H167.613V327.091H173.267ZM169.261 324.477H170.937V334.875C170.937 335.348 171.006 335.704 171.143 335.94C171.285 336.172 171.465 336.329 171.683 336.409C171.905 336.485 172.14 336.523 172.386 336.523C172.571 336.523 172.722 336.513 172.841 336.494C172.959 336.471 173.054 336.452 173.125 336.438L173.466 337.943C173.352 337.986 173.193 338.028 172.99 338.071C172.786 338.118 172.528 338.142 172.216 338.142C171.742 338.142 171.278 338.04 170.824 337.837C170.374 337.633 170 337.323 169.701 336.906C169.408 336.49 169.261 335.964 169.261 335.33V324.477ZM180.103 338.227C179.118 338.227 178.254 337.993 177.51 337.524C176.772 337.055 176.194 336.4 175.777 335.557C175.365 334.714 175.159 333.729 175.159 332.602C175.159 331.466 175.365 330.474 175.777 329.626C176.194 328.779 176.772 328.121 177.51 327.652C178.254 327.183 179.118 326.949 180.103 326.949C181.087 326.949 181.949 327.183 182.688 327.652C183.431 328.121 184.009 328.779 184.421 329.626C184.837 330.474 185.046 331.466 185.046 332.602C185.046 333.729 184.837 334.714 184.421 335.557C184.009 336.4 183.431 337.055 182.688 337.524C181.949 337.993 181.087 338.227 180.103 338.227ZM180.103 336.722C180.851 336.722 181.466 336.53 181.949 336.146C182.432 335.763 182.79 335.259 183.022 334.634C183.254 334.009 183.37 333.331 183.37 332.602C183.37 331.873 183.254 331.194 183.022 330.564C182.79 329.934 182.432 329.425 181.949 329.037C181.466 328.649 180.851 328.455 180.103 328.455C179.355 328.455 178.739 328.649 178.256 329.037C177.773 329.425 177.416 329.934 177.184 330.564C176.952 331.194 176.836 331.873 176.836 332.602C176.836 333.331 176.952 334.009 177.184 334.634C177.416 335.259 177.773 335.763 178.256 336.146C178.739 336.53 179.355 336.722 180.103 336.722ZM200.104 333.54V327.091H201.781V338H200.104V336.153H199.991C199.735 336.707 199.337 337.179 198.798 337.567C198.258 337.95 197.576 338.142 196.752 338.142C196.07 338.142 195.464 337.993 194.934 337.695C194.404 337.392 193.987 336.937 193.684 336.331C193.381 335.72 193.229 334.951 193.229 334.023V327.091H194.906V333.909C194.906 334.705 195.128 335.339 195.573 335.812C196.023 336.286 196.596 336.523 197.292 336.523C197.709 336.523 198.132 336.416 198.563 336.203C198.999 335.99 199.363 335.663 199.657 335.223C199.955 334.783 200.104 334.222 200.104 333.54ZM212.578 329.534L211.072 329.96C210.977 329.709 210.838 329.465 210.653 329.229C210.473 328.987 210.227 328.788 209.914 328.632C209.602 328.476 209.202 328.398 208.714 328.398C208.047 328.398 207.49 328.552 207.045 328.859C206.605 329.162 206.385 329.548 206.385 330.017C206.385 330.434 206.536 330.763 206.839 331.004C207.142 331.246 207.616 331.447 208.26 331.608L209.879 332.006C210.854 332.242 211.581 332.605 212.059 333.092C212.538 333.575 212.777 334.198 212.777 334.96C212.777 335.585 212.597 336.144 212.237 336.636C211.882 337.129 211.385 337.517 210.745 337.801C210.106 338.085 209.363 338.227 208.515 338.227C207.403 338.227 206.482 337.986 205.752 337.503C205.023 337.02 204.562 336.314 204.368 335.386L205.958 334.989C206.11 335.576 206.396 336.016 206.818 336.31C207.244 336.603 207.8 336.75 208.487 336.75C209.268 336.75 209.888 336.584 210.348 336.253C210.812 335.917 211.044 335.514 211.044 335.045C211.044 334.667 210.911 334.349 210.646 334.094C210.381 333.833 209.974 333.639 209.424 333.511L207.606 333.085C206.607 332.848 205.873 332.482 205.404 331.984C204.94 331.482 204.708 330.855 204.708 330.102C204.708 329.487 204.881 328.942 205.227 328.469C205.577 327.995 206.053 327.624 206.654 327.354C207.261 327.084 207.947 326.949 208.714 326.949C209.794 326.949 210.641 327.186 211.257 327.659C211.877 328.133 212.317 328.758 212.578 329.534ZM219.874 338.227C218.822 338.227 217.916 337.995 217.153 337.531C216.396 337.062 215.811 336.409 215.399 335.571C214.992 334.728 214.788 333.748 214.788 332.631C214.788 331.513 214.992 330.528 215.399 329.676C215.811 328.819 216.384 328.152 217.118 327.673C217.857 327.19 218.718 326.949 219.703 326.949C220.271 326.949 220.832 327.044 221.386 327.233C221.94 327.422 222.445 327.73 222.899 328.156C223.354 328.578 223.716 329.136 223.986 329.832C224.256 330.528 224.391 331.385 224.391 332.403V333.114H215.982V331.665H222.686C222.686 331.049 222.563 330.5 222.317 330.017C222.075 329.534 221.73 329.153 221.28 328.874C220.835 328.594 220.309 328.455 219.703 328.455C219.036 328.455 218.458 328.62 217.97 328.952C217.487 329.278 217.116 329.705 216.855 330.23C216.595 330.756 216.464 331.319 216.464 331.92V332.886C216.464 333.71 216.607 334.409 216.891 334.982C217.179 335.55 217.58 335.983 218.091 336.281C218.602 336.575 219.196 336.722 219.874 336.722C220.314 336.722 220.712 336.66 221.067 336.537C221.427 336.409 221.737 336.22 221.997 335.969C222.258 335.713 222.459 335.396 222.601 335.017L224.22 335.472C224.05 336.021 223.763 336.504 223.361 336.92C222.958 337.332 222.461 337.654 221.869 337.886C221.277 338.114 220.612 338.227 219.874 338.227ZM235.776 338.256C235.084 338.256 234.457 338.125 233.893 337.865C233.33 337.6 232.883 337.219 232.551 336.722C232.22 336.22 232.054 335.614 232.054 334.903C232.054 334.278 232.177 333.772 232.423 333.384C232.67 332.991 232.999 332.683 233.411 332.46C233.822 332.238 234.277 332.072 234.774 331.963C235.276 331.849 235.78 331.759 236.287 331.693C236.95 331.608 237.487 331.544 237.899 331.501C238.316 331.454 238.619 331.376 238.808 331.267C239.002 331.158 239.099 330.969 239.099 330.699V330.642C239.099 329.941 238.908 329.397 238.524 329.009C238.145 328.62 237.57 328.426 236.798 328.426C235.998 328.426 235.371 328.601 234.916 328.952C234.462 329.302 234.142 329.676 233.957 330.074L232.366 329.506C232.651 328.843 233.029 328.327 233.503 327.957C233.981 327.583 234.502 327.323 235.065 327.176C235.634 327.025 236.192 326.949 236.741 326.949C237.092 326.949 237.494 326.991 237.949 327.077C238.408 327.157 238.851 327.325 239.277 327.581C239.708 327.837 240.065 328.223 240.349 328.739C240.634 329.255 240.776 329.946 240.776 330.812V338H239.099V336.523H239.014C238.901 336.759 238.711 337.013 238.446 337.283C238.181 337.553 237.828 337.782 237.388 337.972C236.947 338.161 236.41 338.256 235.776 338.256ZM236.031 336.75C236.694 336.75 237.253 336.62 237.707 336.359C238.167 336.099 238.512 335.763 238.744 335.351C238.981 334.939 239.099 334.506 239.099 334.051V332.517C239.028 332.602 238.872 332.68 238.631 332.751C238.394 332.818 238.119 332.877 237.807 332.929C237.499 332.976 237.198 333.019 236.905 333.057C236.616 333.09 236.382 333.118 236.202 333.142C235.766 333.199 235.359 333.291 234.98 333.419C234.606 333.542 234.303 333.729 234.071 333.98C233.844 334.226 233.73 334.562 233.73 334.989C233.73 335.571 233.946 336.011 234.376 336.31C234.812 336.603 235.364 336.75 236.031 336.75ZM253.892 338.227C252.869 338.227 251.988 337.986 251.25 337.503C250.511 337.02 249.943 336.355 249.545 335.507C249.147 334.66 248.949 333.691 248.949 332.602C248.949 331.494 249.152 330.517 249.559 329.669C249.971 328.817 250.544 328.152 251.278 327.673C252.017 327.19 252.878 326.949 253.863 326.949C254.63 326.949 255.322 327.091 255.937 327.375C256.553 327.659 257.057 328.057 257.45 328.568C257.843 329.08 258.087 329.676 258.181 330.358H256.505C256.377 329.861 256.093 329.42 255.653 329.037C255.217 328.649 254.63 328.455 253.892 328.455C253.238 328.455 252.665 328.625 252.173 328.966C251.685 329.302 251.304 329.778 251.029 330.393C250.76 331.004 250.625 331.722 250.625 332.545C250.625 333.388 250.757 334.122 251.022 334.747C251.292 335.372 251.671 335.857 252.159 336.203C252.651 336.549 253.229 336.722 253.892 336.722C254.327 336.722 254.723 336.646 255.078 336.494C255.433 336.343 255.734 336.125 255.98 335.841C256.226 335.557 256.401 335.216 256.505 334.818H258.181C258.087 335.462 257.852 336.042 257.478 336.558C257.109 337.07 256.619 337.477 256.008 337.78C255.402 338.078 254.697 338.227 253.892 338.227ZM260.632 338V327.091H262.308V338H260.632ZM261.484 325.273C261.157 325.273 260.876 325.161 260.639 324.939C260.407 324.716 260.291 324.449 260.291 324.136C260.291 323.824 260.407 323.556 260.639 323.334C260.876 323.111 261.157 323 261.484 323C261.811 323 262.09 323.111 262.322 323.334C262.559 323.556 262.677 323.824 262.677 324.136C262.677 324.449 262.559 324.716 262.322 324.939C262.09 325.161 261.811 325.273 261.484 325.273ZM265.378 338V327.091H266.997V328.739H267.111C267.31 328.199 267.67 327.761 268.19 327.425C268.711 327.089 269.298 326.92 269.952 326.92C270.075 326.92 270.229 326.923 270.413 326.928C270.598 326.932 270.738 326.939 270.832 326.949V328.653C270.776 328.639 270.645 328.618 270.442 328.589C270.243 328.556 270.032 328.54 269.81 328.54C269.279 328.54 268.806 328.651 268.389 328.874C267.977 329.091 267.651 329.394 267.409 329.783C267.172 330.166 267.054 330.604 267.054 331.097V338H265.378ZM276.919 338.227C275.896 338.227 275.016 337.986 274.277 337.503C273.538 337.02 272.97 336.355 272.572 335.507C272.175 334.66 271.976 333.691 271.976 332.602C271.976 331.494 272.179 330.517 272.587 329.669C272.999 328.817 273.571 328.152 274.305 327.673C275.044 327.19 275.906 326.949 276.891 326.949C277.658 326.949 278.349 327.091 278.964 327.375C279.58 327.659 280.084 328.057 280.477 328.568C280.87 329.08 281.114 329.676 281.209 330.358H279.533C279.405 329.861 279.121 329.42 278.68 329.037C278.245 328.649 277.658 328.455 276.919 328.455C276.266 328.455 275.693 328.625 275.2 328.966C274.713 329.302 274.331 329.778 274.057 330.393C273.787 331.004 273.652 331.722 273.652 332.545C273.652 333.388 273.785 334.122 274.05 334.747C274.32 335.372 274.698 335.857 275.186 336.203C275.679 336.549 276.256 336.722 276.919 336.722C277.355 336.722 277.75 336.646 278.105 336.494C278.46 336.343 278.761 336.125 279.007 335.841C279.253 335.557 279.429 335.216 279.533 334.818H281.209C281.114 335.462 280.88 336.042 280.506 336.558C280.136 337.07 279.646 337.477 279.036 337.78C278.429 338.078 277.724 338.227 276.919 338.227ZM285.335 323.455V338H283.659V323.455H285.335ZM292.979 338.227C291.928 338.227 291.021 337.995 290.259 337.531C289.501 337.062 288.917 336.409 288.505 335.571C288.097 334.728 287.894 333.748 287.894 332.631C287.894 331.513 288.097 330.528 288.505 329.676C288.917 328.819 289.489 328.152 290.223 327.673C290.962 327.19 291.824 326.949 292.809 326.949C293.377 326.949 293.938 327.044 294.492 327.233C295.046 327.422 295.55 327.73 296.005 328.156C296.459 328.578 296.821 329.136 297.091 329.832C297.361 330.528 297.496 331.385 297.496 332.403V333.114H289.087V331.665H295.792C295.792 331.049 295.668 330.5 295.422 330.017C295.181 329.534 294.835 329.153 294.385 328.874C293.94 328.594 293.415 328.455 292.809 328.455C292.141 328.455 291.563 328.62 291.076 328.952C290.593 329.278 290.221 329.705 289.961 330.23C289.7 330.756 289.57 331.319 289.57 331.92V332.886C289.57 333.71 289.712 334.409 289.996 334.982C290.285 335.55 290.685 335.983 291.196 336.281C291.708 336.575 292.302 336.722 292.979 336.722C293.419 336.722 293.817 336.66 294.172 336.537C294.532 336.409 294.842 336.22 295.103 335.969C295.363 335.713 295.564 335.396 295.706 335.017L297.326 335.472C297.155 336.021 296.869 336.504 296.466 336.92C296.064 337.332 295.567 337.654 294.975 337.886C294.383 338.114 293.718 338.227 292.979 338.227ZM302.546 336.011L302.432 336.778C302.352 337.318 302.229 337.896 302.063 338.511C301.902 339.127 301.734 339.707 301.559 340.251C301.383 340.796 301.239 341.229 301.125 341.551H299.847C299.908 341.248 299.989 340.848 300.088 340.351C300.188 339.854 300.287 339.297 300.387 338.682C300.491 338.071 300.576 337.446 300.642 336.807L300.728 336.011H302.546ZM311.504 338V323.455H313.18V328.824H313.322C313.445 328.634 313.615 328.393 313.833 328.099C314.056 327.801 314.373 327.536 314.785 327.304C315.201 327.067 315.765 326.949 316.475 326.949C317.394 326.949 318.203 327.179 318.904 327.638C319.605 328.097 320.152 328.748 320.545 329.591C320.938 330.434 321.134 331.428 321.134 332.574C321.134 333.729 320.938 334.731 320.545 335.578C320.152 336.421 319.607 337.074 318.911 337.538C318.215 337.998 317.413 338.227 316.504 338.227C315.803 338.227 315.242 338.111 314.82 337.879C314.399 337.643 314.075 337.375 313.847 337.077C313.62 336.774 313.445 336.523 313.322 336.324H313.123V338H311.504ZM313.151 332.545C313.151 333.369 313.272 334.096 313.513 334.726C313.755 335.351 314.108 335.841 314.572 336.196C315.036 336.546 315.604 336.722 316.276 336.722C316.977 336.722 317.562 336.537 318.031 336.168C318.504 335.794 318.859 335.292 319.096 334.662C319.337 334.027 319.458 333.322 319.458 332.545C319.458 331.778 319.34 331.087 319.103 330.472C318.871 329.851 318.518 329.361 318.045 329.001C317.576 328.637 316.987 328.455 316.276 328.455C315.594 328.455 315.022 328.627 314.558 328.973C314.094 329.314 313.743 329.792 313.506 330.408C313.27 331.018 313.151 331.731 313.151 332.545ZM330.573 333.54V327.091H332.249V338H330.573V336.153H330.46C330.204 336.707 329.806 337.179 329.266 337.567C328.727 337.95 328.045 338.142 327.221 338.142C326.539 338.142 325.933 337.993 325.403 337.695C324.872 337.392 324.456 336.937 324.153 336.331C323.85 335.72 323.698 334.951 323.698 334.023V327.091H325.374V333.909C325.374 334.705 325.597 335.339 326.042 335.812C326.492 336.286 327.065 336.523 327.761 336.523C328.177 336.523 328.601 336.416 329.032 336.203C329.468 335.99 329.832 335.663 330.126 335.223C330.424 334.783 330.573 334.222 330.573 333.54ZM340.064 327.091V328.511H334.41V327.091H340.064ZM336.058 324.477H337.734V334.875C337.734 335.348 337.803 335.704 337.94 335.94C338.082 336.172 338.262 336.329 338.48 336.409C338.702 336.485 338.937 336.523 339.183 336.523C339.368 336.523 339.519 336.513 339.637 336.494C339.756 336.471 339.85 336.452 339.922 336.438L340.262 337.943C340.149 337.986 339.99 338.028 339.787 338.071C339.583 338.118 339.325 338.142 339.012 338.142C338.539 338.142 338.075 338.04 337.62 337.837C337.171 337.633 336.797 337.323 336.498 336.906C336.205 336.49 336.058 335.964 336.058 335.33V324.477ZM349.289 342.091C349.005 342.091 348.752 342.067 348.529 342.02C348.307 341.977 348.153 341.935 348.068 341.892L348.494 340.415C348.901 340.519 349.261 340.557 349.574 340.528C349.886 340.5 350.163 340.36 350.404 340.109C350.651 339.863 350.876 339.463 351.079 338.909L351.392 338.057L347.358 327.091H349.176L352.187 335.784H352.301L355.312 327.091H357.13L352.5 339.591C352.291 340.154 352.033 340.621 351.725 340.99C351.418 341.364 351.06 341.641 350.653 341.821C350.251 342.001 349.796 342.091 349.289 342.091ZM363.384 338.227C362.399 338.227 361.535 337.993 360.792 337.524C360.053 337.055 359.475 336.4 359.059 335.557C358.647 334.714 358.441 333.729 358.441 332.602C358.441 331.466 358.647 330.474 359.059 329.626C359.475 328.779 360.053 328.121 360.792 327.652C361.535 327.183 362.399 326.949 363.384 326.949C364.369 326.949 365.23 327.183 365.969 327.652C366.712 328.121 367.29 328.779 367.702 329.626C368.119 330.474 368.327 331.466 368.327 332.602C368.327 333.729 368.119 334.714 367.702 335.557C367.29 336.4 366.712 337.055 365.969 337.524C365.23 337.993 364.369 338.227 363.384 338.227ZM363.384 336.722C364.132 336.722 364.748 336.53 365.23 336.146C365.713 335.763 366.071 335.259 366.303 334.634C366.535 334.009 366.651 333.331 366.651 332.602C366.651 331.873 366.535 331.194 366.303 330.564C366.071 329.934 365.713 329.425 365.23 329.037C364.748 328.649 364.132 328.455 363.384 328.455C362.636 328.455 362.02 328.649 361.537 329.037C361.054 329.425 360.697 329.934 360.465 330.564C360.233 331.194 360.117 331.873 360.117 332.602C360.117 333.331 360.233 334.009 360.465 334.634C360.697 335.259 361.054 335.763 361.537 336.146C362.02 336.53 362.636 336.722 363.384 336.722ZM377.761 333.54V327.091H379.437V338H377.761V336.153H377.647C377.391 336.707 376.994 337.179 376.454 337.567C375.914 337.95 375.232 338.142 374.408 338.142C373.727 338.142 373.121 337.993 372.59 337.695C372.06 337.392 371.643 336.937 371.34 336.331C371.037 335.72 370.886 334.951 370.886 334.023V327.091H372.562V333.909C372.562 334.705 372.784 335.339 373.229 335.812C373.679 336.286 374.252 336.523 374.948 336.523C375.365 336.523 375.789 336.416 376.219 336.203C376.655 335.99 377.02 335.663 377.313 335.223C377.612 334.783 377.761 334.222 377.761 333.54ZM392.564 338.227C391.541 338.227 390.66 337.986 389.922 337.503C389.183 337.02 388.615 336.355 388.217 335.507C387.819 334.66 387.62 333.691 387.62 332.602C387.62 331.494 387.824 330.517 388.231 329.669C388.643 328.817 389.216 328.152 389.95 327.673C390.689 327.19 391.55 326.949 392.535 326.949C393.302 326.949 393.993 327.091 394.609 327.375C395.225 327.659 395.729 328.057 396.122 328.568C396.515 329.08 396.759 329.676 396.853 330.358H395.177C395.049 329.861 394.765 329.42 394.325 329.037C393.889 328.649 393.302 328.455 392.564 328.455C391.91 328.455 391.337 328.625 390.845 328.966C390.357 329.302 389.976 329.778 389.701 330.393C389.431 331.004 389.297 331.722 389.297 332.545C389.297 333.388 389.429 334.122 389.694 334.747C389.964 335.372 390.343 335.857 390.831 336.203C391.323 336.549 391.901 336.722 392.564 336.722C392.999 336.722 393.395 336.646 393.75 336.494C394.105 336.343 394.405 336.125 394.652 335.841C394.898 335.557 395.073 335.216 395.177 334.818H396.853C396.759 335.462 396.524 336.042 396.15 336.558C395.781 337.07 395.291 337.477 394.68 337.78C394.074 338.078 393.368 338.227 392.564 338.227ZM402.514 338.256C401.823 338.256 401.195 338.125 400.632 337.865C400.068 337.6 399.621 337.219 399.289 336.722C398.958 336.22 398.792 335.614 398.792 334.903C398.792 334.278 398.915 333.772 399.162 333.384C399.408 332.991 399.737 332.683 400.149 332.46C400.561 332.238 401.015 332.072 401.512 331.963C402.014 331.849 402.519 331.759 403.025 331.693C403.688 331.608 404.225 331.544 404.637 331.501C405.054 331.454 405.357 331.376 405.547 331.267C405.741 331.158 405.838 330.969 405.838 330.699V330.642C405.838 329.941 405.646 329.397 405.262 329.009C404.884 328.62 404.308 328.426 403.537 328.426C402.736 328.426 402.109 328.601 401.654 328.952C401.2 329.302 400.88 329.676 400.696 330.074L399.105 329.506C399.389 328.843 399.768 328.327 400.241 327.957C400.719 327.583 401.24 327.323 401.804 327.176C402.372 327.025 402.931 326.949 403.48 326.949C403.83 326.949 404.233 326.991 404.687 327.077C405.146 327.157 405.589 327.325 406.015 327.581C406.446 327.837 406.804 328.223 407.088 328.739C407.372 329.255 407.514 329.946 407.514 330.812V338H405.838V336.523H405.752C405.639 336.759 405.449 337.013 405.184 337.283C404.919 337.553 404.566 337.782 404.126 337.972C403.686 338.161 403.148 338.256 402.514 338.256ZM402.77 336.75C403.432 336.75 403.991 336.62 404.446 336.359C404.905 336.099 405.251 335.763 405.483 335.351C405.719 334.939 405.838 334.506 405.838 334.051V332.517C405.767 332.602 405.61 332.68 405.369 332.751C405.132 332.818 404.858 332.877 404.545 332.929C404.237 332.976 403.937 333.019 403.643 333.057C403.354 333.09 403.12 333.118 402.94 333.142C402.504 333.199 402.097 333.291 401.718 333.419C401.344 333.542 401.041 333.729 400.809 333.98C400.582 334.226 400.468 334.562 400.468 334.989C400.468 335.571 400.684 336.011 401.115 336.31C401.55 336.603 402.102 336.75 402.77 336.75ZM412.249 331.438V338H410.573V327.091H412.192V328.795H412.335C412.59 328.241 412.978 327.796 413.499 327.46C414.02 327.119 414.692 326.949 415.516 326.949C416.255 326.949 416.901 327.1 417.455 327.403C418.009 327.702 418.44 328.156 418.748 328.767C419.056 329.373 419.21 330.14 419.21 331.068V338H417.533V331.182C417.533 330.325 417.311 329.657 416.866 329.179C416.421 328.696 415.81 328.455 415.033 328.455C414.498 328.455 414.02 328.571 413.599 328.803C413.182 329.035 412.853 329.373 412.612 329.818C412.37 330.263 412.249 330.803 412.249 331.438ZM434.772 333.54V327.091H436.449V338H434.772V336.153H434.659C434.403 336.707 434.005 337.179 433.466 337.567C432.926 337.95 432.244 338.142 431.42 338.142C430.738 338.142 430.132 337.993 429.602 337.695C429.072 337.392 428.655 336.937 428.352 336.331C428.049 335.72 427.897 334.951 427.897 334.023V327.091H429.574V333.909C429.574 334.705 429.796 335.339 430.241 335.812C430.691 336.286 431.264 336.523 431.96 336.523C432.377 336.523 432.8 336.416 433.231 336.203C433.667 335.99 434.031 335.663 434.325 335.223C434.623 334.783 434.772 334.222 434.772 333.54ZM447.246 329.534L445.74 329.96C445.645 329.709 445.506 329.465 445.321 329.229C445.141 328.987 444.895 328.788 444.582 328.632C444.27 328.476 443.87 328.398 443.382 328.398C442.714 328.398 442.158 328.552 441.713 328.859C441.273 329.162 441.053 329.548 441.053 330.017C441.053 330.434 441.204 330.763 441.507 331.004C441.81 331.246 442.284 331.447 442.928 331.608L444.547 332.006C445.522 332.242 446.249 332.605 446.727 333.092C447.205 333.575 447.445 334.198 447.445 334.96C447.445 335.585 447.265 336.144 446.905 336.636C446.55 337.129 446.053 337.517 445.413 337.801C444.774 338.085 444.031 338.227 443.183 338.227C442.071 338.227 441.15 337.986 440.42 337.503C439.691 337.02 439.23 336.314 439.036 335.386L440.626 334.989C440.778 335.576 441.064 336.016 441.486 336.31C441.912 336.603 442.468 336.75 443.155 336.75C443.936 336.75 444.556 336.584 445.016 336.253C445.48 335.917 445.712 335.514 445.712 335.045C445.712 334.667 445.579 334.349 445.314 334.094C445.049 333.833 444.642 333.639 444.092 333.511L442.274 333.085C441.275 332.848 440.541 332.482 440.072 331.984C439.608 331.482 439.376 330.855 439.376 330.102C439.376 329.487 439.549 328.942 439.895 328.469C440.245 327.995 440.721 327.624 441.322 327.354C441.929 327.084 442.615 326.949 443.382 326.949C444.462 326.949 445.309 327.186 445.925 327.659C446.545 328.133 446.985 328.758 447.246 329.534ZM454.542 338.227C453.49 338.227 452.584 337.995 451.821 337.531C451.064 337.062 450.479 336.409 450.067 335.571C449.66 334.728 449.456 333.748 449.456 332.631C449.456 331.513 449.66 330.528 450.067 329.676C450.479 328.819 451.052 328.152 451.786 327.673C452.525 327.19 453.386 326.949 454.371 326.949C454.939 326.949 455.5 327.044 456.054 327.233C456.608 327.422 457.113 327.73 457.567 328.156C458.022 328.578 458.384 329.136 458.654 329.832C458.924 330.528 459.059 331.385 459.059 332.403V333.114H450.65V331.665H457.354C457.354 331.049 457.231 330.5 456.985 330.017C456.743 329.534 456.398 329.153 455.948 328.874C455.503 328.594 454.977 328.455 454.371 328.455C453.703 328.455 453.126 328.62 452.638 328.952C452.155 329.278 451.783 329.705 451.523 330.23C451.263 330.756 451.132 331.319 451.132 331.92V332.886C451.132 333.71 451.275 334.409 451.559 334.982C451.847 335.55 452.248 335.983 452.759 336.281C453.27 336.575 453.864 336.722 454.542 336.722C454.982 336.722 455.38 336.66 455.735 336.537C456.095 336.409 456.405 336.22 456.665 335.969C456.926 335.713 457.127 335.396 457.269 335.017L458.888 335.472C458.718 336.021 458.431 336.504 458.029 336.92C457.626 337.332 457.129 337.654 456.537 337.886C455.945 338.114 455.28 338.227 454.542 338.227ZM469.705 338L466.381 327.091H468.142L470.5 335.443H470.614L472.944 327.091H474.733L477.034 335.415H477.148L479.506 327.091H481.267L477.944 338H476.296L473.909 329.619H473.739L471.353 338H469.705ZM485.159 331.438V338H483.483V323.455H485.159V328.795H485.301C485.557 328.232 485.941 327.785 486.452 327.453C486.968 327.117 487.655 326.949 488.512 326.949C489.255 326.949 489.906 327.098 490.465 327.396C491.024 327.69 491.457 328.142 491.765 328.753C492.077 329.359 492.233 330.131 492.233 331.068V338H490.557V331.182C490.557 330.315 490.332 329.645 489.882 329.172C489.437 328.694 488.819 328.455 488.029 328.455C487.48 328.455 486.987 328.571 486.551 328.803C486.121 329.035 485.78 329.373 485.529 329.818C485.283 330.263 485.159 330.803 485.159 331.438ZM498.51 338.256C497.819 338.256 497.191 338.125 496.628 337.865C496.064 337.6 495.617 337.219 495.286 336.722C494.954 336.22 494.788 335.614 494.788 334.903C494.788 334.278 494.911 333.772 495.158 333.384C495.404 332.991 495.733 332.683 496.145 332.46C496.557 332.238 497.011 332.072 497.509 331.963C498.01 331.849 498.515 331.759 499.021 331.693C499.684 331.608 500.222 331.544 500.634 331.501C501.05 331.454 501.353 331.376 501.543 331.267C501.737 331.158 501.834 330.969 501.834 330.699V330.642C501.834 329.941 501.642 329.397 501.259 329.009C500.88 328.62 500.304 328.426 499.533 328.426C498.732 328.426 498.105 328.601 497.651 328.952C497.196 329.302 496.876 329.676 496.692 330.074L495.101 329.506C495.385 328.843 495.764 328.327 496.237 327.957C496.715 327.583 497.236 327.323 497.8 327.176C498.368 327.025 498.927 326.949 499.476 326.949C499.826 326.949 500.229 326.991 500.683 327.077C501.143 327.157 501.585 327.325 502.011 327.581C502.442 327.837 502.8 328.223 503.084 328.739C503.368 329.255 503.51 329.946 503.51 330.812V338H501.834V336.523H501.749C501.635 336.759 501.446 337.013 501.18 337.283C500.915 337.553 500.563 337.782 500.122 337.972C499.682 338.161 499.144 338.256 498.51 338.256ZM498.766 336.75C499.429 336.75 499.987 336.62 500.442 336.359C500.901 336.099 501.247 335.763 501.479 335.351C501.715 334.939 501.834 334.506 501.834 334.051V332.517C501.763 332.602 501.607 332.68 501.365 332.751C501.128 332.818 500.854 332.877 500.541 332.929C500.233 332.976 499.933 333.019 499.639 333.057C499.35 333.09 499.116 333.118 498.936 333.142C498.5 333.199 498.093 333.291 497.714 333.419C497.34 333.542 497.037 333.729 496.805 333.98C496.578 334.226 496.464 334.562 496.464 334.989C496.464 335.571 496.68 336.011 497.111 336.31C497.546 336.603 498.098 336.75 498.766 336.75ZM511.314 327.091V328.511H505.66V327.091H511.314ZM507.308 324.477H508.984V334.875C508.984 335.348 509.053 335.704 509.19 335.94C509.332 336.172 509.512 336.329 509.73 336.409C509.952 336.485 510.187 336.523 510.433 336.523C510.618 336.523 510.769 336.513 510.887 336.494C511.006 336.471 511.1 336.452 511.172 336.438L511.512 337.943C511.399 337.986 511.24 338.028 511.037 338.071C510.833 338.118 510.575 338.142 510.262 338.142C509.789 338.142 509.325 338.04 508.87 337.837C508.421 337.633 508.047 337.323 507.748 336.906C507.455 336.49 507.308 335.964 507.308 335.33V324.477ZM518.292 338.227C517.24 338.227 516.334 337.995 515.571 337.531C514.814 337.062 514.229 336.409 513.817 335.571C513.41 334.728 513.206 333.748 513.206 332.631C513.206 331.513 513.41 330.528 513.817 329.676C514.229 328.819 514.802 328.152 515.536 327.673C516.275 327.19 517.136 326.949 518.121 326.949C518.689 326.949 519.25 327.044 519.804 327.233C520.358 327.422 520.863 327.73 521.317 328.156C521.772 328.578 522.134 329.136 522.404 329.832C522.674 330.528 522.809 331.385 522.809 332.403V333.114H514.4V331.665H521.104C521.104 331.049 520.981 330.5 520.735 330.017C520.493 329.534 520.148 329.153 519.698 328.874C519.253 328.594 518.727 328.455 518.121 328.455C517.453 328.455 516.876 328.62 516.388 328.952C515.905 329.278 515.533 329.705 515.273 330.23C515.013 330.756 514.882 331.319 514.882 331.92V332.886C514.882 333.71 515.025 334.409 515.309 334.982C515.597 335.55 515.998 335.983 516.509 336.281C517.02 336.575 517.614 336.722 518.292 336.722C518.732 336.722 519.13 336.66 519.485 336.537C519.845 336.409 520.155 336.22 520.415 335.969C520.676 335.713 520.877 335.396 521.019 335.017L522.638 335.472C522.468 336.021 522.181 336.504 521.779 336.92C521.376 337.332 520.879 337.654 520.287 337.886C519.695 338.114 519.03 338.227 518.292 338.227ZM533.947 327.091L529.913 338H528.208L524.174 327.091H525.992L529.004 335.784H529.117L532.129 327.091H533.947ZM540.342 338.227C539.291 338.227 538.384 337.995 537.622 337.531C536.865 337.062 536.28 336.409 535.868 335.571C535.461 334.728 535.257 333.748 535.257 332.631C535.257 331.513 535.461 330.528 535.868 329.676C536.28 328.819 536.853 328.152 537.587 327.673C538.325 327.19 539.187 326.949 540.172 326.949C540.74 326.949 541.301 327.044 541.855 327.233C542.409 327.422 542.913 327.73 543.368 328.156C543.822 328.578 544.185 329.136 544.455 329.832C544.724 330.528 544.859 331.385 544.859 332.403V333.114H536.45V331.665H543.155C543.155 331.049 543.032 330.5 542.786 330.017C542.544 329.534 542.198 329.153 541.749 328.874C541.304 328.594 540.778 328.455 540.172 328.455C539.504 328.455 538.927 328.62 538.439 328.952C537.956 329.278 537.584 329.705 537.324 330.23C537.063 330.756 536.933 331.319 536.933 331.92V332.886C536.933 333.71 537.075 334.409 537.359 334.982C537.648 335.55 538.048 335.983 538.56 336.281C539.071 336.575 539.665 336.722 540.342 336.722C540.783 336.722 541.18 336.66 541.536 336.537C541.895 336.409 542.205 336.22 542.466 335.969C542.726 335.713 542.928 335.396 543.07 335.017L544.689 335.472C544.518 336.021 544.232 336.504 543.83 336.92C543.427 337.332 542.93 337.654 542.338 337.886C541.746 338.114 541.081 338.227 540.342 338.227ZM547.409 338V327.091H549.028V328.739H549.142C549.341 328.199 549.701 327.761 550.222 327.425C550.742 327.089 551.33 326.92 551.983 326.92C552.106 326.92 552.26 326.923 552.445 326.928C552.629 326.932 552.769 326.939 552.864 326.949V328.653C552.807 328.639 552.677 328.618 552.473 328.589C552.274 328.556 552.063 328.54 551.841 328.54C551.311 328.54 550.837 328.651 550.42 328.874C550.009 329.091 549.682 329.394 549.44 329.783C549.204 330.166 549.085 330.604 549.085 331.097V338H547.409ZM560.703 338V323.455H562.379V328.824H562.521C562.644 328.634 562.815 328.393 563.032 328.099C563.255 327.801 563.572 327.536 563.984 327.304C564.401 327.067 564.964 326.949 565.674 326.949C566.593 326.949 567.403 327.179 568.103 327.638C568.804 328.097 569.351 328.748 569.744 329.591C570.137 330.434 570.333 331.428 570.333 332.574C570.333 333.729 570.137 334.731 569.744 335.578C569.351 336.421 568.806 337.074 568.11 337.538C567.414 337.998 566.612 338.227 565.703 338.227C565.002 338.227 564.441 338.111 564.02 337.879C563.598 337.643 563.274 337.375 563.047 337.077C562.819 336.774 562.644 336.523 562.521 336.324H562.322V338H560.703ZM562.35 332.545C562.35 333.369 562.471 334.096 562.713 334.726C562.954 335.351 563.307 335.841 563.771 336.196C564.235 336.546 564.803 336.722 565.475 336.722C566.176 336.722 566.761 336.537 567.23 336.168C567.703 335.794 568.058 335.292 568.295 334.662C568.537 334.027 568.657 333.322 568.657 332.545C568.657 331.778 568.539 331.087 568.302 330.472C568.07 329.851 567.717 329.361 567.244 329.001C566.775 328.637 566.186 328.455 565.475 328.455C564.794 328.455 564.221 328.627 563.757 328.973C563.293 329.314 562.942 329.792 562.706 330.408C562.469 331.018 562.35 331.731 562.35 332.545ZM574.574 323.455V338H572.897V323.455H574.574ZM582.075 338.227C581.09 338.227 580.226 337.993 579.483 337.524C578.744 337.055 578.167 336.4 577.75 335.557C577.338 334.714 577.132 333.729 577.132 332.602C577.132 331.466 577.338 330.474 577.75 329.626C578.167 328.779 578.744 328.121 579.483 327.652C580.226 327.183 581.09 326.949 582.075 326.949C583.06 326.949 583.922 327.183 584.661 327.652C585.404 328.121 585.982 328.779 586.393 329.626C586.81 330.474 587.018 331.466 587.018 332.602C587.018 333.729 586.81 334.714 586.393 335.557C585.982 336.4 585.404 337.055 584.661 337.524C583.922 337.993 583.06 338.227 582.075 338.227ZM582.075 336.722C582.823 336.722 583.439 336.53 583.922 336.146C584.405 335.763 584.762 335.259 584.994 334.634C585.226 334.009 585.342 333.331 585.342 332.602C585.342 331.873 585.226 331.194 584.994 330.564C584.762 329.934 584.405 329.425 583.922 329.037C583.439 328.649 582.823 328.455 582.075 328.455C581.327 328.455 580.712 328.649 580.229 329.037C579.746 329.425 579.388 329.934 579.156 330.564C578.924 331.194 578.808 331.873 578.808 332.602C578.808 333.331 578.924 334.009 579.156 334.634C579.388 335.259 579.746 335.763 580.229 336.146C580.712 336.53 581.327 336.722 582.075 336.722ZM594.009 338.227C592.986 338.227 592.105 337.986 591.367 337.503C590.628 337.02 590.06 336.355 589.662 335.507C589.265 334.66 589.066 333.691 589.066 332.602C589.066 331.494 589.269 330.517 589.676 329.669C590.088 328.817 590.661 328.152 591.395 327.673C592.134 327.19 592.996 326.949 593.98 326.949C594.748 326.949 595.439 327.091 596.054 327.375C596.67 327.659 597.174 328.057 597.567 328.568C597.96 329.08 598.204 329.676 598.299 330.358H596.623C596.495 329.861 596.211 329.42 595.77 329.037C595.335 328.649 594.748 328.455 594.009 328.455C593.355 328.455 592.783 328.625 592.29 328.966C591.802 329.302 591.421 329.778 591.147 330.393C590.877 331.004 590.742 331.722 590.742 332.545C590.742 333.388 590.874 334.122 591.14 334.747C591.409 335.372 591.788 335.857 592.276 336.203C592.768 336.549 593.346 336.722 594.009 336.722C594.444 336.722 594.84 336.646 595.195 336.494C595.55 336.343 595.851 336.125 596.097 335.841C596.343 335.557 596.518 335.216 596.623 334.818H598.299C598.204 335.462 597.97 336.042 597.596 336.558C597.226 337.07 596.736 337.477 596.125 337.78C595.519 338.078 594.814 338.227 594.009 338.227ZM602.311 334.023L602.283 331.949H602.624L607.397 327.091H609.471L604.385 332.233H604.243L602.311 334.023ZM600.749 338V323.455H602.425V338H600.749ZM607.681 338L603.419 332.602L604.613 331.438L609.811 338H607.681ZM618.332 342.091C618.048 342.091 617.795 342.067 617.572 342.02C617.35 341.977 617.196 341.935 617.111 341.892L617.537 340.415C617.944 340.519 618.304 340.557 618.616 340.528C618.929 340.5 619.206 340.36 619.447 340.109C619.694 339.863 619.919 339.463 620.122 338.909L620.435 338.057L616.401 327.091H618.219L621.23 335.784H621.344L624.355 327.091H626.173L621.543 339.591C621.334 340.154 621.076 340.621 620.768 340.99C620.461 341.364 620.103 341.641 619.696 341.821C619.294 342.001 618.839 342.091 618.332 342.091ZM632.427 338.227C631.442 338.227 630.578 337.993 629.835 337.524C629.096 337.055 628.518 336.4 628.102 335.557C627.69 334.714 627.484 333.729 627.484 332.602C627.484 331.466 627.69 330.474 628.102 329.626C628.518 328.779 629.096 328.121 629.835 327.652C630.578 327.183 631.442 326.949 632.427 326.949C633.412 326.949 634.273 327.183 635.012 327.652C635.755 328.121 636.333 328.779 636.745 329.626C637.162 330.474 637.37 331.466 637.37 332.602C637.37 333.729 637.162 334.714 636.745 335.557C636.333 336.4 635.755 337.055 635.012 337.524C634.273 337.993 633.412 338.227 632.427 338.227ZM632.427 336.722C633.175 336.722 633.79 336.53 634.273 336.146C634.756 335.763 635.114 335.259 635.346 334.634C635.578 334.009 635.694 333.331 635.694 332.602C635.694 331.873 635.578 331.194 635.346 330.564C635.114 329.934 634.756 329.425 634.273 329.037C633.79 328.649 633.175 328.455 632.427 328.455C631.679 328.455 631.063 328.649 630.58 329.037C630.097 329.425 629.74 329.934 629.508 330.564C629.276 331.194 629.16 331.873 629.16 332.602C629.16 333.331 629.276 334.009 629.508 334.634C629.74 335.259 630.097 335.763 630.58 336.146C631.063 336.53 631.679 336.722 632.427 336.722ZM646.804 333.54V327.091H648.48V338H646.804V336.153H646.69C646.434 336.707 646.037 337.179 645.497 337.567C644.957 337.95 644.275 338.142 643.451 338.142C642.77 338.142 642.163 337.993 641.633 337.695C641.103 337.392 640.686 336.937 640.383 336.331C640.08 335.72 639.929 334.951 639.929 334.023V327.091H641.605V333.909C641.605 334.705 641.827 335.339 642.272 335.812C642.722 336.286 643.295 336.523 643.991 336.523C644.408 336.523 644.832 336.416 645.262 336.203C645.698 335.99 646.063 335.663 646.356 335.223C646.654 334.783 646.804 334.222 646.804 333.54ZM659.646 338L656.322 327.091H658.084L660.442 335.443H660.555L662.885 327.091H664.675L666.976 335.415H667.089L669.447 327.091H671.209L667.885 338H666.237L663.851 329.619H663.68L661.294 338H659.646ZM676.635 338.256C675.944 338.256 675.316 338.125 674.753 337.865C674.189 337.6 673.742 337.219 673.411 336.722C673.079 336.22 672.913 335.614 672.913 334.903C672.913 334.278 673.036 333.772 673.283 333.384C673.529 332.991 673.858 332.683 674.27 332.46C674.682 332.238 675.136 332.072 675.634 331.963C676.135 331.849 676.64 331.759 677.146 331.693C677.809 331.608 678.347 331.544 678.759 331.501C679.175 331.454 679.478 331.376 679.668 331.267C679.862 331.158 679.959 330.969 679.959 330.699V330.642C679.959 329.941 679.767 329.397 679.384 329.009C679.005 328.62 678.429 328.426 677.658 328.426C676.857 328.426 676.23 328.601 675.776 328.952C675.321 329.302 675.001 329.676 674.817 330.074L673.226 329.506C673.51 328.843 673.889 328.327 674.362 327.957C674.84 327.583 675.361 327.323 675.925 327.176C676.493 327.025 677.052 326.949 677.601 326.949C677.951 326.949 678.354 326.991 678.808 327.077C679.268 327.157 679.71 327.325 680.136 327.581C680.567 327.837 680.925 328.223 681.209 328.739C681.493 329.255 681.635 329.946 681.635 330.812V338H679.959V336.523H679.874C679.76 336.759 679.571 337.013 679.305 337.283C679.04 337.553 678.688 337.782 678.247 337.972C677.807 338.161 677.269 338.256 676.635 338.256ZM676.891 336.75C677.554 336.75 678.112 336.62 678.567 336.359C679.026 336.099 679.372 335.763 679.604 335.351C679.84 334.939 679.959 334.506 679.959 334.051V332.517C679.888 332.602 679.732 332.68 679.49 332.751C679.253 332.818 678.979 332.877 678.666 332.929C678.358 332.976 678.058 333.019 677.764 333.057C677.475 333.09 677.241 333.118 677.061 333.142C676.625 333.199 676.218 333.291 675.839 333.419C675.465 333.542 675.162 333.729 674.93 333.98C674.703 334.226 674.589 334.562 674.589 334.989C674.589 335.571 674.805 336.011 675.236 336.31C675.671 336.603 676.223 336.75 676.891 336.75ZM686.37 331.438V338H684.694V327.091H686.314V328.795H686.456C686.711 328.241 687.1 327.796 687.62 327.46C688.141 327.119 688.814 326.949 689.637 326.949C690.376 326.949 691.022 327.1 691.576 327.403C692.13 327.702 692.561 328.156 692.869 328.767C693.177 329.373 693.331 330.14 693.331 331.068V338H691.654V331.182C691.654 330.325 691.432 329.657 690.987 329.179C690.542 328.696 689.931 328.455 689.154 328.455C688.619 328.455 688.141 328.571 687.72 328.803C687.303 329.035 686.974 329.373 686.733 329.818C686.491 330.263 686.37 330.803 686.37 331.438ZM701.138 327.091V328.511H695.484V327.091H701.138ZM697.132 324.477H698.808V334.875C698.808 335.348 698.877 335.704 699.014 335.94C699.156 336.172 699.336 336.329 699.554 336.409C699.777 336.485 700.011 336.523 700.257 336.523C700.442 336.523 700.593 336.513 700.712 336.494C700.83 336.471 700.925 336.452 700.996 336.438L701.337 337.943C701.223 337.986 701.064 338.028 700.861 338.071C700.657 338.118 700.399 338.142 700.087 338.142C699.613 338.142 699.149 338.04 698.695 337.837C698.245 337.633 697.871 337.323 697.572 336.906C697.279 336.49 697.132 335.964 697.132 335.33V324.477ZM704.881 338.114C704.53 338.114 704.23 337.988 703.979 337.737C703.728 337.486 703.602 337.186 703.602 336.835C703.602 336.485 703.728 336.184 703.979 335.933C704.23 335.682 704.53 335.557 704.881 335.557C705.231 335.557 705.532 335.682 705.783 335.933C706.034 336.184 706.159 336.485 706.159 336.835C706.159 337.067 706.1 337.28 705.982 337.474C705.868 337.669 705.714 337.825 705.52 337.943C705.33 338.057 705.117 338.114 704.881 338.114Z" fill="white"/>
<rect x="332" y="128" width="100" height="100" rx="50" fill="#D9D9D9"/>
<rect x="333.5" y="129.5" width="97" height="97" rx="48.5" stroke="white" stroke-opacity="0.4" stroke-width="3"/>
</svg>
