<svg width="2164" height="1117" viewBox="0 0 2164 1117" fill="none" xmlns="http://www.w3.org/2000/svg">
<rect width="2163.1" height="1116.99" rx="85.05" fill="#171717"/>
<path d="M493.806 580.635L421.642 316.722H454.116L509.269 531.667H511.847L568.031 316.722H604.113L660.297 531.667H662.875L718.028 316.722H750.502L678.338 580.635H645.349L587.103 370.329H585.041L526.795 580.635H493.806ZM826.016 585.274C813.473 585.274 802.09 582.911 791.867 578.186C781.644 573.375 773.526 566.46 767.512 557.439C761.498 548.333 758.491 537.337 758.491 524.45C758.491 513.11 760.725 503.918 765.192 496.873C769.66 489.743 775.63 484.159 783.104 480.121C790.579 476.083 798.826 473.077 807.846 471.101C816.953 469.039 826.102 467.407 835.294 466.204C847.321 464.657 857.072 463.498 864.546 462.725C872.106 461.865 877.604 460.448 881.041 458.472C884.563 456.496 886.324 453.06 886.324 448.163V447.132C886.324 434.417 882.845 424.538 875.886 417.493C869.014 410.449 858.576 406.927 844.572 406.927C830.054 406.927 818.671 410.105 810.424 416.463C802.176 422.82 796.377 429.607 793.027 436.823L764.161 426.514C769.316 414.487 776.189 405.122 784.78 398.422C793.456 391.635 802.906 386.91 813.13 384.247C823.439 381.498 833.576 380.123 843.541 380.123C849.899 380.123 857.201 380.896 865.448 382.442C873.781 383.903 881.814 386.953 889.546 391.592C897.364 396.231 903.85 403.233 909.004 412.597C914.159 421.961 916.736 434.503 916.736 450.225V580.635H886.324V553.831H884.778C882.716 558.127 879.28 562.723 874.469 567.62C869.658 572.516 863.258 576.683 855.268 580.119C847.279 583.556 837.528 585.274 826.016 585.274ZM830.655 557.955C842.682 557.955 852.82 555.592 861.067 550.867C869.4 546.142 875.671 540.043 879.881 532.569C884.176 525.095 886.324 517.234 886.324 508.987V481.152C885.036 482.698 882.201 484.116 877.819 485.405C873.524 486.607 868.541 487.681 862.871 488.626C857.287 489.485 851.832 490.258 846.505 490.946C841.265 491.547 837.012 492.062 833.748 492.492C825.844 493.523 818.456 495.198 811.583 497.518C804.796 499.751 799.298 503.145 795.089 507.698C790.965 512.165 788.903 518.265 788.903 525.997C788.903 536.563 792.812 544.553 800.63 549.965C808.534 555.292 818.542 557.955 830.655 557.955ZM1002.66 316.722V580.635H972.244V316.722H1002.66ZM1086.71 508.471L1086.19 470.843H1092.38L1178.97 382.7H1216.6L1124.34 475.997H1121.76L1086.71 508.471ZM1058.36 580.635V316.722H1088.77V580.635H1058.36ZM1184.13 580.635L1106.81 482.698L1128.46 461.565L1222.79 580.635H1184.13ZM1255.74 580.635V382.7H1286.16V580.635H1255.74ZM1271.21 349.711C1265.28 349.711 1260.17 347.692 1255.87 343.655C1251.66 339.617 1249.56 334.763 1249.56 329.093C1249.56 323.423 1251.66 318.569 1255.87 314.531C1260.17 310.494 1265.28 308.475 1271.21 308.475C1277.14 308.475 1282.2 310.494 1286.41 314.531C1290.71 318.569 1292.86 323.423 1292.86 329.093C1292.86 334.763 1290.71 339.617 1286.41 343.655C1282.2 347.692 1277.14 349.711 1271.21 349.711ZM1372.27 461.565V580.635H1341.86V382.7H1371.24V413.628H1373.82C1378.45 403.576 1385.5 395.501 1394.95 389.401C1404.4 383.216 1416.6 380.123 1431.55 380.123C1444.95 380.123 1456.67 382.872 1466.73 388.37C1476.78 393.783 1484.6 402.03 1490.18 413.112C1495.76 424.108 1498.56 438.026 1498.56 454.864V580.635H1468.14V456.926C1468.14 441.376 1464.11 429.263 1456.03 420.586C1447.95 411.823 1436.87 407.442 1422.78 407.442C1413.08 407.442 1404.4 409.547 1396.75 413.756C1389.19 417.966 1383.22 424.108 1378.84 432.184C1374.46 440.259 1372.27 450.053 1372.27 461.565ZM1634.02 658.984C1619.33 658.984 1606.7 657.094 1596.14 653.314C1585.57 649.62 1576.76 644.723 1569.72 638.623C1562.76 632.61 1557.22 626.167 1553.1 619.294L1577.32 602.284C1580.07 605.892 1583.55 610.016 1587.76 614.655C1591.97 619.38 1597.73 623.46 1605.03 626.897C1612.42 630.419 1622.08 632.18 1634.02 632.18C1650 632.18 1663.19 628.314 1673.58 620.582C1683.98 612.851 1689.18 600.737 1689.18 584.243V544.037H1686.6C1684.37 547.646 1681.19 552.113 1677.06 557.439C1673.03 562.68 1667.18 567.362 1659.54 571.485C1651.98 575.523 1641.76 577.542 1628.87 577.542C1612.89 577.542 1598.54 573.762 1585.83 566.202C1573.2 558.642 1563.19 547.646 1555.8 533.213C1548.5 518.78 1544.85 501.255 1544.85 480.637C1544.85 460.362 1548.41 442.708 1555.55 427.674C1562.68 412.554 1572.6 400.87 1585.31 392.623C1598.03 384.29 1612.72 380.123 1629.38 380.123C1642.27 380.123 1652.49 382.271 1660.05 386.566C1667.7 390.776 1673.54 395.587 1677.58 400.999C1681.7 406.325 1684.88 410.707 1687.12 414.143H1690.21V382.7H1719.59V586.305C1719.59 603.315 1715.72 617.146 1707.99 627.799C1700.35 638.537 1690.04 646.398 1677.06 651.381C1664.18 656.45 1649.83 658.984 1634.02 658.984ZM1632.99 550.223C1645.19 550.223 1655.5 547.431 1663.92 541.847C1672.34 536.263 1678.74 528.23 1683.12 517.749C1687.5 507.268 1689.69 494.726 1689.69 480.121C1689.69 465.86 1687.54 453.275 1683.25 442.364C1678.95 431.454 1672.6 422.906 1664.18 416.72C1655.76 410.535 1645.36 407.442 1632.99 407.442C1620.11 407.442 1609.37 410.707 1600.78 417.236C1592.27 423.765 1585.87 432.528 1581.58 443.524C1577.37 454.52 1575.26 466.719 1575.26 480.121C1575.26 493.867 1577.41 506.023 1581.7 516.59C1586.09 527.07 1592.53 535.318 1601.03 541.331C1609.63 547.259 1620.28 550.223 1632.99 550.223Z" fill="white"/>
<rect width="2163.1" height="1116.99" rx="85.05" fill="#171717"/>
<rect x="179" y="234" width="1805" height="399" rx="44" fill="#FF7F00"/>
<path d="M295.588 400.818C294.821 394.341 291.71 389.312 286.256 385.733C280.801 382.153 274.111 380.364 266.185 380.364C260.389 380.364 255.318 381.301 250.972 383.176C246.668 385.051 243.301 387.629 240.872 390.911C238.486 394.192 237.293 397.92 237.293 402.097C237.293 405.591 238.124 408.595 239.786 411.109C241.49 413.581 243.663 415.648 246.305 417.31C248.947 418.929 251.717 420.271 254.615 421.337C257.513 422.359 260.176 423.19 262.605 423.83L275.901 427.409C279.31 428.304 283.102 429.54 287.278 431.116C291.497 432.693 295.524 434.845 299.359 437.572C303.237 440.257 306.433 443.709 308.947 447.928C311.462 452.146 312.719 457.324 312.719 463.46C312.719 470.534 310.865 476.926 307.158 482.636C303.493 488.347 298.124 492.885 291.05 496.251C284.018 499.618 275.474 501.301 265.418 501.301C256.043 501.301 247.925 499.788 241.064 496.763C234.246 493.737 228.876 489.518 224.956 484.107C221.078 478.695 218.884 472.409 218.372 465.25H234.736C235.162 470.193 236.824 474.284 239.722 477.523C242.662 480.719 246.369 483.105 250.844 484.682C255.361 486.216 260.219 486.983 265.418 486.983C271.469 486.983 276.902 486.003 281.717 484.043C286.533 482.04 290.347 479.27 293.159 475.733C295.972 472.153 297.378 467.977 297.378 463.205C297.378 458.858 296.163 455.321 293.734 452.594C291.305 449.866 288.109 447.651 284.146 445.946C280.183 444.241 275.901 442.75 271.298 441.472L255.19 436.869C244.963 433.929 236.866 429.732 230.901 424.277C224.935 418.822 221.952 411.685 221.952 402.864C221.952 395.534 223.933 389.142 227.896 383.688C231.902 378.19 237.271 373.929 244.004 370.903C250.78 367.835 258.344 366.301 266.696 366.301C275.134 366.301 282.634 367.814 289.196 370.839C295.759 373.822 300.957 377.913 304.793 383.112C308.67 388.311 310.716 394.213 310.929 400.818H295.588ZM432.382 499V368.091H511.388V382.153H448.235V426.386H507.297V440.449H448.235V484.938H512.411V499H432.382ZM633.56 499V368.091H649.413V484.938H710.265V499H633.56ZM828.41 499V368.091H907.416V382.153H844.263V426.386H903.325V440.449H844.263V484.938H908.439V499H828.41ZM1134.93 409H1119.08C1118.14 404.44 1116.5 400.435 1114.16 396.983C1111.85 393.531 1109.04 390.634 1105.72 388.29C1102.44 385.903 1098.79 384.114 1094.79 382.92C1090.78 381.727 1086.61 381.131 1082.26 381.131C1074.33 381.131 1067.15 383.134 1060.72 387.139C1054.33 391.145 1049.23 397.047 1045.44 404.845C1041.69 412.643 1039.82 422.21 1039.82 433.545C1039.82 444.881 1041.69 454.447 1045.44 462.246C1049.23 470.044 1054.33 475.946 1060.72 479.952C1067.15 483.957 1074.33 485.96 1082.26 485.96C1086.61 485.96 1090.78 485.364 1094.79 484.17C1098.79 482.977 1102.44 481.209 1105.72 478.865C1109.04 476.479 1111.85 473.56 1114.16 470.108C1116.5 466.614 1118.14 462.608 1119.08 458.091H1134.93C1133.74 464.781 1131.56 470.768 1128.41 476.053C1125.26 481.337 1121.34 485.832 1116.65 489.54C1111.96 493.205 1106.7 495.996 1100.86 497.913C1095.06 499.831 1088.86 500.79 1082.26 500.79C1071.09 500.79 1061.17 498.062 1052.47 492.608C1043.78 487.153 1036.94 479.398 1031.95 469.341C1026.97 459.284 1024.47 447.352 1024.47 433.545C1024.47 419.739 1026.97 407.807 1031.95 397.75C1036.94 387.693 1043.78 379.938 1052.47 374.483C1061.17 369.028 1071.09 366.301 1082.26 366.301C1088.86 366.301 1095.06 367.26 1100.86 369.178C1106.7 371.095 1111.96 373.908 1116.65 377.615C1121.34 381.28 1125.26 385.754 1128.41 391.038C1131.56 396.28 1133.74 402.267 1134.93 409ZM1246.99 382.153V368.091H1345.17V382.153H1304V499H1288.15V382.153H1246.99ZM1479.09 368.091V499H1463.23V368.091H1479.09ZM1714.93 433.545C1714.93 447.352 1712.43 459.284 1707.45 469.341C1702.46 479.398 1695.62 487.153 1686.93 492.608C1678.23 498.062 1668.31 500.79 1657.14 500.79C1645.98 500.79 1636.05 498.062 1627.35 492.608C1618.66 487.153 1611.82 479.398 1606.84 469.341C1601.85 459.284 1599.36 447.352 1599.36 433.545C1599.36 419.739 1601.85 407.807 1606.84 397.75C1611.82 387.693 1618.66 379.938 1627.35 374.483C1636.05 369.028 1645.98 366.301 1657.14 366.301C1668.31 366.301 1678.23 369.028 1686.93 374.483C1695.62 379.938 1702.46 387.693 1707.45 397.75C1712.43 407.807 1714.93 419.739 1714.93 433.545ZM1699.58 433.545C1699.58 422.21 1697.69 412.643 1693.9 404.845C1690.15 397.047 1685.05 391.145 1678.62 387.139C1672.23 383.134 1665.07 381.131 1657.14 381.131C1649.21 381.131 1642.03 383.134 1635.6 387.139C1629.21 391.145 1624.12 397.047 1620.32 404.845C1616.57 412.643 1614.7 422.21 1614.7 433.545C1614.7 444.881 1616.57 454.447 1620.32 462.246C1624.12 470.044 1629.21 475.946 1635.6 479.952C1642.03 483.957 1649.21 485.96 1657.14 485.96C1665.07 485.96 1672.23 483.957 1678.62 479.952C1685.05 475.946 1690.15 470.044 1693.9 462.246C1697.69 454.447 1699.58 444.881 1699.58 433.545ZM1938.99 368.091V499H1923.65L1852.31 396.216H1851.03V499H1835.18V368.091H1850.52L1922.11 471.131H1923.39V368.091H1938.99Z" fill="black"/>
</svg>
