<svg width="2164" height="1117" viewBox="0 0 2164 1117" fill="none" xmlns="http://www.w3.org/2000/svg">
<rect x="0.105469" width="2163.1" height="1116.99" rx="85.05" fill="#171717"/>
<path d="M493.911 580.635L421.747 316.722H454.221L509.375 531.667H511.952L568.137 316.722H604.218L660.403 531.667H662.98L718.134 316.722H750.607L678.444 580.635H645.455L587.208 370.329H585.147L526.9 580.635H493.911ZM826.121 585.274C813.579 585.274 802.196 582.911 791.973 578.186C781.749 573.375 773.631 566.46 767.617 557.439C761.604 548.333 758.597 537.337 758.597 524.45C758.597 513.11 760.831 503.918 765.298 496.873C769.765 489.743 775.736 484.159 783.21 480.121C790.684 476.083 798.931 473.077 807.952 471.101C817.058 469.039 826.207 467.407 835.4 466.204C847.427 464.657 857.178 463.498 864.652 462.725C872.212 461.865 877.71 460.448 881.146 458.472C884.669 456.496 886.43 453.06 886.43 448.163V447.132C886.43 434.417 882.95 424.538 875.992 417.493C869.119 410.449 858.681 406.927 844.678 406.927C830.159 406.927 818.776 410.105 810.529 416.463C802.282 422.82 796.483 429.607 793.132 436.823L764.267 426.514C769.421 414.487 776.294 405.122 784.885 398.422C793.562 391.635 803.012 386.91 813.235 384.247C823.544 381.498 833.681 380.123 843.647 380.123C850.004 380.123 857.306 380.896 865.554 382.442C873.887 383.903 881.919 386.953 889.651 391.592C897.469 396.231 903.955 403.233 909.11 412.597C914.264 421.961 916.841 434.503 916.841 450.225V580.635H886.43V553.831H884.883C882.821 558.127 879.385 562.723 874.574 567.62C869.763 572.516 863.363 576.683 855.374 580.119C847.384 583.556 837.633 585.274 826.121 585.274ZM830.761 557.955C842.788 557.955 852.925 555.592 861.172 550.867C869.506 546.142 875.777 540.043 879.986 532.569C884.282 525.095 886.43 517.234 886.43 508.987V481.152C885.141 482.698 882.306 484.116 877.925 485.405C873.629 486.607 868.646 487.681 862.976 488.626C857.392 489.485 851.937 490.258 846.611 490.946C841.37 491.547 837.118 492.062 833.853 492.492C825.95 493.523 818.561 495.198 811.689 497.518C804.902 499.751 799.404 503.145 795.194 507.698C791.071 512.165 789.009 518.265 789.009 525.997C789.009 536.563 792.918 544.553 800.735 549.965C808.639 555.292 818.647 557.955 830.761 557.955ZM1002.76 316.722V580.635H972.349V316.722H1002.76ZM1086.81 508.471L1086.3 470.843H1092.48L1179.08 382.7H1216.71L1124.44 475.997H1121.86L1086.81 508.471ZM1058.46 580.635V316.722H1088.87V580.635H1058.46ZM1184.23 580.635L1106.92 482.698L1128.56 461.565L1222.89 580.635H1184.23ZM1255.85 580.635V382.7H1286.26V580.635H1255.85ZM1271.31 349.711C1265.39 349.711 1260.27 347.692 1255.98 343.655C1251.77 339.617 1249.66 334.763 1249.66 329.093C1249.66 323.423 1251.77 318.569 1255.98 314.531C1260.27 310.494 1265.39 308.475 1271.31 308.475C1277.24 308.475 1282.31 310.494 1286.52 314.531C1290.81 318.569 1292.96 323.423 1292.96 329.093C1292.96 334.763 1290.81 339.617 1286.52 343.655C1282.31 347.692 1277.24 349.711 1271.31 349.711ZM1372.37 461.565V580.635H1341.96V382.7H1371.34V413.628H1373.92C1378.56 403.576 1385.6 395.501 1395.05 389.401C1404.5 383.216 1416.7 380.123 1431.65 380.123C1445.05 380.123 1456.78 382.872 1466.83 388.37C1476.88 393.783 1484.7 402.03 1490.28 413.112C1495.87 424.108 1498.66 438.026 1498.66 454.864V580.635H1468.25V456.926C1468.25 441.376 1464.21 429.263 1456.14 420.586C1448.06 411.823 1436.98 407.442 1422.89 407.442C1413.18 407.442 1404.5 409.547 1396.86 413.756C1389.3 417.966 1383.33 424.108 1378.95 432.184C1374.57 440.259 1372.37 450.053 1372.37 461.565ZM1634.13 658.984C1619.44 658.984 1606.81 657.094 1596.24 653.314C1585.68 649.62 1576.87 644.723 1569.83 638.623C1562.87 632.61 1557.33 626.167 1553.2 619.294L1577.43 602.284C1580.18 605.892 1583.66 610.016 1587.87 614.655C1592.08 619.38 1597.83 623.46 1605.13 626.897C1612.52 630.419 1622.19 632.18 1634.13 632.18C1650.11 632.18 1663.29 628.314 1673.69 620.582C1684.08 612.851 1689.28 600.737 1689.28 584.243V544.037H1686.71C1684.47 547.646 1681.29 552.113 1677.17 557.439C1673.13 562.68 1667.29 567.362 1659.64 571.485C1652.08 575.523 1641.86 577.542 1628.97 577.542C1613 577.542 1598.65 573.762 1585.93 566.202C1573.31 558.642 1563.3 547.646 1555.91 533.213C1548.61 518.78 1544.96 501.255 1544.96 480.637C1544.96 460.362 1548.52 442.708 1555.65 427.674C1562.78 412.554 1572.7 400.87 1585.42 392.623C1598.13 384.29 1612.82 380.123 1629.49 380.123C1642.38 380.123 1652.6 382.271 1660.16 386.566C1667.81 390.776 1673.65 395.587 1677.68 400.999C1681.81 406.325 1684.99 410.707 1687.22 414.143H1690.31V382.7H1719.69V586.305C1719.69 603.315 1715.83 617.146 1708.1 627.799C1700.45 638.537 1690.14 646.398 1677.17 651.381C1664.28 656.45 1649.94 658.984 1634.13 658.984ZM1633.1 550.223C1645.3 550.223 1655.61 547.431 1664.03 541.847C1672.44 536.263 1678.84 528.23 1683.23 517.749C1687.61 507.268 1689.8 494.726 1689.8 480.121C1689.8 465.86 1687.65 453.275 1683.35 442.364C1679.06 431.454 1672.7 422.906 1664.28 416.72C1655.86 410.535 1645.47 407.442 1633.1 407.442C1620.21 407.442 1609.47 410.707 1600.88 417.236C1592.38 423.765 1585.98 432.528 1581.68 443.524C1577.47 454.52 1575.37 466.719 1575.37 480.121C1575.37 493.867 1577.51 506.023 1581.81 516.59C1586.19 527.07 1592.63 535.318 1601.14 541.331C1609.73 547.259 1620.38 550.223 1633.1 550.223Z" fill="white"/>
<rect x="0.105469" width="2163.1" height="1116.99" rx="85.05" fill="#171717"/>
<rect x="179.105" y="234" width="1805" height="399" rx="44" fill="#009DFF"/>
<path d="M514.109 499V368.091H529.962V484.938H590.814V499H514.109ZM771.959 499V368.091H850.965V382.153H787.812V426.386H846.874V440.449H787.812V484.938H851.988V499H771.959ZM1041.51 368.091L1080.37 478.29H1081.9L1120.77 368.091H1137.39L1089.32 499H1072.96L1024.89 368.091H1041.51ZM1314.38 499V368.091H1393.38V382.153H1330.23V426.386H1389.29V440.449H1330.23V484.938H1394.41V499H1314.38ZM1578.56 499V368.091H1594.41V484.938H1655.26V499H1578.56Z" fill="black"/>
</svg>
