<svg width="2164" height="1117" viewBox="0 0 2164 1117" fill="none" xmlns="http://www.w3.org/2000/svg">
<rect width="2163.1" height="1116.99" rx="85.05" fill="#171717"/>
<path d="M86.7244 64.5472V130.525H78.7349V72.9233H78.3483L62.2404 83.619V75.5006L78.7349 64.5472H86.7244ZM107.471 131.041C105.882 131.041 104.518 130.472 103.38 129.333C102.242 128.195 101.673 126.831 101.673 125.242C101.673 123.653 102.242 122.289 103.38 121.151C104.518 120.012 105.882 119.443 107.471 119.443C109.061 119.443 110.425 120.012 111.563 121.151C112.701 122.289 113.27 123.653 113.27 125.242C113.27 126.294 113.002 127.261 112.465 128.141C111.95 129.022 111.251 129.731 110.371 130.268C109.512 130.783 108.545 131.041 107.471 131.041Z" fill="white"/>
<path d="M244.971 823.284V782.048H258.904C262.139 782.048 264.784 782.632 266.837 783.8C268.905 784.954 270.435 786.518 271.428 788.491C272.421 790.464 272.918 792.666 272.918 795.095C272.918 797.525 272.421 799.733 271.428 801.72C270.448 803.706 268.931 805.29 266.878 806.472C264.824 807.639 262.193 808.223 258.985 808.223H248.998V803.794H258.824C261.039 803.794 262.817 803.411 264.159 802.646C265.502 801.881 266.475 800.847 267.079 799.545C267.696 798.23 268.005 796.746 268.005 795.095C268.005 793.444 267.696 791.968 267.079 790.666C266.475 789.364 265.495 788.343 264.139 787.605C262.784 786.853 260.985 786.478 258.743 786.478H249.964V823.284H244.971ZM299.808 810.639V792.357H304.56V823.284H299.808V818.049H299.486C298.761 819.62 297.634 820.955 296.104 822.056C294.573 823.143 292.64 823.687 290.305 823.687C288.372 823.687 286.654 823.264 285.15 822.418C283.647 821.559 282.465 820.271 281.606 818.552C280.747 816.821 280.318 814.64 280.318 812.009V792.357H285.07V811.686C285.07 813.942 285.7 815.74 286.962 817.083C288.237 818.425 289.862 819.096 291.835 819.096C293.016 819.096 294.218 818.794 295.439 818.19C296.674 817.586 297.708 816.66 298.54 815.411C299.386 814.163 299.808 812.572 299.808 810.639ZM326.714 792.357V796.384H310.686V792.357H326.714ZM315.358 784.947H320.109V814.425C320.109 815.767 320.304 816.774 320.693 817.445C321.096 818.103 321.606 818.546 322.224 818.774C322.854 818.989 323.519 819.096 324.217 819.096C324.74 819.096 325.17 819.069 325.506 819.016C325.841 818.948 326.11 818.895 326.311 818.854L327.277 823.123C326.955 823.244 326.506 823.365 325.928 823.486C325.351 823.62 324.62 823.687 323.734 823.687C322.391 823.687 321.076 823.398 319.787 822.821C318.512 822.244 317.452 821.365 316.606 820.183C315.774 819.002 315.358 817.512 315.358 815.713V784.947ZM358.909 824.009C356.95 824.009 355.171 823.64 353.574 822.902C351.976 822.15 350.708 821.069 349.768 819.66C348.829 818.237 348.359 816.519 348.359 814.505C348.359 812.733 348.708 811.297 349.406 810.196C350.104 809.082 351.037 808.21 352.204 807.579C353.372 806.948 354.661 806.478 356.07 806.169C357.493 805.847 358.923 805.592 360.359 805.404C362.238 805.163 363.762 804.982 364.93 804.861C366.111 804.726 366.97 804.505 367.507 804.196C368.057 803.888 368.333 803.351 368.333 802.585V802.424C368.333 800.438 367.789 798.894 366.702 797.793C365.628 796.693 363.997 796.142 361.809 796.142C359.54 796.142 357.762 796.639 356.473 797.632C355.184 798.626 354.278 799.686 353.755 800.814L349.245 799.203C350.05 797.324 351.124 795.86 352.466 794.813C353.822 793.753 355.299 793.015 356.896 792.599C358.507 792.169 360.091 791.954 361.648 791.954C362.641 791.954 363.782 792.075 365.071 792.317C366.373 792.545 367.628 793.021 368.836 793.746C370.057 794.471 371.071 795.565 371.876 797.028C372.682 798.491 373.084 800.451 373.084 802.908V823.284H368.333V819.096H368.091C367.769 819.767 367.232 820.485 366.48 821.251C365.728 822.016 364.728 822.667 363.48 823.204C362.232 823.741 360.708 824.009 358.909 824.009ZM359.634 819.74C361.514 819.74 363.097 819.371 364.386 818.633C365.688 817.895 366.668 816.942 367.326 815.774C367.997 814.606 368.333 813.378 368.333 812.089V807.74C368.131 807.982 367.688 808.203 367.004 808.404C366.333 808.592 365.554 808.76 364.668 808.908C363.796 809.042 362.943 809.163 362.111 809.27C361.292 809.364 360.628 809.445 360.118 809.512C358.883 809.673 357.728 809.935 356.654 810.297C355.594 810.646 354.735 811.176 354.077 811.888C353.433 812.586 353.111 813.539 353.111 814.747C353.111 816.398 353.721 817.646 354.943 818.492C356.178 819.324 357.742 819.74 359.634 819.74ZM398.349 823.284V782.048H403.101V797.27H403.503C403.852 796.733 404.336 796.048 404.953 795.216C405.584 794.37 406.483 793.619 407.651 792.961C408.832 792.29 410.43 791.954 412.443 791.954C415.047 791.954 417.343 792.605 419.329 793.907C421.316 795.209 422.866 797.055 423.981 799.444C425.095 801.834 425.652 804.653 425.652 807.901C425.652 811.176 425.095 814.015 423.981 816.418C422.866 818.808 421.323 820.66 419.349 821.975C417.376 823.277 415.101 823.928 412.524 823.928C410.537 823.928 408.946 823.6 407.752 822.942C406.557 822.271 405.638 821.512 404.993 820.667C404.349 819.808 403.852 819.096 403.503 818.532H402.94V823.284H398.349ZM403.02 807.821C403.02 810.156 403.362 812.217 404.047 814.002C404.732 815.774 405.732 817.163 407.047 818.17C408.363 819.163 409.973 819.66 411.879 819.66C413.866 819.66 415.524 819.136 416.853 818.089C418.195 817.029 419.202 815.606 419.873 813.821C420.558 812.022 420.9 810.022 420.9 807.821C420.9 805.646 420.564 803.686 419.893 801.941C419.235 800.183 418.235 798.793 416.893 797.773C415.564 796.74 413.893 796.223 411.879 796.223C409.946 796.223 408.322 796.713 407.007 797.693C405.691 798.659 404.698 800.015 404.027 801.76C403.356 803.492 403.02 805.512 403.02 807.821ZM437.672 782.048V823.284H432.92V782.048H437.672ZM458.94 823.928C456.148 823.928 453.698 823.264 451.591 821.935C449.497 820.606 447.859 818.747 446.678 816.358C445.51 813.968 444.926 811.176 444.926 807.982C444.926 804.76 445.51 801.948 446.678 799.545C447.859 797.142 449.497 795.276 451.591 793.948C453.698 792.619 456.148 791.954 458.94 791.954C461.732 791.954 464.175 792.619 466.269 793.948C468.376 795.276 470.014 797.142 471.182 799.545C472.363 801.948 472.954 804.76 472.954 807.982C472.954 811.176 472.363 813.968 471.182 816.358C470.014 818.747 468.376 820.606 466.269 821.935C464.175 823.264 461.732 823.928 458.94 823.928ZM458.94 819.66C461.061 819.66 462.806 819.116 464.175 818.029C465.544 816.942 466.558 815.512 467.215 813.74C467.873 811.968 468.202 810.049 468.202 807.982C468.202 805.914 467.873 803.988 467.215 802.203C466.558 800.418 465.544 798.975 464.175 797.874C462.806 796.773 461.061 796.223 458.94 796.223C456.819 796.223 455.074 796.773 453.705 797.874C452.336 798.975 451.322 800.418 450.664 802.203C450.007 803.988 449.678 805.914 449.678 807.982C449.678 810.049 450.007 811.968 450.664 813.74C451.322 815.512 452.336 816.942 453.705 818.029C455.074 819.116 456.819 819.66 458.94 819.66ZM492.772 823.928C489.872 823.928 487.375 823.244 485.281 821.875C483.187 820.506 481.577 818.62 480.449 816.217C479.321 813.814 478.758 811.069 478.758 807.982C478.758 804.841 479.335 802.069 480.489 799.666C481.657 797.25 483.281 795.364 485.362 794.008C487.456 792.639 489.899 791.954 492.691 791.954C494.866 791.954 496.825 792.357 498.57 793.162C500.315 793.968 501.745 795.095 502.859 796.545C503.973 797.995 504.665 799.686 504.933 801.619H500.181C499.819 800.21 499.013 798.961 497.765 797.874C496.53 796.773 494.866 796.223 492.772 796.223C490.919 796.223 489.295 796.706 487.899 797.673C486.516 798.626 485.436 799.975 484.657 801.72C483.892 803.451 483.509 805.485 483.509 807.821C483.509 810.21 483.885 812.291 484.637 814.062C485.402 815.834 486.476 817.21 487.859 818.19C489.255 819.17 490.892 819.66 492.772 819.66C494.006 819.66 495.127 819.445 496.134 819.016C497.141 818.586 497.993 817.969 498.691 817.163C499.389 816.358 499.886 815.391 500.181 814.264H504.933C504.665 816.089 504 817.734 502.94 819.197C501.893 820.647 500.503 821.801 498.772 822.66C497.054 823.506 495.054 823.928 492.772 823.928ZM516.309 812.009L516.229 806.129H517.195L530.726 792.357H536.605L522.189 806.935H521.786L516.309 812.009ZM511.88 823.284V782.048H516.631V823.284H511.88ZM531.531 823.284L519.45 807.982L522.833 804.679L537.572 823.284H531.531ZM571.232 823.928C568.44 823.928 565.991 823.264 563.883 821.935C561.789 820.606 560.151 818.747 558.97 816.358C557.802 813.968 557.218 811.176 557.218 807.982C557.218 804.76 557.802 801.948 558.97 799.545C560.151 797.142 561.789 795.276 563.883 793.948C565.991 792.619 568.44 791.954 571.232 791.954C574.024 791.954 576.467 792.619 578.562 793.948C580.669 795.276 582.307 797.142 583.474 799.545C584.656 801.948 585.246 804.76 585.246 807.982C585.246 811.176 584.656 813.968 583.474 816.358C582.307 818.747 580.669 820.606 578.562 821.935C576.467 823.264 574.024 823.928 571.232 823.928ZM571.232 819.66C573.353 819.66 575.098 819.116 576.467 818.029C577.837 816.942 578.85 815.512 579.508 813.74C580.166 811.968 580.494 810.049 580.494 807.982C580.494 805.914 580.166 803.988 579.508 802.203C578.85 800.418 577.837 798.975 576.467 797.874C575.098 796.773 573.353 796.223 571.232 796.223C569.112 796.223 567.366 796.773 565.997 797.874C564.628 798.975 563.615 800.418 562.957 802.203C562.299 803.988 561.97 805.914 561.97 807.982C561.97 810.049 562.299 811.968 562.957 813.74C563.615 815.512 564.628 816.942 565.997 818.029C567.366 819.116 569.112 819.66 571.232 819.66ZM597.252 804.679V823.284H592.5V792.357H597.091V797.189H597.493C598.218 795.619 599.319 794.357 600.796 793.404C602.272 792.437 604.178 791.954 606.514 791.954C608.608 791.954 610.44 792.384 612.011 793.243C613.581 794.089 614.803 795.377 615.675 797.109C616.548 798.827 616.984 801.002 616.984 803.632V823.284H612.232V803.955C612.232 801.525 611.601 799.632 610.339 798.277C609.078 796.907 607.346 796.223 605.145 796.223C603.628 796.223 602.272 796.552 601.077 797.209C599.896 797.867 598.963 798.827 598.279 800.089C597.594 801.351 597.252 802.881 597.252 804.679ZM655.064 792.357V796.384H639.037V792.357H655.064ZM643.708 784.947H648.46V814.425C648.46 815.767 648.655 816.774 649.044 817.445C649.447 818.103 649.957 818.546 650.574 818.774C651.205 818.989 651.869 819.096 652.567 819.096C653.091 819.096 653.521 819.069 653.856 819.016C654.192 818.948 654.46 818.895 654.662 818.854L655.628 823.123C655.306 823.244 654.856 823.365 654.279 823.486C653.702 823.62 652.97 823.687 652.084 823.687C650.742 823.687 649.426 823.398 648.138 822.821C646.863 822.244 645.802 821.365 644.956 820.183C644.124 819.002 643.708 817.512 643.708 815.713V784.947ZM667.628 804.679V823.284H662.877V782.048H667.628V797.189H668.031C668.756 795.592 669.843 794.323 671.293 793.384C672.756 792.431 674.703 791.954 677.132 791.954C679.24 791.954 681.085 792.377 682.669 793.223C684.253 794.055 685.481 795.337 686.354 797.068C687.24 798.787 687.683 800.975 687.683 803.632V823.284H682.931V803.955C682.931 801.498 682.293 799.599 681.018 798.256C679.756 796.901 678.005 796.223 675.763 796.223C674.206 796.223 672.81 796.552 671.575 797.209C670.353 797.867 669.387 798.827 668.675 800.089C667.977 801.351 667.628 802.881 667.628 804.679ZM709.343 823.928C706.363 823.928 703.792 823.271 701.631 821.955C699.484 820.626 697.826 818.774 696.658 816.398C695.504 814.009 694.926 811.23 694.926 808.062C694.926 804.894 695.504 802.102 696.658 799.686C697.826 797.256 699.45 795.364 701.531 794.008C703.625 792.639 706.068 791.954 708.86 791.954C710.471 791.954 712.061 792.223 713.632 792.76C715.202 793.297 716.632 794.169 717.92 795.377C719.209 796.572 720.236 798.156 721.001 800.129C721.766 802.102 722.149 804.532 722.149 807.418V809.431H698.309V805.324H717.316C717.316 803.579 716.967 802.022 716.269 800.653C715.585 799.283 714.605 798.203 713.33 797.411C712.068 796.619 710.578 796.223 708.86 796.223C706.967 796.223 705.329 796.693 703.947 797.632C702.578 798.558 701.524 799.767 700.786 801.257C700.047 802.747 699.678 804.344 699.678 806.049V808.787C699.678 811.123 700.081 813.103 700.886 814.727C701.705 816.338 702.839 817.566 704.289 818.412C705.739 819.244 707.423 819.66 709.343 819.66C710.591 819.66 711.719 819.485 712.726 819.136C713.746 818.774 714.625 818.237 715.363 817.526C716.102 816.801 716.672 815.901 717.075 814.828L721.666 816.116C721.182 817.673 720.37 819.042 719.229 820.224C718.088 821.391 716.679 822.304 715.001 822.962C713.323 823.606 711.437 823.928 709.343 823.928ZM759.096 792.357V796.384H742.425V792.357H759.096ZM747.418 823.284V788.088C747.418 786.316 747.834 784.84 748.667 783.659C749.499 782.477 750.579 781.591 751.908 781.001C753.237 780.41 754.64 780.115 756.116 780.115C757.284 780.115 758.237 780.209 758.976 780.397C759.714 780.585 760.264 780.759 760.627 780.92L759.258 785.028C759.016 784.947 758.68 784.847 758.251 784.726C757.835 784.605 757.284 784.545 756.6 784.545C755.029 784.545 753.895 784.941 753.197 785.733C752.512 786.524 752.17 787.686 752.17 789.216V823.284H747.418ZM770.508 782.048V823.284H765.756V782.048H770.508ZM791.775 823.928C788.983 823.928 786.534 823.264 784.426 821.935C782.332 820.606 780.695 818.747 779.513 816.358C778.345 813.968 777.762 811.176 777.762 807.982C777.762 804.76 778.345 801.948 779.513 799.545C780.695 797.142 782.332 795.276 784.426 793.948C786.534 792.619 788.983 791.954 791.775 791.954C794.568 791.954 797.011 792.619 799.105 793.948C801.212 795.276 802.85 797.142 804.018 799.545C805.199 801.948 805.789 804.76 805.789 807.982C805.789 811.176 805.199 813.968 804.018 816.358C802.85 818.747 801.212 820.606 799.105 821.935C797.011 823.264 794.568 823.928 791.775 823.928ZM791.775 819.66C793.896 819.66 795.641 819.116 797.011 818.029C798.38 816.942 799.393 815.512 800.051 813.74C800.709 811.968 801.038 810.049 801.038 807.982C801.038 805.914 800.709 803.988 800.051 802.203C799.393 800.418 798.38 798.975 797.011 797.874C795.641 796.773 793.896 796.223 791.775 796.223C789.655 796.223 787.91 796.773 786.54 797.874C785.171 798.975 784.158 800.418 783.5 802.203C782.842 803.988 782.513 805.914 782.513 807.982C782.513 810.049 782.842 811.968 783.5 813.74C784.158 815.512 785.171 816.942 786.54 818.029C787.91 819.116 789.655 819.66 791.775 819.66ZM825.607 823.928C822.815 823.928 820.365 823.264 818.258 821.935C816.164 820.606 814.526 818.747 813.345 816.358C812.177 813.968 811.593 811.176 811.593 807.982C811.593 804.76 812.177 801.948 813.345 799.545C814.526 797.142 816.164 795.276 818.258 793.948C820.365 792.619 822.815 791.954 825.607 791.954C828.399 791.954 830.842 792.619 832.936 793.948C835.044 795.276 836.681 797.142 837.849 799.545C839.03 801.948 839.621 804.76 839.621 807.982C839.621 811.176 839.03 813.968 837.849 816.358C836.681 818.747 835.044 820.606 832.936 821.935C830.842 823.264 828.399 823.928 825.607 823.928ZM825.607 819.66C827.728 819.66 829.473 819.116 830.842 818.029C832.211 816.942 833.225 815.512 833.883 813.74C834.54 811.968 834.869 810.049 834.869 807.982C834.869 805.914 834.54 803.988 833.883 802.203C833.225 800.418 832.211 798.975 830.842 797.874C829.473 796.773 827.728 796.223 825.607 796.223C823.486 796.223 821.741 796.773 820.372 797.874C819.003 798.975 817.989 800.418 817.332 802.203C816.674 803.988 816.345 805.914 816.345 807.982C816.345 810.049 816.674 811.968 817.332 813.74C817.989 815.512 819.003 816.942 820.372 818.029C821.741 819.116 823.486 819.66 825.607 819.66ZM846.875 823.284V792.357H851.465V797.028H851.788C852.351 795.498 853.372 794.256 854.848 793.303C856.325 792.35 857.989 791.874 859.842 791.874C860.191 791.874 860.627 791.88 861.15 791.894C861.674 791.907 862.07 791.927 862.338 791.954V796.787C862.177 796.746 861.808 796.686 861.231 796.605C860.667 796.511 860.07 796.464 859.439 796.464C857.936 796.464 856.593 796.78 855.412 797.411C854.244 798.028 853.318 798.887 852.633 799.988C851.962 801.075 851.627 802.317 851.627 803.713V823.284H846.875ZM871.515 817.646L871.193 819.821C870.964 821.351 870.615 822.989 870.146 824.734C869.689 826.479 869.213 828.123 868.716 829.667C868.219 831.211 867.81 832.439 867.488 833.352H863.864C864.038 832.493 864.266 831.358 864.548 829.949C864.83 828.539 865.112 826.962 865.394 825.217C865.689 823.486 865.931 821.714 866.119 819.902L866.36 817.646H871.515ZM909.716 792.357V796.384H893.688V792.357H909.716ZM898.36 784.947H903.112V814.425C903.112 815.767 903.306 816.774 903.696 817.445C904.098 818.103 904.608 818.546 905.226 818.774C905.857 818.989 906.521 819.096 907.219 819.096C907.743 819.096 908.172 819.069 908.508 819.016C908.843 818.948 909.112 818.895 909.313 818.854L910.28 823.123C909.957 823.244 909.508 823.365 908.931 823.486C908.353 823.62 907.622 823.687 906.736 823.687C905.394 823.687 904.078 823.398 902.789 822.821C901.514 822.244 900.454 821.365 899.608 820.183C898.776 819.002 898.36 817.512 898.36 815.713V784.947ZM922.28 804.679V823.284H917.528V782.048H922.28V797.189H922.683C923.408 795.592 924.495 794.323 925.945 793.384C927.408 792.431 929.354 791.954 931.784 791.954C933.891 791.954 935.737 792.377 937.321 793.223C938.905 794.055 940.133 795.337 941.006 797.068C941.892 798.787 942.334 800.975 942.334 803.632V823.284H937.583V803.955C937.583 801.498 936.945 799.599 935.67 798.256C934.408 796.901 932.656 796.223 930.415 796.223C928.857 796.223 927.461 796.552 926.227 797.209C925.005 797.867 924.039 798.827 923.327 800.089C922.629 801.351 922.28 802.881 922.28 804.679ZM951.028 823.284V792.357H955.78V823.284H951.028ZM953.444 787.202C952.518 787.202 951.719 786.887 951.048 786.256C950.39 785.625 950.061 784.867 950.061 783.981C950.061 783.095 950.39 782.336 951.048 781.706C951.719 781.075 952.518 780.759 953.444 780.759C954.37 780.759 955.162 781.075 955.82 781.706C956.491 782.336 956.827 783.095 956.827 783.981C956.827 784.867 956.491 785.625 955.82 786.256C955.162 786.887 954.37 787.202 953.444 787.202ZM986.39 799.283L982.121 800.491C981.853 799.78 981.457 799.089 980.933 798.418C980.423 797.733 979.725 797.169 978.839 796.726C977.953 796.283 976.819 796.062 975.436 796.062C973.544 796.062 971.966 796.498 970.705 797.371C969.456 798.23 968.832 799.324 968.832 800.653C968.832 801.834 969.262 802.767 970.121 803.451C970.98 804.136 972.322 804.706 974.148 805.163L978.738 806.29C981.504 806.961 983.564 807.988 984.92 809.371C986.276 810.74 986.954 812.505 986.954 814.666C986.954 816.438 986.443 818.022 985.423 819.418C984.417 820.814 983.007 821.915 981.195 822.72C979.383 823.526 977.275 823.928 974.873 823.928C971.718 823.928 969.107 823.244 967.04 821.875C964.973 820.506 963.664 818.505 963.114 815.875L967.624 814.747C968.054 816.411 968.866 817.66 970.06 818.492C971.268 819.324 972.846 819.74 974.792 819.74C977.007 819.74 978.765 819.271 980.067 818.331C981.383 817.378 982.041 816.237 982.041 814.908C982.041 813.834 981.665 812.935 980.913 812.21C980.161 811.472 979.007 810.921 977.45 810.559L972.295 809.351C969.463 808.68 967.382 807.639 966.053 806.23C964.738 804.807 964.08 803.028 964.08 800.894C964.08 799.149 964.57 797.605 965.55 796.263C966.543 794.921 967.892 793.867 969.597 793.102C971.315 792.337 973.262 791.954 975.436 791.954C978.497 791.954 980.9 792.625 982.645 793.968C984.403 795.31 985.651 797.082 986.39 799.283ZM1022.62 823.928C1019.72 823.928 1017.22 823.244 1015.13 821.875C1013.03 820.506 1011.42 818.62 1010.29 816.217C1009.17 813.814 1008.6 811.069 1008.6 807.982C1008.6 804.841 1009.18 802.069 1010.34 799.666C1011.5 797.25 1013.13 795.364 1015.21 794.008C1017.3 792.639 1019.74 791.954 1022.54 791.954C1024.71 791.954 1026.67 792.357 1028.42 793.162C1030.16 793.968 1031.59 795.095 1032.71 796.545C1033.82 797.995 1034.51 799.686 1034.78 801.619H1030.03C1029.66 800.21 1028.86 798.961 1027.61 797.874C1026.38 796.773 1024.71 796.223 1022.62 796.223C1020.77 796.223 1019.14 796.706 1017.74 797.673C1016.36 798.626 1015.28 799.975 1014.5 801.72C1013.74 803.451 1013.36 805.485 1013.36 807.821C1013.36 810.21 1013.73 812.291 1014.48 814.062C1015.25 815.834 1016.32 817.21 1017.7 818.19C1019.1 819.17 1020.74 819.66 1022.62 819.66C1023.85 819.66 1024.97 819.445 1025.98 819.016C1026.99 818.586 1027.84 817.969 1028.54 817.163C1029.24 816.358 1029.73 815.391 1030.03 814.264H1034.78C1034.51 816.089 1033.85 817.734 1032.79 819.197C1031.74 820.647 1030.35 821.801 1028.62 822.66C1026.9 823.506 1024.9 823.928 1022.62 823.928ZM1050.83 824.009C1048.87 824.009 1047.09 823.64 1045.49 822.902C1043.89 822.15 1042.62 821.069 1041.69 819.66C1040.75 818.237 1040.28 816.519 1040.28 814.505C1040.28 812.733 1040.62 811.297 1041.32 810.196C1042.02 809.082 1042.95 808.21 1044.12 807.579C1045.29 806.948 1046.58 806.478 1047.99 806.169C1049.41 805.847 1050.84 805.592 1052.28 805.404C1054.16 805.163 1055.68 804.982 1056.85 804.861C1058.03 804.726 1058.89 804.505 1059.42 804.196C1059.97 803.888 1060.25 803.351 1060.25 802.585V802.424C1060.25 800.438 1059.71 798.894 1058.62 797.793C1057.54 796.693 1055.91 796.142 1053.73 796.142C1051.46 796.142 1049.68 796.639 1048.39 797.632C1047.1 798.626 1046.2 799.686 1045.67 800.814L1041.16 799.203C1041.97 797.324 1043.04 795.86 1044.38 794.813C1045.74 793.753 1047.22 793.015 1048.81 792.599C1050.42 792.169 1052.01 791.954 1053.56 791.954C1054.56 791.954 1055.7 792.075 1056.99 792.317C1058.29 792.545 1059.55 793.021 1060.75 793.746C1061.97 794.471 1062.99 795.565 1063.79 797.028C1064.6 798.491 1065 800.451 1065 802.908V823.284H1060.25V819.096H1060.01C1059.69 819.767 1059.15 820.485 1058.4 821.251C1057.65 822.016 1056.65 822.667 1055.4 823.204C1054.15 823.741 1052.63 824.009 1050.83 824.009ZM1051.55 819.74C1053.43 819.74 1055.01 819.371 1056.3 818.633C1057.61 817.895 1058.59 816.942 1059.24 815.774C1059.91 814.606 1060.25 813.378 1060.25 812.089V807.74C1060.05 807.982 1059.61 808.203 1058.92 808.404C1058.25 808.592 1057.47 808.76 1056.59 808.908C1055.71 809.042 1054.86 809.163 1054.03 809.27C1053.21 809.364 1052.54 809.445 1052.03 809.512C1050.8 809.673 1049.65 809.935 1048.57 810.297C1047.51 810.646 1046.65 811.176 1045.99 811.888C1045.35 812.586 1045.03 813.539 1045.03 814.747C1045.03 816.398 1045.64 817.646 1046.86 818.492C1048.09 819.324 1049.66 819.74 1051.55 819.74ZM1078.43 804.679V823.284H1073.67V792.357H1078.27V797.189H1078.67C1079.39 795.619 1080.49 794.357 1081.97 793.404C1083.45 792.437 1085.35 791.954 1087.69 791.954C1089.78 791.954 1091.61 792.384 1093.19 793.243C1094.76 794.089 1095.98 795.377 1096.85 797.109C1097.72 798.827 1098.16 801.002 1098.16 803.632V823.284H1093.41V803.955C1093.41 801.525 1092.78 799.632 1091.51 798.277C1090.25 796.907 1088.52 796.223 1086.32 796.223C1084.8 796.223 1083.45 796.552 1082.25 797.209C1081.07 797.867 1080.14 798.827 1079.45 800.089C1078.77 801.351 1078.43 802.881 1078.43 804.679ZM1123.43 823.284V782.048H1128.19V797.27H1128.59C1128.94 796.733 1129.42 796.048 1130.04 795.216C1130.67 794.37 1131.57 793.619 1132.74 792.961C1133.92 792.29 1135.51 791.954 1137.53 791.954C1140.13 791.954 1142.43 792.605 1144.41 793.907C1146.4 795.209 1147.95 797.055 1149.06 799.444C1150.18 801.834 1150.74 804.653 1150.74 807.901C1150.74 811.176 1150.18 814.015 1149.06 816.418C1147.95 818.808 1146.41 820.66 1144.43 821.975C1142.46 823.277 1140.19 823.928 1137.61 823.928C1135.62 823.928 1134.03 823.6 1132.84 822.942C1131.64 822.271 1130.72 821.512 1130.08 820.667C1129.43 819.808 1128.94 819.096 1128.59 818.532H1128.02V823.284H1123.43ZM1128.1 807.821C1128.1 810.156 1128.45 812.217 1129.13 814.002C1129.82 815.774 1130.82 817.163 1132.13 818.17C1133.45 819.163 1135.06 819.66 1136.96 819.66C1138.95 819.66 1140.61 819.136 1141.94 818.089C1143.28 817.029 1144.29 815.606 1144.96 813.821C1145.64 812.022 1145.98 810.022 1145.98 807.821C1145.98 805.646 1145.65 803.686 1144.98 801.941C1144.32 800.183 1143.32 798.793 1141.98 797.773C1140.65 796.74 1138.98 796.223 1136.96 796.223C1135.03 796.223 1133.41 796.713 1132.09 797.693C1130.78 798.659 1129.78 800.015 1129.11 801.76C1128.44 803.492 1128.1 805.512 1128.1 807.821ZM1170.97 823.928C1167.99 823.928 1165.42 823.271 1163.26 821.955C1161.11 820.626 1159.45 818.774 1158.29 816.398C1157.13 814.009 1156.56 811.23 1156.56 808.062C1156.56 804.894 1157.13 802.102 1158.29 799.686C1159.45 797.256 1161.08 795.364 1163.16 794.008C1165.25 792.639 1167.7 791.954 1170.49 791.954C1172.1 791.954 1173.69 792.223 1175.26 792.76C1176.83 793.297 1178.26 794.169 1179.55 795.377C1180.84 796.572 1181.86 798.156 1182.63 800.129C1183.4 802.102 1183.78 804.532 1183.78 807.418V809.431H1159.94V805.324H1178.95C1178.95 803.579 1178.6 802.022 1177.9 800.653C1177.21 799.283 1176.23 798.203 1174.96 797.411C1173.7 796.619 1172.21 796.223 1170.49 796.223C1168.6 796.223 1166.96 796.693 1165.58 797.632C1164.21 798.558 1163.15 799.767 1162.41 801.257C1161.68 802.747 1161.31 804.344 1161.31 806.049V808.787C1161.31 811.123 1161.71 813.103 1162.52 814.727C1163.33 816.338 1164.47 817.566 1165.92 818.412C1167.37 819.244 1169.05 819.66 1170.97 819.66C1172.22 819.66 1173.35 819.485 1174.35 819.136C1175.37 818.774 1176.25 818.237 1176.99 817.526C1177.73 816.801 1178.3 815.901 1178.7 814.828L1183.29 816.116C1182.81 817.673 1182 819.042 1180.86 820.224C1179.72 821.391 1178.31 822.304 1176.63 822.962C1174.95 823.606 1173.07 823.928 1170.97 823.928ZM1216.05 824.009C1214.09 824.009 1212.32 823.64 1210.72 822.902C1209.12 822.15 1207.85 821.069 1206.91 819.66C1205.97 818.237 1205.5 816.519 1205.5 814.505C1205.5 812.733 1205.85 811.297 1206.55 810.196C1207.25 809.082 1208.18 808.21 1209.35 807.579C1210.52 806.948 1211.81 806.478 1213.21 806.169C1214.64 805.847 1216.07 805.592 1217.5 805.404C1219.38 805.163 1220.91 804.982 1222.07 804.861C1223.26 804.726 1224.11 804.505 1224.65 804.196C1225.2 803.888 1225.48 803.351 1225.48 802.585V802.424C1225.48 800.438 1224.93 798.894 1223.85 797.793C1222.77 796.693 1221.14 796.142 1218.95 796.142C1216.68 796.142 1214.91 796.639 1213.62 797.632C1212.33 798.626 1211.42 799.686 1210.9 800.814L1206.39 799.203C1207.19 797.324 1208.27 795.86 1209.61 794.813C1210.97 793.753 1212.44 793.015 1214.04 792.599C1215.65 792.169 1217.24 791.954 1218.79 791.954C1219.79 791.954 1220.93 792.075 1222.22 792.317C1223.52 792.545 1224.77 793.021 1225.98 793.746C1227.2 794.471 1228.22 795.565 1229.02 797.028C1229.83 798.491 1230.23 800.451 1230.23 802.908V823.284H1225.48V819.096H1225.24C1224.91 819.767 1224.38 820.485 1223.62 821.251C1222.87 822.016 1221.87 822.667 1220.62 823.204C1219.38 823.741 1217.85 824.009 1216.05 824.009ZM1216.78 819.74C1218.66 819.74 1220.24 819.371 1221.53 818.633C1222.83 817.895 1223.81 816.942 1224.47 815.774C1225.14 814.606 1225.48 813.378 1225.48 812.089V807.74C1225.28 807.982 1224.83 808.203 1224.15 808.404C1223.48 808.592 1222.7 808.76 1221.81 808.908C1220.94 809.042 1220.09 809.163 1219.26 809.27C1218.44 809.364 1217.77 809.445 1217.26 809.512C1216.03 809.673 1214.87 809.935 1213.8 810.297C1212.74 810.646 1211.88 811.176 1211.22 811.888C1210.58 812.586 1210.26 813.539 1210.26 814.747C1210.26 816.398 1210.87 817.646 1212.09 818.492C1213.32 819.324 1214.89 819.74 1216.78 819.74ZM1260.81 799.283L1256.54 800.491C1256.27 799.78 1255.88 799.089 1255.35 798.418C1254.84 797.733 1254.14 797.169 1253.26 796.726C1252.37 796.283 1251.24 796.062 1249.86 796.062C1247.96 796.062 1246.39 796.498 1245.12 797.371C1243.88 798.23 1243.25 799.324 1243.25 800.653C1243.25 801.834 1243.68 802.767 1244.54 803.451C1245.4 804.136 1246.74 804.706 1248.57 805.163L1253.16 806.29C1255.92 806.961 1257.98 807.988 1259.34 809.371C1260.69 810.74 1261.37 812.505 1261.37 814.666C1261.37 816.438 1260.86 818.022 1259.84 819.418C1258.84 820.814 1257.43 821.915 1255.61 822.72C1253.8 823.526 1251.69 823.928 1249.29 823.928C1246.14 823.928 1243.53 823.244 1241.46 821.875C1239.39 820.506 1238.08 818.505 1237.53 815.875L1242.04 814.747C1242.47 816.411 1243.28 817.66 1244.48 818.492C1245.69 819.324 1247.26 819.74 1249.21 819.74C1251.43 819.74 1253.18 819.271 1254.49 818.331C1255.8 817.378 1256.46 816.237 1256.46 814.908C1256.46 813.834 1256.08 812.935 1255.33 812.21C1254.58 811.472 1253.43 810.921 1251.87 810.559L1246.71 809.351C1243.88 808.68 1241.8 807.639 1240.47 806.23C1239.16 804.807 1238.5 803.028 1238.5 800.894C1238.5 799.149 1238.99 797.605 1239.97 796.263C1240.96 794.921 1242.31 793.867 1244.02 793.102C1245.73 792.337 1247.68 791.954 1249.86 791.954C1252.92 791.954 1255.32 792.625 1257.06 793.968C1258.82 795.31 1260.07 797.082 1260.81 799.283ZM1285.12 823.284V782.048H1289.87V797.27H1290.27C1290.62 796.733 1291.1 796.048 1291.72 795.216C1292.35 794.37 1293.25 793.619 1294.42 792.961C1295.6 792.29 1297.2 791.954 1299.21 791.954C1301.82 791.954 1304.11 792.605 1306.1 793.907C1308.08 795.209 1309.63 797.055 1310.75 799.444C1311.86 801.834 1312.42 804.653 1312.42 807.901C1312.42 811.176 1311.86 814.015 1310.75 816.418C1309.63 818.808 1308.09 820.66 1306.12 821.975C1304.14 823.277 1301.87 823.928 1299.29 823.928C1297.31 823.928 1295.71 823.6 1294.52 822.942C1293.33 822.271 1292.41 821.512 1291.76 820.667C1291.12 819.808 1290.62 819.096 1290.27 818.532H1289.71V823.284H1285.12ZM1289.79 807.821C1289.79 810.156 1290.13 812.217 1290.81 814.002C1291.5 815.774 1292.5 817.163 1293.82 818.17C1295.13 819.163 1296.74 819.66 1298.65 819.66C1300.63 819.66 1302.29 819.136 1303.62 818.089C1304.96 817.029 1305.97 815.606 1306.64 813.821C1307.33 812.022 1307.67 810.022 1307.67 807.821C1307.67 805.646 1307.33 803.686 1306.66 801.941C1306 800.183 1305 798.793 1303.66 797.773C1302.33 796.74 1300.66 796.223 1298.65 796.223C1296.71 796.223 1295.09 796.713 1293.77 797.693C1292.46 798.659 1291.47 800.015 1290.79 801.76C1290.12 803.492 1289.79 805.512 1289.79 807.821ZM1319.69 823.284V792.357H1324.44V823.284H1319.69ZM1322.1 787.202C1321.18 787.202 1320.38 786.887 1319.71 786.256C1319.05 785.625 1318.72 784.867 1318.72 783.981C1318.72 783.095 1319.05 782.336 1319.71 781.706C1320.38 781.075 1321.18 780.759 1322.1 780.759C1323.03 780.759 1323.82 781.075 1324.48 781.706C1325.15 782.336 1325.49 783.095 1325.49 783.981C1325.49 784.867 1325.15 785.625 1324.48 786.256C1323.82 786.887 1323.03 787.202 1322.1 787.202ZM1345.63 835.526C1343.33 835.526 1341.36 835.231 1339.71 834.64C1338.06 834.063 1336.68 833.298 1335.58 832.345C1334.49 831.405 1333.63 830.399 1332.98 829.325L1336.77 826.667C1337.2 827.231 1337.74 827.875 1338.4 828.6C1339.06 829.338 1339.96 829.976 1341.1 830.513C1342.25 831.063 1343.76 831.338 1345.63 831.338C1348.12 831.338 1350.18 830.734 1351.81 829.526C1353.43 828.318 1354.25 826.425 1354.25 823.848V817.566H1353.84C1353.49 818.13 1353 818.828 1352.35 819.66C1351.72 820.479 1350.81 821.21 1349.61 821.855C1348.43 822.485 1346.84 822.801 1344.82 822.801C1342.33 822.801 1340.08 822.21 1338.1 821.029C1336.12 819.848 1334.56 818.13 1333.41 815.875C1332.26 813.619 1331.69 810.881 1331.69 807.659C1331.69 804.492 1332.25 801.733 1333.37 799.384C1334.48 797.022 1336.03 795.196 1338.02 793.907C1340 792.605 1342.3 791.954 1344.9 791.954C1346.92 791.954 1348.51 792.29 1349.69 792.961C1350.89 793.619 1351.8 794.37 1352.43 795.216C1353.08 796.048 1353.57 796.733 1353.92 797.27H1354.41V792.357H1359V824.17C1359 826.828 1358.39 828.989 1357.18 830.654C1355.99 832.331 1354.38 833.56 1352.35 834.338C1350.34 835.13 1348.1 835.526 1345.63 835.526ZM1345.47 818.532C1347.37 818.532 1348.98 818.096 1350.3 817.224C1351.61 816.351 1352.61 815.096 1353.3 813.458C1353.98 811.821 1354.33 809.861 1354.33 807.579C1354.33 805.351 1353.99 803.384 1353.32 801.679C1352.65 799.975 1351.65 798.639 1350.34 797.673C1349.02 796.706 1347.4 796.223 1345.47 796.223C1343.45 796.223 1341.77 796.733 1340.43 797.753C1339.1 798.773 1338.1 800.142 1337.43 801.861C1336.77 803.579 1336.45 805.485 1336.45 807.579C1336.45 809.727 1336.78 811.626 1337.45 813.277C1338.14 814.915 1339.14 816.203 1340.47 817.143C1341.82 818.069 1343.48 818.532 1345.47 818.532ZM1392.74 824.009C1390.78 824.009 1389 823.64 1387.41 822.902C1385.81 822.15 1384.54 821.069 1383.6 819.66C1382.66 818.237 1382.19 816.519 1382.19 814.505C1382.19 812.733 1382.54 811.297 1383.24 810.196C1383.94 809.082 1384.87 808.21 1386.04 807.579C1387.21 806.948 1388.49 806.478 1389.9 806.169C1391.33 805.847 1392.76 805.592 1394.19 805.404C1396.07 805.163 1397.6 804.982 1398.76 804.861C1399.94 804.726 1400.8 804.505 1401.34 804.196C1401.89 803.888 1402.17 803.351 1402.17 802.585V802.424C1402.17 800.438 1401.62 798.894 1400.54 797.793C1399.46 796.693 1397.83 796.142 1395.64 796.142C1393.37 796.142 1391.6 796.639 1390.31 797.632C1389.02 798.626 1388.11 799.686 1387.59 800.814L1383.08 799.203C1383.88 797.324 1384.96 795.86 1386.3 794.813C1387.66 793.753 1389.13 793.015 1390.73 792.599C1392.34 792.169 1393.92 791.954 1395.48 791.954C1396.47 791.954 1397.62 792.075 1398.9 792.317C1400.21 792.545 1401.46 793.021 1402.67 793.746C1403.89 794.471 1404.9 795.565 1405.71 797.028C1406.52 798.491 1406.92 800.451 1406.92 802.908V823.284H1402.17V819.096H1401.92C1401.6 819.767 1401.07 820.485 1400.31 821.251C1399.56 822.016 1398.56 822.667 1397.31 823.204C1396.07 823.741 1394.54 824.009 1392.74 824.009ZM1393.47 819.74C1395.35 819.74 1396.93 819.371 1398.22 818.633C1399.52 817.895 1400.5 816.942 1401.16 815.774C1401.83 814.606 1402.17 813.378 1402.17 812.089V807.74C1401.96 807.982 1401.52 808.203 1400.84 808.404C1400.17 808.592 1399.39 808.76 1398.5 808.908C1397.63 809.042 1396.78 809.163 1395.94 809.27C1395.13 809.364 1394.46 809.445 1393.95 809.512C1392.72 809.673 1391.56 809.935 1390.49 810.297C1389.43 810.646 1388.57 811.176 1387.91 811.888C1387.27 812.586 1386.94 813.539 1386.94 814.747C1386.94 816.398 1387.56 817.646 1388.78 818.492C1390.01 819.324 1391.58 819.74 1393.47 819.74ZM1437.5 799.283L1433.23 800.491C1432.96 799.78 1432.56 799.089 1432.04 798.418C1431.53 797.733 1430.83 797.169 1429.95 796.726C1429.06 796.283 1427.93 796.062 1426.54 796.062C1424.65 796.062 1423.07 796.498 1421.81 797.371C1420.56 798.23 1419.94 799.324 1419.94 800.653C1419.94 801.834 1420.37 802.767 1421.23 803.451C1422.09 804.136 1423.43 804.706 1425.26 805.163L1429.85 806.29C1432.61 806.961 1434.67 807.988 1436.03 809.371C1437.38 810.74 1438.06 812.505 1438.06 814.666C1438.06 816.438 1437.55 818.022 1436.53 819.418C1435.52 820.814 1434.12 821.915 1432.3 822.72C1430.49 823.526 1428.38 823.928 1425.98 823.928C1422.83 823.928 1420.22 823.244 1418.15 821.875C1416.08 820.506 1414.77 818.505 1414.22 815.875L1418.73 814.747C1419.16 816.411 1419.97 817.66 1421.17 818.492C1422.38 819.324 1423.95 819.74 1425.9 819.74C1428.12 819.74 1429.87 819.271 1431.18 818.331C1432.49 817.378 1433.15 816.237 1433.15 814.908C1433.15 813.834 1432.77 812.935 1432.02 812.21C1431.27 811.472 1430.12 810.921 1428.56 810.559L1423.4 809.351C1420.57 808.68 1418.49 807.639 1417.16 806.23C1415.85 804.807 1415.19 803.028 1415.19 800.894C1415.19 799.149 1415.68 797.605 1416.66 796.263C1417.65 794.921 1419 793.867 1420.71 793.102C1422.42 792.337 1424.37 791.954 1426.54 791.954C1429.61 791.954 1432.01 792.625 1433.75 793.968C1435.51 795.31 1436.76 797.082 1437.5 799.283ZM1464.22 834.882C1463.42 834.882 1462.7 834.815 1462.07 834.681C1461.44 834.56 1461 834.439 1460.76 834.318L1461.97 830.13C1463.12 830.425 1464.14 830.533 1465.03 830.452C1465.91 830.372 1466.7 829.976 1467.38 829.264C1468.08 828.566 1468.72 827.432 1469.3 825.861L1470.18 823.445L1458.75 792.357H1463.9L1472.44 817.002H1472.76L1481.3 792.357H1486.45L1473.32 827.794C1472.73 829.392 1472 830.714 1471.13 831.761C1470.26 832.821 1469.24 833.607 1468.09 834.117C1466.95 834.627 1465.66 834.882 1464.22 834.882ZM1504.18 823.928C1501.39 823.928 1498.94 823.264 1496.83 821.935C1494.74 820.606 1493.1 818.747 1491.92 816.358C1490.75 813.968 1490.17 811.176 1490.17 807.982C1490.17 804.76 1490.75 801.948 1491.92 799.545C1493.1 797.142 1494.74 795.276 1496.83 793.948C1498.94 792.619 1501.39 791.954 1504.18 791.954C1506.97 791.954 1509.42 792.619 1511.51 793.948C1513.62 795.276 1515.25 797.142 1516.42 799.545C1517.6 801.948 1518.19 804.76 1518.19 807.982C1518.19 811.176 1517.6 813.968 1516.42 816.358C1515.25 818.747 1513.62 820.606 1511.51 821.935C1509.42 823.264 1506.97 823.928 1504.18 823.928ZM1504.18 819.66C1506.3 819.66 1508.05 819.116 1509.42 818.029C1510.78 816.942 1511.8 815.512 1512.46 813.74C1513.11 811.968 1513.44 810.049 1513.44 807.982C1513.44 805.914 1513.11 803.988 1512.46 802.203C1511.8 800.418 1510.78 798.975 1509.42 797.874C1508.05 796.773 1506.3 796.223 1504.18 796.223C1502.06 796.223 1500.31 796.773 1498.94 797.874C1497.58 798.975 1496.56 800.418 1495.9 802.203C1495.25 803.988 1494.92 805.914 1494.92 807.982C1494.92 810.049 1495.25 811.968 1495.9 813.74C1496.56 815.512 1497.58 816.942 1498.94 818.029C1500.31 819.116 1502.06 819.66 1504.18 819.66ZM1544.94 810.639V792.357H1549.69V823.284H1544.94V818.049H1544.62C1543.89 819.62 1542.76 820.955 1541.23 822.056C1539.7 823.143 1537.77 823.687 1535.43 823.687C1533.5 823.687 1531.78 823.264 1530.28 822.418C1528.78 821.559 1527.6 820.271 1526.74 818.552C1525.88 816.821 1525.45 814.64 1525.45 812.009V792.357H1530.2V811.686C1530.2 813.942 1530.83 815.74 1532.09 817.083C1533.37 818.425 1534.99 819.096 1536.96 819.096C1538.15 819.096 1539.35 818.794 1540.57 818.19C1541.8 817.586 1542.84 816.66 1543.67 815.411C1544.52 814.163 1544.94 812.572 1544.94 810.639ZM1581.35 823.284L1571.92 792.357H1576.92L1583.6 816.036H1583.92L1590.53 792.357H1595.6L1602.13 815.955H1602.45L1609.13 792.357H1614.13L1604.7 823.284H1600.03L1593.27 799.525H1592.78L1586.02 823.284H1581.35ZM1629.51 824.009C1627.55 824.009 1625.77 823.64 1624.17 822.902C1622.58 822.15 1621.31 821.069 1620.37 819.66C1619.43 818.237 1618.96 816.519 1618.96 814.505C1618.96 812.733 1619.31 811.297 1620.01 810.196C1620.7 809.082 1621.64 808.21 1622.81 807.579C1623.97 806.948 1625.26 806.478 1626.67 806.169C1628.09 805.847 1629.52 805.592 1630.96 805.404C1632.84 805.163 1634.36 804.982 1635.53 804.861C1636.71 804.726 1637.57 804.505 1638.11 804.196C1638.66 803.888 1638.93 803.351 1638.93 802.585V802.424C1638.93 800.438 1638.39 798.894 1637.3 797.793C1636.23 796.693 1634.6 796.142 1632.41 796.142C1630.14 796.142 1628.36 796.639 1627.07 797.632C1625.78 798.626 1624.88 799.686 1624.36 800.814L1619.85 799.203C1620.65 797.324 1621.72 795.86 1623.07 794.813C1624.42 793.753 1625.9 793.015 1627.5 792.599C1629.11 792.169 1630.69 791.954 1632.25 791.954C1633.24 791.954 1634.38 792.075 1635.67 792.317C1636.97 792.545 1638.23 793.021 1639.44 793.746C1640.66 794.471 1641.67 795.565 1642.48 797.028C1643.28 798.491 1643.68 800.451 1643.68 802.908V823.284H1638.93V819.096H1638.69C1638.37 819.767 1637.83 820.485 1637.08 821.251C1636.33 822.016 1635.33 822.667 1634.08 823.204C1632.83 823.741 1631.31 824.009 1629.51 824.009ZM1630.23 819.74C1632.11 819.74 1633.7 819.371 1634.99 818.633C1636.29 817.895 1637.27 816.942 1637.93 815.774C1638.6 814.606 1638.93 813.378 1638.93 812.089V807.74C1638.73 807.982 1638.29 808.203 1637.6 808.404C1636.93 808.592 1636.15 808.76 1635.27 808.908C1634.4 809.042 1633.54 809.163 1632.71 809.27C1631.89 809.364 1631.23 809.445 1630.72 809.512C1629.48 809.673 1628.33 809.935 1627.25 810.297C1626.19 810.646 1625.34 811.176 1624.68 811.888C1624.03 812.586 1623.71 813.539 1623.71 814.747C1623.71 816.398 1624.32 817.646 1625.54 818.492C1626.78 819.324 1628.34 819.74 1630.23 819.74ZM1657.11 804.679V823.284H1652.36V792.357H1656.95V797.189H1657.35C1658.08 795.619 1659.18 794.357 1660.65 793.404C1662.13 792.437 1664.04 791.954 1666.37 791.954C1668.47 791.954 1670.3 792.384 1671.87 793.243C1673.44 794.089 1674.66 795.377 1675.53 797.109C1676.41 798.827 1676.84 801.002 1676.84 803.632V823.284H1672.09V803.955C1672.09 801.525 1671.46 799.632 1670.2 798.277C1668.94 796.907 1667.2 796.223 1665 796.223C1663.49 796.223 1662.13 796.552 1660.94 797.209C1659.75 797.867 1658.82 798.827 1658.14 800.089C1657.45 801.351 1657.11 802.881 1657.11 804.679ZM1698.98 792.357V796.384H1682.95V792.357H1698.98ZM1687.62 784.947H1692.37V814.425C1692.37 815.767 1692.57 816.774 1692.95 817.445C1693.36 818.103 1693.87 818.546 1694.49 818.774C1695.12 818.989 1695.78 819.096 1696.48 819.096C1697 819.096 1697.43 819.069 1697.77 819.016C1698.1 818.948 1698.37 818.895 1698.57 818.854L1699.54 823.123C1699.22 823.244 1698.77 823.365 1698.19 823.486C1697.61 823.62 1696.88 823.687 1696 823.687C1694.65 823.687 1693.34 823.398 1692.05 822.821C1690.77 822.244 1689.71 821.365 1688.87 820.183C1688.04 819.002 1687.62 817.512 1687.62 815.713V784.947ZM1722.07 823.284V792.357H1726.82V823.284H1722.07ZM1724.49 787.202C1723.56 787.202 1722.76 786.887 1722.09 786.256C1721.43 785.625 1721.1 784.867 1721.1 783.981C1721.1 783.095 1721.43 782.336 1722.09 781.706C1722.76 781.075 1723.56 780.759 1724.49 780.759C1725.41 780.759 1726.2 781.075 1726.86 781.706C1727.53 782.336 1727.87 783.095 1727.87 783.981C1727.87 784.867 1727.53 785.625 1726.86 786.256C1726.2 786.887 1725.41 787.202 1724.49 787.202ZM1748.98 792.357V796.384H1732.95V792.357H1748.98ZM1737.62 784.947H1742.37V814.425C1742.37 815.767 1742.57 816.774 1742.96 817.445C1743.36 818.103 1743.87 818.546 1744.49 818.774C1745.12 818.989 1745.78 819.096 1746.48 819.096C1747 819.096 1747.43 819.069 1747.77 819.016C1748.1 818.948 1748.37 818.895 1748.57 818.854L1749.54 823.123C1749.22 823.244 1748.77 823.365 1748.19 823.486C1747.61 823.62 1746.88 823.687 1746 823.687C1744.65 823.687 1743.34 823.398 1742.05 822.821C1740.77 822.244 1739.71 821.365 1738.87 820.183C1738.04 819.002 1737.62 817.512 1737.62 815.713V784.947ZM1785.52 792.357V796.384H1769.49V792.357H1785.52ZM1774.16 784.947H1778.92V814.425C1778.92 815.767 1779.11 816.774 1779.5 817.445C1779.9 818.103 1780.41 818.546 1781.03 818.774C1781.66 818.989 1782.33 819.096 1783.02 819.096C1783.55 819.096 1783.98 819.069 1784.31 819.016C1784.65 818.948 1784.92 818.895 1785.12 818.854L1786.08 823.123C1785.76 823.244 1785.31 823.365 1784.74 823.486C1784.16 823.62 1783.43 823.687 1782.54 823.687C1781.2 823.687 1779.88 823.398 1778.59 822.821C1777.32 822.244 1776.26 821.365 1775.41 820.183C1774.58 819.002 1774.16 817.512 1774.16 815.713V784.947ZM1804.9 823.928C1802.11 823.928 1799.66 823.264 1797.55 821.935C1795.46 820.606 1793.82 818.747 1792.64 816.358C1791.47 813.968 1790.89 811.176 1790.89 807.982C1790.89 804.76 1791.47 801.948 1792.64 799.545C1793.82 797.142 1795.46 795.276 1797.55 793.948C1799.66 792.619 1802.11 791.954 1804.9 791.954C1807.69 791.954 1810.14 792.619 1812.23 793.948C1814.34 795.276 1815.97 797.142 1817.14 799.545C1818.32 801.948 1818.91 804.76 1818.91 807.982C1818.91 811.176 1818.32 813.968 1817.14 816.358C1815.97 818.747 1814.34 820.606 1812.23 821.935C1810.14 823.264 1807.69 823.928 1804.9 823.928ZM1804.9 819.66C1807.02 819.66 1808.77 819.116 1810.14 818.029C1811.5 816.942 1812.52 815.512 1813.18 813.74C1813.83 811.968 1814.16 810.049 1814.16 807.982C1814.16 805.914 1813.83 803.988 1813.18 802.203C1812.52 800.418 1811.5 798.975 1810.14 797.874C1808.77 796.773 1807.02 796.223 1804.9 796.223C1802.78 796.223 1801.03 796.773 1799.67 797.874C1798.3 798.975 1797.28 800.418 1796.62 802.203C1795.97 803.988 1795.64 805.914 1795.64 807.982C1795.64 810.049 1795.97 811.968 1796.62 813.74C1797.28 815.512 1798.3 816.942 1799.67 818.029C1801.03 819.116 1802.78 819.66 1804.9 819.66ZM1842.76 823.284V782.048H1847.51V797.27H1847.91C1848.26 796.733 1848.75 796.048 1849.36 795.216C1849.99 794.37 1850.89 793.619 1852.06 792.961C1853.24 792.29 1854.84 791.954 1856.85 791.954C1859.46 791.954 1861.75 792.605 1863.74 793.907C1865.73 795.209 1867.28 797.055 1868.39 799.444C1869.51 801.834 1870.06 804.653 1870.06 807.901C1870.06 811.176 1869.51 814.015 1868.39 816.418C1867.28 818.808 1865.73 820.66 1863.76 821.975C1861.79 823.277 1859.51 823.928 1856.93 823.928C1854.95 823.928 1853.36 823.6 1852.16 822.942C1850.97 822.271 1850.05 821.512 1849.4 820.667C1848.76 819.808 1848.26 819.096 1847.91 818.532H1847.35V823.284H1842.76ZM1847.43 807.821C1847.43 810.156 1847.77 812.217 1848.46 814.002C1849.14 815.774 1850.14 817.163 1851.46 818.17C1852.77 819.163 1854.38 819.66 1856.29 819.66C1858.28 819.66 1859.93 819.136 1861.26 818.089C1862.61 817.029 1863.61 815.606 1864.28 813.821C1864.97 812.022 1865.31 810.022 1865.31 807.821C1865.31 805.646 1864.97 803.686 1864.3 801.941C1863.65 800.183 1862.65 798.793 1861.3 797.773C1859.97 796.74 1858.3 796.223 1856.29 796.223C1854.36 796.223 1852.73 796.713 1851.42 797.693C1850.1 798.659 1849.11 800.015 1848.44 801.76C1847.77 803.492 1847.43 805.512 1847.43 807.821ZM1890.3 823.928C1887.32 823.928 1884.75 823.271 1882.59 821.955C1880.44 820.626 1878.78 818.774 1877.61 816.398C1876.46 814.009 1875.88 811.23 1875.88 808.062C1875.88 804.894 1876.46 802.102 1877.61 799.686C1878.78 797.256 1880.4 795.364 1882.49 794.008C1884.58 792.639 1887.02 791.954 1889.81 791.954C1891.43 791.954 1893.02 792.223 1894.59 792.76C1896.16 793.297 1897.59 794.169 1898.88 795.377C1900.16 796.572 1901.19 798.156 1901.96 800.129C1902.72 802.102 1903.1 804.532 1903.1 807.418V809.431H1879.26V805.324H1898.27C1898.27 803.579 1897.92 802.022 1897.22 800.653C1896.54 799.283 1895.56 798.203 1894.28 797.411C1893.02 796.619 1891.53 796.223 1889.81 796.223C1887.92 796.223 1886.28 796.693 1884.9 797.632C1883.53 798.558 1882.48 799.767 1881.74 801.257C1881 802.747 1880.63 804.344 1880.63 806.049V808.787C1880.63 811.123 1881.04 813.103 1881.84 814.727C1882.66 816.338 1883.79 817.566 1885.24 818.412C1886.69 819.244 1888.38 819.66 1890.3 819.66C1891.55 819.66 1892.67 819.485 1893.68 819.136C1894.7 818.774 1895.58 818.237 1896.32 817.526C1897.06 816.801 1897.63 815.901 1898.03 814.828L1902.62 816.116C1902.14 817.673 1901.32 819.042 1900.18 820.224C1899.04 821.391 1897.63 822.304 1895.96 822.962C1894.28 823.606 1892.39 823.928 1890.3 823.928ZM1917.42 817.646L1917.1 819.821C1916.87 821.351 1916.52 822.989 1916.05 824.734C1915.59 826.479 1915.12 828.123 1914.62 829.667C1914.12 831.211 1913.71 832.439 1913.39 833.352H1909.77C1909.94 832.493 1910.17 831.358 1910.45 829.949C1910.73 828.539 1911.02 826.962 1911.3 825.217C1911.59 823.486 1911.84 821.714 1912.02 819.902L1912.26 817.646H1917.42ZM434.063 892.284V851.048H438.815V866.27H439.218C439.567 865.733 440.05 865.048 440.667 864.216C441.298 863.37 442.198 862.619 443.365 861.961C444.547 861.29 446.144 860.954 448.158 860.954C450.762 860.954 453.057 861.605 455.044 862.907C457.03 864.209 458.581 866.055 459.695 868.444C460.809 870.834 461.366 873.653 461.366 876.901C461.366 880.176 460.809 883.015 459.695 885.418C458.581 887.808 457.037 889.66 455.064 890.975C453.091 892.277 450.815 892.928 448.238 892.928C446.251 892.928 444.661 892.6 443.466 891.942C442.271 891.271 441.352 890.512 440.708 889.667C440.063 888.808 439.567 888.096 439.218 887.532H438.654V892.284H434.063ZM438.734 876.821C438.734 879.156 439.077 881.217 439.761 883.002C440.446 884.774 441.446 886.163 442.761 887.17C444.077 888.163 445.688 888.66 447.594 888.66C449.58 888.66 451.238 888.136 452.567 887.089C453.909 886.029 454.916 884.606 455.587 882.821C456.272 881.022 456.614 879.022 456.614 876.821C456.614 874.646 456.279 872.686 455.607 870.941C454.95 869.183 453.95 867.793 452.607 866.773C451.278 865.74 449.607 865.223 447.594 865.223C445.661 865.223 444.037 865.713 442.721 866.693C441.406 867.659 440.412 869.015 439.741 870.76C439.07 872.492 438.734 874.512 438.734 876.821ZM488.125 879.639V861.357H492.877V892.284H488.125V887.049H487.803C487.078 888.62 485.951 889.955 484.421 891.056C482.89 892.143 480.957 892.687 478.622 892.687C476.689 892.687 474.971 892.264 473.467 891.418C471.964 890.559 470.782 889.271 469.923 887.552C469.064 885.821 468.635 883.64 468.635 881.009V861.357H473.387V880.686C473.387 882.942 474.017 884.74 475.279 886.083C476.554 887.425 478.179 888.096 480.152 888.096C481.333 888.096 482.535 887.794 483.756 887.19C484.991 886.586 486.025 885.66 486.857 884.411C487.703 883.163 488.125 881.572 488.125 879.639ZM515.031 861.357V865.384H499.003V861.357H515.031ZM503.675 853.947H508.426V883.425C508.426 884.767 508.621 885.774 509.01 886.445C509.413 887.103 509.923 887.546 510.541 887.774C511.171 887.989 511.836 888.096 512.534 888.096C513.057 888.096 513.487 888.069 513.823 888.016C514.158 887.948 514.427 887.895 514.628 887.854L515.594 892.123C515.272 892.244 514.823 892.365 514.245 892.486C513.668 892.62 512.937 892.687 512.051 892.687C510.708 892.687 509.393 892.398 508.104 891.821C506.829 891.244 505.769 890.365 504.923 889.183C504.091 888.002 503.675 886.512 503.675 884.713V853.947ZM538.125 892.284V861.357H542.716V866.189H543.119C543.763 864.538 544.804 863.256 546.24 862.344C547.676 861.417 549.401 860.954 551.415 860.954C553.455 860.954 555.153 861.417 556.509 862.344C557.878 863.256 558.945 864.538 559.71 866.189H560.032C560.824 864.592 562.012 863.323 563.596 862.384C565.18 861.431 567.08 860.954 569.294 860.954C572.06 860.954 574.321 861.82 576.08 863.552C577.838 865.27 578.717 867.948 578.717 871.585V892.284H573.966V871.585C573.966 869.303 573.341 867.673 572.093 866.693C570.845 865.713 569.375 865.223 567.684 865.223C565.509 865.223 563.824 865.881 562.63 867.196C561.435 868.498 560.838 870.149 560.838 872.149V892.284H556.005V871.102C556.005 869.344 555.435 867.928 554.294 866.854C553.153 865.766 551.683 865.223 549.884 865.223C548.649 865.223 547.495 865.552 546.421 866.209C545.361 866.867 544.502 867.78 543.844 868.948C543.199 870.102 542.877 871.438 542.877 872.955V892.284H538.125ZM596.507 893.009C594.547 893.009 592.768 892.64 591.171 891.902C589.574 891.15 588.305 890.069 587.365 888.66C586.426 887.237 585.956 885.519 585.956 883.505C585.956 881.733 586.305 880.297 587.003 879.196C587.701 878.082 588.634 877.21 589.802 876.579C590.97 875.948 592.258 875.478 593.668 875.169C595.091 874.847 596.52 874.592 597.956 874.404C599.836 874.163 601.359 873.982 602.527 873.861C603.708 873.726 604.567 873.505 605.104 873.196C605.655 872.888 605.93 872.351 605.93 871.585V871.424C605.93 869.438 605.386 867.894 604.299 866.793C603.225 865.693 601.594 865.142 599.406 865.142C597.138 865.142 595.359 865.639 594.07 866.632C592.782 867.626 591.876 868.686 591.352 869.814L586.842 868.203C587.647 866.324 588.721 864.86 590.064 863.813C591.419 862.753 592.896 862.015 594.493 861.599C596.104 861.169 597.688 860.954 599.245 860.954C600.238 860.954 601.379 861.075 602.668 861.317C603.97 861.545 605.225 862.021 606.433 862.746C607.655 863.471 608.668 864.565 609.474 866.028C610.279 867.491 610.682 869.451 610.682 871.908V892.284H605.93V888.096H605.688C605.366 888.767 604.829 889.485 604.077 890.251C603.326 891.016 602.326 891.667 601.077 892.204C599.829 892.741 598.305 893.009 596.507 893.009ZM597.232 888.74C599.111 888.74 600.695 888.371 601.983 887.633C603.285 886.895 604.265 885.942 604.923 884.774C605.594 883.606 605.93 882.378 605.93 881.089V876.74C605.729 876.982 605.286 877.203 604.601 877.404C603.93 877.592 603.151 877.76 602.265 877.908C601.393 878.042 600.54 878.163 599.708 878.27C598.889 878.364 598.225 878.445 597.715 878.512C596.48 878.673 595.325 878.935 594.252 879.297C593.191 879.646 592.332 880.176 591.674 880.888C591.03 881.586 590.708 882.539 590.708 883.747C590.708 885.398 591.319 886.646 592.54 887.492C593.775 888.324 595.339 888.74 597.232 888.74ZM623.785 881.009L623.704 875.129H624.67L638.201 861.357H644.081L629.664 875.935H629.261L623.785 881.009ZM619.355 892.284V851.048H624.107V892.284H619.355ZM639.007 892.284L626.926 876.982L630.308 873.679L645.047 892.284H639.007ZM661.89 892.928C658.91 892.928 656.339 892.271 654.178 890.955C652.03 889.626 650.373 887.774 649.205 885.398C648.05 883.009 647.473 880.23 647.473 877.062C647.473 873.894 648.05 871.102 649.205 868.686C650.373 866.256 651.997 864.364 654.078 863.008C656.172 861.639 658.615 860.954 661.407 860.954C663.017 860.954 664.608 861.223 666.179 861.76C667.749 862.297 669.179 863.169 670.467 864.377C671.756 865.572 672.783 867.156 673.548 869.129C674.313 871.102 674.696 873.532 674.696 876.418V878.431H650.856V874.324H669.863C669.863 872.579 669.514 871.022 668.816 869.653C668.132 868.283 667.152 867.203 665.877 866.411C664.615 865.619 663.125 865.223 661.407 865.223C659.514 865.223 657.876 865.693 656.494 866.632C655.125 867.558 654.071 868.767 653.333 870.257C652.594 871.747 652.225 873.344 652.225 875.049V877.787C652.225 880.123 652.628 882.103 653.433 883.727C654.252 885.338 655.386 886.566 656.836 887.412C658.286 888.244 659.97 888.66 661.89 888.66C663.138 888.66 664.266 888.485 665.273 888.136C666.293 887.774 667.172 887.237 667.91 886.526C668.649 885.801 669.219 884.901 669.622 883.828L674.212 885.116C673.729 886.673 672.917 888.042 671.776 889.224C670.635 890.391 669.226 891.304 667.548 891.962C665.87 892.606 663.984 892.928 661.89 892.928ZM719.778 868.283L715.509 869.491C715.241 868.78 714.845 868.089 714.321 867.418C713.811 866.733 713.113 866.169 712.227 865.726C711.341 865.283 710.207 865.062 708.824 865.062C706.932 865.062 705.355 865.498 704.093 866.371C702.844 867.23 702.22 868.324 702.22 869.653C702.22 870.834 702.65 871.767 703.509 872.451C704.368 873.136 705.71 873.706 707.536 874.163L712.127 875.29C714.892 875.961 716.952 876.988 718.308 878.371C719.664 879.74 720.342 881.505 720.342 883.666C720.342 885.438 719.832 887.022 718.811 888.418C717.805 889.814 716.395 890.915 714.583 891.72C712.771 892.526 710.663 892.928 708.261 892.928C705.106 892.928 702.495 892.244 700.428 890.875C698.361 889.506 697.052 887.505 696.502 884.875L701.012 883.747C701.442 885.411 702.254 886.66 703.448 887.492C704.657 888.324 706.234 888.74 708.18 888.74C710.395 888.74 712.153 888.271 713.456 887.331C714.771 886.378 715.429 885.237 715.429 883.908C715.429 882.834 715.053 881.935 714.301 881.21C713.549 880.472 712.395 879.921 710.838 879.559L705.683 878.351C702.851 877.68 700.77 876.639 699.442 875.23C698.126 873.807 697.468 872.028 697.468 869.894C697.468 868.149 697.958 866.605 698.938 865.263C699.932 863.921 701.281 862.867 702.985 862.102C704.704 861.337 706.65 860.954 708.824 860.954C711.885 860.954 714.288 861.625 716.033 862.968C717.791 864.31 719.04 866.082 719.778 868.283ZM746.985 879.639V861.357H751.737V892.284H746.985V887.049H746.663C745.938 888.62 744.811 889.955 743.28 891.056C741.75 892.143 739.817 892.687 737.482 892.687C735.549 892.687 733.83 892.264 732.327 891.418C730.824 890.559 729.642 889.271 728.783 887.552C727.924 885.821 727.495 883.64 727.495 881.009V861.357H732.246V880.686C732.246 882.942 732.877 884.74 734.139 886.083C735.414 887.425 737.039 888.096 739.012 888.096C740.193 888.096 741.394 887.794 742.616 887.19C743.851 886.586 744.884 885.66 745.717 884.411C746.562 883.163 746.985 881.572 746.985 879.639ZM760.44 892.284V861.357H765.031V866.028H765.353C765.917 864.498 766.937 863.256 768.414 862.303C769.89 861.35 771.555 860.874 773.407 860.874C773.756 860.874 774.193 860.88 774.716 860.894C775.24 860.907 775.636 860.927 775.904 860.954V865.787C775.743 865.746 775.374 865.686 774.797 865.605C774.233 865.511 773.635 865.464 773.005 865.464C771.501 865.464 770.159 865.78 768.978 866.411C767.81 867.028 766.884 867.887 766.199 868.988C765.528 870.075 765.192 871.317 765.192 872.713V892.284H760.44ZM793.562 892.928C790.582 892.928 788.012 892.271 785.851 890.955C783.703 889.626 782.045 887.774 780.877 885.398C779.723 883.009 779.146 880.23 779.146 877.062C779.146 873.894 779.723 871.102 780.877 868.686C782.045 866.256 783.669 864.364 785.75 863.008C787.844 861.639 790.287 860.954 793.079 860.954C794.69 860.954 796.281 861.223 797.851 861.76C799.422 862.297 800.851 863.169 802.14 864.377C803.429 865.572 804.455 867.156 805.221 869.129C805.986 871.102 806.368 873.532 806.368 876.418V878.431H782.528V874.324H801.536C801.536 872.579 801.187 871.022 800.489 869.653C799.804 868.283 798.824 867.203 797.549 866.411C796.287 865.619 794.797 865.223 793.079 865.223C791.186 865.223 789.549 865.693 788.166 866.632C786.797 867.558 785.743 868.767 785.005 870.257C784.267 871.747 783.898 873.344 783.898 875.049V877.787C783.898 880.123 784.3 882.103 785.106 883.727C785.925 885.338 787.059 886.566 788.509 887.412C789.958 888.244 791.643 888.66 793.562 888.66C794.811 888.66 795.938 888.485 796.945 888.136C797.965 887.774 798.844 887.237 799.583 886.526C800.321 885.801 800.892 884.901 801.294 883.828L805.885 885.116C805.402 886.673 804.59 888.042 803.449 889.224C802.308 890.391 800.898 891.304 799.22 891.962C797.542 892.606 795.656 892.928 793.562 892.928ZM829.543 892.284V861.357H834.295V892.284H829.543ZM831.96 856.202C831.033 856.202 830.235 855.887 829.564 855.256C828.906 854.625 828.577 853.867 828.577 852.981C828.577 852.095 828.906 851.336 829.564 850.706C830.235 850.075 831.033 849.759 831.96 849.759C832.886 849.759 833.678 850.075 834.336 850.706C835.007 851.336 835.342 852.095 835.342 852.981C835.342 853.867 835.007 854.625 834.336 855.256C833.678 855.887 832.886 856.202 831.96 856.202ZM856.449 861.357V865.384H840.421V861.357H856.449ZM845.093 853.947H849.845V883.425C849.845 884.767 850.039 885.774 850.428 886.445C850.831 887.103 851.341 887.546 851.959 887.774C852.59 887.989 853.254 888.096 853.952 888.096C854.476 888.096 854.905 888.069 855.241 888.016C855.576 887.948 855.845 887.895 856.046 887.854L857.013 892.123C856.69 892.244 856.241 892.365 855.664 892.486C855.086 892.62 854.355 892.687 853.469 892.687C852.127 892.687 850.811 892.398 849.522 891.821C848.247 891.244 847.187 890.365 846.341 889.183C845.509 888.002 845.093 886.512 845.093 884.713V853.947ZM884.95 868.283L880.681 869.491C880.413 868.78 880.017 868.089 879.493 867.418C878.983 866.733 878.285 866.169 877.399 865.726C876.513 865.283 875.379 865.062 873.996 865.062C872.104 865.062 870.526 865.498 869.265 866.371C868.016 867.23 867.392 868.324 867.392 869.653C867.392 870.834 867.822 871.767 868.681 872.451C869.54 873.136 870.882 873.706 872.708 874.163L877.299 875.29C880.064 875.961 882.124 876.988 883.48 878.371C884.836 879.74 885.514 881.505 885.514 883.666C885.514 885.438 885.004 887.022 883.983 888.418C882.977 889.814 881.567 890.915 879.755 891.72C877.943 892.526 875.835 892.928 873.433 892.928C870.278 892.928 867.667 892.244 865.6 890.875C863.533 889.506 862.224 887.505 861.674 884.875L866.184 883.747C866.614 885.411 867.426 886.66 868.62 887.492C869.828 888.324 871.406 888.74 873.352 888.74C875.567 888.74 877.325 888.271 878.627 887.331C879.943 886.378 880.601 885.237 880.601 883.908C880.601 882.834 880.225 881.935 879.473 881.21C878.721 880.472 877.567 879.921 876.01 879.559L870.855 878.351C868.023 877.68 865.942 876.639 864.614 875.23C863.298 873.807 862.64 872.028 862.64 869.894C862.64 868.149 863.13 866.605 864.11 865.263C865.103 863.921 866.453 862.867 868.157 862.102C869.875 861.337 871.822 860.954 873.996 860.954C877.057 860.954 879.46 861.625 881.205 862.968C882.963 864.31 884.212 866.082 884.95 868.283ZM913.365 851.048V892.284H908.613V851.048H913.365ZM934.633 892.928C931.841 892.928 929.391 892.264 927.284 890.935C925.19 889.606 923.552 887.747 922.371 885.358C921.203 882.968 920.619 880.176 920.619 876.982C920.619 873.76 921.203 870.948 922.371 868.545C923.552 866.142 925.19 864.276 927.284 862.948C929.391 861.619 931.841 860.954 934.633 860.954C937.425 860.954 939.868 861.619 941.962 862.948C944.069 864.276 945.707 866.142 946.875 868.545C948.056 870.948 948.647 873.76 948.647 876.982C948.647 880.176 948.056 882.968 946.875 885.358C945.707 887.747 944.069 889.606 941.962 890.935C939.868 892.264 937.425 892.928 934.633 892.928ZM934.633 888.66C936.754 888.66 938.499 888.116 939.868 887.029C941.237 885.942 942.251 884.512 942.908 882.74C943.566 880.968 943.895 879.049 943.895 876.982C943.895 874.914 943.566 872.988 942.908 871.203C942.251 869.418 941.237 867.975 939.868 866.874C938.499 865.773 936.754 865.223 934.633 865.223C932.512 865.223 930.767 865.773 929.398 866.874C928.029 867.975 927.015 869.418 926.357 871.203C925.7 872.988 925.371 874.914 925.371 876.982C925.371 879.049 925.7 880.968 926.357 882.74C927.015 884.512 928.029 885.942 929.398 887.029C930.767 888.116 932.512 888.66 934.633 888.66ZM961.855 892.284L952.432 861.357H957.426L964.11 885.036H964.433L971.037 861.357H976.111L982.635 884.955H982.957L989.641 861.357H994.635L985.212 892.284H980.54L973.775 868.525H973.292L966.527 892.284H961.855ZM1028.54 892.928C1025.96 892.928 1023.69 892.277 1021.72 890.975C1019.74 889.66 1018.2 887.808 1017.09 885.418C1015.97 883.015 1015.41 880.176 1015.41 876.901C1015.41 873.653 1015.97 870.834 1017.09 868.444C1018.2 866.055 1019.75 864.209 1021.74 862.907C1023.72 861.605 1026.02 860.954 1028.62 860.954C1030.64 860.954 1032.23 861.29 1033.39 861.961C1034.58 862.619 1035.48 863.37 1036.09 864.216C1036.72 865.048 1037.21 865.733 1037.56 866.27H1037.97V851.048H1042.72V892.284H1038.13V887.532H1037.56C1037.21 888.096 1036.72 888.808 1036.07 889.667C1035.43 890.512 1034.51 891.271 1033.31 891.942C1032.12 892.6 1030.53 892.928 1028.54 892.928ZM1029.19 888.66C1031.09 888.66 1032.7 888.163 1034.02 887.17C1035.33 886.163 1036.33 884.774 1037.02 883.002C1037.7 881.217 1038.05 879.156 1038.05 876.821C1038.05 874.512 1037.71 872.492 1037.04 870.76C1036.37 869.015 1035.37 867.659 1034.06 866.693C1032.74 865.713 1031.12 865.223 1029.19 865.223C1027.17 865.223 1025.5 865.74 1024.15 866.773C1022.82 867.793 1021.82 869.183 1021.15 870.941C1020.49 872.686 1020.17 874.646 1020.17 876.821C1020.17 879.022 1020.5 881.022 1021.17 882.821C1021.86 884.606 1022.86 886.029 1024.19 887.089C1025.54 888.136 1027.2 888.66 1029.19 888.66ZM1064.64 892.928C1061.85 892.928 1059.4 892.264 1057.29 890.935C1055.2 889.606 1053.56 887.747 1052.38 885.358C1051.21 882.968 1050.63 880.176 1050.63 876.982C1050.63 873.76 1051.21 870.948 1052.38 868.545C1053.56 866.142 1055.2 864.276 1057.29 862.948C1059.4 861.619 1061.85 860.954 1064.64 860.954C1067.44 860.954 1069.88 861.619 1071.97 862.948C1074.08 864.276 1075.72 866.142 1076.89 868.545C1078.07 870.948 1078.66 873.76 1078.66 876.982C1078.66 880.176 1078.07 882.968 1076.89 885.358C1075.72 887.747 1074.08 889.606 1071.97 890.935C1069.88 892.264 1067.44 892.928 1064.64 892.928ZM1064.64 888.66C1066.77 888.66 1068.51 888.116 1069.88 887.029C1071.25 885.942 1072.26 884.512 1072.92 882.74C1073.58 880.968 1073.91 879.049 1073.91 876.982C1073.91 874.914 1073.58 872.988 1072.92 871.203C1072.26 869.418 1071.25 867.975 1069.88 866.874C1068.51 865.773 1066.77 865.223 1064.64 865.223C1062.52 865.223 1060.78 865.773 1059.41 866.874C1058.04 867.975 1057.03 869.418 1056.37 871.203C1055.71 872.988 1055.38 874.914 1055.38 876.982C1055.38 879.049 1055.71 880.968 1056.37 882.74C1057.03 884.512 1058.04 885.942 1059.41 887.029C1060.78 888.116 1062.52 888.66 1064.64 888.66ZM1091.87 892.284L1082.44 861.357H1087.44L1094.12 885.036H1094.44L1101.05 861.357H1106.12L1112.65 884.955H1112.97L1119.65 861.357H1124.65L1115.22 892.284H1110.55L1103.79 868.525H1103.3L1096.54 892.284H1091.87ZM1135.68 873.679V892.284H1130.93V861.357H1135.52V866.189H1135.92C1136.65 864.619 1137.75 863.357 1139.22 862.404C1140.7 861.437 1142.61 860.954 1144.94 860.954C1147.04 860.954 1148.87 861.384 1150.44 862.243C1152.01 863.089 1153.23 864.377 1154.1 866.109C1154.98 867.827 1155.41 870.002 1155.41 872.632V892.284H1150.66V872.955C1150.66 870.525 1150.03 868.632 1148.77 867.277C1147.51 865.907 1145.77 865.223 1143.57 865.223C1142.06 865.223 1140.7 865.552 1139.51 866.209C1138.32 866.867 1137.39 867.827 1136.71 869.089C1136.02 870.351 1135.68 871.881 1135.68 873.679ZM1193.01 892.928C1190.03 892.928 1187.46 892.271 1185.3 890.955C1183.15 889.626 1181.49 887.774 1180.32 885.398C1179.17 883.009 1178.59 880.23 1178.59 877.062C1178.59 873.894 1179.17 871.102 1180.32 868.686C1181.49 866.256 1183.12 864.364 1185.2 863.008C1187.29 861.639 1189.73 860.954 1192.53 860.954C1194.14 860.954 1195.73 861.223 1197.3 861.76C1198.87 862.297 1200.3 863.169 1201.59 864.377C1202.88 865.572 1203.9 867.156 1204.67 869.129C1205.43 871.102 1205.82 873.532 1205.82 876.418V878.431H1181.98V874.324H1200.98C1200.98 872.579 1200.63 871.022 1199.94 869.653C1199.25 868.283 1198.27 867.203 1197 866.411C1195.73 865.619 1194.24 865.223 1192.53 865.223C1190.63 865.223 1189 865.693 1187.61 866.632C1186.24 867.558 1185.19 868.767 1184.45 870.257C1183.71 871.747 1183.34 873.344 1183.34 875.049V877.787C1183.34 880.123 1183.75 882.103 1184.55 883.727C1185.37 885.338 1186.51 886.566 1187.96 887.412C1189.41 888.244 1191.09 888.66 1193.01 888.66C1194.26 888.66 1195.39 888.485 1196.39 888.136C1197.41 887.774 1198.29 887.237 1199.03 886.526C1199.77 885.801 1200.34 884.901 1200.74 883.828L1205.33 885.116C1204.85 886.673 1204.04 888.042 1202.9 889.224C1201.75 890.391 1200.35 891.304 1198.67 891.962C1196.99 892.606 1195.1 892.928 1193.01 892.928ZM1217.8 873.679V892.284H1213.04V861.357H1217.63V866.189H1218.04C1218.76 864.619 1219.86 863.357 1221.34 862.404C1222.82 861.437 1224.72 860.954 1227.06 860.954C1229.15 860.954 1230.98 861.384 1232.55 862.243C1234.13 863.089 1235.35 864.377 1236.22 866.109C1237.09 867.827 1237.53 870.002 1237.53 872.632V892.284H1232.78V872.955C1232.78 870.525 1232.15 868.632 1230.88 867.277C1229.62 865.907 1227.89 865.223 1225.69 865.223C1224.17 865.223 1222.82 865.552 1221.62 866.209C1220.44 866.867 1219.51 867.827 1218.82 869.089C1218.14 870.351 1217.8 871.881 1217.8 873.679ZM1258.78 892.928C1255.98 892.928 1253.53 892.264 1251.43 890.935C1249.33 889.606 1247.69 887.747 1246.51 885.358C1245.35 882.968 1244.76 880.176 1244.76 876.982C1244.76 873.76 1245.35 870.948 1246.51 868.545C1247.69 866.142 1249.33 864.276 1251.43 862.948C1253.53 861.619 1255.98 860.954 1258.78 860.954C1261.57 860.954 1264.01 861.619 1266.1 862.948C1268.21 864.276 1269.85 866.142 1271.02 868.545C1272.2 870.948 1272.79 873.76 1272.79 876.982C1272.79 880.176 1272.2 882.968 1271.02 885.358C1269.85 887.747 1268.21 889.606 1266.1 890.935C1264.01 892.264 1261.57 892.928 1258.78 892.928ZM1258.78 888.66C1260.9 888.66 1262.64 888.116 1264.01 887.029C1265.38 885.942 1266.39 884.512 1267.05 882.74C1267.71 880.968 1268.04 879.049 1268.04 876.982C1268.04 874.914 1267.71 872.988 1267.05 871.203C1266.39 869.418 1265.38 867.975 1264.01 866.874C1262.64 865.773 1260.9 865.223 1258.78 865.223C1256.65 865.223 1254.91 865.773 1253.54 866.874C1252.17 867.975 1251.16 869.418 1250.5 871.203C1249.84 872.988 1249.51 874.914 1249.51 876.982C1249.51 879.049 1249.84 880.968 1250.5 882.74C1251.16 884.512 1252.17 885.942 1253.54 887.029C1254.91 888.116 1256.65 888.66 1258.78 888.66ZM1299.53 879.639V861.357H1304.29V892.284H1299.53V887.049H1299.21C1298.49 888.62 1297.36 889.955 1295.83 891.056C1294.3 892.143 1292.37 892.687 1290.03 892.687C1288.1 892.687 1286.38 892.264 1284.88 891.418C1283.37 890.559 1282.19 889.271 1281.33 887.552C1280.47 885.821 1280.04 883.64 1280.04 881.009V861.357H1284.79V880.686C1284.79 882.942 1285.43 884.74 1286.69 886.083C1287.96 887.425 1289.59 888.096 1291.56 888.096C1292.74 888.096 1293.94 887.794 1295.16 887.19C1296.4 886.586 1297.43 885.66 1298.26 884.411C1299.11 883.163 1299.53 881.572 1299.53 879.639ZM1325.47 904.526C1323.18 904.526 1321.2 904.231 1319.55 903.64C1317.9 903.063 1316.53 902.298 1315.42 901.345C1314.34 900.405 1313.47 899.399 1312.83 898.325L1316.61 895.667C1317.04 896.231 1317.59 896.875 1318.24 897.6C1318.9 898.338 1319.8 898.976 1320.94 899.513C1322.1 900.063 1323.61 900.338 1325.47 900.338C1327.97 900.338 1330.03 899.734 1331.65 898.526C1333.28 897.318 1334.09 895.425 1334.09 892.848V886.566H1333.69C1333.34 887.13 1332.84 887.828 1332.2 888.66C1331.57 889.479 1330.65 890.21 1329.46 890.855C1328.28 891.485 1326.68 891.801 1324.67 891.801C1322.17 891.801 1319.93 891.21 1317.94 890.029C1315.97 888.848 1314.4 887.13 1313.25 884.875C1312.11 882.619 1311.54 879.881 1311.54 876.659C1311.54 873.492 1312.1 870.733 1313.21 868.384C1314.32 866.022 1315.87 864.196 1317.86 862.907C1319.85 861.605 1322.14 860.954 1324.75 860.954C1326.76 860.954 1328.36 861.29 1329.54 861.961C1330.73 862.619 1331.65 863.37 1332.28 864.216C1332.92 865.048 1333.42 865.733 1333.77 866.27H1334.25V861.357H1338.84V893.17C1338.84 895.828 1338.24 897.989 1337.03 899.654C1335.84 901.331 1334.22 902.56 1332.2 903.338C1330.18 904.13 1327.94 904.526 1325.47 904.526ZM1325.31 887.532C1327.22 887.532 1328.83 887.096 1330.14 886.224C1331.46 885.351 1332.46 884.096 1333.14 882.458C1333.83 880.821 1334.17 878.861 1334.17 876.579C1334.17 874.351 1333.83 872.384 1333.16 870.679C1332.49 868.975 1331.5 867.639 1330.18 866.673C1328.87 865.706 1327.24 865.223 1325.31 865.223C1323.3 865.223 1321.62 865.733 1320.28 866.753C1318.95 867.773 1317.95 869.142 1317.28 870.861C1316.62 872.579 1316.29 874.485 1316.29 876.579C1316.29 878.727 1316.63 880.626 1317.3 882.277C1317.98 883.915 1318.99 885.203 1320.32 886.143C1321.66 887.069 1323.32 887.532 1325.31 887.532ZM1352.29 873.679V892.284H1347.54V851.048H1352.29V866.189H1352.69C1353.42 864.592 1354.51 863.323 1355.96 862.384C1357.42 861.431 1359.37 860.954 1361.8 860.954C1363.9 860.954 1365.75 861.377 1367.33 862.223C1368.92 863.055 1370.14 864.337 1371.02 866.068C1371.9 867.787 1372.35 869.975 1372.35 872.632V892.284H1367.59V872.955C1367.59 870.498 1366.96 868.599 1365.68 867.256C1364.42 865.901 1362.67 865.223 1360.43 865.223C1358.87 865.223 1357.47 865.552 1356.24 866.209C1355.02 866.867 1354.05 867.827 1353.34 869.089C1352.64 870.351 1352.29 871.881 1352.29 873.679ZM1410.44 861.357V865.384H1394.41V861.357H1410.44ZM1399.08 853.947H1403.83V883.425C1403.83 884.767 1404.03 885.774 1404.42 886.445C1404.82 887.103 1405.33 887.546 1405.95 887.774C1406.58 887.989 1407.24 888.096 1407.94 888.096C1408.46 888.096 1408.89 888.069 1409.23 888.016C1409.56 887.948 1409.83 887.895 1410.03 887.854L1411 892.123C1410.68 892.244 1410.23 892.365 1409.65 892.486C1409.07 892.62 1408.34 892.687 1407.46 892.687C1406.11 892.687 1404.8 892.398 1403.51 891.821C1402.23 891.244 1401.17 890.365 1400.33 889.183C1399.5 888.002 1399.08 886.512 1399.08 884.713V853.947ZM1429.82 892.928C1427.02 892.928 1424.57 892.264 1422.47 890.935C1420.37 889.606 1418.74 887.747 1417.55 885.358C1416.39 882.968 1415.8 880.176 1415.8 876.982C1415.8 873.76 1416.39 870.948 1417.55 868.545C1418.74 866.142 1420.37 864.276 1422.47 862.948C1424.57 861.619 1427.02 860.954 1429.82 860.954C1432.61 860.954 1435.05 861.619 1437.15 862.948C1439.25 864.276 1440.89 866.142 1442.06 868.545C1443.24 870.948 1443.83 873.76 1443.83 876.982C1443.83 880.176 1443.24 882.968 1442.06 885.358C1440.89 887.747 1439.25 889.606 1437.15 890.935C1435.05 892.264 1432.61 892.928 1429.82 892.928ZM1429.82 888.66C1431.94 888.66 1433.68 888.116 1435.05 887.029C1436.42 885.942 1437.43 884.512 1438.09 882.74C1438.75 880.968 1439.08 879.049 1439.08 876.982C1439.08 874.914 1438.75 872.988 1438.09 871.203C1437.43 869.418 1436.42 867.975 1435.05 866.874C1433.68 865.773 1431.94 865.223 1429.82 865.223C1427.7 865.223 1425.95 865.773 1424.58 866.874C1423.21 867.975 1422.2 869.418 1421.54 871.203C1420.88 872.988 1420.55 874.914 1420.55 876.982C1420.55 879.049 1420.88 880.968 1421.54 882.74C1422.2 884.512 1423.21 885.942 1424.58 887.029C1425.95 888.116 1427.7 888.66 1429.82 888.66ZM1488.94 868.283L1484.67 869.491C1484.4 868.78 1484 868.089 1483.48 867.418C1482.97 866.733 1482.27 866.169 1481.39 865.726C1480.5 865.283 1479.37 865.062 1477.98 865.062C1476.09 865.062 1474.51 865.498 1473.25 866.371C1472 867.23 1471.38 868.324 1471.38 869.653C1471.38 870.834 1471.81 871.767 1472.67 872.451C1473.53 873.136 1474.87 873.706 1476.7 874.163L1481.29 875.29C1484.05 875.961 1486.11 876.988 1487.47 878.371C1488.82 879.74 1489.5 881.505 1489.5 883.666C1489.5 885.438 1488.99 887.022 1487.97 888.418C1486.96 889.814 1485.56 890.915 1483.74 891.72C1481.93 892.526 1479.82 892.928 1477.42 892.928C1474.27 892.928 1471.66 892.244 1469.59 890.875C1467.52 889.506 1466.21 887.505 1465.66 884.875L1470.17 883.747C1470.6 885.411 1471.41 886.66 1472.61 887.492C1473.82 888.324 1475.39 888.74 1477.34 888.74C1479.55 888.74 1481.31 888.271 1482.62 887.331C1483.93 886.378 1484.59 885.237 1484.59 883.908C1484.59 882.834 1484.21 881.935 1483.46 881.21C1482.71 880.472 1481.55 879.921 1480 879.559L1474.84 878.351C1472.01 877.68 1469.93 876.639 1468.6 875.23C1467.29 873.807 1466.63 872.028 1466.63 869.894C1466.63 868.149 1467.12 866.605 1468.1 865.263C1469.09 863.921 1470.44 862.867 1472.15 862.102C1473.86 861.337 1475.81 860.954 1477.98 860.954C1481.04 860.954 1483.45 861.625 1485.19 862.968C1486.95 864.31 1488.2 866.082 1488.94 868.283ZM1510.1 861.357V865.384H1494.08V861.357H1510.1ZM1498.75 853.947H1503.5V883.425C1503.5 884.767 1503.69 885.774 1504.08 886.445C1504.49 887.103 1505 887.546 1505.61 887.774C1506.25 887.989 1506.91 888.096 1507.61 888.096C1508.13 888.096 1508.56 888.069 1508.9 888.016C1509.23 887.948 1509.5 887.895 1509.7 887.854L1510.67 892.123C1510.35 892.244 1509.9 892.365 1509.32 892.486C1508.74 892.62 1508.01 892.687 1507.12 892.687C1505.78 892.687 1504.47 892.398 1503.18 891.821C1501.9 891.244 1500.84 890.365 1500 889.183C1499.16 888.002 1498.75 886.512 1498.75 884.713V853.947ZM1529.89 892.928C1526.91 892.928 1524.34 892.271 1522.18 890.955C1520.03 889.626 1518.37 887.774 1517.2 885.398C1516.05 883.009 1515.47 880.23 1515.47 877.062C1515.47 873.894 1516.05 871.102 1517.2 868.686C1518.37 866.256 1519.99 864.364 1522.07 863.008C1524.17 861.639 1526.61 860.954 1529.4 860.954C1531.01 860.954 1532.61 861.223 1534.18 861.76C1535.75 862.297 1537.18 863.169 1538.46 864.377C1539.75 865.572 1540.78 867.156 1541.55 869.129C1542.31 871.102 1542.69 873.532 1542.69 876.418V878.431H1518.85V874.324H1537.86C1537.86 872.579 1537.51 871.022 1536.81 869.653C1536.13 868.283 1535.15 867.203 1533.87 866.411C1532.61 865.619 1531.12 865.223 1529.4 865.223C1527.51 865.223 1525.87 865.693 1524.49 866.632C1523.12 867.558 1522.07 868.767 1521.33 870.257C1520.59 871.747 1520.22 873.344 1520.22 875.049V877.787C1520.22 880.123 1520.63 882.103 1521.43 883.727C1522.25 885.338 1523.38 886.566 1524.83 887.412C1526.28 888.244 1527.97 888.66 1529.89 888.66C1531.14 888.66 1532.26 888.485 1533.27 888.136C1534.29 887.774 1535.17 887.237 1535.91 886.526C1536.65 885.801 1537.22 884.901 1537.62 883.828L1542.21 885.116C1541.73 886.673 1540.91 888.042 1539.77 889.224C1538.63 890.391 1537.22 891.304 1535.55 891.962C1533.87 892.606 1531.98 892.928 1529.89 892.928ZM1549.92 903.882V861.357H1554.51V866.27H1555.08C1555.42 865.733 1555.91 865.048 1556.53 864.216C1557.16 863.37 1558.06 862.619 1559.22 861.961C1560.41 861.29 1562 860.954 1564.02 860.954C1566.62 860.954 1568.92 861.605 1570.9 862.907C1572.89 864.209 1574.44 866.055 1575.55 868.444C1576.67 870.834 1577.22 873.653 1577.22 876.901C1577.22 880.176 1576.67 883.015 1575.55 885.418C1574.44 887.808 1572.9 889.66 1570.92 890.975C1568.95 892.277 1566.67 892.928 1564.1 892.928C1562.11 892.928 1560.52 892.6 1559.32 891.942C1558.13 891.271 1557.21 890.512 1556.57 889.667C1555.92 888.808 1555.42 888.096 1555.08 887.532H1554.67V903.882H1549.92ZM1554.59 876.821C1554.59 879.156 1554.94 881.217 1555.62 883.002C1556.3 884.774 1557.3 886.163 1558.62 887.17C1559.94 888.163 1561.55 888.66 1563.45 888.66C1565.44 888.66 1567.1 888.136 1568.43 887.089C1569.77 886.029 1570.77 884.606 1571.45 882.821C1572.13 881.022 1572.47 879.022 1572.47 876.821C1572.47 874.646 1572.14 872.686 1571.47 870.941C1570.81 869.183 1569.81 867.793 1568.47 866.773C1567.14 865.74 1565.47 865.223 1563.45 865.223C1561.52 865.223 1559.89 865.713 1558.58 866.693C1557.26 867.659 1556.27 869.015 1555.6 870.76C1554.93 872.492 1554.59 874.512 1554.59 876.821ZM1612.98 892.928C1610.19 892.928 1607.74 892.264 1605.63 890.935C1603.54 889.606 1601.9 887.747 1600.72 885.358C1599.55 882.968 1598.97 880.176 1598.97 876.982C1598.97 873.76 1599.55 870.948 1600.72 868.545C1601.9 866.142 1603.54 864.276 1605.63 862.948C1607.74 861.619 1610.19 860.954 1612.98 860.954C1615.78 860.954 1618.22 861.619 1620.31 862.948C1622.42 864.276 1624.06 866.142 1625.23 868.545C1626.41 870.948 1627 873.76 1627 876.982C1627 880.176 1626.41 882.968 1625.23 885.358C1624.06 887.747 1622.42 889.606 1620.31 890.935C1618.22 892.264 1615.78 892.928 1612.98 892.928ZM1612.98 888.66C1615.1 888.66 1616.85 888.116 1618.22 887.029C1619.59 885.942 1620.6 884.512 1621.26 882.74C1621.92 880.968 1622.25 879.049 1622.25 876.982C1622.25 874.914 1621.92 872.988 1621.26 871.203C1620.6 869.418 1619.59 867.975 1618.22 866.874C1616.85 865.773 1615.1 865.223 1612.98 865.223C1610.86 865.223 1609.12 865.773 1607.75 866.874C1606.38 867.975 1605.37 869.418 1604.71 871.203C1604.05 872.988 1603.72 874.914 1603.72 876.982C1603.72 879.049 1604.05 880.968 1604.71 882.74C1605.37 884.512 1606.38 885.942 1607.75 887.029C1609.12 888.116 1610.86 888.66 1612.98 888.66ZM1639 873.679V892.284H1634.25V861.357H1638.84V866.189H1639.25C1639.97 864.619 1641.07 863.357 1642.55 862.404C1644.02 861.437 1645.93 860.954 1648.27 860.954C1650.36 860.954 1652.19 861.384 1653.76 862.243C1655.33 863.089 1656.55 864.377 1657.43 866.109C1658.3 867.827 1658.74 870.002 1658.74 872.632V892.284H1653.98V872.955C1653.98 870.525 1653.35 868.632 1652.09 867.277C1650.83 865.907 1649.1 865.223 1646.9 865.223C1645.38 865.223 1644.02 865.552 1642.83 866.209C1641.65 866.867 1640.71 867.827 1640.03 869.089C1639.35 870.351 1639 871.881 1639 873.679ZM1680.87 861.357V865.384H1664.84V861.357H1680.87ZM1669.51 853.947H1674.26V883.425C1674.26 884.767 1674.46 885.774 1674.85 886.445C1675.25 887.103 1675.76 887.546 1676.38 887.774C1677.01 887.989 1677.67 888.096 1678.37 888.096C1678.9 888.096 1679.33 888.069 1679.66 888.016C1680 887.948 1680.26 887.895 1680.47 887.854L1681.43 892.123C1681.11 892.244 1680.66 892.365 1680.08 892.486C1679.51 892.62 1678.77 892.687 1677.89 892.687C1676.55 892.687 1675.23 892.398 1673.94 891.821C1672.67 891.244 1671.61 890.365 1670.76 889.183C1669.93 888.002 1669.51 886.512 1669.51 884.713V853.947ZM1700.25 892.928C1697.46 892.928 1695.01 892.264 1692.9 890.935C1690.81 889.606 1689.17 887.747 1687.99 885.358C1686.82 882.968 1686.24 880.176 1686.24 876.982C1686.24 873.76 1686.82 870.948 1687.99 868.545C1689.17 866.142 1690.81 864.276 1692.9 862.948C1695.01 861.619 1697.46 860.954 1700.25 860.954C1703.04 860.954 1705.48 861.619 1707.58 862.948C1709.69 864.276 1711.32 866.142 1712.49 868.545C1713.67 870.948 1714.26 873.76 1714.26 876.982C1714.26 880.176 1713.67 882.968 1712.49 885.358C1711.32 887.747 1709.69 889.606 1707.58 890.935C1705.48 892.264 1703.04 892.928 1700.25 892.928ZM1700.25 888.66C1702.37 888.66 1704.11 888.116 1705.48 887.029C1706.85 885.942 1707.87 884.512 1708.52 882.74C1709.18 880.968 1709.51 879.049 1709.51 876.982C1709.51 874.914 1709.18 872.988 1708.52 871.203C1707.87 869.418 1706.85 867.975 1705.48 866.874C1704.11 865.773 1702.37 865.223 1700.25 865.223C1698.13 865.223 1696.38 865.773 1695.01 866.874C1693.64 867.975 1692.63 869.418 1691.97 871.203C1691.32 872.988 1690.99 874.914 1690.99 876.982C1690.99 879.049 1691.32 880.968 1691.97 882.74C1692.63 884.512 1693.64 885.942 1695.01 887.029C1696.38 888.116 1698.13 888.66 1700.25 888.66ZM1724.98 892.606C1723.99 892.606 1723.13 892.251 1722.42 891.539C1721.71 890.828 1721.36 889.975 1721.36 888.982C1721.36 887.989 1721.71 887.136 1722.42 886.425C1723.13 885.713 1723.99 885.358 1724.98 885.358C1725.97 885.358 1726.83 885.713 1727.54 886.425C1728.25 887.136 1728.6 887.989 1728.6 888.982C1728.6 889.64 1728.44 890.244 1728.1 890.794C1727.78 891.345 1727.34 891.788 1726.79 892.123C1726.25 892.445 1725.65 892.606 1724.98 892.606Z" fill="white"/>
<rect x="57" y="693" width="349" height="18" fill="#516488"/>
</svg>
