<svg width="2164" height="1117" viewBox="0 0 2164 1117" fill="none" xmlns="http://www.w3.org/2000/svg">
<rect width="2163.1" height="1116.99" rx="85.05" transform="matrix(-1 0 0 1 2163.11 0)" fill="#171717"/>
<path d="M678.955 360.635V96.722H837.199V125.072H710.913V214.246H825.344V242.596H710.913V360.635H678.955ZM918.222 96.722V360.635H887.81V96.722H918.222ZM1054.33 364.758C1036.47 364.758 1020.79 360.506 1007.3 352.001C993.897 343.496 983.416 331.597 975.856 316.306C968.382 301.014 964.645 283.145 964.645 262.698C964.645 242.08 968.382 224.082 975.856 208.705C983.416 193.327 993.897 181.385 1007.3 172.88C1020.79 164.375 1036.47 160.123 1054.33 160.123C1072.2 160.123 1087.84 164.375 1101.24 172.88C1114.73 181.385 1125.21 193.327 1132.68 208.705C1140.24 224.082 1144.02 242.08 1144.02 262.698C1144.02 283.145 1140.24 301.014 1132.68 316.306C1125.21 331.597 1114.73 343.496 1101.24 352.001C1087.84 360.506 1072.2 364.758 1054.33 364.758ZM1054.33 337.439C1067.91 337.439 1079.08 333.96 1087.84 327.001C1096.6 320.043 1103.09 310.893 1107.3 299.553C1111.51 288.213 1113.61 275.928 1113.61 262.698C1113.61 249.468 1111.51 237.14 1107.3 225.715C1103.09 214.289 1096.6 205.053 1087.84 198.009C1079.08 190.964 1067.91 187.442 1054.33 187.442C1040.76 187.442 1029.59 190.964 1020.83 198.009C1012.07 205.053 1005.58 214.289 1001.37 225.715C997.162 237.14 995.057 249.468 995.057 262.698C995.057 275.928 997.162 288.213 1001.37 299.553C1005.58 310.893 1012.07 320.043 1020.83 327.001C1029.59 333.96 1040.76 337.439 1054.33 337.439ZM1270.86 364.758C1252.99 364.758 1237.31 360.506 1223.82 352.001C1210.42 343.496 1199.94 331.597 1192.38 316.306C1184.91 301.014 1181.17 283.145 1181.17 262.698C1181.17 242.08 1184.91 224.082 1192.38 208.705C1199.94 193.327 1210.42 181.385 1223.82 172.88C1237.31 164.375 1252.99 160.123 1270.86 160.123C1288.73 160.123 1304.36 164.375 1317.76 172.88C1331.25 181.385 1341.73 193.327 1349.21 208.705C1356.77 224.082 1360.55 242.08 1360.55 262.698C1360.55 283.145 1356.77 301.014 1349.21 316.306C1341.73 331.597 1331.25 343.496 1317.76 352.001C1304.36 360.506 1288.73 364.758 1270.86 364.758ZM1270.86 337.439C1284.43 337.439 1295.6 333.96 1304.36 327.001C1313.12 320.043 1319.61 310.893 1323.82 299.553C1328.03 288.213 1330.13 275.928 1330.13 262.698C1330.13 249.468 1328.03 237.14 1323.82 225.715C1319.61 214.289 1313.12 205.053 1304.36 198.009C1295.6 190.964 1284.43 187.442 1270.86 187.442C1257.28 187.442 1246.12 190.964 1237.35 198.009C1228.59 205.053 1222.1 214.289 1217.89 225.715C1213.69 237.14 1211.58 249.468 1211.58 262.698C1211.58 275.928 1213.69 288.213 1217.89 299.553C1222.1 310.893 1228.59 320.043 1237.35 327.001C1246.12 333.96 1257.28 337.439 1270.86 337.439ZM1406.97 360.635V162.7H1436.35V192.597H1438.41C1442.02 182.803 1448.55 174.856 1458 168.757C1467.45 162.657 1478.1 159.607 1489.96 159.607C1492.19 159.607 1494.98 159.65 1498.33 159.736C1501.68 159.822 1504.22 159.951 1505.94 160.123V191.05C1504.91 190.792 1502.54 190.406 1498.85 189.89C1495.24 189.289 1491.42 188.988 1487.38 188.988C1477.76 188.988 1469.17 191.007 1461.61 195.045C1454.13 198.997 1448.21 204.495 1443.82 211.54C1439.53 218.498 1437.38 226.445 1437.38 235.379V360.635H1406.97ZM211.276 564.072V535.722H409.211V564.072H326.223V799.635H294.264V564.072H211.276ZM508.694 803.758C489.622 803.758 473.17 799.549 459.339 791.13C445.593 782.625 434.984 770.769 427.509 755.563C420.121 740.272 416.427 722.488 416.427 702.214C416.427 681.939 420.121 664.07 427.509 648.607C434.984 633.057 445.379 620.944 458.694 612.267C472.096 603.504 487.732 599.123 505.601 599.123C515.91 599.123 526.09 600.841 536.142 604.277C546.193 607.714 555.342 613.298 563.589 621.03C571.837 628.676 578.409 638.813 583.306 651.442C588.202 664.07 590.651 679.62 590.651 698.09V710.977H438.076V684.688H559.724C559.724 673.52 557.49 663.555 553.023 654.792C548.641 646.029 542.37 639.114 534.209 634.045C526.133 628.976 516.597 626.442 505.601 626.442C493.488 626.442 483.007 629.449 474.158 635.463C465.395 641.39 458.652 649.122 453.927 658.658C449.202 668.194 446.839 678.417 446.839 689.327V706.853C446.839 721.801 449.416 734.473 454.571 744.868C459.811 755.177 467.071 763.037 476.349 768.45C485.627 773.776 496.409 776.439 508.694 776.439C516.683 776.439 523.899 775.322 530.343 773.089C536.872 770.769 542.499 767.333 547.224 762.78C551.949 758.141 555.6 752.385 558.177 745.512L587.558 753.759C584.465 763.725 579.268 772.487 571.966 780.047C564.663 787.522 555.643 793.363 544.904 797.573C534.166 801.697 522.095 803.758 508.694 803.758ZM667.325 535.722V799.635H636.913V535.722H667.325ZM806.014 803.758C786.942 803.758 770.491 799.549 756.659 791.13C742.914 782.625 732.304 770.769 724.83 755.563C717.442 740.272 713.748 722.488 713.748 702.214C713.748 681.939 717.442 664.07 724.83 648.607C732.304 633.057 742.699 620.944 756.015 612.267C769.417 603.504 785.052 599.123 802.921 599.123C813.231 599.123 823.411 600.841 833.462 604.277C843.513 607.714 852.663 613.298 860.91 621.03C869.157 628.676 875.729 638.813 880.626 651.442C885.523 664.07 887.971 679.62 887.971 698.09V710.977H735.397V684.688H857.044C857.044 673.52 854.811 663.555 850.343 654.792C845.962 646.029 839.691 639.114 831.529 634.045C823.454 628.976 813.918 626.442 802.921 626.442C790.808 626.442 780.327 629.449 771.479 635.463C762.716 641.39 755.972 649.122 751.247 658.658C746.522 668.194 744.16 678.417 744.16 689.327V706.853C744.16 721.801 746.737 734.473 751.891 744.868C757.132 755.177 764.391 763.037 773.669 768.45C782.948 773.776 793.729 776.439 806.014 776.439C814.004 776.439 821.22 775.322 827.663 773.089C834.192 770.769 839.819 767.333 844.544 762.78C849.269 758.141 852.921 752.385 855.498 745.512L884.879 753.759C881.786 763.725 876.588 772.487 869.286 780.047C861.984 787.522 852.963 793.363 842.225 797.573C831.486 801.697 819.416 803.758 806.014 803.758ZM934.233 873.86V601.7H963.614V633.143H967.223C969.456 629.707 972.549 625.325 976.501 619.999C980.538 614.587 986.294 609.776 993.768 605.566C1001.33 601.271 1011.55 599.123 1024.44 599.123C1041.1 599.123 1055.79 603.29 1068.51 611.623C1081.22 619.956 1091.15 631.768 1098.28 647.06C1105.41 662.352 1108.97 680.393 1108.97 701.183C1108.97 722.145 1105.41 740.315 1098.28 755.692C1091.15 770.984 1081.27 782.84 1068.64 791.259C1056.01 799.592 1041.45 803.758 1024.95 803.758C1012.24 803.758 1002.06 801.654 994.413 797.444C986.767 793.149 980.882 788.295 976.758 782.882C972.635 777.384 969.456 772.831 967.223 769.223H964.645V873.86H934.233ZM964.13 700.667C964.13 715.616 966.321 728.803 970.702 740.229C975.083 751.569 981.483 760.46 989.903 766.903C998.322 773.261 1008.63 776.439 1020.83 776.439C1033.54 776.439 1044.15 773.089 1052.66 766.388C1061.25 759.601 1067.69 750.495 1071.99 739.069C1076.37 727.557 1078.56 714.757 1078.56 700.667C1078.56 686.75 1076.41 674.207 1072.12 663.039C1067.91 651.785 1061.51 642.894 1052.92 636.365C1044.41 629.75 1033.72 626.442 1020.83 626.442C1008.46 626.442 998.064 629.578 989.645 635.849C981.226 642.035 974.868 650.711 970.573 661.88C966.278 672.962 964.13 685.891 964.13 700.667ZM1235.77 803.758C1217.91 803.758 1202.23 799.506 1188.74 791.001C1175.34 782.496 1164.86 770.597 1157.3 755.306C1149.82 740.014 1146.09 722.145 1146.09 701.698C1146.09 681.08 1149.82 663.082 1157.3 647.705C1164.86 632.327 1175.34 620.385 1188.74 611.88C1202.23 603.375 1217.91 599.123 1235.77 599.123C1253.64 599.123 1269.28 603.375 1282.68 611.88C1296.17 620.385 1306.65 632.327 1314.12 647.705C1321.68 663.082 1325.46 681.08 1325.46 701.698C1325.46 722.145 1321.68 740.014 1314.12 755.306C1306.65 770.597 1296.17 782.496 1282.68 791.001C1269.28 799.506 1253.64 803.758 1235.77 803.758ZM1235.77 776.439C1249.35 776.439 1260.52 772.96 1269.28 766.001C1278.04 759.043 1284.53 749.893 1288.74 738.553C1292.95 727.213 1295.05 714.928 1295.05 701.698C1295.05 688.468 1292.95 676.14 1288.74 664.715C1284.53 653.289 1278.04 644.053 1269.28 637.009C1260.52 629.964 1249.35 626.442 1235.77 626.442C1222.2 626.442 1211.03 629.964 1202.27 637.009C1193.51 644.053 1187.02 653.289 1182.81 664.715C1178.6 676.14 1176.5 688.468 1176.5 701.698C1176.5 714.928 1178.6 727.213 1182.81 738.553C1187.02 749.893 1193.51 759.043 1202.27 766.001C1211.03 772.96 1222.2 776.439 1235.77 776.439ZM1371.89 799.635V601.7H1401.27V631.597H1403.33C1406.94 621.803 1413.47 613.856 1422.92 607.757C1432.37 601.657 1443.02 598.607 1454.87 598.607C1457.11 598.607 1459.9 598.65 1463.25 598.736C1466.6 598.822 1469.14 598.951 1470.85 599.123V630.05C1469.82 629.792 1467.46 629.406 1463.77 628.89C1460.16 628.289 1456.34 627.988 1452.3 627.988C1442.68 627.988 1434.08 630.007 1426.52 634.045C1419.05 637.997 1413.12 643.495 1408.74 650.54C1404.45 657.498 1402.3 665.445 1402.3 674.379V799.635H1371.89ZM1605.39 601.7V627.473H1502.81V601.7H1605.39ZM1532.71 554.278H1563.12V742.935C1563.12 751.526 1564.37 757.969 1566.86 762.264C1569.43 766.474 1572.7 769.309 1576.65 770.769C1580.69 772.144 1584.94 772.831 1589.41 772.831C1592.76 772.831 1595.51 772.659 1597.66 772.316C1599.8 771.886 1601.52 771.542 1602.81 771.285L1609 798.604C1606.93 799.377 1604.06 800.15 1600.36 800.923C1596.67 801.782 1591.99 802.212 1586.32 802.212C1577.72 802.212 1569.31 800.365 1561.06 796.671C1552.9 792.977 1546.11 787.35 1540.7 779.79C1535.37 772.23 1532.71 762.694 1532.71 751.182V554.278ZM1732 803.758C1712.92 803.758 1696.47 799.549 1682.64 791.13C1668.9 782.625 1658.29 770.769 1650.81 755.563C1643.42 740.272 1639.73 722.488 1639.73 702.214C1639.73 681.939 1643.42 664.07 1650.81 648.607C1658.29 633.057 1668.68 620.944 1682 612.267C1695.4 603.504 1711.03 599.123 1728.9 599.123C1739.21 599.123 1749.39 600.841 1759.44 604.277C1769.5 607.714 1778.64 613.298 1786.89 621.03C1795.14 628.676 1801.71 638.813 1806.61 651.442C1811.5 664.07 1813.95 679.62 1813.95 698.09V710.977H1661.38V684.688H1783.03C1783.03 673.52 1780.79 663.555 1776.33 654.792C1771.94 646.029 1765.67 639.114 1757.51 634.045C1749.44 628.976 1739.9 626.442 1728.9 626.442C1716.79 626.442 1706.31 629.449 1697.46 635.463C1688.7 641.39 1681.95 649.122 1677.23 658.658C1672.5 668.194 1670.14 678.417 1670.14 689.327V706.853C1670.14 721.801 1672.72 734.473 1677.87 744.868C1683.11 755.177 1690.37 763.037 1699.65 768.45C1708.93 773.776 1719.71 776.439 1732 776.439C1739.99 776.439 1747.2 775.322 1753.65 773.089C1760.17 770.769 1765.8 767.333 1770.53 762.78C1775.25 758.141 1778.9 752.385 1781.48 745.512L1810.86 753.759C1807.77 763.725 1802.57 772.487 1795.27 780.047C1787.97 787.522 1778.95 793.363 1768.21 797.573C1757.47 801.697 1745.4 803.758 1732 803.758ZM1860.22 799.635V601.7H1889.6V631.597H1891.66C1895.27 621.803 1901.8 613.856 1911.25 607.757C1920.7 601.657 1931.35 598.607 1943.2 598.607C1945.44 598.607 1948.23 598.65 1951.58 598.736C1954.93 598.822 1957.46 598.951 1959.18 599.123V630.05C1958.15 629.792 1955.79 629.406 1952.1 628.89C1948.49 628.289 1944.66 627.988 1940.63 627.988C1931 627.988 1922.41 630.007 1914.85 634.045C1907.38 637.997 1901.45 643.495 1897.07 650.54C1892.77 657.498 1890.63 665.445 1890.63 674.379V799.635H1860.22Z" fill="white"/>
<path d="M219.525 987.525C218.158 988.892 218.158 991.108 219.525 992.475L241.799 1014.75C243.166 1016.12 245.382 1016.12 246.749 1014.75C248.116 1013.38 248.116 1011.17 246.749 1009.8L226.95 990L246.749 970.201C248.116 968.834 248.116 966.618 246.749 965.251C245.382 963.884 243.166 963.884 241.799 965.251L219.525 987.525ZM1944.5 992.475C1945.87 991.108 1945.87 988.892 1944.5 987.525L1922.23 965.251C1920.86 963.884 1918.65 963.884 1917.28 965.251C1915.91 966.618 1915.91 968.834 1917.28 970.201L1937.08 990L1917.28 1009.8C1915.91 1011.17 1915.91 1013.38 1917.28 1014.75C1918.65 1016.12 1920.86 1016.12 1922.23 1014.75L1944.5 992.475ZM222 993.5H1942.03V986.5H222V993.5Z" fill="white"/>
<mask id="mask0_916_2215" style="mask-type:alpha" maskUnits="userSpaceOnUse" x="0" y="0" width="2164" height="1117">
<rect width="2163.1" height="1116.99" rx="85.05" transform="matrix(-1 0 0 1 2163.11 0)" fill="#171717"/>
</mask>
<g mask="url(#mask0_916_2215)">
<rect x="34" y="1099" width="349" height="18" fill="#D9D9D9"/>
<rect width="349" height="18" transform="matrix(-1 0 0 1 2129.11 1099)" fill="#D9D9D9"/>
</g>
</svg>
