<svg width="2164" height="1117" viewBox="0 0 2164 1117" fill="none" xmlns="http://www.w3.org/2000/svg">
<rect width="2163.1" height="1116.99" rx="85.05" transform="matrix(-1 0 0 1 2163.11 0)" fill="#171717"/>
<path d="M85.8224 131.427C81.5699 131.427 77.7792 130.697 74.4502 129.237C71.1427 127.776 68.5117 125.747 66.5573 123.148C64.6243 120.528 63.5719 117.489 63.4001 114.031H71.5185C71.6904 116.157 72.4206 117.993 73.7092 119.54C74.9979 121.065 76.6838 122.246 78.7671 123.084C80.8504 123.921 83.1592 124.34 85.6935 124.34C88.5285 124.34 91.0414 123.846 93.2321 122.858C95.4227 121.87 97.1409 120.496 98.3866 118.734C99.6323 116.973 100.255 114.933 100.255 112.613C100.255 110.186 99.6538 108.049 98.451 106.202C97.2483 104.334 95.4872 102.873 93.1676 101.821C90.8481 100.769 88.0131 100.242 84.6626 100.242H79.3792V93.1549H84.6626C87.2829 93.1549 89.5809 92.6824 91.5568 91.7374C93.5542 90.7924 95.1113 89.4608 96.2281 87.7427C97.3664 86.0245 97.9356 84.0056 97.9356 81.6861C97.9356 79.4524 97.4416 77.5087 96.4536 75.855C95.4657 74.2012 94.0697 72.9126 92.2656 71.9891C90.483 71.0656 88.3782 70.6038 85.9513 70.6038C83.6747 70.6038 81.5269 71.0226 79.5081 71.8602C77.5107 72.6764 75.8784 73.8683 74.6113 75.4362C73.3441 76.9826 72.6568 78.8511 72.5494 81.0418H64.8176C64.9465 77.5839 65.9881 74.5556 67.9426 71.9569C69.897 69.3366 72.4528 67.2963 75.61 65.8358C78.7886 64.3754 82.2786 63.6452 86.0801 63.6452C90.1608 63.6452 93.6616 64.472 96.5825 66.1258C99.5034 67.7581 101.748 69.9165 103.316 72.6012C104.883 75.2858 105.667 78.1853 105.667 81.2995C105.667 85.0151 104.69 88.1829 102.736 90.8032C100.803 93.4234 98.1718 95.2382 94.8429 96.2477V96.7631C99.0094 97.4504 102.263 99.2223 104.604 102.079C106.945 104.914 108.116 108.425 108.116 112.613C108.116 116.2 107.139 119.422 105.184 122.278C103.251 125.113 100.61 127.347 97.259 128.979C93.9086 130.611 90.0964 131.427 85.8224 131.427ZM124.924 131.041C123.335 131.041 121.971 130.472 120.833 129.333C119.695 128.195 119.126 126.831 119.126 125.242C119.126 123.653 119.695 122.289 120.833 121.151C121.971 120.012 123.335 119.443 124.924 119.443C126.514 119.443 127.878 120.012 129.016 121.151C130.154 122.289 130.723 123.653 130.723 125.242C130.723 126.294 130.455 127.261 129.918 128.141C129.402 129.022 128.704 129.731 127.824 130.268C126.965 130.783 125.998 131.041 124.924 131.041Z" fill="white"/>
<path d="M147.854 782.048V823.284H143.022L120.551 790.907H120.148V823.284H115.155V782.048H119.987L142.538 814.505H142.941V782.048H147.854ZM169.766 823.928C166.974 823.928 164.524 823.264 162.417 821.935C160.323 820.606 158.685 818.747 157.504 816.358C156.336 813.968 155.752 811.176 155.752 807.982C155.752 804.76 156.336 801.948 157.504 799.545C158.685 797.142 160.323 795.276 162.417 793.948C164.524 792.619 166.974 791.954 169.766 791.954C172.558 791.954 175.001 792.619 177.095 793.948C179.202 795.276 180.84 797.142 182.008 799.545C183.189 801.948 183.78 804.76 183.78 807.982C183.78 811.176 183.189 813.968 182.008 816.358C180.84 818.747 179.202 820.606 177.095 821.935C175.001 823.264 172.558 823.928 169.766 823.928ZM169.766 819.66C171.887 819.66 173.632 819.116 175.001 818.029C176.37 816.942 177.384 815.512 178.041 813.74C178.699 811.968 179.028 810.049 179.028 807.982C179.028 805.914 178.699 803.988 178.041 802.203C177.384 800.418 176.37 798.975 175.001 797.874C173.632 796.773 171.887 796.223 169.766 796.223C167.645 796.223 165.9 796.773 164.531 797.874C163.162 798.975 162.148 800.418 161.49 802.203C160.833 803.988 160.504 805.914 160.504 807.982C160.504 810.049 160.833 811.968 161.49 813.74C162.148 815.512 163.162 816.942 164.531 818.029C165.9 819.116 167.645 819.66 169.766 819.66ZM196.988 823.284L187.565 792.357H192.559L199.243 816.036H199.566L206.17 792.357H211.244L217.768 815.955H218.09L224.775 792.357H229.768L220.345 823.284H215.674L208.908 799.525H208.425L201.66 823.284H196.988ZM259.004 823.284L249.581 792.357H254.574L261.259 816.036H261.581L268.185 792.357H273.26L279.783 815.955H280.105L286.79 792.357H291.784L282.36 823.284H277.689L270.924 799.525H270.441L263.675 823.284H259.004ZM302.818 804.679V823.284H298.066V782.048H302.818V797.189H303.22C303.945 795.592 305.032 794.323 306.482 793.384C307.945 792.431 309.892 791.954 312.321 791.954C314.429 791.954 316.274 792.377 317.858 793.223C319.442 794.055 320.671 795.337 321.543 797.068C322.429 798.787 322.872 800.975 322.872 803.632V823.284H318.12V803.955C318.12 801.498 317.483 799.599 316.207 798.256C314.946 796.901 313.194 796.223 310.952 796.223C309.395 796.223 307.999 796.552 306.764 797.209C305.543 797.867 304.576 798.827 303.865 800.089C303.167 801.351 302.818 802.881 302.818 804.679ZM344.532 823.928C341.552 823.928 338.982 823.271 336.82 821.955C334.673 820.626 333.015 818.774 331.847 816.398C330.693 814.009 330.116 811.23 330.116 808.062C330.116 804.894 330.693 802.102 331.847 799.686C333.015 797.256 334.639 795.364 336.72 794.008C338.814 792.639 341.257 791.954 344.049 791.954C345.66 791.954 347.25 792.223 348.821 792.76C350.391 793.297 351.821 794.169 353.11 795.377C354.398 796.572 355.425 798.156 356.19 800.129C356.955 802.102 357.338 804.532 357.338 807.418V809.431H333.498V805.324H352.506C352.506 803.579 352.157 802.022 351.459 800.653C350.774 799.283 349.794 798.203 348.519 797.411C347.257 796.619 345.767 796.223 344.049 796.223C342.156 796.223 340.519 796.693 339.136 797.632C337.767 798.558 336.713 799.767 335.975 801.257C335.237 802.747 334.867 804.344 334.867 806.049V808.787C334.867 811.123 335.27 813.103 336.076 814.727C336.894 816.338 338.029 817.566 339.478 818.412C340.928 819.244 342.613 819.66 344.532 819.66C345.781 819.66 346.908 819.485 347.915 819.136C348.935 818.774 349.814 818.237 350.553 817.526C351.291 816.801 351.861 815.901 352.264 814.828L356.855 816.116C356.372 817.673 355.559 819.042 354.418 820.224C353.277 821.391 351.868 822.304 350.19 822.962C348.512 823.606 346.626 823.928 344.532 823.928ZM369.318 804.679V823.284H364.566V792.357H369.157V797.189H369.56C370.285 795.619 371.385 794.357 372.862 793.404C374.339 792.437 376.245 791.954 378.58 791.954C380.674 791.954 382.507 792.384 384.077 793.243C385.648 794.089 386.869 795.377 387.742 797.109C388.614 798.827 389.051 801.002 389.051 803.632V823.284H384.299V803.955C384.299 801.525 383.668 799.632 382.406 798.277C381.144 796.907 379.413 796.223 377.211 796.223C375.694 796.223 374.339 796.552 373.144 797.209C371.963 797.867 371.03 798.827 370.345 800.089C369.661 801.351 369.318 802.881 369.318 804.679ZM416.741 834.882C415.936 834.882 415.218 834.815 414.587 834.681C413.956 834.56 413.52 834.439 413.278 834.318L414.486 830.13C415.64 830.425 416.661 830.533 417.547 830.452C418.432 830.372 419.218 829.976 419.902 829.264C420.6 828.566 421.238 827.432 421.815 825.861L422.701 823.445L411.264 792.357H416.419L424.956 817.002H425.278L433.816 792.357H438.97L425.842 827.794C425.251 829.392 424.52 830.714 423.647 831.761C422.775 832.821 421.761 833.607 420.607 834.117C419.466 834.627 418.177 834.882 416.741 834.882ZM456.699 823.928C453.907 823.928 451.457 823.264 449.35 821.935C447.256 820.606 445.618 818.747 444.437 816.358C443.269 813.968 442.685 811.176 442.685 807.982C442.685 804.76 443.269 801.948 444.437 799.545C445.618 797.142 447.256 795.276 449.35 793.948C451.457 792.619 453.907 791.954 456.699 791.954C459.491 791.954 461.934 792.619 464.028 793.948C466.135 795.276 467.773 797.142 468.941 799.545C470.122 801.948 470.713 804.76 470.713 807.982C470.713 811.176 470.122 813.968 468.941 816.358C467.773 818.747 466.135 820.606 464.028 821.935C461.934 823.264 459.491 823.928 456.699 823.928ZM456.699 819.66C458.82 819.66 460.565 819.116 461.934 818.029C463.303 816.942 464.317 815.512 464.974 813.74C465.632 811.968 465.961 810.049 465.961 807.982C465.961 805.914 465.632 803.988 464.974 802.203C464.317 800.418 463.303 798.975 461.934 797.874C460.565 796.773 458.82 796.223 456.699 796.223C454.578 796.223 452.833 796.773 451.464 797.874C450.095 798.975 449.081 800.418 448.423 802.203C447.766 803.988 447.437 805.914 447.437 807.982C447.437 810.049 447.766 811.968 448.423 813.74C449.081 815.512 450.095 816.942 451.464 818.029C452.833 819.116 454.578 819.66 456.699 819.66ZM497.457 810.639V792.357H502.209V823.284H497.457V818.049H497.135C496.41 819.62 495.282 820.955 493.752 822.056C492.222 823.143 490.289 823.687 487.953 823.687C486.02 823.687 484.302 823.264 482.799 822.418C481.295 821.559 480.114 820.271 479.255 818.552C478.396 816.821 477.966 814.64 477.966 812.009V792.357H482.718V811.686C482.718 813.942 483.349 815.74 484.611 817.083C485.886 818.425 487.51 819.096 489.484 819.096C490.665 819.096 491.866 818.794 493.088 818.19C494.323 817.586 495.356 816.66 496.189 815.411C497.034 814.163 497.457 812.572 497.457 810.639ZM548.766 799.283L544.497 800.491C544.229 799.78 543.833 799.089 543.309 798.418C542.799 797.733 542.101 797.169 541.215 796.726C540.329 796.283 539.195 796.062 537.813 796.062C535.92 796.062 534.343 796.498 533.081 797.371C531.832 798.23 531.208 799.324 531.208 800.653C531.208 801.834 531.638 802.767 532.497 803.451C533.356 804.136 534.698 804.706 536.524 805.163L541.115 806.29C543.88 806.961 545.94 807.988 547.296 809.371C548.652 810.74 549.33 812.505 549.33 814.666C549.33 816.438 548.82 818.022 547.799 819.418C546.793 820.814 545.383 821.915 543.571 822.72C541.759 823.526 539.651 823.928 537.249 823.928C534.094 823.928 531.483 823.244 529.416 821.875C527.349 820.506 526.04 818.505 525.49 815.875L530 814.747C530.43 816.411 531.242 817.66 532.436 818.492C533.645 819.324 535.222 819.74 537.168 819.74C539.383 819.74 541.141 819.271 542.444 818.331C543.759 817.378 544.417 816.237 544.417 814.908C544.417 813.834 544.041 812.935 543.289 812.21C542.538 811.472 541.383 810.921 539.826 810.559L534.671 809.351C531.839 808.68 529.759 807.639 528.43 806.23C527.114 804.807 526.456 803.028 526.456 800.894C526.456 799.149 526.946 797.605 527.926 796.263C528.92 794.921 530.269 793.867 531.973 793.102C533.692 792.337 535.638 791.954 537.813 791.954C540.873 791.954 543.276 792.625 545.021 793.968C546.779 795.31 548.028 797.082 548.766 799.283ZM569.933 792.357V796.384H553.905V792.357H569.933ZM558.577 784.947H563.329V814.425C563.329 815.767 563.523 816.774 563.912 817.445C564.315 818.103 564.825 818.546 565.443 818.774C566.074 818.989 566.738 819.096 567.436 819.096C567.96 819.096 568.389 819.069 568.725 819.016C569.06 818.948 569.329 818.895 569.53 818.854L570.497 823.123C570.174 823.244 569.725 823.365 569.148 823.486C568.57 823.62 567.839 823.687 566.953 823.687C565.61 823.687 564.295 823.398 563.006 822.821C561.731 822.244 560.671 821.365 559.825 820.183C558.993 819.002 558.577 817.512 558.577 815.713V784.947ZM589.715 823.928C586.735 823.928 584.165 823.271 582.004 821.955C579.856 820.626 578.198 818.774 577.03 816.398C575.876 814.009 575.299 811.23 575.299 808.062C575.299 804.894 575.876 802.102 577.03 799.686C578.198 797.256 579.822 795.364 581.903 794.008C583.997 792.639 586.44 791.954 589.232 791.954C590.843 791.954 592.434 792.223 594.004 792.76C595.575 793.297 597.004 794.169 598.293 795.377C599.581 796.572 600.608 798.156 601.374 800.129C602.139 802.102 602.521 804.532 602.521 807.418V809.431H578.681V805.324H597.689C597.689 803.579 597.34 802.022 596.642 800.653C595.957 799.283 594.977 798.203 593.702 797.411C592.44 796.619 590.95 796.223 589.232 796.223C587.339 796.223 585.702 796.693 584.319 797.632C582.95 798.558 581.896 799.767 581.158 801.257C580.42 802.747 580.051 804.344 580.051 806.049V808.787C580.051 811.123 580.453 813.103 581.259 814.727C582.078 816.338 583.212 817.566 584.662 818.412C586.111 819.244 587.796 819.66 589.715 819.66C590.964 819.66 592.091 819.485 593.098 819.136C594.118 818.774 594.997 818.237 595.736 817.526C596.474 816.801 597.044 815.901 597.447 814.828L602.038 816.116C601.555 817.673 600.743 819.042 599.602 820.224C598.461 821.391 597.051 822.304 595.373 822.962C593.695 823.606 591.809 823.928 589.715 823.928ZM609.75 834.882V792.357H614.34V797.27H614.904C615.253 796.733 615.736 796.048 616.354 795.216C616.985 794.37 617.884 793.619 619.052 792.961C620.233 792.29 621.831 791.954 623.844 791.954C626.448 791.954 628.744 792.605 630.73 793.907C632.717 795.209 634.267 797.055 635.381 799.444C636.496 801.834 637.053 804.653 637.053 807.901C637.053 811.176 636.496 814.015 635.381 816.418C634.267 818.808 632.724 820.66 630.75 821.975C628.777 823.277 626.502 823.928 623.925 823.928C621.938 823.928 620.347 823.6 619.153 822.942C617.958 822.271 617.038 821.512 616.394 820.667C615.75 819.808 615.253 819.096 614.904 818.532H614.501V834.882H609.75ZM614.421 807.821C614.421 810.156 614.763 812.217 615.448 814.002C616.132 815.774 617.132 817.163 618.448 818.17C619.763 819.163 621.374 819.66 623.28 819.66C625.267 819.66 626.925 819.136 628.254 818.089C629.596 817.029 630.603 815.606 631.274 813.821C631.958 812.022 632.301 810.022 632.301 807.821C632.301 805.646 631.965 803.686 631.294 801.941C630.636 800.183 629.636 798.793 628.294 797.773C626.965 796.74 625.294 796.223 623.28 796.223C621.347 796.223 619.723 796.713 618.408 797.693C617.092 798.659 616.099 800.015 615.428 801.76C614.757 803.492 614.421 805.512 614.421 807.821ZM667.255 823.284L657.832 792.357H662.825L669.51 816.036H669.832L676.437 792.357H681.511L688.034 815.955H688.356L695.041 792.357H700.035L690.612 823.284H685.94L679.175 799.525H678.692L671.926 823.284H667.255ZM711.069 804.679V823.284H706.317V782.048H711.069V797.189H711.471C712.196 795.592 713.283 794.323 714.733 793.384C716.196 792.431 718.143 791.954 720.572 791.954C722.68 791.954 724.525 792.377 726.109 793.223C727.693 794.055 728.922 795.337 729.794 797.068C730.68 798.787 731.123 800.975 731.123 803.632V823.284H726.371V803.955C726.371 801.498 725.734 799.599 724.458 798.256C723.197 796.901 721.445 796.223 719.203 796.223C717.646 796.223 716.25 796.552 715.015 797.209C713.794 797.867 712.827 798.827 712.116 800.089C711.418 801.351 711.069 802.881 711.069 804.679ZM752.783 823.928C749.803 823.928 747.233 823.271 745.072 821.955C742.924 820.626 741.266 818.774 740.098 816.398C738.944 814.009 738.367 811.23 738.367 808.062C738.367 804.894 738.944 802.102 740.098 799.686C741.266 797.256 742.89 795.364 744.971 794.008C747.065 792.639 749.508 791.954 752.3 791.954C753.911 791.954 755.501 792.223 757.072 792.76C758.642 793.297 760.072 794.169 761.361 795.377C762.649 796.572 763.676 798.156 764.441 800.129C765.206 802.102 765.589 804.532 765.589 807.418V809.431H741.749V805.324H760.757C760.757 803.579 760.408 802.022 759.71 800.653C759.025 799.283 758.045 798.203 756.77 797.411C755.508 796.619 754.018 796.223 752.3 796.223C750.407 796.223 748.77 796.693 747.387 797.632C746.018 798.558 744.964 799.767 744.226 801.257C743.488 802.747 743.118 804.344 743.118 806.049V808.787C743.118 811.123 743.521 813.103 744.327 814.727C745.145 816.338 746.28 817.566 747.729 818.412C749.179 819.244 750.864 819.66 752.783 819.66C754.032 819.66 755.159 819.485 756.166 819.136C757.186 818.774 758.065 818.237 758.804 817.526C759.542 816.801 760.112 815.901 760.515 814.828L765.106 816.116C764.623 817.673 763.81 819.042 762.669 820.224C761.528 821.391 760.119 822.304 758.441 822.962C756.763 823.606 754.877 823.928 752.783 823.928ZM772.817 823.284V792.357H777.408V797.028H777.73C778.294 795.498 779.314 794.256 780.791 793.303C782.267 792.35 783.932 791.874 785.784 791.874C786.133 791.874 786.57 791.88 787.093 791.894C787.617 791.907 788.013 791.927 788.281 791.954V796.787C788.12 796.746 787.751 796.686 787.174 796.605C786.61 796.511 786.013 796.464 785.382 796.464C783.878 796.464 782.536 796.78 781.355 797.411C780.187 798.028 779.261 798.887 778.576 799.988C777.905 801.075 777.569 802.317 777.569 803.713V823.284H772.817ZM805.939 823.928C802.959 823.928 800.389 823.271 798.228 821.955C796.08 820.626 794.422 818.774 793.254 816.398C792.1 814.009 791.523 811.23 791.523 808.062C791.523 804.894 792.1 802.102 793.254 799.686C794.422 797.256 796.046 795.364 798.127 794.008C800.221 792.639 802.664 791.954 805.456 791.954C807.067 791.954 808.658 792.223 810.228 792.76C811.799 793.297 813.228 794.169 814.517 795.377C815.806 796.572 816.832 798.156 817.598 800.129C818.363 802.102 818.745 804.532 818.745 807.418V809.431H794.906V805.324H813.913C813.913 803.579 813.564 802.022 812.866 800.653C812.181 799.283 811.201 798.203 809.926 797.411C808.664 796.619 807.174 796.223 805.456 796.223C803.564 796.223 801.926 796.693 800.543 797.632C799.174 798.558 798.12 799.767 797.382 801.257C796.644 802.747 796.275 804.344 796.275 806.049V808.787C796.275 811.123 796.677 813.103 797.483 814.727C798.302 816.338 799.436 817.566 800.886 818.412C802.335 819.244 804.02 819.66 805.939 819.66C807.188 819.66 808.315 819.485 809.322 819.136C810.342 818.774 811.222 818.237 811.96 817.526C812.698 816.801 813.269 815.901 813.671 814.828L818.262 816.116C817.779 817.673 816.967 819.042 815.826 820.224C814.685 821.391 813.275 822.304 811.597 822.962C809.919 823.606 808.033 823.928 805.939 823.928ZM841.921 823.284V792.357H846.672V823.284H841.921ZM844.337 787.202C843.411 787.202 842.612 786.887 841.941 786.256C841.283 785.625 840.954 784.867 840.954 783.981C840.954 783.095 841.283 782.336 841.941 781.706C842.612 781.075 843.411 780.759 844.337 780.759C845.263 780.759 846.055 781.075 846.713 781.706C847.384 782.336 847.719 783.095 847.719 783.981C847.719 784.867 847.384 785.625 846.713 786.256C846.055 786.887 845.263 787.202 844.337 787.202ZM868.826 792.357V796.384H852.799V792.357H868.826ZM857.47 784.947H862.222V814.425C862.222 815.767 862.416 816.774 862.806 817.445C863.208 818.103 863.718 818.546 864.336 818.774C864.967 818.989 865.631 819.096 866.329 819.096C866.853 819.096 867.282 819.069 867.618 819.016C867.953 818.948 868.222 818.895 868.423 818.854L869.39 823.123C869.068 823.244 868.618 823.365 868.041 823.486C867.463 823.62 866.732 823.687 865.846 823.687C864.504 823.687 863.188 823.398 861.9 822.821C860.624 822.244 859.564 821.365 858.718 820.183C857.886 819.002 857.47 817.512 857.47 815.713V784.947ZM913.828 799.283L909.559 800.491C909.29 799.78 908.894 799.089 908.371 798.418C907.861 797.733 907.163 797.169 906.277 796.726C905.391 796.283 904.257 796.062 902.874 796.062C900.981 796.062 899.404 796.498 898.142 797.371C896.894 798.23 896.27 799.324 896.27 800.653C896.27 801.834 896.699 802.767 897.559 803.451C898.418 804.136 899.76 804.706 901.586 805.163L906.176 806.29C908.941 806.961 911.002 807.988 912.358 809.371C913.713 810.74 914.391 812.505 914.391 814.666C914.391 816.438 913.881 818.022 912.861 819.418C911.854 820.814 910.445 821.915 908.633 822.72C906.821 823.526 904.713 823.928 902.31 823.928C899.156 823.928 896.545 823.244 894.478 821.875C892.411 820.506 891.102 818.505 890.552 815.875L895.062 814.747C895.491 816.411 896.303 817.66 897.498 818.492C898.706 819.324 900.283 819.74 902.23 819.74C904.445 819.74 906.203 819.271 907.505 818.331C908.821 817.378 909.478 816.237 909.478 814.908C909.478 813.834 909.103 812.935 908.351 812.21C907.599 811.472 906.445 810.921 904.888 810.559L899.733 809.351C896.901 808.68 894.82 807.639 893.491 806.23C892.176 804.807 891.518 803.028 891.518 800.894C891.518 799.149 892.008 797.605 892.988 796.263C893.981 794.921 895.33 793.867 897.035 793.102C898.753 792.337 900.7 791.954 902.874 791.954C905.935 791.954 908.337 792.625 910.082 793.968C911.841 795.31 913.089 797.082 913.828 799.283ZM934.994 792.357V796.384H918.967V792.357H934.994ZM923.638 784.947H928.39V814.425C928.39 815.767 928.585 816.774 928.974 817.445C929.377 818.103 929.887 818.546 930.504 818.774C931.135 818.989 931.8 819.096 932.498 819.096C933.021 819.096 933.451 819.069 933.786 819.016C934.122 818.948 934.39 818.895 934.592 818.854L935.558 823.123C935.236 823.244 934.786 823.365 934.209 823.486C933.632 823.62 932.9 823.687 932.014 823.687C930.672 823.687 929.357 823.398 928.068 822.821C926.793 822.244 925.732 821.365 924.887 820.183C924.054 819.002 923.638 817.512 923.638 815.713V784.947ZM951.243 824.009C949.283 824.009 947.505 823.64 945.908 822.902C944.31 822.15 943.042 821.069 942.102 819.66C941.162 818.237 940.693 816.519 940.693 814.505C940.693 812.733 941.042 811.297 941.74 810.196C942.438 809.082 943.371 808.21 944.538 807.579C945.706 806.948 946.995 806.478 948.404 806.169C949.827 805.847 951.257 805.592 952.693 805.404C954.572 805.163 956.096 804.982 957.264 804.861C958.445 804.726 959.304 804.505 959.841 804.196C960.391 803.888 960.666 803.351 960.666 802.585V802.424C960.666 800.438 960.123 798.894 959.036 797.793C957.962 796.693 956.331 796.142 954.143 796.142C951.874 796.142 950.096 796.639 948.807 797.632C947.518 798.626 946.612 799.686 946.089 800.814L941.579 799.203C942.384 797.324 943.458 795.86 944.8 794.813C946.156 793.753 947.632 793.015 949.23 792.599C950.841 792.169 952.425 791.954 953.982 791.954C954.975 791.954 956.116 792.075 957.405 792.317C958.707 792.545 959.962 793.021 961.17 793.746C962.391 794.471 963.405 795.565 964.21 797.028C965.016 798.491 965.418 800.451 965.418 802.908V823.284H960.666V819.096H960.425C960.103 819.767 959.566 820.485 958.814 821.251C958.062 822.016 957.062 822.667 955.814 823.204C954.566 823.741 953.042 824.009 951.243 824.009ZM951.968 819.74C953.847 819.74 955.431 819.371 956.72 818.633C958.022 817.895 959.002 816.942 959.66 815.774C960.331 814.606 960.666 813.378 960.666 812.089V807.74C960.465 807.982 960.022 808.203 959.338 808.404C958.666 808.592 957.888 808.76 957.002 808.908C956.129 809.042 955.277 809.163 954.445 809.27C953.626 809.364 952.961 809.445 952.451 809.512C951.216 809.673 950.062 809.935 948.988 810.297C947.928 810.646 947.069 811.176 946.411 811.888C945.767 812.586 945.444 813.539 945.444 814.747C945.444 816.398 946.055 817.646 947.277 818.492C948.512 819.324 950.075 819.74 951.968 819.74ZM974.091 823.284V792.357H978.682V797.028H979.004C979.568 795.498 980.588 794.256 982.065 793.303C983.541 792.35 985.206 791.874 987.058 791.874C987.407 791.874 987.844 791.88 988.367 791.894C988.891 791.907 989.287 791.927 989.555 791.954V796.787C989.394 796.746 989.025 796.686 988.448 796.605C987.884 796.511 987.286 796.464 986.656 796.464C985.152 796.464 983.81 796.78 982.629 797.411C981.461 798.028 980.535 798.887 979.85 799.988C979.179 801.075 978.843 802.317 978.843 803.713V823.284H974.091ZM1010.58 792.357V796.384H994.548V792.357H1010.58ZM999.22 784.947H1003.97V814.425C1003.97 815.767 1004.17 816.774 1004.56 817.445C1004.96 818.103 1005.47 818.546 1006.09 818.774C1006.72 818.989 1007.38 819.096 1008.08 819.096C1008.6 819.096 1009.03 819.069 1009.37 819.016C1009.7 818.948 1009.97 818.895 1010.17 818.854L1011.14 823.123C1010.82 823.244 1010.37 823.365 1009.79 823.486C1009.21 823.62 1008.48 823.687 1007.6 823.687C1006.25 823.687 1004.94 823.398 1003.65 822.821C1002.37 822.244 1001.31 821.365 1000.47 820.183C999.636 819.002 999.22 817.512 999.22 815.713V784.947ZM1039.08 799.283L1034.81 800.491C1034.54 799.78 1034.14 799.089 1033.62 798.418C1033.11 797.733 1032.41 797.169 1031.53 796.726C1030.64 796.283 1029.51 796.062 1028.12 796.062C1026.23 796.062 1024.65 796.498 1023.39 797.371C1022.14 798.23 1021.52 799.324 1021.52 800.653C1021.52 801.834 1021.95 802.767 1022.81 803.451C1023.67 804.136 1025.01 804.706 1026.83 805.163L1031.43 806.29C1034.19 806.961 1036.25 807.988 1037.61 809.371C1038.96 810.74 1039.64 812.505 1039.64 814.666C1039.64 816.438 1039.13 818.022 1038.11 819.418C1037.1 820.814 1035.69 821.915 1033.88 822.72C1032.07 823.526 1029.96 823.928 1027.56 823.928C1024.41 823.928 1021.79 823.244 1019.73 821.875C1017.66 820.506 1016.35 818.505 1015.8 815.875L1020.31 814.747C1020.74 816.411 1021.55 817.66 1022.75 818.492C1023.96 819.324 1025.53 819.74 1027.48 819.74C1029.69 819.74 1031.45 819.271 1032.75 818.331C1034.07 817.378 1034.73 816.237 1034.73 814.908C1034.73 813.834 1034.35 812.935 1033.6 812.21C1032.85 811.472 1031.69 810.921 1030.14 810.559L1024.98 809.351C1022.15 808.68 1020.07 807.639 1018.74 806.23C1017.43 804.807 1016.77 803.028 1016.77 800.894C1016.77 799.149 1017.26 797.605 1018.24 796.263C1019.23 794.921 1020.58 793.867 1022.28 793.102C1024 792.337 1025.95 791.954 1028.12 791.954C1031.18 791.954 1033.59 792.625 1035.33 793.968C1037.09 795.31 1038.34 797.082 1039.08 799.283ZM1053.88 817.646L1053.56 819.821C1053.33 821.351 1052.98 822.989 1052.51 824.734C1052.06 826.479 1051.58 828.123 1051.08 829.667C1050.59 831.211 1050.18 832.439 1049.85 833.352H1046.23C1046.4 832.493 1046.63 831.358 1046.91 829.949C1047.2 828.539 1047.48 826.962 1047.76 825.217C1048.06 823.486 1048.3 821.714 1048.49 819.902L1048.73 817.646H1053.88ZM1078.63 823.284V792.357H1083.38V823.284H1078.63ZM1081.05 787.202C1080.12 787.202 1079.32 786.887 1078.65 786.256C1077.99 785.625 1077.67 784.867 1077.67 783.981C1077.67 783.095 1077.99 782.336 1078.65 781.706C1079.32 781.075 1080.12 780.759 1081.05 780.759C1081.97 780.759 1082.77 781.075 1083.42 781.706C1084.1 782.336 1084.43 783.095 1084.43 783.981C1084.43 784.867 1084.1 785.625 1083.42 786.256C1082.77 786.887 1081.97 787.202 1081.05 787.202ZM1105.54 792.357V796.384H1089.51V792.357H1105.54ZM1094.18 784.947H1098.93V814.425C1098.93 815.767 1099.13 816.774 1099.52 817.445C1099.92 818.103 1100.43 818.546 1101.05 818.774C1101.68 818.989 1102.34 819.096 1103.04 819.096C1103.56 819.096 1103.99 819.069 1104.33 819.016C1104.66 818.948 1104.93 818.895 1105.13 818.854L1106.1 823.123C1105.78 823.244 1105.33 823.365 1104.75 823.486C1104.17 823.62 1103.44 823.687 1102.56 823.687C1101.22 823.687 1099.9 823.398 1098.61 822.821C1097.34 822.244 1096.28 821.365 1095.43 820.183C1094.6 819.002 1094.18 817.512 1094.18 815.713V784.947ZM1150.54 799.283L1146.27 800.491C1146 799.78 1145.61 799.089 1145.08 798.418C1144.57 797.733 1143.87 797.169 1142.99 796.726C1142.1 796.283 1140.97 796.062 1139.59 796.062C1137.69 796.062 1136.12 796.498 1134.85 797.371C1133.61 798.23 1132.98 799.324 1132.98 800.653C1132.98 801.834 1133.41 802.767 1134.27 803.451C1135.13 804.136 1136.47 804.706 1138.3 805.163L1142.89 806.29C1145.65 806.961 1147.71 807.988 1149.07 809.371C1150.42 810.74 1151.1 812.505 1151.1 814.666C1151.1 816.438 1150.59 818.022 1149.57 819.418C1148.57 820.814 1147.16 821.915 1145.34 822.72C1143.53 823.526 1141.42 823.928 1139.02 823.928C1135.87 823.928 1133.26 823.244 1131.19 821.875C1129.12 820.506 1127.81 818.505 1127.26 815.875L1131.77 814.747C1132.2 816.411 1133.01 817.66 1134.21 818.492C1135.42 819.324 1136.99 819.74 1138.94 819.74C1141.16 819.74 1142.91 819.271 1144.22 818.331C1145.53 817.378 1146.19 816.237 1146.19 814.908C1146.19 813.834 1145.81 812.935 1145.06 812.21C1144.31 811.472 1143.16 810.921 1141.6 810.559L1136.44 809.351C1133.61 808.68 1131.53 807.639 1130.2 806.23C1128.89 804.807 1128.23 803.028 1128.23 800.894C1128.23 799.149 1128.72 797.605 1129.7 796.263C1130.69 794.921 1132.04 793.867 1133.75 793.102C1135.46 792.337 1137.41 791.954 1139.59 791.954C1142.65 791.954 1145.05 792.625 1146.79 793.968C1148.55 795.31 1149.8 797.082 1150.54 799.283ZM1163.01 804.679V823.284H1158.26V782.048H1163.01V797.189H1163.41C1164.14 795.592 1165.22 794.323 1166.67 793.384C1168.14 792.431 1170.08 791.954 1172.51 791.954C1174.62 791.954 1176.46 792.377 1178.05 793.223C1179.63 794.055 1180.86 795.337 1181.73 797.068C1182.62 798.787 1183.06 800.975 1183.06 803.632V823.284H1178.31V803.955C1178.31 801.498 1177.67 799.599 1176.4 798.256C1175.14 796.901 1173.38 796.223 1171.14 796.223C1169.58 796.223 1168.19 796.552 1166.95 797.209C1165.73 797.867 1164.77 798.827 1164.05 800.089C1163.36 801.351 1163.01 802.881 1163.01 804.679ZM1204.32 823.928C1201.53 823.928 1199.08 823.264 1196.97 821.935C1194.88 820.606 1193.24 818.747 1192.06 816.358C1190.89 813.968 1190.31 811.176 1190.31 807.982C1190.31 804.76 1190.89 801.948 1192.06 799.545C1193.24 797.142 1194.88 795.276 1196.97 793.948C1199.08 792.619 1201.53 791.954 1204.32 791.954C1207.11 791.954 1209.55 792.619 1211.65 793.948C1213.76 795.276 1215.39 797.142 1216.56 799.545C1217.74 801.948 1218.33 804.76 1218.33 807.982C1218.33 811.176 1217.74 813.968 1216.56 816.358C1215.39 818.747 1213.76 820.606 1211.65 821.935C1209.55 823.264 1207.11 823.928 1204.32 823.928ZM1204.32 819.66C1206.44 819.66 1208.19 819.116 1209.55 818.029C1210.92 816.942 1211.94 815.512 1212.59 813.74C1213.25 811.968 1213.58 810.049 1213.58 807.982C1213.58 805.914 1213.25 803.988 1212.59 802.203C1211.94 800.418 1210.92 798.975 1209.55 797.874C1208.19 796.773 1206.44 796.223 1204.32 796.223C1202.2 796.223 1200.45 796.773 1199.08 797.874C1197.72 798.975 1196.7 800.418 1196.04 802.203C1195.39 803.988 1195.06 805.914 1195.06 807.982C1195.06 810.049 1195.39 811.968 1196.04 813.74C1196.7 815.512 1197.72 816.942 1199.08 818.029C1200.45 819.116 1202.2 819.66 1204.32 819.66ZM1245.08 810.639V792.357H1249.83V823.284H1245.08V818.049H1244.76C1244.03 819.62 1242.9 820.955 1241.37 822.056C1239.84 823.143 1237.91 823.687 1235.57 823.687C1233.64 823.687 1231.92 823.264 1230.42 822.418C1228.92 821.559 1227.73 820.271 1226.88 818.552C1226.02 816.821 1225.59 814.64 1225.59 812.009V792.357H1230.34V811.686C1230.34 813.942 1230.97 815.74 1232.23 817.083C1233.51 818.425 1235.13 819.096 1237.1 819.096C1238.29 819.096 1239.49 818.794 1240.71 818.19C1241.94 817.586 1242.98 816.66 1243.81 815.411C1244.65 814.163 1245.08 812.572 1245.08 810.639ZM1263.28 782.048V823.284H1258.53V782.048H1263.28ZM1283.67 823.928C1281.09 823.928 1278.81 823.277 1276.84 821.975C1274.87 820.66 1273.32 818.808 1272.21 816.418C1271.1 814.015 1270.54 811.176 1270.54 807.901C1270.54 804.653 1271.1 801.834 1272.21 799.444C1273.32 797.055 1274.87 795.209 1276.86 793.907C1278.85 792.605 1281.14 791.954 1283.75 791.954C1285.76 791.954 1287.35 792.29 1288.52 792.961C1289.7 793.619 1290.6 794.37 1291.22 795.216C1291.85 796.048 1292.34 796.733 1292.69 797.27H1293.09V782.048H1297.84V823.284H1293.25V818.532H1292.69C1292.34 819.096 1291.84 819.808 1291.2 820.667C1290.55 821.512 1289.63 822.271 1288.44 822.942C1287.24 823.6 1285.65 823.928 1283.67 823.928ZM1284.31 819.66C1286.22 819.66 1287.83 819.163 1289.14 818.17C1290.46 817.163 1291.46 815.774 1292.14 814.002C1292.83 812.217 1293.17 810.156 1293.17 807.821C1293.17 805.512 1292.83 803.492 1292.16 801.76C1291.49 800.015 1290.5 798.659 1289.18 797.693C1287.87 796.713 1286.24 796.223 1284.31 796.223C1282.3 796.223 1280.62 796.74 1279.28 797.773C1277.95 798.793 1276.95 800.183 1276.28 801.941C1275.62 803.686 1275.29 805.646 1275.29 807.821C1275.29 810.022 1275.63 812.022 1276.3 813.821C1276.98 815.606 1277.99 817.029 1279.32 818.089C1280.66 819.136 1282.32 819.66 1284.31 819.66ZM1323.15 823.284V792.357H1327.74V797.189H1328.14C1328.79 795.538 1329.83 794.256 1331.27 793.344C1332.7 792.417 1334.43 791.954 1336.44 791.954C1338.48 791.954 1340.18 792.417 1341.53 793.344C1342.9 794.256 1343.97 795.538 1344.74 797.189H1345.06C1345.85 795.592 1347.04 794.323 1348.62 793.384C1350.21 792.431 1352.1 791.954 1354.32 791.954C1357.08 791.954 1359.35 792.82 1361.11 794.552C1362.86 796.27 1363.74 798.948 1363.74 802.585V823.284H1358.99V802.585C1358.99 800.303 1358.37 798.673 1357.12 797.693C1355.87 796.713 1354.4 796.223 1352.71 796.223C1350.53 796.223 1348.85 796.881 1347.65 798.196C1346.46 799.498 1345.86 801.149 1345.86 803.149V823.284H1341.03V802.102C1341.03 800.344 1340.46 798.928 1339.32 797.854C1338.18 796.766 1336.71 796.223 1334.91 796.223C1333.67 796.223 1332.52 796.552 1331.45 797.209C1330.39 797.867 1329.53 798.78 1328.87 799.948C1328.22 801.102 1327.9 802.438 1327.9 803.955V823.284H1323.15ZM1385 823.928C1382.2 823.928 1379.75 823.264 1377.65 821.935C1375.55 820.606 1373.91 818.747 1372.73 816.358C1371.57 813.968 1370.98 811.176 1370.98 807.982C1370.98 804.76 1371.57 801.948 1372.73 799.545C1373.91 797.142 1375.55 795.276 1377.65 793.948C1379.75 792.619 1382.2 791.954 1385 791.954C1387.79 791.954 1390.23 792.619 1392.32 793.948C1394.43 795.276 1396.07 797.142 1397.24 799.545C1398.42 801.948 1399.01 804.76 1399.01 807.982C1399.01 811.176 1398.42 813.968 1397.24 816.358C1396.07 818.747 1394.43 820.606 1392.32 821.935C1390.23 823.264 1387.79 823.928 1385 823.928ZM1385 819.66C1387.12 819.66 1388.86 819.116 1390.23 818.029C1391.6 816.942 1392.61 815.512 1393.27 813.74C1393.93 811.968 1394.26 810.049 1394.26 807.982C1394.26 805.914 1393.93 803.988 1393.27 802.203C1392.61 800.418 1391.6 798.975 1390.23 797.874C1388.86 796.773 1387.12 796.223 1385 796.223C1382.87 796.223 1381.13 796.773 1379.76 797.874C1378.39 798.975 1377.38 800.418 1376.72 802.203C1376.06 803.988 1375.73 805.914 1375.73 807.982C1375.73 810.049 1376.06 811.968 1376.72 813.74C1377.38 815.512 1378.39 816.942 1379.76 818.029C1381.13 819.116 1382.87 819.66 1385 819.66ZM1430.44 792.357L1419.01 823.284H1414.18L1402.74 792.357H1407.89L1416.43 817.002H1416.75L1425.29 792.357H1430.44ZM1448.58 823.928C1445.6 823.928 1443.03 823.271 1440.86 821.955C1438.72 820.626 1437.06 818.774 1435.89 816.398C1434.74 814.009 1434.16 811.23 1434.16 808.062C1434.16 804.894 1434.74 802.102 1435.89 799.686C1437.06 797.256 1438.68 795.364 1440.76 794.008C1442.86 792.639 1445.3 791.954 1448.09 791.954C1449.7 791.954 1451.29 792.223 1452.87 792.76C1454.44 793.297 1455.87 794.169 1457.15 795.377C1458.44 796.572 1459.47 798.156 1460.23 800.129C1461 802.102 1461.38 804.532 1461.38 807.418V809.431H1437.54V805.324H1456.55C1456.55 803.579 1456.2 802.022 1455.5 800.653C1454.82 799.283 1453.84 798.203 1452.56 797.411C1451.3 796.619 1449.81 796.223 1448.09 796.223C1446.2 796.223 1444.56 796.693 1443.18 797.632C1441.81 798.558 1440.76 799.767 1440.02 801.257C1439.28 802.747 1438.91 804.344 1438.91 806.049V808.787C1438.91 811.123 1439.31 813.103 1440.12 814.727C1440.94 816.338 1442.07 817.566 1443.52 818.412C1444.97 819.244 1446.66 819.66 1448.58 819.66C1449.82 819.66 1450.95 819.485 1451.96 819.136C1452.98 818.774 1453.86 818.237 1454.6 817.526C1455.33 816.801 1455.91 815.901 1456.31 814.828L1460.9 816.116C1460.42 817.673 1459.6 819.042 1458.46 820.224C1457.32 821.391 1455.91 822.304 1454.23 822.962C1452.56 823.606 1450.67 823.928 1448.58 823.928ZM1487.62 834.882C1486.81 834.882 1486.09 834.815 1485.46 834.681C1484.83 834.56 1484.4 834.439 1484.15 834.318L1485.36 830.13C1486.52 830.425 1487.54 830.533 1488.42 830.452C1489.31 830.372 1490.09 829.976 1490.78 829.264C1491.48 828.566 1492.11 827.432 1492.69 825.861L1493.58 823.445L1482.14 792.357H1487.3L1495.83 817.002H1496.16L1504.69 792.357H1509.85L1496.72 827.794C1496.13 829.392 1495.4 830.714 1494.52 831.761C1493.65 832.821 1492.64 833.607 1491.48 834.117C1490.34 834.627 1489.05 834.882 1487.62 834.882ZM1527.58 823.928C1524.78 823.928 1522.33 823.264 1520.23 821.935C1518.13 820.606 1516.49 818.747 1515.31 816.358C1514.15 813.968 1513.56 811.176 1513.56 807.982C1513.56 804.76 1514.15 801.948 1515.31 799.545C1516.49 797.142 1518.13 795.276 1520.23 793.948C1522.33 792.619 1524.78 791.954 1527.58 791.954C1530.37 791.954 1532.81 792.619 1534.9 793.948C1537.01 795.276 1538.65 797.142 1539.82 799.545C1541 801.948 1541.59 804.76 1541.59 807.982C1541.59 811.176 1541 813.968 1539.82 816.358C1538.65 818.747 1537.01 820.606 1534.9 821.935C1532.81 823.264 1530.37 823.928 1527.58 823.928ZM1527.58 819.66C1529.7 819.66 1531.44 819.116 1532.81 818.029C1534.18 816.942 1535.19 815.512 1535.85 813.74C1536.51 811.968 1536.84 810.049 1536.84 807.982C1536.84 805.914 1536.51 803.988 1535.85 802.203C1535.19 800.418 1534.18 798.975 1532.81 797.874C1531.44 796.773 1529.7 796.223 1527.58 796.223C1525.45 796.223 1523.71 796.773 1522.34 797.874C1520.97 798.975 1519.96 800.418 1519.3 802.203C1518.64 803.988 1518.31 805.914 1518.31 807.982C1518.31 810.049 1518.64 811.968 1519.3 813.74C1519.96 815.512 1520.97 816.942 1522.34 818.029C1523.71 819.116 1525.45 819.66 1527.58 819.66ZM1568.33 810.639V792.357H1573.09V823.284H1568.33V818.049H1568.01C1567.29 819.62 1566.16 820.955 1564.63 822.056C1563.1 823.143 1561.17 823.687 1558.83 823.687C1556.9 823.687 1555.18 823.264 1553.68 822.418C1552.17 821.559 1550.99 820.271 1550.13 818.552C1549.27 816.821 1548.84 814.64 1548.84 812.009V792.357H1553.6V811.686C1553.6 813.942 1554.23 815.74 1555.49 817.083C1556.76 818.425 1558.39 819.096 1560.36 819.096C1561.54 819.096 1562.74 818.794 1563.96 818.19C1565.2 817.586 1566.23 816.66 1567.07 815.411C1567.91 814.163 1568.33 812.572 1568.33 810.639ZM1611.19 792.357V796.384H1595.16V792.357H1611.19ZM1599.83 784.947H1604.58V814.425C1604.58 815.767 1604.78 816.774 1605.17 817.445C1605.57 818.103 1606.08 818.546 1606.7 818.774C1607.33 818.989 1607.99 819.096 1608.69 819.096C1609.21 819.096 1609.64 819.069 1609.98 819.016C1610.31 818.948 1610.58 818.895 1610.78 818.854L1611.75 823.123C1611.43 823.244 1610.98 823.365 1610.4 823.486C1609.82 823.62 1609.09 823.687 1608.21 823.687C1606.86 823.687 1605.55 823.398 1604.26 822.821C1602.98 822.244 1601.92 821.365 1601.08 820.183C1600.25 819.002 1599.83 817.512 1599.83 815.713V784.947ZM1630.57 823.928C1627.77 823.928 1625.32 823.264 1623.22 821.935C1621.12 820.606 1619.49 818.747 1618.3 816.358C1617.14 813.968 1616.55 811.176 1616.55 807.982C1616.55 804.76 1617.14 801.948 1618.3 799.545C1619.49 797.142 1621.12 795.276 1623.22 793.948C1625.32 792.619 1627.77 791.954 1630.57 791.954C1633.36 791.954 1635.8 792.619 1637.9 793.948C1640 795.276 1641.64 797.142 1642.81 799.545C1643.99 801.948 1644.58 804.76 1644.58 807.982C1644.58 811.176 1643.99 813.968 1642.81 816.358C1641.64 818.747 1640 820.606 1637.9 821.935C1635.8 823.264 1633.36 823.928 1630.57 823.928ZM1630.57 819.66C1632.69 819.66 1634.43 819.116 1635.8 818.029C1637.17 816.942 1638.18 815.512 1638.84 813.74C1639.5 811.968 1639.83 810.049 1639.83 807.982C1639.83 805.914 1639.5 803.988 1638.84 802.203C1638.18 800.418 1637.17 798.975 1635.8 797.874C1634.43 796.773 1632.69 796.223 1630.57 796.223C1628.45 796.223 1626.7 796.773 1625.33 797.874C1623.96 798.975 1622.95 800.418 1622.29 802.203C1621.63 803.988 1621.3 805.914 1621.3 807.982C1621.3 810.049 1621.63 811.968 1622.29 813.74C1622.95 815.512 1623.96 816.942 1625.33 818.029C1626.7 819.116 1628.45 819.66 1630.57 819.66ZM1681.23 792.357V796.384H1665.2V792.357H1681.23ZM1669.87 784.947H1674.63V814.425C1674.63 815.767 1674.82 816.774 1675.21 817.445C1675.61 818.103 1676.12 818.546 1676.74 818.774C1677.37 818.989 1678.04 819.096 1678.73 819.096C1679.26 819.096 1679.69 819.069 1680.02 819.016C1680.36 818.948 1680.63 818.895 1680.83 818.854L1681.79 823.123C1681.47 823.244 1681.02 823.365 1680.45 823.486C1679.87 823.62 1679.14 823.687 1678.25 823.687C1676.91 823.687 1675.59 823.398 1674.3 822.821C1673.03 822.244 1671.97 821.365 1671.12 820.183C1670.29 819.002 1669.87 817.512 1669.87 815.713V784.947ZM1693.79 804.679V823.284H1689.04V782.048H1693.79V797.189H1694.2C1694.92 795.592 1696.01 794.323 1697.46 793.384C1698.92 792.431 1700.87 791.954 1703.3 791.954C1705.41 791.954 1707.25 792.377 1708.84 793.223C1710.42 794.055 1711.65 795.337 1712.52 797.068C1713.41 798.787 1713.85 800.975 1713.85 803.632V823.284H1709.1V803.955C1709.1 801.498 1708.46 799.599 1707.18 798.256C1705.92 796.901 1704.17 796.223 1701.93 796.223C1700.37 796.223 1698.98 796.552 1697.74 797.209C1696.52 797.867 1695.55 798.827 1694.84 800.089C1694.14 801.351 1693.79 802.881 1693.79 804.679ZM1735.51 823.928C1732.53 823.928 1729.96 823.271 1727.8 821.955C1725.65 820.626 1723.99 818.774 1722.82 816.398C1721.67 814.009 1721.09 811.23 1721.09 808.062C1721.09 804.894 1721.67 802.102 1722.82 799.686C1723.99 797.256 1725.62 795.364 1727.7 794.008C1729.79 792.639 1732.23 791.954 1735.03 791.954C1736.64 791.954 1738.23 792.223 1739.8 792.76C1741.37 793.297 1742.8 794.169 1744.09 795.377C1745.38 796.572 1746.4 798.156 1747.17 800.129C1747.93 802.102 1748.32 804.532 1748.32 807.418V809.431H1724.48V805.324H1743.48C1743.48 803.579 1743.13 802.022 1742.44 800.653C1741.75 799.283 1740.77 798.203 1739.5 797.411C1738.23 796.619 1736.74 796.223 1735.03 796.223C1733.13 796.223 1731.5 796.693 1730.11 797.632C1728.74 798.558 1727.69 799.767 1726.95 801.257C1726.21 802.747 1725.84 804.344 1725.84 806.049V808.787C1725.84 811.123 1726.25 813.103 1727.05 814.727C1727.87 816.338 1729.01 817.566 1730.46 818.412C1731.91 819.244 1733.59 819.66 1735.51 819.66C1736.76 819.66 1737.89 819.485 1738.89 819.136C1739.91 818.774 1740.79 818.237 1741.53 817.526C1742.27 816.801 1742.84 815.901 1743.24 814.828L1747.83 816.116C1747.35 817.673 1746.54 819.042 1745.4 820.224C1744.25 821.391 1742.85 822.304 1741.17 822.962C1739.49 823.606 1737.6 823.928 1735.51 823.928ZM1784.05 823.928C1781.26 823.928 1778.81 823.264 1776.71 821.935C1774.61 820.606 1772.97 818.747 1771.79 816.358C1770.62 813.968 1770.04 811.176 1770.04 807.982C1770.04 804.76 1770.62 801.948 1771.79 799.545C1772.97 797.142 1774.61 795.276 1776.71 793.948C1778.81 792.619 1781.26 791.954 1784.05 791.954C1786.85 791.954 1789.29 792.619 1791.38 793.948C1793.49 795.276 1795.13 797.142 1796.3 799.545C1797.48 801.948 1798.07 804.76 1798.07 807.982C1798.07 811.176 1797.48 813.968 1796.3 816.358C1795.13 818.747 1793.49 820.606 1791.38 821.935C1789.29 823.264 1786.85 823.928 1784.05 823.928ZM1784.05 819.66C1786.18 819.66 1787.92 819.116 1789.29 818.029C1790.66 816.942 1791.67 815.512 1792.33 813.74C1792.99 811.968 1793.32 810.049 1793.32 807.982C1793.32 805.914 1792.99 803.988 1792.33 802.203C1791.67 800.418 1790.66 798.975 1789.29 797.874C1787.92 796.773 1786.18 796.223 1784.05 796.223C1781.93 796.223 1780.19 796.773 1778.82 797.874C1777.45 798.975 1776.44 800.418 1775.78 802.203C1775.12 803.988 1774.79 805.914 1774.79 807.982C1774.79 810.049 1775.12 811.968 1775.78 813.74C1776.44 815.512 1777.45 816.942 1778.82 818.029C1780.19 819.116 1781.93 819.66 1784.05 819.66ZM1818.77 792.357V796.384H1802.75V792.357H1818.77ZM1807.42 784.947H1812.17V814.425C1812.17 815.767 1812.36 816.774 1812.75 817.445C1813.15 818.103 1813.66 818.546 1814.28 818.774C1814.91 818.989 1815.58 819.096 1816.28 819.096C1816.8 819.096 1817.23 819.069 1817.56 819.016C1817.9 818.948 1818.17 818.895 1818.37 818.854L1819.34 823.123C1819.01 823.244 1818.56 823.365 1817.99 823.486C1817.41 823.62 1816.68 823.687 1815.79 823.687C1814.45 823.687 1813.13 823.398 1811.85 822.821C1810.57 822.244 1809.51 821.365 1808.66 820.183C1807.83 819.002 1807.42 817.512 1807.42 815.713V784.947ZM1831.34 804.679V823.284H1826.58V782.048H1831.34V797.189H1831.74C1832.46 795.592 1833.55 794.323 1835 793.384C1836.46 792.431 1838.41 791.954 1840.84 791.954C1842.95 791.954 1844.79 792.377 1846.38 793.223C1847.96 794.055 1849.19 795.337 1850.06 797.068C1850.95 798.787 1851.39 800.975 1851.39 803.632V823.284H1846.64V803.955C1846.64 801.498 1846 799.599 1844.73 798.256C1843.46 796.901 1841.71 796.223 1839.47 796.223C1837.91 796.223 1836.52 796.552 1835.28 797.209C1834.06 797.867 1833.1 798.827 1832.38 800.089C1831.69 801.351 1831.34 802.881 1831.34 804.679ZM1873.05 823.928C1870.07 823.928 1867.5 823.271 1865.34 821.955C1863.19 820.626 1861.53 818.774 1860.37 816.398C1859.21 814.009 1858.63 811.23 1858.63 808.062C1858.63 804.894 1859.21 802.102 1860.37 799.686C1861.53 797.256 1863.16 795.364 1865.24 794.008C1867.33 792.639 1869.78 791.954 1872.57 791.954C1874.18 791.954 1875.77 792.223 1877.34 792.76C1878.91 793.297 1880.34 794.169 1881.63 795.377C1882.92 796.572 1883.94 798.156 1884.71 800.129C1885.47 802.102 1885.86 804.532 1885.86 807.418V809.431H1862.02V805.324H1881.02C1881.02 803.579 1880.68 802.022 1879.98 800.653C1879.29 799.283 1878.31 798.203 1877.04 797.411C1875.78 796.619 1874.29 796.223 1872.57 796.223C1870.68 796.223 1869.04 796.693 1867.65 797.632C1866.29 798.558 1865.23 799.767 1864.49 801.257C1863.76 802.747 1863.39 804.344 1863.39 806.049V808.787C1863.39 811.123 1863.79 813.103 1864.59 814.727C1865.41 816.338 1866.55 817.566 1868 818.412C1869.45 819.244 1871.13 819.66 1873.05 819.66C1874.3 819.66 1875.43 819.485 1876.43 819.136C1877.45 818.774 1878.33 818.237 1879.07 817.526C1879.81 816.801 1880.38 815.901 1880.78 814.828L1885.37 816.116C1884.89 817.673 1884.08 819.042 1882.94 820.224C1881.8 821.391 1880.39 822.304 1878.71 822.962C1877.03 823.606 1875.15 823.928 1873.05 823.928ZM1893.09 823.284V792.357H1897.68V797.028H1898C1898.56 795.498 1899.58 794.256 1901.06 793.303C1902.54 792.35 1904.2 791.874 1906.05 791.874C1906.4 791.874 1906.84 791.88 1907.36 791.894C1907.88 791.907 1908.28 791.927 1908.55 791.954V796.787C1908.39 796.746 1908.02 796.686 1907.44 796.605C1906.88 796.511 1906.28 796.464 1905.65 796.464C1904.15 796.464 1902.8 796.78 1901.62 797.411C1900.45 798.028 1899.53 798.887 1898.84 799.988C1898.17 801.075 1897.84 802.317 1897.84 803.713V823.284H1893.09ZM1952.04 799.283L1947.77 800.491C1947.5 799.78 1947.1 799.089 1946.58 798.418C1946.07 797.733 1945.37 797.169 1944.48 796.726C1943.6 796.283 1942.46 796.062 1941.08 796.062C1939.19 796.062 1937.61 796.498 1936.35 797.371C1935.1 798.23 1934.48 799.324 1934.48 800.653C1934.48 801.834 1934.91 802.767 1935.77 803.451C1936.63 804.136 1937.97 804.706 1939.79 805.163L1944.38 806.29C1947.15 806.961 1949.21 807.988 1950.57 809.371C1951.92 810.74 1952.6 812.505 1952.6 814.666C1952.6 816.438 1952.09 818.022 1951.07 819.418C1950.06 820.814 1948.65 821.915 1946.84 822.72C1945.03 823.526 1942.92 823.928 1940.52 823.928C1937.36 823.928 1934.75 823.244 1932.69 821.875C1930.62 820.506 1929.31 818.505 1928.76 815.875L1933.27 814.747C1933.7 816.411 1934.51 817.66 1935.71 818.492C1936.91 819.324 1938.49 819.74 1940.44 819.74C1942.65 819.74 1944.41 819.271 1945.71 818.331C1947.03 817.378 1947.69 816.237 1947.69 814.908C1947.69 813.834 1947.31 812.935 1946.56 812.21C1945.81 811.472 1944.65 810.921 1943.1 810.559L1937.94 809.351C1935.11 808.68 1933.03 807.639 1931.7 806.23C1930.38 804.807 1929.73 803.028 1929.73 800.894C1929.73 799.149 1930.22 797.605 1931.2 796.263C1932.19 794.921 1933.54 793.867 1935.24 793.102C1936.96 792.337 1938.91 791.954 1941.08 791.954C1944.14 791.954 1946.55 792.625 1948.29 793.968C1950.05 795.31 1951.3 797.082 1952.04 799.283ZM1959.75 823.284V792.357H1964.5V823.284H1959.75ZM1962.17 787.202C1961.24 787.202 1960.44 786.887 1959.77 786.256C1959.11 785.625 1958.79 784.867 1958.79 783.981C1958.79 783.095 1959.11 782.336 1959.77 781.706C1960.44 781.075 1961.24 780.759 1962.17 780.759C1963.09 780.759 1963.89 781.075 1964.54 781.706C1965.22 782.336 1965.55 783.095 1965.55 783.981C1965.55 784.867 1965.22 785.625 1964.54 786.256C1963.89 786.887 1963.09 787.202 1962.17 787.202ZM1984.89 823.928C1982.31 823.928 1980.03 823.277 1978.06 821.975C1976.09 820.66 1974.54 818.808 1973.43 816.418C1972.31 814.015 1971.76 811.176 1971.76 807.901C1971.76 804.653 1972.31 801.834 1973.43 799.444C1974.54 797.055 1976.09 795.209 1978.08 793.907C1980.07 792.605 1982.36 791.954 1984.97 791.954C1986.98 791.954 1988.57 792.29 1989.74 792.961C1990.92 793.619 1991.82 794.37 1992.44 795.216C1993.07 796.048 1993.56 796.733 1993.91 797.27H1994.31V782.048H1999.06V823.284H1994.47V818.532H1993.91C1993.56 819.096 1993.06 819.808 1992.42 820.667C1991.77 821.512 1990.85 822.271 1989.66 822.942C1988.46 823.6 1986.87 823.928 1984.89 823.928ZM1985.53 819.66C1987.44 819.66 1989.05 819.163 1990.36 818.17C1991.68 817.163 1992.68 815.774 1993.36 814.002C1994.05 812.217 1994.39 810.156 1994.39 807.821C1994.39 805.512 1994.05 803.492 1993.38 801.76C1992.71 800.015 1991.72 798.659 1990.4 797.693C1989.09 796.713 1987.46 796.223 1985.53 796.223C1983.52 796.223 1981.84 796.74 1980.5 797.773C1979.17 798.793 1978.17 800.183 1977.5 801.941C1976.84 803.686 1976.51 805.646 1976.51 807.821C1976.51 810.022 1976.85 812.022 1977.52 813.821C1978.2 815.606 1979.21 817.029 1980.54 818.089C1981.88 819.136 1983.54 819.66 1985.53 819.66ZM2021.39 823.928C2018.41 823.928 2015.84 823.271 2013.68 821.955C2011.53 820.626 2009.87 818.774 2008.71 816.398C2007.55 814.009 2006.97 811.23 2006.97 808.062C2006.97 804.894 2007.55 802.102 2008.71 799.686C2009.87 797.256 2011.5 795.364 2013.58 794.008C2015.67 792.639 2018.11 791.954 2020.91 791.954C2022.52 791.954 2024.11 792.223 2025.68 792.76C2027.25 793.297 2028.68 794.169 2029.97 795.377C2031.26 796.572 2032.28 798.156 2033.05 800.129C2033.81 802.102 2034.2 804.532 2034.2 807.418V809.431H2010.36V805.324H2029.36C2029.36 803.579 2029.01 802.022 2028.32 800.653C2027.63 799.283 2026.65 798.203 2025.38 797.411C2024.12 796.619 2022.63 796.223 2020.91 796.223C2019.01 796.223 2017.38 796.693 2015.99 797.632C2014.62 798.558 2013.57 799.767 2012.83 801.257C2012.09 802.747 2011.73 804.344 2011.73 806.049V808.787C2011.73 811.123 2012.13 813.103 2012.93 814.727C2013.75 816.338 2014.89 817.566 2016.34 818.412C2017.79 819.244 2019.47 819.66 2021.39 819.66C2022.64 819.66 2023.77 819.485 2024.77 819.136C2025.79 818.774 2026.67 818.237 2027.41 817.526C2028.15 816.801 2028.72 815.901 2029.12 814.828L2033.71 816.116C2033.23 817.673 2032.42 819.042 2031.28 820.224C2030.14 821.391 2028.73 822.304 2027.05 822.962C2025.37 823.606 2023.48 823.928 2021.39 823.928ZM2044.89 823.606C2043.89 823.606 2043.04 823.251 2042.33 822.539C2041.62 821.828 2041.26 820.975 2041.26 819.982C2041.26 818.989 2041.62 818.136 2042.33 817.425C2043.04 816.713 2043.89 816.358 2044.89 816.358C2045.88 816.358 2046.73 816.713 2047.44 817.425C2048.16 818.136 2048.51 818.989 2048.51 819.982C2048.51 820.64 2048.34 821.244 2048.01 821.794C2047.69 822.345 2047.25 822.788 2046.7 823.123C2046.16 823.445 2045.56 823.606 2044.89 823.606Z" fill="white"/>
<rect x="57" y="693" width="349" height="18" fill="#516488" fill-opacity="0.5"/>
<path d="M222 587.5C220.067 587.5 218.5 589.067 218.5 591C218.5 592.933 220.067 594.5 222 594.5V587.5ZM1944.5 593.475C1945.87 592.108 1945.87 589.892 1944.5 588.525L1922.23 566.251C1920.86 564.884 1918.65 564.884 1917.28 566.251C1915.91 567.618 1915.91 569.834 1917.28 571.201L1937.08 591L1917.28 610.799C1915.91 612.166 1915.91 614.382 1917.28 615.749C1918.65 617.116 1920.86 617.116 1922.23 615.749L1944.5 593.475ZM222 594.5H1942.03V587.5H222V594.5Z" fill="white"/>
<path d="M1945.5 591C1945.5 589.067 1943.93 587.5 1942 587.5C1940.07 587.5 1938.5 589.067 1938.5 591H1945.5ZM1939.53 674.475C1940.89 675.842 1943.11 675.842 1944.47 674.475L1966.75 652.201C1968.12 650.834 1968.12 648.618 1966.75 647.251C1965.38 645.884 1963.17 645.884 1961.8 647.251L1942 667.05L1922.2 647.251C1920.83 645.884 1918.62 645.884 1917.25 647.251C1915.88 648.618 1915.88 650.834 1917.25 652.201L1939.53 674.475ZM1938.5 591V672H1945.5V591H1938.5Z" fill="white"/>
<rect width="349" height="18" transform="matrix(-1 0 0 1 2106.11 694)" fill="#516488" fill-opacity="0.5"/>
<rect width="349" height="18" transform="matrix(-1 0 0 1 2106.11 727)" fill="#516488"/>
</svg>
