<svg width="2164" height="1117" viewBox="0 0 2164 1117" fill="none" xmlns="http://www.w3.org/2000/svg">
<rect width="2163.1" height="1116.99" rx="85.05" fill="#171717"/>
<rect x="64" y="51" width="2037" height="262" rx="25" fill="#434343"/>
<rect x="64" y="356" width="2037" height="262" rx="25" fill="#434343"/>
<rect x="64" y="661" width="2037" height="262" rx="25" fill="#434343"/>
<mask id="mask0_913_1859" style="mask-type:alpha" maskUnits="userSpaceOnUse" x="0" y="0" width="2164" height="1117">
<rect width="2163.1" height="1116.99" rx="85.05" fill="#171717"/>
</mask>
<g mask="url(#mask0_913_1859)">
<rect x="64" y="966" width="2037" height="262" rx="25" fill="#434343"/>
</g>
<path d="M666.812 568V386.182H775.832V405.713H688.829V467.148H767.664V486.679H688.829V568H666.812ZM809.235 568V431.636H829.476V452.233H830.897C833.382 445.486 837.881 440.011 844.391 435.809C850.901 431.607 858.24 429.506 866.408 429.506C867.947 429.506 869.87 429.535 872.179 429.594C874.487 429.654 876.233 429.742 877.417 429.861V451.168C876.706 450.99 875.079 450.724 872.534 450.369C870.048 449.954 867.414 449.747 864.632 449.747C858.004 449.747 852.085 451.138 846.877 453.92C841.728 456.642 837.644 460.43 834.625 465.283C831.666 470.077 830.186 475.552 830.186 481.707V568H809.235ZM942.38 571.196C933.739 571.196 925.897 569.568 918.854 566.313C911.811 562.999 906.218 558.234 902.075 552.02C897.932 545.746 895.86 538.17 895.86 529.293C895.86 521.48 897.399 515.147 900.477 510.294C903.554 505.382 907.668 501.535 912.817 498.753C917.966 495.971 923.648 493.9 929.862 492.538C936.136 491.118 942.439 489.993 948.772 489.165C957.058 488.099 963.776 487.3 968.925 486.768C974.133 486.176 977.921 485.199 980.289 483.838C982.715 482.477 983.928 480.109 983.928 476.736V476.026C983.928 467.266 981.531 460.46 976.737 455.607C972.003 450.753 964.811 448.327 955.164 448.327C945.162 448.327 937.32 450.517 931.638 454.896C925.956 459.276 921.961 463.952 919.653 468.923L899.767 461.821C903.318 453.535 908.052 447.084 913.971 442.467C919.949 437.792 926.459 434.536 933.502 432.702C940.605 430.808 947.588 429.861 954.454 429.861C958.834 429.861 963.865 430.393 969.546 431.459C975.287 432.465 980.821 434.566 986.148 437.762C991.534 440.958 996.002 445.782 999.553 452.233C1003.1 458.684 1004.88 467.325 1004.88 478.156V568H983.928V549.534H982.863C981.443 552.493 979.075 555.66 975.761 559.033C972.446 562.407 968.037 565.277 962.533 567.645C957.029 570.012 950.311 571.196 942.38 571.196ZM945.576 552.375C953.862 552.375 960.846 550.747 966.528 547.492C972.269 544.237 976.589 540.035 979.49 534.886C982.449 529.737 983.928 524.321 983.928 518.639V499.463C983.041 500.528 981.088 501.505 978.069 502.393C975.11 503.221 971.677 503.961 967.771 504.612C963.924 505.204 960.165 505.737 956.496 506.21C952.886 506.625 949.956 506.98 947.707 507.276C942.262 507.986 937.172 509.14 932.437 510.738C927.761 512.277 923.973 514.615 921.073 517.751C918.232 520.829 916.812 525.031 916.812 530.358C916.812 537.638 919.505 543.142 924.891 546.871C930.336 550.54 937.231 552.375 945.576 552.375ZM1043.12 568V431.636H1063.36V452.943H1065.14C1067.98 445.663 1072.57 440.011 1078.9 435.987C1085.23 431.903 1092.84 429.861 1101.72 429.861C1110.71 429.861 1118.2 431.903 1124.18 435.987C1130.21 440.011 1134.92 445.663 1138.29 452.943H1139.71C1143.2 445.9 1148.44 440.307 1155.43 436.164C1162.41 431.962 1170.78 429.861 1180.55 429.861C1192.74 429.861 1202.72 433.678 1210.47 441.313C1218.22 448.889 1222.1 460.696 1222.1 476.736V568H1201.15V476.736C1201.15 466.674 1198.39 459.483 1192.89 455.163C1187.39 450.842 1180.91 448.682 1173.45 448.682C1163.86 448.682 1156.43 451.582 1151.16 457.382C1145.9 463.123 1143.26 470.403 1143.26 479.222V568H1121.96V474.605C1121.96 466.852 1119.44 460.608 1114.41 455.873C1109.38 451.079 1102.9 448.682 1094.97 448.682C1089.52 448.682 1084.43 450.132 1079.7 453.032C1075.02 455.932 1071.23 459.957 1068.33 465.106C1065.49 470.196 1064.07 476.085 1064.07 482.773V568H1043.12ZM1317.58 570.841C1304.44 570.841 1293.11 567.941 1283.58 562.141C1274.11 556.281 1266.8 548.114 1261.65 537.638C1256.56 527.103 1254.01 514.851 1254.01 500.884C1254.01 486.916 1256.56 474.605 1261.65 463.952C1266.8 453.239 1273.96 444.894 1283.13 438.916C1292.37 432.879 1303.14 429.861 1315.45 429.861C1322.55 429.861 1329.56 431.045 1336.49 433.412C1343.41 435.779 1349.72 439.626 1355.4 444.953C1361.08 450.221 1365.61 457.205 1368.98 465.905C1372.36 474.605 1374.04 485.318 1374.04 498.043V506.92H1268.93V488.81H1352.74C1352.74 481.116 1351.2 474.25 1348.12 468.213C1345.1 462.176 1340.78 457.412 1335.16 453.92C1329.59 450.428 1323.02 448.682 1315.45 448.682C1307.1 448.682 1299.88 450.753 1293.79 454.896C1287.75 458.98 1283.1 464.307 1279.85 470.876C1276.59 477.446 1274.97 484.489 1274.97 492.006V504.08C1274.97 514.378 1276.74 523.108 1280.29 530.269C1283.9 537.371 1288.9 542.787 1295.3 546.516C1301.69 550.185 1309.12 552.02 1317.58 552.02C1323.08 552.02 1328.06 551.25 1332.49 549.712C1336.99 548.114 1340.87 545.746 1344.12 542.609C1347.38 539.413 1349.9 535.448 1351.67 530.713L1371.91 536.395C1369.78 543.26 1366.2 549.297 1361.17 554.506C1356.14 559.655 1349.92 563.679 1342.53 566.58C1335.13 569.42 1326.81 570.841 1317.58 570.841ZM1502.51 462.176L1483.68 467.503C1482.5 464.366 1480.75 461.318 1478.45 458.359C1476.2 455.34 1473.12 452.854 1469.21 450.901C1465.31 448.948 1460.31 447.972 1454.21 447.972C1445.86 447.972 1438.91 449.895 1433.35 453.742C1427.84 457.53 1425.09 462.354 1425.09 468.213C1425.09 473.421 1426.98 477.535 1430.77 480.553C1434.56 483.572 1440.48 486.087 1448.53 488.099L1468.77 493.071C1480.96 496.03 1490.05 500.558 1496.02 506.654C1502 512.691 1504.99 520.474 1504.99 530.003C1504.99 537.815 1502.74 544.799 1498.24 550.955C1493.81 557.11 1487.59 561.963 1479.6 565.514C1471.61 569.065 1462.32 570.841 1451.72 570.841C1437.82 570.841 1426.3 567.822 1417.19 561.786C1408.07 555.749 1402.3 546.93 1399.88 535.33L1419.76 530.358C1421.66 537.697 1425.24 543.201 1430.51 546.871C1435.83 550.54 1442.79 552.375 1451.37 552.375C1461.13 552.375 1468.89 550.304 1474.63 546.161C1480.43 541.958 1483.33 536.928 1483.33 531.068C1483.33 526.333 1481.67 522.368 1478.36 519.172C1475.04 515.917 1469.95 513.49 1463.09 511.892L1440.36 506.565C1427.87 503.606 1418.7 499.019 1412.84 492.805C1407.04 486.531 1404.14 478.689 1404.14 469.278C1404.14 461.584 1406.3 454.778 1410.62 448.859C1415 442.941 1420.95 438.295 1428.46 434.921C1436.04 431.548 1444.62 429.861 1454.21 429.861C1467.7 429.861 1478.3 432.82 1485.99 438.739C1493.75 444.657 1499.25 452.47 1502.51 462.176Z" fill="white"/>
</svg>
