<svg width="2302" height="1189" viewBox="0 0 2302 1189" fill="none" xmlns="http://www.w3.org/2000/svg">
<rect width="2301.52" height="1188.46" rx="90.4922" fill="#171717"/>
<path d="M92.2746 68.8V139H83.7738V77.7121H83.3625L66.2238 89.0922V80.4543L83.7738 68.8H92.2746ZM114.349 139.548C112.658 139.548 111.207 138.943 109.996 137.732C108.785 136.521 108.179 135.07 108.179 133.379C108.179 131.687 108.785 130.236 109.996 129.025C111.207 127.814 112.658 127.209 114.349 127.209C116.04 127.209 117.491 127.814 118.702 129.025C119.914 130.236 120.519 131.687 120.519 133.379C120.519 134.498 120.234 135.527 119.662 136.463C119.114 137.4 118.371 138.154 117.434 138.726C116.52 139.274 115.492 139.548 114.349 139.548Z" fill="white"/>
<path d="M42.2864 831.125H48.6277L63.5383 867.545H64.0525L78.9631 831.125H85.3045V875H80.3342V841.665H79.9058L66.1948 875H61.396L47.6851 841.665H47.2566V875H42.2864V831.125ZM95.2717 875V842.094H100.328V875H95.2717ZM97.8425 836.609C96.857 836.609 96.0072 836.274 95.2931 835.602C94.5933 834.931 94.2433 834.124 94.2433 833.182C94.2433 832.239 94.5933 831.432 95.2931 830.761C96.0072 830.09 96.857 829.754 97.8425 829.754C98.8279 829.754 99.6706 830.09 100.37 830.761C101.085 831.432 101.442 832.239 101.442 833.182C101.442 834.124 101.085 834.931 100.37 835.602C99.6706 836.274 98.8279 836.609 97.8425 836.609ZM114.644 855.205V875H109.588V842.094H114.472V847.235H114.901C115.672 845.564 116.843 844.222 118.414 843.208C119.985 842.179 122.013 841.665 124.498 841.665C126.726 841.665 128.676 842.122 130.347 843.036C132.018 843.936 133.318 845.307 134.246 847.15C135.174 848.978 135.639 851.292 135.639 854.091V875H130.583V854.434C130.583 851.849 129.911 849.835 128.569 848.392C127.226 846.935 125.384 846.207 123.042 846.207C121.428 846.207 119.985 846.557 118.714 847.257C117.457 847.957 116.465 848.978 115.736 850.32C115.008 851.663 114.644 853.291 114.644 855.205ZM144.877 875V842.094H149.933V875H144.877ZM147.448 836.609C146.463 836.609 145.613 836.274 144.899 835.602C144.199 834.931 143.849 834.124 143.849 833.182C143.849 832.239 144.199 831.432 144.899 830.761C145.613 830.09 146.463 829.754 147.448 829.754C148.434 829.754 149.276 830.09 149.976 830.761C150.69 831.432 151.047 832.239 151.047 833.182C151.047 834.124 150.69 834.931 149.976 835.602C149.276 836.274 148.434 836.609 147.448 836.609ZM206.839 844.836C206.368 843.393 205.746 842.101 204.975 840.958C204.218 839.801 203.311 838.816 202.254 838.002C201.212 837.188 200.026 836.567 198.698 836.138C197.37 835.71 195.913 835.495 194.328 835.495C191.728 835.495 189.365 836.167 187.237 837.509C185.109 838.852 183.416 840.83 182.159 843.443C180.903 846.057 180.274 849.263 180.274 853.062C180.274 856.862 180.91 860.068 182.181 862.682C183.452 865.295 185.173 867.273 187.344 868.616C189.515 869.958 191.957 870.63 194.671 870.63C197.184 870.63 199.398 870.094 201.312 869.023C203.24 867.937 204.74 866.409 205.811 864.438C206.896 862.453 207.439 860.118 207.439 857.433L209.067 857.776H195.87V853.062H212.581V857.776C212.581 861.389 211.809 864.531 210.267 867.202C208.739 869.873 206.625 871.944 203.925 873.415C201.24 874.871 198.155 875.6 194.671 875.6C190.786 875.6 187.372 874.686 184.43 872.858C181.502 871.03 179.217 868.43 177.575 865.06C175.947 861.689 175.133 857.69 175.133 853.062C175.133 849.592 175.597 846.471 176.525 843.7C177.468 840.915 178.796 838.545 180.51 836.588C182.224 834.631 184.252 833.132 186.594 832.089C188.936 831.046 191.514 830.525 194.328 830.525C196.642 830.525 198.798 830.875 200.798 831.575C202.811 832.26 204.604 833.239 206.175 834.51C207.76 835.767 209.081 837.273 210.138 839.03C211.195 840.773 211.924 842.708 212.323 844.836H206.839ZM230.678 875.771C228.593 875.771 226.7 875.378 225.001 874.593C223.301 873.793 221.951 872.643 220.952 871.144C219.952 869.63 219.452 867.802 219.452 865.659C219.452 863.774 219.823 862.246 220.566 861.075C221.309 859.889 222.301 858.961 223.544 858.29C224.786 857.619 226.158 857.119 227.657 856.79C229.171 856.447 230.692 856.176 232.22 855.976C234.22 855.719 235.841 855.526 237.083 855.398C238.34 855.255 239.254 855.019 239.826 854.691C240.411 854.362 240.704 853.791 240.704 852.977V852.805C240.704 850.692 240.126 849.049 238.969 847.878C237.826 846.707 236.091 846.121 233.763 846.121C231.349 846.121 229.457 846.65 228.086 847.707C226.715 848.764 225.751 849.892 225.194 851.092L220.395 849.378C221.252 847.378 222.394 845.821 223.822 844.707C225.265 843.579 226.836 842.794 228.536 842.351C230.249 841.894 231.935 841.665 233.591 841.665C234.648 841.665 235.862 841.794 237.233 842.051C238.619 842.294 239.954 842.801 241.24 843.572C242.539 844.343 243.618 845.507 244.475 847.064C245.331 848.621 245.76 850.706 245.76 853.32V875H240.704V870.544H240.447C240.104 871.258 239.533 872.022 238.733 872.836C237.933 873.65 236.869 874.343 235.541 874.914C234.213 875.486 232.592 875.771 230.678 875.771ZM231.449 871.229C233.449 871.229 235.134 870.837 236.505 870.051C237.89 869.266 238.933 868.252 239.633 867.009C240.347 865.767 240.704 864.46 240.704 863.089V858.461C240.49 858.718 240.018 858.954 239.29 859.168C238.576 859.368 237.748 859.547 236.805 859.704C235.877 859.847 234.97 859.975 234.084 860.089C233.213 860.189 232.506 860.275 231.963 860.346C230.649 860.518 229.421 860.796 228.278 861.182C227.15 861.553 226.236 862.117 225.536 862.874C224.851 863.617 224.508 864.631 224.508 865.917C224.508 867.673 225.158 869.001 226.457 869.901C227.771 870.787 229.435 871.229 231.449 871.229ZM254.988 875V842.094H259.873V847.235H260.301C260.987 845.479 262.093 844.115 263.622 843.143C265.15 842.158 266.985 841.665 269.127 841.665C271.298 841.665 273.105 842.158 274.548 843.143C276.004 844.115 277.14 845.479 277.954 847.235H278.297C279.139 845.536 280.403 844.186 282.089 843.186C283.774 842.172 285.795 841.665 288.151 841.665C291.094 841.665 293.5 842.586 295.371 844.429C297.242 846.257 298.177 849.106 298.177 852.977V875H293.122V852.977C293.122 850.549 292.457 848.814 291.129 847.771C289.801 846.728 288.237 846.207 286.438 846.207C284.124 846.207 282.331 846.907 281.06 848.307C279.789 849.692 279.154 851.449 279.154 853.577V875H274.012V852.463C274.012 850.592 273.405 849.085 272.191 847.942C270.977 846.785 269.413 846.207 267.499 846.207C266.185 846.207 264.957 846.557 263.814 847.257C262.686 847.957 261.772 848.928 261.072 850.17C260.387 851.399 260.044 852.82 260.044 854.434V875H254.988ZM321.218 875.686C318.048 875.686 315.313 874.986 313.013 873.586C310.728 872.172 308.964 870.201 307.722 867.673C306.493 865.131 305.879 862.175 305.879 858.804C305.879 855.433 306.493 852.463 307.722 849.892C308.964 847.307 310.692 845.293 312.906 843.85C315.134 842.394 317.733 841.665 320.704 841.665C322.418 841.665 324.11 841.951 325.781 842.522C327.452 843.094 328.974 844.022 330.345 845.307C331.716 846.578 332.808 848.264 333.622 850.363C334.436 852.463 334.844 855.048 334.844 858.118V860.261H309.478V855.89H329.702C329.702 854.034 329.331 852.377 328.588 850.92C327.86 849.463 326.817 848.314 325.46 847.471C324.118 846.628 322.532 846.207 320.704 846.207C318.69 846.207 316.948 846.707 315.477 847.707C314.02 848.692 312.899 849.978 312.113 851.563C311.328 853.148 310.935 854.848 310.935 856.662V859.575C310.935 862.06 311.364 864.167 312.22 865.895C313.092 867.609 314.299 868.916 315.841 869.816C317.384 870.701 319.176 871.144 321.218 871.144C322.547 871.144 323.746 870.958 324.817 870.587C325.903 870.201 326.838 869.63 327.624 868.873C328.409 868.102 329.016 867.145 329.445 866.002L334.329 867.373C333.815 869.03 332.951 870.487 331.737 871.744C330.523 872.986 329.024 873.957 327.238 874.657C325.453 875.343 323.446 875.686 321.218 875.686ZM365.843 849.463L361.301 850.749C361.016 849.992 360.594 849.256 360.037 848.542C359.495 847.814 358.752 847.214 357.809 846.743C356.867 846.271 355.66 846.036 354.189 846.036C352.175 846.036 350.497 846.5 349.154 847.428C347.826 848.342 347.162 849.506 347.162 850.92C347.162 852.177 347.619 853.17 348.533 853.898C349.447 854.626 350.875 855.233 352.818 855.719L357.702 856.919C360.644 857.633 362.837 858.725 364.279 860.196C365.722 861.653 366.443 863.531 366.443 865.831C366.443 867.716 365.9 869.401 364.815 870.887C363.744 872.372 362.244 873.543 360.316 874.4C358.388 875.257 356.145 875.686 353.589 875.686C350.233 875.686 347.455 874.957 345.255 873.5C343.056 872.044 341.663 869.916 341.078 867.116L345.877 865.917C346.334 867.687 347.198 869.016 348.469 869.901C349.754 870.787 351.432 871.229 353.503 871.229C355.86 871.229 357.731 870.73 359.116 869.73C360.516 868.716 361.216 867.502 361.216 866.088C361.216 864.945 360.816 863.988 360.016 863.217C359.216 862.432 357.988 861.846 356.331 861.46L350.847 860.175C347.833 859.461 345.619 858.354 344.206 856.854C342.806 855.341 342.106 853.448 342.106 851.177C342.106 849.321 342.627 847.678 343.67 846.25C344.727 844.822 346.162 843.7 347.976 842.886C349.804 842.072 351.875 841.665 354.189 841.665C357.445 841.665 360.002 842.379 361.858 843.808C363.729 845.236 365.058 847.121 365.843 849.463ZM391.021 875V842.094H396.077V875H391.021ZM393.592 836.609C392.606 836.609 391.756 836.274 391.042 835.602C390.342 834.931 389.993 834.124 389.993 833.182C389.993 832.239 390.342 831.432 391.042 830.761C391.756 830.09 392.606 829.754 393.592 829.754C394.577 829.754 395.42 830.09 396.12 830.761C396.834 831.432 397.191 832.239 397.191 833.182C397.191 834.124 396.834 834.931 396.12 835.602C395.42 836.274 394.577 836.609 393.592 836.609ZM428.646 849.463L424.104 850.749C423.818 849.992 423.397 849.256 422.84 848.542C422.297 847.814 421.555 847.214 420.612 846.743C419.669 846.271 418.462 846.036 416.991 846.036C414.978 846.036 413.299 846.5 411.957 847.428C410.629 848.342 409.964 849.506 409.964 850.92C409.964 852.177 410.422 853.17 411.336 853.898C412.25 854.626 413.678 855.233 415.62 855.719L420.505 856.919C423.447 857.633 425.639 858.725 427.082 860.196C428.524 861.653 429.245 863.531 429.245 865.831C429.245 867.716 428.703 869.401 427.617 870.887C426.546 872.372 425.047 873.543 423.118 874.4C421.19 875.257 418.948 875.686 416.391 875.686C413.035 875.686 410.257 874.957 408.058 873.5C405.858 872.044 404.466 869.916 403.88 867.116L408.679 865.917C409.136 867.687 410 869.016 411.271 869.901C412.557 870.787 414.235 871.229 416.306 871.229C418.662 871.229 420.533 870.73 421.919 869.73C423.318 868.716 424.018 867.502 424.018 866.088C424.018 864.945 423.618 863.988 422.818 863.217C422.019 862.432 420.79 861.846 419.134 861.46L413.649 860.175C410.636 859.461 408.422 858.354 407.008 856.854C405.608 855.341 404.909 853.448 404.909 851.177C404.909 849.321 405.43 847.678 406.472 846.25C407.529 844.822 408.965 843.7 410.779 842.886C412.607 842.072 414.678 841.665 416.991 841.665C420.248 841.665 422.804 842.379 424.661 843.808C426.532 845.236 427.86 847.121 428.646 849.463ZM463.507 875.771C461.422 875.771 459.529 875.378 457.83 874.593C456.13 873.793 454.78 872.643 453.781 871.144C452.781 869.63 452.281 867.802 452.281 865.659C452.281 863.774 452.652 862.246 453.395 861.075C454.138 859.889 455.13 858.961 456.373 858.29C457.615 857.619 458.986 857.119 460.486 856.79C462 856.447 463.521 856.176 465.049 855.976C467.049 855.719 468.67 855.526 469.912 855.398C471.169 855.255 472.083 855.019 472.655 854.691C473.24 854.362 473.533 853.791 473.533 852.977V852.805C473.533 850.692 472.954 849.049 471.798 847.878C470.655 846.707 468.92 846.121 466.592 846.121C464.178 846.121 462.286 846.65 460.915 847.707C459.543 848.764 458.579 849.892 458.022 851.092L453.224 849.378C454.081 847.378 455.223 845.821 456.651 844.707C458.094 843.579 459.665 842.794 461.364 842.351C463.078 841.894 464.764 841.665 466.42 841.665C467.477 841.665 468.691 841.794 470.062 842.051C471.448 842.294 472.783 842.801 474.068 843.572C475.368 844.343 476.446 845.507 477.303 847.064C478.16 848.621 478.589 850.706 478.589 853.32V875H473.533V870.544H473.276C472.933 871.258 472.362 872.022 471.562 872.836C470.762 873.65 469.698 874.343 468.37 874.914C467.042 875.486 465.421 875.771 463.507 875.771ZM464.278 871.229C466.278 871.229 467.963 870.837 469.334 870.051C470.719 869.266 471.762 868.252 472.462 867.009C473.176 865.767 473.533 864.46 473.533 863.089V858.461C473.319 858.718 472.847 858.954 472.119 859.168C471.405 859.368 470.576 859.547 469.634 859.704C468.706 859.847 467.799 859.975 466.913 860.089C466.042 860.189 465.335 860.275 464.792 860.346C463.478 860.518 462.25 860.796 461.107 861.182C459.979 861.553 459.065 862.117 458.365 862.874C457.68 863.617 457.337 864.631 457.337 865.917C457.337 867.673 457.987 869.001 459.286 869.901C460.6 870.787 462.264 871.229 464.278 871.229ZM518.152 875.686C515.067 875.686 512.411 874.957 510.183 873.5C507.955 872.044 506.241 870.037 505.041 867.48C503.842 864.924 503.242 862.003 503.242 858.718C503.242 855.376 503.856 852.427 505.084 849.87C506.327 847.3 508.055 845.293 510.269 843.85C512.497 842.394 515.096 841.665 518.067 841.665C520.38 841.665 522.466 842.094 524.322 842.951C526.179 843.808 527.7 845.007 528.885 846.55C530.071 848.092 530.806 849.892 531.092 851.948H526.036C525.651 850.449 524.794 849.121 523.465 847.964C522.151 846.793 520.38 846.207 518.152 846.207C516.181 846.207 514.453 846.721 512.968 847.75C511.497 848.764 510.347 850.199 509.519 852.056C508.705 853.898 508.298 856.062 508.298 858.547C508.298 861.089 508.698 863.303 509.497 865.188C510.311 867.073 511.454 868.537 512.925 869.58C514.41 870.622 516.153 871.144 518.152 871.144C519.466 871.144 520.659 870.915 521.73 870.458C522.801 870.001 523.708 869.344 524.451 868.487C525.194 867.63 525.722 866.602 526.036 865.402H531.092C530.806 867.345 530.099 869.094 528.971 870.651C527.857 872.194 526.379 873.422 524.537 874.336C522.708 875.236 520.58 875.686 518.152 875.686ZM551.851 875.686C548.881 875.686 546.274 874.979 544.032 873.565C541.804 872.151 540.061 870.173 538.804 867.63C537.562 865.088 536.941 862.117 536.941 858.718C536.941 855.291 537.562 852.298 538.804 849.742C540.061 847.185 541.804 845.2 544.032 843.786C546.274 842.372 548.881 841.665 551.851 841.665C554.822 841.665 557.421 842.372 559.649 843.786C561.892 845.2 563.634 847.185 564.877 849.742C566.134 852.298 566.762 855.291 566.762 858.718C566.762 862.117 566.134 865.088 564.877 867.63C563.634 870.173 561.892 872.151 559.649 873.565C557.421 874.979 554.822 875.686 551.851 875.686ZM551.851 871.144C554.108 871.144 555.965 870.565 557.421 869.409C558.878 868.252 559.956 866.731 560.656 864.845C561.356 862.96 561.706 860.918 561.706 858.718C561.706 856.519 561.356 854.469 560.656 852.57C559.956 850.67 558.878 849.135 557.421 847.964C555.965 846.793 554.108 846.207 551.851 846.207C549.595 846.207 547.738 846.793 546.281 847.964C544.824 849.135 543.746 850.67 543.046 852.57C542.346 854.469 541.997 856.519 541.997 858.718C541.997 860.918 542.346 862.96 543.046 864.845C543.746 866.731 544.824 868.252 546.281 869.409C547.738 870.565 549.595 871.144 551.851 871.144ZM579.536 831.125V875H574.48V831.125H579.536ZM593.852 831.125V875H588.796V831.125H593.852ZM616.909 875.686C613.738 875.686 611.003 874.986 608.703 873.586C606.418 872.172 604.654 870.201 603.412 867.673C602.184 865.131 601.57 862.175 601.57 858.804C601.57 855.433 602.184 852.463 603.412 849.892C604.654 847.307 606.383 845.293 608.596 843.85C610.824 842.394 613.424 841.665 616.394 841.665C618.108 841.665 619.801 841.951 621.472 842.522C623.143 843.094 624.664 844.022 626.035 845.307C627.406 846.578 628.499 848.264 629.313 850.363C630.127 852.463 630.534 855.048 630.534 858.118V860.261H605.169V855.89H625.392C625.392 854.034 625.021 852.377 624.278 850.92C623.55 849.463 622.507 848.314 621.15 847.471C619.808 846.628 618.223 846.207 616.394 846.207C614.381 846.207 612.638 846.707 611.167 847.707C609.71 848.692 608.589 849.978 607.804 851.563C607.018 853.148 606.625 854.848 606.625 856.662V859.575C606.625 862.06 607.054 864.167 607.911 865.895C608.782 867.609 609.989 868.916 611.531 869.816C613.074 870.701 614.866 871.144 616.909 871.144C618.237 871.144 619.437 870.958 620.508 870.587C621.593 870.201 622.529 869.63 623.314 868.873C624.1 868.102 624.707 867.145 625.135 866.002L630.02 867.373C629.506 869.03 628.641 870.487 627.427 871.744C626.214 872.986 624.714 873.957 622.929 874.657C621.143 875.343 619.137 875.686 616.909 875.686ZM651.593 875.686C648.508 875.686 645.852 874.957 643.624 873.5C641.396 872.044 639.682 870.037 638.482 867.48C637.282 864.924 636.682 862.003 636.682 858.718C636.682 855.376 637.297 852.427 638.525 849.87C639.767 847.3 641.495 845.293 643.709 843.85C645.937 842.394 648.537 841.665 651.507 841.665C653.821 841.665 655.906 842.094 657.763 842.951C659.62 843.808 661.141 845.007 662.326 846.55C663.512 848.092 664.247 849.892 664.533 851.948H659.477C659.091 850.449 658.234 849.121 656.906 847.964C655.592 846.793 653.821 846.207 651.593 846.207C649.622 846.207 647.894 846.721 646.409 847.75C644.938 848.764 643.788 850.199 642.959 852.056C642.145 853.898 641.738 856.062 641.738 858.547C641.738 861.089 642.138 863.303 642.938 865.188C643.752 867.073 644.895 868.537 646.366 869.58C647.851 870.622 649.594 871.144 651.593 871.144C652.907 871.144 654.1 870.915 655.171 870.458C656.242 870.001 657.149 869.344 657.891 868.487C658.634 867.63 659.163 866.602 659.477 865.402H664.533C664.247 867.345 663.54 869.094 662.412 870.651C661.298 872.194 659.82 873.422 657.977 874.336C656.149 875.236 654.021 875.686 651.593 875.686ZM686.235 842.094V846.378H669.182V842.094H686.235ZM674.152 834.21H679.208V865.574C679.208 867.002 679.415 868.073 679.829 868.787C680.257 869.487 680.8 869.958 681.457 870.201C682.128 870.43 682.835 870.544 683.578 870.544C684.135 870.544 684.592 870.515 684.949 870.458C685.306 870.387 685.592 870.33 685.806 870.287L686.834 874.829C686.492 874.957 686.013 875.086 685.399 875.214C684.785 875.357 684.007 875.428 683.064 875.428C681.636 875.428 680.236 875.121 678.865 874.507C677.508 873.893 676.38 872.958 675.48 871.701C674.595 870.444 674.152 868.859 674.152 866.945V834.21ZM693.84 875V842.094H698.896V875H693.84ZM696.411 836.609C695.425 836.609 694.575 836.274 693.861 835.602C693.161 834.931 692.812 834.124 692.812 833.182C692.812 832.239 693.161 831.432 693.861 830.761C694.575 830.09 695.425 829.754 696.411 829.754C697.396 829.754 698.239 830.09 698.939 830.761C699.653 831.432 700.01 832.239 700.01 833.182C700.01 834.124 699.653 834.931 698.939 835.602C698.239 836.274 697.396 836.609 696.411 836.609ZM721.524 875.686C718.553 875.686 715.947 874.979 713.705 873.565C711.477 872.151 709.734 870.173 708.477 867.63C707.235 865.088 706.614 862.117 706.614 858.718C706.614 855.291 707.235 852.298 708.477 849.742C709.734 847.185 711.477 845.2 713.705 843.786C715.947 842.372 718.553 841.665 721.524 841.665C724.495 841.665 727.094 842.372 729.322 843.786C731.565 845.2 733.307 847.185 734.55 849.742C735.806 852.298 736.435 855.291 736.435 858.718C736.435 862.117 735.806 865.088 734.55 867.63C733.307 870.173 731.565 872.151 729.322 873.565C727.094 874.979 724.495 875.686 721.524 875.686ZM721.524 871.144C723.781 871.144 725.637 870.565 727.094 869.409C728.551 868.252 729.629 866.731 730.329 864.845C731.029 862.96 731.379 860.918 731.379 858.718C731.379 856.519 731.029 854.469 730.329 852.57C729.629 850.67 728.551 849.135 727.094 847.964C725.637 846.793 723.781 846.207 721.524 846.207C719.268 846.207 717.411 846.793 715.954 847.964C714.497 849.135 713.419 850.67 712.719 852.57C712.019 854.469 711.669 856.519 711.669 858.718C711.669 860.918 712.019 862.96 712.719 864.845C713.419 866.731 714.497 868.252 715.954 869.409C717.411 870.565 719.268 871.144 721.524 871.144ZM749.208 855.205V875H744.153V842.094H749.037V847.235H749.466C750.237 845.564 751.408 844.222 752.979 843.208C754.55 842.179 756.578 841.665 759.063 841.665C761.291 841.665 763.241 842.122 764.912 843.036C766.583 843.936 767.883 845.307 768.811 847.15C769.739 848.978 770.203 851.292 770.203 854.091V875H765.147V854.434C765.147 851.849 764.476 849.835 763.134 848.392C761.791 846.935 759.949 846.207 757.606 846.207C755.993 846.207 754.55 846.557 753.279 847.257C752.022 847.957 751.029 848.978 750.301 850.32C749.573 851.663 749.208 853.291 749.208 855.205ZM809.778 875.686C806.807 875.686 804.2 874.979 801.958 873.565C799.73 872.151 797.988 870.173 796.731 867.63C795.488 865.088 794.867 862.117 794.867 858.718C794.867 855.291 795.488 852.298 796.731 849.742C797.988 847.185 799.73 845.2 801.958 843.786C804.2 842.372 806.807 841.665 809.778 841.665C812.748 841.665 815.348 842.372 817.576 843.786C819.818 845.2 821.56 847.185 822.803 849.742C824.06 852.298 824.688 855.291 824.688 858.718C824.688 862.117 824.06 865.088 822.803 867.63C821.56 870.173 819.818 872.151 817.576 873.565C815.348 874.979 812.748 875.686 809.778 875.686ZM809.778 871.144C812.034 871.144 813.891 870.565 815.348 869.409C816.804 868.252 817.883 866.731 818.583 864.845C819.282 862.96 819.632 860.918 819.632 858.718C819.632 856.519 819.282 854.469 818.583 852.57C817.883 850.67 816.804 849.135 815.348 847.964C813.891 846.793 812.034 846.207 809.778 846.207C807.521 846.207 805.664 846.793 804.208 847.964C802.751 849.135 801.672 850.67 800.973 852.57C800.273 854.469 799.923 856.519 799.923 858.718C799.923 860.918 800.273 862.96 800.973 864.845C801.672 866.731 802.751 868.252 804.208 869.409C805.664 870.565 807.521 871.144 809.778 871.144ZM847.06 842.094V846.378H829.321V842.094H847.06ZM834.634 875V837.552C834.634 835.667 835.077 834.096 835.962 832.839C836.848 831.582 837.997 830.639 839.411 830.011C840.825 829.383 842.318 829.068 843.889 829.068C845.131 829.068 846.146 829.168 846.931 829.368C847.717 829.568 848.302 829.754 848.688 829.925L847.231 834.296C846.974 834.21 846.617 834.103 846.16 833.974C845.717 833.846 845.131 833.781 844.403 833.781C842.732 833.781 841.525 834.203 840.783 835.045C840.054 835.888 839.69 837.124 839.69 838.752V875H834.634ZM871.113 875V842.094H875.997V847.235H876.426C877.111 845.479 878.218 844.115 879.746 843.143C881.274 842.158 883.11 841.665 885.252 841.665C887.423 841.665 889.23 842.158 890.672 843.143C892.129 844.115 893.264 845.479 894.078 847.235H894.421C895.264 845.536 896.528 844.186 898.213 843.186C899.899 842.172 901.919 841.665 904.276 841.665C907.218 841.665 909.625 842.586 911.496 844.429C913.367 846.257 914.302 849.106 914.302 852.977V875H909.246V852.977C909.246 850.549 908.582 848.814 907.254 847.771C905.926 846.728 904.362 846.207 902.562 846.207C900.248 846.207 898.456 846.907 897.185 848.307C895.914 849.692 895.278 851.449 895.278 853.577V875H890.137V852.463C890.137 850.592 889.53 849.085 888.316 847.942C887.102 846.785 885.538 846.207 883.624 846.207C882.31 846.207 881.082 846.557 879.939 847.257C878.811 847.957 877.897 848.928 877.197 850.17C876.511 851.399 876.169 852.82 876.169 854.434V875H871.113ZM933.23 875.771C931.144 875.771 929.252 875.378 927.552 874.593C925.853 873.793 924.503 872.643 923.503 871.144C922.504 869.63 922.004 867.802 922.004 865.659C922.004 863.774 922.375 862.246 923.118 861.075C923.86 859.889 924.853 858.961 926.096 858.29C927.338 857.619 928.709 857.119 930.209 856.79C931.723 856.447 933.244 856.176 934.772 855.976C936.772 855.719 938.393 855.526 939.635 855.398C940.892 855.255 941.806 855.019 942.377 854.691C942.963 854.362 943.256 853.791 943.256 852.977V852.805C943.256 850.692 942.677 849.049 941.52 847.878C940.378 846.707 938.643 846.121 936.315 846.121C933.901 846.121 932.008 846.65 930.637 847.707C929.266 848.764 928.302 849.892 927.745 851.092L922.946 849.378C923.803 847.378 924.946 845.821 926.374 844.707C927.817 843.579 929.388 842.794 931.087 842.351C932.801 841.894 934.486 841.665 936.143 841.665C937.2 841.665 938.414 841.794 939.785 842.051C941.171 842.294 942.506 842.801 943.791 843.572C945.091 844.343 946.169 845.507 947.026 847.064C947.883 848.621 948.312 850.706 948.312 853.32V875H943.256V870.544H942.999C942.656 871.258 942.085 872.022 941.285 872.836C940.485 873.65 939.421 874.343 938.093 874.914C936.764 875.486 935.143 875.771 933.23 875.771ZM934.001 871.229C936 871.229 937.686 870.837 939.057 870.051C940.442 869.266 941.485 868.252 942.185 867.009C942.899 865.767 943.256 864.46 943.256 863.089V858.461C943.042 858.718 942.57 858.954 941.842 859.168C941.128 859.368 940.299 859.547 939.357 859.704C938.428 859.847 937.521 859.975 936.636 860.089C935.765 860.189 935.058 860.275 934.515 860.346C933.201 860.518 931.973 860.796 930.83 861.182C929.702 861.553 928.788 862.117 928.088 862.874C927.402 863.617 927.06 864.631 927.06 865.917C927.06 867.673 927.71 869.001 929.009 869.901C930.323 870.787 931.987 871.229 934.001 871.229ZM962.596 855.205V875H957.54V842.094H962.424V847.235H962.853C963.624 845.564 964.795 844.222 966.366 843.208C967.937 842.179 969.965 841.665 972.45 841.665C974.678 841.665 976.628 842.122 978.299 843.036C979.97 843.936 981.27 845.307 982.198 847.15C983.126 848.978 983.591 851.292 983.591 854.091V875H978.535V854.434C978.535 851.849 977.863 849.835 976.521 848.392C975.178 846.935 973.336 846.207 970.994 846.207C969.38 846.207 967.937 846.557 966.666 847.257C965.409 847.957 964.417 848.978 963.688 850.32C962.96 851.663 962.596 853.291 962.596 855.205ZM994.907 887.34C994.05 887.34 993.286 887.268 992.615 887.126C991.944 886.997 991.48 886.869 991.223 886.74L992.508 882.284C993.736 882.598 994.822 882.712 995.764 882.627C996.707 882.541 997.542 882.12 998.271 881.363C999.014 880.62 999.692 879.413 1000.31 877.742L1001.25 875.171L989.08 842.094H994.565L1003.65 868.316H1003.99L1013.07 842.094H1018.56L1004.59 879.799C1003.96 881.498 1003.18 882.905 1002.26 884.019C1001.33 885.148 1000.25 885.983 999.021 886.526C997.807 887.068 996.436 887.34 994.907 887.34ZM1056.85 842.094V846.378H1039.11V842.094H1056.85ZM1044.43 875V837.552C1044.43 835.667 1044.87 834.096 1045.76 832.839C1046.64 831.582 1047.79 830.639 1049.2 830.011C1050.62 829.383 1052.11 829.068 1053.68 829.068C1054.92 829.068 1055.94 829.168 1056.72 829.368C1057.51 829.568 1058.1 829.754 1058.48 829.925L1057.02 834.296C1056.77 834.21 1056.41 834.103 1055.95 833.974C1055.51 833.846 1054.92 833.781 1054.2 833.781C1052.53 833.781 1051.32 834.203 1050.58 835.045C1049.85 835.888 1049.48 837.124 1049.48 838.752V875H1044.43ZM1084.68 861.546V842.094H1089.73V875H1084.68V869.43H1084.33C1083.56 871.101 1082.36 872.522 1080.73 873.693C1079.11 874.85 1077.05 875.428 1074.56 875.428C1072.51 875.428 1070.68 874.979 1069.08 874.079C1067.48 873.165 1066.22 871.794 1065.31 869.966C1064.4 868.123 1063.94 865.802 1063.94 863.003V842.094H1068.99V862.66C1068.99 865.06 1069.67 866.973 1071.01 868.402C1072.37 869.83 1074.09 870.544 1076.19 870.544C1077.45 870.544 1078.73 870.223 1080.03 869.58C1081.34 868.937 1082.44 867.952 1083.33 866.623C1084.23 865.295 1084.68 863.603 1084.68 861.546ZM1104.05 855.205V875H1098.99V842.094H1103.88V847.235H1104.31C1105.08 845.564 1106.25 844.222 1107.82 843.208C1109.39 842.179 1111.42 841.665 1113.9 841.665C1116.13 841.665 1118.08 842.122 1119.75 843.036C1121.42 843.936 1122.72 845.307 1123.65 847.15C1124.58 848.978 1125.04 851.292 1125.04 854.091V875H1119.99V854.434C1119.99 851.849 1119.32 849.835 1117.97 848.392C1116.63 846.935 1114.79 846.207 1112.45 846.207C1110.83 846.207 1109.39 846.557 1108.12 847.257C1106.86 847.957 1105.87 848.978 1105.14 850.32C1104.41 851.663 1104.05 853.291 1104.05 855.205ZM1141.82 869.001L1141.48 871.315C1141.24 872.943 1140.87 874.686 1140.37 876.542C1139.88 878.399 1139.37 880.149 1138.85 881.791C1138.32 883.434 1137.88 884.74 1137.54 885.712H1133.68C1133.87 884.798 1134.11 883.591 1134.41 882.091C1134.71 880.591 1135.01 878.913 1135.31 877.057C1135.62 875.214 1135.88 873.329 1136.08 871.401L1136.34 869.001H1141.82ZM1191.47 849.463L1186.92 850.749C1186.64 849.992 1186.22 849.256 1185.66 848.542C1185.12 847.814 1184.38 847.214 1183.43 846.743C1182.49 846.271 1181.28 846.036 1179.81 846.036C1177.8 846.036 1176.12 846.5 1174.78 847.428C1173.45 848.342 1172.79 849.506 1172.79 850.92C1172.79 852.177 1173.24 853.17 1174.16 853.898C1175.07 854.626 1176.5 855.233 1178.44 855.719L1183.33 856.919C1186.27 857.633 1188.46 858.725 1189.9 860.196C1191.35 861.653 1192.07 863.531 1192.07 865.831C1192.07 867.716 1191.52 869.401 1190.44 870.887C1189.37 872.372 1187.87 873.543 1185.94 874.4C1184.01 875.257 1181.77 875.686 1179.21 875.686C1175.86 875.686 1173.08 874.957 1170.88 873.5C1168.68 872.044 1167.29 869.916 1166.7 867.116L1171.5 865.917C1171.96 867.687 1172.82 869.016 1174.09 869.901C1175.38 870.787 1177.06 871.229 1179.13 871.229C1181.48 871.229 1183.35 870.73 1184.74 869.73C1186.14 868.716 1186.84 867.502 1186.84 866.088C1186.84 864.945 1186.44 863.988 1185.64 863.217C1184.84 862.432 1183.61 861.846 1181.95 861.46L1176.47 860.175C1173.46 859.461 1171.24 858.354 1169.83 856.854C1168.43 855.341 1167.73 853.448 1167.73 851.177C1167.73 849.321 1168.25 847.678 1169.29 846.25C1170.35 844.822 1171.79 843.7 1173.6 842.886C1175.43 842.072 1177.5 841.665 1179.81 841.665C1183.07 841.665 1185.63 842.379 1187.48 843.808C1189.35 845.236 1190.68 847.121 1191.47 849.463ZM1199.68 875V842.094H1204.56V847.235H1204.99C1205.68 845.479 1206.78 844.115 1208.31 843.143C1209.84 842.158 1211.67 841.665 1213.82 841.665C1215.99 841.665 1217.79 842.158 1219.24 843.143C1220.69 844.115 1221.83 845.479 1222.64 847.235H1222.99C1223.83 845.536 1225.09 844.186 1226.78 843.186C1228.46 842.172 1230.48 841.665 1232.84 841.665C1235.78 841.665 1238.19 842.586 1240.06 844.429C1241.93 846.257 1242.87 849.106 1242.87 852.977V875H1237.81V852.977C1237.81 850.549 1237.15 848.814 1235.82 847.771C1234.49 846.728 1232.93 846.207 1231.13 846.207C1228.81 846.207 1227.02 846.907 1225.75 848.307C1224.48 849.692 1223.84 851.449 1223.84 853.577V875H1218.7V852.463C1218.7 850.592 1218.09 849.085 1216.88 847.942C1215.67 846.785 1214.1 846.207 1212.19 846.207C1210.87 846.207 1209.65 846.557 1208.5 847.257C1207.38 847.957 1206.46 848.928 1205.76 850.17C1205.08 851.399 1204.73 852.82 1204.73 854.434V875H1199.68ZM1261.79 875.771C1259.71 875.771 1257.82 875.378 1256.12 874.593C1254.42 873.793 1253.07 872.643 1252.07 871.144C1251.07 869.63 1250.57 867.802 1250.57 865.659C1250.57 863.774 1250.94 862.246 1251.68 861.075C1252.42 859.889 1253.42 858.961 1254.66 858.29C1255.9 857.619 1257.27 857.119 1258.77 856.79C1260.29 856.447 1261.81 856.176 1263.34 855.976C1265.34 855.719 1266.96 855.526 1268.2 855.398C1269.46 855.255 1270.37 855.019 1270.94 854.691C1271.53 854.362 1271.82 853.791 1271.82 852.977V852.805C1271.82 850.692 1271.24 849.049 1270.08 847.878C1268.94 846.707 1267.21 846.121 1264.88 846.121C1262.47 846.121 1260.57 846.65 1259.2 847.707C1257.83 848.764 1256.87 849.892 1256.31 851.092L1251.51 849.378C1252.37 847.378 1253.51 845.821 1254.94 844.707C1256.38 843.579 1257.95 842.794 1259.65 842.351C1261.37 841.894 1263.05 841.665 1264.71 841.665C1265.76 841.665 1266.98 841.794 1268.35 842.051C1269.73 842.294 1271.07 842.801 1272.36 843.572C1273.66 844.343 1274.73 845.507 1275.59 847.064C1276.45 848.621 1276.88 850.706 1276.88 853.32V875H1271.82V870.544H1271.56C1271.22 871.258 1270.65 872.022 1269.85 872.836C1269.05 873.65 1267.99 874.343 1266.66 874.914C1265.33 875.486 1263.71 875.771 1261.79 875.771ZM1262.57 871.229C1264.56 871.229 1266.25 870.837 1267.62 870.051C1269.01 869.266 1270.05 868.252 1270.75 867.009C1271.46 865.767 1271.82 864.46 1271.82 863.089V858.461C1271.61 858.718 1271.13 858.954 1270.41 859.168C1269.69 859.368 1268.86 859.547 1267.92 859.704C1266.99 859.847 1266.09 859.975 1265.2 860.089C1264.33 860.189 1263.62 860.275 1263.08 860.346C1261.77 860.518 1260.54 860.796 1259.39 861.182C1258.27 861.553 1257.35 862.117 1256.65 862.874C1255.97 863.617 1255.62 864.631 1255.62 865.917C1255.62 867.673 1256.27 869.001 1257.57 869.901C1258.89 870.787 1260.55 871.229 1262.57 871.229ZM1291.16 831.125V875H1286.1V831.125H1291.16ZM1305.48 831.125V875H1300.42V831.125H1305.48ZM1331.7 875V842.094H1336.59V847.235H1337.02C1337.7 845.479 1338.81 844.115 1340.34 843.143C1341.87 842.158 1343.7 841.665 1345.84 841.665C1348.01 841.665 1349.82 842.158 1351.26 843.143C1352.72 844.115 1353.86 845.479 1354.67 847.235H1355.01C1355.85 845.536 1357.12 844.186 1358.8 843.186C1360.49 842.172 1362.51 841.665 1364.87 841.665C1367.81 841.665 1370.22 842.586 1372.09 844.429C1373.96 846.257 1374.89 849.106 1374.89 852.977V875H1369.84V852.977C1369.84 850.549 1369.17 848.814 1367.84 847.771C1366.52 846.728 1364.95 846.207 1363.15 846.207C1360.84 846.207 1359.05 846.907 1357.78 848.307C1356.5 849.692 1355.87 851.449 1355.87 853.577V875H1350.73V852.463C1350.73 850.592 1350.12 849.085 1348.91 847.942C1347.69 846.785 1346.13 846.207 1344.21 846.207C1342.9 846.207 1341.67 846.557 1340.53 847.257C1339.4 847.957 1338.49 848.928 1337.79 850.17C1337.1 851.399 1336.76 852.82 1336.76 854.434V875H1331.7ZM1393.82 875.771C1391.74 875.771 1389.84 875.378 1388.14 874.593C1386.44 873.793 1385.09 872.643 1384.09 871.144C1383.09 869.63 1382.59 867.802 1382.59 865.659C1382.59 863.774 1382.97 862.246 1383.71 861.075C1384.45 859.889 1385.44 858.961 1386.69 858.29C1387.93 857.619 1389.3 857.119 1390.8 856.79C1392.31 856.447 1393.84 856.176 1395.36 855.976C1397.36 855.719 1398.98 855.526 1400.23 855.398C1401.48 855.255 1402.4 855.019 1402.97 854.691C1403.55 854.362 1403.85 853.791 1403.85 852.977V852.805C1403.85 850.692 1403.27 849.049 1402.11 847.878C1400.97 846.707 1399.23 846.121 1396.91 846.121C1394.49 846.121 1392.6 846.65 1391.23 847.707C1389.86 848.764 1388.89 849.892 1388.34 851.092L1383.54 849.378C1384.39 847.378 1385.54 845.821 1386.97 844.707C1388.41 843.579 1389.98 842.794 1391.68 842.351C1393.39 841.894 1395.08 841.665 1396.73 841.665C1397.79 841.665 1399.01 841.794 1400.38 842.051C1401.76 842.294 1403.1 842.801 1404.38 843.572C1405.68 844.343 1406.76 845.507 1407.62 847.064C1408.47 848.621 1408.9 850.706 1408.9 853.32V875H1403.85V870.544H1403.59C1403.25 871.258 1402.68 872.022 1401.88 872.836C1401.08 873.65 1400.01 874.343 1398.68 874.914C1397.36 875.486 1395.73 875.771 1393.82 875.771ZM1394.59 871.229C1396.59 871.229 1398.28 870.837 1399.65 870.051C1401.03 869.266 1402.08 868.252 1402.78 867.009C1403.49 865.767 1403.85 864.46 1403.85 863.089V858.461C1403.63 858.718 1403.16 858.954 1402.43 859.168C1401.72 859.368 1400.89 859.547 1399.95 859.704C1399.02 859.847 1398.11 859.975 1397.23 860.089C1396.36 860.189 1395.65 860.275 1395.11 860.346C1393.79 860.518 1392.56 860.796 1391.42 861.182C1390.29 861.553 1389.38 862.117 1388.68 862.874C1387.99 863.617 1387.65 864.631 1387.65 865.917C1387.65 867.673 1388.3 869.001 1389.6 869.901C1390.91 870.787 1392.58 871.229 1394.59 871.229ZM1418.13 887.34V842.094H1423.02V847.321H1423.62C1423.99 846.75 1424.5 846.021 1425.16 845.136C1425.83 844.236 1426.79 843.436 1428.03 842.736C1429.29 842.022 1430.98 841.665 1433.13 841.665C1435.9 841.665 1438.34 842.358 1440.45 843.743C1442.57 845.129 1444.22 847.093 1445.4 849.635C1446.59 852.177 1447.18 855.176 1447.18 858.633C1447.18 862.117 1446.59 865.138 1445.4 867.695C1444.22 870.237 1442.57 872.208 1440.48 873.607C1438.38 874.993 1435.96 875.686 1433.21 875.686C1431.1 875.686 1429.41 875.336 1428.14 874.636C1426.86 873.922 1425.89 873.115 1425.2 872.215C1424.52 871.301 1423.99 870.544 1423.62 869.944H1423.19V887.34H1418.13ZM1423.1 858.547C1423.1 861.032 1423.47 863.224 1424.19 865.124C1424.92 867.009 1425.99 868.487 1427.39 869.558C1428.79 870.615 1430.5 871.144 1432.53 871.144C1434.64 871.144 1436.4 870.587 1437.82 869.473C1439.25 868.344 1440.32 866.831 1441.03 864.931C1441.76 863.017 1442.13 860.889 1442.13 858.547C1442.13 856.233 1441.77 854.148 1441.05 852.291C1440.35 850.42 1439.29 848.942 1437.86 847.857C1436.45 846.757 1434.67 846.207 1432.53 846.207C1430.47 846.207 1428.74 846.728 1427.34 847.771C1425.94 848.799 1424.89 850.242 1424.17 852.098C1423.46 853.941 1423.1 856.09 1423.1 858.547ZM1478.2 849.463L1473.66 850.749C1473.37 849.992 1472.95 849.256 1472.4 848.542C1471.85 847.814 1471.11 847.214 1470.17 846.743C1469.23 846.271 1468.02 846.036 1466.55 846.036C1464.53 846.036 1462.86 846.5 1461.51 847.428C1460.18 848.342 1459.52 849.506 1459.52 850.92C1459.52 852.177 1459.98 853.17 1460.89 853.898C1461.81 854.626 1463.23 855.233 1465.18 855.719L1470.06 856.919C1473 857.633 1475.2 858.725 1476.64 860.196C1478.08 861.653 1478.8 863.531 1478.8 865.831C1478.8 867.716 1478.26 869.401 1477.17 870.887C1476.1 872.372 1474.6 873.543 1472.67 874.4C1470.75 875.257 1468.5 875.686 1465.95 875.686C1462.59 875.686 1459.81 874.957 1457.61 873.5C1455.41 872.044 1454.02 869.916 1453.44 867.116L1458.24 865.917C1458.69 867.687 1459.56 869.016 1460.83 869.901C1462.11 870.787 1463.79 871.229 1465.86 871.229C1468.22 871.229 1470.09 870.73 1471.47 869.73C1472.87 868.716 1473.57 867.502 1473.57 866.088C1473.57 864.945 1473.17 863.988 1472.37 863.217C1471.57 862.432 1470.35 861.846 1468.69 861.46L1463.21 860.175C1460.19 859.461 1457.98 858.354 1456.56 856.854C1455.16 855.341 1454.46 853.448 1454.46 851.177C1454.46 849.321 1454.99 847.678 1456.03 846.25C1457.09 844.822 1458.52 843.7 1460.33 842.886C1462.16 842.072 1464.23 841.665 1466.55 841.665C1469.8 841.665 1472.36 842.379 1474.22 843.808C1476.09 845.236 1477.42 847.121 1478.2 849.463ZM1510.84 875L1500.81 842.094H1506.12L1513.23 867.288H1513.58L1520.6 842.094H1526L1532.94 867.202H1533.29L1540.4 842.094H1545.71L1535.69 875H1530.72L1523.52 849.72H1523L1515.81 875H1510.84ZM1552.4 875V842.094H1557.45V875H1552.4ZM1554.97 836.609C1553.98 836.609 1553.13 836.274 1552.42 835.602C1551.72 834.931 1551.37 834.124 1551.37 833.182C1551.37 832.239 1551.72 831.432 1552.42 830.761C1553.13 830.09 1553.98 829.754 1554.97 829.754C1555.95 829.754 1556.8 830.09 1557.5 830.761C1558.21 831.432 1558.57 832.239 1558.57 833.182C1558.57 834.124 1558.21 834.931 1557.5 835.602C1556.8 836.274 1555.95 836.609 1554.97 836.609ZM1581.02 842.094V846.378H1563.97V842.094H1581.02ZM1568.94 834.21H1574V865.574C1574 867.002 1574.2 868.073 1574.62 868.787C1575.05 869.487 1575.59 869.958 1576.25 870.201C1576.92 870.43 1577.62 870.544 1578.37 870.544C1578.92 870.544 1579.38 870.515 1579.74 870.458C1580.09 870.387 1580.38 870.33 1580.59 870.287L1581.62 874.829C1581.28 874.957 1580.8 875.086 1580.19 875.214C1579.57 875.357 1578.8 875.428 1577.85 875.428C1576.42 875.428 1575.02 875.121 1573.65 874.507C1572.3 873.893 1571.17 872.958 1570.27 871.701C1569.38 870.444 1568.94 868.859 1568.94 866.945V834.21ZM1594.39 855.205V875H1589.34V831.125H1594.39V847.235H1594.82C1595.59 845.536 1596.75 844.186 1598.29 843.186C1599.85 842.172 1601.92 841.665 1604.5 841.665C1606.75 841.665 1608.71 842.115 1610.39 843.015C1612.08 843.9 1613.39 845.264 1614.32 847.107C1615.26 848.935 1615.73 851.263 1615.73 854.091V875H1610.67V854.434C1610.67 851.82 1609.99 849.799 1608.64 848.371C1607.3 846.928 1605.43 846.207 1603.05 846.207C1601.39 846.207 1599.9 846.557 1598.59 847.257C1597.29 847.957 1596.26 848.978 1595.51 850.32C1594.76 851.663 1594.39 853.291 1594.39 855.205ZM1641.95 875V842.094H1646.83V847.235H1647.26C1647.94 845.479 1649.05 844.115 1650.58 843.143C1652.11 842.158 1653.94 841.665 1656.09 841.665C1658.26 841.665 1660.06 842.158 1661.51 843.143C1662.96 844.115 1664.1 845.479 1664.91 847.235H1665.25C1666.1 845.536 1667.36 844.186 1669.05 843.186C1670.73 842.172 1672.75 841.665 1675.11 841.665C1678.05 841.665 1680.46 842.586 1682.33 844.429C1684.2 846.257 1685.14 849.106 1685.14 852.977V875H1680.08V852.977C1680.08 850.549 1679.42 848.814 1678.09 847.771C1676.76 846.728 1675.19 846.207 1673.4 846.207C1671.08 846.207 1669.29 846.907 1668.02 848.307C1666.75 849.692 1666.11 851.449 1666.11 853.577V875H1660.97V852.463C1660.97 850.592 1660.36 849.085 1659.15 847.942C1657.93 846.785 1656.37 846.207 1654.46 846.207C1653.14 846.207 1651.91 846.557 1650.77 847.257C1649.64 847.957 1648.73 848.928 1648.03 850.17C1647.34 851.399 1647 852.82 1647 854.434V875H1641.95ZM1694.38 875V842.094H1699.44V875H1694.38ZM1696.95 836.609C1695.96 836.609 1695.12 836.274 1694.4 835.602C1693.7 834.931 1693.35 834.124 1693.35 833.182C1693.35 832.239 1693.7 831.432 1694.4 830.761C1695.12 830.09 1695.96 829.754 1696.95 829.754C1697.94 829.754 1698.78 830.09 1699.48 830.761C1700.19 831.432 1700.55 832.239 1700.55 833.182C1700.55 834.124 1700.19 834.931 1699.48 835.602C1698.78 836.274 1697.94 836.609 1696.95 836.609ZM1713.75 855.205V875H1708.7V842.094H1713.58V847.235H1714.01C1714.78 845.564 1715.95 844.222 1717.52 843.208C1719.09 842.179 1721.12 841.665 1723.61 841.665C1725.83 841.665 1727.78 842.122 1729.45 843.036C1731.13 843.936 1732.43 845.307 1733.35 847.15C1734.28 848.978 1734.75 851.292 1734.75 854.091V875H1729.69V854.434C1729.69 851.849 1729.02 849.835 1727.68 848.392C1726.33 846.935 1724.49 846.207 1722.15 846.207C1720.54 846.207 1719.09 846.557 1717.82 847.257C1716.57 847.957 1715.57 848.978 1714.84 850.32C1714.12 851.663 1713.75 853.291 1713.75 855.205ZM1743.99 875V842.094H1749.04V875H1743.99ZM1746.56 836.609C1745.57 836.609 1744.72 836.274 1744.01 835.602C1743.31 834.931 1742.96 834.124 1742.96 833.182C1742.96 832.239 1743.31 831.432 1744.01 830.761C1744.72 830.09 1745.57 829.754 1746.56 829.754C1747.54 829.754 1748.38 830.09 1749.08 830.761C1749.8 831.432 1750.16 832.239 1750.16 833.182C1750.16 834.124 1749.8 834.931 1749.08 835.602C1748.38 836.274 1747.54 836.609 1746.56 836.609ZM1771.58 888.025C1769.14 888.025 1767.04 887.711 1765.29 887.083C1763.53 886.469 1762.06 885.655 1760.89 884.641C1759.74 883.641 1758.82 882.57 1758.13 881.427L1762.16 878.599C1762.61 879.199 1763.19 879.885 1763.89 880.656C1764.59 881.441 1765.55 882.12 1766.76 882.691C1767.99 883.277 1769.6 883.569 1771.58 883.569C1774.24 883.569 1776.43 882.927 1778.16 881.641C1779.89 880.356 1780.75 878.342 1780.75 875.6V868.916H1780.32C1779.95 869.516 1779.42 870.258 1778.74 871.144C1778.07 872.015 1777.1 872.793 1775.83 873.479C1774.57 874.15 1772.87 874.486 1770.73 874.486C1768.07 874.486 1765.69 873.857 1763.57 872.601C1761.47 871.344 1759.81 869.516 1758.58 867.116C1757.37 864.717 1756.76 861.803 1756.76 858.375C1756.76 855.005 1757.35 852.07 1758.54 849.57C1759.72 847.057 1761.37 845.114 1763.49 843.743C1765.6 842.358 1768.04 841.665 1770.81 841.665C1772.96 841.665 1774.65 842.022 1775.91 842.736C1777.18 843.436 1778.15 844.236 1778.83 845.136C1779.51 846.021 1780.04 846.75 1780.41 847.321H1780.92V842.094H1785.81V875.943C1785.81 878.771 1785.17 881.07 1783.88 882.841C1782.61 884.626 1780.9 885.933 1778.74 886.761C1776.6 887.604 1774.21 888.025 1771.58 888.025ZM1771.41 869.944C1773.44 869.944 1775.15 869.48 1776.55 868.552C1777.95 867.623 1779.02 866.288 1779.75 864.545C1780.47 862.803 1780.84 860.718 1780.84 858.29C1780.84 855.919 1780.48 853.827 1779.77 852.013C1779.05 850.199 1778 848.778 1776.6 847.75C1775.2 846.721 1773.47 846.207 1771.41 846.207C1769.27 846.207 1767.48 846.75 1766.06 847.835C1764.64 848.921 1763.58 850.377 1762.86 852.206C1762.16 854.034 1761.81 856.062 1761.81 858.29C1761.81 860.575 1762.17 862.596 1762.89 864.353C1763.61 866.095 1764.69 867.466 1766.1 868.466C1767.53 869.451 1769.3 869.944 1771.41 869.944ZM1804.75 875.771C1802.66 875.771 1800.77 875.378 1799.07 874.593C1797.37 873.793 1796.02 872.643 1795.02 871.144C1794.02 869.63 1793.52 867.802 1793.52 865.659C1793.52 863.774 1793.89 862.246 1794.64 861.075C1795.38 859.889 1796.37 858.961 1797.61 858.29C1798.86 857.619 1800.23 857.119 1801.73 856.79C1803.24 856.447 1804.76 856.176 1806.29 855.976C1808.29 855.719 1809.91 855.526 1811.15 855.398C1812.41 855.255 1813.32 855.019 1813.9 854.691C1814.48 854.362 1814.77 853.791 1814.77 852.977V852.805C1814.77 850.692 1814.2 849.049 1813.04 847.878C1811.9 846.707 1810.16 846.121 1807.83 846.121C1805.42 846.121 1803.53 846.65 1802.16 847.707C1800.78 848.764 1799.82 849.892 1799.26 851.092L1794.46 849.378C1795.32 847.378 1796.46 845.821 1797.89 844.707C1799.33 843.579 1800.91 842.794 1802.6 842.351C1804.32 841.894 1806 841.665 1807.66 841.665C1808.72 841.665 1809.93 841.794 1811.3 842.051C1812.69 842.294 1814.02 842.801 1815.31 843.572C1816.61 844.343 1817.69 845.507 1818.54 847.064C1819.4 848.621 1819.83 850.706 1819.83 853.32V875H1814.77V870.544H1814.52C1814.17 871.258 1813.6 872.022 1812.8 872.836C1812 873.65 1810.94 874.343 1809.61 874.914C1808.28 875.486 1806.66 875.771 1804.75 875.771ZM1805.52 871.229C1807.52 871.229 1809.2 870.837 1810.57 870.051C1811.96 869.266 1813 868.252 1813.7 867.009C1814.42 865.767 1814.77 864.46 1814.77 863.089V858.461C1814.56 858.718 1814.09 858.954 1813.36 859.168C1812.65 859.368 1811.82 859.547 1810.87 859.704C1809.95 859.847 1809.04 859.975 1808.15 860.089C1807.28 860.189 1806.58 860.275 1806.03 860.346C1804.72 860.518 1803.49 860.796 1802.35 861.182C1801.22 861.553 1800.31 862.117 1799.61 862.874C1798.92 863.617 1798.58 864.631 1798.58 865.917C1798.58 867.673 1799.23 869.001 1800.53 869.901C1801.84 870.787 1803.5 871.229 1805.52 871.229ZM1829.06 875V842.094H1833.94V847.235H1834.37C1835.06 845.479 1836.16 844.115 1837.69 843.143C1839.22 842.158 1841.05 841.665 1843.2 841.665C1845.37 841.665 1847.17 842.158 1848.62 843.143C1850.07 844.115 1851.21 845.479 1852.02 847.235H1852.37C1853.21 845.536 1854.47 844.186 1856.16 843.186C1857.84 842.172 1859.86 841.665 1862.22 841.665C1865.16 841.665 1867.57 842.586 1869.44 844.429C1871.31 846.257 1872.25 849.106 1872.25 852.977V875H1867.19V852.977C1867.19 850.549 1866.53 848.814 1865.2 847.771C1863.87 846.728 1862.31 846.207 1860.51 846.207C1858.19 846.207 1856.4 846.907 1855.13 848.307C1853.86 849.692 1853.22 851.449 1853.22 853.577V875H1848.08V852.463C1848.08 850.592 1847.47 849.085 1846.26 847.942C1845.05 846.785 1843.48 846.207 1841.57 846.207C1840.25 846.207 1839.03 846.557 1837.88 847.257C1836.76 847.957 1835.84 848.928 1835.14 850.17C1834.46 851.399 1834.11 852.82 1834.11 854.434V875H1829.06ZM1895.29 875.686C1892.12 875.686 1889.38 874.986 1887.08 873.586C1884.8 872.172 1883.03 870.201 1881.79 867.673C1880.56 865.131 1879.95 862.175 1879.95 858.804C1879.95 855.433 1880.56 852.463 1881.79 849.892C1883.03 847.307 1884.76 845.293 1886.98 843.85C1889.2 842.394 1891.8 841.665 1894.77 841.665C1896.49 841.665 1898.18 841.951 1899.85 842.522C1901.52 843.094 1903.04 844.022 1904.41 845.307C1905.79 846.578 1906.88 848.264 1907.69 850.363C1908.51 852.463 1908.91 855.048 1908.91 858.118V860.261H1883.55V855.89H1903.77C1903.77 854.034 1903.4 852.377 1902.66 850.92C1901.93 849.463 1900.89 848.314 1899.53 847.471C1898.19 846.628 1896.6 846.207 1894.77 846.207C1892.76 846.207 1891.02 846.707 1889.55 847.707C1888.09 848.692 1886.97 849.978 1886.18 851.563C1885.4 853.148 1885 854.848 1885 856.662V859.575C1885 862.06 1885.43 864.167 1886.29 865.895C1887.16 867.609 1888.37 868.916 1889.91 869.816C1891.45 870.701 1893.25 871.144 1895.29 871.144C1896.62 871.144 1897.82 870.958 1898.89 870.587C1899.97 870.201 1900.91 869.63 1901.69 868.873C1902.48 868.102 1903.09 867.145 1903.51 866.002L1908.4 867.373C1907.88 869.03 1907.02 870.487 1905.81 871.744C1904.59 872.986 1903.09 873.957 1901.31 874.657C1899.52 875.343 1897.52 875.686 1895.29 875.686ZM1939.91 849.463L1935.37 850.749C1935.09 849.992 1934.66 849.256 1934.11 848.542C1933.56 847.814 1932.82 847.214 1931.88 846.743C1930.94 846.271 1929.73 846.036 1928.26 846.036C1926.24 846.036 1924.57 846.5 1923.22 847.428C1921.9 848.342 1921.23 849.506 1921.23 850.92C1921.23 852.177 1921.69 853.17 1922.6 853.898C1923.52 854.626 1924.94 855.233 1926.89 855.719L1931.77 856.919C1934.71 857.633 1936.91 858.725 1938.35 860.196C1939.79 861.653 1940.51 863.531 1940.51 865.831C1940.51 867.716 1939.97 869.401 1938.88 870.887C1937.81 872.372 1936.31 873.543 1934.39 874.4C1932.46 875.257 1930.21 875.686 1927.66 875.686C1924.3 875.686 1921.52 874.957 1919.32 873.5C1917.13 872.044 1915.73 869.916 1915.15 867.116L1919.95 865.917C1920.4 867.687 1921.27 869.016 1922.54 869.901C1923.82 870.787 1925.5 871.229 1927.57 871.229C1929.93 871.229 1931.8 870.73 1933.19 869.73C1934.59 868.716 1935.29 867.502 1935.29 866.088C1935.29 864.945 1934.89 863.988 1934.09 863.217C1933.29 862.432 1932.06 861.846 1930.4 861.46L1924.92 860.175C1921.9 859.461 1919.69 858.354 1918.27 856.854C1916.88 855.341 1916.18 853.448 1916.18 851.177C1916.18 849.321 1916.7 847.678 1917.74 846.25C1918.8 844.822 1920.23 843.7 1922.05 842.886C1923.87 842.072 1925.94 841.665 1928.26 841.665C1931.51 841.665 1934.07 842.379 1935.93 843.808C1937.8 845.236 1939.13 847.121 1939.91 849.463ZM1965.09 875V842.094H1970.15V875H1965.09ZM1967.66 836.609C1966.68 836.609 1965.83 836.274 1965.11 835.602C1964.41 834.931 1964.06 834.124 1964.06 833.182C1964.06 832.239 1964.41 831.432 1965.11 830.761C1965.83 830.09 1966.68 829.754 1967.66 829.754C1968.65 829.754 1969.49 830.09 1970.19 830.761C1970.9 831.432 1971.26 832.239 1971.26 833.182C1971.26 834.124 1970.9 834.931 1970.19 835.602C1969.49 836.274 1968.65 836.609 1967.66 836.609ZM1984.46 855.205V875H1979.41V842.094H1984.29V847.235H1984.72C1985.49 845.564 1986.66 844.222 1988.23 843.208C1989.8 842.179 1991.83 841.665 1994.32 841.665C1996.55 841.665 1998.49 842.122 2000.17 843.036C2001.84 843.936 2003.14 845.307 2004.06 847.15C2004.99 848.978 2005.46 851.292 2005.46 854.091V875H2000.4V854.434C2000.4 851.849 1999.73 849.835 1998.39 848.392C1997.04 846.935 1995.2 846.207 1992.86 846.207C1991.25 846.207 1989.8 846.557 1988.53 847.257C1987.28 847.957 1986.28 848.978 1985.55 850.32C1984.83 851.663 1984.46 853.291 1984.46 855.205ZM2022.24 869.001L2021.89 871.315C2021.65 872.943 2021.28 874.686 2020.78 876.542C2020.29 878.399 2019.79 880.149 2019.26 881.791C2018.73 883.434 2018.3 884.74 2017.95 885.712H2014.1C2014.28 884.798 2014.52 883.591 2014.82 882.091C2015.12 880.591 2015.42 878.913 2015.72 877.057C2016.04 875.214 2016.3 873.329 2016.5 871.401L2016.75 869.001H2022.24ZM2071.88 849.463L2067.34 850.749C2067.05 849.992 2066.63 849.256 2066.07 848.542C2065.53 847.814 2064.79 847.214 2063.85 846.743C2062.9 846.271 2061.7 846.036 2060.23 846.036C2058.21 846.036 2056.53 846.5 2055.19 847.428C2053.86 848.342 2053.2 849.506 2053.2 850.92C2053.2 852.177 2053.66 853.17 2054.57 853.898C2055.48 854.626 2056.91 855.233 2058.85 855.719L2063.74 856.919C2066.68 857.633 2068.87 858.725 2070.32 860.196C2071.76 861.653 2072.48 863.531 2072.48 865.831C2072.48 867.716 2071.94 869.401 2070.85 870.887C2069.78 872.372 2068.28 873.543 2066.35 874.4C2064.42 875.257 2062.18 875.686 2059.63 875.686C2056.27 875.686 2053.49 874.957 2051.29 873.5C2049.09 872.044 2047.7 869.916 2047.11 867.116L2051.91 865.917C2052.37 867.687 2053.23 869.016 2054.51 869.901C2055.79 870.787 2057.47 871.229 2059.54 871.229C2061.9 871.229 2063.77 870.73 2065.15 869.73C2066.55 868.716 2067.25 867.502 2067.25 866.088C2067.25 864.945 2066.85 863.988 2066.05 863.217C2065.25 862.432 2064.03 861.846 2062.37 861.46L2056.88 860.175C2053.87 859.461 2051.66 858.354 2050.24 856.854C2048.84 855.341 2048.14 853.448 2048.14 851.177C2048.14 849.321 2048.66 847.678 2049.71 846.25C2050.76 844.822 2052.2 843.7 2054.01 842.886C2055.84 842.072 2057.91 841.665 2060.23 841.665C2063.48 841.665 2066.04 842.379 2067.9 843.808C2069.77 845.236 2071.09 847.121 2071.88 849.463ZM2100.83 861.546V842.094H2105.88V875H2100.83V869.43H2100.49C2099.71 871.101 2098.51 872.522 2096.89 873.693C2095.26 874.85 2093.2 875.428 2090.72 875.428C2088.66 875.428 2086.83 874.979 2085.23 874.079C2083.63 873.165 2082.38 871.794 2081.46 869.966C2080.55 868.123 2080.09 865.802 2080.09 863.003V842.094H2085.15V862.66C2085.15 865.06 2085.82 866.973 2087.16 868.402C2088.52 869.83 2090.25 870.544 2092.34 870.544C2093.6 870.544 2094.88 870.223 2096.18 869.58C2097.49 868.937 2098.59 867.952 2099.48 866.623C2100.38 865.295 2100.83 863.603 2100.83 861.546ZM2128.51 875.686C2125.43 875.686 2122.77 874.957 2120.54 873.5C2118.32 872.044 2116.6 870.037 2115.4 867.48C2114.2 864.924 2113.6 862.003 2113.6 858.718C2113.6 855.376 2114.22 852.427 2115.44 849.87C2116.69 847.3 2118.42 845.293 2120.63 843.85C2122.86 842.394 2125.46 841.665 2128.43 841.665C2130.74 841.665 2132.83 842.094 2134.68 842.951C2136.54 843.808 2138.06 845.007 2139.25 846.55C2140.43 848.092 2141.17 849.892 2141.45 851.948H2136.4C2136.01 850.449 2135.15 849.121 2133.83 847.964C2132.51 846.793 2130.74 846.207 2128.51 846.207C2126.54 846.207 2124.81 846.721 2123.33 847.75C2121.86 848.764 2120.71 850.199 2119.88 852.056C2119.07 853.898 2118.66 856.062 2118.66 858.547C2118.66 861.089 2119.06 863.303 2119.86 865.188C2120.67 867.073 2121.81 868.537 2123.29 869.58C2124.77 870.622 2126.51 871.144 2128.51 871.144C2129.83 871.144 2131.02 870.915 2132.09 870.458C2133.16 870.001 2134.07 869.344 2134.81 868.487C2135.55 867.63 2136.08 866.602 2136.4 865.402H2141.45C2141.17 867.345 2140.46 869.094 2139.33 870.651C2138.22 872.194 2136.74 873.422 2134.9 874.336C2133.07 875.236 2130.94 875.686 2128.51 875.686ZM2153.9 855.205V875H2148.84V831.125H2153.9V847.235H2154.33C2155.1 845.536 2156.26 844.186 2157.8 843.186C2159.36 842.172 2161.43 841.665 2164.01 841.665C2166.25 841.665 2168.22 842.115 2169.9 843.015C2171.59 843.9 2172.9 845.264 2173.82 847.107C2174.77 848.935 2175.24 851.263 2175.24 854.091V875H2170.18V854.434C2170.18 851.82 2169.5 849.799 2168.15 848.371C2166.8 846.928 2164.94 846.207 2162.55 846.207C2160.9 846.207 2159.41 846.557 2158.1 847.257C2156.8 847.957 2155.77 848.978 2155.01 850.32C2154.27 851.663 2153.9 853.291 2153.9 855.205ZM2211.14 875.771C2209.05 875.771 2207.16 875.378 2205.46 874.593C2203.76 873.793 2202.41 872.643 2201.41 871.144C2200.41 869.63 2199.91 867.802 2199.91 865.659C2199.91 863.774 2200.28 862.246 2201.03 861.075C2201.77 859.889 2202.76 858.961 2204 858.29C2205.25 857.619 2206.62 857.119 2208.12 856.79C2209.63 856.447 2211.15 856.176 2212.68 855.976C2214.68 855.719 2216.3 855.526 2217.54 855.398C2218.8 855.255 2219.71 855.019 2220.29 854.691C2220.87 854.362 2221.16 853.791 2221.16 852.977V852.805C2221.16 850.692 2220.59 849.049 2219.43 847.878C2218.29 846.707 2216.55 846.121 2214.22 846.121C2211.81 846.121 2209.92 846.65 2208.55 847.707C2207.17 848.764 2206.21 849.892 2205.65 851.092L2200.85 849.378C2201.71 847.378 2202.85 845.821 2204.28 844.707C2205.72 843.579 2207.3 842.794 2209 842.351C2210.71 841.894 2212.39 841.665 2214.05 841.665C2215.11 841.665 2216.32 841.794 2217.69 842.051C2219.08 842.294 2220.41 842.801 2221.7 843.572C2223 844.343 2224.08 845.507 2224.93 847.064C2225.79 848.621 2226.22 850.706 2226.22 853.32V875H2221.16V870.544H2220.91C2220.56 871.258 2219.99 872.022 2219.19 872.836C2218.39 873.65 2217.33 874.343 2216 874.914C2214.67 875.486 2213.05 875.771 2211.14 875.771ZM2211.91 871.229C2213.91 871.229 2215.59 870.837 2216.96 870.051C2218.35 869.266 2219.39 868.252 2220.09 867.009C2220.81 865.767 2221.16 864.46 2221.16 863.089V858.461C2220.95 858.718 2220.48 858.954 2219.75 859.168C2219.04 859.368 2218.21 859.547 2217.26 859.704C2216.34 859.847 2215.43 859.975 2214.54 860.089C2213.67 860.189 2212.97 860.275 2212.42 860.346C2211.11 860.518 2209.88 860.796 2208.74 861.182C2207.61 861.553 2206.7 862.117 2206 862.874C2205.31 863.617 2204.97 864.631 2204.97 865.917C2204.97 867.673 2205.62 869.001 2206.92 869.901C2208.23 870.787 2209.89 871.229 2211.91 871.229ZM2258.76 849.463L2254.21 850.749C2253.93 849.992 2253.51 849.256 2252.95 848.542C2252.41 847.814 2251.66 847.214 2250.72 846.743C2249.78 846.271 2248.57 846.036 2247.1 846.036C2245.09 846.036 2243.41 846.5 2242.07 847.428C2240.74 848.342 2240.07 849.506 2240.07 850.92C2240.07 852.177 2240.53 853.17 2241.45 853.898C2242.36 854.626 2243.79 855.233 2245.73 855.719L2250.62 856.919C2253.56 857.633 2255.75 858.725 2257.19 860.196C2258.63 861.653 2259.36 863.531 2259.36 865.831C2259.36 867.716 2258.81 869.401 2257.73 870.887C2256.66 872.372 2255.16 873.543 2253.23 874.4C2251.3 875.257 2249.06 875.686 2246.5 875.686C2243.15 875.686 2240.37 874.957 2238.17 873.5C2235.97 872.044 2234.58 869.916 2233.99 867.116L2238.79 865.917C2239.25 867.687 2240.11 869.016 2241.38 869.901C2242.67 870.787 2244.35 871.229 2246.42 871.229C2248.77 871.229 2250.64 870.73 2252.03 869.73C2253.43 868.716 2254.13 867.502 2254.13 866.088C2254.13 864.945 2253.73 863.988 2252.93 863.217C2252.13 862.432 2250.9 861.846 2249.24 861.46L2243.76 860.175C2240.75 859.461 2238.53 858.354 2237.12 856.854C2235.72 855.341 2235.02 853.448 2235.02 851.177C2235.02 849.321 2235.54 847.678 2236.58 846.25C2237.64 844.822 2239.08 843.7 2240.89 842.886C2242.72 842.072 2244.79 841.665 2247.1 841.665C2250.36 841.665 2252.91 842.379 2254.77 843.808C2256.64 845.236 2257.97 847.121 2258.76 849.463ZM717.738 948V904.125H723.051V923.663H746.445V904.125H751.758V948H746.445V928.376H723.051V948H717.738ZM775.077 948.686C772.106 948.686 769.5 947.979 767.258 946.565C765.03 945.151 763.287 943.173 762.03 940.63C760.788 938.088 760.167 935.117 760.167 931.718C760.167 928.291 760.788 925.298 762.03 922.742C763.287 920.185 765.03 918.2 767.258 916.786C769.5 915.372 772.106 914.665 775.077 914.665C778.048 914.665 780.647 915.372 782.875 916.786C785.118 918.2 786.86 920.185 788.103 922.742C789.359 925.298 789.988 928.291 789.988 931.718C789.988 935.117 789.359 938.088 788.103 940.63C786.86 943.173 785.118 945.151 782.875 946.565C780.647 947.979 778.048 948.686 775.077 948.686ZM775.077 944.144C777.334 944.144 779.19 943.565 780.647 942.409C782.104 941.252 783.182 939.731 783.882 937.845C784.582 935.96 784.932 933.918 784.932 931.718C784.932 929.519 784.582 927.469 783.882 925.57C783.182 923.67 782.104 922.135 780.647 920.964C779.19 919.793 777.334 919.207 775.077 919.207C772.821 919.207 770.964 919.793 769.507 920.964C768.05 922.135 766.972 923.67 766.272 925.57C765.572 927.469 765.222 929.519 765.222 931.718C765.222 933.918 765.572 935.96 766.272 937.845C766.972 939.731 768.05 941.252 769.507 942.409C770.964 943.565 772.821 944.144 775.077 944.144ZM802.761 904.125V948H797.706V904.125H802.761ZM825.818 948.686C822.648 948.686 819.913 947.986 817.613 946.586C815.328 945.172 813.564 943.201 812.322 940.673C811.093 938.131 810.479 935.175 810.479 931.804C810.479 928.433 811.093 925.463 812.322 922.892C813.564 920.307 815.292 918.293 817.506 916.85C819.734 915.394 822.333 914.665 825.304 914.665C827.018 914.665 828.71 914.951 830.381 915.522C832.052 916.094 833.574 917.022 834.945 918.307C836.316 919.578 837.408 921.264 838.222 923.363C839.037 925.463 839.444 928.048 839.444 931.118V933.261H814.078V928.89H834.302C834.302 927.034 833.931 925.377 833.188 923.92C832.46 922.463 831.417 921.314 830.06 920.471C828.718 919.628 827.132 919.207 825.304 919.207C823.29 919.207 821.548 919.707 820.077 920.707C818.62 921.692 817.499 922.978 816.713 924.563C815.928 926.148 815.535 927.848 815.535 929.662V932.575C815.535 935.06 815.964 937.167 816.82 938.895C817.692 940.609 818.899 941.916 820.441 942.816C821.984 943.701 823.776 944.144 825.818 944.144C827.147 944.144 828.346 943.958 829.417 943.587C830.503 943.201 831.438 942.63 832.224 941.873C833.009 941.102 833.616 940.145 834.045 939.002L838.929 940.373C838.415 942.03 837.551 943.487 836.337 944.744C835.123 945.986 833.624 946.957 831.838 947.657C830.053 948.343 828.046 948.686 825.818 948.686ZM864.102 948V915.094H869.158V948H864.102ZM866.673 909.609C865.687 909.609 864.837 909.274 864.123 908.602C863.423 907.931 863.073 907.124 863.073 906.182C863.073 905.239 863.423 904.432 864.123 903.761C864.837 903.09 865.687 902.754 866.673 902.754C867.658 902.754 868.501 903.09 869.201 903.761C869.915 904.432 870.272 905.239 870.272 906.182C870.272 907.124 869.915 907.931 869.201 908.602C868.501 909.274 867.658 909.609 866.673 909.609ZM883.474 928.205V948H878.418V915.094H883.302V920.235H883.731C884.502 918.564 885.673 917.222 887.244 916.208C888.815 915.179 890.844 914.665 893.329 914.665C895.557 914.665 897.506 915.122 899.177 916.036C900.848 916.936 902.148 918.307 903.076 920.15C904.005 921.978 904.469 924.292 904.469 927.091V948H899.413V927.434C899.413 924.849 898.742 922.835 897.399 921.392C896.057 919.935 894.214 919.207 891.872 919.207C890.258 919.207 888.815 919.557 887.544 920.257C886.287 920.957 885.295 921.978 884.566 923.32C883.838 924.663 883.474 926.291 883.474 928.205ZM944.986 915.094V919.378H927.933V915.094H944.986ZM932.903 907.21H937.959V938.574C937.959 940.002 938.166 941.073 938.58 941.787C939.009 942.487 939.551 942.958 940.208 943.201C940.88 943.43 941.586 943.544 942.329 943.544C942.886 943.544 943.343 943.515 943.7 943.458C944.057 943.387 944.343 943.33 944.557 943.287L945.586 947.829C945.243 947.957 944.764 948.086 944.15 948.214C943.536 948.357 942.758 948.428 941.815 948.428C940.387 948.428 938.987 948.121 937.616 947.507C936.259 946.893 935.131 945.958 934.231 944.701C933.346 943.444 932.903 941.859 932.903 939.945V907.21ZM958.354 928.205V948H953.298V904.125H958.354V920.235H958.782C959.554 918.536 960.71 917.186 962.253 916.186C963.81 915.172 965.881 914.665 968.466 914.665C970.708 914.665 972.672 915.115 974.357 916.015C976.042 916.9 977.349 918.264 978.278 920.107C979.22 921.935 979.691 924.263 979.691 927.091V948H974.636V927.434C974.636 924.82 973.957 922.799 972.6 921.371C971.258 919.928 969.394 919.207 967.009 919.207C965.352 919.207 963.867 919.557 962.553 920.257C961.253 920.957 960.225 921.978 959.468 923.32C958.725 924.663 958.354 926.291 958.354 928.205ZM1002.74 948.686C999.567 948.686 996.832 947.986 994.532 946.586C992.247 945.172 990.483 943.201 989.241 940.673C988.013 938.131 987.398 935.175 987.398 931.804C987.398 928.433 988.013 925.463 989.241 922.892C990.483 920.307 992.212 918.293 994.425 916.85C996.653 915.394 999.253 914.665 1002.22 914.665C1003.94 914.665 1005.63 914.951 1007.3 915.522C1008.97 916.094 1010.49 917.022 1011.86 918.307C1013.24 919.578 1014.33 921.264 1015.14 923.363C1015.96 925.463 1016.36 928.048 1016.36 931.118V933.261H990.998V928.89H1011.22C1011.22 927.034 1010.85 925.377 1010.11 923.92C1009.38 922.463 1008.34 921.314 1006.98 920.471C1005.64 919.628 1004.05 919.207 1002.22 919.207C1000.21 919.207 998.467 919.707 996.996 920.707C995.539 921.692 994.418 922.978 993.633 924.563C992.847 926.148 992.454 927.848 992.454 929.662V932.575C992.454 935.06 992.883 937.167 993.74 938.895C994.611 940.609 995.818 941.916 997.36 942.816C998.903 943.701 1000.7 944.144 1002.74 944.144C1004.07 944.144 1005.27 943.958 1006.34 943.587C1007.42 943.201 1008.36 942.63 1009.14 941.873C1009.93 941.102 1010.54 940.145 1010.96 939.002L1015.85 940.373C1015.33 942.03 1014.47 943.487 1013.26 944.744C1012.04 945.986 1010.54 946.957 1008.76 947.657C1006.97 948.343 1004.97 948.686 1002.74 948.686ZM1048.48 948L1038.45 915.094H1043.76L1050.88 940.288H1051.22L1058.25 915.094H1063.64L1070.59 940.202H1070.93L1078.04 915.094H1083.35L1073.33 948H1068.36L1061.16 922.72H1060.64L1053.45 948H1048.48ZM1099.72 948.771C1097.64 948.771 1095.74 948.378 1094.04 947.593C1092.34 946.793 1090.99 945.643 1089.99 944.144C1089 942.63 1088.5 940.802 1088.5 938.659C1088.5 936.774 1088.87 935.246 1089.61 934.075C1090.35 932.889 1091.34 931.961 1092.59 931.29C1093.83 930.619 1095.2 930.119 1096.7 929.79C1098.21 929.447 1099.74 929.176 1101.26 928.976C1103.26 928.719 1104.88 928.526 1106.13 928.398C1107.38 928.255 1108.3 928.019 1108.87 927.691C1109.45 927.362 1109.75 926.791 1109.75 925.977V925.805C1109.75 923.692 1109.17 922.049 1108.01 920.878C1106.87 919.707 1105.13 919.121 1102.81 919.121C1100.39 919.121 1098.5 919.65 1097.13 920.707C1095.76 921.764 1094.79 922.892 1094.24 924.092L1089.44 922.378C1090.29 920.378 1091.44 918.821 1092.87 917.707C1094.31 916.579 1095.88 915.794 1097.58 915.351C1099.29 914.894 1100.98 914.665 1102.63 914.665C1103.69 914.665 1104.91 914.794 1106.28 915.051C1107.66 915.294 1109 915.801 1110.28 916.572C1111.58 917.343 1112.66 918.507 1113.52 920.064C1114.37 921.621 1114.8 923.706 1114.8 926.32V948H1109.75V943.544H1109.49C1109.15 944.258 1108.58 945.022 1107.78 945.836C1106.98 946.65 1105.91 947.343 1104.58 947.914C1103.26 948.486 1101.63 948.771 1099.72 948.771ZM1100.49 944.229C1102.49 944.229 1104.18 943.837 1105.55 943.051C1106.93 942.266 1107.98 941.252 1108.68 940.009C1109.39 938.767 1109.75 937.46 1109.75 936.089V931.461C1109.53 931.718 1109.06 931.954 1108.33 932.168C1107.62 932.368 1106.79 932.547 1105.85 932.704C1104.92 932.847 1104.01 932.975 1103.13 933.089C1102.26 933.189 1101.55 933.275 1101.01 933.346C1099.69 933.518 1098.46 933.796 1097.32 934.182C1096.19 934.553 1095.28 935.117 1094.58 935.874C1093.89 936.617 1093.55 937.631 1093.55 938.917C1093.55 940.673 1094.2 942.001 1095.5 942.901C1096.81 943.787 1098.48 944.229 1100.49 944.229ZM1129.09 904.125V948H1124.03V904.125H1129.09ZM1143.4 904.125V948H1138.35V904.125H1143.4ZM1183 948.686C1180.03 948.686 1177.42 947.979 1175.18 946.565C1172.95 945.151 1171.21 943.173 1169.95 940.63C1168.71 938.088 1168.09 935.117 1168.09 931.718C1168.09 928.291 1168.71 925.298 1169.95 922.742C1171.21 920.185 1172.95 918.2 1175.18 916.786C1177.42 915.372 1180.03 914.665 1183 914.665C1185.97 914.665 1188.57 915.372 1190.8 916.786C1193.04 918.2 1194.78 920.185 1196.02 922.742C1197.28 925.298 1197.91 928.291 1197.91 931.718C1197.91 935.117 1197.28 938.088 1196.02 940.63C1194.78 943.173 1193.04 945.151 1190.8 946.565C1188.57 947.979 1185.97 948.686 1183 948.686ZM1183 944.144C1185.26 944.144 1187.11 943.565 1188.57 942.409C1190.03 941.252 1191.1 939.731 1191.8 937.845C1192.5 935.96 1192.85 933.918 1192.85 931.718C1192.85 929.519 1192.5 927.469 1191.8 925.57C1191.1 923.67 1190.03 922.135 1188.57 920.964C1187.11 919.793 1185.26 919.207 1183 919.207C1180.74 919.207 1178.89 919.793 1177.43 920.964C1175.97 922.135 1174.89 923.67 1174.19 925.57C1173.49 927.469 1173.14 929.519 1173.14 931.718C1173.14 933.918 1173.49 935.96 1174.19 937.845C1174.89 939.731 1175.97 941.252 1177.43 942.409C1178.89 943.565 1180.74 944.144 1183 944.144ZM1205.63 948V915.094H1210.51V920.064H1210.85C1211.45 918.436 1212.54 917.115 1214.11 916.101C1215.68 915.087 1217.45 914.58 1219.42 914.58C1219.8 914.58 1220.26 914.587 1220.82 914.601C1221.37 914.615 1221.79 914.637 1222.08 914.665V919.807C1221.91 919.764 1221.52 919.7 1220.9 919.614C1220.3 919.514 1219.67 919.464 1219 919.464C1217.4 919.464 1215.97 919.8 1214.71 920.471C1213.47 921.128 1212.48 922.042 1211.75 923.213C1211.04 924.37 1210.68 925.691 1210.68 927.177V948H1205.63ZM1269.72 915.094C1269.46 912.923 1268.42 911.238 1266.59 910.038C1264.76 908.838 1262.52 908.238 1259.87 908.238C1257.92 908.238 1256.22 908.552 1254.77 909.181C1253.32 909.809 1252.2 910.673 1251.38 911.773C1250.58 912.873 1250.18 914.123 1250.18 915.522C1250.18 916.693 1250.46 917.7 1251.02 918.543C1251.59 919.371 1252.32 920.064 1253.2 920.621C1254.09 921.164 1255.02 921.614 1255.99 921.971C1256.96 922.313 1257.85 922.592 1258.67 922.806L1263.12 924.006C1264.26 924.306 1265.54 924.72 1266.94 925.248C1268.35 925.777 1269.7 926.498 1270.98 927.412C1272.28 928.312 1273.36 929.469 1274.2 930.883C1275.04 932.297 1275.46 934.032 1275.46 936.089C1275.46 938.459 1274.84 940.602 1273.6 942.516C1272.37 944.429 1270.57 945.951 1268.2 947.079C1265.84 948.207 1262.98 948.771 1259.61 948.771C1256.47 948.771 1253.75 948.264 1251.45 947.25C1249.16 946.236 1247.36 944.822 1246.05 943.008C1244.75 941.195 1244.01 939.088 1243.84 936.688H1249.33C1249.47 938.345 1250.03 939.716 1251 940.802C1251.98 941.873 1253.22 942.673 1254.72 943.201C1256.24 943.715 1257.87 943.972 1259.61 943.972C1261.64 943.972 1263.46 943.644 1265.07 942.987C1266.69 942.316 1267.96 941.387 1268.91 940.202C1269.85 939.002 1270.32 937.603 1270.32 936.003C1270.32 934.546 1269.91 933.361 1269.1 932.447C1268.29 931.533 1267.21 930.79 1265.89 930.219C1264.56 929.647 1263.12 929.147 1261.58 928.719L1256.18 927.177C1252.75 926.191 1250.04 924.784 1248.04 922.956C1246.04 921.128 1245.04 918.736 1245.04 915.779C1245.04 913.323 1245.71 911.18 1247.03 909.352C1248.38 907.51 1250.18 906.082 1252.43 905.068C1254.7 904.039 1257.24 903.525 1260.04 903.525C1262.87 903.525 1265.38 904.032 1267.58 905.046C1269.78 906.046 1271.52 907.417 1272.81 909.159C1274.11 910.902 1274.79 912.88 1274.86 915.094H1269.72ZM1283.51 948V915.094H1288.57V948H1283.51ZM1286.08 909.609C1285.1 909.609 1284.25 909.274 1283.53 908.602C1282.83 907.931 1282.48 907.124 1282.48 906.182C1282.48 905.239 1282.83 904.432 1283.53 903.761C1284.25 903.09 1285.1 902.754 1286.08 902.754C1287.07 902.754 1287.91 903.09 1288.61 903.761C1289.32 904.432 1289.68 905.239 1289.68 906.182C1289.68 907.124 1289.32 907.931 1288.61 908.602C1287.91 909.274 1287.07 909.609 1286.08 909.609ZM1297.83 948V915.094H1302.71V920.235H1303.14C1303.83 918.479 1304.93 917.115 1306.46 916.143C1307.99 915.158 1309.83 914.665 1311.97 914.665C1314.14 914.665 1315.95 915.158 1317.39 916.143C1318.84 917.115 1319.98 918.479 1320.79 920.235H1321.14C1321.98 918.536 1323.24 917.186 1324.93 916.186C1326.61 915.172 1328.63 914.665 1330.99 914.665C1333.93 914.665 1336.34 915.586 1338.21 917.429C1340.08 919.257 1341.02 922.106 1341.02 925.977V948H1335.96V925.977C1335.96 923.549 1335.3 921.814 1333.97 920.771C1332.64 919.728 1331.08 919.207 1329.28 919.207C1326.96 919.207 1325.17 919.907 1323.9 921.307C1322.63 922.692 1321.99 924.449 1321.99 926.577V948H1316.85V925.463C1316.85 923.592 1316.25 922.085 1315.03 920.942C1313.82 919.785 1312.25 919.207 1310.34 919.207C1309.03 919.207 1307.8 919.557 1306.65 920.257C1305.53 920.957 1304.61 921.928 1303.91 923.17C1303.23 924.399 1302.88 925.82 1302.88 927.434V948H1297.83ZM1363.63 948.686C1360.66 948.686 1358.05 947.979 1355.81 946.565C1353.58 945.151 1351.84 943.173 1350.58 940.63C1349.34 938.088 1348.72 935.117 1348.72 931.718C1348.72 928.291 1349.34 925.298 1350.58 922.742C1351.84 920.185 1353.58 918.2 1355.81 916.786C1358.05 915.372 1360.66 914.665 1363.63 914.665C1366.6 914.665 1369.2 915.372 1371.43 916.786C1373.67 918.2 1375.41 920.185 1376.66 922.742C1377.91 925.298 1378.54 928.291 1378.54 931.718C1378.54 935.117 1377.91 938.088 1376.66 940.63C1375.41 943.173 1373.67 945.151 1371.43 946.565C1369.2 947.979 1366.6 948.686 1363.63 948.686ZM1363.63 944.144C1365.89 944.144 1367.74 943.565 1369.2 942.409C1370.66 941.252 1371.74 939.731 1372.43 937.845C1373.13 935.96 1373.48 933.918 1373.48 931.718C1373.48 929.519 1373.13 927.469 1372.43 925.57C1371.74 923.67 1370.66 922.135 1369.2 920.964C1367.74 919.793 1365.89 919.207 1363.63 919.207C1361.37 919.207 1359.52 919.793 1358.06 920.964C1356.6 922.135 1355.52 923.67 1354.82 925.57C1354.13 927.469 1353.78 929.519 1353.78 931.718C1353.78 933.918 1354.13 935.96 1354.82 937.845C1355.52 939.731 1356.6 941.252 1358.06 942.409C1359.52 943.565 1361.37 944.144 1363.63 944.144ZM1391.31 928.205V948H1386.26V915.094H1391.14V920.235H1391.57C1392.34 918.564 1393.51 917.222 1395.08 916.208C1396.66 915.179 1398.68 914.665 1401.17 914.665C1403.4 914.665 1405.35 915.122 1407.02 916.036C1408.69 916.936 1409.99 918.307 1410.92 920.15C1411.84 921.978 1412.31 924.292 1412.31 927.091V948H1407.25V927.434C1407.25 924.849 1406.58 922.835 1405.24 921.392C1403.9 919.935 1402.05 919.207 1399.71 919.207C1398.1 919.207 1396.66 919.557 1395.38 920.257C1394.13 920.957 1393.14 921.978 1392.41 923.32C1391.68 924.663 1391.31 926.291 1391.31 928.205ZM1463.19 915.094C1462.94 912.923 1461.9 911.238 1460.07 910.038C1458.24 908.838 1456 908.238 1453.34 908.238C1451.4 908.238 1449.7 908.552 1448.24 909.181C1446.8 909.809 1445.67 910.673 1444.86 911.773C1444.06 912.873 1443.66 914.123 1443.66 915.522C1443.66 916.693 1443.94 917.7 1444.49 918.543C1445.06 919.371 1445.79 920.064 1446.68 920.621C1447.56 921.164 1448.49 921.614 1449.46 921.971C1450.43 922.313 1451.33 922.592 1452.14 922.806L1456.6 924.006C1457.74 924.306 1459.01 924.72 1460.41 925.248C1461.82 925.777 1463.17 926.498 1464.46 927.412C1465.76 928.312 1466.83 929.469 1467.67 930.883C1468.51 932.297 1468.94 934.032 1468.94 936.089C1468.94 938.459 1468.32 940.602 1467.07 942.516C1465.84 944.429 1464.04 945.951 1461.67 947.079C1459.32 948.207 1456.45 948.771 1453.08 948.771C1449.94 948.771 1447.22 948.264 1444.92 947.25C1442.64 946.236 1440.84 944.822 1439.52 943.008C1438.22 941.195 1437.49 939.088 1437.32 936.688H1442.8C1442.94 938.345 1443.5 939.716 1444.47 940.802C1445.46 941.873 1446.7 942.673 1448.2 943.201C1449.71 943.715 1451.34 943.972 1453.08 943.972C1455.11 943.972 1456.93 943.644 1458.55 942.987C1460.16 942.316 1461.44 941.387 1462.38 940.202C1463.32 939.002 1463.79 937.603 1463.79 936.003C1463.79 934.546 1463.39 933.361 1462.57 932.447C1461.76 931.533 1460.69 930.79 1459.36 930.219C1458.03 929.647 1456.6 929.147 1455.05 928.719L1449.66 927.177C1446.23 926.191 1443.51 924.784 1441.51 922.956C1439.51 921.128 1438.52 918.736 1438.52 915.779C1438.52 913.323 1439.18 911.18 1440.51 909.352C1441.85 907.51 1443.65 906.082 1445.91 905.068C1448.18 904.039 1450.71 903.525 1453.51 903.525C1456.34 903.525 1458.85 904.032 1461.05 905.046C1463.25 906.046 1464.99 907.417 1466.28 909.159C1467.58 910.902 1468.27 912.88 1468.34 915.094H1463.19ZM1486.67 948.771C1484.58 948.771 1482.69 948.378 1480.99 947.593C1479.29 946.793 1477.94 945.643 1476.94 944.144C1475.94 942.63 1475.44 940.802 1475.44 938.659C1475.44 936.774 1475.81 935.246 1476.56 934.075C1477.3 932.889 1478.29 931.961 1479.54 931.29C1480.78 930.619 1482.15 930.119 1483.65 929.79C1485.16 929.447 1486.68 929.176 1488.21 928.976C1490.21 928.719 1491.83 928.526 1493.08 928.398C1494.33 928.255 1495.25 928.019 1495.82 927.691C1496.4 927.362 1496.7 926.791 1496.7 925.977V925.805C1496.7 923.692 1496.12 922.049 1494.96 920.878C1493.82 919.707 1492.08 919.121 1489.75 919.121C1487.34 919.121 1485.45 919.65 1484.08 920.707C1482.71 921.764 1481.74 922.892 1481.19 924.092L1476.39 922.378C1477.24 920.378 1478.39 918.821 1479.81 917.707C1481.26 916.579 1482.83 915.794 1484.53 915.351C1486.24 914.894 1487.93 914.665 1489.58 914.665C1490.64 914.665 1491.85 914.794 1493.22 915.051C1494.61 915.294 1495.95 915.801 1497.23 916.572C1498.53 917.343 1499.61 918.507 1500.47 920.064C1501.32 921.621 1501.75 923.706 1501.75 926.32V948H1496.7V943.544H1496.44C1496.1 944.258 1495.52 945.022 1494.72 945.836C1493.92 946.65 1492.86 947.343 1491.53 947.914C1490.2 948.486 1488.58 948.771 1486.67 948.771ZM1487.44 944.229C1489.44 944.229 1491.13 943.837 1492.5 943.051C1493.88 942.266 1494.92 941.252 1495.62 940.009C1496.34 938.767 1496.7 937.46 1496.7 936.089V931.461C1496.48 931.718 1496.01 931.954 1495.28 932.168C1494.57 932.368 1493.74 932.547 1492.8 932.704C1491.87 932.847 1490.96 932.975 1490.08 933.089C1489.2 933.189 1488.5 933.275 1487.95 933.346C1486.64 933.518 1485.41 933.796 1484.27 934.182C1483.14 934.553 1482.23 935.117 1481.53 935.874C1480.84 936.617 1480.5 937.631 1480.5 938.917C1480.5 940.673 1481.15 942.001 1482.45 942.901C1483.76 943.787 1485.43 944.229 1487.44 944.229ZM1513.06 960.34C1512.2 960.34 1511.44 960.268 1510.77 960.126C1510.09 959.997 1509.63 959.869 1509.37 959.74L1510.66 955.284C1511.89 955.598 1512.97 955.712 1513.91 955.627C1514.86 955.541 1515.69 955.12 1516.42 954.363C1517.16 953.62 1517.84 952.413 1518.46 950.742L1519.4 948.171L1507.23 915.094H1512.71L1521.8 941.316H1522.14L1531.22 915.094H1536.71L1522.74 952.799C1522.11 954.498 1521.33 955.905 1520.41 957.019C1519.48 958.148 1518.4 958.983 1517.17 959.526C1515.96 960.068 1514.59 960.34 1513.06 960.34ZM1566.69 922.463L1562.15 923.749C1561.86 922.992 1561.44 922.256 1560.89 921.542C1560.34 920.814 1559.6 920.214 1558.66 919.743C1557.71 919.271 1556.51 919.036 1555.04 919.036C1553.02 919.036 1551.34 919.5 1550 920.428C1548.67 921.342 1548.01 922.506 1548.01 923.92C1548.01 925.177 1548.47 926.17 1549.38 926.898C1550.3 927.626 1551.72 928.233 1553.67 928.719L1558.55 929.919C1561.49 930.633 1563.68 931.725 1565.13 933.196C1566.57 934.653 1567.29 936.531 1567.29 938.831C1567.29 940.716 1566.75 942.401 1565.66 943.887C1564.59 945.372 1563.09 946.543 1561.16 947.4C1559.24 948.257 1556.99 948.686 1554.44 948.686C1551.08 948.686 1548.3 947.957 1546.1 946.5C1543.9 945.044 1542.51 942.916 1541.93 940.116L1546.72 938.917C1547.18 940.687 1548.05 942.016 1549.32 942.901C1550.6 943.787 1552.28 944.229 1554.35 944.229C1556.71 944.229 1558.58 943.73 1559.96 942.73C1561.36 941.716 1562.06 940.502 1562.06 939.088C1562.06 937.945 1561.66 936.988 1560.86 936.217C1560.06 935.432 1558.84 934.846 1557.18 934.46L1551.69 933.175C1548.68 932.461 1546.47 931.354 1545.05 929.854C1543.65 928.341 1542.95 926.448 1542.95 924.177C1542.95 922.321 1543.48 920.678 1544.52 919.25C1545.57 917.822 1547.01 916.7 1548.82 915.886C1550.65 915.072 1552.72 914.665 1555.04 914.665C1558.29 914.665 1560.85 915.379 1562.71 916.808C1564.58 918.236 1565.91 920.121 1566.69 922.463ZM1578.59 948.343C1577.53 948.343 1576.62 947.964 1575.87 947.207C1575.11 946.45 1574.73 945.543 1574.73 944.487C1574.73 943.43 1575.11 942.523 1575.87 941.766C1576.62 941.009 1577.53 940.63 1578.59 940.63C1579.64 940.63 1580.55 941.009 1581.31 941.766C1582.06 942.523 1582.44 943.43 1582.44 944.487C1582.44 945.186 1582.26 945.829 1581.91 946.415C1581.56 947 1581.1 947.472 1580.51 947.829C1579.94 948.171 1579.3 948.343 1578.59 948.343Z" fill="white"/>
<g filter="url(#filter0_d_624_167)">
<rect x="732" y="344" width="838" height="214" fill="black" fill-opacity="0.19" shape-rendering="crispEdges"/>
<rect x="738" y="350" width="826" height="202" stroke="white" stroke-width="12" shape-rendering="crispEdges"/>
</g>
<g filter="url(#filter1_d_624_167)">
<path d="M874.457 488.791C873.101 488.791 872.046 488.414 871.293 487.661C870.54 486.832 870.163 485.702 870.163 484.271V412.064C870.163 410.557 870.54 409.427 871.293 408.674C872.046 407.921 873.101 407.544 874.457 407.544C875.662 407.544 876.604 407.808 877.282 408.335C878.035 408.787 878.713 409.578 879.316 410.708L910.278 469.016H906.888L937.737 410.708C938.34 409.578 938.98 408.787 939.658 408.335C940.336 407.808 941.315 407.544 942.596 407.544C943.877 407.544 944.894 407.921 945.647 408.674C946.4 409.427 946.777 410.557 946.777 412.064V484.271C946.777 485.702 946.4 486.832 945.647 487.661C944.969 488.414 943.914 488.791 942.483 488.791C941.127 488.791 940.072 488.414 939.319 487.661C938.566 486.832 938.189 485.702 938.189 484.271V420.765H940.901L912.651 473.762C912.124 474.741 911.559 475.457 910.956 475.909C910.429 476.286 909.638 476.474 908.583 476.474C907.528 476.474 906.7 476.248 906.097 475.796C905.494 475.344 904.967 474.666 904.515 473.762L875.926 420.652H878.638V484.271C878.638 485.702 878.261 486.832 877.508 487.661C876.83 488.414 875.813 488.791 874.457 488.791ZM969.882 488.565C968.375 488.565 967.245 488.151 966.492 487.322C965.739 486.418 965.362 485.175 965.362 483.593V437.376C965.362 435.794 965.739 434.589 966.492 433.76C967.245 432.931 968.375 432.517 969.882 432.517C971.313 432.517 972.443 432.931 973.272 433.76C974.101 434.589 974.515 435.794 974.515 437.376V483.593C974.515 485.175 974.101 486.418 973.272 487.322C972.519 488.151 971.389 488.565 969.882 488.565ZM969.882 419.861C967.999 419.861 966.53 419.371 965.475 418.392C964.42 417.337 963.893 415.944 963.893 414.211C963.893 412.403 964.42 411.047 965.475 410.143C966.53 409.164 967.999 408.674 969.882 408.674C971.841 408.674 973.31 409.164 974.289 410.143C975.344 411.047 975.871 412.403 975.871 414.211C975.871 415.944 975.344 417.337 974.289 418.392C973.31 419.371 971.841 419.861 969.882 419.861ZM996.146 488.791C994.639 488.791 993.509 488.377 992.756 487.548C992.002 486.719 991.626 485.552 991.626 484.045V436.924C991.626 435.417 992.002 434.287 992.756 433.534C993.509 432.705 994.601 432.291 996.033 432.291C997.464 432.291 998.556 432.705 999.31 433.534C1000.14 434.287 1000.55 435.417 1000.55 436.924V446.642L999.31 445.286C1000.89 440.917 1003.45 437.64 1006.99 435.455C1010.61 433.195 1014.75 432.065 1019.42 432.065C1023.79 432.065 1027.41 432.856 1030.27 434.438C1033.21 436.02 1035.39 438.431 1036.83 441.67C1038.26 444.834 1038.97 448.864 1038.97 453.761V484.045C1038.97 485.552 1038.56 486.719 1037.73 487.548C1036.98 488.377 1035.88 488.791 1034.45 488.791C1032.95 488.791 1031.78 488.377 1030.95 487.548C1030.2 486.719 1029.82 485.552 1029.82 484.045V454.326C1029.82 449.203 1028.8 445.474 1026.77 443.139C1024.81 440.728 1021.65 439.523 1017.28 439.523C1012.23 439.523 1008.2 441.105 1005.19 444.269C1002.25 447.358 1000.78 451.501 1000.78 456.699V484.045C1000.78 487.209 999.234 488.791 996.146 488.791ZM1060.37 488.565C1058.86 488.565 1057.73 488.151 1056.98 487.322C1056.23 486.418 1055.85 485.175 1055.85 483.593V437.376C1055.85 435.794 1056.23 434.589 1056.98 433.76C1057.73 432.931 1058.86 432.517 1060.37 432.517C1061.8 432.517 1062.93 432.931 1063.76 433.76C1064.59 434.589 1065 435.794 1065 437.376V483.593C1065 485.175 1064.59 486.418 1063.76 487.322C1063.01 488.151 1061.88 488.565 1060.37 488.565ZM1060.37 419.861C1058.49 419.861 1057.02 419.371 1055.96 418.392C1054.91 417.337 1054.38 415.944 1054.38 414.211C1054.38 412.403 1054.91 411.047 1055.96 410.143C1057.02 409.164 1058.49 408.674 1060.37 408.674C1062.33 408.674 1063.8 409.164 1064.78 410.143C1065.83 411.047 1066.36 412.403 1066.36 414.211C1066.36 415.944 1065.83 417.337 1064.78 418.392C1063.8 419.371 1062.33 419.861 1060.37 419.861ZM1148.88 489.017C1140.36 489.017 1133.17 487.397 1127.29 484.158C1121.49 480.919 1117.09 476.248 1114.07 470.146C1111.06 464.044 1109.55 456.737 1109.55 448.224C1109.55 441.896 1110.38 436.208 1112.04 431.161C1113.77 426.114 1116.26 421.857 1119.5 418.392C1122.81 414.851 1126.8 412.139 1131.47 410.256C1136.22 408.297 1141.57 407.318 1147.52 407.318C1152.27 407.318 1156.86 407.996 1161.31 409.352C1165.75 410.633 1169.71 412.704 1173.17 415.567C1174.07 416.245 1174.64 416.998 1174.87 417.827C1175.09 418.656 1175.05 419.484 1174.75 420.313C1174.53 421.142 1174.11 421.857 1173.51 422.46C1172.98 422.987 1172.27 423.289 1171.36 423.364C1170.53 423.439 1169.67 423.176 1168.76 422.573C1165.68 420.162 1162.4 418.43 1158.93 417.375C1155.47 416.245 1151.63 415.68 1147.41 415.68C1141.38 415.68 1136.26 416.961 1132.04 419.522C1127.9 422.083 1124.73 425.775 1122.55 430.596C1120.44 435.417 1119.38 441.293 1119.38 448.224C1119.38 458.771 1121.83 466.831 1126.73 472.406C1131.7 477.981 1139.16 480.768 1149.1 480.768C1152.72 480.768 1156.26 480.429 1159.72 479.751C1163.19 478.998 1166.47 477.981 1169.55 476.7L1167.52 482.011V453.874H1151.36C1150.01 453.874 1148.99 453.535 1148.31 452.857C1147.63 452.179 1147.29 451.275 1147.29 450.145C1147.29 448.94 1147.63 448.036 1148.31 447.433C1148.99 446.83 1150.01 446.529 1151.36 446.529H1171.59C1172.87 446.529 1173.85 446.868 1174.53 447.546C1175.2 448.224 1175.54 449.203 1175.54 450.484V479.977C1175.54 481.107 1175.36 482.049 1174.98 482.802C1174.6 483.555 1173.96 484.12 1173.06 484.497C1169.89 485.778 1166.09 486.87 1161.64 487.774C1157.28 488.603 1153.02 489.017 1148.88 489.017ZM1210.53 489.017C1206.76 489.017 1203.37 488.301 1200.36 486.87C1197.42 485.363 1195.08 483.329 1193.35 480.768C1191.62 478.207 1190.75 475.344 1190.75 472.18C1190.75 468.112 1191.77 464.91 1193.8 462.575C1195.91 460.24 1199.34 458.582 1204.09 457.603C1208.91 456.624 1215.46 456.134 1223.75 456.134H1228.83V462.123H1223.86C1217.76 462.123 1212.94 462.424 1209.4 463.027C1205.93 463.554 1203.48 464.496 1202.05 465.852C1200.7 467.208 1200.02 469.129 1200.02 471.615C1200.02 474.704 1201.07 477.227 1203.18 479.186C1205.37 481.145 1208.3 482.124 1212 482.124C1215.01 482.124 1217.65 481.408 1219.91 479.977C1222.24 478.546 1224.05 476.587 1225.33 474.101C1226.69 471.615 1227.36 468.752 1227.36 465.513V452.631C1227.36 447.96 1226.42 444.608 1224.54 442.574C1222.66 440.465 1219.57 439.41 1215.27 439.41C1212.64 439.41 1210 439.749 1207.36 440.427C1204.73 441.105 1201.94 442.197 1199 443.704C1197.95 444.231 1197.04 444.42 1196.29 444.269C1195.54 444.043 1194.93 443.629 1194.48 443.026C1194.03 442.423 1193.77 441.745 1193.69 440.992C1193.61 440.163 1193.77 439.372 1194.14 438.619C1194.59 437.866 1195.27 437.263 1196.18 436.811C1199.49 435.154 1202.77 433.948 1206.01 433.195C1209.25 432.442 1212.33 432.065 1215.27 432.065C1220.02 432.065 1223.94 432.856 1227.02 434.438C1230.11 435.945 1232.41 438.28 1233.92 441.444C1235.42 444.533 1236.18 448.525 1236.18 453.422V484.045C1236.18 485.552 1235.8 486.719 1235.05 487.548C1234.37 488.377 1233.35 488.791 1232 488.791C1230.57 488.791 1229.47 488.377 1228.72 487.548C1227.97 486.719 1227.59 485.552 1227.59 484.045V475.231H1228.61C1228 478.094 1226.84 480.542 1225.1 482.576C1223.45 484.61 1221.37 486.192 1218.89 487.322C1216.4 488.452 1213.62 489.017 1210.53 489.017ZM1257.9 488.791C1256.4 488.791 1255.27 488.377 1254.51 487.548C1253.76 486.719 1253.38 485.552 1253.38 484.045V436.924C1253.38 435.417 1253.76 434.287 1254.51 433.534C1255.27 432.705 1256.36 432.291 1257.79 432.291C1259.22 432.291 1260.32 432.705 1261.07 433.534C1261.9 434.287 1262.31 435.417 1262.31 436.924V446.868L1261.07 445.286C1262.5 441.067 1264.8 437.828 1267.96 435.568C1271.2 433.233 1275.04 432.065 1279.49 432.065C1284.16 432.065 1287.93 433.195 1290.79 435.455C1293.73 437.64 1295.68 441.067 1296.66 445.738H1294.97C1296.32 441.519 1298.74 438.205 1302.2 435.794C1305.74 433.308 1309.85 432.065 1314.52 432.065C1318.66 432.065 1322.05 432.856 1324.69 434.438C1327.4 436.02 1329.43 438.431 1330.79 441.67C1332.15 444.834 1332.82 448.864 1332.82 453.761V484.045C1332.82 485.552 1332.41 486.719 1331.58 487.548C1330.83 488.377 1329.7 488.791 1328.19 488.791C1326.76 488.791 1325.63 488.377 1324.8 487.548C1324.05 486.719 1323.67 485.552 1323.67 484.045V454.213C1323.67 449.166 1322.8 445.474 1321.07 443.139C1319.34 440.728 1316.4 439.523 1312.26 439.523C1307.74 439.523 1304.16 441.105 1301.52 444.269C1298.96 447.358 1297.68 451.576 1297.68 456.925V484.045C1297.68 485.552 1297.27 486.719 1296.44 487.548C1295.68 488.377 1294.55 488.791 1293.05 488.791C1291.62 488.791 1290.49 488.377 1289.66 487.548C1288.9 486.719 1288.53 485.552 1288.53 484.045V454.213C1288.53 449.166 1287.62 445.474 1285.82 443.139C1284.08 440.728 1281.18 439.523 1277.11 439.523C1272.59 439.523 1269.02 441.105 1266.38 444.269C1263.82 447.358 1262.54 451.576 1262.54 456.925V484.045C1262.54 487.209 1260.99 488.791 1257.9 488.791ZM1374.68 489.017C1368.88 489.017 1363.87 487.887 1359.66 485.627C1355.51 483.292 1352.27 480.015 1349.94 475.796C1347.68 471.577 1346.55 466.53 1346.55 460.654C1346.55 454.929 1347.68 449.957 1349.94 445.738C1352.2 441.444 1355.29 438.092 1359.2 435.681C1363.2 433.27 1367.79 432.065 1372.99 432.065C1376.68 432.065 1380 432.705 1382.93 433.986C1385.87 435.191 1388.36 436.962 1390.39 439.297C1392.5 441.632 1394.08 444.457 1395.14 447.772C1396.27 451.087 1396.83 454.816 1396.83 458.959C1396.83 460.164 1396.49 461.068 1395.82 461.671C1395.14 462.198 1394.16 462.462 1392.88 462.462H1353.55V456.473H1390.73L1388.92 457.942C1388.92 453.874 1388.32 450.446 1387.11 447.659C1385.91 444.796 1384.14 442.612 1381.8 441.105C1379.54 439.598 1376.68 438.845 1373.22 438.845C1369.37 438.845 1366.1 439.749 1363.38 441.557C1360.75 443.29 1358.75 445.738 1357.4 448.902C1356.04 451.991 1355.36 455.607 1355.36 459.75V460.428C1355.36 467.359 1357.02 472.632 1360.33 476.248C1363.72 479.864 1368.51 481.672 1374.68 481.672C1377.25 481.672 1379.77 481.333 1382.26 480.655C1384.82 479.977 1387.3 478.847 1389.71 477.265C1390.77 476.587 1391.71 476.286 1392.54 476.361C1393.44 476.361 1394.16 476.625 1394.69 477.152C1395.21 477.604 1395.55 478.207 1395.7 478.96C1395.93 479.638 1395.85 480.391 1395.48 481.22C1395.17 482.049 1394.53 482.764 1393.56 483.367C1391.07 485.175 1388.13 486.569 1384.74 487.548C1381.35 488.527 1378 489.017 1374.68 489.017ZM1428.61 489.017C1425.22 489.017 1421.79 488.603 1418.33 487.774C1414.94 486.945 1411.77 485.514 1408.84 483.48C1408.08 482.953 1407.56 482.35 1407.25 481.672C1406.95 480.919 1406.84 480.203 1406.91 479.525C1407.07 478.772 1407.37 478.131 1407.82 477.604C1408.35 477.077 1408.95 476.775 1409.63 476.7C1410.38 476.549 1411.21 476.7 1412.11 477.152C1415.05 478.96 1417.88 480.241 1420.59 480.994C1423.38 481.672 1426.12 482.011 1428.84 482.011C1433.13 482.011 1436.37 481.22 1438.55 479.638C1440.74 478.056 1441.83 475.909 1441.83 473.197C1441.83 471.088 1441.12 469.43 1439.68 468.225C1438.25 466.944 1435.99 465.965 1432.9 465.287L1422.62 463.027C1417.88 462.048 1414.34 460.353 1412 457.942C1409.74 455.531 1408.61 452.405 1408.61 448.563C1408.61 445.173 1409.48 442.273 1411.21 439.862C1413.02 437.376 1415.54 435.455 1418.78 434.099C1422.02 432.743 1425.79 432.065 1430.08 432.065C1433.39 432.065 1436.52 432.517 1439.46 433.421C1442.47 434.25 1445.18 435.606 1447.59 437.489C1448.35 438.016 1448.84 438.657 1449.06 439.41C1449.37 440.088 1449.4 440.804 1449.18 441.557C1449.03 442.235 1448.69 442.838 1448.16 443.365C1447.63 443.817 1446.99 444.081 1446.24 444.156C1445.49 444.231 1444.69 444.005 1443.87 443.478C1441.61 441.971 1439.31 440.879 1436.97 440.201C1434.64 439.448 1432.34 439.071 1430.08 439.071C1425.86 439.071 1422.66 439.9 1420.47 441.557C1418.29 443.214 1417.2 445.399 1417.2 448.111C1417.2 450.22 1417.88 451.953 1419.23 453.309C1420.59 454.665 1422.7 455.644 1425.56 456.247L1435.84 458.394C1440.74 459.449 1444.39 461.144 1446.8 463.479C1449.29 465.739 1450.53 468.828 1450.53 472.745C1450.53 477.717 1448.54 481.672 1444.54 484.61C1440.55 487.548 1435.24 489.017 1428.61 489.017Z" fill="white"/>
</g>
<defs>
<filter id="filter0_d_624_167" x="728" y="344" width="846" height="222" filterUnits="userSpaceOnUse" color-interpolation-filters="sRGB">
<feFlood flood-opacity="0" result="BackgroundImageFix"/>
<feColorMatrix in="SourceAlpha" type="matrix" values="0 0 0 0 0 0 0 0 0 0 0 0 0 0 0 0 0 0 127 0" result="hardAlpha"/>
<feOffset dy="4"/>
<feGaussianBlur stdDeviation="2"/>
<feComposite in2="hardAlpha" operator="out"/>
<feColorMatrix type="matrix" values="0 0 0 0 0 0 0 0 0 0 0 0 0 0 0 0 0 0 0.25 0"/>
<feBlend mode="normal" in2="BackgroundImageFix" result="effect1_dropShadow_624_167"/>
<feBlend mode="normal" in="SourceGraphic" in2="effect1_dropShadow_624_167" result="shape"/>
</filter>
<filter id="filter1_d_624_167" x="870.164" y="407.318" width="584.667" height="89.9992" filterUnits="userSpaceOnUse" color-interpolation-filters="sRGB">
<feFlood flood-opacity="0" result="BackgroundImageFix"/>
<feColorMatrix in="SourceAlpha" type="matrix" values="0 0 0 0 0 0 0 0 0 0 0 0 0 0 0 0 0 0 127 0" result="hardAlpha"/>
<feOffset dx="4" dy="8"/>
<feGaussianBlur stdDeviation="0.15"/>
<feComposite in2="hardAlpha" operator="out"/>
<feColorMatrix type="matrix" values="0 0 0 0 0 0 0 0 0 0 0 0 0 0 0 0 0 0 1 0"/>
<feBlend mode="normal" in2="BackgroundImageFix" result="effect1_dropShadow_624_167"/>
<feBlend mode="normal" in="SourceGraphic" in2="effect1_dropShadow_624_167" result="shape"/>
</filter>
</defs>
</svg>
