<svg width="2164" height="1117" viewBox="0 0 2164 1117" fill="none" xmlns="http://www.w3.org/2000/svg">
<rect width="2163.1" height="1116.99" rx="85.05" fill="#171717"/>
<path d="M86.7244 64.5472V130.525H78.7349V72.9233H78.3483L62.2404 83.619V75.5006L78.7349 64.5472H86.7244ZM107.471 131.041C105.882 131.041 104.518 130.472 103.38 129.333C102.242 128.195 101.673 126.831 101.673 125.242C101.673 123.653 102.242 122.289 103.38 121.151C104.518 120.012 105.882 119.443 107.471 119.443C109.061 119.443 110.425 120.012 111.563 121.151C112.701 122.289 113.27 123.653 113.27 125.242C113.27 126.294 113.002 127.261 112.465 128.141C111.95 129.022 111.251 129.731 110.371 130.268C109.512 130.783 108.545 131.041 107.471 131.041Z" fill="white"/>
<path d="M71.0947 786.478V782.049H102.022V786.478H89.055V823.285H84.0616V786.478H71.0947ZM113.836 804.68V823.285H109.084V782.049H113.836V797.19H114.239C114.964 795.593 116.051 794.324 117.501 793.385C118.964 792.432 120.91 791.955 123.34 791.955C125.447 791.955 127.293 792.378 128.877 793.224C130.461 794.056 131.689 795.338 132.562 797.069C133.448 798.788 133.891 800.976 133.891 803.633V823.285H129.139V803.956C129.139 801.499 128.501 799.6 127.226 798.257C125.964 796.902 124.212 796.224 121.971 796.224C120.414 796.224 119.018 796.553 117.783 797.21C116.561 797.868 115.595 798.828 114.883 800.09C114.185 801.351 113.836 802.882 113.836 804.68ZM155.551 823.929C152.571 823.929 150 823.272 147.839 821.956C145.691 820.627 144.034 818.775 142.866 816.399C141.711 814.01 141.134 811.231 141.134 808.063C141.134 804.895 141.711 802.103 142.866 799.687C144.034 797.257 145.658 795.365 147.738 794.009C149.832 792.64 152.275 791.955 155.067 791.955C156.678 791.955 158.269 792.224 159.839 792.761C161.41 793.298 162.84 794.17 164.128 795.378C165.417 796.573 166.444 798.157 167.209 800.13C167.974 802.103 168.357 804.533 168.357 807.419V809.432H144.517V805.325H163.524C163.524 803.58 163.175 802.023 162.477 800.653C161.793 799.284 160.813 798.204 159.537 797.412C158.276 796.62 156.786 796.224 155.067 796.224C153.175 796.224 151.537 796.694 150.155 797.633C148.785 798.559 147.732 799.768 146.993 801.258C146.255 802.748 145.886 804.345 145.886 806.05V808.788C145.886 811.124 146.289 813.104 147.094 814.728C147.913 816.339 149.047 817.567 150.497 818.413C151.947 819.245 153.631 819.661 155.551 819.661C156.799 819.661 157.927 819.486 158.933 819.137C159.954 818.775 160.833 818.238 161.571 817.527C162.309 816.802 162.88 815.902 163.283 814.828L167.873 816.117C167.39 817.674 166.578 819.043 165.437 820.225C164.296 821.392 162.887 822.305 161.209 822.963C159.531 823.607 157.645 823.929 155.551 823.929ZM196.284 782.049V823.285H191.532V782.049H196.284ZM217.551 823.929C214.759 823.929 212.309 823.265 210.202 821.936C208.108 820.607 206.47 818.748 205.289 816.359C204.121 813.969 203.537 811.177 203.537 807.983C203.537 804.761 204.121 801.949 205.289 799.546C206.47 797.143 208.108 795.277 210.202 793.949C212.309 792.62 214.759 791.955 217.551 791.955C220.343 791.955 222.786 792.62 224.88 793.949C226.988 795.277 228.625 797.143 229.793 799.546C230.975 801.949 231.565 804.761 231.565 807.983C231.565 811.177 230.975 813.969 229.793 816.359C228.625 818.748 226.988 820.607 224.88 821.936C222.786 823.265 220.343 823.929 217.551 823.929ZM217.551 819.661C219.672 819.661 221.417 819.117 222.786 818.03C224.155 816.943 225.169 815.513 225.827 813.741C226.484 811.969 226.813 810.05 226.813 807.983C226.813 805.915 226.484 803.989 225.827 802.204C225.169 800.419 224.155 798.976 222.786 797.875C221.417 796.774 219.672 796.224 217.551 796.224C215.43 796.224 213.685 796.774 212.316 797.875C210.947 798.976 209.933 800.419 209.276 802.204C208.618 803.989 208.289 805.915 208.289 807.983C208.289 810.05 208.618 811.969 209.276 813.741C209.933 815.513 210.947 816.943 212.316 818.03C213.685 819.117 215.43 819.661 217.551 819.661ZM239.463 823.285V782.049H244.215V797.271H244.618C244.967 796.734 245.45 796.049 246.067 795.217C246.698 794.371 247.598 793.62 248.765 792.962C249.947 792.291 251.544 791.955 253.558 791.955C256.162 791.955 258.457 792.606 260.444 793.908C262.43 795.21 263.981 797.056 265.095 799.445C266.209 801.835 266.766 804.654 266.766 807.902C266.766 811.177 266.209 814.016 265.095 816.419C263.981 818.808 262.437 820.661 260.464 821.976C258.491 823.278 256.215 823.929 253.638 823.929C251.651 823.929 250.061 823.601 248.866 822.943C247.671 822.272 246.752 821.513 246.108 820.668C245.463 819.809 244.967 819.097 244.618 818.533H244.054V823.285H239.463ZM244.134 807.822C244.134 810.157 244.477 812.218 245.161 814.003C245.846 815.775 246.846 817.164 248.161 818.171C249.477 819.164 251.088 819.661 252.994 819.661C254.98 819.661 256.638 819.137 257.967 818.09C259.309 817.03 260.316 815.607 260.987 813.822C261.672 812.023 262.014 810.023 262.014 807.822C262.014 805.647 261.679 803.687 261.007 801.942C260.35 800.184 259.35 798.794 258.007 797.774C256.678 796.741 255.007 796.224 252.994 796.224C251.061 796.224 249.437 796.714 248.121 797.694C246.806 798.66 245.812 800.016 245.141 801.761C244.47 803.493 244.134 805.513 244.134 807.822ZM274.679 823.285V782.049H279.431V797.271H279.834C280.183 796.734 280.666 796.049 281.283 795.217C281.914 794.371 282.814 793.62 283.981 792.962C285.163 792.291 286.76 791.955 288.774 791.955C291.378 791.955 293.673 792.606 295.66 793.908C297.646 795.21 299.197 797.056 300.311 799.445C301.425 801.835 301.982 804.654 301.982 807.902C301.982 811.177 301.425 814.016 300.311 816.419C299.197 818.808 297.653 820.661 295.68 821.976C293.707 823.278 291.431 823.929 288.854 823.929C286.867 823.929 285.277 823.601 284.082 822.943C282.887 822.272 281.968 821.513 281.324 820.668C280.679 819.809 280.183 819.097 279.834 818.533H279.27V823.285H274.679ZM279.35 807.822C279.35 810.157 279.693 812.218 280.377 814.003C281.062 815.775 282.062 817.164 283.377 818.171C284.693 819.164 286.304 819.661 288.21 819.661C290.196 819.661 291.854 819.137 293.183 818.09C294.525 817.03 295.532 815.607 296.203 813.822C296.888 812.023 297.23 810.023 297.23 807.822C297.23 805.647 296.895 803.687 296.223 801.942C295.566 800.184 294.566 798.794 293.223 797.774C291.894 796.741 290.223 796.224 288.21 796.224C286.277 796.224 284.653 796.714 283.337 797.694C282.022 798.66 281.028 800.016 280.357 801.761C279.686 803.493 279.35 805.513 279.35 807.822ZM311.204 834.883C310.398 834.883 309.68 834.816 309.049 834.682C308.419 834.561 307.982 834.44 307.741 834.319L308.949 830.131C310.103 830.426 311.123 830.534 312.009 830.453C312.895 830.373 313.68 829.977 314.365 829.265C315.063 828.567 315.701 827.433 316.278 825.862L317.164 823.446L305.727 792.358H310.882L319.419 817.003H319.741L328.278 792.358H333.433L320.305 827.795C319.714 829.393 318.983 830.715 318.11 831.762C317.238 832.822 316.224 833.608 315.07 834.118C313.929 834.628 312.64 834.883 311.204 834.883ZM355.652 823.285V792.358H360.404V823.285H355.652ZM358.068 787.203C357.142 787.203 356.343 786.888 355.672 786.257C355.014 785.626 354.685 784.868 354.685 783.982C354.685 783.096 355.014 782.337 355.672 781.706C356.343 781.076 357.142 780.76 358.068 780.76C358.994 780.76 359.786 781.076 360.444 781.706C361.115 782.337 361.451 783.096 361.451 783.982C361.451 784.868 361.115 785.626 360.444 786.257C359.786 786.888 358.994 787.203 358.068 787.203ZM391.014 799.284L386.745 800.492C386.477 799.781 386.081 799.09 385.557 798.419C385.047 797.734 384.349 797.17 383.463 796.727C382.577 796.284 381.443 796.063 380.06 796.063C378.168 796.063 376.59 796.499 375.329 797.371C374.08 798.231 373.456 799.325 373.456 800.653C373.456 801.835 373.886 802.768 374.745 803.452C375.604 804.137 376.946 804.707 378.772 805.164L383.362 806.291C386.128 806.962 388.188 807.989 389.544 809.372C390.9 810.741 391.578 812.506 391.578 814.667C391.578 816.439 391.067 818.023 390.047 819.419C389.041 820.815 387.631 821.916 385.819 822.721C384.007 823.527 381.899 823.929 379.497 823.929C376.342 823.929 373.731 823.245 371.664 821.876C369.597 820.507 368.288 818.506 367.738 815.875L372.248 814.748C372.678 816.412 373.49 817.661 374.684 818.493C375.892 819.325 377.47 819.741 379.416 819.741C381.631 819.741 383.389 819.272 384.691 818.332C386.007 817.379 386.665 816.238 386.665 814.909C386.665 813.835 386.289 812.936 385.537 812.211C384.785 811.473 383.631 810.922 382.074 810.56L376.919 809.352C374.087 808.681 372.006 807.64 370.677 806.231C369.362 804.808 368.704 803.029 368.704 800.895C368.704 799.15 369.194 797.606 370.174 796.264C371.167 794.922 372.516 793.868 374.221 793.103C375.939 792.338 377.886 791.955 380.06 791.955C383.121 791.955 385.524 792.626 387.269 793.969C389.027 795.311 390.275 797.083 391.014 799.284ZM428.127 792.358V796.385H412.1V792.358H428.127ZM416.771 784.948H421.523V814.426C421.523 815.768 421.718 816.775 422.107 817.446C422.51 818.104 423.02 818.547 423.637 818.775C424.268 818.99 424.933 819.097 425.631 819.097C426.154 819.097 426.584 819.07 426.919 819.017C427.255 818.949 427.523 818.896 427.725 818.855L428.691 823.124C428.369 823.245 427.919 823.366 427.342 823.487C426.765 823.621 426.033 823.688 425.148 823.688C423.805 823.688 422.49 823.399 421.201 822.822C419.926 822.245 418.865 821.366 418.02 820.184C417.187 819.003 416.771 817.513 416.771 815.714V784.948ZM440.692 804.68V823.285H435.94V782.049H440.692V797.19H441.094C441.819 795.593 442.907 794.324 444.356 793.385C445.819 792.432 447.766 791.955 450.195 791.955C452.303 791.955 454.149 792.378 455.732 793.224C457.316 794.056 458.545 795.338 459.417 797.069C460.303 798.788 460.746 800.976 460.746 803.633V823.285H455.994V803.956C455.994 801.499 455.357 799.6 454.081 798.257C452.82 796.902 451.068 796.224 448.826 796.224C447.269 796.224 445.873 796.553 444.638 797.21C443.417 797.868 442.45 798.828 441.739 800.09C441.041 801.351 440.692 802.882 440.692 804.68ZM482.406 823.929C479.426 823.929 476.856 823.272 474.695 821.956C472.547 820.627 470.889 818.775 469.721 816.399C468.567 814.01 467.99 811.231 467.99 808.063C467.99 804.895 468.567 802.103 469.721 799.687C470.889 797.257 472.513 795.365 474.594 794.009C476.688 792.64 479.131 791.955 481.923 791.955C483.534 791.955 485.124 792.224 486.695 792.761C488.266 793.298 489.695 794.17 490.984 795.378C492.272 796.573 493.299 798.157 494.064 800.13C494.83 802.103 495.212 804.533 495.212 807.419V809.432H471.372V805.325H490.38C490.38 803.58 490.031 802.023 489.333 800.653C488.648 799.284 487.668 798.204 486.393 797.412C485.131 796.62 483.641 796.224 481.923 796.224C480.03 796.224 478.393 796.694 477.01 797.633C475.641 798.559 474.587 799.768 473.849 801.258C473.111 802.748 472.741 804.345 472.741 806.05V808.788C472.741 811.124 473.144 813.104 473.95 814.728C474.768 816.339 475.903 817.567 477.352 818.413C478.802 819.245 480.487 819.661 482.406 819.661C483.655 819.661 484.782 819.486 485.789 819.137C486.809 818.775 487.688 818.238 488.427 817.527C489.165 816.802 489.735 815.902 490.138 814.828L494.729 816.117C494.246 817.674 493.433 819.043 492.293 820.225C491.152 821.392 489.742 822.305 488.064 822.963C486.386 823.607 484.5 823.929 482.406 823.929ZM518.387 823.285V792.358H522.978V797.19H523.381C524.025 795.539 525.065 794.257 526.502 793.344C527.938 792.418 529.663 791.955 531.676 791.955C533.717 791.955 535.415 792.418 536.771 793.344C538.14 794.257 539.207 795.539 539.972 797.19H540.294C541.086 795.593 542.274 794.324 543.858 793.385C545.442 792.432 547.341 791.955 549.556 791.955C552.321 791.955 554.583 792.821 556.342 794.553C558.1 796.271 558.979 798.949 558.979 802.586V823.285H554.228V802.586C554.228 800.304 553.603 798.674 552.355 797.694C551.107 796.714 549.637 796.224 547.945 796.224C545.771 796.224 544.086 796.882 542.892 798.197C541.697 799.499 541.1 801.15 541.1 803.15V823.285H536.267V802.103C536.267 800.345 535.697 798.929 534.556 797.855C533.415 796.767 531.945 796.224 530.146 796.224C528.911 796.224 527.757 796.553 526.683 797.21C525.623 797.868 524.763 798.781 524.106 799.949C523.461 801.103 523.139 802.439 523.139 803.956V823.285H518.387ZM576.769 824.01C574.809 824.01 573.03 823.641 571.433 822.903C569.836 822.151 568.567 821.07 567.627 819.661C566.688 818.238 566.218 816.52 566.218 814.506C566.218 812.734 566.567 811.298 567.265 810.197C567.963 809.083 568.896 808.211 570.064 807.58C571.232 806.949 572.52 806.479 573.93 806.17C575.352 805.848 576.782 805.593 578.218 805.405C580.098 805.164 581.621 804.982 582.789 804.862C583.97 804.727 584.829 804.506 585.366 804.197C585.917 803.888 586.192 803.352 586.192 802.586V802.425C586.192 800.439 585.648 798.895 584.561 797.794C583.487 796.694 581.856 796.143 579.668 796.143C577.4 796.143 575.621 796.64 574.332 797.633C573.044 798.627 572.138 799.687 571.614 800.815L567.104 799.204C567.909 797.325 568.983 795.861 570.325 794.814C571.681 793.754 573.158 793.016 574.755 792.6C576.366 792.17 577.95 791.955 579.507 791.955C580.5 791.955 581.641 792.076 582.93 792.318C584.232 792.546 585.487 793.022 586.695 793.747C587.917 794.472 588.93 795.566 589.736 797.029C590.541 798.492 590.944 800.452 590.944 802.909V823.285H586.192V819.097H585.95C585.628 819.768 585.091 820.486 584.339 821.252C583.588 822.017 582.588 822.668 581.339 823.205C580.091 823.742 578.567 824.01 576.769 824.01ZM577.494 819.741C579.373 819.741 580.957 819.372 582.245 818.634C583.547 817.896 584.527 816.943 585.185 815.775C585.856 814.607 586.192 813.379 586.192 812.09V807.741C585.99 807.983 585.547 808.204 584.863 808.405C584.192 808.593 583.413 808.761 582.527 808.909C581.655 809.043 580.802 809.164 579.97 809.271C579.151 809.365 578.487 809.446 577.977 809.513C576.742 809.674 575.587 809.936 574.514 810.298C573.453 810.647 572.594 811.177 571.936 811.889C571.292 812.587 570.97 813.54 570.97 814.748C570.97 816.399 571.581 817.647 572.802 818.493C574.037 819.325 575.601 819.741 577.494 819.741ZM599.617 823.285V792.358H604.369V823.285H599.617ZM602.033 787.203C601.107 787.203 600.308 786.888 599.637 786.257C598.979 785.626 598.65 784.868 598.65 783.982C598.65 783.096 598.979 782.337 599.637 781.706C600.308 781.076 601.107 780.76 602.033 780.76C602.959 780.76 603.751 781.076 604.409 781.706C605.08 782.337 605.416 783.096 605.416 783.982C605.416 784.868 605.08 785.626 604.409 786.257C603.751 786.888 602.959 787.203 602.033 787.203ZM617.824 804.68V823.285H613.072V792.358H617.663V797.19H618.065C618.79 795.62 619.891 794.358 621.368 793.405C622.844 792.438 624.75 791.955 627.086 791.955C629.18 791.955 631.012 792.385 632.583 793.244C634.153 794.089 635.375 795.378 636.247 797.11C637.12 798.828 637.556 801.002 637.556 803.633V823.285H632.804V803.956C632.804 801.526 632.173 799.633 630.911 798.278C629.65 796.908 627.918 796.224 625.717 796.224C624.2 796.224 622.844 796.553 621.649 797.21C620.468 797.868 619.535 798.828 618.851 800.09C618.166 801.351 617.824 802.882 617.824 804.68ZM662.186 834.883V792.358H666.777V797.271H667.341C667.69 796.734 668.173 796.049 668.79 795.217C669.421 794.371 670.321 793.62 671.488 792.962C672.67 792.291 674.267 791.955 676.281 791.955C678.885 791.955 681.18 792.606 683.167 793.908C685.153 795.21 686.704 797.056 687.818 799.445C688.932 801.835 689.489 804.654 689.489 807.902C689.489 811.177 688.932 814.016 687.818 816.419C686.704 818.808 685.16 820.661 683.187 821.976C681.214 823.278 678.938 823.929 676.361 823.929C674.374 823.929 672.784 823.601 671.589 822.943C670.394 822.272 669.475 821.513 668.831 820.668C668.186 819.809 667.69 819.097 667.341 818.533H666.938V834.883H662.186ZM666.857 807.822C666.857 810.157 667.2 812.218 667.884 814.003C668.569 815.775 669.569 817.164 670.884 818.171C672.2 819.164 673.811 819.661 675.717 819.661C677.703 819.661 679.361 819.137 680.69 818.09C682.032 817.03 683.039 815.607 683.71 813.822C684.395 812.023 684.737 810.023 684.737 807.822C684.737 805.647 684.402 803.687 683.731 801.942C683.073 800.184 682.073 798.794 680.73 797.774C679.401 796.741 677.73 796.224 675.717 796.224C673.784 796.224 672.16 796.714 670.844 797.694C669.529 798.66 668.535 800.016 667.864 801.761C667.193 803.493 666.857 805.513 666.857 807.822ZM701.49 782.049V823.285H696.738V782.049H701.49ZM719.294 824.01C717.334 824.01 715.555 823.641 713.958 822.903C712.361 822.151 711.092 821.07 710.153 819.661C709.213 818.238 708.743 816.52 708.743 814.506C708.743 812.734 709.092 811.298 709.79 810.197C710.488 809.083 711.421 808.211 712.589 807.58C713.757 806.949 715.045 806.479 716.455 806.17C717.878 805.848 719.307 805.593 720.744 805.405C722.623 805.164 724.146 804.982 725.314 804.862C726.495 804.727 727.355 804.506 727.891 804.197C728.442 803.888 728.717 803.352 728.717 802.586V802.425C728.717 800.439 728.173 798.895 727.086 797.794C726.012 796.694 724.381 796.143 722.193 796.143C719.925 796.143 718.146 796.64 716.858 797.633C715.569 798.627 714.663 799.687 714.139 800.815L709.629 799.204C710.434 797.325 711.508 795.861 712.851 794.814C714.206 793.754 715.683 793.016 717.28 792.6C718.891 792.17 720.475 791.955 722.032 791.955C723.026 791.955 724.166 792.076 725.455 792.318C726.757 792.546 728.012 793.022 729.22 793.747C730.442 794.472 731.455 795.566 732.261 797.029C733.066 798.492 733.469 800.452 733.469 802.909V823.285H728.717V819.097H728.475C728.153 819.768 727.616 820.486 726.865 821.252C726.113 822.017 725.113 822.668 723.864 823.205C722.616 823.742 721.093 824.01 719.294 824.01ZM720.019 819.741C721.898 819.741 723.482 819.372 724.771 818.634C726.073 817.896 727.052 816.943 727.71 815.775C728.381 814.607 728.717 813.379 728.717 812.09V807.741C728.516 807.983 728.073 808.204 727.388 808.405C726.717 808.593 725.938 808.761 725.052 808.909C724.18 809.043 723.328 809.164 722.495 809.271C721.676 809.365 721.012 809.446 720.502 809.513C719.267 809.674 718.113 809.936 717.039 810.298C715.978 810.647 715.119 811.177 714.461 811.889C713.817 812.587 713.495 813.54 713.495 814.748C713.495 816.399 714.106 817.647 715.327 818.493C716.562 819.325 718.126 819.741 720.019 819.741ZM754.706 823.929C751.807 823.929 749.31 823.245 747.216 821.876C745.122 820.507 743.511 818.621 742.384 816.218C741.256 813.815 740.692 811.07 740.692 807.983C740.692 804.842 741.269 802.07 742.424 799.667C743.592 797.251 745.216 795.365 747.297 794.009C749.391 792.64 751.834 791.955 754.626 791.955C756.8 791.955 758.76 792.358 760.505 793.163C762.25 793.969 763.68 795.096 764.794 796.546C765.908 797.996 766.599 799.687 766.868 801.62H762.116C761.753 800.211 760.948 798.962 759.7 797.875C758.465 796.774 756.8 796.224 754.706 796.224C752.854 796.224 751.23 796.707 749.834 797.674C748.451 798.627 747.37 799.976 746.592 801.721C745.827 803.452 745.444 805.486 745.444 807.822C745.444 810.211 745.82 812.291 746.572 814.063C747.337 815.835 748.411 817.211 749.793 818.191C751.189 819.171 752.827 819.661 754.706 819.661C755.941 819.661 757.062 819.446 758.069 819.017C759.075 818.587 759.928 817.97 760.626 817.164C761.324 816.359 761.821 815.392 762.116 814.265H766.868C766.599 816.09 765.935 817.735 764.874 819.198C763.827 820.647 762.438 821.802 760.706 822.661C758.988 823.507 756.988 823.929 754.706 823.929ZM786.781 823.929C783.801 823.929 781.231 823.272 779.069 821.956C776.922 820.627 775.264 818.775 774.096 816.399C772.942 814.01 772.365 811.231 772.365 808.063C772.365 804.895 772.942 802.103 774.096 799.687C775.264 797.257 776.888 795.365 778.969 794.009C781.063 792.64 783.506 791.955 786.298 791.955C787.909 791.955 789.499 792.224 791.07 792.761C792.64 793.298 794.07 794.17 795.359 795.378C796.647 796.573 797.674 798.157 798.439 800.13C799.204 802.103 799.587 804.533 799.587 807.419V809.432H775.747V805.325H794.755C794.755 803.58 794.406 802.023 793.708 800.653C793.023 799.284 792.043 798.204 790.768 797.412C789.506 796.62 788.016 796.224 786.298 796.224C784.405 796.224 782.768 796.694 781.385 797.633C780.016 798.559 778.962 799.768 778.224 801.258C777.486 802.748 777.116 804.345 777.116 806.05V808.788C777.116 811.124 777.519 813.104 778.324 814.728C779.143 816.339 780.278 817.567 781.727 818.413C783.177 819.245 784.862 819.661 786.781 819.661C788.03 819.661 789.157 819.486 790.164 819.137C791.184 818.775 792.063 818.238 792.801 817.527C793.54 816.802 794.11 815.902 794.513 814.828L799.104 816.117C798.62 817.674 797.808 819.043 796.667 820.225C795.526 821.392 794.117 822.305 792.439 822.963C790.761 823.607 788.875 823.929 786.781 823.929ZM822.762 823.285V792.358H827.514V823.285H822.762ZM825.178 787.203C824.252 787.203 823.454 786.888 822.782 786.257C822.125 785.626 821.796 784.868 821.796 783.982C821.796 783.096 822.125 782.337 822.782 781.706C823.454 781.076 824.252 780.76 825.178 780.76C826.105 780.76 826.897 781.076 827.554 781.706C828.226 782.337 828.561 783.096 828.561 783.982C828.561 784.868 828.226 785.626 827.554 786.257C826.897 786.888 826.105 787.203 825.178 787.203ZM840.969 804.68V823.285H836.217V792.358H840.808V797.19H841.211C841.936 795.62 843.036 794.358 844.513 793.405C845.99 792.438 847.896 791.955 850.231 791.955C852.325 791.955 854.158 792.385 855.728 793.244C857.299 794.089 858.52 795.378 859.393 797.11C860.265 798.828 860.702 801.002 860.702 803.633V823.285H855.95V803.956C855.95 801.526 855.319 799.633 854.057 798.278C852.795 796.908 851.064 796.224 848.862 796.224C847.345 796.224 845.99 796.553 844.795 797.21C843.614 797.868 842.681 798.828 841.996 800.09C841.312 801.351 840.969 802.882 840.969 804.68ZM914.165 794.935C913.722 793.579 913.138 792.365 912.413 791.291C911.702 790.203 910.849 789.277 909.856 788.512C908.876 787.747 907.762 787.163 906.514 786.76C905.265 786.358 903.896 786.156 902.406 786.156C899.963 786.156 897.741 786.787 895.741 788.049C893.741 789.311 892.151 791.17 890.969 793.626C889.788 796.083 889.198 799.096 889.198 802.667C889.198 806.238 889.795 809.251 890.99 811.708C892.184 814.164 893.802 816.023 895.842 817.285C897.882 818.547 900.178 819.178 902.728 819.178C905.091 819.178 907.171 818.674 908.97 817.668C910.782 816.647 912.192 815.211 913.198 813.359C914.219 811.493 914.729 809.298 914.729 806.775L916.259 807.097H903.856V802.667H919.561V807.097C919.561 810.493 918.836 813.446 917.386 815.956C915.95 818.466 913.964 820.413 911.427 821.795C908.903 823.164 906.004 823.849 902.728 823.849C899.077 823.849 895.869 822.99 893.104 821.272C890.352 819.553 888.204 817.11 886.661 813.943C885.13 810.775 884.365 807.016 884.365 802.667C884.365 799.405 884.801 796.472 885.674 793.868C886.56 791.25 887.808 789.022 889.419 787.183C891.03 785.344 892.936 783.935 895.137 782.955C897.339 781.975 899.762 781.485 902.406 781.485C904.581 781.485 906.608 781.814 908.487 782.472C910.379 783.116 912.064 784.035 913.541 785.23C915.031 786.411 916.272 787.828 917.266 789.479C918.259 791.116 918.944 792.935 919.319 794.935H914.165ZM928.113 823.285V782.049H942.047C945.268 782.049 947.913 782.599 949.98 783.7C952.047 784.787 953.577 786.284 954.571 788.19C955.564 790.096 956.061 792.264 956.061 794.694C956.061 797.123 955.564 799.278 954.571 801.157C953.577 803.036 952.054 804.513 950 805.587C947.946 806.647 945.322 807.177 942.127 807.177H930.852V802.667H941.966C944.168 802.667 945.939 802.345 947.282 801.7C948.638 801.056 949.617 800.143 950.222 798.962C950.839 797.767 951.148 796.345 951.148 794.694C951.148 793.042 950.839 791.599 950.222 790.365C949.604 789.13 948.617 788.177 947.262 787.505C945.906 786.821 944.114 786.478 941.886 786.478H933.107V823.285H928.113ZM947.523 804.761L957.671 823.285H951.873L941.886 804.761H947.523ZM966.073 823.285H960.838L975.979 782.049H981.134L996.275 823.285H991.04L978.717 788.573H978.395L966.073 823.285ZM968.006 807.177H989.107V811.607H968.006V807.177ZM1002.7 823.285V782.049H1017.11C1019.99 782.049 1022.36 782.545 1024.22 783.539C1026.09 784.519 1027.48 785.841 1028.39 787.505C1029.3 789.156 1029.76 790.989 1029.76 793.002C1029.76 794.774 1029.44 796.237 1028.81 797.392C1028.2 798.546 1027.38 799.459 1026.36 800.13C1025.35 800.801 1024.26 801.298 1023.07 801.62V802.023C1024.34 802.103 1025.61 802.546 1026.88 803.352C1028.16 804.157 1029.22 805.311 1030.08 806.815C1030.94 808.318 1031.37 810.157 1031.37 812.332C1031.37 814.399 1030.9 816.258 1029.96 817.909C1029.02 819.56 1027.54 820.869 1025.51 821.835C1023.48 822.802 1020.85 823.285 1017.6 823.285H1002.7ZM1007.69 818.855H1017.6C1020.86 818.855 1023.18 818.225 1024.54 816.963C1025.93 815.688 1026.62 814.144 1026.62 812.332C1026.62 810.936 1026.26 809.647 1025.55 808.466C1024.84 807.271 1023.83 806.318 1022.51 805.607C1021.2 804.882 1019.64 804.519 1017.84 804.519H1007.69V818.855ZM1007.69 800.17H1016.95C1018.46 800.17 1019.81 799.875 1021.02 799.284C1022.24 798.694 1023.21 797.861 1023.92 796.788C1024.65 795.714 1025.01 794.452 1025.01 793.002C1025.01 791.19 1024.38 789.653 1023.12 788.391C1021.85 787.116 1019.85 786.478 1017.11 786.478H1007.69V800.17ZM1046.02 817.647L1045.7 819.822C1045.47 821.352 1045.12 822.99 1044.65 824.735C1044.19 826.48 1043.72 828.124 1043.22 829.668C1042.72 831.212 1042.31 832.44 1041.99 833.353H1038.37C1038.54 832.494 1038.77 831.359 1039.05 829.95C1039.33 828.54 1039.62 826.963 1039.9 825.218C1040.19 823.487 1040.43 821.715 1040.62 819.902L1040.86 817.647H1046.02ZM1070.77 823.285V792.358H1075.52V823.285H1070.77ZM1073.19 787.203C1072.26 787.203 1071.46 786.888 1070.79 786.257C1070.13 785.626 1069.8 784.868 1069.8 783.982C1069.8 783.096 1070.13 782.337 1070.79 781.706C1071.46 781.076 1072.26 780.76 1073.19 780.76C1074.11 780.76 1074.9 781.076 1075.56 781.706C1076.23 782.337 1076.57 783.096 1076.57 783.982C1076.57 784.868 1076.23 785.626 1075.56 786.257C1074.9 786.888 1074.11 787.203 1073.19 787.203ZM1097.67 792.358V796.385H1081.65V792.358H1097.67ZM1086.32 784.948H1091.07V814.426C1091.07 815.768 1091.27 816.775 1091.65 817.446C1092.06 818.104 1092.57 818.547 1093.18 818.775C1093.82 818.99 1094.48 819.097 1095.18 819.097C1095.7 819.097 1096.13 819.07 1096.47 819.017C1096.8 818.949 1097.07 818.896 1097.27 818.855L1098.24 823.124C1097.92 823.245 1097.47 823.366 1096.89 823.487C1096.31 823.621 1095.58 823.688 1094.69 823.688C1093.35 823.688 1092.04 823.399 1090.75 822.822C1089.47 822.245 1088.41 821.366 1087.57 820.184C1086.73 819.003 1086.32 817.513 1086.32 815.714V784.948ZM1110.62 782.049V785.673C1110.62 786.774 1110.42 787.948 1110.01 789.197C1109.62 790.432 1109.05 791.633 1108.28 792.801C1107.53 793.955 1106.62 794.962 1105.54 795.821L1102.97 793.727C1103.81 792.519 1104.54 791.264 1105.16 789.962C1105.79 788.646 1106.11 787.244 1106.11 785.754V782.049H1110.62ZM1134.43 799.284L1130.16 800.492C1129.89 799.781 1129.49 799.09 1128.97 798.419C1128.46 797.734 1127.76 797.17 1126.88 796.727C1125.99 796.284 1124.86 796.063 1123.47 796.063C1121.58 796.063 1120 796.499 1118.74 797.371C1117.49 798.231 1116.87 799.325 1116.87 800.653C1116.87 801.835 1117.3 802.768 1118.16 803.452C1119.02 804.137 1120.36 804.707 1122.18 805.164L1126.77 806.291C1129.54 806.962 1131.6 807.989 1132.96 809.372C1134.31 810.741 1134.99 812.506 1134.99 814.667C1134.99 816.439 1134.48 818.023 1133.46 819.419C1132.45 820.815 1131.04 821.916 1129.23 822.721C1127.42 823.527 1125.31 823.929 1122.91 823.929C1119.75 823.929 1117.14 823.245 1115.08 821.876C1113.01 820.507 1111.7 818.506 1111.15 815.875L1115.66 814.748C1116.09 816.412 1116.9 817.661 1118.1 818.493C1119.3 819.325 1120.88 819.741 1122.83 819.741C1125.04 819.741 1126.8 819.272 1128.1 818.332C1129.42 817.379 1130.08 816.238 1130.08 814.909C1130.08 813.835 1129.7 812.936 1128.95 812.211C1128.2 811.473 1127.04 810.922 1125.49 810.56L1120.33 809.352C1117.5 808.681 1115.42 807.64 1114.09 806.231C1112.77 804.808 1112.12 803.029 1112.12 800.895C1112.12 799.15 1112.61 797.606 1113.59 796.264C1114.58 794.922 1115.93 793.868 1117.63 793.103C1119.35 792.338 1121.3 791.955 1123.47 791.955C1126.53 791.955 1128.94 792.626 1130.68 793.969C1132.44 795.311 1133.69 797.083 1134.43 799.284ZM1165.1 823.285L1155.67 792.358H1160.67L1167.35 816.037H1167.67L1174.28 792.358H1179.35L1185.88 815.956H1186.2L1192.88 792.358H1197.88L1188.45 823.285H1183.78L1177.02 799.526H1176.53L1169.77 823.285H1165.1ZM1208.91 804.68V823.285H1204.16V782.049H1208.91V797.19H1209.31C1210.04 795.593 1211.13 794.324 1212.57 793.385C1214.04 792.432 1215.98 791.955 1218.41 791.955C1220.52 791.955 1222.37 792.378 1223.95 793.224C1225.53 794.056 1226.76 795.338 1227.64 797.069C1228.52 798.788 1228.96 800.976 1228.96 803.633V823.285H1224.21V803.956C1224.21 801.499 1223.58 799.6 1222.3 798.257C1221.04 796.902 1219.29 796.224 1217.04 796.224C1215.49 796.224 1214.09 796.553 1212.86 797.21C1211.64 797.868 1210.67 798.828 1209.96 800.09C1209.26 801.351 1208.91 802.882 1208.91 804.68ZM1250.62 823.929C1247.64 823.929 1245.07 823.272 1242.91 821.956C1240.77 820.627 1239.11 818.775 1237.94 816.399C1236.79 814.01 1236.21 811.231 1236.21 808.063C1236.21 804.895 1236.79 802.103 1237.94 799.687C1239.11 797.257 1240.73 795.365 1242.81 794.009C1244.91 792.64 1247.35 791.955 1250.14 791.955C1251.75 791.955 1253.34 792.224 1254.91 792.761C1256.48 793.298 1257.91 794.17 1259.2 795.378C1260.49 796.573 1261.52 798.157 1262.28 800.13C1263.05 802.103 1263.43 804.533 1263.43 807.419V809.432H1239.59V805.325H1258.6C1258.6 803.58 1258.25 802.023 1257.55 800.653C1256.87 799.284 1255.89 798.204 1254.61 797.412C1253.35 796.62 1251.86 796.224 1250.14 796.224C1248.25 796.224 1246.61 796.694 1245.23 797.633C1243.86 798.559 1242.81 799.768 1242.07 801.258C1241.33 802.748 1240.96 804.345 1240.96 806.05V808.788C1240.96 811.124 1241.36 813.104 1242.17 814.728C1242.99 816.339 1244.12 817.567 1245.57 818.413C1247.02 819.245 1248.71 819.661 1250.62 819.661C1251.87 819.661 1253 819.486 1254.01 819.137C1255.03 818.775 1255.91 818.238 1256.65 817.527C1257.38 816.802 1257.95 815.902 1258.36 814.828L1262.95 816.117C1262.46 817.674 1261.65 819.043 1260.51 820.225C1259.37 821.392 1257.96 822.305 1256.28 822.963C1254.6 823.607 1252.72 823.929 1250.62 823.929ZM1270.66 823.285V792.358H1275.25V797.029H1275.57C1276.14 795.499 1277.16 794.257 1278.63 793.304C1280.11 792.351 1281.77 791.875 1283.63 791.875C1283.97 791.875 1284.41 791.881 1284.93 791.895C1285.46 791.908 1285.85 791.928 1286.12 791.955V796.788C1285.96 796.747 1285.59 796.687 1285.02 796.606C1284.45 796.512 1283.85 796.465 1283.22 796.465C1281.72 796.465 1280.38 796.781 1279.2 797.412C1278.03 798.029 1277.1 798.888 1276.42 799.989C1275.75 801.076 1275.41 802.318 1275.41 803.714V823.285H1270.66ZM1303.78 823.929C1300.8 823.929 1298.23 823.272 1296.07 821.956C1293.92 820.627 1292.26 818.775 1291.1 816.399C1289.94 814.01 1289.36 811.231 1289.36 808.063C1289.36 804.895 1289.94 802.103 1291.1 799.687C1292.26 797.257 1293.89 795.365 1295.97 794.009C1298.06 792.64 1300.51 791.955 1303.3 791.955C1304.91 791.955 1306.5 792.224 1308.07 792.761C1309.64 793.298 1311.07 794.17 1312.36 795.378C1313.65 796.573 1314.67 798.157 1315.44 800.13C1316.2 802.103 1316.59 804.533 1316.59 807.419V809.432H1292.75V805.325H1311.75C1311.75 803.58 1311.41 802.023 1310.71 800.653C1310.02 799.284 1309.04 798.204 1307.77 797.412C1306.51 796.62 1305.02 796.224 1303.3 796.224C1301.41 796.224 1299.77 796.694 1298.38 797.633C1297.02 798.559 1295.96 799.768 1295.22 801.258C1294.49 802.748 1294.12 804.345 1294.12 806.05V808.788C1294.12 811.124 1294.52 813.104 1295.32 814.728C1296.14 816.339 1297.28 817.567 1298.73 818.413C1300.18 819.245 1301.86 819.661 1303.78 819.661C1305.03 819.661 1306.16 819.486 1307.16 819.137C1308.18 818.775 1309.06 818.238 1309.8 817.527C1310.54 816.802 1311.11 815.902 1311.51 814.828L1316.1 816.117C1315.62 817.674 1314.81 819.043 1313.67 820.225C1312.53 821.392 1311.12 822.305 1309.44 822.963C1307.76 823.607 1305.88 823.929 1303.78 823.929ZM1342.82 834.883C1342.02 834.883 1341.3 834.816 1340.67 834.682C1340.04 834.561 1339.6 834.44 1339.36 834.319L1340.57 830.131C1341.72 830.426 1342.74 830.534 1343.63 830.453C1344.51 830.373 1345.3 829.977 1345.98 829.265C1346.68 828.567 1347.32 827.433 1347.9 825.862L1348.78 823.446L1337.35 792.358H1342.5L1351.04 817.003H1351.36L1359.9 792.358H1365.05L1351.92 827.795C1351.33 829.393 1350.6 830.715 1349.73 831.762C1348.86 832.822 1347.84 833.608 1346.69 834.118C1345.55 834.628 1344.26 834.883 1342.82 834.883ZM1382.78 823.929C1379.99 823.929 1377.54 823.265 1375.43 821.936C1373.34 820.607 1371.7 818.748 1370.52 816.359C1369.35 813.969 1368.77 811.177 1368.77 807.983C1368.77 804.761 1369.35 801.949 1370.52 799.546C1371.7 797.143 1373.34 795.277 1375.43 793.949C1377.54 792.62 1379.99 791.955 1382.78 791.955C1385.57 791.955 1388.02 792.62 1390.11 793.949C1392.22 795.277 1393.85 797.143 1395.02 799.546C1396.2 801.949 1396.79 804.761 1396.79 807.983C1396.79 811.177 1396.2 813.969 1395.02 816.359C1393.85 818.748 1392.22 820.607 1390.11 821.936C1388.02 823.265 1385.57 823.929 1382.78 823.929ZM1382.78 819.661C1384.9 819.661 1386.65 819.117 1388.02 818.03C1389.38 816.943 1390.4 815.513 1391.06 813.741C1391.71 811.969 1392.04 810.05 1392.04 807.983C1392.04 805.915 1391.71 803.989 1391.06 802.204C1390.4 800.419 1389.38 798.976 1388.02 797.875C1386.65 796.774 1384.9 796.224 1382.78 796.224C1380.66 796.224 1378.91 796.774 1377.55 797.875C1376.18 798.976 1375.16 800.419 1374.5 802.204C1373.85 803.989 1373.52 805.915 1373.52 807.983C1373.52 810.05 1373.85 811.969 1374.5 813.741C1375.16 815.513 1376.18 816.943 1377.55 818.03C1378.91 819.117 1380.66 819.661 1382.78 819.661ZM1423.54 810.64V792.358H1428.29V823.285H1423.54V818.05H1423.22C1422.49 819.621 1421.36 820.956 1419.83 822.057C1418.3 823.144 1416.37 823.688 1414.03 823.688C1412.1 823.688 1410.38 823.265 1408.88 822.419C1407.38 821.56 1406.2 820.272 1405.34 818.553C1404.48 816.822 1404.05 814.641 1404.05 812.01V792.358H1408.8V811.687C1408.8 813.943 1409.43 815.741 1410.69 817.084C1411.97 818.426 1413.59 819.097 1415.57 819.097C1416.75 819.097 1417.95 818.795 1419.17 818.191C1420.4 817.587 1421.44 816.661 1422.27 815.412C1423.12 814.164 1423.54 812.573 1423.54 810.64ZM1474.85 799.284L1470.58 800.492C1470.31 799.781 1469.91 799.09 1469.39 798.419C1468.88 797.734 1468.18 797.17 1467.3 796.727C1466.41 796.284 1465.28 796.063 1463.89 796.063C1462 796.063 1460.42 796.499 1459.16 797.371C1457.91 798.231 1457.29 799.325 1457.29 800.653C1457.29 801.835 1457.72 802.768 1458.58 803.452C1459.44 804.137 1460.78 804.707 1462.61 805.164L1467.2 806.291C1469.96 806.962 1472.02 807.989 1473.38 809.372C1474.73 810.741 1475.41 812.506 1475.41 814.667C1475.41 816.439 1474.9 818.023 1473.88 819.419C1472.87 820.815 1471.46 821.916 1469.65 822.721C1467.84 823.527 1465.73 823.929 1463.33 823.929C1460.18 823.929 1457.57 823.245 1455.5 821.876C1453.43 820.507 1452.12 818.506 1451.57 815.875L1456.08 814.748C1456.51 816.412 1457.32 817.661 1458.52 818.493C1459.73 819.325 1461.3 819.741 1463.25 819.741C1465.46 819.741 1467.22 819.272 1468.53 818.332C1469.84 817.379 1470.5 816.238 1470.5 814.909C1470.5 813.835 1470.12 812.936 1469.37 812.211C1468.62 811.473 1467.46 810.922 1465.91 810.56L1460.75 809.352C1457.92 808.681 1455.84 807.64 1454.51 806.231C1453.2 804.808 1452.54 803.029 1452.54 800.895C1452.54 799.15 1453.03 797.606 1454.01 796.264C1455 794.922 1456.35 793.868 1458.05 793.103C1459.77 792.338 1461.72 791.955 1463.89 791.955C1466.95 791.955 1469.36 792.626 1471.1 793.969C1472.86 795.311 1474.11 797.083 1474.85 799.284ZM1482.56 834.883V792.358H1487.16V797.271H1487.72C1488.07 796.734 1488.55 796.049 1489.17 795.217C1489.8 794.371 1490.7 793.62 1491.87 792.962C1493.05 792.291 1494.65 791.955 1496.66 791.955C1499.26 791.955 1501.56 792.606 1503.54 793.908C1505.53 795.21 1507.08 797.056 1508.2 799.445C1509.31 801.835 1509.87 804.654 1509.87 807.902C1509.87 811.177 1509.31 814.016 1508.2 816.419C1507.08 818.808 1505.54 820.661 1503.56 821.976C1501.59 823.278 1499.32 823.929 1496.74 823.929C1494.75 823.929 1493.16 823.601 1491.97 822.943C1490.77 822.272 1489.85 821.513 1489.21 820.668C1488.56 819.809 1488.07 819.097 1487.72 818.533H1487.32V834.883H1482.56ZM1487.24 807.822C1487.24 810.157 1487.58 812.218 1488.26 814.003C1488.95 815.775 1489.95 817.164 1491.26 818.171C1492.58 819.164 1494.19 819.661 1496.09 819.661C1498.08 819.661 1499.74 819.137 1501.07 818.09C1502.41 817.03 1503.42 815.607 1504.09 813.822C1504.77 812.023 1505.12 810.023 1505.12 807.822C1505.12 805.647 1504.78 803.687 1504.11 801.942C1503.45 800.184 1502.45 798.794 1501.11 797.774C1499.78 796.741 1498.11 796.224 1496.09 796.224C1494.16 796.224 1492.54 796.714 1491.22 797.694C1489.91 798.66 1488.91 800.016 1488.24 801.761C1487.57 803.493 1487.24 805.513 1487.24 807.822ZM1526.22 824.01C1524.26 824.01 1522.48 823.641 1520.88 822.903C1519.28 822.151 1518.02 821.07 1517.08 819.661C1516.14 818.238 1515.67 816.52 1515.67 814.506C1515.67 812.734 1516.02 811.298 1516.71 810.197C1517.41 809.083 1518.34 808.211 1519.51 807.58C1520.68 806.949 1521.97 806.479 1523.38 806.17C1524.8 805.848 1526.23 805.593 1527.67 805.405C1529.55 805.164 1531.07 804.982 1532.24 804.862C1533.42 804.727 1534.28 804.506 1534.81 804.197C1535.36 803.888 1535.64 803.352 1535.64 802.586V802.425C1535.64 800.439 1535.1 798.895 1534.01 797.794C1532.94 796.694 1531.3 796.143 1529.12 796.143C1526.85 796.143 1525.07 796.64 1523.78 797.633C1522.49 798.627 1521.59 799.687 1521.06 800.815L1516.55 799.204C1517.36 797.325 1518.43 795.861 1519.77 794.814C1521.13 793.754 1522.61 793.016 1524.2 792.6C1525.81 792.17 1527.4 791.955 1528.96 791.955C1529.95 791.955 1531.09 792.076 1532.38 792.318C1533.68 792.546 1534.94 793.022 1536.14 793.747C1537.36 794.472 1538.38 795.566 1539.18 797.029C1539.99 798.492 1540.39 800.452 1540.39 802.909V823.285H1535.64V819.097H1535.4C1535.08 819.768 1534.54 820.486 1533.79 821.252C1533.04 822.017 1532.04 822.668 1530.79 823.205C1529.54 823.742 1528.02 824.01 1526.22 824.01ZM1526.94 819.741C1528.82 819.741 1530.4 819.372 1531.69 818.634C1533 817.896 1533.98 816.943 1534.63 815.775C1535.3 814.607 1535.64 813.379 1535.64 812.09V807.741C1535.44 807.983 1535 808.204 1534.31 808.405C1533.64 808.593 1532.86 808.761 1531.98 808.909C1531.1 809.043 1530.25 809.164 1529.42 809.271C1528.6 809.365 1527.93 809.446 1527.42 809.513C1526.19 809.674 1525.04 809.936 1523.96 810.298C1522.9 810.647 1522.04 811.177 1521.38 811.889C1520.74 812.587 1520.42 813.54 1520.42 814.748C1520.42 816.399 1521.03 817.647 1522.25 818.493C1523.49 819.325 1525.05 819.741 1526.94 819.741ZM1556.07 823.285L1546.65 792.358H1551.64L1558.33 816.037H1558.65L1565.25 792.358H1570.33L1576.85 815.956H1577.17L1583.86 792.358H1588.85L1579.43 823.285H1574.76L1567.99 799.526H1567.51L1560.74 823.285H1556.07ZM1599.89 804.68V823.285H1595.13V792.358H1599.72V797.19H1600.13C1600.85 795.62 1601.95 794.358 1603.43 793.405C1604.91 792.438 1606.81 791.955 1609.15 791.955C1611.24 791.955 1613.07 792.385 1614.64 793.244C1616.21 794.089 1617.44 795.378 1618.31 797.11C1619.18 798.828 1619.62 801.002 1619.62 803.633V823.285H1614.87V803.956C1614.87 801.526 1614.24 799.633 1612.97 798.278C1611.71 796.908 1609.98 796.224 1607.78 796.224C1606.26 796.224 1604.91 796.553 1603.71 797.21C1602.53 797.868 1601.6 798.828 1600.91 800.09C1600.23 801.351 1599.89 802.882 1599.89 804.68ZM1653.35 824.01C1651.39 824.01 1649.61 823.641 1648.01 822.903C1646.42 822.151 1645.15 821.07 1644.21 819.661C1643.27 818.238 1642.8 816.52 1642.8 814.506C1642.8 812.734 1643.15 811.298 1643.85 810.197C1644.54 809.083 1645.48 808.211 1646.64 807.58C1647.81 806.949 1649.1 806.479 1650.51 806.17C1651.93 805.848 1653.36 805.593 1654.8 805.405C1656.68 805.164 1658.2 804.982 1659.37 804.862C1660.55 804.727 1661.41 804.506 1661.95 804.197C1662.5 803.888 1662.77 803.352 1662.77 802.586V802.425C1662.77 800.439 1662.23 798.895 1661.14 797.794C1660.07 796.694 1658.44 796.143 1656.25 796.143C1653.98 796.143 1652.2 796.64 1650.91 797.633C1649.62 798.627 1648.72 799.687 1648.19 800.815L1643.68 799.204C1644.49 797.325 1645.56 795.861 1646.91 794.814C1648.26 793.754 1649.74 793.016 1651.34 792.6C1652.95 792.17 1654.53 791.955 1656.09 791.955C1657.08 791.955 1658.22 792.076 1659.51 792.318C1660.81 792.546 1662.07 793.022 1663.28 793.747C1664.5 794.472 1665.51 795.566 1666.32 797.029C1667.12 798.492 1667.52 800.452 1667.52 802.909V823.285H1662.77V819.097H1662.53C1662.21 819.768 1661.67 820.486 1660.92 821.252C1660.17 822.017 1659.17 822.668 1657.92 823.205C1656.67 823.742 1655.15 824.01 1653.35 824.01ZM1654.07 819.741C1655.95 819.741 1657.54 819.372 1658.83 818.634C1660.13 817.896 1661.11 816.943 1661.77 815.775C1662.44 814.607 1662.77 813.379 1662.77 812.09V807.741C1662.57 807.983 1662.13 808.204 1661.44 808.405C1660.77 808.593 1659.99 808.761 1659.11 808.909C1658.23 809.043 1657.38 809.164 1656.55 809.271C1655.73 809.365 1655.07 809.446 1654.56 809.513C1653.32 809.674 1652.17 809.936 1651.09 810.298C1650.03 810.647 1649.17 811.177 1648.52 811.889C1647.87 812.587 1647.55 813.54 1647.55 814.748C1647.55 816.399 1648.16 817.647 1649.38 818.493C1650.62 819.325 1652.18 819.741 1654.07 819.741ZM1680.95 804.68V823.285H1676.2V792.358H1680.79V797.19H1681.19C1681.92 795.62 1683.02 794.358 1684.49 793.405C1685.97 792.438 1687.88 791.955 1690.21 791.955C1692.3 791.955 1694.14 792.385 1695.71 793.244C1697.28 794.089 1698.5 795.378 1699.37 797.11C1700.24 798.828 1700.68 801.002 1700.68 803.633V823.285H1695.93V803.956C1695.93 801.526 1695.3 799.633 1694.04 798.278C1692.77 796.908 1691.04 796.224 1688.84 796.224C1687.32 796.224 1685.97 796.553 1684.77 797.21C1683.59 797.868 1682.66 798.828 1681.98 800.09C1681.29 801.351 1680.95 802.882 1680.95 804.68ZM1721.04 823.929C1718.47 823.929 1716.19 823.278 1714.22 821.976C1712.24 820.661 1710.7 818.808 1709.59 816.419C1708.47 814.016 1707.91 811.177 1707.91 807.902C1707.91 804.654 1708.47 801.835 1709.59 799.445C1710.7 797.056 1712.25 795.21 1714.24 793.908C1716.22 792.606 1718.52 791.955 1721.12 791.955C1723.14 791.955 1724.73 792.291 1725.89 792.962C1727.08 793.62 1727.98 794.371 1728.59 795.217C1729.22 796.049 1729.71 796.734 1730.06 797.271H1730.47V782.049H1735.22V823.285H1730.63V818.533H1730.06C1729.71 819.097 1729.22 819.809 1728.57 820.668C1727.93 821.513 1727.01 822.272 1725.81 822.943C1724.62 823.601 1723.03 823.929 1721.04 823.929ZM1721.69 819.661C1723.59 819.661 1725.2 819.164 1726.52 818.171C1727.83 817.164 1728.83 815.775 1729.52 814.003C1730.2 812.218 1730.55 810.157 1730.55 807.822C1730.55 805.513 1730.21 803.493 1729.54 801.761C1728.87 800.016 1727.87 798.66 1726.56 797.694C1725.24 796.714 1723.62 796.224 1721.69 796.224C1719.67 796.224 1718 796.741 1716.65 797.774C1715.32 798.794 1714.32 800.184 1713.65 801.942C1713 803.687 1712.67 805.647 1712.67 807.822C1712.67 810.023 1713 812.023 1713.67 813.822C1714.36 815.607 1715.36 817.03 1716.69 818.09C1718.04 819.137 1719.7 819.661 1721.69 819.661ZM1782.43 799.284L1778.17 800.492C1777.9 799.781 1777.5 799.09 1776.98 798.419C1776.47 797.734 1775.77 797.17 1774.88 796.727C1774 796.284 1772.86 796.063 1771.48 796.063C1769.59 796.063 1768.01 796.499 1766.75 797.371C1765.5 798.231 1764.88 799.325 1764.88 800.653C1764.88 801.835 1765.31 802.768 1766.16 803.452C1767.02 804.137 1768.37 804.707 1770.19 805.164L1774.78 806.291C1777.55 806.962 1779.61 807.989 1780.96 809.372C1782.32 810.741 1783 812.506 1783 814.667C1783 816.439 1782.49 818.023 1781.47 819.419C1780.46 820.815 1779.05 821.916 1777.24 822.721C1775.43 823.527 1773.32 823.929 1770.92 823.929C1767.76 823.929 1765.15 823.245 1763.08 821.876C1761.02 820.507 1759.71 818.506 1759.16 815.875L1763.67 814.748C1764.1 816.412 1764.91 817.661 1766.1 818.493C1767.31 819.325 1768.89 819.741 1770.84 819.741C1773.05 819.741 1774.81 819.272 1776.11 818.332C1777.43 817.379 1778.08 816.238 1778.08 814.909C1778.08 813.835 1777.71 812.936 1776.96 812.211C1776.21 811.473 1775.05 810.922 1773.49 810.56L1768.34 809.352C1765.51 808.681 1763.43 807.64 1762.1 806.231C1760.78 804.808 1760.12 803.029 1760.12 800.895C1760.12 799.15 1760.61 797.606 1761.59 796.264C1762.59 794.922 1763.94 793.868 1765.64 793.103C1767.36 792.338 1769.31 791.955 1771.48 791.955C1774.54 791.955 1776.94 792.626 1778.69 793.969C1780.45 795.311 1781.7 797.083 1782.43 799.284ZM1803.12 823.929C1800.14 823.929 1797.57 823.272 1795.41 821.956C1793.26 820.627 1791.6 818.775 1790.43 816.399C1789.28 814.01 1788.7 811.231 1788.7 808.063C1788.7 804.895 1789.28 802.103 1790.43 799.687C1791.6 797.257 1793.22 795.365 1795.31 794.009C1797.4 792.64 1799.84 791.955 1802.63 791.955C1804.25 791.955 1805.84 792.224 1807.41 792.761C1808.98 793.298 1810.41 794.17 1811.7 795.378C1812.98 796.573 1814.01 798.157 1814.78 800.13C1815.54 802.103 1815.92 804.533 1815.92 807.419V809.432H1792.08V805.325H1811.09C1811.09 803.58 1810.74 802.023 1810.04 800.653C1809.36 799.284 1808.38 798.204 1807.1 797.412C1805.84 796.62 1804.35 796.224 1802.63 796.224C1800.74 796.224 1799.1 796.694 1797.72 797.633C1796.35 798.559 1795.3 799.768 1794.56 801.258C1793.82 802.748 1793.45 804.345 1793.45 806.05V808.788C1793.45 811.124 1793.86 813.104 1794.66 814.728C1795.48 816.339 1796.61 817.567 1798.06 818.413C1799.51 819.245 1801.2 819.661 1803.12 819.661C1804.37 819.661 1805.49 819.486 1806.5 819.137C1807.52 818.775 1808.4 818.238 1809.14 817.527C1809.88 816.802 1810.45 815.902 1810.85 814.828L1815.44 816.117C1814.96 817.674 1814.14 819.043 1813 820.225C1811.86 821.392 1810.45 822.305 1808.78 822.963C1807.1 823.607 1805.21 823.929 1803.12 823.929ZM1827.9 782.049V823.285H1823.15V782.049H1827.9ZM1849.57 823.929C1846.59 823.929 1844.02 823.272 1841.86 821.956C1839.71 820.627 1838.06 818.775 1836.89 816.399C1835.73 814.01 1835.16 811.231 1835.16 808.063C1835.16 804.895 1835.73 802.103 1836.89 799.687C1838.06 797.257 1839.68 795.365 1841.76 794.009C1843.86 792.64 1846.3 791.955 1849.09 791.955C1850.7 791.955 1852.29 792.224 1853.86 792.761C1855.43 793.298 1856.86 794.17 1858.15 795.378C1859.44 796.573 1860.47 798.157 1861.23 800.13C1862 802.103 1862.38 804.533 1862.38 807.419V809.432H1838.54V805.325H1857.55C1857.55 803.58 1857.2 802.023 1856.5 800.653C1855.82 799.284 1854.84 798.204 1853.56 797.412C1852.3 796.62 1850.81 796.224 1849.09 796.224C1847.2 796.224 1845.56 796.694 1844.18 797.633C1842.81 798.559 1841.75 799.768 1841.02 801.258C1840.28 802.748 1839.91 804.345 1839.91 806.05V808.788C1839.91 811.124 1840.31 813.104 1841.12 814.728C1841.94 816.339 1843.07 817.567 1844.52 818.413C1845.97 819.245 1847.65 819.661 1849.57 819.661C1850.82 819.661 1851.95 819.486 1852.96 819.137C1853.98 818.775 1854.86 818.238 1855.59 817.527C1856.33 816.802 1856.9 815.902 1857.31 814.828L1861.9 816.117C1861.41 817.674 1860.6 819.043 1859.46 820.225C1858.32 821.392 1856.91 822.305 1855.23 822.963C1853.55 823.607 1851.67 823.929 1849.57 823.929ZM1882.17 823.929C1879.27 823.929 1876.78 823.245 1874.68 821.876C1872.59 820.507 1870.98 818.621 1869.85 816.218C1868.72 813.815 1868.16 811.07 1868.16 807.983C1868.16 804.842 1868.74 802.07 1869.89 799.667C1871.06 797.251 1872.68 795.365 1874.76 794.009C1876.86 792.64 1879.3 791.955 1882.09 791.955C1884.27 791.955 1886.23 792.358 1887.97 793.163C1889.72 793.969 1891.15 795.096 1892.26 796.546C1893.37 797.996 1894.07 799.687 1894.33 801.62H1889.58C1889.22 800.211 1888.41 798.962 1887.17 797.875C1885.93 796.774 1884.27 796.224 1882.17 796.224C1880.32 796.224 1878.7 796.707 1877.3 797.674C1875.92 798.627 1874.84 799.976 1874.06 801.721C1873.29 803.452 1872.91 805.486 1872.91 807.822C1872.91 810.211 1873.29 812.291 1874.04 814.063C1874.8 815.835 1875.88 817.211 1877.26 818.191C1878.66 819.171 1880.29 819.661 1882.17 819.661C1883.41 819.661 1884.53 819.446 1885.53 819.017C1886.54 818.587 1887.39 817.97 1888.09 817.164C1888.79 816.359 1889.29 815.392 1889.58 814.265H1894.33C1894.07 816.09 1893.4 817.735 1892.34 819.198C1891.29 820.647 1889.9 821.802 1888.17 822.661C1886.45 823.507 1884.45 823.929 1882.17 823.929ZM1914.73 792.358V796.385H1898.7V792.358H1914.73ZM1903.37 784.948H1908.13V814.426C1908.13 815.768 1908.32 816.775 1908.71 817.446C1909.11 818.104 1909.62 818.547 1910.24 818.775C1910.87 818.99 1911.54 819.097 1912.23 819.097C1912.76 819.097 1913.19 819.07 1913.52 819.017C1913.86 818.949 1914.13 818.896 1914.33 818.855L1915.29 823.124C1914.97 823.245 1914.52 823.366 1913.95 823.487C1913.37 823.621 1912.64 823.688 1911.75 823.688C1910.41 823.688 1909.09 823.399 1907.8 822.822C1906.53 822.245 1905.47 821.366 1904.62 820.184C1903.79 819.003 1903.37 817.513 1903.37 815.714V784.948ZM1937.83 823.285V792.358H1942.42V797.19H1942.82C1943.46 795.539 1944.5 794.257 1945.94 793.344C1947.38 792.418 1949.1 791.955 1951.11 791.955C1953.15 791.955 1954.85 792.418 1956.21 793.344C1957.58 794.257 1958.64 795.539 1959.41 797.19H1959.73C1960.52 795.593 1961.71 794.324 1963.3 793.385C1964.88 792.432 1966.78 791.955 1968.99 791.955C1971.76 791.955 1974.02 792.821 1975.78 794.553C1977.54 796.271 1978.42 798.949 1978.42 802.586V823.285H1973.67V802.586C1973.67 800.304 1973.04 798.674 1971.79 797.694C1970.54 796.714 1969.07 796.224 1967.38 796.224C1965.21 796.224 1963.52 796.882 1962.33 798.197C1961.13 799.499 1960.54 801.15 1960.54 803.15V823.285H1955.71V802.103C1955.71 800.345 1955.13 798.929 1953.99 797.855C1952.85 796.767 1951.38 796.224 1949.58 796.224C1948.35 796.224 1947.19 796.553 1946.12 797.21C1945.06 797.868 1944.2 798.781 1943.54 799.949C1942.9 801.103 1942.58 802.439 1942.58 803.956V823.285H1937.83ZM1996.21 824.01C1994.25 824.01 1992.47 823.641 1990.87 822.903C1989.27 822.151 1988 821.07 1987.07 819.661C1986.13 818.238 1985.66 816.52 1985.66 814.506C1985.66 812.734 1986 811.298 1986.7 810.197C1987.4 809.083 1988.33 808.211 1989.5 807.58C1990.67 806.949 1991.96 806.479 1993.37 806.17C1994.79 805.848 1996.22 805.593 1997.66 805.405C1999.54 805.164 2001.06 804.982 2002.23 804.862C2003.41 804.727 2004.27 804.506 2004.8 804.197C2005.35 803.888 2005.63 803.352 2005.63 802.586V802.425C2005.63 800.439 2005.09 798.895 2004 797.794C2002.92 796.694 2001.29 796.143 1999.11 796.143C1996.84 796.143 1995.06 796.64 1993.77 797.633C1992.48 798.627 1991.58 799.687 1991.05 800.815L1986.54 799.204C1987.35 797.325 1988.42 795.861 1989.76 794.814C1991.12 793.754 1992.6 793.016 1994.19 792.6C1995.8 792.17 1997.39 791.955 1998.94 791.955C1999.94 791.955 2001.08 792.076 2002.37 792.318C2003.67 792.546 2004.93 793.022 2006.13 793.747C2007.35 794.472 2008.37 795.566 2009.17 797.029C2009.98 798.492 2010.38 800.452 2010.38 802.909V823.285H2005.63V819.097H2005.39C2005.07 819.768 2004.53 820.486 2003.78 821.252C2003.03 822.017 2002.03 822.668 2000.78 823.205C1999.53 823.742 1998.01 824.01 1996.21 824.01ZM1996.93 819.741C1998.81 819.741 2000.39 819.372 2001.68 818.634C2002.99 817.896 2003.97 816.943 2004.62 815.775C2005.29 814.607 2005.63 813.379 2005.63 812.09V807.741C2005.43 807.983 2004.99 808.204 2004.3 808.405C2003.63 808.593 2002.85 808.761 2001.97 808.909C2001.09 809.043 2000.24 809.164 1999.41 809.271C1998.59 809.365 1997.92 809.446 1997.41 809.513C1996.18 809.674 1995.03 809.936 1993.95 810.298C1992.89 810.647 1992.03 811.177 1991.37 811.889C1990.73 812.587 1990.41 813.54 1990.41 814.748C1990.41 816.399 1991.02 817.647 1992.24 818.493C1993.47 819.325 1995.04 819.741 1996.93 819.741ZM2019.05 834.883V792.358H2023.65V797.271H2024.21C2024.56 796.734 2025.04 796.049 2025.66 795.217C2026.29 794.371 2027.19 793.62 2028.36 792.962C2029.54 792.291 2031.14 791.955 2033.15 791.955C2035.75 791.955 2038.05 792.606 2040.04 793.908C2042.02 795.21 2043.57 797.056 2044.69 799.445C2045.8 801.835 2046.36 804.654 2046.36 807.902C2046.36 811.177 2045.8 814.016 2044.69 816.419C2043.57 818.808 2042.03 820.661 2040.06 821.976C2038.08 823.278 2035.81 823.929 2033.23 823.929C2031.24 823.929 2029.65 823.601 2028.46 822.943C2027.26 822.272 2026.34 821.513 2025.7 820.668C2025.05 819.809 2024.56 819.097 2024.21 818.533H2023.81V834.883H2019.05ZM2023.73 807.822C2023.73 810.157 2024.07 812.218 2024.75 814.003C2025.44 815.775 2026.44 817.164 2027.75 818.171C2029.07 819.164 2030.68 819.661 2032.59 819.661C2034.57 819.661 2036.23 819.137 2037.56 818.09C2038.9 817.03 2039.91 815.607 2040.58 813.822C2041.26 812.023 2041.61 810.023 2041.61 807.822C2041.61 805.647 2041.27 803.687 2040.6 801.942C2039.94 800.184 2038.94 798.794 2037.6 797.774C2036.27 796.741 2034.6 796.224 2032.59 796.224C2030.65 796.224 2029.03 796.714 2027.71 797.694C2026.4 798.66 2025.4 800.016 2024.73 801.761C2024.06 803.493 2023.73 805.513 2023.73 807.822ZM2075.51 799.284L2071.24 800.492C2070.98 799.781 2070.58 799.09 2070.06 798.419C2069.55 797.734 2068.85 797.17 2067.96 796.727C2067.08 796.284 2065.94 796.063 2064.56 796.063C2062.67 796.063 2061.09 796.499 2059.83 797.371C2058.58 798.231 2057.96 799.325 2057.96 800.653C2057.96 801.835 2058.38 802.768 2059.24 803.452C2060.1 804.137 2061.45 804.707 2063.27 805.164L2067.86 806.291C2070.63 806.962 2072.69 807.989 2074.04 809.372C2075.4 810.741 2076.08 812.506 2076.08 814.667C2076.08 816.439 2075.57 818.023 2074.55 819.419C2073.54 820.815 2072.13 821.916 2070.32 822.721C2068.51 823.527 2066.4 823.929 2064 823.929C2060.84 823.929 2058.23 823.245 2056.16 821.876C2054.1 820.507 2052.79 818.506 2052.24 815.875L2056.75 814.748C2057.18 816.412 2057.99 817.661 2059.18 818.493C2060.39 819.325 2061.97 819.741 2063.92 819.741C2066.13 819.741 2067.89 819.272 2069.19 818.332C2070.51 817.379 2071.16 816.238 2071.16 814.909C2071.16 813.835 2070.79 812.936 2070.04 812.211C2069.28 811.473 2068.13 810.922 2066.57 810.56L2061.42 809.352C2058.59 808.681 2056.51 807.64 2055.18 806.231C2053.86 804.808 2053.2 803.029 2053.2 800.895C2053.2 799.15 2053.69 797.606 2054.67 796.264C2055.67 794.922 2057.02 793.868 2058.72 793.103C2060.44 792.338 2062.39 791.955 2064.56 791.955C2067.62 791.955 2070.02 792.626 2071.77 793.969C2073.53 795.311 2074.77 797.083 2075.51 799.284ZM2086.69 823.607C2085.7 823.607 2084.85 823.252 2084.14 822.54C2083.42 821.829 2083.07 820.976 2083.07 819.983C2083.07 818.99 2083.42 818.137 2084.14 817.426C2084.85 816.714 2085.7 816.359 2086.69 816.359C2087.69 816.359 2088.54 816.714 2089.25 817.426C2089.96 818.137 2090.32 818.99 2090.32 819.983C2090.32 820.641 2090.15 821.245 2089.81 821.795C2089.49 822.346 2089.06 822.788 2088.51 823.124C2087.97 823.446 2087.36 823.607 2086.69 823.607ZM358.997 855.478V851.049H389.924V855.478H376.957V892.285H371.964V855.478H358.997ZM401.738 873.68V892.285H396.986V851.049H401.738V866.19H402.141C402.866 864.593 403.953 863.324 405.403 862.385C406.866 861.432 408.812 860.955 411.242 860.955C413.349 860.955 415.195 861.378 416.779 862.224C418.363 863.056 419.591 864.338 420.464 866.069C421.35 867.788 421.793 869.976 421.793 872.633V892.285H417.041V872.956C417.041 870.499 416.403 868.6 415.128 867.257C413.866 865.902 412.114 865.224 409.873 865.224C408.316 865.224 406.92 865.553 405.685 866.21C404.463 866.868 403.497 867.828 402.785 869.09C402.087 870.351 401.738 871.882 401.738 873.68ZM430.486 892.285V861.358H435.238V892.285H430.486ZM432.902 856.203C431.976 856.203 431.177 855.888 430.506 855.257C429.848 854.626 429.519 853.868 429.519 852.982C429.519 852.096 429.848 851.337 430.506 850.706C431.177 850.076 431.976 849.76 432.902 849.76C433.828 849.76 434.62 850.076 435.278 850.706C435.949 851.337 436.285 852.096 436.285 852.982C436.285 853.868 435.949 854.626 435.278 855.257C434.62 855.888 433.828 856.203 432.902 856.203ZM465.848 868.284L461.579 869.492C461.311 868.781 460.915 868.09 460.391 867.419C459.881 866.734 459.183 866.17 458.297 865.727C457.411 865.284 456.277 865.063 454.894 865.063C453.002 865.063 451.424 865.499 450.163 866.371C448.914 867.231 448.29 868.325 448.29 869.653C448.29 870.835 448.72 871.768 449.579 872.452C450.438 873.137 451.78 873.707 453.606 874.164L458.196 875.291C460.962 875.962 463.022 876.989 464.378 878.372C465.734 879.741 466.412 881.506 466.412 883.667C466.412 885.439 465.901 887.023 464.881 888.419C463.875 889.815 462.465 890.916 460.653 891.721C458.841 892.527 456.733 892.929 454.331 892.929C451.176 892.929 448.565 892.245 446.498 890.876C444.431 889.507 443.122 887.506 442.572 884.875L447.082 883.748C447.512 885.412 448.324 886.661 449.518 887.493C450.726 888.325 452.304 888.741 454.25 888.741C456.465 888.741 458.223 888.272 459.525 887.332C460.841 886.379 461.499 885.238 461.499 883.909C461.499 882.835 461.123 881.936 460.371 881.211C459.619 880.473 458.465 879.922 456.908 879.56L451.753 878.352C448.921 877.681 446.84 876.64 445.511 875.231C444.196 873.808 443.538 872.029 443.538 869.895C443.538 868.15 444.028 866.606 445.008 865.264C446.001 863.922 447.35 862.868 449.055 862.103C450.773 861.338 452.72 860.955 454.894 860.955C457.955 860.955 460.358 861.626 462.103 862.969C463.861 864.311 465.109 866.083 465.848 868.284ZM494.263 851.049V892.285H489.511V851.049H494.263ZM515.531 892.929C512.739 892.929 510.289 892.265 508.181 890.936C506.087 889.607 504.45 887.748 503.269 885.359C502.101 882.969 501.517 880.177 501.517 876.983C501.517 873.761 502.101 870.949 503.269 868.546C504.45 866.143 506.087 864.277 508.181 862.949C510.289 861.62 512.739 860.955 515.531 860.955C518.323 860.955 520.766 861.62 522.86 862.949C524.967 864.277 526.605 866.143 527.773 868.546C528.954 870.949 529.545 873.761 529.545 876.983C529.545 880.177 528.954 882.969 527.773 885.359C526.605 887.748 524.967 889.607 522.86 890.936C520.766 892.265 518.323 892.929 515.531 892.929ZM515.531 888.661C517.652 888.661 519.397 888.117 520.766 887.03C522.135 885.943 523.148 884.513 523.806 882.741C524.464 880.969 524.793 879.05 524.793 876.983C524.793 874.915 524.464 872.989 523.806 871.204C523.148 869.419 522.135 867.976 520.766 866.875C519.397 865.774 517.652 865.224 515.531 865.224C513.41 865.224 511.665 865.774 510.296 866.875C508.926 867.976 507.913 869.419 507.255 871.204C506.598 872.989 506.269 874.915 506.269 876.983C506.269 879.05 506.598 880.969 507.255 882.741C507.913 884.513 508.926 885.943 510.296 887.03C511.665 888.117 513.41 888.661 515.531 888.661ZM537.443 892.285V851.049H542.194V866.271H542.597C542.946 865.734 543.429 865.049 544.047 864.217C544.678 863.371 545.577 862.62 546.745 861.962C547.926 861.291 549.524 860.955 551.537 860.955C554.141 860.955 556.437 861.606 558.423 862.908C560.41 864.21 561.96 866.056 563.074 868.445C564.188 870.835 564.746 873.654 564.746 876.902C564.746 880.177 564.188 883.016 563.074 885.419C561.96 887.808 560.417 889.661 558.443 890.976C556.47 892.278 554.195 892.929 551.618 892.929C549.631 892.929 548.04 892.601 546.846 891.943C545.651 891.272 544.731 890.513 544.087 889.668C543.443 888.809 542.946 888.097 542.597 887.533H542.033V892.285H537.443ZM542.114 876.822C542.114 879.157 542.456 881.218 543.141 883.003C543.825 884.775 544.825 886.164 546.141 887.171C547.456 888.164 549.067 888.661 550.973 888.661C552.96 888.661 554.618 888.137 555.947 887.09C557.289 886.03 558.296 884.607 558.967 882.822C559.651 881.023 559.994 879.023 559.994 876.822C559.994 874.647 559.658 872.687 558.987 870.942C558.329 869.184 557.329 867.794 555.987 866.774C554.658 865.741 552.987 865.224 550.973 865.224C549.04 865.224 547.416 865.714 546.101 866.694C544.785 867.66 543.792 869.016 543.121 870.761C542.449 872.493 542.114 874.513 542.114 876.822ZM572.659 892.285V851.049H577.41V866.271H577.813C578.162 865.734 578.645 865.049 579.263 864.217C579.894 863.371 580.793 862.62 581.961 861.962C583.142 861.291 584.74 860.955 586.753 860.955C589.357 860.955 591.653 861.606 593.639 862.908C595.626 864.21 597.176 866.056 598.29 868.445C599.405 870.835 599.962 873.654 599.962 876.902C599.962 880.177 599.405 883.016 598.29 885.419C597.176 887.808 595.633 889.661 593.659 890.976C591.686 892.278 589.411 892.929 586.834 892.929C584.847 892.929 583.256 892.601 582.062 891.943C580.867 891.272 579.947 890.513 579.303 889.668C578.659 888.809 578.162 888.097 577.813 887.533H577.249V892.285H572.659ZM577.33 876.822C577.33 879.157 577.672 881.218 578.357 883.003C579.041 884.775 580.041 886.164 581.357 887.171C582.672 888.164 584.283 888.661 586.189 888.661C588.176 888.661 589.834 888.137 591.163 887.09C592.505 886.03 593.512 884.607 594.183 882.822C594.867 881.023 595.21 879.023 595.21 876.822C595.21 874.647 594.874 872.687 594.203 870.942C593.545 869.184 592.545 867.794 591.203 866.774C589.874 865.741 588.203 865.224 586.189 865.224C584.256 865.224 582.632 865.714 581.317 866.694C580.001 867.66 579.008 869.016 578.337 870.761C577.665 872.493 577.33 874.513 577.33 876.822ZM609.183 903.883C608.378 903.883 607.66 903.816 607.029 903.682C606.398 903.561 605.962 903.44 605.72 903.319L606.928 899.131C608.083 899.426 609.103 899.534 609.989 899.453C610.875 899.373 611.66 898.977 612.345 898.265C613.043 897.567 613.68 896.433 614.257 894.862L615.143 892.446L603.707 861.358H608.861L617.398 886.003H617.721L626.258 861.358H631.412L618.284 896.795C617.694 898.393 616.962 899.715 616.09 900.762C615.217 901.822 614.204 902.608 613.049 903.118C611.908 903.628 610.62 903.883 609.183 903.883ZM666.195 892.929C663.296 892.929 660.799 892.245 658.705 890.876C656.611 889.507 655 887.621 653.873 885.218C652.745 882.815 652.182 880.07 652.182 876.983C652.182 873.842 652.759 871.07 653.913 868.667C655.081 866.251 656.705 864.365 658.786 863.009C660.88 861.64 663.323 860.955 666.115 860.955C668.289 860.955 670.249 861.358 671.994 862.163C673.739 862.969 675.169 864.096 676.283 865.546C677.397 866.996 678.088 868.687 678.357 870.62H673.605C673.243 869.211 672.437 867.962 671.189 866.875C669.954 865.774 668.289 865.224 666.195 865.224C664.343 865.224 662.719 865.707 661.323 866.674C659.94 867.627 658.86 868.976 658.081 870.721C657.316 872.452 656.933 874.486 656.933 876.822C656.933 879.211 657.309 881.291 658.061 883.063C658.826 884.835 659.9 886.211 661.283 887.191C662.679 888.171 664.316 888.661 666.195 888.661C667.43 888.661 668.551 888.446 669.558 888.017C670.565 887.587 671.417 886.97 672.115 886.164C672.813 885.359 673.31 884.392 673.605 883.265H678.357C678.088 885.09 677.424 886.735 676.364 888.198C675.317 889.647 673.927 890.802 672.196 891.661C670.477 892.507 668.477 892.929 666.195 892.929ZM690.055 873.68V892.285H685.303V851.049H690.055V866.19H690.458C691.183 864.593 692.27 863.324 693.72 862.385C695.183 861.432 697.129 860.955 699.559 860.955C701.666 860.955 703.512 861.378 705.096 862.224C706.68 863.056 707.908 864.338 708.781 866.069C709.667 867.788 710.11 869.976 710.11 872.633V892.285H705.358V872.956C705.358 870.499 704.72 868.6 703.445 867.257C702.183 865.902 700.432 865.224 698.19 865.224C696.633 865.224 695.237 865.553 694.002 866.21C692.78 866.868 691.814 867.828 691.102 869.09C690.404 870.351 690.055 871.882 690.055 873.68ZM727.904 893.01C725.944 893.01 724.166 892.641 722.568 891.903C720.971 891.151 719.702 890.07 718.763 888.661C717.823 887.238 717.353 885.52 717.353 883.506C717.353 881.734 717.702 880.298 718.4 879.197C719.098 878.083 720.031 877.211 721.199 876.58C722.367 875.949 723.656 875.479 725.065 875.17C726.488 874.848 727.917 874.593 729.354 874.405C731.233 874.164 732.757 873.982 733.924 873.862C735.106 873.727 735.965 873.506 736.502 873.197C737.052 872.888 737.327 872.352 737.327 871.586V871.425C737.327 869.439 736.784 867.895 735.696 866.794C734.622 865.694 732.991 865.143 730.803 865.143C728.535 865.143 726.756 865.64 725.468 866.633C724.179 867.627 723.273 868.687 722.749 869.815L718.239 868.204C719.045 866.325 720.118 864.861 721.461 863.814C722.817 862.754 724.293 862.016 725.891 861.6C727.501 861.17 729.085 860.955 730.642 860.955C731.636 860.955 732.777 861.076 734.065 861.318C735.367 861.546 736.622 862.022 737.831 862.747C739.052 863.472 740.066 864.566 740.871 866.029C741.676 867.492 742.079 869.452 742.079 871.909V892.285H737.327V888.097H737.086C736.763 888.768 736.226 889.486 735.475 890.252C734.723 891.017 733.723 891.668 732.475 892.205C731.226 892.742 729.703 893.01 727.904 893.01ZM728.629 888.741C730.508 888.741 732.092 888.372 733.381 887.634C734.683 886.896 735.663 885.943 736.32 884.775C736.992 883.607 737.327 882.379 737.327 881.09V876.741C737.126 876.983 736.683 877.204 735.998 877.405C735.327 877.593 734.549 877.761 733.663 877.909C732.79 878.043 731.938 878.164 731.105 878.271C730.287 878.365 729.622 878.446 729.112 878.513C727.877 878.674 726.723 878.936 725.649 879.298C724.588 879.647 723.729 880.177 723.072 880.889C722.427 881.587 722.105 882.54 722.105 883.748C722.105 885.399 722.716 886.647 723.937 887.493C725.172 888.325 726.736 888.741 728.629 888.741ZM755.504 873.68V892.285H750.752V861.358H755.343V866.19H755.746C756.47 864.62 757.571 863.358 759.048 862.405C760.524 861.438 762.43 860.955 764.766 860.955C766.86 860.955 768.692 861.385 770.263 862.244C771.833 863.089 773.055 864.378 773.927 866.11C774.8 867.828 775.236 870.002 775.236 872.633V892.285H770.484V872.956C770.484 870.526 769.854 868.633 768.592 867.278C767.33 865.908 765.598 865.224 763.397 865.224C761.88 865.224 760.524 865.553 759.33 866.21C758.148 866.868 757.215 867.828 756.531 869.09C755.846 870.351 755.504 871.882 755.504 873.68ZM796.403 904.527C794.108 904.527 792.135 904.232 790.483 903.641C788.832 903.064 787.456 902.299 786.356 901.346C785.269 900.406 784.403 899.4 783.758 898.326L787.544 895.668C787.973 896.232 788.517 896.876 789.175 897.601C789.832 898.339 790.732 898.977 791.873 899.514C793.027 900.064 794.537 900.339 796.403 900.339C798.9 900.339 800.96 899.735 802.585 898.527C804.209 897.319 805.021 895.426 805.021 892.849V886.567H804.618C804.269 887.131 803.773 887.829 803.128 888.661C802.497 889.48 801.585 890.211 800.39 890.856C799.209 891.486 797.611 891.802 795.598 891.802C793.101 891.802 790.859 891.211 788.873 890.03C786.899 888.849 785.336 887.131 784.181 884.875C783.04 882.62 782.47 879.882 782.47 876.66C782.47 873.493 783.027 870.734 784.141 868.385C785.255 866.022 786.805 864.197 788.792 862.908C790.779 861.606 793.074 860.955 795.678 860.955C797.692 860.955 799.289 861.291 800.47 861.962C801.665 862.62 802.578 863.371 803.209 864.217C803.853 865.049 804.35 865.734 804.699 866.271H805.182V861.358H809.773V893.171C809.773 895.829 809.169 897.99 807.961 899.655C806.766 901.332 805.155 902.561 803.128 903.339C801.115 904.131 798.873 904.527 796.403 904.527ZM796.242 887.533C798.148 887.533 799.759 887.097 801.074 886.225C802.39 885.352 803.39 884.097 804.075 882.459C804.759 880.822 805.101 878.862 805.101 876.58C805.101 874.352 804.766 872.385 804.095 870.68C803.424 868.976 802.43 867.64 801.115 866.674C799.799 865.707 798.175 865.224 796.242 865.224C794.229 865.224 792.551 865.734 791.208 866.754C789.879 867.774 788.879 869.143 788.208 870.862C787.55 872.58 787.222 874.486 787.222 876.58C787.222 878.728 787.557 880.627 788.228 882.278C788.913 883.916 789.92 885.204 791.249 886.144C792.591 887.07 794.255 887.533 796.242 887.533ZM831.438 892.929C828.458 892.929 825.887 892.272 823.726 890.956C821.578 889.627 819.921 887.775 818.753 885.399C817.598 883.01 817.021 880.231 817.021 877.063C817.021 873.895 817.598 871.103 818.753 868.687C819.921 866.257 821.545 864.365 823.626 863.009C825.72 861.64 828.163 860.955 830.955 860.955C832.565 860.955 834.156 861.224 835.727 861.761C837.297 862.298 838.727 863.17 840.015 864.378C841.304 865.573 842.331 867.157 843.096 869.13C843.861 871.103 844.244 873.533 844.244 876.419V878.432H820.404V874.325H839.411C839.411 872.58 839.062 871.023 838.364 869.653C837.68 868.284 836.7 867.204 835.425 866.412C834.163 865.62 832.673 865.224 830.955 865.224C829.062 865.224 827.424 865.694 826.042 866.633C824.673 867.559 823.619 868.768 822.881 870.258C822.142 871.748 821.773 873.345 821.773 875.05V877.788C821.773 880.124 822.176 882.104 822.981 883.728C823.8 885.339 824.934 886.567 826.384 887.413C827.834 888.245 829.518 888.661 831.438 888.661C832.686 888.661 833.814 888.486 834.821 888.137C835.841 887.775 836.72 887.238 837.458 886.527C838.197 885.802 838.767 884.902 839.17 883.828L843.76 885.117C843.277 886.674 842.465 888.043 841.324 889.225C840.183 890.392 838.774 891.305 837.096 891.963C835.418 892.607 833.532 892.929 831.438 892.929ZM873.379 868.284L869.11 869.492C868.842 868.781 868.446 868.09 867.922 867.419C867.412 866.734 866.714 866.17 865.828 865.727C864.942 865.284 863.808 865.063 862.426 865.063C860.533 865.063 858.956 865.499 857.694 866.371C856.446 867.231 855.821 868.325 855.821 869.653C855.821 870.835 856.251 871.768 857.11 872.452C857.969 873.137 859.311 873.707 861.137 874.164L865.728 875.291C868.493 875.962 870.553 876.989 871.909 878.372C873.265 879.741 873.943 881.506 873.943 883.667C873.943 885.439 873.433 887.023 872.413 888.419C871.406 889.815 869.996 890.916 868.184 891.721C866.372 892.527 864.265 892.929 861.862 892.929C858.707 892.929 856.097 892.245 854.029 890.876C851.962 889.507 850.653 887.506 850.103 884.875L854.613 883.748C855.043 885.412 855.855 886.661 857.05 887.493C858.258 888.325 859.835 888.741 861.781 888.741C863.996 888.741 865.755 888.272 867.057 887.332C868.372 886.379 869.03 885.238 869.03 883.909C869.03 882.835 868.654 881.936 867.902 881.211C867.151 880.473 865.996 879.922 864.439 879.56L859.285 878.352C856.452 877.681 854.372 876.64 853.043 875.231C851.727 873.808 851.069 872.029 851.069 869.895C851.069 868.15 851.559 866.606 852.539 865.264C853.533 863.922 854.882 862.868 856.586 862.103C858.305 861.338 860.251 860.955 862.426 860.955C865.486 860.955 867.889 861.626 869.634 862.969C871.392 864.311 872.641 866.083 873.379 868.284ZM910.493 861.358V865.385H894.465V861.358H910.493ZM899.137 853.948H903.888V883.426C903.888 884.768 904.083 885.775 904.472 886.446C904.875 887.104 905.385 887.547 906.003 887.775C906.634 887.99 907.298 888.097 907.996 888.097C908.519 888.097 908.949 888.07 909.285 888.017C909.62 887.949 909.889 887.896 910.09 887.855L911.056 892.124C910.734 892.245 910.285 892.366 909.707 892.487C909.13 892.621 908.399 892.688 907.513 892.688C906.17 892.688 904.855 892.399 903.566 891.822C902.291 891.245 901.231 890.366 900.385 889.184C899.553 888.003 899.137 886.513 899.137 884.714V853.948ZM923.057 873.68V892.285H918.305V851.049H923.057V866.19H923.46C924.184 864.593 925.272 863.324 926.721 862.385C928.185 861.432 930.131 860.955 932.561 860.955C934.668 860.955 936.514 861.378 938.098 862.224C939.682 863.056 940.91 864.338 941.782 866.069C942.668 867.788 943.111 869.976 943.111 872.633V892.285H938.359V872.956C938.359 870.499 937.722 868.6 936.447 867.257C935.185 865.902 933.433 865.224 931.191 865.224C929.634 865.224 928.238 865.553 927.003 866.21C925.782 866.868 924.815 867.828 924.104 869.09C923.406 870.351 923.057 871.882 923.057 873.68ZM964.771 892.929C961.792 892.929 959.221 892.272 957.06 890.956C954.912 889.627 953.254 887.775 952.086 885.399C950.932 883.01 950.355 880.231 950.355 877.063C950.355 873.895 950.932 871.103 952.086 868.687C953.254 866.257 954.879 864.365 956.959 863.009C959.053 861.64 961.496 860.955 964.288 860.955C965.899 860.955 967.49 861.224 969.06 861.761C970.631 862.298 972.06 863.17 973.349 864.378C974.638 865.573 975.664 867.157 976.43 869.13C977.195 871.103 977.577 873.533 977.577 876.419V878.432H953.738V874.325H972.745C972.745 872.58 972.396 871.023 971.698 869.653C971.013 868.284 970.033 867.204 968.758 866.412C967.496 865.62 966.006 865.224 964.288 865.224C962.396 865.224 960.758 865.694 959.375 866.633C958.006 867.559 956.952 868.768 956.214 870.258C955.476 871.748 955.107 873.345 955.107 875.05V877.788C955.107 880.124 955.509 882.104 956.315 883.728C957.134 885.339 958.268 886.567 959.718 887.413C961.167 888.245 962.852 888.661 964.771 888.661C966.02 888.661 967.147 888.486 968.154 888.137C969.174 887.775 970.054 887.238 970.792 886.527C971.53 885.802 972.101 884.902 972.503 883.828L977.094 885.117C976.611 886.674 975.799 888.043 974.658 889.225C973.517 890.392 972.107 891.305 970.429 891.963C968.752 892.607 966.866 892.929 964.771 892.929ZM1014.52 861.358V865.385H997.853V861.358H1014.52ZM1002.85 892.285V857.089C1002.85 855.317 1003.26 853.841 1004.1 852.66C1004.93 851.478 1006.01 850.592 1007.34 850.002C1008.67 849.411 1010.07 849.116 1011.54 849.116C1012.71 849.116 1013.67 849.21 1014.4 849.398C1015.14 849.586 1015.69 849.76 1016.06 849.921L1014.69 854.029C1014.44 853.948 1014.11 853.848 1013.68 853.727C1013.26 853.606 1012.71 853.546 1012.03 853.546C1010.46 853.546 1009.32 853.942 1008.63 854.733C1007.94 855.525 1007.6 856.687 1007.6 858.217V892.285H1002.85ZM1021.18 892.285V861.358H1025.94V892.285H1021.18ZM1023.6 856.203C1022.67 856.203 1021.88 855.888 1021.2 855.257C1020.55 854.626 1020.22 853.868 1020.22 852.982C1020.22 852.096 1020.55 851.337 1021.2 850.706C1021.88 850.076 1022.67 849.76 1023.6 849.76C1024.53 849.76 1025.32 850.076 1025.98 850.706C1026.65 851.337 1026.98 852.096 1026.98 852.982C1026.98 853.868 1026.65 854.626 1025.98 855.257C1025.32 855.888 1024.53 856.203 1023.6 856.203ZM1034.64 892.285V861.358H1039.23V866.029H1039.55C1040.12 864.499 1041.14 863.257 1042.61 862.304C1044.09 861.351 1045.75 860.875 1047.61 860.875C1047.96 860.875 1048.39 860.881 1048.92 860.895C1049.44 860.908 1049.83 860.928 1050.1 860.955V865.788C1049.94 865.747 1049.57 865.687 1049 865.606C1048.43 865.512 1047.83 865.465 1047.2 865.465C1045.7 865.465 1044.36 865.781 1043.18 866.412C1042.01 867.029 1041.08 867.888 1040.4 868.989C1039.73 870.076 1039.39 871.318 1039.39 872.714V892.285H1034.64ZM1077.64 868.284L1073.37 869.492C1073.11 868.781 1072.71 868.09 1072.19 867.419C1071.68 866.734 1070.98 866.17 1070.09 865.727C1069.21 865.284 1068.07 865.063 1066.69 865.063C1064.8 865.063 1063.22 865.499 1061.96 866.371C1060.71 867.231 1060.09 868.325 1060.09 869.653C1060.09 870.835 1060.51 871.768 1061.37 872.452C1062.23 873.137 1063.58 873.707 1065.4 874.164L1069.99 875.291C1072.76 875.962 1074.82 876.989 1076.17 878.372C1077.53 879.741 1078.21 881.506 1078.21 883.667C1078.21 885.439 1077.7 887.023 1076.68 888.419C1075.67 889.815 1074.26 890.916 1072.45 891.721C1070.64 892.527 1068.53 892.929 1066.13 892.929C1062.97 892.929 1060.36 892.245 1058.29 890.876C1056.23 889.507 1054.92 887.506 1054.37 884.875L1058.88 883.748C1059.31 885.412 1060.12 886.661 1061.31 887.493C1062.52 888.325 1064.1 888.741 1066.05 888.741C1068.26 888.741 1070.02 888.272 1071.32 887.332C1072.64 886.379 1073.29 885.238 1073.29 883.909C1073.29 882.835 1072.92 881.936 1072.17 881.211C1071.41 880.473 1070.26 879.922 1068.7 879.56L1063.55 878.352C1060.72 877.681 1058.64 876.64 1057.31 875.231C1055.99 873.808 1055.33 872.029 1055.33 869.895C1055.33 868.15 1055.82 866.606 1056.8 865.264C1057.8 863.922 1059.15 862.868 1060.85 862.103C1062.57 861.338 1064.51 860.955 1066.69 860.955C1069.75 860.955 1072.15 861.626 1073.9 862.969C1075.66 864.311 1076.9 866.083 1077.64 868.284ZM1098.81 861.358V865.385H1082.78V861.358H1098.81ZM1087.45 853.948H1092.21V883.426C1092.21 884.768 1092.4 885.775 1092.79 886.446C1093.19 887.104 1093.7 887.547 1094.32 887.775C1094.95 887.99 1095.62 888.097 1096.31 888.097C1096.84 888.097 1097.27 888.07 1097.6 888.017C1097.94 887.949 1098.21 887.896 1098.41 887.855L1099.37 892.124C1099.05 892.245 1098.6 892.366 1098.02 892.487C1097.45 892.621 1096.72 892.688 1095.83 892.688C1094.49 892.688 1093.17 892.399 1091.88 891.822C1090.61 891.245 1089.55 890.366 1088.7 889.184C1087.87 888.003 1087.45 886.513 1087.45 884.714V853.948ZM1120.29 855.478V851.049H1151.22V855.478H1138.25V892.285H1133.26V855.478H1120.29ZM1163.04 873.68V892.285H1158.28V851.049H1163.04V866.19H1163.44C1164.16 864.593 1165.25 863.324 1166.7 862.385C1168.16 861.432 1170.11 860.955 1172.54 860.955C1174.65 860.955 1176.49 861.378 1178.08 862.224C1179.66 863.056 1180.89 864.338 1181.76 866.069C1182.65 867.788 1183.09 869.976 1183.09 872.633V892.285H1178.34V872.956C1178.34 870.499 1177.7 868.6 1176.43 867.257C1175.16 865.902 1173.41 865.224 1171.17 865.224C1169.61 865.224 1168.22 865.553 1166.98 866.21C1165.76 866.868 1164.79 867.828 1164.08 869.09C1163.38 870.351 1163.04 871.882 1163.04 873.68ZM1211.27 879.64V861.358H1216.03V892.285H1211.27V887.05H1210.95C1210.23 888.621 1209.1 889.956 1207.57 891.057C1206.04 892.144 1204.11 892.688 1201.77 892.688C1199.84 892.688 1198.12 892.265 1196.62 891.419C1195.11 890.56 1193.93 889.272 1193.07 887.553C1192.21 885.822 1191.78 883.641 1191.78 881.01V861.358H1196.53V880.687C1196.53 882.943 1197.17 884.741 1198.43 886.084C1199.7 887.426 1201.33 888.097 1203.3 888.097C1204.48 888.097 1205.68 887.795 1206.9 887.191C1208.14 886.587 1209.17 885.661 1210.01 884.412C1210.85 883.164 1211.27 881.573 1211.27 879.64ZM1224.73 892.285V861.358H1229.32V866.029H1229.64C1230.21 864.499 1231.23 863.257 1232.7 862.304C1234.18 861.351 1235.84 860.875 1237.7 860.875C1238.04 860.875 1238.48 860.881 1239 860.895C1239.53 860.908 1239.92 860.928 1240.19 860.955V865.788C1240.03 865.747 1239.66 865.687 1239.09 865.606C1238.52 865.512 1237.92 865.465 1237.29 865.465C1235.79 865.465 1234.45 865.781 1233.27 866.412C1232.1 867.029 1231.17 867.888 1230.49 868.989C1229.82 870.076 1229.48 871.318 1229.48 872.714V892.285H1224.73ZM1267.73 868.284L1263.46 869.492C1263.19 868.781 1262.8 868.09 1262.28 867.419C1261.77 866.734 1261.07 866.17 1260.18 865.727C1259.3 865.284 1258.16 865.063 1256.78 865.063C1254.89 865.063 1253.31 865.499 1252.05 866.371C1250.8 867.231 1250.17 868.325 1250.17 869.653C1250.17 870.835 1250.6 871.768 1251.46 872.452C1252.32 873.137 1253.66 873.707 1255.49 874.164L1260.08 875.291C1262.85 875.962 1264.91 876.989 1266.26 878.372C1267.62 879.741 1268.3 881.506 1268.3 883.667C1268.3 885.439 1267.79 887.023 1266.77 888.419C1265.76 889.815 1264.35 890.916 1262.54 891.721C1260.72 892.527 1258.62 892.929 1256.21 892.929C1253.06 892.929 1250.45 892.245 1248.38 890.876C1246.32 889.507 1245.01 887.506 1244.46 884.875L1248.97 883.748C1249.4 885.412 1250.21 886.661 1251.4 887.493C1252.61 888.325 1254.19 888.741 1256.13 888.741C1258.35 888.741 1260.11 888.272 1261.41 887.332C1262.73 886.379 1263.38 885.238 1263.38 883.909C1263.38 882.835 1263.01 881.936 1262.26 881.211C1261.5 880.473 1260.35 879.922 1258.79 879.56L1253.64 878.352C1250.81 877.681 1248.72 876.64 1247.4 875.231C1246.08 873.808 1245.42 872.029 1245.42 869.895C1245.42 868.15 1245.91 866.606 1246.89 865.264C1247.89 863.922 1249.23 862.868 1250.94 862.103C1252.66 861.338 1254.6 860.955 1256.78 860.955C1259.84 860.955 1262.24 861.626 1263.99 862.969C1265.75 864.311 1266.99 866.083 1267.73 868.284ZM1287.13 892.929C1284.55 892.929 1282.27 892.278 1280.3 890.976C1278.33 889.661 1276.78 887.808 1275.67 885.419C1274.56 883.016 1274 880.177 1274 876.902C1274 873.654 1274.56 870.835 1275.67 868.445C1276.78 866.056 1278.33 864.21 1280.32 862.908C1282.31 861.606 1284.6 860.955 1287.21 860.955C1289.22 860.955 1290.81 861.291 1291.98 861.962C1293.16 862.62 1294.06 863.371 1294.68 864.217C1295.31 865.049 1295.8 865.734 1296.15 866.271H1296.55V851.049H1301.3V892.285H1296.71V887.533H1296.15C1295.8 888.097 1295.3 888.809 1294.66 889.668C1294.01 890.513 1293.09 891.272 1291.9 891.943C1290.7 892.601 1289.11 892.929 1287.13 892.929ZM1287.77 888.661C1289.68 888.661 1291.29 888.164 1292.6 887.171C1293.92 886.164 1294.92 884.775 1295.6 883.003C1296.29 881.218 1296.63 879.157 1296.63 876.822C1296.63 874.513 1296.3 872.493 1295.62 870.761C1294.95 869.016 1293.96 867.66 1292.64 866.694C1291.33 865.714 1289.7 865.224 1287.77 865.224C1285.76 865.224 1284.08 865.741 1282.74 866.774C1281.41 867.794 1280.41 869.184 1279.74 870.942C1279.08 872.687 1278.75 874.647 1278.75 876.822C1278.75 879.023 1279.09 881.023 1279.76 882.822C1280.44 884.607 1281.45 886.03 1282.78 887.09C1284.12 888.137 1285.78 888.661 1287.77 888.661ZM1319.77 893.01C1317.81 893.01 1316.03 892.641 1314.43 891.903C1312.83 891.151 1311.56 890.07 1310.62 888.661C1309.68 887.238 1309.21 885.52 1309.21 883.506C1309.21 881.734 1309.56 880.298 1310.26 879.197C1310.96 878.083 1311.89 877.211 1313.06 876.58C1314.23 875.949 1315.52 875.479 1316.93 875.17C1318.35 874.848 1319.78 874.593 1321.22 874.405C1323.09 874.164 1324.62 873.982 1325.79 873.862C1326.97 873.727 1327.83 873.506 1328.36 873.197C1328.91 872.888 1329.19 872.352 1329.19 871.586V871.425C1329.19 869.439 1328.65 867.895 1327.56 866.794C1326.48 865.694 1324.85 865.143 1322.67 865.143C1320.4 865.143 1318.62 865.64 1317.33 866.633C1316.04 867.627 1315.13 868.687 1314.61 869.815L1310.1 868.204C1310.91 866.325 1311.98 864.861 1313.32 863.814C1314.68 862.754 1316.15 862.016 1317.75 861.6C1319.36 861.17 1320.95 860.955 1322.5 860.955C1323.5 860.955 1324.64 861.076 1325.93 861.318C1327.23 861.546 1328.48 862.022 1329.69 862.747C1330.91 863.472 1331.93 864.566 1332.73 866.029C1333.54 867.492 1333.94 869.452 1333.94 871.909V892.285H1329.19V888.097H1328.95C1328.62 888.768 1328.09 889.486 1327.34 890.252C1326.58 891.017 1325.58 891.668 1324.34 892.205C1323.09 892.742 1321.56 893.01 1319.77 893.01ZM1320.49 888.741C1322.37 888.741 1323.95 888.372 1325.24 887.634C1326.54 886.896 1327.52 885.943 1328.18 884.775C1328.85 883.607 1329.19 882.379 1329.19 881.09V876.741C1328.99 876.983 1328.54 877.204 1327.86 877.405C1327.19 877.593 1326.41 877.761 1325.52 877.909C1324.65 878.043 1323.8 878.164 1322.97 878.271C1322.15 878.365 1321.48 878.446 1320.97 878.513C1319.74 878.674 1318.58 878.936 1317.51 879.298C1316.45 879.647 1315.59 880.177 1314.93 880.889C1314.29 881.587 1313.97 882.54 1313.97 883.748C1313.97 885.399 1314.58 886.647 1315.8 887.493C1317.03 888.325 1318.6 888.741 1320.49 888.741ZM1344.57 903.883C1343.76 903.883 1343.04 903.816 1342.41 903.682C1341.78 903.561 1341.35 903.44 1341.1 903.319L1342.31 899.131C1343.47 899.426 1344.49 899.534 1345.37 899.453C1346.26 899.373 1347.04 898.977 1347.73 898.265C1348.43 897.567 1349.06 896.433 1349.64 894.862L1350.53 892.446L1339.09 861.358H1344.24L1352.78 886.003H1353.1L1361.64 861.358H1366.8L1353.67 896.795C1353.08 898.393 1352.35 899.715 1351.47 900.762C1350.6 901.822 1349.59 902.608 1348.43 903.118C1347.29 903.628 1346 903.883 1344.57 903.883ZM1401.58 892.929C1398.79 892.929 1396.34 892.265 1394.23 890.936C1392.14 889.607 1390.5 887.748 1389.32 885.359C1388.15 882.969 1387.56 880.177 1387.56 876.983C1387.56 873.761 1388.15 870.949 1389.32 868.546C1390.5 866.143 1392.14 864.277 1394.23 862.949C1396.34 861.62 1398.79 860.955 1401.58 860.955C1404.37 860.955 1406.81 861.62 1408.91 862.949C1411.02 864.277 1412.65 866.143 1413.82 868.546C1415 870.949 1415.59 873.761 1415.59 876.983C1415.59 880.177 1415 882.969 1413.82 885.359C1412.65 887.748 1411.02 889.607 1408.91 890.936C1406.81 892.265 1404.37 892.929 1401.58 892.929ZM1401.58 888.661C1403.7 888.661 1405.44 888.117 1406.81 887.03C1408.18 885.943 1409.2 884.513 1409.85 882.741C1410.51 880.969 1410.84 879.05 1410.84 876.983C1410.84 874.915 1410.51 872.989 1409.85 871.204C1409.2 869.419 1408.18 867.976 1406.81 866.875C1405.44 865.774 1403.7 865.224 1401.58 865.224C1399.46 865.224 1397.71 865.774 1396.34 866.875C1394.97 867.976 1393.96 869.419 1393.3 871.204C1392.65 872.989 1392.32 874.915 1392.32 876.983C1392.32 879.05 1392.65 880.969 1393.3 882.741C1393.96 884.513 1394.97 885.943 1396.34 887.03C1397.71 888.117 1399.46 888.661 1401.58 888.661ZM1436.62 861.358V865.385H1419.95V861.358H1436.62ZM1424.94 892.285V857.089C1424.94 855.317 1425.36 853.841 1426.19 852.66C1427.02 851.478 1428.1 850.592 1429.43 850.002C1430.76 849.411 1432.16 849.116 1433.64 849.116C1434.81 849.116 1435.76 849.21 1436.5 849.398C1437.24 849.586 1437.79 849.76 1438.15 849.921L1436.78 854.029C1436.54 853.948 1436.2 853.848 1435.77 853.727C1435.36 853.606 1434.81 853.546 1434.12 853.546C1432.55 853.546 1431.42 853.942 1430.72 854.733C1430.03 855.525 1429.69 856.687 1429.69 858.217V892.285H1424.94ZM1472.19 892.929C1469.21 892.929 1466.64 892.272 1464.48 890.956C1462.33 889.627 1460.67 887.775 1459.51 885.399C1458.35 883.01 1457.78 880.231 1457.78 877.063C1457.78 873.895 1458.35 871.103 1459.51 868.687C1460.67 866.257 1462.3 864.365 1464.38 863.009C1466.47 861.64 1468.92 860.955 1471.71 860.955C1473.32 860.955 1474.91 861.224 1476.48 861.761C1478.05 862.298 1479.48 863.17 1480.77 864.378C1482.06 865.573 1483.09 867.157 1483.85 869.13C1484.62 871.103 1485 873.533 1485 876.419V878.432H1461.16V874.325H1480.17C1480.17 872.58 1479.82 871.023 1479.12 869.653C1478.43 868.284 1477.45 867.204 1476.18 866.412C1474.92 865.62 1473.43 865.224 1471.71 865.224C1469.82 865.224 1468.18 865.694 1466.8 866.633C1465.43 867.559 1464.37 868.768 1463.63 870.258C1462.9 871.748 1462.53 873.345 1462.53 875.05V877.788C1462.53 880.124 1462.93 882.104 1463.74 883.728C1464.55 885.339 1465.69 886.567 1467.14 887.413C1468.59 888.245 1470.27 888.661 1472.19 888.661C1473.44 888.661 1474.57 888.486 1475.57 888.137C1476.59 887.775 1477.47 887.238 1478.21 886.527C1478.95 885.802 1479.52 884.902 1479.92 883.828L1484.51 885.117C1484.03 886.674 1483.22 888.043 1482.08 889.225C1480.94 890.392 1479.53 891.305 1477.85 891.963C1476.17 892.607 1474.29 892.929 1472.19 892.929ZM1516.57 861.358L1505.14 892.285H1500.31L1488.87 861.358H1494.02L1502.56 886.003H1502.88L1511.42 861.358H1516.57ZM1534.71 892.929C1531.73 892.929 1529.16 892.272 1526.99 890.956C1524.85 889.627 1523.19 887.775 1522.02 885.399C1520.87 883.01 1520.29 880.231 1520.29 877.063C1520.29 873.895 1520.87 871.103 1522.02 868.687C1523.19 866.257 1524.81 864.365 1526.89 863.009C1528.99 861.64 1531.43 860.955 1534.22 860.955C1535.83 860.955 1537.42 861.224 1538.99 861.761C1540.57 862.298 1542 863.17 1543.28 864.378C1544.57 865.573 1545.6 867.157 1546.36 869.13C1547.13 871.103 1547.51 873.533 1547.51 876.419V878.432H1523.67V874.325H1542.68C1542.68 872.58 1542.33 871.023 1541.63 869.653C1540.95 868.284 1539.97 867.204 1538.69 866.412C1537.43 865.62 1535.94 865.224 1534.22 865.224C1532.33 865.224 1530.69 865.694 1529.31 866.633C1527.94 867.559 1526.89 868.768 1526.15 870.258C1525.41 871.748 1525.04 873.345 1525.04 875.05V877.788C1525.04 880.124 1525.44 882.104 1526.25 883.728C1527.07 885.339 1528.2 886.567 1529.65 887.413C1531.1 888.245 1532.79 888.661 1534.71 888.661C1535.95 888.661 1537.08 888.486 1538.09 888.137C1539.11 887.775 1539.99 887.238 1540.73 886.527C1541.46 885.802 1542.04 884.902 1542.44 883.828L1547.03 885.117C1546.55 886.674 1545.73 888.043 1544.59 889.225C1543.45 890.392 1542.04 891.305 1540.36 891.963C1538.69 892.607 1536.8 892.929 1534.71 892.929ZM1554.74 892.285V861.358H1559.33V866.029H1559.65C1560.22 864.499 1561.24 863.257 1562.71 862.304C1564.19 861.351 1565.85 860.875 1567.71 860.875C1568.06 860.875 1568.49 860.881 1569.02 860.895C1569.54 860.908 1569.94 860.928 1570.2 860.955V865.788C1570.04 865.747 1569.67 865.687 1569.1 865.606C1568.53 865.512 1567.94 865.465 1567.3 865.465C1565.8 865.465 1564.46 865.781 1563.28 866.412C1562.11 867.029 1561.18 867.888 1560.5 868.989C1559.83 870.076 1559.49 871.318 1559.49 872.714V892.285H1554.74ZM1579.84 903.883C1579.03 903.883 1578.32 903.816 1577.68 903.682C1577.05 903.561 1576.62 903.44 1576.38 903.319L1577.58 899.131C1578.74 899.426 1579.76 899.534 1580.64 899.453C1581.53 899.373 1582.32 898.977 1583 898.265C1583.7 897.567 1584.34 896.433 1584.91 894.862L1585.8 892.446L1574.36 861.358H1579.52L1588.05 886.003H1588.38L1596.91 861.358H1602.07L1588.94 896.795C1588.35 898.393 1587.62 899.715 1586.74 900.762C1585.87 901.822 1584.86 902.608 1583.7 903.118C1582.56 903.628 1581.27 903.883 1579.84 903.883ZM1624.29 892.285V861.358H1628.88V866.19H1629.28C1629.92 864.539 1630.96 863.257 1632.4 862.344C1633.84 861.418 1635.56 860.955 1637.58 860.955C1639.62 860.955 1641.31 861.418 1642.67 862.344C1644.04 863.257 1645.11 864.539 1645.87 866.19H1646.19C1646.99 864.593 1648.17 863.324 1649.76 862.385C1651.34 861.432 1653.24 860.955 1655.46 860.955C1658.22 860.955 1660.48 861.821 1662.24 863.553C1664 865.271 1664.88 867.949 1664.88 871.586V892.285H1660.13V871.586C1660.13 869.304 1659.5 867.674 1658.25 866.694C1657.01 865.714 1655.54 865.224 1653.84 865.224C1651.67 865.224 1649.99 865.882 1648.79 867.197C1647.6 868.499 1647 870.15 1647 872.15V892.285H1642.17V871.103C1642.17 869.345 1641.6 867.929 1640.45 866.855C1639.31 865.767 1637.84 865.224 1636.05 865.224C1634.81 865.224 1633.66 865.553 1632.58 866.21C1631.52 866.868 1630.66 867.781 1630 868.949C1629.36 870.103 1629.04 871.439 1629.04 872.956V892.285H1624.29ZM1686.13 892.929C1683.34 892.929 1680.89 892.265 1678.78 890.936C1676.69 889.607 1675.05 887.748 1673.87 885.359C1672.7 882.969 1672.12 880.177 1672.12 876.983C1672.12 873.761 1672.7 870.949 1673.87 868.546C1675.05 866.143 1676.69 864.277 1678.78 862.949C1680.89 861.62 1683.34 860.955 1686.13 860.955C1688.92 860.955 1691.37 861.62 1693.46 862.949C1695.57 864.277 1697.21 866.143 1698.37 868.546C1699.55 870.949 1700.14 873.761 1700.14 876.983C1700.14 880.177 1699.55 882.969 1698.37 885.359C1697.21 887.748 1695.57 889.607 1693.46 890.936C1691.37 892.265 1688.92 892.929 1686.13 892.929ZM1686.13 888.661C1688.25 888.661 1690 888.117 1691.37 887.03C1692.74 885.943 1693.75 884.513 1694.41 882.741C1695.06 880.969 1695.39 879.05 1695.39 876.983C1695.39 874.915 1695.06 872.989 1694.41 871.204C1693.75 869.419 1692.74 867.976 1691.37 866.875C1690 865.774 1688.25 865.224 1686.13 865.224C1684.01 865.224 1682.27 865.774 1680.9 866.875C1679.53 867.976 1678.51 869.419 1677.86 871.204C1677.2 872.989 1676.87 874.915 1676.87 876.983C1676.87 879.05 1677.2 880.969 1677.86 882.741C1678.51 884.513 1679.53 885.943 1680.9 887.03C1682.27 888.117 1684.01 888.661 1686.13 888.661ZM1712.15 873.68V892.285H1707.4V861.358H1711.99V866.19H1712.39C1713.12 864.62 1714.22 863.358 1715.69 862.405C1717.17 861.438 1719.08 860.955 1721.41 860.955C1723.51 860.955 1725.34 861.385 1726.91 862.244C1728.48 863.089 1729.7 864.378 1730.57 866.11C1731.45 867.828 1731.88 870.002 1731.88 872.633V892.285H1727.13V872.956C1727.13 870.526 1726.5 868.633 1725.24 867.278C1723.98 865.908 1722.24 865.224 1720.04 865.224C1718.53 865.224 1717.17 865.553 1715.98 866.21C1714.79 866.868 1713.86 867.828 1713.18 869.09C1712.49 870.351 1712.15 871.882 1712.15 873.68ZM1754.02 861.358V865.385H1737.99V861.358H1754.02ZM1742.66 853.948H1747.41V883.426C1747.41 884.768 1747.61 885.775 1748 886.446C1748.4 887.104 1748.91 887.547 1749.53 887.775C1750.16 887.99 1750.82 888.097 1751.52 888.097C1752.04 888.097 1752.47 888.07 1752.81 888.017C1753.14 887.949 1753.41 887.896 1753.61 887.855L1754.58 892.124C1754.26 892.245 1753.81 892.366 1753.23 892.487C1752.65 892.621 1751.92 892.688 1751.04 892.688C1749.69 892.688 1748.38 892.399 1747.09 891.822C1745.81 891.245 1744.75 890.366 1743.91 889.184C1743.08 888.003 1742.66 886.513 1742.66 884.714V853.948ZM1766.58 873.68V892.285H1761.83V851.049H1766.58V866.19H1766.98C1767.71 864.593 1768.79 863.324 1770.24 862.385C1771.71 861.432 1773.65 860.955 1776.08 860.955C1778.19 860.955 1780.04 861.378 1781.62 862.224C1783.2 863.056 1784.43 864.338 1785.31 866.069C1786.19 867.788 1786.63 869.976 1786.63 872.633V892.285H1781.88V872.956C1781.88 870.499 1781.25 868.6 1779.97 867.257C1778.71 865.902 1776.96 865.224 1774.71 865.224C1773.16 865.224 1771.76 865.553 1770.53 866.21C1769.31 866.868 1768.34 867.828 1767.63 869.09C1766.93 870.351 1766.58 871.882 1766.58 873.68ZM1798.79 892.607C1797.8 892.607 1796.95 892.252 1796.23 891.54C1795.52 890.829 1795.17 889.976 1795.17 888.983C1795.17 887.99 1795.52 887.137 1796.23 886.426C1796.95 885.714 1797.8 885.359 1798.79 885.359C1799.78 885.359 1800.64 885.714 1801.35 886.426C1802.06 887.137 1802.42 887.99 1802.42 888.983C1802.42 889.641 1802.25 890.245 1801.91 890.795C1801.59 891.346 1801.15 891.788 1800.6 892.124C1800.07 892.446 1799.46 892.607 1798.79 892.607Z" fill="white"/>
<mask id="mask0_972_2" style="mask-type:alpha" maskUnits="userSpaceOnUse" x="379" y="0" width="1404" height="725">
<rect x="379" width="1404" height="725" rx="85.05" fill="#171717"/>
</mask>
<g mask="url(#mask0_972_2)">
<path d="M574.727 -68.5345L1091.47 757.817L287.599 862.832L574.727 -68.5345Z" fill="#99C58F"/>
<path d="M1604.75 209.699L1928.31 816.444L1418.49 871.619L1604.75 209.699Z" fill="#AE8A58"/>
<path d="M1208.83 328.812L1826.57 719.485L1199.82 1059.66L1208.83 328.812Z" fill="#AFACAC"/>
<path d="M1096.96 259.638L1412.99 877.641L867.58 914.762L1096.96 259.638Z" fill="#FFE69B"/>
<path d="M834.087 411.519L1150.11 1029.52L604.708 1066.64L834.087 411.519Z" fill="#CDC9CA"/>
<path d="M547.965 416.286L788.99 1067.22L243.008 1039.83L547.965 416.286Z" fill="#FFE89D"/>
<path d="M277.838 371.277L593.866 989.28L48.4593 1026.4L277.838 371.277Z" fill="#BBB8B9"/>
<path d="M905.978 457.23L1247.52 1061.51L704.132 1121.35L905.978 457.23Z" fill="#FFDC83"/>
<path d="M1242.25 384.247L1817.71 749.049L1330.53 1027.15L1242.25 384.247Z" fill="#AFACAC"/>
<path d="M1604.76 209.972L1930.27 816.232L1445.77 868.666L1604.76 209.972Z" fill="#AE8A58"/>
<path d="M1604.79 210.108L1945.15 814.621L1653.01 846.237L1604.79 210.108Z" fill="#FFD36C"/>
</g>
</svg>
