<svg width="2164" height="1117" viewBox="0 0 2164 1117" fill="none" xmlns="http://www.w3.org/2000/svg">
<rect width="2163.1" height="1116.99" rx="85.05" fill="#171717"/>
<mask id="mask0_972_75" style="mask-type:alpha" maskUnits="userSpaceOnUse" x="0" y="0" width="2164" height="1117">
<rect width="2163.1" height="1116.99" rx="85.05" fill="#171717"/>
</mask>
<g mask="url(#mask0_972_75)">
<path d="M301.554 -105.59L1097.7 1167.55L-140.816 1329.34L301.554 -105.59Z" fill="#99C58F"/>
<path d="M1888.49 323.078L2386.99 1257.87L1601.52 1342.88L1888.49 323.078Z" fill="#AE8A58"/>
<path d="M1278.5 506.592L2230.24 1108.49L1264.61 1632.6L1278.5 506.592Z" fill="#AFACAC"/>
<path d="M1106.14 400.019L1593.04 1352.16L752.746 1409.35L1106.14 400.019Z" fill="#FFE69B"/>
<path d="M701.144 634.019L1188.04 1586.16L347.746 1643.35L701.144 634.019Z" fill="#CDC9CA"/>
<path d="M260.322 641.362L631.664 1644.23L-209.517 1602.04L260.322 641.362Z" fill="#FFE89D"/>
<path d="M-155.856 572.019L331.041 1524.16L-509.254 1581.35L-155.856 572.019Z" fill="#BBB8B9"/>
<path d="M811.905 704.444L1338.1 1635.44L500.925 1727.64L811.905 704.444Z" fill="#FFDC83"/>
<path d="M1330 592L2216.59 1154.04L1466 1582.5L1330 592Z" fill="#AFACAC"/>
<path d="M1888.5 323.499L2390 1257.55L1643.55 1338.33L1888.5 323.499Z" fill="#AE8A58"/>
<path d="M1888.56 323.709L2412.93 1255.07L1962.85 1303.78L1888.56 323.709Z" fill="#FFD36C"/>
</g>
<path d="M579.875 580.635V316.722H611.833V552.285H734.512V580.635H579.875ZM860.282 584.758C842.413 584.758 826.735 580.506 813.247 572.001C799.845 563.496 789.365 551.597 781.805 536.306C774.33 521.014 770.593 503.145 770.593 482.698C770.593 462.08 774.33 444.082 781.805 428.705C789.365 413.327 799.845 401.385 813.247 392.88C826.735 384.375 842.413 380.123 860.282 380.123C878.152 380.123 893.787 384.375 907.189 392.88C920.677 401.385 931.157 413.327 938.632 428.705C946.192 444.082 949.972 462.08 949.972 482.698C949.972 503.145 946.192 521.014 938.632 536.306C931.157 551.597 920.677 563.496 907.189 572.001C893.787 580.506 878.152 584.758 860.282 584.758ZM860.282 557.439C873.856 557.439 885.024 553.96 893.787 547.001C902.55 540.043 909.036 530.893 913.245 519.553C917.455 508.213 919.56 495.928 919.56 482.698C919.56 469.468 917.455 457.14 913.245 445.715C909.036 434.289 902.55 425.053 893.787 418.009C885.024 410.964 873.856 407.442 860.282 407.442C846.709 407.442 835.541 410.964 826.778 418.009C818.015 425.053 811.529 434.289 807.32 445.715C803.11 457.14 801.005 469.468 801.005 482.698C801.005 495.928 803.11 508.213 807.32 519.553C811.529 530.893 818.015 540.043 826.778 547.001C835.541 553.96 846.709 557.439 860.282 557.439ZM1000.52 580.635V316.722H1030.93V414.143H1033.51C1035.74 410.707 1038.83 406.325 1042.79 400.999C1046.82 395.587 1052.58 390.776 1060.05 386.566C1067.61 382.271 1077.84 380.123 1090.72 380.123C1107.39 380.123 1122.08 384.29 1134.79 392.623C1147.51 400.956 1157.43 412.768 1164.56 428.06C1171.69 443.352 1175.26 461.393 1175.26 482.183C1175.26 503.145 1171.69 521.315 1164.56 536.692C1157.43 551.984 1147.55 563.84 1134.92 572.259C1122.29 580.592 1107.73 584.758 1091.24 584.758C1078.52 584.758 1068.34 582.654 1060.7 578.444C1053.05 574.149 1047.17 569.295 1043.04 563.882C1038.92 558.384 1035.74 553.831 1033.51 550.223H1029.9V580.635H1000.52ZM1030.41 481.667C1030.41 496.616 1032.61 509.803 1036.99 521.229C1041.37 532.569 1047.77 541.46 1056.19 547.903C1064.61 554.261 1074.92 557.439 1087.11 557.439C1099.83 557.439 1110.44 554.089 1118.94 547.388C1127.53 540.601 1133.98 531.495 1138.27 520.069C1142.65 508.557 1144.85 495.757 1144.85 481.667C1144.85 467.75 1142.7 455.207 1138.4 444.039C1134.19 432.785 1127.79 423.894 1119.2 417.365C1110.7 410.75 1100 407.442 1087.11 407.442C1074.74 407.442 1064.35 410.578 1055.93 416.849C1047.51 423.035 1041.15 431.711 1036.86 442.88C1032.56 453.962 1030.41 466.891 1030.41 481.667ZM1225.9 580.635V316.722H1256.31V414.143H1258.89C1261.12 410.707 1264.22 406.325 1268.17 400.999C1272.21 395.587 1277.96 390.776 1285.44 386.566C1293 382.271 1303.22 380.123 1316.11 380.123C1332.77 380.123 1347.46 384.29 1360.18 392.623C1372.89 400.956 1382.81 412.768 1389.94 428.06C1397.07 443.352 1400.64 461.393 1400.64 482.183C1400.64 503.145 1397.07 521.315 1389.94 536.692C1382.81 551.984 1372.93 563.84 1360.31 572.259C1347.68 580.592 1333.12 584.758 1316.62 584.758C1303.91 584.758 1293.73 582.654 1286.08 578.444C1278.43 574.149 1272.55 569.295 1268.43 563.882C1264.3 558.384 1261.12 553.831 1258.89 550.223H1255.28V580.635H1225.9ZM1255.8 481.667C1255.8 496.616 1257.99 509.803 1262.37 521.229C1266.75 532.569 1273.15 541.46 1281.57 547.903C1289.99 554.261 1300.3 557.439 1312.5 557.439C1325.21 557.439 1335.82 554.089 1344.33 547.388C1352.92 540.601 1359.36 531.495 1363.66 520.069C1368.04 508.557 1370.23 495.757 1370.23 481.667C1370.23 467.75 1368.08 455.207 1363.78 444.039C1359.58 432.785 1353.18 423.894 1344.58 417.365C1336.08 410.75 1325.38 407.442 1312.5 407.442C1300.13 407.442 1289.73 410.578 1281.31 416.849C1272.89 423.035 1266.54 431.711 1262.24 442.88C1257.94 453.962 1255.8 466.891 1255.8 481.667ZM1459.66 654.86C1454.5 654.86 1449.91 654.431 1445.87 653.572C1441.83 652.798 1439.04 652.025 1437.49 651.252L1445.23 624.448C1452.61 626.338 1459.14 627.026 1464.81 626.51C1470.48 625.995 1475.51 623.46 1479.89 618.907C1484.36 614.44 1488.44 607.181 1492.13 597.129L1497.8 581.666L1424.61 382.7H1457.6L1512.24 540.429H1514.3L1568.94 382.7H1601.92L1517.91 609.5C1514.13 619.723 1509.44 628.185 1503.86 634.886C1498.28 641.673 1491.79 646.699 1484.4 649.963C1477.1 653.228 1468.85 654.86 1459.66 654.86Z" fill="white"/>
<g filter="url(#filter0_d_972_75)">
<path d="M579.875 580.635V316.722H611.833V552.285H734.512V580.635H579.875ZM860.282 584.758C842.413 584.758 826.735 580.506 813.247 572.001C799.845 563.496 789.365 551.597 781.805 536.306C774.33 521.014 770.593 503.145 770.593 482.698C770.593 462.08 774.33 444.082 781.805 428.705C789.365 413.327 799.845 401.385 813.247 392.88C826.735 384.375 842.413 380.123 860.282 380.123C878.152 380.123 893.787 384.375 907.189 392.88C920.677 401.385 931.157 413.327 938.632 428.705C946.192 444.082 949.972 462.08 949.972 482.698C949.972 503.145 946.192 521.014 938.632 536.306C931.157 551.597 920.677 563.496 907.189 572.001C893.787 580.506 878.152 584.758 860.282 584.758ZM860.282 557.439C873.856 557.439 885.024 553.96 893.787 547.001C902.55 540.043 909.036 530.893 913.245 519.553C917.455 508.213 919.56 495.928 919.56 482.698C919.56 469.468 917.455 457.14 913.245 445.715C909.036 434.289 902.55 425.053 893.787 418.009C885.024 410.964 873.856 407.442 860.282 407.442C846.709 407.442 835.541 410.964 826.778 418.009C818.015 425.053 811.529 434.289 807.32 445.715C803.11 457.14 801.005 469.468 801.005 482.698C801.005 495.928 803.11 508.213 807.32 519.553C811.529 530.893 818.015 540.043 826.778 547.001C835.541 553.96 846.709 557.439 860.282 557.439ZM1000.52 580.635V316.722H1030.93V414.143H1033.51C1035.74 410.707 1038.83 406.325 1042.79 400.999C1046.82 395.587 1052.58 390.776 1060.05 386.566C1067.61 382.271 1077.84 380.123 1090.72 380.123C1107.39 380.123 1122.08 384.29 1134.79 392.623C1147.51 400.956 1157.43 412.768 1164.56 428.06C1171.69 443.352 1175.26 461.393 1175.26 482.183C1175.26 503.145 1171.69 521.315 1164.56 536.692C1157.43 551.984 1147.55 563.84 1134.92 572.259C1122.29 580.592 1107.73 584.758 1091.24 584.758C1078.52 584.758 1068.34 582.654 1060.7 578.444C1053.05 574.149 1047.17 569.295 1043.04 563.882C1038.92 558.384 1035.74 553.831 1033.51 550.223H1029.9V580.635H1000.52ZM1030.41 481.667C1030.41 496.616 1032.61 509.803 1036.99 521.229C1041.37 532.569 1047.77 541.46 1056.19 547.903C1064.61 554.261 1074.92 557.439 1087.11 557.439C1099.83 557.439 1110.44 554.089 1118.94 547.388C1127.53 540.601 1133.98 531.495 1138.27 520.069C1142.65 508.557 1144.85 495.757 1144.85 481.667C1144.85 467.75 1142.7 455.207 1138.4 444.039C1134.19 432.785 1127.79 423.894 1119.2 417.365C1110.7 410.75 1100 407.442 1087.11 407.442C1074.74 407.442 1064.35 410.578 1055.93 416.849C1047.51 423.035 1041.15 431.711 1036.86 442.88C1032.56 453.962 1030.41 466.891 1030.41 481.667ZM1225.9 580.635V316.722H1256.31V414.143H1258.89C1261.12 410.707 1264.22 406.325 1268.17 400.999C1272.21 395.587 1277.96 390.776 1285.44 386.566C1293 382.271 1303.22 380.123 1316.11 380.123C1332.77 380.123 1347.46 384.29 1360.18 392.623C1372.89 400.956 1382.81 412.768 1389.94 428.06C1397.07 443.352 1400.64 461.393 1400.64 482.183C1400.64 503.145 1397.07 521.315 1389.94 536.692C1382.81 551.984 1372.93 563.84 1360.31 572.259C1347.68 580.592 1333.12 584.758 1316.62 584.758C1303.91 584.758 1293.73 582.654 1286.08 578.444C1278.43 574.149 1272.55 569.295 1268.43 563.882C1264.3 558.384 1261.12 553.831 1258.89 550.223H1255.28V580.635H1225.9ZM1255.8 481.667C1255.8 496.616 1257.99 509.803 1262.37 521.229C1266.75 532.569 1273.15 541.46 1281.57 547.903C1289.99 554.261 1300.3 557.439 1312.5 557.439C1325.21 557.439 1335.82 554.089 1344.33 547.388C1352.92 540.601 1359.36 531.495 1363.66 520.069C1368.04 508.557 1370.23 495.757 1370.23 481.667C1370.23 467.75 1368.08 455.207 1363.78 444.039C1359.58 432.785 1353.18 423.894 1344.58 417.365C1336.08 410.75 1325.38 407.442 1312.5 407.442C1300.13 407.442 1289.73 410.578 1281.31 416.849C1272.89 423.035 1266.54 431.711 1262.24 442.88C1257.94 453.962 1255.8 466.891 1255.8 481.667ZM1459.66 654.86C1454.5 654.86 1449.91 654.431 1445.87 653.572C1441.83 652.798 1439.04 652.025 1437.49 651.252L1445.23 624.448C1452.61 626.338 1459.14 627.026 1464.81 626.51C1470.48 625.995 1475.51 623.46 1479.89 618.907C1484.36 614.44 1488.44 607.181 1492.13 597.129L1497.8 581.666L1424.61 382.7H1457.6L1512.24 540.429H1514.3L1568.94 382.7H1601.92L1517.91 609.5C1514.13 619.723 1509.44 628.185 1503.86 634.886C1498.28 641.673 1491.79 646.699 1484.4 649.963C1477.1 653.228 1468.85 654.86 1459.66 654.86Z" fill="white"/>
</g>
<mask id="mask1_972_75" style="mask-type:alpha" maskUnits="userSpaceOnUse" x="580" y="317" width="1023" height="339">
<path d="M580.301 581V317.087H612.259V552.65H734.937V581H580.301ZM860.708 585.124C842.839 585.124 827.161 580.871 813.673 572.366C800.271 563.861 789.79 551.963 782.23 536.671C774.756 521.379 771.019 503.51 771.019 483.064C771.019 462.445 774.756 444.448 782.23 429.07C789.79 413.692 800.271 401.751 813.673 393.246C827.161 384.741 842.839 380.488 860.708 380.488C878.577 380.488 894.213 384.741 907.615 393.246C921.102 401.751 931.583 413.692 939.057 429.07C946.617 444.448 950.397 462.445 950.397 483.064C950.397 503.51 946.617 521.379 939.057 536.671C931.583 551.963 921.102 563.861 907.615 572.366C894.213 580.871 878.577 585.124 860.708 585.124ZM860.708 557.805C874.282 557.805 885.45 554.325 894.213 547.367C902.976 540.408 909.462 531.259 913.671 519.919C917.881 508.579 919.986 496.294 919.986 483.064C919.986 469.834 917.881 457.506 913.671 446.08C909.462 434.654 902.976 425.419 894.213 418.374C885.45 411.33 874.282 407.807 860.708 407.807C847.135 407.807 835.966 411.33 827.204 418.374C818.441 425.419 811.955 434.654 807.745 446.08C803.536 457.506 801.431 469.834 801.431 483.064C801.431 496.294 803.536 508.579 807.745 519.919C811.955 531.259 818.441 540.408 827.204 547.367C835.966 554.325 847.135 557.805 860.708 557.805ZM1000.94 581V317.087H1031.36V414.508H1033.93C1036.17 411.072 1039.26 406.69 1043.21 401.364C1047.25 395.952 1053.01 391.141 1060.48 386.931C1068.04 382.636 1078.26 380.488 1091.15 380.488C1107.82 380.488 1122.51 384.655 1135.22 392.988C1147.93 401.321 1157.86 413.134 1164.99 428.425C1172.12 443.717 1175.68 461.758 1175.68 482.548C1175.68 503.51 1172.12 521.68 1164.99 537.058C1157.86 552.349 1147.98 564.205 1135.35 572.624C1122.72 580.957 1108.16 585.124 1091.66 585.124C1078.95 585.124 1068.77 583.019 1061.12 578.809C1053.48 574.514 1047.59 569.66 1043.47 564.248C1039.35 558.75 1036.17 554.196 1033.93 550.588H1030.33V581H1000.94ZM1030.84 482.033C1030.84 496.981 1033.03 510.168 1037.41 521.594C1041.79 532.934 1048.19 541.825 1056.61 548.269C1065.03 554.626 1075.34 557.805 1087.54 557.805C1100.26 557.805 1110.86 554.454 1119.37 547.753C1127.96 540.966 1134.4 531.86 1138.7 520.434C1143.08 508.922 1145.27 496.122 1145.27 482.033C1145.27 468.115 1143.12 455.573 1138.83 444.405C1134.62 433.15 1128.22 424.259 1119.63 417.73C1111.12 411.115 1100.43 407.807 1087.54 407.807C1075.17 407.807 1064.77 410.943 1056.36 417.214C1047.94 423.4 1041.58 432.077 1037.28 443.245C1032.99 454.327 1030.84 467.256 1030.84 482.033ZM1226.33 581V317.087H1256.74V414.508H1259.32C1261.55 411.072 1264.64 406.69 1268.59 401.364C1272.63 395.952 1278.39 391.141 1285.86 386.931C1293.42 382.636 1303.64 380.488 1316.53 380.488C1333.2 380.488 1347.89 384.655 1360.6 392.988C1373.32 401.321 1383.24 413.134 1390.37 428.425C1397.5 443.717 1401.07 461.758 1401.07 482.548C1401.07 503.51 1397.5 521.68 1390.37 537.058C1383.24 552.349 1373.36 564.205 1360.73 572.624C1348.1 580.957 1333.54 585.124 1317.05 585.124C1304.33 585.124 1294.15 583.019 1286.51 578.809C1278.86 574.514 1272.98 569.66 1268.85 564.248C1264.73 558.75 1261.55 554.196 1259.32 550.588H1255.71V581H1226.33ZM1256.22 482.033C1256.22 496.981 1258.41 510.168 1262.79 521.594C1267.18 532.934 1273.58 541.825 1282 548.269C1290.41 554.626 1300.72 557.805 1312.92 557.805C1325.64 557.805 1336.25 554.454 1344.75 547.753C1353.34 540.966 1359.79 531.86 1364.08 520.434C1368.46 508.922 1370.65 496.122 1370.65 482.033C1370.65 468.115 1368.51 455.573 1364.21 444.405C1360 433.15 1353.6 424.259 1345.01 417.73C1336.5 411.115 1325.81 407.807 1312.92 407.807C1300.55 407.807 1290.16 410.943 1281.74 417.214C1273.32 423.4 1266.96 432.077 1262.67 443.245C1258.37 454.327 1256.22 467.256 1256.22 482.033ZM1460.09 655.225C1454.93 655.225 1450.33 654.796 1446.3 653.937C1442.26 653.164 1439.47 652.39 1437.92 651.617L1445.65 624.814C1453.04 626.704 1459.57 627.391 1465.24 626.875C1470.91 626.36 1475.94 623.826 1480.32 619.272C1484.78 614.805 1488.86 607.546 1492.56 597.495L1498.23 582.031L1425.03 383.065H1458.02L1512.66 540.795H1514.72L1569.36 383.065H1602.35L1518.33 609.865C1514.55 620.089 1509.87 628.551 1504.29 635.252C1498.7 642.038 1492.22 647.064 1484.83 650.329C1477.52 653.593 1469.28 655.225 1460.09 655.225Z" fill="white"/>
</mask>
<g mask="url(#mask1_972_75)">
<g filter="url(#filter1_f_972_75)">
<path d="M283.98 -102.589L1080.12 1170.55L-158.39 1332.34L283.98 -102.589Z" fill="#BABABA"/>
</g>
<g filter="url(#filter2_f_972_75)">
<path d="M1260.93 509.593L2212.67 1111.49L1247.04 1635.6L1260.93 509.593Z" fill="#BABABA"/>
</g>
<g filter="url(#filter3_f_972_75)">
<path d="M1088.57 403.385L1575.47 1355.53L735.172 1412.72L1088.57 403.385Z" fill="#BABABA"/>
</g>
</g>
<defs>
<filter id="filter0_d_972_75" x="574.675" y="312.522" width="1038.45" height="354.538" filterUnits="userSpaceOnUse" color-interpolation-filters="sRGB">
<feFlood flood-opacity="0" result="BackgroundImageFix"/>
<feColorMatrix in="SourceAlpha" type="matrix" values="0 0 0 0 0 0 0 0 0 0 0 0 0 0 0 0 0 0 127 0" result="hardAlpha"/>
<feOffset dx="3" dy="4"/>
<feGaussianBlur stdDeviation="4.1"/>
<feComposite in2="hardAlpha" operator="out"/>
<feColorMatrix type="matrix" values="0 0 0 0 0 0 0 0 0 0 0 0 0 0 0 0 0 0 1 0"/>
<feBlend mode="normal" in2="BackgroundImageFix" result="effect1_dropShadow_972_75"/>
<feBlend mode="normal" in="SourceGraphic" in2="effect1_dropShadow_972_75" result="shape"/>
</filter>
<filter id="filter1_f_972_75" x="-214.39" y="-158.589" width="1350.51" height="1546.93" filterUnits="userSpaceOnUse" color-interpolation-filters="sRGB">
<feFlood flood-opacity="0" result="BackgroundImageFix"/>
<feBlend mode="normal" in="SourceGraphic" in2="BackgroundImageFix" result="shape"/>
<feGaussianBlur stdDeviation="28" result="effect1_foregroundBlur_972_75"/>
</filter>
<filter id="filter2_f_972_75" x="1191.04" y="453.593" width="1077.63" height="1238.01" filterUnits="userSpaceOnUse" color-interpolation-filters="sRGB">
<feFlood flood-opacity="0" result="BackgroundImageFix"/>
<feBlend mode="normal" in="SourceGraphic" in2="BackgroundImageFix" result="shape"/>
<feGaussianBlur stdDeviation="28" result="effect1_foregroundBlur_972_75"/>
</filter>
<filter id="filter3_f_972_75" x="679.172" y="347.385" width="952.295" height="1121.33" filterUnits="userSpaceOnUse" color-interpolation-filters="sRGB">
<feFlood flood-opacity="0" result="BackgroundImageFix"/>
<feBlend mode="normal" in="SourceGraphic" in2="BackgroundImageFix" result="shape"/>
<feGaussianBlur stdDeviation="28" result="effect1_foregroundBlur_972_75"/>
</filter>
</defs>
</svg>
