<svg width="2164" height="1117" viewBox="0 0 2164 1117" fill="none" xmlns="http://www.w3.org/2000/svg">
<g clip-path="url(#clip0_875_1702)">
<rect width="2163.1" height="1116.99" rx="85.05" fill="#171717"/>
<path d="M596.1 590H1596L1633 811.5L1596 857L1618 1033H529L596.1 590Z" fill="#262623"/>
<path d="M1573.9 590H574L537 811.5L574 857L552 1033H1641L1573.9 590Z" fill="#262623"/>
<path d="M573.5 565C974.978 519.572 1229.73 544.684 1594.4 565L1631.4 786.5L1594.4 832L1616.4 1008H581L629 786.5L573.5 565Z" fill="url(#paint0_linear_875_1702)"/>
<path d="M647.996 131L1041 121.5L1072 105H1089.5H1109L1131 125.5L1516 131V602H647.996V131Z" fill="#252524"/>
<path d="M794.561 287.251V415H772.714V287.251H794.561ZM834.658 287.251V304.799H732.968V287.251H834.658ZM882.827 416.755C875.808 416.755 869.462 415.614 863.788 413.333C858.172 410.993 853.376 407.747 849.399 403.594C845.479 399.441 842.467 394.557 840.361 388.941C838.256 383.326 837.203 377.272 837.203 370.779V367.27C837.203 359.841 838.285 353.114 840.449 347.09C842.613 341.065 845.626 335.917 849.486 331.647C853.347 327.319 857.909 324.014 863.174 321.733C868.438 319.452 874.141 318.311 880.283 318.311C887.068 318.311 893.005 319.452 898.094 321.733C903.183 324.014 907.394 327.231 910.728 331.384C914.121 335.479 916.636 340.363 918.274 346.037C919.97 351.711 920.819 357.969 920.819 364.813V373.85H847.468V358.671H899.936V357.004C899.82 353.202 899.059 349.634 897.655 346.3C896.31 342.966 894.233 340.275 891.426 338.228C888.618 336.181 884.875 335.157 880.195 335.157C876.686 335.157 873.556 335.917 870.807 337.438C868.116 338.901 865.864 341.036 864.051 343.843C862.238 346.651 860.834 350.043 859.84 354.021C858.904 357.94 858.436 362.356 858.436 367.27V370.779C858.436 374.932 858.991 378.793 860.103 382.361C861.273 385.87 862.969 388.941 865.192 391.574C867.414 394.206 870.105 396.282 873.264 397.803C876.422 399.265 880.02 399.997 884.056 399.997C889.145 399.997 893.678 398.973 897.655 396.926C901.633 394.878 905.084 391.983 908.009 388.239L919.151 399.031C917.104 402.015 914.443 404.881 911.167 407.63C907.892 410.321 903.885 412.514 899.147 414.21C894.467 415.907 889.028 416.755 882.827 416.755ZM958.547 338.14V415H937.401V320.066H957.581L958.547 338.14ZM987.588 319.452L987.413 339.105C986.126 338.871 984.722 338.696 983.201 338.579C981.739 338.462 980.277 338.403 978.814 338.403C975.188 338.403 972 338.93 969.251 339.983C966.502 340.977 964.191 342.439 962.319 344.37C960.506 346.241 959.102 348.523 958.108 351.213C957.113 353.904 956.529 356.916 956.353 360.251L951.527 360.601C951.527 354.635 952.112 349.108 953.282 344.019C954.452 338.93 956.207 334.455 958.547 330.595C960.945 326.734 963.928 323.722 967.496 321.557C971.123 319.393 975.305 318.311 980.043 318.311C981.33 318.311 982.704 318.428 984.166 318.662C985.687 318.896 986.828 319.159 987.588 319.452ZM1021.98 339.369V415H1000.84V320.066H1020.75L1021.98 339.369ZM1018.56 364.023L1011.37 363.936C1011.37 357.384 1012.18 351.33 1013.82 345.773C1015.46 340.217 1017.86 335.391 1021.02 331.296C1024.18 327.143 1028.09 323.956 1032.77 321.733C1037.51 319.452 1042.98 318.311 1049.18 318.311C1053.51 318.311 1057.46 318.954 1061.03 320.241C1064.65 321.47 1067.78 323.429 1070.41 326.12C1073.11 328.811 1075.15 332.262 1076.56 336.473C1078.02 340.685 1078.75 345.773 1078.75 351.74V415H1057.6V353.582C1057.6 348.961 1056.9 345.335 1055.5 342.703C1054.15 340.07 1052.19 338.199 1049.62 337.087C1047.1 335.917 1044.09 335.332 1040.58 335.332C1036.61 335.332 1033.21 336.093 1030.41 337.614C1027.66 339.135 1025.4 341.211 1023.65 343.843C1021.89 346.475 1020.61 349.517 1019.79 352.968C1018.97 356.419 1018.56 360.104 1018.56 364.023ZM1077.43 358.408L1067.52 360.601C1067.52 354.869 1068.31 349.459 1069.89 344.37C1071.53 339.222 1073.89 334.718 1076.99 330.858C1080.15 326.939 1084.04 323.868 1088.66 321.645C1093.29 319.422 1098.58 318.311 1104.55 318.311C1109.4 318.311 1113.73 318.984 1117.53 320.329C1121.39 321.616 1124.67 323.663 1127.36 326.471C1130.05 329.278 1132.1 332.934 1133.5 337.438C1134.9 341.884 1135.6 347.265 1135.6 353.582V415H1114.37V353.495C1114.37 348.698 1113.67 344.984 1112.27 342.352C1110.92 339.719 1108.99 337.906 1106.48 336.912C1103.96 335.859 1100.95 335.332 1097.44 335.332C1094.16 335.332 1091.27 335.947 1088.75 337.175C1086.3 338.345 1084.22 340.012 1082.52 342.176C1080.83 344.282 1079.54 346.709 1078.66 349.459C1077.84 352.208 1077.43 355.191 1077.43 358.408ZM1180 320.066V415H1158.77V320.066H1180ZM1157.36 295.148C1157.36 291.931 1158.42 289.269 1160.52 287.163C1162.69 284.999 1165.67 283.917 1169.47 283.917C1173.22 283.917 1176.17 284.999 1178.33 287.163C1180.5 289.269 1181.58 291.931 1181.58 295.148C1181.58 298.306 1180.5 300.939 1178.33 303.044C1176.17 305.15 1173.22 306.203 1169.47 306.203C1165.67 306.203 1162.69 305.15 1160.52 303.044C1158.42 300.939 1157.36 298.306 1157.36 295.148ZM1224.13 340.334V415H1202.99V320.066H1222.91L1224.13 340.334ZM1220.36 364.023L1213.52 363.936C1213.58 357.209 1214.51 351.038 1216.33 345.423C1218.2 339.807 1220.77 334.982 1224.05 330.946C1227.38 326.909 1231.36 323.809 1235.98 321.645C1240.6 319.422 1245.75 318.311 1251.42 318.311C1255.98 318.311 1260.11 318.954 1263.79 320.241C1267.54 321.47 1270.72 323.488 1273.36 326.295C1276.05 329.103 1278.09 332.759 1279.5 337.263C1280.9 341.708 1281.6 347.177 1281.6 353.67V415H1260.37V353.582C1260.37 349.02 1259.7 345.423 1258.35 342.79C1257.07 340.1 1255.16 338.199 1252.65 337.087C1250.19 335.917 1247.12 335.332 1243.44 335.332C1239.81 335.332 1236.56 336.093 1233.7 337.614C1230.83 339.135 1228.4 341.211 1226.42 343.843C1224.49 346.475 1222.99 349.517 1221.94 352.968C1220.89 356.419 1220.36 360.104 1220.36 364.023ZM1356.71 395.961V350.687C1356.71 347.294 1356.09 344.37 1354.87 341.913C1353.64 339.456 1351.77 337.555 1349.25 336.21C1346.79 334.865 1343.69 334.192 1339.95 334.192C1336.5 334.192 1333.52 334.777 1331 335.947C1328.49 337.117 1326.53 338.696 1325.12 340.685C1323.72 342.673 1323.02 344.925 1323.02 347.441H1301.96C1301.96 343.697 1302.87 340.07 1304.68 336.561C1306.49 333.051 1309.12 329.922 1312.58 327.173C1316.03 324.424 1320.15 322.259 1324.95 320.68C1329.74 319.101 1335.12 318.311 1341.09 318.311C1348.23 318.311 1354.54 319.51 1360.04 321.908C1365.6 324.307 1369.96 327.933 1373.12 332.788C1376.33 337.584 1377.94 343.609 1377.94 350.862V393.065C1377.94 397.394 1378.23 401.283 1378.82 404.734C1379.46 408.127 1380.37 411.081 1381.54 413.596V415H1359.87C1358.87 412.719 1358.08 409.823 1357.5 406.314C1356.97 402.746 1356.71 399.295 1356.71 395.961ZM1359.78 357.267L1359.95 370.341H1344.78C1340.86 370.341 1337.41 370.721 1334.42 371.481C1331.44 372.183 1328.95 373.236 1326.96 374.64C1324.98 376.044 1323.48 377.74 1322.49 379.729C1321.5 381.717 1321 383.969 1321 386.485C1321 389 1321.58 391.31 1322.75 393.416C1323.92 395.463 1325.62 397.072 1327.84 398.242C1330.12 399.412 1332.87 399.997 1336.09 399.997C1340.42 399.997 1344.19 399.119 1347.41 397.364C1350.68 395.551 1353.26 393.358 1355.13 390.784C1357 388.152 1358 385.666 1358.11 383.326L1364.96 392.714C1364.25 395.112 1363.06 397.686 1361.36 400.435C1359.66 403.184 1357.44 405.817 1354.69 408.332C1352 410.789 1348.75 412.807 1344.95 414.386C1341.21 415.965 1336.88 416.755 1331.97 416.755C1325.77 416.755 1320.24 415.526 1315.38 413.07C1310.53 410.555 1306.73 407.191 1303.98 402.98C1301.23 398.71 1299.85 393.884 1299.85 388.503C1299.85 383.472 1300.79 379.027 1302.66 375.166C1304.59 371.247 1307.4 367.972 1311.08 365.339C1314.83 362.707 1319.39 360.718 1324.77 359.373C1330.15 357.969 1336.29 357.267 1343.2 357.267H1359.78ZM1422.69 280.232V415H1401.46V280.232H1422.69Z" fill="white"/>
<path d="M643.488 118.088H1036.63L1076.92 98H1086.38H1095.9L1136.12 118.088H1518.5C1525.04 124.692 1525.57 128.396 1518.5 135H1136.12L1094.59 110.866H1086.38H1078.37L1036.63 135H643.488C635.778 128.396 636.564 124.692 643.488 118.088Z" fill="#373735"/>
<path d="M1573.9 565H573.998L536.998 786.5L573.998 832L551.998 1008H1573.9L1558 786.5L1573.9 565Z" fill="url(#paint1_linear_875_1702)"/>
<path d="M648 602H1516L1577 971H587L648 602Z" fill="url(#paint2_linear_875_1702)"/>
</g>
<defs>
<linearGradient id="paint0_linear_875_1702" x1="1102.5" y1="565" x2="1102.5" y2="1008" gradientUnits="userSpaceOnUse">
<stop stop-color="#343432"/>
<stop offset="1" stop-color="#3D3D3D"/>
</linearGradient>
<linearGradient id="paint1_linear_875_1702" x1="1096.5" y1="565" x2="1096.5" y2="1008" gradientUnits="userSpaceOnUse">
<stop stop-color="#343432"/>
<stop offset="1" stop-color="#3D3D3D"/>
</linearGradient>
<linearGradient id="paint2_linear_875_1702" x1="1082" y1="602" x2="1082" y2="971" gradientUnits="userSpaceOnUse">
<stop stop-color="#252524"/>
<stop offset="1" stop-color="#313131"/>
</linearGradient>
<clipPath id="clip0_875_1702">
<rect width="2163.1" height="1116.99" fill="white"/>
</clipPath>
</defs>
</svg>
