<svg width="2164" height="1117" viewBox="0 0 2164 1117" fill="none" xmlns="http://www.w3.org/2000/svg">
<rect width="2163.1" height="1116.99" rx="85.05" fill="#171717"/>
<path d="M61.9836 116.995V110.423L90.9779 64.5472H95.7459V74.7274H92.5243L70.6175 109.392V109.907H109.663V116.995H61.9836ZM93.0397 130.525V114.997V111.937V64.5472H100.643V130.525H93.0397ZM124.305 131.041C122.716 131.041 121.352 130.472 120.214 129.333C119.076 128.195 118.506 126.831 118.506 125.242C118.506 123.653 119.076 122.289 120.214 121.151C121.352 120.012 122.716 119.443 124.305 119.443C125.895 119.443 127.258 120.012 128.397 121.151C129.535 122.289 130.104 123.653 130.104 125.242C130.104 126.294 129.836 127.261 129.299 128.141C128.783 129.022 128.085 129.731 127.205 130.268C126.346 130.783 125.379 131.041 124.305 131.041Z" fill="white"/>
<path d="M656.573 823.284H651.338L666.48 782.048H671.634L686.776 823.284H681.541L669.218 788.572H668.896L656.573 823.284ZM658.506 807.176H679.608V811.606H658.506V807.176ZM697.306 804.679V823.284H692.554V792.357H697.145V797.189H697.548C698.273 795.619 699.374 794.357 700.85 793.404C702.327 792.437 704.233 791.954 706.568 791.954C708.662 791.954 710.495 792.384 712.065 793.243C713.636 794.089 714.857 795.377 715.73 797.109C716.602 798.827 717.039 801.002 717.039 803.632V823.284H712.287V803.955C712.287 801.525 711.656 799.632 710.394 798.277C709.132 796.907 707.401 796.223 705.199 796.223C703.682 796.223 702.327 796.552 701.132 797.209C699.951 797.867 699.018 798.827 698.333 800.089C697.649 801.351 697.306 802.881 697.306 804.679ZM725.722 823.284V792.357H730.474V823.284H725.722ZM728.138 787.202C727.212 787.202 726.413 786.887 725.742 786.256C725.084 785.625 724.755 784.867 724.755 783.981C724.755 783.095 725.084 782.336 725.742 781.706C726.413 781.075 727.212 780.759 728.138 780.759C729.064 780.759 729.856 781.075 730.514 781.706C731.185 782.336 731.521 783.095 731.521 783.981C731.521 784.867 731.185 785.625 730.514 786.256C729.856 786.887 729.064 787.202 728.138 787.202ZM739.177 823.284V792.357H743.768V797.189H744.17C744.815 795.538 745.855 794.256 747.291 793.344C748.728 792.417 750.453 791.954 752.466 791.954C754.506 791.954 756.204 792.417 757.56 793.344C758.929 794.256 759.996 795.538 760.762 797.189H761.084C761.876 795.592 763.064 794.323 764.648 793.384C766.232 792.431 768.131 791.954 770.346 791.954C773.111 791.954 775.373 792.82 777.131 794.552C778.89 796.27 779.769 798.948 779.769 802.585V823.284H775.017V802.585C775.017 800.303 774.393 798.673 773.145 797.693C771.896 796.713 770.426 796.223 768.735 796.223C766.56 796.223 764.876 796.881 763.681 798.196C762.487 799.498 761.889 801.149 761.889 803.149V823.284H757.057V802.102C757.057 800.344 756.486 798.928 755.345 797.854C754.204 796.766 752.734 796.223 750.936 796.223C749.701 796.223 748.546 796.552 747.473 797.209C746.412 797.867 745.553 798.78 744.895 799.948C744.251 801.102 743.929 802.438 743.929 803.955V823.284H739.177ZM797.558 824.009C795.598 824.009 793.82 823.64 792.222 822.902C790.625 822.15 789.357 821.069 788.417 819.66C787.477 818.237 787.008 816.519 787.008 814.505C787.008 812.733 787.357 811.297 788.055 810.196C788.753 809.082 789.685 808.21 790.853 807.579C792.021 806.948 793.31 806.478 794.719 806.169C796.142 805.847 797.572 805.592 799.008 805.404C800.887 805.163 802.411 804.982 803.579 804.861C804.76 804.726 805.619 804.505 806.156 804.196C806.706 803.888 806.981 803.351 806.981 802.585V802.424C806.981 800.438 806.438 798.894 805.35 797.793C804.277 796.693 802.646 796.142 800.458 796.142C798.189 796.142 796.411 796.639 795.122 797.632C793.833 798.626 792.927 799.686 792.404 800.814L787.893 799.203C788.699 797.324 789.773 795.86 791.115 794.813C792.471 793.753 793.947 793.015 795.545 792.599C797.156 792.169 798.739 791.954 800.297 791.954C801.29 791.954 802.431 792.075 803.72 792.317C805.022 792.545 806.277 793.021 807.485 793.746C808.706 794.471 809.72 795.565 810.525 797.028C811.331 798.491 811.733 800.451 811.733 802.908V823.284H806.981V819.096H806.74C806.418 819.767 805.881 820.485 805.129 821.251C804.377 822.016 803.377 822.667 802.129 823.204C800.881 823.741 799.357 824.009 797.558 824.009ZM798.283 819.74C800.162 819.74 801.746 819.371 803.035 818.633C804.337 817.895 805.317 816.942 805.975 815.774C806.646 814.606 806.981 813.378 806.981 812.089V807.74C806.78 807.982 806.337 808.203 805.652 808.404C804.981 808.592 804.203 808.76 803.317 808.908C802.444 809.042 801.592 809.163 800.76 809.27C799.941 809.364 799.276 809.445 798.766 809.512C797.531 809.673 796.377 809.935 795.303 810.297C794.243 810.646 793.384 811.176 792.726 811.888C792.082 812.586 791.759 813.539 791.759 814.747C791.759 816.398 792.37 817.646 793.592 818.492C794.827 819.324 796.39 819.74 798.283 819.74ZM833.856 792.357V796.384H817.829V792.357H833.856ZM822.5 784.947H827.252V814.425C827.252 815.767 827.447 816.774 827.836 817.445C828.239 818.103 828.749 818.546 829.366 818.774C829.997 818.989 830.662 819.096 831.36 819.096C831.883 819.096 832.313 819.069 832.648 819.016C832.984 818.948 833.252 818.895 833.454 818.854L834.42 823.123C834.098 823.244 833.648 823.365 833.071 823.486C832.494 823.62 831.762 823.687 830.877 823.687C829.534 823.687 828.219 823.398 826.93 822.821C825.655 822.244 824.594 821.365 823.749 820.183C822.916 819.002 822.5 817.512 822.5 815.713V784.947ZM853.639 823.928C850.659 823.928 848.089 823.271 845.927 821.955C843.78 820.626 842.122 818.774 840.954 816.398C839.8 814.009 839.222 811.23 839.222 808.062C839.222 804.894 839.8 802.102 840.954 799.686C842.122 797.256 843.746 795.364 845.827 794.008C847.921 792.639 850.364 791.954 853.156 791.954C854.767 791.954 856.357 792.223 857.928 792.76C859.498 793.297 860.928 794.169 862.217 795.377C863.505 796.572 864.532 798.156 865.297 800.129C866.062 802.102 866.445 804.532 866.445 807.418V809.431H842.605V805.324H861.612C861.612 803.579 861.263 802.022 860.565 800.653C859.881 799.283 858.901 798.203 857.626 797.411C856.364 796.619 854.874 796.223 853.156 796.223C851.263 796.223 849.625 796.693 848.243 797.632C846.874 798.558 845.82 799.767 845.082 801.257C844.343 802.747 843.974 804.344 843.974 806.049V808.787C843.974 811.123 844.377 813.103 845.182 814.727C846.001 816.338 847.135 817.566 848.585 818.412C850.035 819.244 851.72 819.66 853.639 819.66C854.887 819.66 856.015 819.485 857.022 819.136C858.042 818.774 858.921 818.237 859.659 817.526C860.398 816.801 860.968 815.901 861.371 814.828L865.962 816.116C865.478 817.673 864.666 819.042 863.525 820.224C862.384 821.391 860.975 822.304 859.297 822.962C857.619 823.606 855.733 823.928 853.639 823.928ZM1070.84 962.009C1068.88 962.009 1067.1 961.64 1065.51 960.902C1063.91 960.15 1062.64 959.069 1061.7 957.66C1060.76 956.237 1060.29 954.519 1060.29 952.505C1060.29 950.733 1060.64 949.297 1061.34 948.196C1062.04 947.082 1062.97 946.21 1064.14 945.579C1065.31 944.948 1066.59 944.478 1068 944.169C1069.43 943.847 1070.86 943.592 1072.29 943.404C1074.17 943.163 1075.69 942.982 1076.86 942.861C1078.04 942.726 1078.9 942.505 1079.44 942.196C1079.99 941.888 1080.27 941.351 1080.27 940.585V940.424C1080.27 938.438 1079.72 936.894 1078.63 935.793C1077.56 934.693 1075.93 934.142 1073.74 934.142C1071.47 934.142 1069.69 934.639 1068.41 935.632C1067.12 936.626 1066.21 937.686 1065.69 938.814L1061.18 937.203C1061.98 935.324 1063.06 933.86 1064.4 932.813C1065.75 931.753 1067.23 931.015 1068.83 930.599C1070.44 930.169 1072.02 929.954 1073.58 929.954C1074.57 929.954 1075.71 930.075 1077 930.317C1078.31 930.545 1079.56 931.021 1080.77 931.746C1081.99 932.471 1083 933.565 1083.81 935.028C1084.61 936.491 1085.02 938.451 1085.02 940.908V961.284H1080.27V957.096H1080.02C1079.7 957.767 1079.16 958.485 1078.41 959.251C1077.66 960.016 1076.66 960.667 1075.41 961.204C1074.16 961.741 1072.64 962.009 1070.84 962.009ZM1071.57 957.74C1073.45 957.74 1075.03 957.371 1076.32 956.633C1077.62 955.895 1078.6 954.942 1079.26 953.774C1079.93 952.606 1080.27 951.378 1080.27 950.089V945.74C1080.06 945.982 1079.62 946.203 1078.94 946.404C1078.27 946.592 1077.49 946.76 1076.6 946.908C1075.73 947.042 1074.88 947.163 1074.04 947.27C1073.22 947.364 1072.56 947.445 1072.05 947.512C1070.82 947.673 1069.66 947.935 1068.59 948.297C1067.53 948.646 1066.67 949.176 1066.01 949.888C1065.37 950.586 1065.04 951.539 1065.04 952.747C1065.04 954.398 1065.65 955.646 1066.88 956.492C1068.11 957.324 1069.67 957.74 1071.57 957.74ZM1098.44 942.679V961.284H1093.69V930.357H1098.28V935.189H1098.68C1099.41 933.619 1100.51 932.357 1101.99 931.404C1103.46 930.437 1105.37 929.954 1107.7 929.954C1109.8 929.954 1111.63 930.384 1113.2 931.243C1114.77 932.089 1115.99 933.377 1116.87 935.109C1117.74 936.827 1118.17 939.002 1118.17 941.632V961.284H1113.42V941.955C1113.42 939.525 1112.79 937.632 1111.53 936.277C1110.27 934.907 1108.54 934.223 1106.34 934.223C1104.82 934.223 1103.46 934.552 1102.27 935.209C1101.09 935.867 1100.15 936.827 1099.47 938.089C1098.78 939.351 1098.44 940.881 1098.44 942.679ZM1126.86 961.284V930.357H1131.61V961.284H1126.86ZM1129.27 925.202C1128.35 925.202 1127.55 924.887 1126.88 924.256C1126.22 923.625 1125.89 922.867 1125.89 921.981C1125.89 921.095 1126.22 920.336 1126.88 919.706C1127.55 919.075 1128.35 918.759 1129.27 918.759C1130.2 918.759 1130.99 919.075 1131.65 919.706C1132.32 920.336 1132.66 921.095 1132.66 921.981C1132.66 922.867 1132.32 923.625 1131.65 924.256C1130.99 924.887 1130.2 925.202 1129.27 925.202ZM1140.31 961.284V930.357H1144.9V935.189H1145.31C1145.95 933.538 1146.99 932.256 1148.43 931.344C1149.86 930.417 1151.59 929.954 1153.6 929.954C1155.64 929.954 1157.34 930.417 1158.7 931.344C1160.07 932.256 1161.13 933.538 1161.9 935.189H1162.22C1163.01 933.592 1164.2 932.323 1165.78 931.384C1167.37 930.431 1169.27 929.954 1171.48 929.954C1174.25 929.954 1176.51 930.82 1178.27 932.552C1180.03 934.27 1180.9 936.948 1180.9 940.585V961.284H1176.15V940.585C1176.15 938.303 1175.53 936.673 1174.28 935.693C1173.03 934.713 1171.56 934.223 1169.87 934.223C1167.7 934.223 1166.01 934.881 1164.82 936.196C1163.62 937.498 1163.02 939.149 1163.02 941.149V961.284H1158.19V940.102C1158.19 938.344 1157.62 936.928 1156.48 935.854C1155.34 934.766 1153.87 934.223 1152.07 934.223C1150.84 934.223 1149.68 934.552 1148.61 935.209C1147.55 935.867 1146.69 936.78 1146.03 937.948C1145.39 939.102 1145.06 940.438 1145.06 941.955V961.284H1140.31ZM1198.69 962.009C1196.73 962.009 1194.96 961.64 1193.36 960.902C1191.76 960.15 1190.49 959.069 1189.55 957.66C1188.61 956.237 1188.14 954.519 1188.14 952.505C1188.14 950.733 1188.49 949.297 1189.19 948.196C1189.89 947.082 1190.82 946.21 1191.99 945.579C1193.16 944.948 1194.45 944.478 1195.86 944.169C1197.28 943.847 1198.71 943.592 1200.14 943.404C1202.02 943.163 1203.55 942.982 1204.71 942.861C1205.9 942.726 1206.75 942.505 1207.29 942.196C1207.84 941.888 1208.12 941.351 1208.12 940.585V940.424C1208.12 938.438 1207.57 936.894 1206.49 935.793C1205.41 934.693 1203.78 934.142 1201.59 934.142C1199.32 934.142 1197.55 934.639 1196.26 935.632C1194.97 936.626 1194.06 937.686 1193.54 938.814L1189.03 937.203C1189.83 935.324 1190.91 933.86 1192.25 932.813C1193.61 931.753 1195.08 931.015 1196.68 930.599C1198.29 930.169 1199.88 929.954 1201.43 929.954C1202.43 929.954 1203.57 930.075 1204.86 930.317C1206.16 930.545 1207.41 931.021 1208.62 931.746C1209.84 932.471 1210.86 933.565 1211.66 935.028C1212.47 936.491 1212.87 938.451 1212.87 940.908V961.284H1208.12V957.096H1207.88C1207.55 957.767 1207.02 958.485 1206.26 959.251C1205.51 960.016 1204.51 960.667 1203.26 961.204C1202.02 961.741 1200.49 962.009 1198.69 962.009ZM1199.42 957.74C1201.3 957.74 1202.88 957.371 1204.17 956.633C1205.47 955.895 1206.45 954.942 1207.11 953.774C1207.78 952.606 1208.12 951.378 1208.12 950.089V945.74C1207.92 945.982 1207.47 946.203 1206.79 946.404C1206.12 946.592 1205.34 946.76 1204.45 946.908C1203.58 947.042 1202.73 947.163 1201.9 947.27C1201.08 947.364 1200.41 947.445 1199.9 947.512C1198.67 947.673 1197.51 947.935 1196.44 948.297C1195.38 948.646 1194.52 949.176 1193.86 949.888C1193.22 950.586 1192.9 951.539 1192.9 952.747C1192.9 954.398 1193.51 955.646 1194.73 956.492C1195.96 957.324 1197.53 957.74 1199.42 957.74ZM1234.99 930.357V934.384H1218.96V930.357H1234.99ZM1223.64 922.947H1228.39V952.425C1228.39 953.767 1228.58 954.774 1228.97 955.445C1229.37 956.103 1229.88 956.546 1230.5 956.774C1231.13 956.989 1231.8 957.096 1232.5 957.096C1233.02 957.096 1233.45 957.069 1233.78 957.016C1234.12 956.948 1234.39 956.895 1234.59 956.854L1235.56 961.123C1235.23 961.244 1234.78 961.365 1234.21 961.486C1233.63 961.62 1232.9 961.687 1232.01 961.687C1230.67 961.687 1229.35 961.398 1228.07 960.821C1226.79 960.244 1225.73 959.365 1224.88 958.183C1224.05 957.002 1223.64 955.512 1223.64 953.713V922.947ZM1254.77 961.928C1251.79 961.928 1249.22 961.271 1247.06 959.955C1244.92 958.626 1243.26 956.774 1242.09 954.398C1240.94 952.009 1240.36 949.23 1240.36 946.062C1240.36 942.894 1240.94 940.102 1242.09 937.686C1243.26 935.256 1244.88 933.364 1246.96 932.008C1249.06 930.639 1251.5 929.954 1254.29 929.954C1255.9 929.954 1257.49 930.223 1259.06 930.76C1260.63 931.297 1262.06 932.169 1263.35 933.377C1264.64 934.572 1265.67 936.156 1266.43 938.129C1267.2 940.102 1267.58 942.532 1267.58 945.418V947.431H1243.74V943.324H1262.75C1262.75 941.579 1262.4 940.022 1261.7 938.653C1261.02 937.283 1260.04 936.203 1258.76 935.411C1257.5 934.619 1256.01 934.223 1254.29 934.223C1252.4 934.223 1250.76 934.693 1249.38 935.632C1248.01 936.558 1246.96 937.767 1246.22 939.257C1245.48 940.747 1245.11 942.344 1245.11 944.049V946.787C1245.11 949.123 1245.51 951.103 1246.32 952.727C1247.14 954.338 1248.27 955.566 1249.72 956.412C1251.17 957.244 1252.86 957.66 1254.77 957.66C1256.02 957.66 1257.15 957.485 1258.16 957.136C1259.18 956.774 1260.06 956.237 1260.8 955.526C1261.53 954.801 1262.1 953.901 1262.51 952.828L1267.1 954.116C1266.61 955.673 1265.8 957.042 1264.66 958.224C1263.52 959.391 1262.11 960.304 1260.43 960.962C1258.75 961.606 1256.87 961.928 1254.77 961.928Z" fill="#668AFF"/>
<path d="M903.07 792.357V796.384H887.043V792.357H903.07ZM891.714 784.947H896.466V814.425C896.466 815.767 896.661 816.774 897.05 817.445C897.453 818.103 897.963 818.546 898.58 818.774C899.211 818.989 899.876 819.096 900.574 819.096C901.097 819.096 901.527 819.069 901.862 819.016C902.198 818.948 902.466 818.895 902.668 818.854L903.634 823.123C903.312 823.244 902.862 823.365 902.285 823.486C901.708 823.62 900.976 823.687 900.09 823.687C898.748 823.687 897.433 823.398 896.144 822.821C894.869 822.244 893.808 821.365 892.963 820.183C892.13 819.002 891.714 817.512 891.714 815.713V784.947ZM915.635 804.679V823.284H910.883V782.048H915.635V797.189H916.037C916.762 795.592 917.849 794.323 919.299 793.384C920.762 792.431 922.709 791.954 925.138 791.954C927.246 791.954 929.091 792.377 930.675 793.223C932.259 794.055 933.488 795.337 934.36 797.068C935.246 798.787 935.689 800.975 935.689 803.632V823.284H930.937V803.955C930.937 801.498 930.3 799.599 929.024 798.256C927.763 796.901 926.011 796.223 923.769 796.223C922.212 796.223 920.816 796.552 919.581 797.209C918.359 797.867 917.393 798.827 916.682 800.089C915.984 801.351 915.635 802.881 915.635 804.679ZM944.382 823.284V792.357H949.134V823.284H944.382ZM946.798 787.202C945.872 787.202 945.074 786.887 944.402 786.256C943.745 785.625 943.416 784.867 943.416 783.981C943.416 783.095 943.745 782.336 944.402 781.706C945.074 781.075 945.872 780.759 946.798 780.759C947.725 780.759 948.517 781.075 949.174 781.706C949.846 782.336 950.181 783.095 950.181 783.981C950.181 784.867 949.846 785.625 949.174 786.256C948.517 786.887 947.725 787.202 946.798 787.202ZM979.744 799.283L975.476 800.491C975.207 799.78 974.811 799.089 974.288 798.418C973.778 797.733 973.08 797.169 972.194 796.726C971.308 796.283 970.173 796.062 968.791 796.062C966.898 796.062 965.321 796.498 964.059 797.371C962.811 798.23 962.187 799.324 962.187 800.653C962.187 801.834 962.616 802.767 963.475 803.451C964.334 804.136 965.677 804.706 967.502 805.163L972.093 806.29C974.858 806.961 976.919 807.988 978.274 809.371C979.63 810.74 980.308 812.505 980.308 814.666C980.308 816.438 979.798 818.022 978.778 819.418C977.771 820.814 976.362 821.915 974.549 822.72C972.737 823.526 970.63 823.928 968.227 823.928C965.073 823.928 962.462 823.244 960.395 821.875C958.327 820.506 957.019 818.505 956.468 815.875L960.978 814.747C961.408 816.411 962.22 817.66 963.415 818.492C964.623 819.324 966.2 819.74 968.147 819.74C970.361 819.74 972.12 819.271 973.422 818.331C974.737 817.378 975.395 816.237 975.395 814.908C975.395 813.834 975.019 812.935 974.268 812.21C973.516 811.472 972.361 810.921 970.804 810.559L965.65 809.351C962.817 808.68 960.737 807.639 959.408 806.23C958.092 804.807 957.435 803.028 957.435 800.894C957.435 799.149 957.925 797.605 958.905 796.263C959.898 794.921 961.247 793.867 962.952 793.102C964.67 792.337 966.616 791.954 968.791 791.954C971.851 791.954 974.254 792.625 975.999 793.968C977.758 795.31 979.006 797.082 979.744 799.283ZM1016.86 792.357V796.384H1000.83V792.357H1016.86ZM1005.5 784.947H1010.25V814.425C1010.25 815.767 1010.45 816.774 1010.84 817.445C1011.24 818.103 1011.75 818.546 1012.37 818.774C1013 818.989 1013.66 819.096 1014.36 819.096C1014.88 819.096 1015.31 819.069 1015.65 819.016C1015.99 818.948 1016.25 818.895 1016.46 818.854L1017.42 823.123C1017.1 823.244 1016.65 823.365 1016.07 823.486C1015.5 823.62 1014.76 823.687 1013.88 823.687C1012.54 823.687 1011.22 823.398 1009.93 822.821C1008.66 822.244 1007.6 821.365 1006.75 820.183C1005.92 819.002 1005.5 817.512 1005.5 815.713V784.947ZM1036.24 823.928C1033.45 823.928 1031 823.264 1028.89 821.935C1026.79 820.606 1025.16 818.747 1023.98 816.358C1022.81 813.968 1022.22 811.176 1022.22 807.982C1022.22 804.76 1022.81 801.948 1023.98 799.545C1025.16 797.142 1026.79 795.276 1028.89 793.948C1031 792.619 1033.45 791.954 1036.24 791.954C1039.03 791.954 1041.47 792.619 1043.57 793.948C1045.67 795.276 1047.31 797.142 1048.48 799.545C1049.66 801.948 1050.25 804.76 1050.25 807.982C1050.25 811.176 1049.66 813.968 1048.48 816.358C1047.31 818.747 1045.67 820.606 1043.57 821.935C1041.47 823.264 1039.03 823.928 1036.24 823.928ZM1036.24 819.66C1038.36 819.66 1040.1 819.116 1041.47 818.029C1042.84 816.942 1043.86 815.512 1044.51 813.74C1045.17 811.968 1045.5 810.049 1045.5 807.982C1045.5 805.914 1045.17 803.988 1044.51 802.203C1043.86 800.418 1042.84 798.975 1041.47 797.874C1040.1 796.773 1038.36 796.223 1036.24 796.223C1034.12 796.223 1032.37 796.773 1031 797.874C1029.63 798.975 1028.62 800.418 1027.96 802.203C1027.3 803.988 1026.98 805.914 1026.98 807.982C1026.98 810.049 1027.3 811.968 1027.96 813.74C1028.62 815.512 1029.63 816.942 1031 818.029C1032.37 819.116 1034.12 819.66 1036.24 819.66ZM1085.94 835.526C1083.64 835.526 1081.67 835.231 1080.02 834.64C1078.37 834.063 1076.99 833.298 1075.89 832.345C1074.8 831.405 1073.94 830.399 1073.29 829.325L1077.08 826.667C1077.51 827.231 1078.05 827.875 1078.71 828.6C1079.37 829.338 1080.26 829.976 1081.41 830.513C1082.56 831.063 1084.07 831.338 1085.94 831.338C1088.43 831.338 1090.49 830.734 1092.12 829.526C1093.74 828.318 1094.55 826.425 1094.55 823.848V817.566H1094.15C1093.8 818.13 1093.31 818.828 1092.66 819.66C1092.03 820.479 1091.12 821.21 1089.92 821.855C1088.74 822.485 1087.14 822.801 1085.13 822.801C1082.63 822.801 1080.39 822.21 1078.41 821.029C1076.43 819.848 1074.87 818.13 1073.71 815.875C1072.57 813.619 1072 810.881 1072 807.659C1072 804.492 1072.56 801.733 1073.67 799.384C1074.79 797.022 1076.34 795.196 1078.32 793.907C1080.31 792.605 1082.61 791.954 1085.21 791.954C1087.22 791.954 1088.82 792.29 1090 792.961C1091.2 793.619 1092.11 794.37 1092.74 795.216C1093.39 796.048 1093.88 796.733 1094.23 797.27H1094.71V792.357H1099.31V824.17C1099.31 826.828 1098.7 828.989 1097.49 830.654C1096.3 832.331 1094.69 833.56 1092.66 834.338C1090.65 835.13 1088.41 835.526 1085.94 835.526ZM1085.77 818.532C1087.68 818.532 1089.29 818.096 1090.61 817.224C1091.92 816.351 1092.92 815.096 1093.61 813.458C1094.29 811.821 1094.63 809.861 1094.63 807.579C1094.63 805.351 1094.3 803.384 1093.63 801.679C1092.96 799.975 1091.96 798.639 1090.65 797.673C1089.33 796.706 1087.71 796.223 1085.77 796.223C1083.76 796.223 1082.08 796.733 1080.74 797.753C1079.41 798.773 1078.41 800.142 1077.74 801.861C1077.08 803.579 1076.75 805.485 1076.75 807.579C1076.75 809.727 1077.09 811.626 1077.76 813.277C1078.45 814.915 1079.45 816.203 1080.78 817.143C1082.12 818.069 1083.79 818.532 1085.77 818.532ZM1120.57 823.928C1117.78 823.928 1115.33 823.264 1113.22 821.935C1111.12 820.606 1109.49 818.747 1108.31 816.358C1107.14 813.968 1106.55 811.176 1106.55 807.982C1106.55 804.76 1107.14 801.948 1108.31 799.545C1109.49 797.142 1111.12 795.276 1113.22 793.948C1115.33 792.619 1117.78 791.954 1120.57 791.954C1123.36 791.954 1125.8 792.619 1127.9 793.948C1130 795.276 1131.64 797.142 1132.81 799.545C1133.99 801.948 1134.58 804.76 1134.58 807.982C1134.58 811.176 1133.99 813.968 1132.81 816.358C1131.64 818.747 1130 820.606 1127.9 821.935C1125.8 823.264 1123.36 823.928 1120.57 823.928ZM1120.57 819.66C1122.69 819.66 1124.43 819.116 1125.8 818.029C1127.17 816.942 1128.19 815.512 1128.84 813.74C1129.5 811.968 1129.83 810.049 1129.83 807.982C1129.83 805.914 1129.5 803.988 1128.84 802.203C1128.19 800.418 1127.17 798.975 1125.8 797.874C1124.43 796.773 1122.69 796.223 1120.57 796.223C1118.45 796.223 1116.7 796.773 1115.33 797.874C1113.96 798.975 1112.95 800.418 1112.29 802.203C1111.63 803.988 1111.31 805.914 1111.31 807.982C1111.31 810.049 1111.63 811.968 1112.29 813.74C1112.95 815.512 1113.96 816.942 1115.33 818.029C1116.7 819.116 1118.45 819.66 1120.57 819.66ZM1162.53 782.048V823.284H1157.78V782.048H1162.53ZM1184.2 823.928C1181.22 823.928 1178.65 823.271 1176.49 821.955C1174.35 820.626 1172.69 818.774 1171.52 816.398C1170.37 814.009 1169.79 811.23 1169.79 808.062C1169.79 804.894 1170.37 802.102 1171.52 799.686C1172.69 797.256 1174.31 795.364 1176.39 794.008C1178.49 792.639 1180.93 791.954 1183.72 791.954C1185.33 791.954 1186.92 792.223 1188.49 792.76C1190.06 793.297 1191.49 794.169 1192.78 795.377C1194.07 796.572 1195.1 798.156 1195.86 800.129C1196.63 802.102 1197.01 804.532 1197.01 807.418V809.431H1173.17V805.324H1192.18C1192.18 803.579 1191.83 802.022 1191.13 800.653C1190.45 799.283 1189.47 798.203 1188.19 797.411C1186.93 796.619 1185.44 796.223 1183.72 796.223C1181.83 796.223 1180.19 796.693 1178.81 797.632C1177.44 798.558 1176.39 799.767 1175.65 801.257C1174.91 802.747 1174.54 804.344 1174.54 806.049V808.787C1174.54 811.123 1174.94 813.103 1175.75 814.727C1176.57 816.338 1177.7 817.566 1179.15 818.412C1180.6 819.244 1182.28 819.66 1184.2 819.66C1185.45 819.66 1186.58 819.485 1187.59 819.136C1188.61 818.774 1189.49 818.237 1190.22 817.526C1190.96 816.801 1191.53 815.901 1191.94 814.828L1196.53 816.116C1196.04 817.673 1195.23 819.042 1194.09 820.224C1192.95 821.391 1191.54 822.304 1189.86 822.962C1188.18 823.606 1186.3 823.928 1184.2 823.928ZM1218.01 792.357V796.384H1201.34V792.357H1218.01ZM1206.33 823.284V788.088C1206.33 786.316 1206.75 784.84 1207.58 783.659C1208.41 782.477 1209.49 781.591 1210.82 781.001C1212.15 780.41 1213.55 780.115 1215.03 780.115C1216.2 780.115 1217.15 780.209 1217.89 780.397C1218.63 780.585 1219.18 780.759 1219.54 780.92L1218.17 785.028C1217.93 784.947 1217.59 784.847 1217.17 784.726C1216.75 784.605 1216.2 784.545 1215.51 784.545C1213.94 784.545 1212.81 784.941 1212.11 785.733C1211.43 786.524 1211.08 787.686 1211.08 789.216V823.284H1206.33ZM1238.12 792.357V796.384H1222.09V792.357H1238.12ZM1226.76 784.947H1231.52V814.425C1231.52 815.767 1231.71 816.774 1232.1 817.445C1232.5 818.103 1233.01 818.546 1233.63 818.774C1234.26 818.989 1234.93 819.096 1235.62 819.096C1236.15 819.096 1236.58 819.069 1236.91 819.016C1237.25 818.948 1237.52 818.895 1237.72 818.854L1238.68 823.123C1238.36 823.244 1237.91 823.365 1237.34 823.486C1236.76 823.62 1236.03 823.687 1235.14 823.687C1233.8 823.687 1232.48 823.398 1231.19 822.821C1229.92 822.244 1228.86 821.365 1228.01 820.183C1227.18 819.002 1226.76 817.512 1226.76 815.713V784.947ZM1270.32 824.009C1268.36 824.009 1266.58 823.64 1264.98 822.902C1263.38 822.15 1262.11 821.069 1261.18 819.66C1260.24 818.237 1259.77 816.519 1259.77 814.505C1259.77 812.733 1260.11 811.297 1260.81 810.196C1261.51 809.082 1262.44 808.21 1263.61 807.579C1264.78 806.948 1266.07 806.478 1267.48 806.169C1268.9 805.847 1270.33 805.592 1271.77 805.404C1273.65 805.163 1275.17 804.982 1276.34 804.861C1277.52 804.726 1278.38 804.505 1278.91 804.196C1279.46 803.888 1279.74 803.351 1279.74 802.585V802.424C1279.74 800.438 1279.2 798.894 1278.11 797.793C1277.03 796.693 1275.4 796.142 1273.22 796.142C1270.95 796.142 1269.17 796.639 1267.88 797.632C1266.59 798.626 1265.69 799.686 1265.16 800.814L1260.65 799.203C1261.46 797.324 1262.53 795.86 1263.87 794.813C1265.23 793.753 1266.71 793.015 1268.3 792.599C1269.91 792.169 1271.5 791.954 1273.05 791.954C1274.05 791.954 1275.19 792.075 1276.48 792.317C1277.78 792.545 1279.04 793.021 1280.24 793.746C1281.46 794.471 1282.48 795.565 1283.28 797.028C1284.09 798.491 1284.49 800.451 1284.49 802.908V823.284H1279.74V819.096H1279.5C1279.18 819.767 1278.64 820.485 1277.89 821.251C1277.14 822.016 1276.14 822.667 1274.89 823.204C1273.64 823.741 1272.12 824.009 1270.32 824.009ZM1271.04 819.74C1272.92 819.74 1274.5 819.371 1275.79 818.633C1277.1 817.895 1278.08 816.942 1278.73 815.774C1279.4 814.606 1279.74 813.378 1279.74 812.089V807.74C1279.54 807.982 1279.1 808.203 1278.41 808.404C1277.74 808.592 1276.96 808.76 1276.08 808.908C1275.2 809.042 1274.35 809.163 1273.52 809.27C1272.7 809.364 1272.03 809.445 1271.52 809.512C1270.29 809.673 1269.14 809.935 1268.06 810.297C1267 810.646 1266.14 811.176 1265.48 811.888C1264.84 812.586 1264.52 813.539 1264.52 814.747C1264.52 816.398 1265.13 817.646 1266.35 818.492C1267.58 819.324 1269.15 819.74 1271.04 819.74ZM1297.92 804.679V823.284H1293.16V792.357H1297.76V797.189H1298.16C1298.88 795.619 1299.98 794.357 1301.46 793.404C1302.94 792.437 1304.84 791.954 1307.18 791.954C1309.27 791.954 1311.1 792.384 1312.68 793.243C1314.25 794.089 1315.47 795.377 1316.34 797.109C1317.21 798.827 1317.65 801.002 1317.65 803.632V823.284H1312.9V803.955C1312.9 801.525 1312.27 799.632 1311 798.277C1309.74 796.907 1308.01 796.223 1305.81 796.223C1304.29 796.223 1302.94 796.552 1301.74 797.209C1300.56 797.867 1299.63 798.827 1298.94 800.089C1298.26 801.351 1297.92 802.881 1297.92 804.679ZM1338.01 823.928C1335.43 823.928 1333.16 823.277 1331.18 821.975C1329.21 820.66 1327.67 818.808 1326.55 816.418C1325.44 814.015 1324.88 811.176 1324.88 807.901C1324.88 804.653 1325.44 801.834 1326.55 799.444C1327.67 797.055 1329.22 795.209 1331.2 793.907C1333.19 792.605 1335.49 791.954 1338.09 791.954C1340.1 791.954 1341.7 792.29 1342.86 792.961C1344.04 793.619 1344.94 794.37 1345.56 795.216C1346.19 796.048 1346.68 796.733 1347.03 797.27H1347.43V782.048H1352.19V823.284H1347.59V818.532H1347.03C1346.68 819.096 1346.19 819.808 1345.54 820.667C1344.9 821.512 1343.98 822.271 1342.78 822.942C1341.59 823.6 1340 823.928 1338.01 823.928ZM1338.65 819.66C1340.56 819.66 1342.17 819.163 1343.49 818.17C1344.8 817.163 1345.8 815.774 1346.49 814.002C1347.17 812.217 1347.51 810.156 1347.51 807.821C1347.51 805.512 1347.18 803.492 1346.51 801.76C1345.84 800.015 1344.84 798.659 1343.53 797.693C1342.21 796.713 1340.59 796.223 1338.65 796.223C1336.64 796.223 1334.96 796.74 1333.62 797.773C1332.29 798.793 1331.29 800.183 1330.62 801.941C1329.96 803.686 1329.63 805.646 1329.63 807.821C1329.63 810.022 1329.97 812.022 1330.64 813.821C1331.33 815.606 1332.33 817.029 1333.66 818.089C1335 819.136 1336.67 819.66 1338.65 819.66ZM1377.49 823.284V792.357H1382.09V797.028H1382.41C1382.97 795.498 1383.99 794.256 1385.47 793.303C1386.94 792.35 1388.61 791.874 1390.46 791.874C1390.81 791.874 1391.25 791.88 1391.77 791.894C1392.29 791.907 1392.69 791.927 1392.96 791.954V796.787C1392.8 796.746 1392.43 796.686 1391.85 796.605C1391.29 796.511 1390.69 796.464 1390.06 796.464C1388.56 796.464 1387.21 796.78 1386.03 797.411C1384.86 798.028 1383.94 798.887 1383.25 799.988C1382.58 801.075 1382.25 802.317 1382.25 803.713V823.284H1377.49ZM1398.59 823.284V792.357H1403.34V823.284H1398.59ZM1401.01 787.202C1400.08 787.202 1399.28 786.887 1398.61 786.256C1397.95 785.625 1397.62 784.867 1397.62 783.981C1397.62 783.095 1397.95 782.336 1398.61 781.706C1399.28 781.075 1400.08 780.759 1401.01 780.759C1401.93 780.759 1402.73 781.075 1403.38 781.706C1404.05 782.336 1404.39 783.095 1404.39 783.981C1404.39 784.867 1404.05 785.625 1403.38 786.256C1402.73 786.887 1401.93 787.202 1401.01 787.202ZM1424.53 835.526C1422.23 835.526 1420.26 835.231 1418.61 834.64C1416.96 834.063 1415.58 833.298 1414.48 832.345C1413.4 831.405 1412.53 830.399 1411.89 829.325L1415.67 826.667C1416.1 827.231 1416.64 827.875 1417.3 828.6C1417.96 829.338 1418.86 829.976 1420 830.513C1421.15 831.063 1422.66 831.338 1424.53 831.338C1427.03 831.338 1429.09 830.734 1430.71 829.526C1432.34 828.318 1433.15 826.425 1433.15 823.848V817.566H1432.75C1432.4 818.13 1431.9 818.828 1431.26 819.66C1430.62 820.479 1429.71 821.21 1428.52 821.855C1427.34 822.485 1425.74 822.801 1423.72 822.801C1421.23 822.801 1418.99 822.21 1417 821.029C1415.03 819.848 1413.46 818.13 1412.31 815.875C1411.17 813.619 1410.6 810.881 1410.6 807.659C1410.6 804.492 1411.15 801.733 1412.27 799.384C1413.38 797.022 1414.93 795.196 1416.92 793.907C1418.91 792.605 1421.2 791.954 1423.81 791.954C1425.82 791.954 1427.42 792.29 1428.6 792.961C1429.79 793.619 1430.7 794.37 1431.34 795.216C1431.98 796.048 1432.48 796.733 1432.83 797.27H1433.31V792.357H1437.9V824.17C1437.9 826.828 1437.3 828.989 1436.09 830.654C1434.89 832.331 1433.28 833.56 1431.26 834.338C1429.24 835.13 1427 835.526 1424.53 835.526ZM1424.37 818.532C1426.28 818.532 1427.89 818.096 1429.2 817.224C1430.52 816.351 1431.52 815.096 1432.2 813.458C1432.89 811.821 1433.23 809.861 1433.23 807.579C1433.23 805.351 1432.89 803.384 1432.22 801.679C1431.55 799.975 1430.56 798.639 1429.24 797.673C1427.93 796.706 1426.3 796.223 1424.37 796.223C1422.36 796.223 1420.68 796.733 1419.34 797.753C1418.01 798.773 1417.01 800.142 1416.34 801.861C1415.68 803.579 1415.35 805.485 1415.35 807.579C1415.35 809.727 1415.68 811.626 1416.36 813.277C1417.04 814.915 1418.05 816.203 1419.38 817.143C1420.72 818.069 1422.38 818.532 1424.37 818.532ZM1451.35 804.679V823.284H1446.6V782.048H1451.35V797.189H1451.75C1452.48 795.592 1453.56 794.323 1455.01 793.384C1456.48 792.431 1458.42 791.954 1460.85 791.954C1462.96 791.954 1464.81 792.377 1466.39 793.223C1467.97 794.055 1469.2 795.337 1470.08 797.068C1470.96 798.787 1471.4 800.975 1471.4 803.632V823.284H1466.65V803.955C1466.65 801.498 1466.01 799.599 1464.74 798.256C1463.48 796.901 1461.73 796.223 1459.48 796.223C1457.93 796.223 1456.53 796.552 1455.3 797.209C1454.07 797.867 1453.11 798.827 1452.4 800.089C1451.7 801.351 1451.35 802.881 1451.35 804.679ZM1493.55 792.357V796.384H1477.52V792.357H1493.55ZM1482.19 784.947H1486.94V814.425C1486.94 815.767 1487.14 816.774 1487.53 817.445C1487.93 818.103 1488.44 818.546 1489.06 818.774C1489.69 818.989 1490.35 819.096 1491.05 819.096C1491.57 819.096 1492 819.069 1492.34 819.016C1492.68 818.948 1492.94 818.895 1493.14 818.854L1494.11 823.123C1493.79 823.244 1493.34 823.365 1492.76 823.486C1492.19 823.62 1491.45 823.687 1490.57 823.687C1489.23 823.687 1487.91 823.398 1486.62 822.821C1485.35 822.244 1484.29 821.365 1483.44 820.183C1482.61 819.002 1482.19 817.512 1482.19 815.713V784.947ZM1504.16 823.606C1503.17 823.606 1502.31 823.251 1501.6 822.539C1500.89 821.828 1500.53 820.975 1500.53 819.982C1500.53 818.989 1500.89 818.136 1501.6 817.425C1502.31 816.713 1503.17 816.358 1504.16 816.358C1505.15 816.358 1506 816.713 1506.72 817.425C1507.43 818.136 1507.78 818.989 1507.78 819.982C1507.78 820.64 1507.62 821.244 1507.28 821.794C1506.96 822.345 1506.52 822.788 1505.97 823.123C1505.43 823.445 1504.83 823.606 1504.16 823.606ZM54.9237 924.478V920.048H85.8509V924.478H72.884V961.284H67.8906V924.478H54.9237ZM97.6651 942.679V961.284H92.9133V920.048H97.6651V935.189H98.0678C98.7927 933.592 99.8799 932.323 101.33 931.384C102.793 930.431 104.739 929.954 107.169 929.954C109.276 929.954 111.122 930.377 112.706 931.223C114.29 932.055 115.518 933.337 116.391 935.068C117.277 936.787 117.72 938.975 117.72 941.632V961.284H112.968V941.955C112.968 939.498 112.33 937.599 111.055 936.256C109.793 934.901 108.041 934.223 105.8 934.223C104.243 934.223 102.846 934.552 101.612 935.209C100.39 935.867 99.4236 936.827 98.7121 938.089C98.0141 939.351 97.6651 940.881 97.6651 942.679ZM139.38 961.928C136.4 961.928 133.829 961.271 131.668 959.955C129.52 958.626 127.862 956.774 126.695 954.398C125.54 952.009 124.963 949.23 124.963 946.062C124.963 942.894 125.54 940.102 126.695 937.686C127.862 935.256 129.487 933.364 131.567 932.008C133.661 930.639 136.104 929.954 138.896 929.954C140.507 929.954 142.098 930.223 143.668 930.76C145.239 931.297 146.669 932.169 147.957 933.377C149.246 934.572 150.273 936.156 151.038 938.129C151.803 940.102 152.185 942.532 152.185 945.418V947.431H128.346V943.324H147.353C147.353 941.579 147.004 940.022 146.306 938.653C145.622 937.283 144.642 936.203 143.366 935.411C142.105 934.619 140.615 934.223 138.896 934.223C137.004 934.223 135.366 934.693 133.984 935.632C132.614 936.558 131.561 937.767 130.822 939.257C130.084 940.747 129.715 942.344 129.715 944.049V946.787C129.715 949.123 130.118 951.103 130.923 952.727C131.742 954.338 132.876 955.566 134.326 956.412C135.776 957.244 137.46 957.66 139.38 957.66C140.628 957.66 141.756 957.485 142.762 957.136C143.783 956.774 144.662 956.237 145.4 955.526C146.138 954.801 146.709 953.901 147.111 952.828L151.702 954.116C151.219 955.673 150.407 957.042 149.266 958.224C148.125 959.391 146.716 960.304 145.038 960.962C143.36 961.606 141.474 961.928 139.38 961.928ZM164.166 942.679V961.284H159.414V930.357H164.005V935.189H164.407C165.132 933.619 166.233 932.357 167.71 931.404C169.186 930.437 171.092 929.954 173.428 929.954C175.522 929.954 177.354 930.384 178.925 931.243C180.495 932.089 181.717 933.377 182.589 935.109C183.462 936.827 183.898 939.002 183.898 941.632V961.284H179.146V941.955C179.146 939.525 178.515 937.632 177.253 936.277C175.992 934.907 174.26 934.223 172.059 934.223C170.542 934.223 169.186 934.552 167.991 935.209C166.81 935.867 165.877 936.827 165.193 938.089C164.508 939.351 164.166 940.881 164.166 942.679ZM221.012 973.526C218.716 973.526 216.743 973.231 215.092 972.64C213.441 972.063 212.065 971.298 210.964 970.345C209.877 969.405 209.011 968.399 208.367 967.325L212.152 964.667C212.582 965.231 213.126 965.875 213.783 966.6C214.441 967.338 215.34 967.976 216.481 968.513C217.636 969.063 219.146 969.338 221.012 969.338C223.509 969.338 225.569 968.734 227.193 967.526C228.817 966.318 229.63 964.425 229.63 961.848V955.566H229.227C228.878 956.13 228.381 956.828 227.737 957.66C227.106 958.479 226.193 959.21 224.998 959.855C223.817 960.485 222.22 960.801 220.206 960.801C217.71 960.801 215.468 960.21 213.481 959.029C211.508 957.848 209.944 956.13 208.79 953.875C207.649 951.619 207.078 948.881 207.078 945.659C207.078 942.492 207.635 939.733 208.75 937.384C209.864 935.022 211.414 933.196 213.401 931.907C215.387 930.605 217.683 929.954 220.287 929.954C222.3 929.954 223.898 930.29 225.079 930.961C226.274 931.619 227.186 932.37 227.817 933.216C228.462 934.048 228.958 934.733 229.307 935.27H229.791V930.357H234.381V962.17C234.381 964.828 233.777 966.989 232.569 968.654C231.375 970.331 229.764 971.56 227.737 972.338C225.723 973.13 223.482 973.526 221.012 973.526ZM220.851 956.532C222.757 956.532 224.368 956.096 225.683 955.224C226.999 954.351 227.999 953.096 228.683 951.458C229.368 949.821 229.71 947.861 229.71 945.579C229.71 943.351 229.374 941.384 228.703 939.679C228.032 937.975 227.039 936.639 225.723 935.673C224.408 934.706 222.784 934.223 220.851 934.223C218.837 934.223 217.159 934.733 215.817 935.753C214.488 936.773 213.488 938.142 212.817 939.861C212.159 941.579 211.83 943.485 211.83 945.579C211.83 947.727 212.166 949.626 212.837 951.277C213.522 952.915 214.528 954.203 215.857 955.143C217.2 956.069 218.864 956.532 220.851 956.532ZM243.08 961.284V930.357H247.67V935.028H247.993C248.556 933.498 249.577 932.256 251.053 931.303C252.53 930.35 254.194 929.874 256.047 929.874C256.396 929.874 256.832 929.88 257.355 929.894C257.879 929.907 258.275 929.927 258.543 929.954V934.787C258.382 934.746 258.013 934.686 257.436 934.605C256.872 934.511 256.275 934.464 255.644 934.464C254.14 934.464 252.798 934.78 251.617 935.411C250.449 936.028 249.523 936.887 248.838 937.988C248.167 939.075 247.832 940.317 247.832 941.713V961.284H243.08ZM275.799 961.928C273.007 961.928 270.557 961.264 268.45 959.935C266.356 958.606 264.718 956.747 263.537 954.358C262.369 951.968 261.785 949.176 261.785 945.982C261.785 942.76 262.369 939.948 263.537 937.545C264.718 935.142 266.356 933.276 268.45 931.948C270.557 930.619 273.007 929.954 275.799 929.954C278.591 929.954 281.034 930.619 283.128 931.948C285.236 933.276 286.873 935.142 288.041 937.545C289.222 939.948 289.813 942.76 289.813 945.982C289.813 949.176 289.222 951.968 288.041 954.358C286.873 956.747 285.236 958.606 283.128 959.935C281.034 961.264 278.591 961.928 275.799 961.928ZM275.799 957.66C277.92 957.66 279.665 957.116 281.034 956.029C282.403 954.942 283.417 953.512 284.074 951.74C284.732 949.968 285.061 948.049 285.061 945.982C285.061 943.914 284.732 941.988 284.074 940.203C283.417 938.418 282.403 936.975 281.034 935.874C279.665 934.773 277.92 934.223 275.799 934.223C273.678 934.223 271.933 934.773 270.564 935.874C269.195 936.975 268.181 938.418 267.523 940.203C266.866 941.988 266.537 943.914 266.537 945.982C266.537 948.049 266.866 949.968 267.523 951.74C268.181 953.512 269.195 954.942 270.564 956.029C271.933 957.116 273.678 957.66 275.799 957.66ZM316.557 948.639V930.357H321.309V961.284H316.557V956.049H316.235C315.51 957.62 314.383 958.955 312.852 960.056C311.322 961.143 309.389 961.687 307.053 961.687C305.12 961.687 303.402 961.264 301.899 960.418C300.395 959.559 299.214 958.271 298.355 956.552C297.496 954.821 297.066 952.64 297.066 950.009V930.357H301.818V949.686C301.818 951.942 302.449 953.74 303.711 955.083C304.986 956.425 306.61 957.096 308.584 957.096C309.765 957.096 310.966 956.794 312.188 956.19C313.423 955.586 314.456 954.66 315.289 953.411C316.134 952.163 316.557 950.572 316.557 948.639ZM330.012 972.882V930.357H334.603V935.27H335.167C335.516 934.733 335.999 934.048 336.617 933.216C337.247 932.37 338.147 931.619 339.315 930.961C340.496 930.29 342.093 929.954 344.107 929.954C346.711 929.954 349.006 930.605 350.993 931.907C352.98 933.209 354.53 935.055 355.644 937.444C356.758 939.834 357.315 942.653 357.315 945.901C357.315 949.176 356.758 952.015 355.644 954.418C354.53 956.808 352.986 958.66 351.013 959.975C349.04 961.277 346.765 961.928 344.187 961.928C342.201 961.928 340.61 961.6 339.415 960.942C338.221 960.271 337.301 959.512 336.657 958.667C336.012 957.808 335.516 957.096 335.167 956.532H334.764V972.882H330.012ZM334.684 945.821C334.684 948.156 335.026 950.217 335.71 952.002C336.395 953.774 337.395 955.163 338.711 956.17C340.026 957.163 341.637 957.66 343.543 957.66C345.53 957.66 347.187 957.136 348.516 956.089C349.859 955.029 350.865 953.606 351.537 951.821C352.221 950.022 352.563 948.022 352.563 945.821C352.563 943.646 352.228 941.686 351.557 939.941C350.899 938.183 349.899 936.793 348.557 935.773C347.228 934.74 345.556 934.223 343.543 934.223C341.61 934.223 339.986 934.713 338.67 935.693C337.355 936.659 336.361 938.015 335.69 939.76C335.019 941.492 334.684 943.512 334.684 945.821ZM380.511 961.284V930.357H385.263V961.284H380.511ZM382.927 925.202C382.001 925.202 381.202 924.887 380.531 924.256C379.873 923.625 379.544 922.867 379.544 921.981C379.544 921.095 379.873 920.336 380.531 919.706C381.202 919.075 382.001 918.759 382.927 918.759C383.853 918.759 384.645 919.075 385.303 919.706C385.974 920.336 386.31 921.095 386.31 921.981C386.31 922.867 385.974 923.625 385.303 924.256C384.645 924.887 383.853 925.202 382.927 925.202ZM407.416 930.357V934.384H391.389V930.357H407.416ZM396.06 922.947H400.812V952.425C400.812 953.767 401.006 954.774 401.396 955.445C401.798 956.103 402.308 956.546 402.926 956.774C403.557 956.989 404.221 957.096 404.919 957.096C405.443 957.096 405.872 957.069 406.208 957.016C406.544 956.948 406.812 956.895 407.013 956.854L407.98 961.123C407.658 961.244 407.208 961.365 406.631 961.486C406.054 961.62 405.322 961.687 404.436 961.687C403.094 961.687 401.778 961.398 400.49 960.821C399.214 960.244 398.154 959.365 397.308 958.183C396.476 957.002 396.06 955.512 396.06 953.713V922.947ZM437.518 961.284L428.095 930.357H433.088L439.773 954.036H440.095L446.699 930.357H451.773L458.297 953.955H458.619L465.304 930.357H470.297L460.874 961.284H456.203L449.438 937.525H448.954L442.189 961.284H437.518ZM476.58 961.284V930.357H481.331V961.284H476.58ZM478.996 925.202C478.07 925.202 477.271 924.887 476.6 924.256C475.942 923.625 475.613 922.867 475.613 921.981C475.613 921.095 475.942 920.336 476.6 919.706C477.271 919.075 478.07 918.759 478.996 918.759C479.922 918.759 480.714 919.075 481.372 919.706C482.043 920.336 482.378 921.095 482.378 921.981C482.378 922.867 482.043 923.625 481.372 924.256C480.714 924.887 479.922 925.202 478.996 925.202ZM503.485 930.357V934.384H487.457V930.357H503.485ZM492.129 922.947H496.881V952.425C496.881 953.767 497.075 954.774 497.465 955.445C497.867 956.103 498.377 956.546 498.995 956.774C499.626 956.989 500.29 957.096 500.988 957.096C501.512 957.096 501.941 957.069 502.277 957.016C502.612 956.948 502.881 956.895 503.082 956.854L504.049 961.123C503.726 961.244 503.277 961.365 502.7 961.486C502.122 961.62 501.391 961.687 500.505 961.687C499.163 961.687 497.847 961.398 496.558 960.821C495.283 960.244 494.223 959.365 493.377 958.183C492.545 957.002 492.129 955.512 492.129 953.713V922.947ZM516.049 942.679V961.284H511.297V920.048H516.049V935.189H516.452C517.177 933.592 518.264 932.323 519.714 931.384C521.177 930.431 523.123 929.954 525.553 929.954C527.66 929.954 529.506 930.377 531.09 931.223C532.674 932.055 533.902 933.337 534.775 935.068C535.661 936.787 536.103 938.975 536.103 941.632V961.284H531.352V941.955C531.352 939.498 530.714 937.599 529.439 936.256C528.177 934.901 526.425 934.223 524.184 934.223C522.626 934.223 521.23 934.552 519.996 935.209C518.774 935.867 517.808 936.827 517.096 938.089C516.398 939.351 516.049 940.881 516.049 942.679ZM569.845 962.009C567.885 962.009 566.106 961.64 564.509 960.902C562.911 960.15 561.643 959.069 560.703 957.66C559.764 956.237 559.294 954.519 559.294 952.505C559.294 950.733 559.643 949.297 560.341 948.196C561.039 947.082 561.972 946.21 563.14 945.579C564.308 944.948 565.596 944.478 567.006 944.169C568.428 943.847 569.858 943.592 571.294 943.404C573.174 943.163 574.697 942.982 575.865 942.861C577.046 942.726 577.905 942.505 578.442 942.196C578.993 941.888 579.268 941.351 579.268 940.585V940.424C579.268 938.438 578.724 936.894 577.637 935.793C576.563 934.693 574.932 934.142 572.744 934.142C570.476 934.142 568.697 934.639 567.408 935.632C566.12 936.626 565.214 937.686 564.69 938.814L560.18 937.203C560.985 935.324 562.059 933.86 563.401 932.813C564.757 931.753 566.234 931.015 567.831 930.599C569.442 930.169 571.026 929.954 572.583 929.954C573.576 929.954 574.717 930.075 576.006 930.317C577.308 930.545 578.563 931.021 579.771 931.746C580.993 932.471 582.006 933.565 582.812 935.028C583.617 936.491 584.02 938.451 584.02 940.908V961.284H579.268V957.096H579.026C578.704 957.767 578.167 958.485 577.415 959.251C576.664 960.016 575.664 960.667 574.415 961.204C573.167 961.741 571.643 962.009 569.845 962.009ZM570.569 957.74C572.449 957.74 574.033 957.371 575.321 956.633C576.623 955.895 577.603 954.942 578.261 953.774C578.932 952.606 579.268 951.378 579.268 950.089V945.74C579.066 945.982 578.623 946.203 577.939 946.404C577.268 946.592 576.489 946.76 575.603 946.908C574.731 947.042 573.878 947.163 573.046 947.27C572.227 947.364 571.563 947.445 571.053 947.512C569.818 947.673 568.663 947.935 567.589 948.297C566.529 948.646 565.67 949.176 565.012 949.888C564.368 950.586 564.046 951.539 564.046 952.747C564.046 954.398 564.657 955.646 565.878 956.492C567.113 957.324 568.677 957.74 570.569 957.74ZM597.445 942.679V961.284H592.693V930.357H597.283V935.189H597.686C598.411 933.619 599.512 932.357 600.988 931.404C602.465 930.437 604.371 929.954 606.707 929.954C608.801 929.954 610.633 930.384 612.203 931.243C613.774 932.089 614.996 933.377 615.868 935.109C616.741 936.827 617.177 939.002 617.177 941.632V961.284H612.425V941.955C612.425 939.525 611.794 937.632 610.532 936.277C609.27 934.907 607.539 934.223 605.337 934.223C603.821 934.223 602.465 934.552 601.27 935.209C600.089 935.867 599.156 936.827 598.471 938.089C597.787 939.351 597.445 940.881 597.445 942.679ZM638.424 961.928C635.632 961.928 633.182 961.264 631.075 959.935C628.981 958.606 627.343 956.747 626.162 954.358C624.994 951.968 624.41 949.176 624.41 945.982C624.41 942.76 624.994 939.948 626.162 937.545C627.343 935.142 628.981 933.276 631.075 931.948C633.182 930.619 635.632 929.954 638.424 929.954C641.216 929.954 643.659 930.619 645.753 931.948C647.861 933.276 649.498 935.142 650.666 937.545C651.848 939.948 652.438 942.76 652.438 945.982C652.438 949.176 651.848 951.968 650.666 954.358C649.498 956.747 647.861 958.606 645.753 959.935C643.659 961.264 641.216 961.928 638.424 961.928ZM638.424 957.66C640.545 957.66 642.29 957.116 643.659 956.029C645.028 954.942 646.042 953.512 646.7 951.74C647.357 949.968 647.686 948.049 647.686 945.982C647.686 943.914 647.357 941.988 646.7 940.203C646.042 938.418 645.028 936.975 643.659 935.874C642.29 934.773 640.545 934.223 638.424 934.223C636.303 934.223 634.558 934.773 633.189 935.874C631.82 936.975 630.806 938.418 630.149 940.203C629.491 941.988 629.162 943.914 629.162 945.982C629.162 948.049 629.491 949.968 630.149 951.74C630.806 953.512 631.82 954.942 633.189 956.029C634.558 957.116 636.303 957.66 638.424 957.66ZM673.142 930.357V934.384H657.114V930.357H673.142ZM661.786 922.947H666.538V952.425C666.538 953.767 666.732 954.774 667.122 955.445C667.524 956.103 668.034 956.546 668.652 956.774C669.283 956.989 669.947 957.096 670.645 957.096C671.169 957.096 671.598 957.069 671.934 957.016C672.269 956.948 672.538 956.895 672.739 956.854L673.706 961.123C673.383 961.244 672.934 961.365 672.357 961.486C671.779 961.62 671.048 961.687 670.162 961.687C668.82 961.687 667.504 961.398 666.215 960.821C664.94 960.244 663.88 959.365 663.034 958.183C662.202 957.002 661.786 955.512 661.786 953.713V922.947ZM685.706 942.679V961.284H680.954V920.048H685.706V935.189H686.109C686.834 933.592 687.921 932.323 689.371 931.384C690.834 930.431 692.78 929.954 695.21 929.954C697.317 929.954 699.163 930.377 700.747 931.223C702.331 932.055 703.559 933.337 704.432 935.068C705.318 936.787 705.76 938.975 705.76 941.632V961.284H701.009V941.955C701.009 939.498 700.371 937.599 699.096 936.256C697.834 934.901 696.082 934.223 693.841 934.223C692.284 934.223 690.887 934.552 689.653 935.209C688.431 935.867 687.465 936.827 686.753 938.089C686.055 939.351 685.706 940.881 685.706 942.679ZM727.421 961.928C724.441 961.928 721.87 961.271 719.709 959.955C717.561 958.626 715.903 956.774 714.736 954.398C713.581 952.009 713.004 949.23 713.004 946.062C713.004 942.894 713.581 940.102 714.736 937.686C715.903 935.256 717.528 933.364 719.608 932.008C721.702 930.639 724.145 929.954 726.937 929.954C728.548 929.954 730.139 930.223 731.709 930.76C733.28 931.297 734.71 932.169 735.998 933.377C737.287 934.572 738.314 936.156 739.079 938.129C739.844 940.102 740.226 942.532 740.226 945.418V947.431H716.387V943.324H735.394C735.394 941.579 735.045 940.022 734.347 938.653C733.662 937.283 732.683 936.203 731.407 935.411C730.146 934.619 728.656 934.223 726.937 934.223C725.045 934.223 723.407 934.693 722.025 935.632C720.655 936.558 719.602 937.767 718.863 939.257C718.125 940.747 717.756 942.344 717.756 944.049V946.787C717.756 949.123 718.159 951.103 718.964 952.727C719.783 954.338 720.917 955.566 722.367 956.412C723.817 957.244 725.501 957.66 727.421 957.66C728.669 957.66 729.797 957.485 730.803 957.136C731.824 956.774 732.703 956.237 733.441 955.526C734.179 954.801 734.75 953.901 735.152 952.828L739.743 954.116C739.26 955.673 738.448 957.042 737.307 958.224C736.166 959.391 734.756 960.304 733.079 960.962C731.401 961.606 729.515 961.928 727.421 961.928ZM747.455 961.284V930.357H752.046V935.028H752.368C752.932 933.498 753.952 932.256 755.428 931.303C756.905 930.35 758.569 929.874 760.422 929.874C760.771 929.874 761.207 929.88 761.731 929.894C762.254 929.907 762.65 929.927 762.919 929.954V934.787C762.757 934.746 762.388 934.686 761.811 934.605C761.247 934.511 760.65 934.464 760.019 934.464C758.516 934.464 757.173 934.78 755.992 935.411C754.824 936.028 753.898 936.887 753.214 937.988C752.542 939.075 752.207 940.317 752.207 941.713V961.284H747.455ZM785.143 961.284V920.048H789.894V935.27H790.297C790.646 934.733 791.129 934.048 791.747 933.216C792.378 932.37 793.277 931.619 794.445 930.961C795.626 930.29 797.223 929.954 799.237 929.954C801.841 929.954 804.136 930.605 806.123 931.907C808.11 933.209 809.66 935.055 810.774 937.444C811.888 939.834 812.445 942.653 812.445 945.901C812.445 949.176 811.888 952.015 810.774 954.418C809.66 956.808 808.116 958.66 806.143 959.975C804.17 961.277 801.895 961.928 799.318 961.928C797.331 961.928 795.74 961.6 794.546 960.942C793.351 960.271 792.431 959.512 791.787 958.667C791.143 957.808 790.646 957.096 790.297 956.532H789.733V961.284H785.143ZM789.814 945.821C789.814 948.156 790.156 950.217 790.841 952.002C791.525 953.774 792.525 955.163 793.841 956.17C795.156 957.163 796.767 957.66 798.673 957.66C800.66 957.66 802.318 957.136 803.647 956.089C804.989 955.029 805.996 953.606 806.667 951.821C807.351 950.022 807.694 948.022 807.694 945.821C807.694 943.646 807.358 941.686 806.687 939.941C806.029 938.183 805.029 936.793 803.687 935.773C802.358 934.74 800.687 934.223 798.673 934.223C796.74 934.223 795.116 934.713 793.801 935.693C792.485 936.659 791.492 938.015 790.821 939.76C790.149 941.492 789.814 943.512 789.814 945.821ZM824.466 920.048V961.284H819.714V920.048H824.466ZM845.734 961.928C842.942 961.928 840.492 961.264 838.384 959.935C836.29 958.606 834.653 956.747 833.471 954.358C832.304 951.968 831.72 949.176 831.72 945.982C831.72 942.76 832.304 939.948 833.471 937.545C834.653 935.142 836.29 933.276 838.384 931.948C840.492 930.619 842.942 929.954 845.734 929.954C848.526 929.954 850.969 930.619 853.063 931.948C855.17 933.276 856.808 935.142 857.976 937.545C859.157 939.948 859.748 942.76 859.748 945.982C859.748 949.176 859.157 951.968 857.976 954.358C856.808 956.747 855.17 958.606 853.063 959.935C850.969 961.264 848.526 961.928 845.734 961.928ZM845.734 957.66C847.854 957.66 849.6 957.116 850.969 956.029C852.338 954.942 853.351 953.512 854.009 951.74C854.667 949.968 854.996 948.049 854.996 945.982C854.996 943.914 854.667 941.988 854.009 940.203C853.351 938.418 852.338 936.975 850.969 935.874C849.6 934.773 847.854 934.223 845.734 934.223C843.613 934.223 841.868 934.773 840.499 935.874C839.129 936.975 838.116 938.418 837.458 940.203C836.8 941.988 836.472 943.914 836.472 945.982C836.472 948.049 836.8 949.968 837.458 951.74C838.116 953.512 839.129 954.942 840.499 956.029C841.868 957.116 843.613 957.66 845.734 957.66ZM879.565 961.928C876.666 961.928 874.169 961.244 872.075 959.875C869.981 958.506 868.37 956.62 867.243 954.217C866.115 951.814 865.551 949.069 865.551 945.982C865.551 942.841 866.129 940.069 867.283 937.666C868.451 935.25 870.075 933.364 872.156 932.008C874.25 930.639 876.693 929.954 879.485 929.954C881.659 929.954 883.619 930.357 885.364 931.162C887.109 931.968 888.539 933.095 889.653 934.545C890.767 935.995 891.458 937.686 891.727 939.619H886.975C886.613 938.21 885.807 936.961 884.559 935.874C883.324 934.773 881.659 934.223 879.565 934.223C877.713 934.223 876.089 934.706 874.693 935.673C873.31 936.626 872.229 937.975 871.451 939.72C870.686 941.451 870.303 943.485 870.303 945.821C870.303 948.21 870.679 950.291 871.431 952.062C872.196 953.834 873.27 955.21 874.652 956.19C876.048 957.17 877.686 957.66 879.565 957.66C880.8 957.66 881.921 957.445 882.928 957.016C883.935 956.586 884.787 955.969 885.485 955.163C886.183 954.358 886.68 953.391 886.975 952.264H891.727C891.458 954.089 890.794 955.734 889.733 957.197C888.686 958.647 887.297 959.801 885.566 960.66C883.847 961.506 881.847 961.928 879.565 961.928ZM903.103 950.009L903.023 944.129H903.989L917.52 930.357H923.399L908.982 944.935H908.58L903.103 950.009ZM898.673 961.284V920.048H903.425V961.284H898.673ZM918.325 961.284L906.244 945.982L909.627 942.679L924.366 961.284H918.325ZM954.563 962.009C952.603 962.009 950.825 961.64 949.227 960.902C947.63 960.15 946.361 959.069 945.422 957.66C944.482 956.237 944.012 954.519 944.012 952.505C944.012 950.733 944.361 949.297 945.059 948.196C945.757 947.082 946.69 946.21 947.858 945.579C949.026 944.948 950.314 944.478 951.724 944.169C953.147 943.847 954.576 943.592 956.013 943.404C957.892 943.163 959.415 942.982 960.583 942.861C961.765 942.726 962.624 942.505 963.161 942.196C963.711 941.888 963.986 941.351 963.986 940.585V940.424C963.986 938.438 963.442 936.894 962.355 935.793C961.281 934.693 959.65 934.142 957.462 934.142C955.194 934.142 953.415 934.639 952.127 935.632C950.838 936.626 949.932 937.686 949.408 938.814L944.898 937.203C945.704 935.324 946.777 933.86 948.12 932.813C949.476 931.753 950.952 931.015 952.549 930.599C954.16 930.169 955.744 929.954 957.301 929.954C958.295 929.954 959.436 930.075 960.724 930.317C962.026 930.545 963.281 931.021 964.489 931.746C965.711 932.471 966.724 933.565 967.53 935.028C968.335 936.491 968.738 938.451 968.738 940.908V961.284H963.986V957.096H963.744C963.422 957.767 962.885 958.485 962.134 959.251C961.382 960.016 960.382 960.667 959.134 961.204C957.885 961.741 956.362 962.009 954.563 962.009ZM955.288 957.74C957.167 957.74 958.751 957.371 960.04 956.633C961.342 955.895 962.322 954.942 962.979 953.774C963.651 952.606 963.986 951.378 963.986 950.089V945.74C963.785 945.982 963.342 946.203 962.657 946.404C961.986 946.592 961.207 946.76 960.322 946.908C959.449 947.042 958.597 947.163 957.764 947.27C956.946 947.364 956.281 947.445 955.771 947.512C954.536 947.673 953.382 947.935 952.308 948.297C951.247 948.646 950.388 949.176 949.731 949.888C949.086 950.586 948.764 951.539 948.764 952.747C948.764 954.398 949.375 955.646 950.596 956.492C951.831 957.324 953.395 957.74 955.288 957.74ZM982.163 942.679V961.284H977.411V930.357H982.002V935.189H982.405C983.129 933.619 984.23 932.357 985.707 931.404C987.183 930.437 989.089 929.954 991.425 929.954C993.519 929.954 995.351 930.384 996.922 931.243C998.492 932.089 999.714 933.377 1000.59 935.109C1001.46 936.827 1001.9 939.002 1001.9 941.632V961.284H997.143V941.955C997.143 939.525 996.512 937.632 995.251 936.277C993.989 934.907 992.257 934.223 990.056 934.223C988.539 934.223 987.183 934.552 985.989 935.209C984.807 935.867 983.874 936.827 983.19 938.089C982.505 939.351 982.163 940.881 982.163 942.679ZM1022.26 961.928C1019.68 961.928 1017.4 961.277 1015.43 959.975C1013.46 958.66 1011.91 956.808 1010.8 954.418C1009.69 952.015 1009.13 949.176 1009.13 945.901C1009.13 942.653 1009.69 939.834 1010.8 937.444C1011.91 935.055 1013.46 933.209 1015.45 931.907C1017.44 930.605 1019.73 929.954 1022.34 929.954C1024.35 929.954 1025.94 930.29 1027.11 930.961C1028.29 931.619 1029.19 932.37 1029.81 933.216C1030.44 934.048 1030.93 934.733 1031.28 935.27H1031.68V920.048H1036.43V961.284H1031.84V956.532H1031.28C1030.93 957.096 1030.43 957.808 1029.79 958.667C1029.14 959.512 1028.22 960.271 1027.03 960.942C1025.83 961.6 1024.24 961.928 1022.26 961.928ZM1022.9 957.66C1024.81 957.66 1026.42 957.163 1027.73 956.17C1029.05 955.163 1030.05 953.774 1030.73 952.002C1031.42 950.217 1031.76 948.156 1031.76 945.821C1031.76 943.512 1031.42 941.492 1030.75 939.76C1030.08 938.015 1029.09 936.659 1027.77 935.693C1026.46 934.713 1024.83 934.223 1022.9 934.223C1020.89 934.223 1019.21 934.74 1017.87 935.773C1016.54 936.793 1015.54 938.183 1014.87 939.941C1014.21 941.686 1013.88 943.646 1013.88 945.821C1013.88 948.022 1014.22 950.022 1014.89 951.821C1015.57 953.606 1016.58 955.029 1017.91 956.089C1019.25 957.136 1020.91 957.66 1022.9 957.66ZM1290.76 961.284V930.357H1295.51V961.284H1290.76ZM1293.17 925.202C1292.25 925.202 1291.45 924.887 1290.78 924.256C1290.12 923.625 1289.79 922.867 1289.79 921.981C1289.79 921.095 1290.12 920.336 1290.78 919.706C1291.45 919.075 1292.25 918.759 1293.17 918.759C1294.1 918.759 1294.89 919.075 1295.55 919.706C1296.22 920.336 1296.55 921.095 1296.55 921.981C1296.55 922.867 1296.22 923.625 1295.55 924.256C1294.89 924.887 1294.1 925.202 1293.17 925.202ZM1317.66 930.357V934.384H1301.63V930.357H1317.66ZM1306.31 922.947H1311.06V952.425C1311.06 953.767 1311.25 954.774 1311.64 955.445C1312.04 956.103 1312.55 956.546 1313.17 956.774C1313.8 956.989 1314.47 957.096 1315.16 957.096C1315.69 957.096 1316.12 957.069 1316.45 957.016C1316.79 956.948 1317.06 956.895 1317.26 956.854L1318.23 961.123C1317.9 961.244 1317.45 961.365 1316.88 961.486C1316.3 961.62 1315.57 961.687 1314.68 961.687C1313.34 961.687 1312.02 961.398 1310.73 960.821C1309.46 960.244 1308.4 959.365 1307.55 958.183C1306.72 957.002 1306.31 955.512 1306.31 953.713V922.947ZM1354.21 930.357V934.384H1338.18V930.357H1354.21ZM1342.85 922.947H1347.6V952.425C1347.6 953.767 1347.8 954.774 1348.19 955.445C1348.59 956.103 1349.1 956.546 1349.72 956.774C1350.35 956.989 1351.01 957.096 1351.71 957.096C1352.23 957.096 1352.66 957.069 1353 957.016C1353.33 956.948 1353.6 956.895 1353.8 956.854L1354.77 961.123C1354.45 961.244 1354 961.365 1353.42 961.486C1352.84 961.62 1352.11 961.687 1351.23 961.687C1349.88 961.687 1348.57 961.398 1347.28 960.821C1346 960.244 1344.94 959.365 1344.1 958.183C1343.27 957.002 1342.85 955.512 1342.85 953.713V922.947ZM1373.59 961.928C1370.79 961.928 1368.34 961.264 1366.24 959.935C1364.14 958.606 1362.51 956.747 1361.32 954.358C1360.16 951.968 1359.57 949.176 1359.57 945.982C1359.57 942.76 1360.16 939.948 1361.32 937.545C1362.51 935.142 1364.14 933.276 1366.24 931.948C1368.34 930.619 1370.79 929.954 1373.59 929.954C1376.38 929.954 1378.82 930.619 1380.92 931.948C1383.02 933.276 1384.66 935.142 1385.83 937.545C1387.01 939.948 1387.6 942.76 1387.6 945.982C1387.6 949.176 1387.01 951.968 1385.83 954.358C1384.66 956.747 1383.02 958.606 1380.92 959.935C1378.82 961.264 1376.38 961.928 1373.59 961.928ZM1373.59 957.66C1375.71 957.66 1377.45 957.116 1378.82 956.029C1380.19 954.942 1381.2 953.512 1381.86 951.74C1382.52 949.968 1382.85 948.049 1382.85 945.982C1382.85 943.914 1382.52 941.988 1381.86 940.203C1381.2 938.418 1380.19 936.975 1378.82 935.874C1377.45 934.773 1375.71 934.223 1373.59 934.223C1371.47 934.223 1369.72 934.773 1368.35 935.874C1366.98 936.975 1365.97 938.418 1365.31 940.203C1364.65 941.988 1364.32 943.914 1364.32 945.982C1364.32 948.049 1364.65 949.968 1365.31 951.74C1365.97 953.512 1366.98 954.942 1368.35 956.029C1369.72 957.116 1371.47 957.66 1373.59 957.66ZM1423.28 973.526C1420.99 973.526 1419.02 973.231 1417.36 972.64C1415.71 972.063 1414.34 971.298 1413.24 970.345C1412.15 969.405 1411.28 968.399 1410.64 967.325L1414.42 964.667C1414.85 965.231 1415.4 965.875 1416.06 966.6C1416.71 967.338 1417.61 967.976 1418.75 968.513C1419.91 969.063 1421.42 969.338 1423.28 969.338C1425.78 969.338 1427.84 968.734 1429.47 967.526C1431.09 966.318 1431.9 964.425 1431.9 961.848V955.566H1431.5C1431.15 956.13 1430.65 956.828 1430.01 957.66C1429.38 958.479 1428.47 959.21 1427.27 959.855C1426.09 960.485 1424.49 960.801 1422.48 960.801C1419.98 960.801 1417.74 960.21 1415.75 959.029C1413.78 957.848 1412.22 956.13 1411.06 953.875C1409.92 951.619 1409.35 948.881 1409.35 945.659C1409.35 942.492 1409.91 939.733 1411.02 937.384C1412.14 935.022 1413.69 933.196 1415.67 931.907C1417.66 930.605 1419.96 929.954 1422.56 929.954C1424.57 929.954 1426.17 930.29 1427.35 930.961C1428.55 931.619 1429.46 932.37 1430.09 933.216C1430.73 934.048 1431.23 934.733 1431.58 935.27H1432.06V930.357H1436.65V962.17C1436.65 964.828 1436.05 966.989 1434.84 968.654C1433.65 970.331 1432.04 971.56 1430.01 972.338C1428 973.13 1425.75 973.526 1423.28 973.526ZM1423.12 956.532C1425.03 956.532 1426.64 956.096 1427.96 955.224C1429.27 954.351 1430.27 953.096 1430.96 951.458C1431.64 949.821 1431.98 947.861 1431.98 945.579C1431.98 943.351 1431.65 941.384 1430.98 939.679C1430.3 937.975 1429.31 936.639 1428 935.673C1426.68 934.706 1425.06 934.223 1423.12 934.223C1421.11 934.223 1419.43 934.733 1418.09 935.753C1416.76 936.773 1415.76 938.142 1415.09 939.861C1414.43 941.579 1414.1 943.485 1414.1 945.579C1414.1 947.727 1414.44 949.626 1415.11 951.277C1415.79 952.915 1416.8 954.203 1418.13 955.143C1419.47 956.069 1421.14 956.532 1423.12 956.532ZM1457.92 961.928C1455.12 961.928 1452.67 961.264 1450.57 959.935C1448.47 958.606 1446.84 956.747 1445.65 954.358C1444.49 951.968 1443.9 949.176 1443.9 945.982C1443.9 942.76 1444.49 939.948 1445.65 937.545C1446.84 935.142 1448.47 933.276 1450.57 931.948C1452.67 930.619 1455.12 929.954 1457.92 929.954C1460.71 929.954 1463.15 930.619 1465.25 931.948C1467.35 933.276 1468.99 935.142 1470.16 937.545C1471.34 939.948 1471.93 942.76 1471.93 945.982C1471.93 949.176 1471.34 951.968 1470.16 954.358C1468.99 956.747 1467.35 958.606 1465.25 959.935C1463.15 961.264 1460.71 961.928 1457.92 961.928ZM1457.92 957.66C1460.04 957.66 1461.78 957.116 1463.15 956.029C1464.52 954.942 1465.53 953.512 1466.19 951.74C1466.85 949.968 1467.18 948.049 1467.18 945.982C1467.18 943.914 1466.85 941.988 1466.19 940.203C1465.53 938.418 1464.52 936.975 1463.15 935.874C1461.78 934.773 1460.04 934.223 1457.92 934.223C1455.8 934.223 1454.05 934.773 1452.68 935.874C1451.31 936.975 1450.3 938.418 1449.64 940.203C1448.98 941.988 1448.65 943.914 1448.65 945.982C1448.65 948.049 1448.98 949.968 1449.64 951.74C1450.3 953.512 1451.31 954.942 1452.68 956.029C1454.05 957.116 1455.8 957.66 1457.92 957.66ZM1508.9 930.357V934.384H1492.23V930.357H1508.9ZM1497.22 961.284V926.088C1497.22 924.316 1497.64 922.84 1498.47 921.659C1499.31 920.477 1500.39 919.591 1501.71 919.001C1503.04 918.41 1504.45 918.115 1505.92 918.115C1507.09 918.115 1508.04 918.209 1508.78 918.397C1509.52 918.585 1510.07 918.759 1510.43 918.92L1509.06 923.028C1508.82 922.947 1508.49 922.847 1508.06 922.726C1507.64 922.605 1507.09 922.545 1506.41 922.545C1504.84 922.545 1503.7 922.941 1503 923.733C1502.32 924.524 1501.98 925.686 1501.98 927.216V961.284H1497.22ZM1526.85 961.928C1524.06 961.928 1521.61 961.264 1519.5 959.935C1517.41 958.606 1515.77 956.747 1514.59 954.358C1513.42 951.968 1512.84 949.176 1512.84 945.982C1512.84 942.76 1513.42 939.948 1514.59 937.545C1515.77 935.142 1517.41 933.276 1519.5 931.948C1521.61 930.619 1524.06 929.954 1526.85 929.954C1529.65 929.954 1532.09 930.619 1534.18 931.948C1536.29 933.276 1537.93 935.142 1539.1 937.545C1540.28 939.948 1540.87 942.76 1540.87 945.982C1540.87 949.176 1540.28 951.968 1539.1 954.358C1537.93 956.747 1536.29 958.606 1534.18 959.935C1532.09 961.264 1529.65 961.928 1526.85 961.928ZM1526.85 957.66C1528.97 957.66 1530.72 957.116 1532.09 956.029C1533.46 954.942 1534.47 953.512 1535.13 951.74C1535.79 949.968 1536.12 948.049 1536.12 945.982C1536.12 943.914 1535.79 941.988 1535.13 940.203C1534.47 938.418 1533.46 936.975 1532.09 935.874C1530.72 934.773 1528.97 934.223 1526.85 934.223C1524.73 934.223 1522.99 934.773 1521.62 935.874C1520.25 936.975 1519.24 938.418 1518.58 940.203C1517.92 941.988 1517.59 943.914 1517.59 945.982C1517.59 948.049 1517.92 949.968 1518.58 951.74C1519.24 953.512 1520.25 954.942 1521.62 956.029C1522.99 957.116 1524.73 957.66 1526.85 957.66ZM1548.12 961.284V930.357H1552.71V935.028H1553.03C1553.6 933.498 1554.62 932.256 1556.09 931.303C1557.57 930.35 1559.24 929.874 1561.09 929.874C1561.44 929.874 1561.87 929.88 1562.4 929.894C1562.92 929.907 1563.32 929.927 1563.58 929.954V934.787C1563.42 934.746 1563.05 934.686 1562.48 934.605C1561.91 934.511 1561.32 934.464 1560.69 934.464C1559.18 934.464 1557.84 934.78 1556.66 935.411C1555.49 936.028 1554.56 936.887 1553.88 937.988C1553.21 939.075 1552.87 940.317 1552.87 941.713V961.284H1548.12ZM1576.72 961.284L1567.3 930.357H1572.29L1578.98 954.036H1579.3L1585.9 930.357H1590.98L1597.5 953.955H1597.82L1604.51 930.357H1609.5L1600.08 961.284H1595.41L1588.64 937.525H1588.16L1581.39 961.284H1576.72ZM1624.89 962.009C1622.93 962.009 1621.15 961.64 1619.55 960.902C1617.95 960.15 1616.68 959.069 1615.74 957.66C1614.8 956.237 1614.33 954.519 1614.33 952.505C1614.33 950.733 1614.68 949.297 1615.38 948.196C1616.08 947.082 1617.01 946.21 1618.18 945.579C1619.35 944.948 1620.64 944.478 1622.05 944.169C1623.47 943.847 1624.9 943.592 1626.34 943.404C1628.21 943.163 1629.74 942.982 1630.91 942.861C1632.09 942.726 1632.95 942.505 1633.48 942.196C1634.03 941.888 1634.31 941.351 1634.31 940.585V940.424C1634.31 938.438 1633.76 936.894 1632.68 935.793C1631.6 934.693 1629.97 934.142 1627.78 934.142C1625.52 934.142 1623.74 934.639 1622.45 935.632C1621.16 936.626 1620.25 937.686 1619.73 938.814L1615.22 937.203C1616.03 935.324 1617.1 933.86 1618.44 932.813C1619.8 931.753 1621.27 931.015 1622.87 930.599C1624.48 930.169 1626.07 929.954 1627.62 929.954C1628.62 929.954 1629.76 930.075 1631.05 930.317C1632.35 930.545 1633.6 931.021 1634.81 931.746C1636.03 932.471 1637.05 933.565 1637.85 935.028C1638.66 936.491 1639.06 938.451 1639.06 940.908V961.284H1634.31V957.096H1634.07C1633.74 957.767 1633.21 958.485 1632.46 959.251C1631.7 960.016 1630.7 960.667 1629.46 961.204C1628.21 961.741 1626.68 962.009 1624.89 962.009ZM1625.61 957.74C1627.49 957.74 1629.07 957.371 1630.36 956.633C1631.66 955.895 1632.64 954.942 1633.3 953.774C1633.97 952.606 1634.31 951.378 1634.31 950.089V945.74C1634.11 945.982 1633.66 946.203 1632.98 946.404C1632.31 946.592 1631.53 946.76 1630.64 946.908C1629.77 947.042 1628.92 947.163 1628.09 947.27C1627.27 947.364 1626.6 947.445 1626.09 947.512C1624.86 947.673 1623.7 947.935 1622.63 948.297C1621.57 948.646 1620.71 949.176 1620.05 949.888C1619.41 950.586 1619.09 951.539 1619.09 952.747C1619.09 954.398 1619.7 955.646 1620.92 956.492C1622.15 957.324 1623.72 957.74 1625.61 957.74ZM1647.73 961.284V930.357H1652.32V935.028H1652.65C1653.21 933.498 1654.23 932.256 1655.71 931.303C1657.18 930.35 1658.85 929.874 1660.7 929.874C1661.05 929.874 1661.49 929.88 1662.01 929.894C1662.53 929.907 1662.93 929.927 1663.2 929.954V934.787C1663.04 934.746 1662.67 934.686 1662.09 934.605C1661.53 934.511 1660.93 934.464 1660.3 934.464C1658.79 934.464 1657.45 934.78 1656.27 935.411C1655.1 936.028 1654.18 936.887 1653.49 937.988C1652.82 939.075 1652.49 940.317 1652.49 941.713V961.284H1647.73ZM1679.57 961.928C1676.99 961.928 1674.71 961.277 1672.74 959.975C1670.77 958.66 1669.22 956.808 1668.11 954.418C1667 952.015 1666.44 949.176 1666.44 945.901C1666.44 942.653 1667 939.834 1668.11 937.444C1669.22 935.055 1670.77 933.209 1672.76 931.907C1674.75 930.605 1677.04 929.954 1679.65 929.954C1681.66 929.954 1683.25 930.29 1684.42 930.961C1685.6 931.619 1686.5 932.37 1687.12 933.216C1687.75 934.048 1688.24 934.733 1688.59 935.27H1688.99V920.048H1693.74V961.284H1689.15V956.532H1688.59C1688.24 957.096 1687.74 957.808 1687.1 958.667C1686.45 959.512 1685.53 960.271 1684.34 960.942C1683.14 961.6 1681.55 961.928 1679.57 961.928ZM1680.21 957.66C1682.12 957.66 1683.73 957.163 1685.04 956.17C1686.36 955.163 1687.36 953.774 1688.04 952.002C1688.73 950.217 1689.07 948.156 1689.07 945.821C1689.07 943.512 1688.73 941.492 1688.06 939.76C1687.39 938.015 1686.4 936.659 1685.08 935.693C1683.77 934.713 1682.14 934.223 1680.21 934.223C1678.2 934.223 1676.52 934.74 1675.18 935.773C1673.85 936.793 1672.85 938.183 1672.18 939.941C1671.52 941.686 1671.19 943.646 1671.19 945.821C1671.19 948.022 1671.53 950.022 1672.2 951.821C1672.88 953.606 1673.89 955.029 1675.22 956.089C1676.56 957.136 1678.22 957.66 1680.21 957.66ZM1728.15 962.009C1726.19 962.009 1724.41 961.64 1722.82 960.902C1721.22 960.15 1719.95 959.069 1719.01 957.66C1718.07 956.237 1717.6 954.519 1717.6 952.505C1717.6 950.733 1717.95 949.297 1718.65 948.196C1719.35 947.082 1720.28 946.21 1721.45 945.579C1722.62 944.948 1723.9 944.478 1725.31 944.169C1726.74 943.847 1728.17 943.592 1729.6 943.404C1731.48 943.163 1733 942.982 1734.17 942.861C1735.35 942.726 1736.21 942.505 1736.75 942.196C1737.3 941.888 1737.58 941.351 1737.58 940.585V940.424C1737.58 938.438 1737.03 936.894 1735.94 935.793C1734.87 934.693 1733.24 934.142 1731.05 934.142C1728.78 934.142 1727 934.639 1725.72 935.632C1724.43 936.626 1723.52 937.686 1723 938.814L1718.49 937.203C1719.29 935.324 1720.37 933.86 1721.71 932.813C1723.06 931.753 1724.54 931.015 1726.14 930.599C1727.75 930.169 1729.33 929.954 1730.89 929.954C1731.88 929.954 1733.03 930.075 1734.31 930.317C1735.62 930.545 1736.87 931.021 1738.08 931.746C1739.3 932.471 1740.31 933.565 1741.12 935.028C1741.92 936.491 1742.33 938.451 1742.33 940.908V961.284H1737.58V957.096H1737.33C1737.01 957.767 1736.47 958.485 1735.72 959.251C1734.97 960.016 1733.97 960.667 1732.72 961.204C1731.47 961.741 1729.95 962.009 1728.15 962.009ZM1728.88 957.74C1730.76 957.74 1732.34 957.371 1733.63 956.633C1734.93 955.895 1735.91 954.942 1736.57 953.774C1737.24 952.606 1737.58 951.378 1737.58 950.089V945.74C1737.37 945.982 1736.93 946.203 1736.25 946.404C1735.58 946.592 1734.8 946.76 1733.91 946.908C1733.04 947.042 1732.19 947.163 1731.35 947.27C1730.54 947.364 1729.87 947.445 1729.36 947.512C1728.13 947.673 1726.97 947.935 1725.9 948.297C1724.84 948.646 1723.98 949.176 1723.32 949.888C1722.68 950.586 1722.35 951.539 1722.35 952.747C1722.35 954.398 1722.96 955.646 1724.19 956.492C1725.42 957.324 1726.98 957.74 1728.88 957.74ZM1755.75 942.679V961.284H1751V930.357H1755.59V935.189H1755.99C1756.72 933.619 1757.82 932.357 1759.3 931.404C1760.77 930.437 1762.68 929.954 1765.01 929.954C1767.11 929.954 1768.94 930.384 1770.51 931.243C1772.08 932.089 1773.3 933.377 1774.18 935.109C1775.05 936.827 1775.48 939.002 1775.48 941.632V961.284H1770.73V941.955C1770.73 939.525 1770.1 937.632 1768.84 936.277C1767.58 934.907 1765.85 934.223 1763.65 934.223C1762.13 934.223 1760.77 934.552 1759.58 935.209C1758.4 935.867 1757.46 936.827 1756.78 938.089C1756.09 939.351 1755.75 940.881 1755.75 942.679ZM1795.85 961.928C1793.27 961.928 1790.99 961.277 1789.02 959.975C1787.05 958.66 1785.5 956.808 1784.39 954.418C1783.28 952.015 1782.72 949.176 1782.72 945.901C1782.72 942.653 1783.28 939.834 1784.39 937.444C1785.5 935.055 1787.05 933.209 1789.04 931.907C1791.03 930.605 1793.32 929.954 1795.93 929.954C1797.94 929.954 1799.53 930.29 1800.7 930.961C1801.88 931.619 1802.78 932.37 1803.4 933.216C1804.03 934.048 1804.52 934.733 1804.87 935.27H1805.27V920.048H1810.02V961.284H1805.43V956.532H1804.87C1804.52 957.096 1804.02 957.808 1803.38 958.667C1802.73 959.512 1801.81 960.271 1800.62 960.942C1799.42 961.6 1797.83 961.928 1795.85 961.928ZM1796.49 957.66C1798.4 957.66 1800.01 957.163 1801.32 956.17C1802.64 955.163 1803.64 953.774 1804.32 952.002C1805.01 950.217 1805.35 948.156 1805.35 945.821C1805.35 943.512 1805.01 941.492 1804.34 939.76C1803.67 938.015 1802.68 936.659 1801.36 935.693C1800.05 934.713 1798.42 934.223 1796.49 934.223C1794.48 934.223 1792.8 934.74 1791.46 935.773C1790.13 936.793 1789.13 938.183 1788.46 939.941C1787.8 941.686 1787.47 943.646 1787.47 945.821C1787.47 948.022 1787.81 950.022 1788.48 951.821C1789.16 953.606 1790.17 955.029 1791.5 956.089C1792.84 957.136 1794.5 957.66 1796.49 957.66ZM1835.98 961.284V920.048H1840.73V935.27H1841.13C1841.48 934.733 1841.96 934.048 1842.58 933.216C1843.21 932.37 1844.11 931.619 1845.28 930.961C1846.46 930.29 1848.06 929.954 1850.07 929.954C1852.67 929.954 1854.97 930.605 1856.96 931.907C1858.94 933.209 1860.49 935.055 1861.61 937.444C1862.72 939.834 1863.28 942.653 1863.28 945.901C1863.28 949.176 1862.72 952.015 1861.61 954.418C1860.49 956.808 1858.95 958.66 1856.98 959.975C1855 961.277 1852.73 961.928 1850.15 961.928C1848.16 961.928 1846.57 961.6 1845.38 960.942C1844.18 960.271 1843.26 959.512 1842.62 958.667C1841.98 957.808 1841.48 957.096 1841.13 956.532H1840.57V961.284H1835.98ZM1840.65 945.821C1840.65 948.156 1840.99 950.217 1841.67 952.002C1842.36 953.774 1843.36 955.163 1844.67 956.17C1845.99 957.163 1847.6 957.66 1849.51 957.66C1851.49 957.66 1853.15 957.136 1854.48 956.089C1855.82 955.029 1856.83 953.606 1857.5 951.821C1858.18 950.022 1858.53 948.022 1858.53 945.821C1858.53 943.646 1858.19 941.686 1857.52 939.941C1856.86 938.183 1855.86 936.793 1854.52 935.773C1853.19 934.74 1851.52 934.223 1849.51 934.223C1847.57 934.223 1845.95 934.713 1844.63 935.693C1843.32 936.659 1842.32 938.015 1841.65 939.76C1840.98 941.492 1840.65 943.512 1840.65 945.821ZM1879.65 962.009C1877.69 962.009 1875.91 961.64 1874.31 960.902C1872.71 960.15 1871.45 959.069 1870.51 957.66C1869.57 956.237 1869.1 954.519 1869.1 952.505C1869.1 950.733 1869.45 949.297 1870.14 948.196C1870.84 947.082 1871.78 946.21 1872.94 945.579C1874.11 944.948 1875.4 944.478 1876.81 944.169C1878.23 943.847 1879.66 943.592 1881.1 943.404C1882.98 943.163 1884.5 942.982 1885.67 942.861C1886.85 942.726 1887.71 942.505 1888.25 942.196C1888.8 941.888 1889.07 941.351 1889.07 940.585V940.424C1889.07 938.438 1888.53 936.894 1887.44 935.793C1886.37 934.693 1884.74 934.142 1882.55 934.142C1880.28 934.142 1878.5 934.639 1877.21 935.632C1875.92 936.626 1875.02 937.686 1874.49 938.814L1869.98 937.203C1870.79 935.324 1871.86 933.86 1873.2 932.813C1874.56 931.753 1876.04 931.015 1877.63 930.599C1879.25 930.169 1880.83 929.954 1882.39 929.954C1883.38 929.954 1884.52 930.075 1885.81 930.317C1887.11 930.545 1888.37 931.021 1889.57 931.746C1890.8 932.471 1891.81 933.565 1892.61 935.028C1893.42 936.491 1893.82 938.451 1893.82 940.908V961.284H1889.07V957.096H1888.83C1888.51 957.767 1887.97 958.485 1887.22 959.251C1886.47 960.016 1885.47 960.667 1884.22 961.204C1882.97 961.741 1881.45 962.009 1879.65 962.009ZM1880.37 957.74C1882.25 957.74 1883.84 957.371 1885.12 956.633C1886.43 955.895 1887.41 954.942 1888.06 953.774C1888.74 952.606 1889.07 951.378 1889.07 950.089V945.74C1888.87 945.982 1888.43 946.203 1887.74 946.404C1887.07 946.592 1886.29 946.76 1885.41 946.908C1884.53 947.042 1883.68 947.163 1882.85 947.27C1882.03 947.364 1881.37 947.445 1880.86 947.512C1879.62 947.673 1878.47 947.935 1877.39 948.297C1876.33 948.646 1875.47 949.176 1874.82 949.888C1874.17 950.586 1873.85 951.539 1873.85 952.747C1873.85 954.398 1874.46 955.646 1875.68 956.492C1876.92 957.324 1878.48 957.74 1880.37 957.74ZM1915.06 961.928C1912.16 961.928 1909.66 961.244 1907.57 959.875C1905.48 958.506 1903.87 956.62 1902.74 954.217C1901.61 951.814 1901.05 949.069 1901.05 945.982C1901.05 942.841 1901.62 940.069 1902.78 937.666C1903.95 935.25 1905.57 933.364 1907.65 932.008C1909.74 930.639 1912.19 929.954 1914.98 929.954C1917.15 929.954 1919.11 930.357 1920.86 931.162C1922.6 931.968 1924.03 933.095 1925.15 934.545C1926.26 935.995 1926.95 937.686 1927.22 939.619H1922.47C1922.11 938.21 1921.3 936.961 1920.05 935.874C1918.82 934.773 1917.15 934.223 1915.06 934.223C1913.21 934.223 1911.58 934.706 1910.19 935.673C1908.8 936.626 1907.72 937.975 1906.95 939.72C1906.18 941.451 1905.8 943.485 1905.8 945.821C1905.8 948.21 1906.17 950.291 1906.93 952.062C1907.69 953.834 1908.76 955.21 1910.15 956.19C1911.54 957.17 1913.18 957.66 1915.06 957.66C1916.3 957.66 1917.42 957.445 1918.42 957.016C1919.43 956.586 1920.28 955.969 1920.98 955.163C1921.68 954.358 1922.17 953.391 1922.47 952.264H1927.22C1926.95 954.089 1926.29 955.734 1925.23 957.197C1924.18 958.647 1922.79 959.801 1921.06 960.66C1919.34 961.506 1917.34 961.928 1915.06 961.928ZM1938.6 950.009L1938.52 944.129H1939.48L1953.01 930.357H1958.89L1944.48 944.935H1944.07L1938.6 950.009ZM1934.17 961.284V920.048H1938.92V961.284H1934.17ZM1953.82 961.284L1941.74 945.982L1945.12 942.679L1959.86 961.284H1953.82ZM1972.02 961.284L1962.59 930.357H1967.59L1974.27 954.036H1974.59L1981.2 930.357H1986.27L1992.8 953.955H1993.12L1999.8 930.357H2004.8L1995.37 961.284H1990.7L1983.94 937.525H1983.45L1976.69 961.284H1972.02ZM2020.18 962.009C2018.22 962.009 2016.44 961.64 2014.84 960.902C2013.25 960.15 2011.98 959.069 2011.04 957.66C2010.1 956.237 2009.63 954.519 2009.63 952.505C2009.63 950.733 2009.98 949.297 2010.68 948.196C2011.37 947.082 2012.31 946.21 2013.47 945.579C2014.64 944.948 2015.93 944.478 2017.34 944.169C2018.76 943.847 2020.19 943.592 2021.63 943.404C2023.51 943.163 2025.03 942.982 2026.2 942.861C2027.38 942.726 2028.24 942.505 2028.78 942.196C2029.33 941.888 2029.6 941.351 2029.6 940.585V940.424C2029.6 938.438 2029.06 936.894 2027.97 935.793C2026.9 934.693 2025.27 934.142 2023.08 934.142C2020.81 934.142 2019.03 934.639 2017.74 935.632C2016.45 936.626 2015.55 937.686 2015.03 938.814L2010.51 937.203C2011.32 935.324 2012.39 933.86 2013.74 932.813C2015.09 931.753 2016.57 931.015 2018.17 930.599C2019.78 930.169 2021.36 929.954 2022.92 929.954C2023.91 929.954 2025.05 930.075 2026.34 930.317C2027.64 930.545 2028.9 931.021 2030.11 931.746C2031.33 932.471 2032.34 933.565 2033.15 935.028C2033.95 936.491 2034.35 938.451 2034.35 940.908V961.284H2029.6V957.096H2029.36C2029.04 957.767 2028.5 958.485 2027.75 959.251C2027 960.016 2026 960.667 2024.75 961.204C2023.5 961.741 2021.98 962.009 2020.18 962.009ZM2020.9 957.74C2022.78 957.74 2024.37 957.371 2025.66 956.633C2026.96 955.895 2027.94 954.942 2028.6 953.774C2029.27 952.606 2029.6 951.378 2029.6 950.089V945.74C2029.4 945.982 2028.96 946.203 2028.27 946.404C2027.6 946.592 2026.82 946.76 2025.94 946.908C2025.07 947.042 2024.21 947.163 2023.38 947.27C2022.56 947.364 2021.9 947.445 2021.39 947.512C2020.15 947.673 2019 947.935 2017.92 948.297C2016.86 948.646 2016 949.176 2015.35 949.888C2014.7 950.586 2014.38 951.539 2014.38 952.747C2014.38 954.398 2014.99 955.646 2016.21 956.492C2017.45 957.324 2019.01 957.74 2020.9 957.74ZM2043.03 961.284V930.357H2047.62V935.028H2047.94C2048.5 933.498 2049.52 932.256 2051 931.303C2052.48 930.35 2054.14 929.874 2055.99 929.874C2056.34 929.874 2056.78 929.88 2057.3 929.894C2057.83 929.907 2058.22 929.927 2058.49 929.954V934.787C2058.33 934.746 2057.96 934.686 2057.38 934.605C2056.82 934.511 2056.22 934.464 2055.59 934.464C2054.09 934.464 2052.75 934.78 2051.56 935.411C2050.4 936.028 2049.47 936.887 2048.79 937.988C2048.12 939.075 2047.78 940.317 2047.78 941.713V961.284H2043.03ZM2074.86 961.928C2072.28 961.928 2070.01 961.277 2068.04 959.975C2066.06 958.66 2064.52 956.808 2063.4 954.418C2062.29 952.015 2061.73 949.176 2061.73 945.901C2061.73 942.653 2062.29 939.834 2063.4 937.444C2064.52 935.055 2066.07 933.209 2068.06 931.907C2070.04 930.605 2072.34 929.954 2074.94 929.954C2076.96 929.954 2078.55 930.29 2079.71 930.961C2080.89 931.619 2081.79 932.37 2082.41 933.216C2083.04 934.048 2083.53 934.733 2083.88 935.27H2084.28V920.048H2089.04V961.284H2084.45V956.532H2083.88C2083.53 957.096 2083.04 957.808 2082.39 958.667C2081.75 959.512 2080.83 960.271 2079.63 960.942C2078.44 961.6 2076.85 961.928 2074.86 961.928ZM2075.51 957.66C2077.41 957.66 2079.02 957.163 2080.34 956.17C2081.65 955.163 2082.65 953.774 2083.34 952.002C2084.02 950.217 2084.36 948.156 2084.36 945.821C2084.36 943.512 2084.03 941.492 2083.36 939.76C2082.69 938.015 2081.69 936.659 2080.38 935.693C2079.06 934.713 2077.44 934.223 2075.51 934.223C2073.49 934.223 2071.81 934.74 2070.47 935.773C2069.14 936.793 2068.14 938.183 2067.47 939.941C2066.81 941.686 2066.48 943.646 2066.48 945.821C2066.48 948.022 2066.82 950.022 2067.49 951.821C2068.18 953.606 2069.18 955.029 2070.51 956.089C2071.85 957.136 2073.52 957.66 2075.51 957.66ZM2101.86 961.606C2100.87 961.606 2100.02 961.251 2099.3 960.539C2098.59 959.828 2098.24 958.975 2098.24 957.982C2098.24 956.989 2098.59 956.136 2099.3 955.425C2100.02 954.713 2100.87 954.358 2101.86 954.358C2102.86 954.358 2103.71 954.713 2104.42 955.425C2105.13 956.136 2105.49 956.989 2105.49 957.982C2105.49 958.64 2105.32 959.244 2104.98 959.794C2104.66 960.345 2104.22 960.788 2103.67 961.123C2103.14 961.445 2102.53 961.606 2101.86 961.606Z" fill="white"/>
<g filter="url(#filter0_d_984_167)">
<circle cx="144" cy="144" r="144" transform="matrix(4.37114e-08 -1 -1 -4.37114e-08 521.002 554.002)" fill="#8B3737"/>
<circle cx="144" cy="144" r="142.5" transform="matrix(4.37114e-08 -1 -1 -4.37114e-08 521.002 554.002)" stroke="white" stroke-opacity="0.4" stroke-width="3"/>
</g>
<g filter="url(#filter1_d_984_167)">
<circle cx="144" cy="144" r="144" transform="matrix(4.37114e-08 1 1 -4.37114e-08 1601 267.002)" fill="#8B3737"/>
<circle cx="144" cy="144" r="142.5" transform="matrix(4.37114e-08 1 1 -4.37114e-08 1601 267.002)" stroke="white" stroke-opacity="0.4" stroke-width="3"/>
</g>
<g filter="url(#filter2_d_984_167)">
<circle cx="1744" cy="529" r="26" fill="#431A1A"/>
<circle cx="1744" cy="529" r="24.5" stroke="white" stroke-opacity="0.4" stroke-width="3"/>
</g>
<path d="M601.002 608.002C603.763 608.002 606.002 605.764 606.002 603.002C606.002 600.241 603.763 598.002 601.002 598.002L601.002 608.002ZM150.462 599.467C148.509 601.42 148.509 604.585 150.462 606.538L182.282 638.358C184.234 640.31 187.4 640.31 189.353 638.358C191.305 636.405 191.305 633.239 189.353 631.287L161.069 603.002L189.353 574.718C191.305 572.766 191.305 569.6 189.353 567.647C187.4 565.694 184.234 565.694 182.282 567.647L150.462 599.467ZM601.002 598.002L153.997 598.002L153.997 608.002L601.002 608.002L601.002 598.002Z" fill="white"/>
<path d="M1942 187C1942 184.239 1939.76 182 1937 182C1934.24 182 1932 184.239 1932 187H1942ZM1933.46 637.54C1935.42 639.493 1938.58 639.493 1940.54 637.54L1972.36 605.72C1974.31 603.768 1974.31 600.602 1972.36 598.649C1970.4 596.697 1967.24 596.697 1965.28 598.649L1937 626.933L1908.72 598.649C1906.76 596.697 1903.6 596.697 1901.64 598.649C1899.69 600.602 1899.69 603.768 1901.64 605.72L1933.46 637.54ZM1932 187L1932 634.005H1942L1942 187H1932Z" fill="white"/>
<path d="M153.998 213.002C151.237 213.002 148.998 215.241 148.998 218.002C148.998 220.763 151.237 223.002 153.998 223.002L153.998 213.002ZM604.538 221.538C606.491 219.585 606.491 216.419 604.538 214.466L572.718 182.647C570.766 180.694 567.6 180.694 565.647 182.647C563.695 184.599 563.695 187.765 565.647 189.718L593.931 218.002L565.647 246.286C563.695 248.239 563.695 251.405 565.647 253.357C567.6 255.31 570.766 255.31 572.718 253.357L604.538 221.538ZM153.998 223.002L601.003 223.002L601.003 213.002L153.998 213.002L153.998 223.002Z" fill="white"/>
<path d="M1547 634.004C1547 636.766 1549.24 639.004 1552 639.004C1554.76 639.004 1557 636.766 1557 634.004H1547ZM1555.54 183.464C1553.58 181.512 1550.42 181.512 1548.46 183.464L1516.64 215.284C1514.69 217.237 1514.69 220.403 1516.64 222.355C1518.6 224.308 1521.76 224.308 1523.72 222.355L1552 194.071L1580.28 222.355C1582.24 224.308 1585.4 224.308 1587.36 222.355C1589.31 220.403 1589.31 217.237 1587.36 215.284L1555.54 183.464ZM1557 634.004L1557 187H1547L1547 634.004H1557Z" fill="white"/>
<defs>
<filter id="filter0_d_984_167" x="221.002" y="266.002" width="312" height="321" filterUnits="userSpaceOnUse" color-interpolation-filters="sRGB">
<feFlood flood-opacity="0" result="BackgroundImageFix"/>
<feColorMatrix in="SourceAlpha" type="matrix" values="0 0 0 0 0 0 0 0 0 0 0 0 0 0 0 0 0 0 127 0" result="hardAlpha"/>
<feOffset dy="21"/>
<feGaussianBlur stdDeviation="6"/>
<feComposite in2="hardAlpha" operator="out"/>
<feColorMatrix type="matrix" values="0 0 0 0 0 0 0 0 0 0 0 0 0 0 0 0 0 0 0.25 0"/>
<feBlend mode="normal" in2="BackgroundImageFix" result="effect1_dropShadow_984_167"/>
<feBlend mode="normal" in="SourceGraphic" in2="effect1_dropShadow_984_167" result="shape"/>
</filter>
<filter id="filter1_d_984_167" x="1589" y="267.002" width="312" height="321" filterUnits="userSpaceOnUse" color-interpolation-filters="sRGB">
<feFlood flood-opacity="0" result="BackgroundImageFix"/>
<feColorMatrix in="SourceAlpha" type="matrix" values="0 0 0 0 0 0 0 0 0 0 0 0 0 0 0 0 0 0 127 0" result="hardAlpha"/>
<feOffset dy="21"/>
<feGaussianBlur stdDeviation="6"/>
<feComposite in2="hardAlpha" operator="out"/>
<feColorMatrix type="matrix" values="0 0 0 0 0 0 0 0 0 0 0 0 0 0 0 0 0 0 0.25 0"/>
<feBlend mode="normal" in2="BackgroundImageFix" result="effect1_dropShadow_984_167"/>
<feBlend mode="normal" in="SourceGraphic" in2="effect1_dropShadow_984_167" result="shape"/>
</filter>
<filter id="filter2_d_984_167" x="1706" y="503" width="76" height="85" filterUnits="userSpaceOnUse" color-interpolation-filters="sRGB">
<feFlood flood-opacity="0" result="BackgroundImageFix"/>
<feColorMatrix in="SourceAlpha" type="matrix" values="0 0 0 0 0 0 0 0 0 0 0 0 0 0 0 0 0 0 127 0" result="hardAlpha"/>
<feOffset dy="21"/>
<feGaussianBlur stdDeviation="6"/>
<feComposite in2="hardAlpha" operator="out"/>
<feColorMatrix type="matrix" values="0 0 0 0 0 0 0 0 0 0 0 0 0 0 0 0 0 0 0.25 0"/>
<feBlend mode="normal" in2="BackgroundImageFix" result="effect1_dropShadow_984_167"/>
<feBlend mode="normal" in="SourceGraphic" in2="effect1_dropShadow_984_167" result="shape"/>
</filter>
</defs>
</svg>
