<svg width="2164" height="1117" viewBox="0 0 2164 1117" fill="none" xmlns="http://www.w3.org/2000/svg">
<rect width="2163.1" height="1116.99" rx="85.05" transform="matrix(-1 0 0 1 2163.1 0)" fill="#171717"/>
<path d="M457.447 651V387.087H546.621C567.239 387.087 584.163 390.61 597.393 397.654C610.623 404.613 620.416 414.192 626.774 426.391C633.131 438.59 636.31 452.464 636.31 468.014C636.31 483.563 633.131 497.352 626.774 509.379C620.416 521.406 610.666 530.856 597.522 537.729C584.378 544.516 567.582 547.909 547.136 547.909H474.972V519.044H546.105C560.194 519.044 571.534 516.982 580.125 512.858C588.802 508.735 595.073 502.893 598.939 495.333C602.891 487.687 604.867 478.58 604.867 468.014C604.867 457.447 602.891 448.212 598.939 440.308C594.987 432.404 588.673 426.305 579.996 422.009C571.319 417.628 559.851 415.437 545.59 415.437H489.405V651H457.447ZM581.671 532.445L646.619 651H609.506L545.59 532.445H581.671ZM766.301 655.124C747.229 655.124 730.777 650.914 716.946 642.495C703.201 633.99 692.591 622.135 685.117 606.929C677.729 591.637 674.034 573.854 674.034 553.579C674.034 533.305 677.729 515.435 685.117 499.972C692.591 484.422 702.986 472.309 716.302 463.632C729.704 454.87 745.339 450.488 763.208 450.488C773.517 450.488 783.697 452.206 793.749 455.643C803.8 459.079 812.949 464.663 821.197 472.395C829.444 480.041 836.016 490.178 840.913 502.807C845.81 515.435 848.258 530.985 848.258 549.455V562.342H695.684V536.054H817.331C817.331 524.885 815.097 514.92 810.63 506.157C806.249 497.395 799.977 490.479 791.816 485.41C783.74 480.342 774.204 477.807 763.208 477.807C751.095 477.807 740.614 480.814 731.765 486.828C723.003 492.755 716.259 500.487 711.534 510.023C706.809 519.559 704.446 529.782 704.446 540.693V558.218C704.446 573.166 707.024 585.838 712.178 596.233C717.419 606.542 724.678 614.403 733.956 619.815C743.234 625.141 754.016 627.805 766.301 627.805C774.29 627.805 781.507 626.688 787.95 624.454C794.479 622.135 800.106 618.698 804.831 614.145C809.556 609.506 813.207 603.75 815.784 596.877L845.165 605.125C842.073 615.09 836.875 623.853 829.573 631.413C822.271 638.887 813.25 644.729 802.512 648.938C791.773 653.062 779.703 655.124 766.301 655.124ZM894.52 651V453.065H923.901V483.993H926.478C930.602 473.426 937.26 465.222 946.452 459.38C955.644 453.452 966.684 450.488 979.57 450.488C992.628 450.488 1003.5 453.452 1012.17 459.38C1020.94 465.222 1027.77 473.426 1032.66 483.993H1034.72C1039.79 473.77 1047.4 465.651 1057.53 459.638C1067.67 453.538 1079.83 450.488 1094 450.488C1111.7 450.488 1126.17 456.029 1137.43 467.112C1148.68 478.108 1154.31 495.247 1154.31 518.528V651H1123.9V518.528C1123.9 503.924 1119.9 493.486 1111.91 487.214C1103.92 480.943 1094.52 477.807 1083.69 477.807C1069.77 477.807 1058.99 482.017 1051.35 490.436C1043.7 498.769 1039.88 509.336 1039.88 522.136V651H1008.95V515.435C1008.95 504.181 1005.3 495.118 997.998 488.245C990.695 481.287 981.288 477.807 969.777 477.807C961.873 477.807 954.485 479.912 947.612 484.122C940.825 488.331 935.327 494.173 931.117 501.647C926.994 509.035 924.932 517.583 924.932 527.291V651H894.52ZM1290.32 655.124C1272.46 655.124 1256.78 650.871 1243.29 642.366C1229.89 633.861 1219.41 621.963 1211.85 606.671C1204.37 591.379 1200.64 573.51 1200.64 553.064C1200.64 532.445 1204.37 514.448 1211.85 499.07C1219.41 483.692 1229.89 471.751 1243.29 463.246C1256.78 454.741 1272.46 450.488 1290.32 450.488C1308.19 450.488 1323.83 454.741 1337.23 463.246C1350.72 471.751 1361.2 483.692 1368.67 499.07C1376.23 514.448 1380.01 532.445 1380.01 553.064C1380.01 573.51 1376.23 591.379 1368.67 606.671C1361.2 621.963 1350.72 633.861 1337.23 642.366C1323.83 650.871 1308.19 655.124 1290.32 655.124ZM1290.32 627.805C1303.9 627.805 1315.07 624.325 1323.83 617.367C1332.59 610.408 1339.08 601.259 1343.29 589.919C1347.5 578.579 1349.6 566.294 1349.6 553.064C1349.6 539.834 1347.5 527.506 1343.29 516.08C1339.08 504.654 1332.59 495.419 1323.83 488.374C1315.07 481.33 1303.9 477.807 1290.32 477.807C1276.75 477.807 1265.58 481.33 1256.82 488.374C1248.06 495.419 1241.57 504.654 1237.36 516.08C1233.15 527.506 1231.05 539.834 1231.05 553.064C1231.05 566.294 1233.15 578.579 1237.36 589.919C1241.57 601.259 1248.06 610.408 1256.82 617.367C1265.58 624.325 1276.75 627.805 1290.32 627.805ZM1512.52 453.065V478.838H1409.94V453.065H1512.52ZM1439.84 405.644H1470.25V594.3C1470.25 602.891 1471.5 609.334 1473.99 613.63C1476.56 617.839 1479.83 620.674 1483.78 622.135C1487.82 623.509 1492.07 624.196 1496.54 624.196C1499.89 624.196 1502.64 624.025 1504.79 623.681C1506.93 623.251 1508.65 622.908 1509.94 622.65L1516.13 649.969C1514.06 650.742 1511.19 651.515 1507.49 652.289C1503.8 653.148 1499.12 653.577 1493.45 653.577C1484.86 653.577 1476.44 651.73 1468.19 648.036C1460.03 644.342 1453.24 638.715 1447.83 631.155C1442.5 623.595 1439.84 614.059 1439.84 602.547V405.644ZM1639.13 655.124C1620.05 655.124 1603.6 650.914 1589.77 642.495C1576.03 633.99 1565.42 622.135 1557.94 606.929C1550.55 591.637 1546.86 573.854 1546.86 553.579C1546.86 533.305 1550.55 515.435 1557.94 499.972C1565.42 484.422 1575.81 472.309 1589.13 463.632C1602.53 454.87 1618.16 450.488 1636.03 450.488C1646.34 450.488 1656.52 452.206 1666.57 455.643C1676.63 459.079 1685.78 464.663 1694.02 472.395C1702.27 480.041 1708.84 490.178 1713.74 502.807C1718.64 515.435 1721.08 530.985 1721.08 549.455V562.342H1568.51V536.054H1690.16C1690.16 524.885 1687.92 514.92 1683.46 506.157C1679.07 497.395 1672.8 490.479 1664.64 485.41C1656.57 480.342 1647.03 477.807 1636.03 477.807C1623.92 477.807 1613.44 480.814 1604.59 486.828C1595.83 492.755 1589.08 500.487 1584.36 510.023C1579.63 519.559 1577.27 529.782 1577.27 540.693V558.218C1577.27 573.166 1579.85 585.838 1585 596.233C1590.24 606.542 1597.5 614.403 1606.78 619.815C1616.06 625.141 1626.84 627.805 1639.13 627.805C1647.12 627.805 1654.33 626.688 1660.78 624.454C1667.3 622.135 1672.93 618.698 1677.66 614.145C1682.38 609.506 1686.03 603.75 1688.61 596.877L1717.99 605.125C1714.9 615.09 1709.7 623.853 1702.4 631.413C1695.1 638.887 1686.08 644.729 1675.34 648.938C1664.6 653.062 1652.53 655.124 1639.13 655.124Z" fill="white"/>
<g filter="url(#filter0_d_984_162)">
<path d="M1082 65L1191.99 406.25H972.015L1082 65Z" fill="#424242"/>
</g>
<g filter="url(#filter1_d_984_162)">
<path d="M2125 558L1783.75 667.985L1783.75 448.015L2125 558Z" fill="#424242"/>
</g>
<g filter="url(#filter2_d_984_162)">
<path d="M38.105 558L379.355 667.985L379.355 448.015L38.105 558Z" fill="#424242"/>
</g>
<g filter="url(#filter3_d_984_162)">
<path d="M1082 1051.99L1191.99 710.74H972.015L1082 1051.99Z" fill="#424242"/>
</g>
<defs>
<filter id="filter0_d_984_162" x="969.015" y="65" width="227.971" height="370.25" filterUnits="userSpaceOnUse" color-interpolation-filters="sRGB">
<feFlood flood-opacity="0" result="BackgroundImageFix"/>
<feColorMatrix in="SourceAlpha" type="matrix" values="0 0 0 0 0 0 0 0 0 0 0 0 0 0 0 0 0 0 127 0" result="hardAlpha"/>
<feOffset dx="1" dy="25"/>
<feGaussianBlur stdDeviation="2"/>
<feComposite in2="hardAlpha" operator="out"/>
<feColorMatrix type="matrix" values="0 0 0 0 0 0 0 0 0 0 0 0 0 0 0 0 0 0 0.25 0"/>
<feBlend mode="normal" in2="BackgroundImageFix" result="effect1_dropShadow_984_162"/>
<feBlend mode="normal" in="SourceGraphic" in2="effect1_dropShadow_984_162" result="shape"/>
</filter>
<filter id="filter1_d_984_162" x="1780.75" y="448.015" width="349.25" height="248.97" filterUnits="userSpaceOnUse" color-interpolation-filters="sRGB">
<feFlood flood-opacity="0" result="BackgroundImageFix"/>
<feColorMatrix in="SourceAlpha" type="matrix" values="0 0 0 0 0 0 0 0 0 0 0 0 0 0 0 0 0 0 127 0" result="hardAlpha"/>
<feOffset dx="1" dy="25"/>
<feGaussianBlur stdDeviation="2"/>
<feComposite in2="hardAlpha" operator="out"/>
<feColorMatrix type="matrix" values="0 0 0 0 0 0 0 0 0 0 0 0 0 0 0 0 0 0 0.25 0"/>
<feBlend mode="normal" in2="BackgroundImageFix" result="effect1_dropShadow_984_162"/>
<feBlend mode="normal" in="SourceGraphic" in2="effect1_dropShadow_984_162" result="shape"/>
</filter>
<filter id="filter2_d_984_162" x="35.105" y="448.015" width="349.25" height="248.97" filterUnits="userSpaceOnUse" color-interpolation-filters="sRGB">
<feFlood flood-opacity="0" result="BackgroundImageFix"/>
<feColorMatrix in="SourceAlpha" type="matrix" values="0 0 0 0 0 0 0 0 0 0 0 0 0 0 0 0 0 0 127 0" result="hardAlpha"/>
<feOffset dx="1" dy="25"/>
<feGaussianBlur stdDeviation="2"/>
<feComposite in2="hardAlpha" operator="out"/>
<feColorMatrix type="matrix" values="0 0 0 0 0 0 0 0 0 0 0 0 0 0 0 0 0 0 0.25 0"/>
<feBlend mode="normal" in2="BackgroundImageFix" result="effect1_dropShadow_984_162"/>
<feBlend mode="normal" in="SourceGraphic" in2="effect1_dropShadow_984_162" result="shape"/>
</filter>
<filter id="filter3_d_984_162" x="969.015" y="710.74" width="227.971" height="370.25" filterUnits="userSpaceOnUse" color-interpolation-filters="sRGB">
<feFlood flood-opacity="0" result="BackgroundImageFix"/>
<feColorMatrix in="SourceAlpha" type="matrix" values="0 0 0 0 0 0 0 0 0 0 0 0 0 0 0 0 0 0 127 0" result="hardAlpha"/>
<feOffset dx="1" dy="25"/>
<feGaussianBlur stdDeviation="2"/>
<feComposite in2="hardAlpha" operator="out"/>
<feColorMatrix type="matrix" values="0 0 0 0 0 0 0 0 0 0 0 0 0 0 0 0 0 0 0.25 0"/>
<feBlend mode="normal" in2="BackgroundImageFix" result="effect1_dropShadow_984_162"/>
<feBlend mode="normal" in="SourceGraphic" in2="effect1_dropShadow_984_162" result="shape"/>
</filter>
</defs>
</svg>
