<svg width="2164" height="1117" viewBox="0 0 2164 1117" fill="none" xmlns="http://www.w3.org/2000/svg">
<rect width="2163.1" height="1116.99" rx="85.05" fill="#171717"/>
<path d="M85.8234 131.427C81.5709 131.427 77.7801 130.697 74.4512 129.237C71.1437 127.776 68.5127 125.747 66.5583 123.148C64.6253 120.528 63.5729 117.489 63.4011 114.031H71.5195C71.6913 116.157 72.4216 117.993 73.7102 119.54C74.9988 121.065 76.6848 122.246 78.7681 123.084C80.8514 123.921 83.1602 124.34 85.6945 124.34C88.5295 124.34 91.0424 123.846 93.233 122.858C95.4237 121.87 97.1419 120.496 98.3876 118.734C99.6333 116.973 100.256 114.933 100.256 112.613C100.256 110.186 99.6547 108.049 98.452 106.202C97.2493 104.334 95.4881 102.873 93.1686 101.821C90.8491 100.769 88.0141 100.242 84.6636 100.242H79.3802V93.1549H84.6636C87.2838 93.1549 89.5819 92.6824 91.5578 91.7374C93.5552 90.7924 95.1123 89.4608 96.2291 87.7427C97.3674 86.0245 97.9366 84.0056 97.9366 81.6861C97.9366 79.4524 97.4426 77.5087 96.4546 75.855C95.4667 74.2012 94.0706 72.9126 92.2666 71.9891C90.4839 71.0656 88.3792 70.6038 85.9522 70.6038C83.6756 70.6038 81.5279 71.0226 79.5091 71.8602C77.5117 72.6764 75.8794 73.8683 74.6122 75.4362C73.3451 76.9826 72.6578 78.8511 72.5504 81.0418H64.8186C64.9475 77.5839 65.9891 74.5556 67.9435 71.9569C69.898 69.3366 72.4538 67.2963 75.6109 65.8358C78.7896 64.3754 82.2796 63.6452 86.0811 63.6452C90.1618 63.6452 93.6626 64.472 96.5835 66.1258C99.5044 67.7581 101.749 69.9165 103.317 72.6012C104.884 75.2858 105.668 78.1853 105.668 81.2995C105.668 85.0151 104.691 88.1829 102.737 90.8032C100.804 93.4234 98.1728 95.2382 94.8438 96.2477V96.7631C99.0104 97.4504 102.264 99.2223 104.605 102.079C106.946 104.914 108.117 108.425 108.117 112.613C108.117 116.2 107.14 119.422 105.185 122.278C103.252 125.113 100.61 127.347 97.26 128.979C93.9096 130.611 90.0974 131.427 85.8234 131.427ZM124.925 131.041C123.336 131.041 121.972 130.472 120.834 129.333C119.696 128.195 119.127 126.831 119.127 125.242C119.127 123.653 119.696 122.289 120.834 121.151C121.972 120.012 123.336 119.443 124.925 119.443C126.515 119.443 127.879 120.012 129.017 121.151C130.155 122.289 130.724 123.653 130.724 125.242C130.724 126.294 130.456 127.261 129.919 128.141C129.403 129.022 128.705 129.731 127.825 130.268C126.966 130.783 125.999 131.041 124.925 131.041Z" fill="white"/>
<path d="M679.165 782.048V823.284H674.332L651.862 790.907H651.459V823.284H646.466V782.048H651.298L673.849 814.505H674.252V782.048H679.165ZM701.077 823.928C698.285 823.928 695.835 823.264 693.727 821.935C691.633 820.606 689.996 818.747 688.814 816.358C687.647 813.968 687.063 811.176 687.063 807.982C687.063 804.76 687.647 801.948 688.814 799.545C689.996 797.142 691.633 795.276 693.727 793.948C695.835 792.619 698.285 791.954 701.077 791.954C703.869 791.954 706.312 792.619 708.406 793.948C710.513 795.276 712.151 797.142 713.319 799.545C714.5 801.948 715.091 804.76 715.091 807.982C715.091 811.176 714.5 813.968 713.319 816.358C712.151 818.747 710.513 820.606 708.406 821.935C706.312 823.264 703.869 823.928 701.077 823.928ZM701.077 819.66C703.197 819.66 704.943 819.116 706.312 818.029C707.681 816.942 708.694 815.512 709.352 813.74C710.01 811.968 710.339 810.049 710.339 807.982C710.339 805.914 710.01 803.988 709.352 802.203C708.694 800.418 707.681 798.975 706.312 797.874C704.943 796.773 703.197 796.223 701.077 796.223C698.956 796.223 697.211 796.773 695.842 797.874C694.472 798.975 693.459 800.418 692.801 802.203C692.143 803.988 691.815 805.914 691.815 807.982C691.815 810.049 692.143 811.968 692.801 813.74C693.459 815.512 694.472 816.942 695.842 818.029C697.211 819.116 698.956 819.66 701.077 819.66ZM728.299 823.284L718.876 792.357H723.869L730.554 816.036H730.876L737.481 792.357H742.555L749.078 815.955H749.4L756.085 792.357H761.079L751.656 823.284H746.984L740.219 799.525H739.736L732.97 823.284H728.299ZM770.24 817.646L769.918 819.821C769.69 821.351 769.341 822.989 768.871 824.734C768.415 826.479 767.938 828.123 767.441 829.667C766.945 831.211 766.535 832.439 766.213 833.352H762.589C762.763 832.493 762.992 831.358 763.273 829.949C763.555 828.539 763.837 826.962 764.119 825.217C764.414 823.486 764.656 821.714 764.844 819.902L765.086 817.646H770.24ZM794.991 823.284V792.357H799.582V797.189H799.984C800.629 795.538 801.669 794.256 803.105 793.344C804.542 792.417 806.267 791.954 808.28 791.954C810.32 791.954 812.018 792.417 813.374 793.344C814.743 794.256 815.811 795.538 816.576 797.189H816.898C817.69 795.592 818.878 794.323 820.462 793.384C822.046 792.431 823.945 791.954 826.16 791.954C828.925 791.954 831.187 792.82 832.945 794.552C834.704 796.27 835.583 798.948 835.583 802.585V823.284H830.831V802.585C830.831 800.303 830.207 798.673 828.959 797.693C827.71 796.713 826.24 796.223 824.549 796.223C822.375 796.223 820.69 796.881 819.495 798.196C818.301 799.498 817.703 801.149 817.703 803.149V823.284H812.871V802.102C812.871 800.344 812.3 798.928 811.159 797.854C810.018 796.766 808.549 796.223 806.75 796.223C805.515 796.223 804.36 796.552 803.287 797.209C802.226 797.867 801.367 798.78 800.709 799.948C800.065 801.102 799.743 802.438 799.743 803.955V823.284H794.991ZM853.372 824.009C851.412 824.009 849.634 823.64 848.037 822.902C846.439 822.15 845.171 821.069 844.231 819.66C843.291 818.237 842.822 816.519 842.822 814.505C842.822 812.733 843.171 811.297 843.869 810.196C844.567 809.082 845.499 808.21 846.667 807.579C847.835 806.948 849.124 806.478 850.533 806.169C851.956 805.847 853.386 805.592 854.822 805.404C856.701 805.163 858.225 804.982 859.393 804.861C860.574 804.726 861.433 804.505 861.97 804.196C862.52 803.888 862.795 803.351 862.795 802.585V802.424C862.795 800.438 862.252 798.894 861.164 797.793C860.091 796.693 858.46 796.142 856.272 796.142C854.003 796.142 852.225 796.639 850.936 797.632C849.647 798.626 848.741 799.686 848.218 800.814L843.707 799.203C844.513 797.324 845.587 795.86 846.929 794.813C848.285 793.753 849.761 793.015 851.359 792.599C852.97 792.169 854.554 791.954 856.111 791.954C857.104 791.954 858.245 792.075 859.534 792.317C860.836 792.545 862.091 793.021 863.299 793.746C864.52 794.471 865.534 795.565 866.339 797.028C867.145 798.491 867.547 800.451 867.547 802.908V823.284H862.795V819.096H862.554C862.232 819.767 861.695 820.485 860.943 821.251C860.191 822.016 859.191 822.667 857.943 823.204C856.695 823.741 855.171 824.009 853.372 824.009ZM854.097 819.74C855.976 819.74 857.56 819.371 858.849 818.633C860.151 817.895 861.131 816.942 861.789 815.774C862.46 814.606 862.795 813.378 862.795 812.089V807.74C862.594 807.982 862.151 808.203 861.467 808.404C860.795 808.592 860.017 808.76 859.131 808.908C858.258 809.042 857.406 809.163 856.574 809.27C855.755 809.364 855.09 809.445 854.58 809.512C853.345 809.673 852.191 809.935 851.117 810.297C850.057 810.646 849.198 811.176 848.54 811.888C847.896 812.586 847.573 813.539 847.573 814.747C847.573 816.398 848.184 817.646 849.406 818.492C850.641 819.324 852.204 819.74 854.097 819.74ZM880.65 812.009L880.57 806.129H881.536L895.067 792.357H900.946L886.529 806.935H886.127L880.65 812.009ZM876.22 823.284V782.048H880.972V823.284H876.22ZM895.872 823.284L883.791 807.982L887.174 804.679L901.913 823.284H895.872ZM918.755 823.928C915.776 823.928 913.205 823.271 911.044 821.955C908.896 820.626 907.238 818.774 906.07 816.398C904.916 814.009 904.339 811.23 904.339 808.062C904.339 804.894 904.916 802.102 906.07 799.686C907.238 797.256 908.863 795.364 910.943 794.008C913.037 792.639 915.48 791.954 918.272 791.954C919.883 791.954 921.474 792.223 923.044 792.76C924.615 793.297 926.044 794.169 927.333 795.377C928.622 796.572 929.648 798.156 930.414 800.129C931.179 802.102 931.561 804.532 931.561 807.418V809.431H907.722V805.324H926.729C926.729 803.579 926.38 802.022 925.682 800.653C924.997 799.283 924.017 798.203 922.742 797.411C921.48 796.619 919.99 796.223 918.272 796.223C916.38 796.223 914.742 796.693 913.359 797.632C911.99 798.558 910.936 799.767 910.198 801.257C909.46 802.747 909.091 804.344 909.091 806.049V808.787C909.091 811.123 909.493 813.103 910.299 814.727C911.118 816.338 912.252 817.566 913.702 818.412C915.151 819.244 916.836 819.66 918.755 819.66C920.004 819.66 921.131 819.485 922.138 819.136C923.158 818.774 924.038 818.237 924.776 817.526C925.514 816.801 926.085 815.901 926.487 814.828L931.078 816.116C930.595 817.673 929.783 819.042 928.642 820.224C927.501 821.391 926.091 822.304 924.413 822.962C922.735 823.606 920.85 823.928 918.755 823.928ZM976.643 799.283L972.375 800.491C972.106 799.78 971.71 799.089 971.187 798.418C970.677 797.733 969.979 797.169 969.093 796.726C968.207 796.283 967.073 796.062 965.69 796.062C963.797 796.062 962.22 796.498 960.958 797.371C959.71 798.23 959.086 799.324 959.086 800.653C959.086 801.834 959.515 802.767 960.374 803.451C961.233 804.136 962.576 804.706 964.401 805.163L968.992 806.29C971.757 806.961 973.818 807.988 975.174 809.371C976.529 810.74 977.207 812.505 977.207 814.666C977.207 816.438 976.697 818.022 975.677 819.418C974.67 820.814 973.261 821.915 971.449 822.72C969.636 823.526 967.529 823.928 965.126 823.928C961.972 823.928 959.361 823.244 957.294 821.875C955.227 820.506 953.918 818.505 953.367 815.875L957.878 814.747C958.307 816.411 959.119 817.66 960.314 818.492C961.522 819.324 963.099 819.74 965.046 819.74C967.261 819.74 969.019 819.271 970.321 818.331C971.637 817.378 972.294 816.237 972.294 814.908C972.294 813.834 971.918 812.935 971.167 812.21C970.415 811.472 969.261 810.921 967.704 810.559L962.549 809.351C959.717 808.68 957.636 807.639 956.307 806.23C954.992 804.807 954.334 803.028 954.334 800.894C954.334 799.149 954.824 797.605 955.804 796.263C956.797 794.921 958.146 793.867 959.851 793.102C961.569 792.337 963.515 791.954 965.69 791.954C968.751 791.954 971.153 792.625 972.898 793.968C974.657 795.31 975.905 797.082 976.643 799.283ZM996.924 823.928C994.132 823.928 991.683 823.264 989.575 821.935C987.481 820.606 985.843 818.747 984.662 816.358C983.494 813.968 982.91 811.176 982.91 807.982C982.91 804.76 983.494 801.948 984.662 799.545C985.843 797.142 987.481 795.276 989.575 793.948C991.683 792.619 994.132 791.954 996.924 791.954C999.716 791.954 1002.16 792.619 1004.25 793.948C1006.36 795.276 1008 797.142 1009.17 799.545C1010.35 801.948 1010.94 804.76 1010.94 807.982C1010.94 811.176 1010.35 813.968 1009.17 816.358C1008 818.747 1006.36 820.606 1004.25 821.935C1002.16 823.264 999.716 823.928 996.924 823.928ZM996.924 819.66C999.045 819.66 1000.79 819.116 1002.16 818.029C1003.53 816.942 1004.54 815.512 1005.2 813.74C1005.86 811.968 1006.19 810.049 1006.19 807.982C1006.19 805.914 1005.86 803.988 1005.2 802.203C1004.54 800.418 1003.53 798.975 1002.16 797.874C1000.79 796.773 999.045 796.223 996.924 796.223C994.803 796.223 993.058 796.773 991.689 797.874C990.32 798.975 989.307 800.418 988.649 802.203C987.991 803.988 987.662 805.914 987.662 807.982C987.662 810.049 987.991 811.968 988.649 813.74C989.307 815.512 990.32 816.942 991.689 818.029C993.058 819.116 994.803 819.66 996.924 819.66ZM1018.19 823.284V792.357H1022.78V797.189H1023.19C1023.83 795.538 1024.87 794.256 1026.31 793.344C1027.74 792.417 1029.47 791.954 1031.48 791.954C1033.52 791.954 1035.22 792.417 1036.58 793.344C1037.94 794.256 1039.01 795.538 1039.78 797.189H1040.1C1040.89 795.592 1042.08 794.323 1043.66 793.384C1045.25 792.431 1047.15 791.954 1049.36 791.954C1052.13 791.954 1054.39 792.82 1056.15 794.552C1057.9 796.27 1058.78 798.948 1058.78 802.585V823.284H1054.03V802.585C1054.03 800.303 1053.41 798.673 1052.16 797.693C1050.91 796.713 1049.44 796.223 1047.75 796.223C1045.58 796.223 1043.89 796.881 1042.7 798.196C1041.5 799.498 1040.9 801.149 1040.9 803.149V823.284H1036.07V802.102C1036.07 800.344 1035.5 798.928 1034.36 797.854C1033.22 796.766 1031.75 796.223 1029.95 796.223C1028.72 796.223 1027.56 796.552 1026.49 797.209C1025.43 797.867 1024.57 798.78 1023.91 799.948C1023.27 801.102 1022.94 802.438 1022.94 803.955V823.284H1018.19ZM1080.44 823.928C1077.46 823.928 1074.89 823.271 1072.73 821.955C1070.58 820.626 1068.92 818.774 1067.75 816.398C1066.6 814.009 1066.02 811.23 1066.02 808.062C1066.02 804.894 1066.6 802.102 1067.75 799.686C1068.92 797.256 1070.55 795.364 1072.63 794.008C1074.72 792.639 1077.16 791.954 1079.96 791.954C1081.57 791.954 1083.16 792.223 1084.73 792.76C1086.3 793.297 1087.73 794.169 1089.02 795.377C1090.31 796.572 1091.33 798.156 1092.1 800.129C1092.86 802.102 1093.24 804.532 1093.24 807.418V809.431H1069.41V805.324H1088.41C1088.41 803.579 1088.06 802.022 1087.37 800.653C1086.68 799.283 1085.7 798.203 1084.43 797.411C1083.16 796.619 1081.67 796.223 1079.96 796.223C1078.06 796.223 1076.43 796.693 1075.04 797.632C1073.67 798.558 1072.62 799.767 1071.88 801.257C1071.14 802.747 1070.77 804.344 1070.77 806.049V808.787C1070.77 811.123 1071.18 813.103 1071.98 814.727C1072.8 816.338 1073.94 817.566 1075.39 818.412C1076.83 819.244 1078.52 819.66 1080.44 819.66C1081.69 819.66 1082.81 819.485 1083.82 819.136C1084.84 818.774 1085.72 818.237 1086.46 817.526C1087.2 816.801 1087.77 815.901 1088.17 814.828L1092.76 816.116C1092.28 817.673 1091.47 819.042 1090.33 820.224C1089.18 821.391 1087.77 822.304 1086.1 822.962C1084.42 823.606 1082.53 823.928 1080.44 823.928ZM1113.92 792.357V796.384H1097.9V792.357H1113.92ZM1102.57 784.947H1107.32V814.425C1107.32 815.767 1107.51 816.774 1107.9 817.445C1108.31 818.103 1108.82 818.546 1109.43 818.774C1110.06 818.989 1110.73 819.096 1111.43 819.096C1111.95 819.096 1112.38 819.069 1112.72 819.016C1113.05 818.948 1113.32 818.895 1113.52 818.854L1114.49 823.123C1114.17 823.244 1113.72 823.365 1113.14 823.486C1112.56 823.62 1111.83 823.687 1110.94 823.687C1109.6 823.687 1108.29 823.398 1107 822.821C1105.72 822.244 1104.66 821.365 1103.82 820.183C1102.98 819.002 1102.57 817.512 1102.57 815.713V784.947ZM1126.49 804.679V823.284H1121.74V782.048H1126.49V797.189H1126.89C1127.62 795.592 1128.7 794.323 1130.15 793.384C1131.62 792.431 1133.56 791.954 1135.99 791.954C1138.1 791.954 1139.94 792.377 1141.53 793.223C1143.11 794.055 1144.34 795.337 1145.21 797.068C1146.1 798.787 1146.54 800.975 1146.54 803.632V823.284H1141.79V803.955C1141.79 801.498 1141.15 799.599 1139.88 798.256C1138.62 796.901 1136.86 796.223 1134.62 796.223C1133.07 796.223 1131.67 796.552 1130.43 797.209C1129.21 797.867 1128.25 798.827 1127.53 800.089C1126.84 801.351 1126.49 802.881 1126.49 804.679ZM1155.24 823.284V792.357H1159.99V823.284H1155.24ZM1157.65 787.202C1156.73 787.202 1155.93 786.887 1155.26 786.256C1154.6 785.625 1154.27 784.867 1154.27 783.981C1154.27 783.095 1154.6 782.336 1155.26 781.706C1155.93 781.075 1156.73 780.759 1157.65 780.759C1158.58 780.759 1159.37 781.075 1160.03 781.706C1160.7 782.336 1161.03 783.095 1161.03 783.981C1161.03 784.867 1160.7 785.625 1160.03 786.256C1159.37 786.887 1158.58 787.202 1157.65 787.202ZM1173.44 804.679V823.284H1168.69V792.357H1173.28V797.189H1173.68C1174.41 795.619 1175.51 794.357 1176.99 793.404C1178.46 792.437 1180.37 791.954 1182.7 791.954C1184.8 791.954 1186.63 792.384 1188.2 793.243C1189.77 794.089 1190.99 795.377 1191.87 797.109C1192.74 798.827 1193.17 801.002 1193.17 803.632V823.284H1188.42V803.955C1188.42 801.525 1187.79 799.632 1186.53 798.277C1185.27 796.907 1183.54 796.223 1181.34 796.223C1179.82 796.223 1178.46 796.552 1177.27 797.209C1176.09 797.867 1175.15 798.827 1174.47 800.089C1173.78 801.351 1173.44 802.881 1173.44 804.679ZM1214.34 835.526C1212.05 835.526 1210.07 835.231 1208.42 834.64C1206.77 834.063 1205.39 833.298 1204.29 832.345C1203.21 831.405 1202.34 830.399 1201.7 829.325L1205.48 826.667C1205.91 827.231 1206.46 827.875 1207.11 828.6C1207.77 829.338 1208.67 829.976 1209.81 830.513C1210.97 831.063 1212.48 831.338 1214.34 831.338C1216.84 831.338 1218.9 830.734 1220.52 829.526C1222.15 828.318 1222.96 826.425 1222.96 823.848V817.566H1222.56C1222.21 818.13 1221.71 818.828 1221.07 819.66C1220.44 820.479 1219.52 821.21 1218.33 821.855C1217.15 822.485 1215.55 822.801 1213.54 822.801C1211.04 822.801 1208.8 822.21 1206.81 821.029C1204.84 819.848 1203.27 818.13 1202.12 815.875C1200.98 813.619 1200.41 810.881 1200.41 807.659C1200.41 804.492 1200.97 801.733 1202.08 799.384C1203.19 797.022 1204.74 795.196 1206.73 793.907C1208.72 792.605 1211.01 791.954 1213.62 791.954C1215.63 791.954 1217.23 792.29 1218.41 792.961C1219.6 793.619 1220.52 794.37 1221.15 795.216C1221.79 796.048 1222.29 796.733 1222.64 797.27H1223.12V792.357H1227.71V824.17C1227.71 826.828 1227.11 828.989 1225.9 830.654C1224.7 832.331 1223.09 833.56 1221.07 834.338C1219.05 835.13 1216.81 835.526 1214.34 835.526ZM1214.18 818.532C1216.09 818.532 1217.7 818.096 1219.01 817.224C1220.33 816.351 1221.33 815.096 1222.01 813.458C1222.7 811.821 1223.04 809.861 1223.04 807.579C1223.04 805.351 1222.7 803.384 1222.03 801.679C1221.36 799.975 1220.37 798.639 1219.05 797.673C1217.74 796.706 1216.11 796.223 1214.18 796.223C1212.17 796.223 1210.49 796.733 1209.15 797.753C1207.82 798.773 1206.82 800.142 1206.15 801.861C1205.49 803.579 1205.16 805.485 1205.16 807.579C1205.16 809.727 1205.5 811.626 1206.17 813.277C1206.85 814.915 1207.86 816.203 1209.19 817.143C1210.53 818.069 1212.19 818.532 1214.18 818.532ZM1265.81 792.357V796.384H1249.78V792.357H1265.81ZM1254.45 784.947H1259.2V814.425C1259.2 815.767 1259.4 816.774 1259.79 817.445C1260.19 818.103 1260.7 818.546 1261.32 818.774C1261.95 818.989 1262.61 819.096 1263.31 819.096C1263.83 819.096 1264.26 819.069 1264.6 819.016C1264.93 818.948 1265.2 818.895 1265.4 818.854L1266.37 823.123C1266.05 823.244 1265.6 823.365 1265.02 823.486C1264.44 823.62 1263.71 823.687 1262.83 823.687C1261.48 823.687 1260.17 823.398 1258.88 822.821C1257.6 822.244 1256.54 821.365 1255.7 820.183C1254.87 819.002 1254.45 817.512 1254.45 815.713V784.947ZM1285.19 823.928C1282.39 823.928 1279.94 823.264 1277.84 821.935C1275.74 820.606 1274.11 818.747 1272.92 816.358C1271.76 813.968 1271.17 811.176 1271.17 807.982C1271.17 804.76 1271.76 801.948 1272.92 799.545C1274.11 797.142 1275.74 795.276 1277.84 793.948C1279.94 792.619 1282.39 791.954 1285.19 791.954C1287.98 791.954 1290.42 792.619 1292.52 793.948C1294.62 795.276 1296.26 797.142 1297.43 799.545C1298.61 801.948 1299.2 804.76 1299.2 807.982C1299.2 811.176 1298.61 813.968 1297.43 816.358C1296.26 818.747 1294.62 820.606 1292.52 821.935C1290.42 823.264 1287.98 823.928 1285.19 823.928ZM1285.19 819.66C1287.31 819.66 1289.05 819.116 1290.42 818.029C1291.79 816.942 1292.8 815.512 1293.46 813.74C1294.12 811.968 1294.45 810.049 1294.45 807.982C1294.45 805.914 1294.12 803.988 1293.46 802.203C1292.8 800.418 1291.79 798.975 1290.42 797.874C1289.05 796.773 1287.31 796.223 1285.19 796.223C1283.07 796.223 1281.32 796.773 1279.95 797.874C1278.58 798.975 1277.57 800.418 1276.91 802.203C1276.25 803.988 1275.92 805.914 1275.92 807.982C1275.92 810.049 1276.25 811.968 1276.91 813.74C1277.57 815.512 1278.58 816.942 1279.95 818.029C1281.32 819.116 1283.07 819.66 1285.19 819.66ZM1334.96 823.928C1332.07 823.928 1329.57 823.244 1327.47 821.875C1325.38 820.506 1323.77 818.62 1322.64 816.217C1321.51 813.814 1320.95 811.069 1320.95 807.982C1320.95 804.841 1321.53 802.069 1322.68 799.666C1323.85 797.25 1325.47 795.364 1327.56 794.008C1329.65 792.639 1332.09 791.954 1334.88 791.954C1337.06 791.954 1339.02 792.357 1340.76 793.162C1342.51 793.968 1343.94 795.095 1345.05 796.545C1346.17 797.995 1346.86 799.686 1347.13 801.619H1342.37C1342.01 800.21 1341.21 798.961 1339.96 797.874C1338.72 796.773 1337.06 796.223 1334.96 796.223C1333.11 796.223 1331.49 796.706 1330.09 797.673C1328.71 798.626 1327.63 799.975 1326.85 801.72C1326.09 803.451 1325.7 805.485 1325.7 807.821C1325.7 810.21 1326.08 812.291 1326.83 814.062C1327.6 815.834 1328.67 817.21 1330.05 818.19C1331.45 819.17 1333.09 819.66 1334.96 819.66C1336.2 819.66 1337.32 819.445 1338.33 819.016C1339.33 818.586 1340.19 817.969 1340.88 817.163C1341.58 816.358 1342.08 815.391 1342.37 814.264H1347.13C1346.86 816.089 1346.19 817.734 1345.13 819.197C1344.09 820.647 1342.7 821.801 1340.97 822.66C1339.25 823.506 1337.25 823.928 1334.96 823.928ZM1366.64 823.928C1363.85 823.928 1361.4 823.264 1359.29 821.935C1357.19 820.606 1355.56 818.747 1354.37 816.358C1353.21 813.968 1352.62 811.176 1352.62 807.982C1352.62 804.76 1353.21 801.948 1354.37 799.545C1355.56 797.142 1357.19 795.276 1359.29 793.948C1361.4 792.619 1363.85 791.954 1366.64 791.954C1369.43 791.954 1371.87 792.619 1373.97 793.948C1376.07 795.276 1377.71 797.142 1378.88 799.545C1380.06 801.948 1380.65 804.76 1380.65 807.982C1380.65 811.176 1380.06 813.968 1378.88 816.358C1377.71 818.747 1376.07 820.606 1373.97 821.935C1371.87 823.264 1369.43 823.928 1366.64 823.928ZM1366.64 819.66C1368.76 819.66 1370.5 819.116 1371.87 818.029C1373.24 816.942 1374.25 815.512 1374.91 813.74C1375.57 811.968 1375.9 810.049 1375.9 807.982C1375.9 805.914 1375.57 803.988 1374.91 802.203C1374.25 800.418 1373.24 798.975 1371.87 797.874C1370.5 796.773 1368.76 796.223 1366.64 796.223C1364.52 796.223 1362.77 796.773 1361.4 797.874C1360.03 798.975 1359.02 800.418 1358.36 802.203C1357.7 803.988 1357.38 805.914 1357.38 807.982C1357.38 810.049 1357.7 811.968 1358.36 813.74C1359.02 815.512 1360.03 816.942 1361.4 818.029C1362.77 819.116 1364.52 819.66 1366.64 819.66ZM1392.66 804.679V823.284H1387.9V792.357H1392.5V797.189H1392.9C1393.62 795.619 1394.72 794.357 1396.2 793.404C1397.68 792.437 1399.58 791.954 1401.92 791.954C1404.01 791.954 1405.84 792.384 1407.42 793.243C1408.99 794.089 1410.21 795.377 1411.08 797.109C1411.95 798.827 1412.39 801.002 1412.39 803.632V823.284H1407.64V803.955C1407.64 801.525 1407.01 799.632 1405.74 798.277C1404.48 796.907 1402.75 796.223 1400.55 796.223C1399.03 796.223 1397.68 796.552 1396.48 797.209C1395.3 797.867 1394.37 798.827 1393.68 800.089C1393 801.351 1392.66 802.881 1392.66 804.679ZM1434.52 792.357V796.384H1418.49V792.357H1434.52ZM1423.17 784.947H1427.92V814.425C1427.92 815.767 1428.11 816.774 1428.5 817.445C1428.9 818.103 1429.41 818.546 1430.03 818.774C1430.66 818.989 1431.33 819.096 1432.03 819.096C1432.55 819.096 1432.98 819.069 1433.31 819.016C1433.65 818.948 1433.92 818.895 1434.12 818.854L1435.09 823.123C1434.76 823.244 1434.31 823.365 1433.74 823.486C1433.16 823.62 1432.43 823.687 1431.54 823.687C1430.2 823.687 1428.88 823.398 1427.6 822.821C1426.32 822.244 1425.26 821.365 1424.41 820.183C1423.58 819.002 1423.17 817.512 1423.17 815.713V784.947ZM1441.67 823.284V792.357H1446.26V797.028H1446.58C1447.15 795.498 1448.17 794.256 1449.64 793.303C1451.12 792.35 1452.78 791.874 1454.64 791.874C1454.99 791.874 1455.42 791.88 1455.95 791.894C1456.47 791.907 1456.87 791.927 1457.13 791.954V796.787C1456.97 796.746 1456.6 796.686 1456.03 796.605C1455.46 796.511 1454.87 796.464 1454.23 796.464C1452.73 796.464 1451.39 796.78 1450.21 797.411C1449.04 798.028 1448.11 798.887 1447.43 799.988C1446.76 801.075 1446.42 802.317 1446.42 803.713V823.284H1441.67ZM1474.39 823.928C1471.6 823.928 1469.15 823.264 1467.04 821.935C1464.95 820.606 1463.31 818.747 1462.13 816.358C1460.96 813.968 1460.38 811.176 1460.38 807.982C1460.38 804.76 1460.96 801.948 1462.13 799.545C1463.31 797.142 1464.95 795.276 1467.04 793.948C1469.15 792.619 1471.6 791.954 1474.39 791.954C1477.18 791.954 1479.62 792.619 1481.72 793.948C1483.83 795.276 1485.46 797.142 1486.63 799.545C1487.81 801.948 1488.4 804.76 1488.4 807.982C1488.4 811.176 1487.81 813.968 1486.63 816.358C1485.46 818.747 1483.83 820.606 1481.72 821.935C1479.62 823.264 1477.18 823.928 1474.39 823.928ZM1474.39 819.66C1476.51 819.66 1478.26 819.116 1479.62 818.029C1480.99 816.942 1482.01 815.512 1482.66 813.74C1483.32 811.968 1483.65 810.049 1483.65 807.982C1483.65 805.914 1483.32 803.988 1482.66 802.203C1482.01 800.418 1480.99 798.975 1479.62 797.874C1478.26 796.773 1476.51 796.223 1474.39 796.223C1472.27 796.223 1470.52 796.773 1469.15 797.874C1467.79 798.975 1466.77 800.418 1466.11 802.203C1465.46 803.988 1465.13 805.914 1465.13 807.982C1465.13 810.049 1465.46 811.968 1466.11 813.74C1466.77 815.512 1467.79 816.942 1469.15 818.029C1470.52 819.116 1472.27 819.66 1474.39 819.66ZM1500.41 782.048V823.284H1495.66V782.048H1500.41ZM1512.58 823.606C1511.58 823.606 1510.73 823.251 1510.02 822.539C1509.31 821.828 1508.95 820.975 1508.95 819.982C1508.95 818.989 1509.31 818.136 1510.02 817.425C1510.73 816.713 1511.58 816.358 1512.58 816.358C1513.57 816.358 1514.42 816.713 1515.13 817.425C1515.84 818.136 1516.2 818.989 1516.2 819.982C1516.2 820.64 1516.03 821.244 1515.7 821.794C1515.37 822.345 1514.94 822.788 1514.39 823.123C1513.85 823.445 1513.25 823.606 1512.58 823.606ZM432.748 855.478V851.048H463.676V855.478H450.709V892.284H445.715V855.478H432.748ZM475.49 873.679V892.284H470.738V851.048H475.49V866.189H475.892C476.617 864.592 477.705 863.323 479.154 862.384C480.617 861.431 482.564 860.954 484.993 860.954C487.101 860.954 488.947 861.377 490.531 862.223C492.115 863.055 493.343 864.337 494.215 866.068C495.101 867.787 495.544 869.975 495.544 872.632V892.284H490.792V872.955C490.792 870.498 490.155 868.599 488.879 867.256C487.618 865.901 485.866 865.223 483.624 865.223C482.067 865.223 480.671 865.552 479.436 866.209C478.215 866.867 477.248 867.827 476.537 869.089C475.839 870.351 475.49 871.881 475.49 873.679ZM504.237 892.284V861.357H508.989V892.284H504.237ZM506.654 856.202C505.727 856.202 504.929 855.887 504.258 855.256C503.6 854.625 503.271 853.867 503.271 852.981C503.271 852.095 503.6 851.336 504.258 850.706C504.929 850.075 505.727 849.759 506.654 849.759C507.58 849.759 508.372 850.075 509.03 850.706C509.701 851.336 510.036 852.095 510.036 852.981C510.036 853.867 509.701 854.625 509.03 855.256C508.372 855.887 507.58 856.202 506.654 856.202ZM539.599 868.283L535.331 869.491C535.062 868.78 534.666 868.089 534.143 867.418C533.633 866.733 532.935 866.169 532.049 865.726C531.163 865.283 530.029 865.062 528.646 865.062C526.753 865.062 525.176 865.498 523.914 866.371C522.666 867.23 522.042 868.324 522.042 869.653C522.042 870.834 522.471 871.767 523.33 872.451C524.189 873.136 525.532 873.706 527.357 874.163L531.948 875.29C534.713 875.961 536.774 876.988 538.13 878.371C539.485 879.74 540.163 881.505 540.163 883.666C540.163 885.438 539.653 887.022 538.633 888.418C537.626 889.814 536.217 890.915 534.405 891.72C532.592 892.526 530.485 892.928 528.082 892.928C524.928 892.928 522.317 892.244 520.25 890.875C518.183 889.506 516.874 887.505 516.323 884.875L520.834 883.747C521.263 885.411 522.075 886.66 523.27 887.492C524.478 888.324 526.055 888.74 528.002 888.74C530.217 888.74 531.975 888.271 533.277 887.331C534.593 886.378 535.25 885.237 535.25 883.908C535.25 882.834 534.874 881.935 534.123 881.21C533.371 880.472 532.217 879.921 530.659 879.559L525.505 878.351C522.673 877.68 520.592 876.639 519.263 875.23C517.948 873.807 517.29 872.028 517.29 869.894C517.29 868.149 517.78 866.605 518.76 865.263C519.753 863.921 521.102 862.867 522.807 862.102C524.525 861.337 526.471 860.954 528.646 860.954C531.707 860.954 534.109 861.625 535.854 862.968C537.613 864.31 538.861 866.082 539.599 868.283ZM575.827 892.928C572.928 892.928 570.431 892.244 568.337 890.875C566.243 889.506 564.632 887.62 563.505 885.217C562.377 882.814 561.813 880.069 561.813 876.982C561.813 873.841 562.39 871.069 563.545 868.666C564.713 866.25 566.337 864.364 568.418 863.008C570.512 861.639 572.955 860.954 575.747 860.954C577.921 860.954 579.881 861.357 581.626 862.162C583.371 862.968 584.801 864.095 585.915 865.545C587.029 866.995 587.72 868.686 587.989 870.619H583.237C582.874 869.21 582.069 867.961 580.821 866.874C579.586 865.773 577.921 865.223 575.827 865.223C573.975 865.223 572.351 865.706 570.955 866.673C569.572 867.626 568.491 868.975 567.713 870.72C566.948 872.451 566.565 874.485 566.565 876.821C566.565 879.21 566.941 881.291 567.693 883.062C568.458 884.834 569.532 886.21 570.914 887.19C572.31 888.17 573.948 888.66 575.827 888.66C577.062 888.66 578.183 888.445 579.19 888.016C580.196 887.586 581.049 886.969 581.747 886.163C582.445 885.358 582.942 884.391 583.237 883.264H587.989C587.72 885.089 587.056 886.734 585.995 888.197C584.948 889.647 583.559 890.801 581.827 891.66C580.109 892.506 578.109 892.928 575.827 892.928ZM604.036 893.009C602.076 893.009 600.298 892.64 598.701 891.902C597.103 891.15 595.835 890.069 594.895 888.66C593.955 887.237 593.486 885.519 593.486 883.505C593.486 881.733 593.835 880.297 594.533 879.196C595.231 878.082 596.163 877.21 597.331 876.579C598.499 875.948 599.788 875.478 601.197 875.169C602.62 874.847 604.05 874.592 605.486 874.404C607.365 874.163 608.889 873.982 610.057 873.861C611.238 873.726 612.097 873.505 612.634 873.196C613.184 872.888 613.459 872.351 613.459 871.585V871.424C613.459 869.438 612.916 867.894 611.828 866.793C610.755 865.693 609.124 865.142 606.936 865.142C604.667 865.142 602.889 865.639 601.6 866.632C600.311 867.626 599.405 868.686 598.882 869.814L594.371 868.203C595.177 866.324 596.251 864.86 597.593 863.813C598.949 862.753 600.425 862.015 602.023 861.599C603.634 861.169 605.218 860.954 606.775 860.954C607.768 860.954 608.909 861.075 610.198 861.317C611.5 861.545 612.755 862.021 613.963 862.746C615.184 863.471 616.198 864.565 617.003 866.028C617.809 867.491 618.211 869.451 618.211 871.908V892.284H613.459V888.096H613.218C612.896 888.767 612.359 889.485 611.607 890.251C610.855 891.016 609.855 891.667 608.607 892.204C607.359 892.741 605.835 893.009 604.036 893.009ZM604.761 888.74C606.64 888.74 608.224 888.371 609.513 887.633C610.815 886.895 611.795 885.942 612.453 884.774C613.124 883.606 613.459 882.378 613.459 881.089V876.74C613.258 876.982 612.815 877.203 612.131 877.404C611.459 877.592 610.681 877.76 609.795 877.908C608.922 878.042 608.07 878.163 607.238 878.27C606.419 878.364 605.754 878.445 605.244 878.512C604.009 878.673 602.855 878.935 601.781 879.297C600.721 879.646 599.862 880.176 599.204 880.888C598.56 881.586 598.237 882.539 598.237 883.747C598.237 885.398 598.848 886.646 600.07 887.492C601.305 888.324 602.868 888.74 604.761 888.74ZM631.636 873.679V892.284H626.884V861.357H631.475V866.189H631.878C632.603 864.619 633.703 863.357 635.18 862.404C636.657 861.437 638.563 860.954 640.898 860.954C642.992 860.954 644.825 861.384 646.395 862.243C647.966 863.089 649.187 864.377 650.06 866.109C650.932 867.827 651.368 870.002 651.368 872.632V892.284H646.617V872.955C646.617 870.525 645.986 868.632 644.724 867.277C643.462 865.907 641.731 865.223 639.529 865.223C638.012 865.223 636.657 865.552 635.462 866.209C634.281 866.867 633.348 867.827 632.663 869.089C631.979 870.351 631.636 871.881 631.636 873.679ZM676.643 892.284V851.048H681.395V866.27H681.797C682.146 865.733 682.63 865.048 683.247 864.216C683.878 863.37 684.777 862.619 685.945 861.961C687.126 861.29 688.724 860.954 690.737 860.954C693.341 860.954 695.637 861.605 697.623 862.907C699.61 864.209 701.16 866.055 702.275 868.444C703.389 870.834 703.946 873.653 703.946 876.901C703.946 880.176 703.389 883.015 702.275 885.418C701.16 887.808 699.617 889.66 697.644 890.975C695.67 892.277 693.395 892.928 690.818 892.928C688.831 892.928 687.241 892.6 686.046 891.942C684.851 891.271 683.932 890.512 683.287 889.667C682.643 888.808 682.146 888.096 681.797 887.532H681.234V892.284H676.643ZM681.314 876.821C681.314 879.156 681.656 881.217 682.341 883.002C683.026 884.774 684.026 886.163 685.341 887.17C686.657 888.163 688.267 888.66 690.174 888.66C692.16 888.66 693.818 888.136 695.147 887.089C696.489 886.029 697.496 884.606 698.167 882.821C698.852 881.022 699.194 879.022 699.194 876.821C699.194 874.646 698.858 872.686 698.187 870.941C697.529 869.183 696.529 867.793 695.187 866.773C693.858 865.74 692.187 865.223 690.174 865.223C688.241 865.223 686.616 865.713 685.301 866.693C683.985 867.659 682.992 869.015 682.321 870.76C681.65 872.492 681.314 874.512 681.314 876.821ZM724.181 892.928C721.201 892.928 718.631 892.271 716.47 890.955C714.322 889.626 712.664 887.774 711.496 885.398C710.342 883.009 709.765 880.23 709.765 877.062C709.765 873.894 710.342 871.102 711.496 868.686C712.664 866.256 714.288 864.364 716.369 863.008C718.463 861.639 720.906 860.954 723.698 860.954C725.309 860.954 726.9 861.223 728.47 861.76C730.041 862.297 731.47 863.169 732.759 864.377C734.048 865.572 735.074 867.156 735.84 869.129C736.605 871.102 736.987 873.532 736.987 876.418V878.431H713.148V874.324H732.155C732.155 872.579 731.806 871.022 731.108 869.653C730.423 868.283 729.443 867.203 728.168 866.411C726.906 865.619 725.416 865.223 723.698 865.223C721.806 865.223 720.168 865.693 718.785 866.632C717.416 867.558 716.362 868.767 715.624 870.257C714.886 871.747 714.517 873.344 714.517 875.049V877.787C714.517 880.123 714.919 882.103 715.725 883.727C716.544 885.338 717.678 886.566 719.128 887.412C720.577 888.244 722.262 888.66 724.181 888.66C725.43 888.66 726.557 888.485 727.564 888.136C728.584 887.774 729.464 887.237 730.202 886.526C730.94 885.801 731.511 884.901 731.913 883.828L736.504 885.116C736.021 886.673 735.209 888.042 734.068 889.224C732.927 890.391 731.517 891.304 729.839 891.962C728.161 892.606 726.276 892.928 724.181 892.928ZM769.264 893.009C767.304 893.009 765.525 892.64 763.928 891.902C762.33 891.15 761.062 890.069 760.122 888.66C759.183 887.237 758.713 885.519 758.713 883.505C758.713 881.733 759.062 880.297 759.76 879.196C760.458 878.082 761.391 877.21 762.559 876.579C763.726 875.948 765.015 875.478 766.425 875.169C767.847 874.847 769.277 874.592 770.713 874.404C772.593 874.163 774.116 873.982 775.284 873.861C776.465 873.726 777.324 873.505 777.861 873.196C778.412 872.888 778.687 872.351 778.687 871.585V871.424C778.687 869.438 778.143 867.894 777.056 866.793C775.982 865.693 774.351 865.142 772.163 865.142C769.894 865.142 768.116 865.639 766.827 866.632C765.539 867.626 764.633 868.686 764.109 869.814L759.599 868.203C760.404 866.324 761.478 864.86 762.82 863.813C764.176 862.753 765.653 862.015 767.25 861.599C768.861 861.169 770.445 860.954 772.002 860.954C772.995 860.954 774.136 861.075 775.425 861.317C776.727 861.545 777.982 862.021 779.19 862.746C780.412 863.471 781.425 864.565 782.23 866.028C783.036 867.491 783.439 869.451 783.439 871.908V892.284H778.687V888.096H778.445C778.123 888.767 777.586 889.485 776.834 890.251C776.083 891.016 775.083 891.667 773.834 892.204C772.586 892.741 771.062 893.009 769.264 893.009ZM769.988 888.74C771.868 888.74 773.452 888.371 774.74 887.633C776.042 886.895 777.022 885.942 777.68 884.774C778.351 883.606 778.687 882.378 778.687 881.089V876.74C778.485 876.982 778.042 877.203 777.358 877.404C776.687 877.592 775.908 877.76 775.022 877.908C774.15 878.042 773.297 878.163 772.465 878.27C771.646 878.364 770.982 878.445 770.472 878.512C769.237 878.673 768.082 878.935 767.008 879.297C765.948 879.646 765.089 880.176 764.431 880.888C763.787 881.586 763.465 882.539 763.465 883.747C763.465 885.398 764.075 886.646 765.297 887.492C766.532 888.324 768.096 888.74 769.988 888.74ZM796.864 873.679V892.284H792.112V861.357H796.702V866.189H797.105C797.83 864.619 798.931 863.357 800.407 862.404C801.884 861.437 803.79 860.954 806.126 860.954C808.22 860.954 810.052 861.384 811.622 862.243C813.193 863.089 814.415 864.377 815.287 866.109C816.16 867.827 816.596 870.002 816.596 872.632V892.284H811.844V872.955C811.844 870.525 811.213 868.632 809.951 867.277C808.689 865.907 806.958 865.223 804.756 865.223C803.24 865.223 801.884 865.552 800.689 866.209C799.508 866.867 798.575 867.827 797.89 869.089C797.206 870.351 796.864 871.881 796.864 873.679ZM827.232 903.882C826.427 903.882 825.709 903.815 825.078 903.681C824.447 903.56 824.01 903.439 823.769 903.318L824.977 899.13C826.131 899.425 827.152 899.533 828.037 899.452C828.923 899.372 829.709 898.976 830.393 898.264C831.091 897.566 831.729 896.432 832.306 894.861L833.192 892.445L821.755 861.357H826.91L835.447 886.002H835.769L844.307 861.357H849.461L836.333 896.794C835.742 898.392 835.011 899.714 834.138 900.761C833.266 901.821 832.252 902.607 831.098 903.117C829.957 903.627 828.668 903.882 827.232 903.882ZM869.183 861.357V865.384H853.156V861.357H869.183ZM857.827 853.947H862.579V883.425C862.579 884.767 862.774 885.774 863.163 886.445C863.566 887.103 864.076 887.546 864.693 887.774C865.324 887.989 865.988 888.096 866.686 888.096C867.21 888.096 867.64 888.069 867.975 888.016C868.311 887.948 868.579 887.895 868.781 887.854L869.747 892.123C869.425 892.244 868.975 892.365 868.398 892.486C867.821 892.62 867.089 892.687 866.203 892.687C864.861 892.687 863.545 892.398 862.257 891.821C860.982 891.244 859.921 890.365 859.075 889.183C858.243 888.002 857.827 886.512 857.827 884.713V853.947ZM881.747 873.679V892.284H876.996V851.048H881.747V866.189H882.15C882.875 864.592 883.962 863.323 885.412 862.384C886.875 861.431 888.822 860.954 891.251 860.954C893.359 860.954 895.204 861.377 896.788 862.223C898.372 863.055 899.6 864.337 900.473 866.068C901.359 867.787 901.802 869.975 901.802 872.632V892.284H897.05V872.955C897.05 870.498 896.412 868.599 895.137 867.256C893.875 865.901 892.124 865.223 889.882 865.223C888.325 865.223 886.929 865.552 885.694 866.209C884.472 866.867 883.506 867.827 882.794 869.089C882.096 870.351 881.747 871.881 881.747 873.679ZM910.495 892.284V861.357H915.247V892.284H910.495ZM912.911 856.202C911.985 856.202 911.186 855.887 910.515 855.256C909.858 854.625 909.529 853.867 909.529 852.981C909.529 852.095 909.858 851.336 910.515 850.706C911.186 850.075 911.985 849.759 912.911 849.759C913.838 849.759 914.629 850.075 915.287 850.706C915.958 851.336 916.294 852.095 916.294 852.981C916.294 853.867 915.958 854.625 915.287 855.256C914.629 855.887 913.838 856.202 912.911 856.202ZM928.702 873.679V892.284H923.95V861.357H928.541V866.189H928.944C929.669 864.619 930.769 863.357 932.246 862.404C933.722 861.437 935.629 860.954 937.964 860.954C940.058 860.954 941.891 861.384 943.461 862.243C945.032 863.089 946.253 864.377 947.126 866.109C947.998 867.827 948.434 870.002 948.434 872.632V892.284H943.683V872.955C943.683 870.525 943.052 868.632 941.79 867.277C940.528 865.907 938.796 865.223 936.595 865.223C935.078 865.223 933.722 865.552 932.528 866.209C931.347 866.867 930.414 867.827 929.729 869.089C929.044 870.351 928.702 871.881 928.702 873.679ZM969.601 904.526C967.306 904.526 965.333 904.231 963.682 903.64C962.031 903.063 960.655 902.298 959.554 901.345C958.467 900.405 957.601 899.399 956.957 898.325L960.742 895.667C961.171 896.231 961.715 896.875 962.373 897.6C963.031 898.338 963.93 898.976 965.071 899.513C966.225 900.063 967.735 900.338 969.601 900.338C972.098 900.338 974.158 899.734 975.783 898.526C977.407 897.318 978.219 895.425 978.219 892.848V886.566H977.816C977.467 887.13 976.971 887.828 976.326 888.66C975.695 889.479 974.783 890.21 973.588 890.855C972.407 891.485 970.809 891.801 968.796 891.801C966.299 891.801 964.057 891.21 962.071 890.029C960.098 888.848 958.534 887.13 957.379 884.875C956.238 882.619 955.668 879.881 955.668 876.659C955.668 873.492 956.225 870.733 957.339 868.384C958.453 866.022 960.004 864.196 961.99 862.907C963.977 861.605 966.272 860.954 968.876 860.954C970.89 860.954 972.487 861.29 973.669 861.961C974.863 862.619 975.776 863.37 976.407 864.216C977.051 865.048 977.548 865.733 977.897 866.27H978.38V861.357H982.971V893.17C982.971 895.828 982.367 897.989 981.159 899.654C979.964 901.331 978.353 902.56 976.326 903.338C974.313 904.13 972.071 904.526 969.601 904.526ZM969.44 887.532C971.346 887.532 972.957 887.096 974.273 886.224C975.588 885.351 976.588 884.096 977.273 882.458C977.957 880.821 978.3 878.861 978.3 876.579C978.3 874.351 977.964 872.384 977.293 870.679C976.622 868.975 975.628 867.639 974.313 866.673C972.997 865.706 971.373 865.223 969.44 865.223C967.427 865.223 965.749 865.733 964.406 866.753C963.078 867.773 962.077 869.142 961.406 870.861C960.749 872.579 960.42 874.485 960.42 876.579C960.42 878.727 960.755 880.626 961.426 882.277C962.111 883.915 963.118 885.203 964.447 886.143C965.789 887.069 967.454 887.532 969.44 887.532ZM1010.68 903.882C1009.87 903.882 1009.15 903.815 1008.52 903.681C1007.89 903.56 1007.45 903.439 1007.21 903.318L1008.42 899.13C1009.58 899.425 1010.6 899.533 1011.48 899.452C1012.37 899.372 1013.15 898.976 1013.84 898.264C1014.54 897.566 1015.17 896.432 1015.75 894.861L1016.64 892.445L1005.2 861.357H1010.35L1018.89 886.002H1019.21L1027.75 861.357H1032.91L1019.78 896.794C1019.19 898.392 1018.46 899.714 1017.58 900.761C1016.71 901.821 1015.7 902.607 1014.54 903.117C1013.4 903.627 1012.11 903.882 1010.68 903.882ZM1050.63 892.928C1047.84 892.928 1045.39 892.264 1043.29 890.935C1041.19 889.606 1039.55 887.747 1038.37 885.358C1037.2 882.968 1036.62 880.176 1036.62 876.982C1036.62 873.76 1037.2 870.948 1038.37 868.545C1039.55 866.142 1041.19 864.276 1043.29 862.948C1045.39 861.619 1047.84 860.954 1050.63 860.954C1053.43 860.954 1055.87 861.619 1057.96 862.948C1060.07 864.276 1061.71 866.142 1062.88 868.545C1064.06 870.948 1064.65 873.76 1064.65 876.982C1064.65 880.176 1064.06 882.968 1062.88 885.358C1061.71 887.747 1060.07 889.606 1057.96 890.935C1055.87 892.264 1053.43 892.928 1050.63 892.928ZM1050.63 888.66C1052.76 888.66 1054.5 888.116 1055.87 887.029C1057.24 885.942 1058.25 884.512 1058.91 882.74C1059.57 880.968 1059.9 879.049 1059.9 876.982C1059.9 874.914 1059.57 872.988 1058.91 871.203C1058.25 869.418 1057.24 867.975 1055.87 866.874C1054.5 865.773 1052.76 865.223 1050.63 865.223C1048.51 865.223 1046.77 865.773 1045.4 866.874C1044.03 867.975 1043.02 869.418 1042.36 871.203C1041.7 872.988 1041.37 874.914 1041.37 876.982C1041.37 879.049 1041.7 880.968 1042.36 882.74C1043.02 884.512 1044.03 885.942 1045.4 887.029C1046.77 888.116 1048.51 888.66 1050.63 888.66ZM1091.39 879.639V861.357H1096.14V892.284H1091.39V887.049H1091.07C1090.35 888.62 1089.22 889.955 1087.69 891.056C1086.16 892.143 1084.22 892.687 1081.89 892.687C1079.96 892.687 1078.24 892.264 1076.73 891.418C1075.23 890.559 1074.05 889.271 1073.19 887.552C1072.33 885.821 1071.9 883.64 1071.9 881.009V861.357H1076.65V880.686C1076.65 882.942 1077.28 884.74 1078.55 886.083C1079.82 887.425 1081.45 888.096 1083.42 888.096C1084.6 888.096 1085.8 887.794 1087.02 887.19C1088.26 886.586 1089.29 885.66 1090.12 884.411C1090.97 883.163 1091.39 881.572 1091.39 879.639ZM1127.8 892.284L1118.38 861.357H1123.37L1130.06 885.036H1130.38L1136.98 861.357H1142.06L1148.58 884.955H1148.9L1155.59 861.357H1160.58L1151.16 892.284H1146.49L1139.72 868.525H1139.24L1132.47 892.284H1127.8ZM1175.96 893.009C1174 893.009 1172.23 892.64 1170.63 891.902C1169.03 891.15 1167.76 890.069 1166.82 888.66C1165.88 887.237 1165.41 885.519 1165.41 883.505C1165.41 881.733 1165.76 880.297 1166.46 879.196C1167.16 878.082 1168.09 877.21 1169.26 876.579C1170.43 875.948 1171.72 875.478 1173.13 875.169C1174.55 874.847 1175.98 874.592 1177.41 874.404C1179.29 874.163 1180.82 873.982 1181.98 873.861C1183.17 873.726 1184.02 873.505 1184.56 873.196C1185.11 872.888 1185.39 872.351 1185.39 871.585V871.424C1185.39 869.438 1184.84 867.894 1183.76 866.793C1182.68 865.693 1181.05 865.142 1178.86 865.142C1176.6 865.142 1174.82 865.639 1173.53 866.632C1172.24 867.626 1171.33 868.686 1170.81 869.814L1166.3 868.203C1167.1 866.324 1168.18 864.86 1169.52 863.813C1170.88 862.753 1172.35 862.015 1173.95 861.599C1175.56 861.169 1177.15 860.954 1178.7 860.954C1179.7 860.954 1180.84 861.075 1182.13 861.317C1183.43 861.545 1184.68 862.021 1185.89 862.746C1187.11 863.471 1188.13 864.565 1188.93 866.028C1189.74 867.491 1190.14 869.451 1190.14 871.908V892.284H1185.39V888.096H1185.15C1184.82 888.767 1184.29 889.485 1183.53 890.251C1182.78 891.016 1181.78 891.667 1180.53 892.204C1179.29 892.741 1177.76 893.009 1175.96 893.009ZM1176.69 888.74C1178.57 888.74 1180.15 888.371 1181.44 887.633C1182.74 886.895 1183.72 885.942 1184.38 884.774C1185.05 883.606 1185.39 882.378 1185.39 881.089V876.74C1185.19 876.982 1184.74 877.203 1184.06 877.404C1183.39 877.592 1182.61 877.76 1181.72 877.908C1180.85 878.042 1180 878.163 1179.17 878.27C1178.35 878.364 1177.68 878.445 1177.17 878.512C1175.94 878.673 1174.78 878.935 1173.71 879.297C1172.65 879.646 1171.79 880.176 1171.13 880.888C1170.49 881.586 1170.17 882.539 1170.17 883.747C1170.17 885.398 1170.78 886.646 1172 887.492C1173.23 888.324 1174.8 888.74 1176.69 888.74ZM1203.56 873.679V892.284H1198.81V861.357H1203.4V866.189H1203.81C1204.53 864.619 1205.63 863.357 1207.11 862.404C1208.58 861.437 1210.49 860.954 1212.83 860.954C1214.92 860.954 1216.75 861.384 1218.32 862.243C1219.89 863.089 1221.12 864.377 1221.99 866.109C1222.86 867.827 1223.3 870.002 1223.3 872.632V892.284H1218.54V872.955C1218.54 870.525 1217.91 868.632 1216.65 867.277C1215.39 865.907 1213.66 865.223 1211.46 865.223C1209.94 865.223 1208.58 865.552 1207.39 866.209C1206.21 866.867 1205.28 867.827 1204.59 869.089C1203.91 870.351 1203.56 871.881 1203.56 873.679ZM1245.43 861.357V865.384H1229.4V861.357H1245.43ZM1234.07 853.947H1238.83V883.425C1238.83 884.767 1239.02 885.774 1239.41 886.445C1239.81 887.103 1240.32 887.546 1240.94 887.774C1241.57 887.989 1242.24 888.096 1242.93 888.096C1243.46 888.096 1243.89 888.069 1244.22 888.016C1244.56 887.948 1244.83 887.895 1245.03 887.854L1245.99 892.123C1245.67 892.244 1245.22 892.365 1244.64 892.486C1244.07 892.62 1243.34 892.687 1242.45 892.687C1241.11 892.687 1239.79 892.398 1238.5 891.821C1237.23 891.244 1236.17 890.365 1235.32 889.183C1234.49 888.002 1234.07 886.512 1234.07 884.713V853.947ZM1259.67 886.646L1259.34 888.821C1259.11 890.351 1258.77 891.989 1258.3 893.734C1257.84 895.479 1257.36 897.123 1256.87 898.667C1256.37 900.211 1255.96 901.439 1255.64 902.352H1252.01C1252.19 901.493 1252.42 900.358 1252.7 898.949C1252.98 897.539 1253.26 895.962 1253.54 894.217C1253.84 892.486 1254.08 890.714 1254.27 888.902L1254.51 886.646H1259.67ZM1290.05 851.048V892.284H1285.06V851.048H1290.05ZM1322.38 892.284L1312.95 861.357H1317.95L1324.63 885.036H1324.95L1331.56 861.357H1336.63L1343.15 884.955H1343.48L1350.16 861.357H1355.16L1345.73 892.284H1341.06L1334.3 868.525H1333.81L1327.05 892.284H1322.38ZM1361.44 892.284V861.357H1366.19V892.284H1361.44ZM1363.85 856.202C1362.93 856.202 1362.13 855.887 1361.46 855.256C1360.8 854.625 1360.47 853.867 1360.47 852.981C1360.47 852.095 1360.8 851.336 1361.46 850.706C1362.13 850.075 1362.93 849.759 1363.85 849.759C1364.78 849.759 1365.57 850.075 1366.23 850.706C1366.9 851.336 1367.24 852.095 1367.24 852.981C1367.24 853.867 1366.9 854.625 1366.23 855.256C1365.57 855.887 1364.78 856.202 1363.85 856.202ZM1379.64 851.048V892.284H1374.89V851.048H1379.64ZM1393.1 851.048V892.284H1388.35V851.048H1393.1ZM1437.24 879.639V861.357H1441.99V892.284H1437.24V887.049H1436.92C1436.19 888.62 1435.07 889.955 1433.54 891.056C1432.01 892.143 1430.07 892.687 1427.74 892.687C1425.8 892.687 1424.09 892.264 1422.58 891.418C1421.08 890.559 1419.9 889.271 1419.04 887.552C1418.18 885.821 1417.75 883.64 1417.75 881.009V861.357H1422.5V880.686C1422.5 882.942 1423.13 884.74 1424.39 886.083C1425.67 887.425 1427.29 888.096 1429.27 888.096C1430.45 888.096 1431.65 887.794 1432.87 887.19C1434.11 886.586 1435.14 885.66 1435.97 884.411C1436.82 883.163 1437.24 881.572 1437.24 879.639ZM1472.6 868.283L1468.33 869.491C1468.07 868.78 1467.67 868.089 1467.15 867.418C1466.64 866.733 1465.94 866.169 1465.05 865.726C1464.17 865.283 1463.03 865.062 1461.65 865.062C1459.76 865.062 1458.18 865.498 1456.92 866.371C1455.67 867.23 1455.04 868.324 1455.04 869.653C1455.04 870.834 1455.47 871.767 1456.33 872.451C1457.19 873.136 1458.53 873.706 1460.36 874.163L1464.95 875.29C1467.72 875.961 1469.78 876.988 1471.13 878.371C1472.49 879.74 1473.17 881.505 1473.17 883.666C1473.17 885.438 1472.66 887.022 1471.64 888.418C1470.63 889.814 1469.22 890.915 1467.41 891.72C1465.6 892.526 1463.49 892.928 1461.09 892.928C1457.93 892.928 1455.32 892.244 1453.25 890.875C1451.19 889.506 1449.88 887.505 1449.33 884.875L1453.84 883.747C1454.27 885.411 1455.08 886.66 1456.27 887.492C1457.48 888.324 1459.06 888.74 1461 888.74C1463.22 888.74 1464.98 888.271 1466.28 887.331C1467.6 886.378 1468.25 885.237 1468.25 883.908C1468.25 882.834 1467.88 881.935 1467.13 881.21C1466.37 880.472 1465.22 879.921 1463.66 879.559L1458.51 878.351C1455.68 877.68 1453.59 876.639 1452.27 875.23C1450.95 873.807 1450.29 872.028 1450.29 869.894C1450.29 868.149 1450.78 866.605 1451.76 865.263C1452.76 863.921 1454.1 862.867 1455.81 862.102C1457.53 861.337 1459.47 860.954 1461.65 860.954C1464.71 860.954 1467.11 861.625 1468.86 862.968C1470.62 864.31 1471.86 866.082 1472.6 868.283ZM1493.29 892.928C1490.31 892.928 1487.74 892.271 1485.57 890.955C1483.43 889.626 1481.77 887.774 1480.6 885.398C1479.45 883.009 1478.87 880.23 1478.87 877.062C1478.87 873.894 1479.45 871.102 1480.6 868.686C1481.77 866.256 1483.39 864.364 1485.47 863.008C1487.57 861.639 1490.01 860.954 1492.8 860.954C1494.41 860.954 1496 861.223 1497.57 861.76C1499.15 862.297 1500.57 863.169 1501.86 864.377C1503.15 865.572 1504.18 867.156 1504.94 869.129C1505.71 871.102 1506.09 873.532 1506.09 876.418V878.431H1482.25V874.324H1501.26C1501.26 872.579 1500.91 871.022 1500.21 869.653C1499.53 868.283 1498.55 867.203 1497.27 866.411C1496.01 865.619 1494.52 865.223 1492.8 865.223C1490.91 865.223 1489.27 865.693 1487.89 866.632C1486.52 867.558 1485.47 868.767 1484.73 870.257C1483.99 871.747 1483.62 873.344 1483.62 875.049V877.787C1483.62 880.123 1484.02 882.103 1484.83 883.727C1485.65 885.338 1486.78 886.566 1488.23 887.412C1489.68 888.244 1491.37 888.66 1493.29 888.66C1494.53 888.66 1495.66 888.485 1496.67 888.136C1497.69 887.774 1498.57 887.237 1499.31 886.526C1500.04 885.801 1500.62 884.901 1501.02 883.828L1505.61 885.116C1505.13 886.673 1504.31 888.042 1503.17 889.224C1502.03 890.391 1500.62 891.304 1498.94 891.962C1497.27 892.606 1495.38 892.928 1493.29 892.928ZM1538.37 893.009C1536.41 893.009 1534.63 892.64 1533.03 891.902C1531.43 891.15 1530.17 890.069 1529.23 888.66C1528.29 887.237 1527.82 885.519 1527.82 883.505C1527.82 881.733 1528.17 880.297 1528.86 879.196C1529.56 878.082 1530.5 877.21 1531.66 876.579C1532.83 875.948 1534.12 875.478 1535.53 875.169C1536.95 874.847 1538.38 874.592 1539.82 874.404C1541.7 874.163 1543.22 873.982 1544.39 873.861C1545.57 873.726 1546.43 873.505 1546.97 873.196C1547.52 872.888 1547.79 872.351 1547.79 871.585V871.424C1547.79 869.438 1547.25 867.894 1546.16 866.793C1545.09 865.693 1543.46 865.142 1541.27 865.142C1539 865.142 1537.22 865.639 1535.93 866.632C1534.64 867.626 1533.74 868.686 1533.21 869.814L1528.7 868.203C1529.51 866.324 1530.58 864.86 1531.92 863.813C1533.28 862.753 1534.76 862.015 1536.35 861.599C1537.97 861.169 1539.55 860.954 1541.11 860.954C1542.1 860.954 1543.24 861.075 1544.53 861.317C1545.83 861.545 1547.09 862.021 1548.29 862.746C1549.52 863.471 1550.53 864.565 1551.34 866.028C1552.14 867.491 1552.54 869.451 1552.54 871.908V892.284H1547.79V888.096H1547.55C1547.23 888.767 1546.69 889.485 1545.94 890.251C1545.19 891.016 1544.19 891.667 1542.94 892.204C1541.69 892.741 1540.17 893.009 1538.37 893.009ZM1539.09 888.74C1540.97 888.74 1542.56 888.371 1543.84 887.633C1545.15 886.895 1546.13 885.942 1546.78 884.774C1547.46 883.606 1547.79 882.378 1547.79 881.089V876.74C1547.59 876.982 1547.15 877.203 1546.46 877.404C1545.79 877.592 1545.01 877.76 1544.13 877.908C1543.25 878.042 1542.4 878.163 1541.57 878.27C1540.75 878.364 1540.09 878.445 1539.58 878.512C1538.34 878.673 1537.19 878.935 1536.11 879.297C1535.05 879.646 1534.19 880.176 1533.54 880.888C1532.89 881.586 1532.57 882.539 1532.57 883.747C1532.57 885.398 1533.18 886.646 1534.4 887.492C1535.64 888.324 1537.2 888.74 1539.09 888.74ZM1589.73 892.928C1586.83 892.928 1584.33 892.244 1582.24 890.875C1580.14 889.506 1578.53 887.62 1577.4 885.217C1576.28 882.814 1575.71 880.069 1575.71 876.982C1575.71 873.841 1576.29 871.069 1577.45 868.666C1578.61 866.25 1580.24 864.364 1582.32 863.008C1584.41 861.639 1586.85 860.954 1589.65 860.954C1591.82 860.954 1593.78 861.357 1595.53 862.162C1597.27 862.968 1598.7 864.095 1599.81 865.545C1600.93 866.995 1601.62 868.686 1601.89 870.619H1597.14C1596.77 869.21 1595.97 867.961 1594.72 866.874C1593.49 865.773 1591.82 865.223 1589.73 865.223C1587.87 865.223 1586.25 865.706 1584.85 866.673C1583.47 867.626 1582.39 868.975 1581.61 870.72C1580.85 872.451 1580.47 874.485 1580.47 876.821C1580.47 879.21 1580.84 881.291 1581.59 883.062C1582.36 884.834 1583.43 886.21 1584.81 887.19C1586.21 888.17 1587.85 888.66 1589.73 888.66C1590.96 888.66 1592.08 888.445 1593.09 888.016C1594.1 887.586 1594.95 886.969 1595.65 886.163C1596.35 885.358 1596.84 884.391 1597.14 883.264H1601.89C1601.62 885.089 1600.96 886.734 1599.9 888.197C1598.85 889.647 1597.46 890.801 1595.73 891.66C1594.01 892.506 1592.01 892.928 1589.73 892.928ZM1608.84 892.284V861.357H1613.59V892.284H1608.84ZM1611.25 856.202C1610.33 856.202 1609.53 855.887 1608.86 855.256C1608.2 854.625 1607.87 853.867 1607.87 852.981C1607.87 852.095 1608.2 851.336 1608.86 850.706C1609.53 850.075 1610.33 849.759 1611.25 849.759C1612.18 849.759 1612.97 850.075 1613.63 850.706C1614.3 851.336 1614.63 852.095 1614.63 852.981C1614.63 853.867 1614.3 854.625 1613.63 855.256C1612.97 855.887 1612.18 856.202 1611.25 856.202ZM1622.29 892.284V861.357H1626.88V866.028H1627.2C1627.77 864.498 1628.79 863.256 1630.26 862.303C1631.74 861.35 1633.41 860.874 1635.26 860.874C1635.61 860.874 1636.04 860.88 1636.57 860.894C1637.09 860.907 1637.49 860.927 1637.75 860.954V865.787C1637.59 865.746 1637.22 865.686 1636.65 865.605C1636.08 865.511 1635.49 865.464 1634.85 865.464C1633.35 865.464 1632.01 865.78 1630.83 866.411C1629.66 867.028 1628.73 867.887 1628.05 868.988C1627.38 870.075 1627.04 871.317 1627.04 872.713V892.284H1622.29ZM1655.01 892.928C1652.11 892.928 1649.61 892.244 1647.52 890.875C1645.43 889.506 1643.81 887.62 1642.69 885.217C1641.56 882.814 1641 880.069 1641 876.982C1641 873.841 1641.57 871.069 1642.73 868.666C1643.9 866.25 1645.52 864.364 1647.6 863.008C1649.69 861.639 1652.14 860.954 1654.93 860.954C1657.1 860.954 1659.06 861.357 1660.81 862.162C1662.55 862.968 1663.98 864.095 1665.1 865.545C1666.21 866.995 1666.9 868.686 1667.17 870.619H1662.42C1662.06 869.21 1661.25 867.961 1660 866.874C1658.77 865.773 1657.1 865.223 1655.01 865.223C1653.16 865.223 1651.53 865.706 1650.14 866.673C1648.75 867.626 1647.67 868.975 1646.9 870.72C1646.13 872.451 1645.75 874.485 1645.75 876.821C1645.75 879.21 1646.12 881.291 1646.88 883.062C1647.64 884.834 1648.71 886.21 1650.1 887.19C1651.49 888.17 1653.13 888.66 1655.01 888.66C1656.24 888.66 1657.37 888.445 1658.37 888.016C1659.38 887.586 1660.23 886.969 1660.93 886.163C1661.63 885.358 1662.12 884.391 1662.42 883.264H1667.17C1666.9 885.089 1666.24 886.734 1665.18 888.197C1664.13 889.647 1662.74 890.801 1661.01 891.66C1659.29 892.506 1657.29 892.928 1655.01 892.928ZM1678.87 851.048V892.284H1674.12V851.048H1678.87ZM1700.54 892.928C1697.56 892.928 1694.99 892.271 1692.83 890.955C1690.68 889.626 1689.02 887.774 1687.85 885.398C1686.7 883.009 1686.12 880.23 1686.12 877.062C1686.12 873.894 1686.7 871.102 1687.85 868.686C1689.02 866.256 1690.65 864.364 1692.73 863.008C1694.82 861.639 1697.26 860.954 1700.06 860.954C1701.67 860.954 1703.26 861.223 1704.83 861.76C1706.4 862.297 1707.83 863.169 1709.12 864.377C1710.41 865.572 1711.43 867.156 1712.2 869.129C1712.96 871.102 1713.35 873.532 1713.35 876.418V878.431H1689.51V874.324H1708.51C1708.51 872.579 1708.16 871.022 1707.47 869.653C1706.78 868.283 1705.8 867.203 1704.53 866.411C1703.26 865.619 1701.77 865.223 1700.06 865.223C1698.16 865.223 1696.53 865.693 1695.14 866.632C1693.77 867.558 1692.72 868.767 1691.98 870.257C1691.24 871.747 1690.88 873.344 1690.88 875.049V877.787C1690.88 880.123 1691.28 882.103 1692.08 883.727C1692.9 885.338 1694.04 886.566 1695.49 887.412C1696.94 888.244 1698.62 888.66 1700.54 888.66C1701.79 888.66 1702.92 888.485 1703.92 888.136C1704.94 887.774 1705.82 887.237 1706.56 886.526C1707.3 885.801 1707.87 884.901 1708.27 883.828L1712.86 885.116C1712.38 886.673 1711.57 888.042 1710.43 889.224C1709.29 890.391 1707.88 891.304 1706.2 891.962C1704.52 892.606 1702.63 892.928 1700.54 892.928ZM1724.04 892.606C1723.04 892.606 1722.19 892.251 1721.48 891.539C1720.77 890.828 1720.41 889.975 1720.41 888.982C1720.41 887.989 1720.77 887.136 1721.48 886.425C1722.19 885.713 1723.04 885.358 1724.04 885.358C1725.03 885.358 1725.88 885.713 1726.59 886.425C1727.31 887.136 1727.66 887.989 1727.66 888.982C1727.66 889.64 1727.49 890.244 1727.16 890.794C1726.84 891.345 1726.4 891.788 1725.85 892.123C1725.31 892.445 1724.71 892.606 1724.04 892.606Z" fill="white"/>
<g filter="url(#filter0_d_984_166)">
<circle cx="1082" cy="411" r="144" fill="#8B3737"/>
<circle cx="1082" cy="411" r="142.5" stroke="white" stroke-opacity="0.4" stroke-width="3"/>
</g>
<defs>
<filter id="filter0_d_984_166" x="926" y="267" width="312" height="321" filterUnits="userSpaceOnUse" color-interpolation-filters="sRGB">
<feFlood flood-opacity="0" result="BackgroundImageFix"/>
<feColorMatrix in="SourceAlpha" type="matrix" values="0 0 0 0 0 0 0 0 0 0 0 0 0 0 0 0 0 0 127 0" result="hardAlpha"/>
<feOffset dy="21"/>
<feGaussianBlur stdDeviation="6"/>
<feComposite in2="hardAlpha" operator="out"/>
<feColorMatrix type="matrix" values="0 0 0 0 0 0 0 0 0 0 0 0 0 0 0 0 0 0 0.25 0"/>
<feBlend mode="normal" in2="BackgroundImageFix" result="effect1_dropShadow_984_166"/>
<feBlend mode="normal" in="SourceGraphic" in2="effect1_dropShadow_984_166" result="shape"/>
</filter>
</defs>
</svg>
