<svg width="2164" height="1117" viewBox="0 0 2164 1117" fill="none" xmlns="http://www.w3.org/2000/svg">
<rect x="0.75" width="2163.1" height="1116.99" rx="85.05" fill="#171717"/>
<g style="mix-blend-mode:luminosity">
<path d="M490.346 685.101C444.161 662.028 445.243 604.144 459.679 554.576V554.576C461.887 546.996 462.764 537.481 462.128 529.611C455.691 449.984 439.036 398.189 403.061 337.94C380.801 300.66 384.947 252.145 418.317 224.364C522.136 137.935 605.022 97.7026 753.924 79.1523C760.242 78.3652 766.563 76.9132 772.58 74.8312C897.924 31.4583 993.023 14.0595 1147.94 5.74793C1197.4 3.09411 1272.47 24.7937 1321.86 28.5702C1410.35 35.3362 1541.35 32.0418 1564.5 62.4997C1600.12 109.375 1806 58.7349 1806 174.5C1806 289.144 1949.56 471.554 1755.29 583.246C1751.55 585.396 1747.74 587.859 1744.29 590.453C1636.55 671.569 1566.25 684.086 1454.16 706.153C1439 709.138 1423.33 707.923 1408.62 703.182C1297.26 667.283 1227.69 672.932 1112.18 708.777C1108.01 710.072 1103.86 711.756 1099.92 713.65C971.031 775.658 895.776 760.917 763.5 751.5C641.49 738.206 565.234 722.515 490.346 685.101Z" fill="url(#paint0_linear_974_148)"/>
</g>
<path d="M556.01 345.911C554.948 346.125 641.748 274.303 655.599 265.996C669.45 257.689 881.049 250.836 1016 252.416C1014.95 281.958 1008.67 298.712 997.022 320.143L933.996 360.188L916.933 425.478C914.102 430.461 911.538 431.67 905.79 431.92C881.195 425.375 867.365 420.981 842.59 411.201C830.487 408.568 823.701 409.249 811.599 411.201C799.128 415.458 792.381 418.199 782 425.478C768.316 436.809 760.827 443.555 747.875 456.469L713.402 488.156C700.122 498.009 691.987 504.522 677.536 513.576C663.085 522.63 656.333 526.363 642.715 534.12C626.934 542.07 617.818 544.741 601.277 550.313C584.254 554.755 573.709 553.085 556.01 553.621V345.911Z" fill="url(#paint1_linear_974_148)"/>
<path d="M942.275 343.671C962.388 332.223 973.771 325.962 997.547 319.97C981.745 341.25 968.777 354.694 961.973 372.113L958.815 379.68L957.662 410.783C957.378 418.442 951.086 424.505 943.421 424.505H918.006C909.058 417.301 907.616 405.128 907.45 401.469C907.284 397.81 907 380.715 910.193 372.113C919.754 359.016 926.925 352.886 942.275 343.671Z" fill="#9B9B9B"/>
<path d="M958.469 379.536L958.443 379.599L958.44 379.667L957.287 410.769C957.01 418.227 950.884 424.13 943.421 424.13H918.138C913.8 420.596 911.264 415.862 909.79 411.537C908.305 407.178 907.907 403.257 907.825 401.452C907.742 399.633 907.63 394.457 907.936 388.664C908.242 382.882 908.964 376.535 910.526 372.292C920.037 359.272 927.168 353.178 942.464 343.995C962.274 332.719 973.583 326.495 996.615 320.593C992.896 325.577 989.338 330.13 985.983 334.414C985.805 334.642 985.626 334.87 985.449 335.097C982.106 339.364 978.969 343.369 976.084 347.266C970.01 355.474 965.045 363.22 961.626 371.972L958.469 379.536Z" stroke="white" stroke-opacity="0.5" stroke-width="0.75"/>
<path d="M972.657 337.247C989.626 324.773 978.161 331.393 997.708 319.75C981.894 341.03 968.916 354.474 962.107 371.893L958.946 379.461C958.088 392.323 957.79 399.609 957.627 412.75C956.642 415.855 955.91 417.342 954.252 419.5C945.298 412.296 945.309 405.472 943.985 401.355C942.662 397.238 942.261 383.049 945.456 374.447C952.859 359.644 959.689 347.49 972.657 337.247Z" fill="#717171"/>
<path d="M958.6 379.316L958.576 379.374L958.572 379.436C957.714 392.287 957.416 399.577 957.253 412.69C956.334 415.576 955.642 417.021 954.188 418.964C949.96 415.489 947.834 412.121 946.604 409.127C945.973 407.592 945.576 406.148 945.253 404.825C945.166 404.47 945.085 404.121 945.005 403.78C944.789 402.862 944.588 402.003 944.342 401.24C943.701 399.245 943.268 394.722 943.401 389.593C943.534 384.481 944.229 378.84 945.8 374.597C953.196 359.81 959.994 347.728 972.885 337.546C979.441 332.725 981.765 330.746 983.259 329.474C983.699 329.099 984.067 328.786 984.45 328.479C986.026 327.218 987.884 326.045 996.278 321.039C992.737 325.763 989.344 330.102 986.136 334.194C985.957 334.423 985.778 334.651 985.6 334.878C982.255 339.144 979.116 343.15 976.229 347.046C970.15 355.254 965.182 363 961.76 371.752L958.6 379.316Z" stroke="white" stroke-opacity="0.5" stroke-width="0.75"/>
<path d="M767.548 241.273C848.024 237.866 894.19 236.995 976.65 237.443C999.383 239.276 1006.43 243.435 1015.82 252.59L655.945 265.648C666.648 250.133 700.015 246.425 767.548 241.273Z" fill="#232323"/>
<path d="M840.152 208.367C848.432 209.773 852.096 211.527 855.299 217.943C854.411 225.408 852.975 228.358 848.161 230.652C844.804 232.034 843.98 234.344 842.938 238.835L798.715 240.054C798.039 236.416 796.535 234.915 791.924 233.961C787.418 231.867 785.804 229.867 786.005 223.514C787.263 215.027 791.055 212.127 802.197 209.586C817.211 208.094 825.568 207.579 840.152 208.367Z" fill="#212121"/>
<path d="M64.2809 130.525V124.727L86.0589 100.887C88.6147 98.0947 90.7195 95.6678 92.3732 93.606C94.027 91.5227 95.2512 89.5682 96.0458 87.7427C96.862 85.8956 97.27 83.9627 97.27 81.9438C97.27 79.6243 96.7116 77.6161 95.5948 75.9194C94.4995 74.2227 92.9961 72.9126 91.0846 71.9891C89.1731 71.0656 87.0254 70.6038 84.6414 70.6038C82.1071 70.6038 79.8949 71.13 78.0049 72.1824C76.1364 73.2133 74.6867 74.663 73.6558 76.5315C72.6463 78.4001 72.1416 80.5907 72.1416 83.1036H64.5387C64.5387 79.2377 65.43 75.8443 67.2126 72.9233C68.9952 70.0024 71.4221 67.7258 74.4934 66.0936C77.5861 64.4613 81.0547 63.6452 84.8991 63.6452C88.765 63.6452 92.1907 64.4613 95.176 66.0936C98.1613 67.7258 100.502 69.9273 102.199 72.6978C103.896 75.4684 104.744 78.5504 104.744 81.9438C104.744 84.3707 104.304 86.744 103.423 89.0635C102.564 91.3616 101.061 93.9281 98.913 96.7631C96.7868 99.5766 93.8337 103.013 90.0537 107.072L75.2344 122.922V123.438H105.904V130.525H64.2809ZM124.879 131.041C123.29 131.041 121.926 130.472 120.788 129.333C119.649 128.195 119.08 126.831 119.08 125.242C119.08 123.653 119.649 122.289 120.788 121.151C121.926 120.012 123.29 119.443 124.879 119.443C126.468 119.443 127.832 120.012 128.97 121.151C130.109 122.289 130.678 123.653 130.678 125.242C130.678 126.294 130.409 127.261 129.873 128.141C129.357 129.022 128.659 129.731 127.778 130.268C126.919 130.783 125.953 131.041 124.879 131.041Z" fill="white"/>
<path d="M1201.01 345.723C1199.95 345.937 1286.75 274.116 1300.6 265.808C1314.45 257.501 1526.05 250.648 1661 252.228C1659.95 281.771 1653.67 298.525 1642.02 319.956L1579 360L1561.93 425.29C1559.1 430.273 1556.54 431.483 1550.79 431.732C1526.19 425.188 1512.36 420.793 1487.59 411.013C1475.49 408.38 1468.7 409.061 1456.6 411.013C1444.13 415.271 1437.38 418.012 1427 425.29C1413.32 436.621 1405.83 443.368 1392.88 456.281L1358.4 487.969C1345.12 497.822 1336.99 504.335 1322.54 513.388C1308.09 522.442 1301.33 526.176 1287.71 533.933C1271.93 541.882 1262.82 544.554 1246.28 550.125C1229.25 554.568 1218.71 552.898 1201.01 553.433V345.723Z" fill="url(#paint2_linear_974_148)"/>
<path d="M1602.48 337.75C1622.56 326.011 1623.86 324.953 1642.3 320.565C1624.77 340.444 1610.72 352.752 1602.48 369.537L1598.7 376.813L1594.98 407.316C1594.04 415.08 1587.01 420.632 1579.24 419.754L1561.51 417.75C1553.2 409.821 1556.86 398.91 1557 395.25C1557.14 391.59 1566.33 371.14 1571 362.75C1581.63 350.502 1586.55 347.06 1602.48 337.75Z" fill="#9B9B9B"/>
<path d="M1598.36 376.64L1598.33 376.701L1598.32 376.768L1594.61 407.27C1593.69 414.831 1586.85 420.236 1579.28 419.381L1561.68 417.392C1557.69 413.534 1556.56 408.97 1556.46 404.89C1556.41 402.831 1556.62 400.9 1556.85 399.247C1556.92 398.754 1556.99 398.281 1557.06 397.835C1557.21 396.806 1557.35 395.92 1557.37 395.265C1557.39 394.858 1557.54 394.178 1557.81 393.253C1558.08 392.339 1558.47 391.216 1558.94 389.938C1559.89 387.385 1561.2 384.23 1562.64 380.924C1565.53 374.328 1568.98 367.152 1571.31 362.966C1576.6 356.868 1580.47 352.972 1584.98 349.444C1589.51 345.906 1594.7 342.729 1602.67 338.074C1603.56 337.554 1604.41 337.055 1605.23 336.575C1613.66 331.641 1618.5 328.812 1623.16 326.744C1628.05 324.575 1632.75 323.24 1641.24 321.206C1637.14 325.821 1633.25 330.029 1629.57 333.988C1629.37 334.2 1629.17 334.412 1628.98 334.623C1625.29 338.595 1621.83 342.322 1618.63 345.963C1611.88 353.632 1606.29 360.934 1602.14 369.368L1598.36 376.64Z" stroke="white" stroke-opacity="0.5" stroke-width="0.75"/>
<path d="M1616.05 335.693C1634.01 324.687 1622.03 330.321 1642.49 320.36C1624.94 340.238 1610.88 352.545 1602.63 369.33L1598.85 376.606C1596.91 389.351 1596 396.586 1594.74 409.667C1593.5 412.678 1592.64 414.098 1590.81 416.11C1582.49 408.18 1583.07 401.38 1582.1 397.167C1581.13 392.953 1581.92 378.781 1585.83 370.478C1594.45 356.349 1602.27 344.81 1616.05 335.693Z" fill="#717171"/>
<path d="M1598.52 376.433L1598.49 376.488L1598.48 376.55C1596.54 389.284 1595.63 396.522 1594.37 409.575C1593.21 412.375 1592.4 413.756 1590.79 415.571C1586.87 411.752 1585.03 408.218 1584.06 405.132C1583.56 403.549 1583.28 402.077 1583.07 400.731C1583.02 400.37 1582.96 400.015 1582.91 399.669C1582.78 398.736 1582.65 397.863 1582.47 397.082C1582 395.04 1581.94 390.497 1582.51 385.397C1583.07 380.314 1584.23 374.752 1586.16 370.656C1594.77 356.542 1602.56 345.073 1616.26 336.009C1623.19 331.757 1625.68 329.98 1627.27 328.837C1627.74 328.501 1628.13 328.219 1628.54 327.946C1630.22 326.821 1632.17 325.808 1640.95 321.525C1637.03 325.935 1633.28 329.974 1629.74 333.782C1629.54 333.995 1629.35 334.207 1629.15 334.418C1625.46 338.389 1621.99 342.117 1618.79 345.757C1612.04 353.426 1606.44 360.727 1602.3 369.161L1598.52 376.433Z" stroke="white" stroke-opacity="0.5" stroke-width="0.75"/>
<path d="M1412.55 241.273C1493.02 237.866 1539.19 236.995 1621.65 237.443C1644.38 239.276 1651.43 243.435 1660.82 252.59L1300.95 265.648C1311.65 250.133 1345.02 246.425 1412.55 241.273Z" fill="#232323"/>
<path d="M1485.15 208.367C1493.43 209.773 1497.1 211.527 1500.3 217.943C1499.41 225.408 1497.97 228.358 1493.16 230.652C1489.8 232.034 1488.98 234.344 1487.94 238.835L1443.71 240.054C1443.04 236.416 1441.54 234.915 1436.92 233.961C1432.42 231.867 1430.8 229.867 1431 223.514C1432.26 215.027 1436.06 212.127 1447.2 209.586C1462.21 208.094 1470.57 207.579 1485.15 208.367Z" fill="#212121"/>
<path d="M440.458 782.049V823.285H435.465V782.049H440.458ZM463.598 792.358V796.385H446.926V792.358H463.598ZM451.92 823.285V788.089C451.92 786.317 452.336 784.841 453.168 783.66C454 782.478 455.081 781.592 456.41 781.002C457.739 780.411 459.142 780.116 460.618 780.116C461.786 780.116 462.739 780.21 463.477 780.398C464.216 780.586 464.766 780.76 465.128 780.921L463.759 785.029C463.518 784.948 463.182 784.848 462.752 784.727C462.336 784.606 461.786 784.546 461.101 784.546C459.531 784.546 458.397 784.942 457.699 785.733C457.014 786.525 456.672 787.687 456.672 789.217V823.285H451.92ZM489.265 834.883C488.46 834.883 487.742 834.816 487.111 834.682C486.48 834.561 486.044 834.44 485.802 834.319L487.01 830.131C488.164 830.426 489.185 830.534 490.071 830.453C490.956 830.373 491.742 829.977 492.426 829.265C493.124 828.567 493.762 827.433 494.339 825.862L495.225 823.446L483.788 792.358H488.943L497.48 817.003H497.802L506.34 792.358H511.494L498.366 827.795C497.776 829.393 497.044 830.715 496.171 831.762C495.299 832.822 494.285 833.608 493.131 834.118C491.99 834.628 490.701 834.883 489.265 834.883ZM529.223 823.929C526.431 823.929 523.981 823.265 521.874 821.936C519.78 820.607 518.142 818.748 516.961 816.359C515.793 813.969 515.209 811.177 515.209 807.983C515.209 804.761 515.793 801.949 516.961 799.546C518.142 797.143 519.78 795.277 521.874 793.949C523.981 792.62 526.431 791.955 529.223 791.955C532.015 791.955 534.458 792.62 536.552 793.949C538.66 795.277 540.297 797.143 541.465 799.546C542.646 801.949 543.237 804.761 543.237 807.983C543.237 811.177 542.646 813.969 541.465 816.359C540.297 818.748 538.66 820.607 536.552 821.936C534.458 823.265 532.015 823.929 529.223 823.929ZM529.223 819.661C531.344 819.661 533.089 819.117 534.458 818.03C535.827 816.943 536.841 815.513 537.498 813.741C538.156 811.969 538.485 810.05 538.485 807.983C538.485 805.915 538.156 803.989 537.498 802.204C536.841 800.419 535.827 798.976 534.458 797.875C533.089 796.774 531.344 796.224 529.223 796.224C527.102 796.224 525.357 796.774 523.988 797.875C522.619 798.976 521.605 800.419 520.947 802.204C520.29 803.989 519.961 805.915 519.961 807.983C519.961 810.05 520.29 811.969 520.947 813.741C521.605 815.513 522.619 816.943 523.988 818.03C525.357 819.117 527.102 819.661 529.223 819.661ZM569.981 810.64V792.358H574.733V823.285H569.981V818.05H569.659C568.934 819.621 567.807 820.956 566.276 822.057C564.746 823.144 562.813 823.688 560.477 823.688C558.544 823.688 556.826 823.265 555.323 822.419C553.819 821.56 552.638 820.272 551.779 818.553C550.92 816.822 550.49 814.641 550.49 812.01V792.358H555.242V811.687C555.242 813.943 555.873 815.741 557.135 817.084C558.41 818.426 560.034 819.097 562.008 819.097C563.189 819.097 564.39 818.795 565.612 818.191C566.847 817.587 567.88 816.661 568.713 815.412C569.558 814.164 569.981 812.573 569.981 810.64ZM599.383 834.883V792.358H603.974V797.271H604.538C604.887 796.734 605.37 796.049 605.987 795.217C606.618 794.371 607.518 793.62 608.686 792.962C609.867 792.291 611.464 791.955 613.478 791.955C616.082 791.955 618.377 792.606 620.364 793.908C622.35 795.21 623.901 797.056 625.015 799.445C626.129 801.835 626.686 804.654 626.686 807.902C626.686 811.177 626.129 814.016 625.015 816.419C623.901 818.808 622.357 820.661 620.384 821.976C618.411 823.278 616.135 823.929 613.558 823.929C611.572 823.929 609.981 823.601 608.786 822.943C607.592 822.272 606.672 821.513 606.028 820.668C605.383 819.809 604.887 819.097 604.538 818.533H604.135V834.883H599.383ZM604.054 807.822C604.054 810.157 604.397 812.218 605.081 814.003C605.766 815.775 606.766 817.164 608.081 818.171C609.397 819.164 611.008 819.661 612.914 819.661C614.9 819.661 616.558 819.137 617.887 818.09C619.23 817.03 620.236 815.607 620.907 813.822C621.592 812.023 621.934 810.023 621.934 807.822C621.934 805.647 621.599 803.687 620.928 801.942C620.27 800.184 619.27 798.794 617.927 797.774C616.599 796.741 614.927 796.224 612.914 796.224C610.981 796.224 609.357 796.714 608.041 797.694C606.726 798.66 605.732 800.016 605.061 801.761C604.39 803.493 604.054 805.513 604.054 807.822ZM633.935 823.285V792.358H638.525V797.029H638.848C639.411 795.499 640.432 794.257 641.908 793.304C643.385 792.351 645.049 791.875 646.902 791.875C647.251 791.875 647.687 791.881 648.21 791.895C648.734 791.908 649.13 791.928 649.398 791.955V796.788C649.237 796.747 648.868 796.687 648.291 796.606C647.727 796.512 647.13 796.465 646.499 796.465C644.996 796.465 643.653 796.781 642.472 797.412C641.304 798.029 640.378 798.888 639.693 799.989C639.022 801.076 638.687 802.318 638.687 803.714V823.285H633.935ZM667.057 823.929C664.077 823.929 661.506 823.272 659.345 821.956C657.197 820.627 655.54 818.775 654.372 816.399C653.217 814.01 652.64 811.231 652.64 808.063C652.64 804.895 653.217 802.103 654.372 799.687C655.54 797.257 657.164 795.365 659.244 794.009C661.338 792.64 663.781 791.955 666.573 791.955C668.184 791.955 669.775 792.224 671.345 792.761C672.916 793.298 674.346 794.17 675.634 795.378C676.923 796.573 677.95 798.157 678.715 800.13C679.48 802.103 679.863 804.533 679.863 807.419V809.432H656.023V805.325H675.03C675.03 803.58 674.681 802.023 673.983 800.653C673.299 799.284 672.319 798.204 671.043 797.412C669.782 796.62 668.292 796.224 666.573 796.224C664.681 796.224 663.043 796.694 661.661 797.633C660.291 798.559 659.238 799.768 658.499 801.258C657.761 802.748 657.392 804.345 657.392 806.05V808.788C657.392 811.124 657.795 813.104 658.6 814.728C659.419 816.339 660.553 817.567 662.003 818.413C663.453 819.245 665.137 819.661 667.057 819.661C668.305 819.661 669.433 819.486 670.439 819.137C671.46 818.775 672.339 818.238 673.077 817.527C673.815 816.802 674.386 815.902 674.789 814.828L679.379 816.117C678.896 817.674 678.084 819.043 676.943 820.225C675.802 821.392 674.393 822.305 672.715 822.963C671.037 823.607 669.151 823.929 667.057 823.929ZM708.998 799.284L704.729 800.492C704.461 799.781 704.065 799.09 703.541 798.419C703.031 797.734 702.333 797.17 701.447 796.727C700.561 796.284 699.427 796.063 698.044 796.063C696.152 796.063 694.574 796.499 693.313 797.371C692.064 798.231 691.44 799.325 691.44 800.653C691.44 801.835 691.87 802.768 692.729 803.452C693.588 804.137 694.93 804.707 696.756 805.164L701.347 806.291C704.112 806.962 706.172 807.989 707.528 809.372C708.884 810.741 709.562 812.506 709.562 814.667C709.562 816.439 709.051 818.023 708.031 819.419C707.025 820.815 705.615 821.916 703.803 822.721C701.991 823.527 699.883 823.929 697.481 823.929C694.326 823.929 691.715 823.245 689.648 821.876C687.581 820.507 686.272 818.506 685.722 815.875L690.232 814.748C690.662 816.412 691.474 817.661 692.668 818.493C693.876 819.325 695.454 819.741 697.4 819.741C699.615 819.741 701.373 819.272 702.675 818.332C703.991 817.379 704.649 816.238 704.649 814.909C704.649 813.835 704.273 812.936 703.521 812.211C702.769 811.473 701.615 810.922 700.058 810.56L694.903 809.352C692.071 808.681 689.99 807.64 688.661 806.231C687.346 804.808 686.688 803.029 686.688 800.895C686.688 799.15 687.178 797.606 688.158 796.264C689.151 794.922 690.5 793.868 692.205 793.103C693.923 792.338 695.87 791.955 698.044 791.955C701.105 791.955 703.508 792.626 705.253 793.969C707.011 795.311 708.26 797.083 708.998 799.284ZM738.621 799.284L734.353 800.492C734.084 799.781 733.688 799.09 733.165 798.419C732.655 797.734 731.957 797.17 731.071 796.727C730.185 796.284 729.051 796.063 727.668 796.063C725.775 796.063 724.198 796.499 722.936 797.371C721.688 798.231 721.064 799.325 721.064 800.653C721.064 801.835 721.493 802.768 722.352 803.452C723.211 804.137 724.554 804.707 726.379 805.164L730.97 806.291C733.735 806.962 735.796 807.989 737.151 809.372C738.507 810.741 739.185 812.506 739.185 814.667C739.185 816.439 738.675 818.023 737.655 819.419C736.648 820.815 735.239 821.916 733.427 822.721C731.614 823.527 729.507 823.929 727.104 823.929C723.95 823.929 721.339 823.245 719.272 821.876C717.204 820.507 715.896 818.506 715.345 815.875L719.856 814.748C720.285 816.412 721.097 817.661 722.292 818.493C723.5 819.325 725.077 819.741 727.024 819.741C729.238 819.741 730.997 819.272 732.299 818.332C733.614 817.379 734.272 816.238 734.272 814.909C734.272 813.835 733.896 812.936 733.145 812.211C732.393 811.473 731.239 810.922 729.681 810.56L724.527 809.352C721.695 808.681 719.614 807.64 718.285 806.231C716.97 804.808 716.312 803.029 716.312 800.895C716.312 799.15 716.802 797.606 717.782 796.264C718.775 794.922 720.124 793.868 721.829 793.103C723.547 792.338 725.493 791.955 727.668 791.955C730.728 791.955 733.131 792.626 734.876 793.969C736.635 795.311 737.883 797.083 738.621 799.284ZM773.963 823.929C771.386 823.929 769.111 823.278 767.137 821.976C765.164 820.661 763.621 818.808 762.506 816.419C761.392 814.016 760.835 811.177 760.835 807.902C760.835 804.654 761.392 801.835 762.506 799.445C763.621 797.056 765.171 795.21 767.158 793.908C769.144 792.606 771.44 791.955 774.044 791.955C776.057 791.955 777.648 792.291 778.816 792.962C779.997 793.62 780.896 794.371 781.514 795.217C782.145 796.049 782.635 796.734 782.984 797.271H783.386V782.049H788.138V823.285H783.547V818.533H782.984C782.635 819.097 782.138 819.809 781.494 820.668C780.849 821.513 779.93 822.272 778.735 822.943C777.54 823.601 775.95 823.929 773.963 823.929ZM774.607 819.661C776.514 819.661 778.124 819.164 779.44 818.171C780.755 817.164 781.755 815.775 782.44 814.003C783.125 812.218 783.467 810.157 783.467 807.822C783.467 805.513 783.131 803.493 782.46 801.761C781.789 800.016 780.796 798.66 779.48 797.694C778.165 796.714 776.54 796.224 774.607 796.224C772.594 796.224 770.916 796.741 769.574 797.774C768.245 798.794 767.245 800.184 766.574 801.942C765.916 803.687 765.587 805.647 765.587 807.822C765.587 810.023 765.923 812.023 766.594 813.822C767.278 815.607 768.285 817.03 769.614 818.09C770.956 819.137 772.621 819.661 774.607 819.661ZM810.065 823.929C807.273 823.929 804.823 823.265 802.716 821.936C800.622 820.607 798.984 818.748 797.803 816.359C796.635 813.969 796.051 811.177 796.051 807.983C796.051 804.761 796.635 801.949 797.803 799.546C798.984 797.143 800.622 795.277 802.716 793.949C804.823 792.62 807.273 791.955 810.065 791.955C812.857 791.955 815.3 792.62 817.394 793.949C819.502 795.277 821.139 797.143 822.307 799.546C823.488 801.949 824.079 804.761 824.079 807.983C824.079 811.177 823.488 813.969 822.307 816.359C821.139 818.748 819.502 820.607 817.394 821.936C815.3 823.265 812.857 823.929 810.065 823.929ZM810.065 819.661C812.186 819.661 813.931 819.117 815.3 818.03C816.669 816.943 817.683 815.513 818.341 813.741C818.998 811.969 819.327 810.05 819.327 807.983C819.327 805.915 818.998 803.989 818.341 802.204C817.683 800.419 816.669 798.976 815.3 797.875C813.931 796.774 812.186 796.224 810.065 796.224C807.944 796.224 806.199 796.774 804.83 797.875C803.461 798.976 802.447 800.419 801.79 802.204C801.132 803.989 800.803 805.915 800.803 807.983C800.803 810.05 801.132 811.969 801.79 813.741C802.447 815.513 803.461 816.943 804.83 818.03C806.199 819.117 807.944 819.661 810.065 819.661ZM837.288 823.285L827.864 792.358H832.858L839.543 816.037H839.865L846.469 792.358H851.543L858.067 815.956H858.389L865.074 792.358H870.067L860.644 823.285H855.973L849.207 799.526H848.724L841.959 823.285H837.288ZM881.101 804.68V823.285H876.349V792.358H880.94V797.19H881.343C882.068 795.62 883.168 794.358 884.645 793.405C886.122 792.438 888.028 791.955 890.363 791.955C892.457 791.955 894.29 792.385 895.86 793.244C897.431 794.089 898.652 795.378 899.525 797.11C900.397 798.828 900.833 801.002 900.833 803.633V823.285H896.082V803.956C896.082 801.526 895.451 799.633 894.189 798.278C892.927 796.908 891.196 796.224 888.994 796.224C887.477 796.224 886.122 796.553 884.927 797.21C883.746 797.868 882.813 798.828 882.128 800.09C881.444 801.351 881.101 802.882 881.101 804.68ZM938.914 792.358V796.385H922.886V792.358H938.914ZM927.558 784.948H932.309V814.426C932.309 815.768 932.504 816.775 932.893 817.446C933.296 818.104 933.806 818.547 934.424 818.775C935.054 818.99 935.719 819.097 936.417 819.097C936.94 819.097 937.37 819.07 937.706 819.017C938.041 818.949 938.31 818.896 938.511 818.855L939.477 823.124C939.155 823.245 938.706 823.366 938.128 823.487C937.551 823.621 936.82 823.688 935.934 823.688C934.591 823.688 933.276 823.399 931.987 822.822C930.712 822.245 929.652 821.366 928.806 820.184C927.974 819.003 927.558 817.513 927.558 815.714V784.948ZM951.478 804.68V823.285H946.726V782.049H951.478V797.19H951.881C952.605 795.593 953.693 794.324 955.142 793.385C956.606 792.432 958.552 791.955 960.982 791.955C963.089 791.955 964.935 792.378 966.519 793.224C968.103 794.056 969.331 795.338 970.203 797.069C971.089 798.788 971.532 800.976 971.532 803.633V823.285H966.78V803.956C966.78 801.499 966.143 799.6 964.868 798.257C963.606 796.902 961.854 796.224 959.612 796.224C958.055 796.224 956.659 796.553 955.424 797.21C954.203 797.868 953.236 798.828 952.525 800.09C951.827 801.351 951.478 802.882 951.478 804.68ZM993.192 823.929C990.212 823.929 987.642 823.272 985.481 821.956C983.333 820.627 981.675 818.775 980.507 816.399C979.353 814.01 978.776 811.231 978.776 808.063C978.776 804.895 979.353 802.103 980.507 799.687C981.675 797.257 983.299 795.365 985.38 794.009C987.474 792.64 989.917 791.955 992.709 791.955C994.32 791.955 995.911 792.224 997.481 792.761C999.052 793.298 1000.48 794.17 1001.77 795.378C1003.06 796.573 1004.09 798.157 1004.85 800.13C1005.62 802.103 1006 804.533 1006 807.419V809.432H982.159V805.325H1001.17C1001.17 803.58 1000.82 802.023 1000.12 800.653C999.434 799.284 998.454 798.204 997.179 797.412C995.917 796.62 994.427 796.224 992.709 796.224C990.817 796.224 989.179 796.694 987.796 797.633C986.427 798.559 985.373 799.768 984.635 801.258C983.897 802.748 983.528 804.345 983.528 806.05V808.788C983.528 811.124 983.93 813.104 984.736 814.728C985.555 816.339 986.689 817.567 988.139 818.413C989.588 819.245 991.273 819.661 993.192 819.661C994.441 819.661 995.568 819.486 996.575 819.137C997.595 818.775 998.475 818.238 999.213 817.527C999.951 816.802 1000.52 815.902 1000.92 814.828L1005.52 816.117C1005.03 817.674 1004.22 819.043 1003.08 820.225C1001.94 821.392 1000.53 822.305 998.85 822.963C997.172 823.607 995.286 823.929 993.192 823.929ZM1042.62 792.358V796.385H1026.6V792.358H1042.62ZM1031.27 784.948H1036.02V814.426C1036.02 815.768 1036.21 816.775 1036.6 817.446C1037.01 818.104 1037.52 818.547 1038.13 818.775C1038.76 818.99 1039.43 819.097 1040.13 819.097C1040.65 819.097 1041.08 819.07 1041.42 819.017C1041.75 818.949 1042.02 818.896 1042.22 818.855L1043.19 823.124C1042.87 823.245 1042.42 823.366 1041.84 823.487C1041.26 823.621 1040.53 823.688 1039.64 823.688C1038.3 823.688 1036.99 823.399 1035.7 822.822C1034.42 822.245 1033.36 821.366 1032.52 820.184C1031.68 819.003 1031.27 817.513 1031.27 815.714V784.948ZM1049.77 823.285V792.358H1054.36V797.029H1054.68C1055.25 795.499 1056.27 794.257 1057.75 793.304C1059.22 792.351 1060.89 791.875 1062.74 791.875C1063.09 791.875 1063.52 791.881 1064.05 791.895C1064.57 791.908 1064.97 791.928 1065.24 791.955V796.788C1065.07 796.747 1064.71 796.687 1064.13 796.606C1063.56 796.512 1062.97 796.465 1062.34 796.465C1060.83 796.465 1059.49 796.781 1058.31 797.412C1057.14 798.029 1056.21 798.888 1055.53 799.989C1054.86 801.076 1054.52 802.318 1054.52 803.714V823.285H1049.77ZM1070.87 823.285V792.358H1075.62V823.285H1070.87ZM1073.28 787.203C1072.36 787.203 1071.56 786.888 1070.89 786.257C1070.23 785.626 1069.9 784.868 1069.9 783.982C1069.9 783.096 1070.23 782.337 1070.89 781.706C1071.56 781.076 1072.36 780.76 1073.28 780.76C1074.21 780.76 1075 781.076 1075.66 781.706C1076.33 782.337 1076.67 783.096 1076.67 783.982C1076.67 784.868 1076.33 785.626 1075.66 786.257C1075 786.888 1074.21 787.203 1073.28 787.203ZM1096.81 835.527C1094.51 835.527 1092.54 835.232 1090.89 834.641C1089.24 834.064 1087.86 833.299 1086.76 832.346C1085.67 831.406 1084.81 830.4 1084.16 829.326L1087.95 826.668C1088.38 827.232 1088.92 827.876 1089.58 828.601C1090.24 829.339 1091.14 829.977 1092.28 830.514C1093.43 831.064 1094.94 831.339 1096.81 831.339C1099.3 831.339 1101.36 830.735 1102.99 829.527C1104.61 828.319 1105.42 826.426 1105.42 823.849V817.567H1105.02C1104.67 818.131 1104.18 818.829 1103.53 819.661C1102.9 820.48 1101.99 821.211 1100.79 821.856C1099.61 822.486 1098.01 822.802 1096 822.802C1093.5 822.802 1091.26 822.211 1089.28 821.03C1087.3 819.849 1085.74 818.131 1084.58 815.875C1083.44 813.62 1082.87 810.882 1082.87 807.66C1082.87 804.493 1083.43 801.734 1084.54 799.385C1085.66 797.022 1087.21 795.197 1089.2 793.908C1091.18 792.606 1093.48 791.955 1096.08 791.955C1098.1 791.955 1099.69 792.291 1100.87 792.962C1102.07 793.62 1102.98 794.371 1103.61 795.217C1104.26 796.049 1104.75 796.734 1105.1 797.271H1105.59V792.358H1110.18V824.171C1110.18 826.829 1109.57 828.99 1108.36 830.655C1107.17 832.332 1105.56 833.561 1103.53 834.339C1101.52 835.131 1099.28 835.527 1096.81 835.527ZM1096.65 818.533C1098.55 818.533 1100.16 818.097 1101.48 817.225C1102.79 816.352 1103.79 815.097 1104.48 813.459C1105.16 811.822 1105.51 809.862 1105.51 807.58C1105.51 805.352 1105.17 803.385 1104.5 801.68C1103.83 799.976 1102.83 798.64 1101.52 797.674C1100.2 796.707 1098.58 796.224 1096.65 796.224C1094.63 796.224 1092.95 796.734 1091.61 797.754C1090.28 798.774 1089.28 800.143 1088.61 801.862C1087.95 803.58 1087.63 805.486 1087.63 807.58C1087.63 809.728 1087.96 811.627 1088.63 813.278C1089.32 814.916 1090.32 816.204 1091.65 817.144C1092.99 818.07 1094.66 818.533 1096.65 818.533ZM1131.36 835.527C1129.06 835.527 1127.09 835.232 1125.44 834.641C1123.79 834.064 1122.41 833.299 1121.31 832.346C1120.22 831.406 1119.36 830.4 1118.71 829.326L1122.5 826.668C1122.93 827.232 1123.47 827.876 1124.13 828.601C1124.79 829.339 1125.69 829.977 1126.83 830.514C1127.98 831.064 1129.49 831.339 1131.36 831.339C1133.86 831.339 1135.92 830.735 1137.54 829.527C1139.16 828.319 1139.98 826.426 1139.98 823.849V817.567H1139.57C1139.22 818.131 1138.73 818.829 1138.08 819.661C1137.45 820.48 1136.54 821.211 1135.35 821.856C1134.16 822.486 1132.57 822.802 1130.55 822.802C1128.06 822.802 1125.81 822.211 1123.83 821.03C1121.85 819.849 1120.29 818.131 1119.14 815.875C1118 813.62 1117.43 810.882 1117.43 807.66C1117.43 804.493 1117.98 801.734 1119.1 799.385C1120.21 797.022 1121.76 795.197 1123.75 793.908C1125.73 792.606 1128.03 791.955 1130.63 791.955C1132.65 791.955 1134.24 792.291 1135.43 792.962C1136.62 793.62 1137.53 794.371 1138.16 795.217C1138.81 796.049 1139.3 796.734 1139.65 797.271H1140.14V792.358H1144.73V824.171C1144.73 826.829 1144.12 828.99 1142.92 830.655C1141.72 832.332 1140.11 833.561 1138.08 834.339C1136.07 835.131 1133.83 835.527 1131.36 835.527ZM1131.2 818.533C1133.1 818.533 1134.71 818.097 1136.03 817.225C1137.35 816.352 1138.35 815.097 1139.03 813.459C1139.71 811.822 1140.06 809.862 1140.06 807.58C1140.06 805.352 1139.72 803.385 1139.05 801.68C1138.38 799.976 1137.39 798.64 1136.07 797.674C1134.75 796.707 1133.13 796.224 1131.2 796.224C1129.18 796.224 1127.51 796.734 1126.16 797.754C1124.83 798.774 1123.83 800.143 1123.16 801.862C1122.51 803.58 1122.18 805.486 1122.18 807.58C1122.18 809.728 1122.51 811.627 1123.18 813.278C1123.87 814.916 1124.87 816.204 1126.2 817.144C1127.55 818.07 1129.21 818.533 1131.2 818.533ZM1166.39 823.929C1163.41 823.929 1160.84 823.272 1158.68 821.956C1156.53 820.627 1154.88 818.775 1153.71 816.399C1152.55 814.01 1151.98 811.231 1151.98 808.063C1151.98 804.895 1152.55 802.103 1153.71 799.687C1154.88 797.257 1156.5 795.365 1158.58 794.009C1160.67 792.64 1163.12 791.955 1165.91 791.955C1167.52 791.955 1169.11 792.224 1170.68 792.761C1172.25 793.298 1173.68 794.17 1174.97 795.378C1176.26 796.573 1177.29 798.157 1178.05 800.13C1178.82 802.103 1179.2 804.533 1179.2 807.419V809.432H1155.36V805.325H1174.37C1174.37 803.58 1174.02 802.023 1173.32 800.653C1172.64 799.284 1171.66 798.204 1170.38 797.412C1169.12 796.62 1167.63 796.224 1165.91 796.224C1164.02 796.224 1162.38 796.694 1161 797.633C1159.63 798.559 1158.57 799.768 1157.84 801.258C1157.1 802.748 1156.73 804.345 1156.73 806.05V808.788C1156.73 811.124 1157.13 813.104 1157.94 814.728C1158.76 816.339 1159.89 817.567 1161.34 818.413C1162.79 819.245 1164.47 819.661 1166.39 819.661C1167.64 819.661 1168.77 819.486 1169.78 819.137C1170.8 818.775 1171.68 818.238 1172.41 817.527C1173.15 816.802 1173.72 815.902 1174.13 814.828L1178.72 816.117C1178.23 817.674 1177.42 819.043 1176.28 820.225C1175.14 821.392 1173.73 822.305 1172.05 822.963C1170.37 823.607 1168.49 823.929 1166.39 823.929ZM1186.43 823.285V792.358H1191.02V797.029H1191.34C1191.9 795.499 1192.92 794.257 1194.4 793.304C1195.88 792.351 1197.54 791.875 1199.39 791.875C1199.74 791.875 1200.18 791.881 1200.7 791.895C1201.23 791.908 1201.62 791.928 1201.89 791.955V796.788C1201.73 796.747 1201.36 796.687 1200.78 796.606C1200.22 796.512 1199.62 796.465 1198.99 796.465C1197.49 796.465 1196.15 796.781 1194.96 797.412C1193.8 798.029 1192.87 798.888 1192.19 799.989C1191.51 801.076 1191.18 802.318 1191.18 803.714V823.285H1186.43ZM1237.24 792.358V796.385H1220.57V792.358H1237.24ZM1225.56 823.285V788.089C1225.56 786.317 1225.98 784.841 1226.81 783.66C1227.65 782.478 1228.73 781.592 1230.05 781.002C1231.38 780.411 1232.79 780.116 1234.26 780.116C1235.43 780.116 1236.38 780.21 1237.12 780.398C1237.86 780.586 1238.41 780.76 1238.77 780.921L1237.4 785.029C1237.16 784.948 1236.83 784.848 1236.4 784.727C1235.98 784.606 1235.43 784.546 1234.75 784.546C1233.18 784.546 1232.04 784.942 1231.34 785.733C1230.66 786.525 1230.32 787.687 1230.32 789.217V823.285H1225.56ZM1263.39 810.64V792.358H1268.15V823.285H1263.39V818.05H1263.07C1262.35 819.621 1261.22 820.956 1259.69 822.057C1258.16 823.144 1256.23 823.688 1253.89 823.688C1251.96 823.688 1250.24 823.265 1248.74 822.419C1247.23 821.56 1246.05 820.272 1245.19 818.553C1244.33 816.822 1243.9 814.641 1243.9 812.01V792.358H1248.65V811.687C1248.65 813.943 1249.29 815.741 1250.55 817.084C1251.82 818.426 1253.45 819.097 1255.42 819.097C1256.6 819.097 1257.8 818.795 1259.02 818.191C1260.26 817.587 1261.29 816.661 1262.12 815.412C1262.97 814.164 1263.39 812.573 1263.39 810.64ZM1281.6 782.049V823.285H1276.85V782.049H1281.6ZM1295.06 782.049V823.285H1290.3V782.049H1295.06ZM1306.82 834.883C1306.01 834.883 1305.3 834.816 1304.66 834.682C1304.03 834.561 1303.6 834.44 1303.36 834.319L1304.56 830.131C1305.72 830.426 1306.74 830.534 1307.62 830.453C1308.51 830.373 1309.3 829.977 1309.98 829.265C1310.68 828.567 1311.32 827.433 1311.89 825.862L1312.78 823.446L1301.34 792.358H1306.5L1315.03 817.003H1315.36L1323.89 792.358H1329.05L1315.92 827.795C1315.33 829.393 1314.6 830.715 1313.73 831.762C1312.85 832.822 1311.84 833.608 1310.69 834.118C1309.54 834.628 1308.26 834.883 1306.82 834.883ZM1340.47 817.647L1340.15 819.822C1339.92 821.352 1339.57 822.99 1339.1 824.735C1338.64 826.48 1338.17 828.124 1337.67 829.668C1337.17 831.212 1336.77 832.44 1336.44 833.353H1332.82C1332.99 832.494 1333.22 831.359 1333.5 829.95C1333.79 828.54 1334.07 826.963 1334.35 825.218C1334.64 823.487 1334.89 821.715 1335.07 819.902L1335.32 817.647H1340.47ZM1365.22 823.285V792.358H1369.97V823.285H1365.22ZM1367.64 787.203C1366.71 787.203 1365.91 786.888 1365.24 786.257C1364.58 785.626 1364.25 784.868 1364.25 783.982C1364.25 783.096 1364.58 782.337 1365.24 781.706C1365.91 781.076 1366.71 780.76 1367.64 780.76C1368.56 780.76 1369.36 781.076 1370.01 781.706C1370.68 782.337 1371.02 783.096 1371.02 783.982C1371.02 784.868 1370.68 785.626 1370.01 786.257C1369.36 786.888 1368.56 787.203 1367.64 787.203ZM1392.13 792.358V796.385H1376.1V792.358H1392.13ZM1380.77 784.948H1385.52V814.426C1385.52 815.768 1385.72 816.775 1386.11 817.446C1386.51 818.104 1387.02 818.547 1387.64 818.775C1388.27 818.99 1388.93 819.097 1389.63 819.097C1390.15 819.097 1390.58 819.07 1390.92 819.017C1391.25 818.949 1391.52 818.896 1391.72 818.855L1392.69 823.124C1392.37 823.245 1391.92 823.366 1391.34 823.487C1390.76 823.621 1390.03 823.688 1389.15 823.688C1387.8 823.688 1386.49 823.399 1385.2 822.822C1383.92 822.245 1382.86 821.366 1382.02 820.184C1381.19 819.003 1380.77 817.513 1380.77 815.714V784.948ZM1415.22 823.285V792.358H1419.81V797.029H1420.13C1420.7 795.499 1421.72 794.257 1423.19 793.304C1424.67 792.351 1426.34 791.875 1428.19 791.875C1428.54 791.875 1428.97 791.881 1429.5 791.895C1430.02 791.908 1430.42 791.928 1430.68 791.955V796.788C1430.52 796.747 1430.15 796.687 1429.58 796.606C1429.01 796.512 1428.42 796.465 1427.79 796.465C1426.28 796.465 1424.94 796.781 1423.76 797.412C1422.59 798.029 1421.66 798.888 1420.98 799.989C1420.31 801.076 1419.97 802.318 1419.97 803.714V823.285H1415.22ZM1448.34 823.929C1445.36 823.929 1442.79 823.272 1440.63 821.956C1438.48 820.627 1436.83 818.775 1435.66 816.399C1434.5 814.01 1433.93 811.231 1433.93 808.063C1433.93 804.895 1434.5 802.103 1435.66 799.687C1436.83 797.257 1438.45 795.365 1440.53 794.009C1442.62 792.64 1445.07 791.955 1447.86 791.955C1449.47 791.955 1451.06 792.224 1452.63 792.761C1454.2 793.298 1455.63 794.17 1456.92 795.378C1458.21 796.573 1459.24 798.157 1460 800.13C1460.77 802.103 1461.15 804.533 1461.15 807.419V809.432H1437.31V805.325H1456.32C1456.32 803.58 1455.97 802.023 1455.27 800.653C1454.58 799.284 1453.6 798.204 1452.33 797.412C1451.07 796.62 1449.58 796.224 1447.86 796.224C1445.97 796.224 1444.33 796.694 1442.95 797.633C1441.58 798.559 1440.52 799.768 1439.79 801.258C1439.05 802.748 1438.68 804.345 1438.68 806.05V808.788C1438.68 811.124 1439.08 813.104 1439.89 814.728C1440.7 816.339 1441.84 817.567 1443.29 818.413C1444.74 819.245 1446.42 819.661 1448.34 819.661C1449.59 819.661 1450.72 819.486 1451.73 819.137C1452.75 818.775 1453.62 818.238 1454.36 817.527C1455.1 816.802 1455.67 815.902 1456.07 814.828L1460.67 816.117C1460.18 817.674 1459.37 819.043 1458.23 820.225C1457.09 821.392 1455.68 822.305 1454 822.963C1452.32 823.607 1450.44 823.929 1448.34 823.929ZM1481.34 823.929C1478.36 823.929 1475.79 823.272 1473.63 821.956C1471.48 820.627 1469.83 818.775 1468.66 816.399C1467.5 814.01 1466.93 811.231 1466.93 808.063C1466.93 804.895 1467.5 802.103 1468.66 799.687C1469.83 797.257 1471.45 795.365 1473.53 794.009C1475.63 792.64 1478.07 791.955 1480.86 791.955C1482.47 791.955 1484.06 792.224 1485.63 792.761C1487.2 793.298 1488.63 794.17 1489.92 795.378C1491.21 796.573 1492.24 798.157 1493 800.13C1493.77 802.103 1494.15 804.533 1494.15 807.419V809.432H1470.31V805.325H1489.32C1489.32 803.58 1488.97 802.023 1488.27 800.653C1487.59 799.284 1486.61 798.204 1485.33 797.412C1484.07 796.62 1482.58 796.224 1480.86 796.224C1478.97 796.224 1477.33 796.694 1475.95 797.633C1474.58 798.559 1473.52 799.768 1472.79 801.258C1472.05 802.748 1471.68 804.345 1471.68 806.05V808.788C1471.68 811.124 1472.08 813.104 1472.89 814.728C1473.71 816.339 1474.84 817.567 1476.29 818.413C1477.74 819.245 1479.42 819.661 1481.34 819.661C1482.59 819.661 1483.72 819.486 1484.73 819.137C1485.75 818.775 1486.63 818.238 1487.36 817.527C1488.1 816.802 1488.67 815.902 1489.08 814.828L1493.67 816.117C1493.18 817.674 1492.37 819.043 1491.23 820.225C1490.09 821.392 1488.68 822.305 1487 822.963C1485.32 823.607 1483.44 823.929 1481.34 823.929ZM1506.13 782.049V823.285H1501.38V782.049H1506.13ZM1536.74 799.284L1532.47 800.492C1532.2 799.781 1531.81 799.09 1531.28 798.419C1530.77 797.734 1530.08 797.17 1529.19 796.727C1528.3 796.284 1527.17 796.063 1525.79 796.063C1523.89 796.063 1522.32 796.499 1521.06 797.371C1519.81 798.231 1519.18 799.325 1519.18 800.653C1519.18 801.835 1519.61 802.768 1520.47 803.452C1521.33 804.137 1522.67 804.707 1524.5 805.164L1529.09 806.291C1531.85 806.962 1533.91 807.989 1535.27 809.372C1536.63 810.741 1537.3 812.506 1537.3 814.667C1537.3 816.439 1536.79 818.023 1535.77 819.419C1534.77 820.815 1533.36 821.916 1531.55 822.721C1529.73 823.527 1527.63 823.929 1525.22 823.929C1522.07 823.929 1519.46 823.245 1517.39 821.876C1515.32 820.507 1514.01 818.506 1513.46 815.875L1517.97 814.748C1518.4 816.412 1519.22 817.661 1520.41 818.493C1521.62 819.325 1523.2 819.741 1525.14 819.741C1527.36 819.741 1529.12 819.272 1530.42 818.332C1531.73 817.379 1532.39 816.238 1532.39 814.909C1532.39 813.835 1532.02 812.936 1531.26 812.211C1530.51 811.473 1529.36 810.922 1527.8 810.56L1522.65 809.352C1519.81 808.681 1517.73 807.64 1516.4 806.231C1515.09 804.808 1514.43 803.029 1514.43 800.895C1514.43 799.15 1514.92 797.606 1515.9 796.264C1516.89 794.922 1518.24 793.868 1519.95 793.103C1521.67 792.338 1523.61 791.955 1525.79 791.955C1528.85 791.955 1531.25 792.626 1533 793.969C1534.75 795.311 1536 797.083 1536.74 799.284ZM1563.46 834.883C1562.66 834.883 1561.94 834.816 1561.31 834.682C1560.68 834.561 1560.24 834.44 1560 834.319L1561.21 830.131C1562.36 830.426 1563.38 830.534 1564.27 830.453C1565.16 830.373 1565.94 829.977 1566.63 829.265C1567.32 828.567 1567.96 827.433 1568.54 825.862L1569.42 823.446L1557.99 792.358H1563.14L1571.68 817.003H1572L1580.54 792.358H1585.69L1572.57 827.795C1571.97 829.393 1571.24 830.715 1570.37 831.762C1569.5 832.822 1568.48 833.608 1567.33 834.118C1566.19 834.628 1564.9 834.883 1563.46 834.883ZM1603.42 823.929C1600.63 823.929 1598.18 823.265 1596.07 821.936C1593.98 820.607 1592.34 818.748 1591.16 816.359C1589.99 813.969 1589.41 811.177 1589.41 807.983C1589.41 804.761 1589.99 801.949 1591.16 799.546C1592.34 797.143 1593.98 795.277 1596.07 793.949C1598.18 792.62 1600.63 791.955 1603.42 791.955C1606.21 791.955 1608.66 792.62 1610.75 793.949C1612.86 795.277 1614.5 797.143 1615.66 799.546C1616.85 801.949 1617.44 804.761 1617.44 807.983C1617.44 811.177 1616.85 813.969 1615.66 816.359C1614.5 818.748 1612.86 820.607 1610.75 821.936C1608.66 823.265 1606.21 823.929 1603.42 823.929ZM1603.42 819.661C1605.54 819.661 1607.29 819.117 1608.66 818.03C1610.03 816.943 1611.04 815.513 1611.7 813.741C1612.36 811.969 1612.68 810.05 1612.68 807.983C1612.68 805.915 1612.36 803.989 1611.7 802.204C1611.04 800.419 1610.03 798.976 1608.66 797.875C1607.29 796.774 1605.54 796.224 1603.42 796.224C1601.3 796.224 1599.56 796.774 1598.19 797.875C1596.82 798.976 1595.8 800.419 1595.15 802.204C1594.49 803.989 1594.16 805.915 1594.16 807.983C1594.16 810.05 1594.49 811.969 1595.15 813.741C1595.8 815.513 1596.82 816.943 1598.19 818.03C1599.56 819.117 1601.3 819.661 1603.42 819.661ZM1644.18 810.64V792.358H1648.93V823.285H1644.18V818.05H1643.86C1643.13 819.621 1642.01 820.956 1640.48 822.057C1638.95 823.144 1637.01 823.688 1634.68 823.688C1632.74 823.688 1631.03 823.265 1629.52 822.419C1628.02 821.56 1626.84 820.272 1625.98 818.553C1625.12 816.822 1624.69 814.641 1624.69 812.01V792.358H1629.44V811.687C1629.44 813.943 1630.07 815.741 1631.33 817.084C1632.61 818.426 1634.23 819.097 1636.21 819.097C1637.39 819.097 1638.59 818.795 1639.81 818.191C1641.05 817.587 1642.08 816.661 1642.91 815.412C1643.76 814.164 1644.18 812.573 1644.18 810.64ZM1673.58 823.285V792.358H1678.33V823.285H1673.58ZM1676 787.203C1675.07 787.203 1674.27 786.888 1673.6 786.257C1672.94 785.626 1672.62 784.868 1672.62 783.982C1672.62 783.096 1672.94 782.337 1673.6 781.706C1674.27 781.076 1675.07 780.76 1676 780.76C1676.92 780.76 1677.72 781.076 1678.37 781.706C1679.05 782.337 1679.38 783.096 1679.38 783.982C1679.38 784.868 1679.05 785.626 1678.37 786.257C1677.72 786.888 1676.92 787.203 1676 787.203ZM1691.79 804.68V823.285H1687.04V792.358H1691.63V797.19H1692.03C1692.76 795.62 1693.86 794.358 1695.33 793.405C1696.81 792.438 1698.72 791.955 1701.05 791.955C1703.15 791.955 1704.98 792.385 1706.55 793.244C1708.12 794.089 1709.34 795.378 1710.21 797.11C1711.09 798.828 1711.52 801.002 1711.52 803.633V823.285H1706.77V803.956C1706.77 801.526 1706.14 799.633 1704.88 798.278C1703.62 796.908 1701.88 796.224 1699.68 796.224C1698.17 796.224 1696.81 796.553 1695.62 797.21C1694.43 797.868 1693.5 798.828 1692.82 800.09C1692.13 801.351 1691.79 802.882 1691.79 804.68ZM1723.67 823.607C1722.67 823.607 1721.82 823.252 1721.11 822.54C1720.4 821.829 1720.04 820.976 1720.04 819.983C1720.04 818.99 1720.4 818.137 1721.11 817.426C1721.82 816.714 1722.67 816.359 1723.67 816.359C1724.66 816.359 1725.51 816.714 1726.23 817.426C1726.94 818.137 1727.29 818.99 1727.29 819.983C1727.29 820.641 1727.12 821.245 1726.79 821.795C1726.47 822.346 1726.03 822.788 1725.48 823.124C1724.94 823.446 1724.34 823.607 1723.67 823.607ZM377.574 961.285V920.049H382.568V938.412H404.555V920.049H409.548V961.285H404.555V942.842H382.568V961.285H377.574ZM431.465 961.929C428.673 961.929 426.223 961.265 424.116 959.936C422.022 958.607 420.384 956.748 419.203 954.359C418.035 951.969 417.451 949.177 417.451 945.983C417.451 942.761 418.035 939.949 419.203 937.546C420.384 935.143 422.022 933.277 424.116 931.949C426.223 930.62 428.673 929.955 431.465 929.955C434.257 929.955 436.7 930.62 438.794 931.949C440.902 933.277 442.539 935.143 443.707 937.546C444.889 939.949 445.479 942.761 445.479 945.983C445.479 949.177 444.889 951.969 443.707 954.359C442.539 956.748 440.902 958.607 438.794 959.936C436.7 961.265 434.257 961.929 431.465 961.929ZM431.465 957.661C433.586 957.661 435.331 957.117 436.7 956.03C438.07 954.943 439.083 953.513 439.741 951.741C440.398 949.969 440.727 948.05 440.727 945.983C440.727 943.915 440.398 941.989 439.741 940.204C439.083 938.419 438.07 936.976 436.7 935.875C435.331 934.774 433.586 934.224 431.465 934.224C429.344 934.224 427.599 934.774 426.23 935.875C424.861 936.976 423.848 938.419 423.19 940.204C422.532 941.989 422.203 943.915 422.203 945.983C422.203 948.05 422.532 949.969 423.19 951.741C423.848 953.513 424.861 954.943 426.23 956.03C427.599 957.117 429.344 957.661 431.465 957.661ZM458.688 961.285L449.265 930.358H454.258L460.943 954.037H461.265L467.869 930.358H472.943L479.467 953.956H479.789L486.474 930.358H491.467L482.044 961.285H477.373L470.608 937.526H470.124L463.359 961.285H458.688ZM509.664 961.929C506.684 961.929 504.114 961.272 501.953 959.956C499.805 958.627 498.147 956.775 496.979 954.399C495.825 952.01 495.248 949.231 495.248 946.063C495.248 942.895 495.825 940.103 496.979 937.687C498.147 935.257 499.771 933.365 501.852 932.009C503.946 930.64 506.389 929.955 509.181 929.955C510.792 929.955 512.383 930.224 513.953 930.761C515.524 931.298 516.953 932.17 518.242 933.378C519.53 934.573 520.557 936.157 521.322 938.13C522.088 940.103 522.47 942.533 522.47 945.419V947.432H498.63V943.325H517.638C517.638 941.58 517.289 940.023 516.591 938.653C515.906 937.284 514.926 936.204 513.651 935.412C512.389 934.62 510.899 934.224 509.181 934.224C507.288 934.224 505.651 934.694 504.268 935.633C502.899 936.559 501.845 937.768 501.107 939.258C500.369 940.748 500 942.345 500 944.05V946.788C500 949.124 500.402 951.104 501.208 952.728C502.026 954.339 503.161 955.567 504.61 956.413C506.06 957.245 507.745 957.661 509.664 957.661C510.913 957.661 512.04 957.486 513.047 957.137C514.067 956.775 514.946 956.238 515.685 955.527C516.423 954.802 516.993 953.902 517.396 952.828L521.987 954.117C521.504 955.674 520.692 957.043 519.551 958.225C518.41 959.392 517 960.305 515.322 960.963C513.644 961.607 511.758 961.929 509.664 961.929ZM554.047 930.358L542.61 961.285H537.778L526.341 930.358H531.496L540.033 955.003H540.355L548.892 930.358H554.047ZM572.178 961.929C569.198 961.929 566.628 961.272 564.467 959.956C562.319 958.627 560.661 956.775 559.493 954.399C558.339 952.01 557.762 949.231 557.762 946.063C557.762 942.895 558.339 940.103 559.493 937.687C560.661 935.257 562.285 933.365 564.366 932.009C566.46 930.64 568.903 929.955 571.695 929.955C573.306 929.955 574.897 930.224 576.467 930.761C578.038 931.298 579.467 932.17 580.756 933.378C582.044 934.573 583.071 936.157 583.836 938.13C584.602 940.103 584.984 942.533 584.984 945.419V947.432H561.144V943.325H580.152C580.152 941.58 579.803 940.023 579.105 938.653C578.42 937.284 577.44 936.204 576.165 935.412C574.903 934.62 573.413 934.224 571.695 934.224C569.802 934.224 568.165 934.694 566.782 935.633C565.413 936.559 564.359 937.768 563.621 939.258C562.883 940.748 562.514 942.345 562.514 944.05V946.788C562.514 949.124 562.916 951.104 563.722 952.728C564.54 954.339 565.675 955.567 567.124 956.413C568.574 957.245 570.259 957.661 572.178 957.661C573.427 957.661 574.554 957.486 575.561 957.137C576.581 956.775 577.46 956.238 578.199 955.527C578.937 954.802 579.507 953.902 579.91 952.828L584.501 954.117C584.018 955.674 583.206 957.043 582.065 958.225C580.924 959.392 579.514 960.305 577.836 960.963C576.158 961.607 574.272 961.929 572.178 961.929ZM592.213 961.285V930.358H596.803V935.029H597.126C597.689 933.499 598.709 932.257 600.186 931.304C601.663 930.351 603.327 929.875 605.179 929.875C605.528 929.875 605.965 929.881 606.488 929.895C607.012 929.908 607.408 929.928 607.676 929.955V934.788C607.515 934.747 607.146 934.687 606.569 934.606C606.005 934.512 605.408 934.465 604.777 934.465C603.273 934.465 601.931 934.781 600.75 935.412C599.582 936.029 598.656 936.888 597.971 937.989C597.3 939.076 596.964 940.318 596.964 941.714V961.285H592.213ZM616.853 955.647L616.531 957.822C616.302 959.352 615.953 960.99 615.484 962.735C615.027 964.48 614.551 966.124 614.054 967.668C613.557 969.212 613.148 970.44 612.826 971.353H609.201C609.376 970.494 609.604 969.359 609.886 967.95C610.168 966.54 610.45 964.963 610.732 963.218C611.027 961.487 611.269 959.715 611.457 957.902L611.698 955.647H616.853ZM641.604 961.285V930.358H646.355V961.285H641.604ZM644.02 925.203C643.094 925.203 642.295 924.888 641.624 924.257C640.966 923.626 640.637 922.868 640.637 921.982C640.637 921.096 640.966 920.337 641.624 919.706C642.295 919.076 643.094 918.76 644.02 918.76C644.946 918.76 645.738 919.076 646.396 919.706C647.067 920.337 647.402 921.096 647.402 921.982C647.402 922.868 647.067 923.626 646.396 924.257C645.738 924.888 644.946 925.203 644.02 925.203ZM668.831 930.358V934.385H652.159V930.358H668.831ZM657.153 961.285V926.089C657.153 924.317 657.569 922.841 658.401 921.66C659.233 920.478 660.314 919.592 661.643 919.002C662.972 918.411 664.375 918.116 665.851 918.116C667.019 918.116 667.972 918.21 668.71 918.398C669.449 918.586 669.999 918.76 670.361 918.921L668.992 923.029C668.751 922.948 668.415 922.848 667.985 922.727C667.569 922.606 667.019 922.546 666.334 922.546C664.764 922.546 663.63 922.942 662.932 923.733C662.247 924.525 661.905 925.687 661.905 927.217V961.285H657.153ZM694.498 972.883C693.693 972.883 692.975 972.816 692.344 972.682C691.713 972.561 691.276 972.44 691.035 972.319L692.243 968.131C693.397 968.426 694.418 968.534 695.303 968.453C696.189 968.373 696.975 967.977 697.659 967.265C698.357 966.567 698.995 965.433 699.572 963.862L700.458 961.446L689.021 930.358H694.176L702.713 955.003H703.035L711.572 930.358H716.727L703.599 965.795C703.008 967.393 702.277 968.715 701.404 969.762C700.532 970.822 699.518 971.608 698.364 972.118C697.223 972.628 695.934 972.883 694.498 972.883ZM734.456 961.929C731.664 961.929 729.214 961.265 727.107 959.936C725.013 958.607 723.375 956.748 722.194 954.359C721.026 951.969 720.442 949.177 720.442 945.983C720.442 942.761 721.026 939.949 722.194 937.546C723.375 935.143 725.013 933.277 727.107 931.949C729.214 930.62 731.664 929.955 734.456 929.955C737.248 929.955 739.691 930.62 741.785 931.949C743.892 933.277 745.53 935.143 746.698 937.546C747.879 939.949 748.47 942.761 748.47 945.983C748.47 949.177 747.879 951.969 746.698 954.359C745.53 956.748 743.892 958.607 741.785 959.936C739.691 961.265 737.248 961.929 734.456 961.929ZM734.456 957.661C736.577 957.661 738.322 957.117 739.691 956.03C741.06 954.943 742.074 953.513 742.731 951.741C743.389 949.969 743.718 948.05 743.718 945.983C743.718 943.915 743.389 941.989 742.731 940.204C742.074 938.419 741.06 936.976 739.691 935.875C738.322 934.774 736.577 934.224 734.456 934.224C732.335 934.224 730.59 934.774 729.221 935.875C727.852 936.976 726.838 938.419 726.18 940.204C725.523 941.989 725.194 943.915 725.194 945.983C725.194 948.05 725.523 949.969 726.18 951.741C726.838 953.513 727.852 954.943 729.221 956.03C730.59 957.117 732.335 957.661 734.456 957.661ZM775.214 948.64V930.358H779.966V961.285H775.214V956.05H774.892C774.167 957.621 773.039 958.956 771.509 960.057C769.979 961.144 768.046 961.688 765.71 961.688C763.777 961.688 762.059 961.265 760.556 960.419C759.052 959.56 757.871 958.272 757.012 956.553C756.153 954.822 755.723 952.641 755.723 950.01V930.358H760.475V949.687C760.475 951.943 761.106 953.741 762.368 955.084C763.643 956.426 765.267 957.097 767.241 957.097C768.422 957.097 769.623 956.795 770.845 956.191C772.08 955.587 773.113 954.661 773.946 953.412C774.791 952.164 775.214 950.573 775.214 948.64ZM817.18 961.929C814.388 961.929 811.938 961.265 809.831 959.936C807.737 958.607 806.099 956.748 804.918 954.359C803.75 951.969 803.166 949.177 803.166 945.983C803.166 942.761 803.75 939.949 804.918 937.546C806.099 935.143 807.737 933.277 809.831 931.949C811.938 930.62 814.388 929.955 817.18 929.955C819.972 929.955 822.415 930.62 824.509 931.949C826.617 933.277 828.255 935.143 829.422 937.546C830.604 939.949 831.194 942.761 831.194 945.983C831.194 949.177 830.604 951.969 829.422 954.359C828.255 956.748 826.617 958.607 824.509 959.936C822.415 961.265 819.972 961.929 817.18 961.929ZM817.18 957.661C819.301 957.661 821.046 957.117 822.415 956.03C823.785 954.943 824.798 953.513 825.456 951.741C826.113 949.969 826.442 948.05 826.442 945.983C826.442 943.915 826.113 941.989 825.456 940.204C824.798 938.419 823.785 936.976 822.415 935.875C821.046 934.774 819.301 934.224 817.18 934.224C815.059 934.224 813.314 934.774 811.945 935.875C810.576 936.976 809.563 938.419 808.905 940.204C808.247 941.989 807.918 943.915 807.918 945.983C807.918 948.05 808.247 949.969 808.905 951.741C809.563 953.513 810.576 954.943 811.945 956.03C813.314 957.117 815.059 957.661 817.18 957.661ZM843.2 942.68V961.285H838.448V930.358H843.039V935.19H843.441C844.166 933.62 845.267 932.358 846.743 931.405C848.22 930.438 850.126 929.955 852.462 929.955C854.556 929.955 856.388 930.385 857.959 931.244C859.529 932.089 860.751 933.378 861.623 935.11C862.496 936.828 862.932 939.002 862.932 941.633V961.285H858.18V941.956C858.18 939.526 857.549 937.633 856.287 936.278C855.026 934.908 853.294 934.224 851.093 934.224C849.576 934.224 848.22 934.553 847.025 935.21C845.844 935.868 844.911 936.828 844.227 938.09C843.542 939.351 843.2 940.882 843.2 942.68ZM876.367 920.049V961.285H871.615V920.049H876.367ZM888.131 972.883C887.325 972.883 886.607 972.816 885.976 972.682C885.345 972.561 884.909 972.44 884.668 972.319L885.876 968.131C887.03 968.426 888.05 968.534 888.936 968.453C889.822 968.373 890.607 967.977 891.292 967.265C891.99 966.567 892.628 965.433 893.205 963.862L894.091 961.446L882.654 930.358H887.809L896.346 955.003H896.668L905.205 930.358H910.36L897.232 965.795C896.641 967.393 895.91 968.715 895.037 969.762C894.165 970.822 893.151 971.608 891.997 972.118C890.856 972.628 889.567 972.883 888.131 972.883ZM937.331 942.68V961.285H932.579V920.049H937.331V935.19H937.733C938.458 933.593 939.545 932.324 940.995 931.385C942.458 930.432 944.405 929.955 946.834 929.955C948.942 929.955 950.787 930.378 952.371 931.224C953.955 932.056 955.184 933.338 956.056 935.069C956.942 936.788 957.385 938.976 957.385 941.633V961.285H952.633V941.956C952.633 939.499 951.995 937.6 950.72 936.257C949.458 934.902 947.707 934.224 945.465 934.224C943.908 934.224 942.512 934.553 941.277 935.21C940.055 935.868 939.089 936.828 938.378 938.09C937.68 939.351 937.331 940.882 937.331 942.68ZM978.642 961.929C975.85 961.929 973.401 961.265 971.293 959.936C969.199 958.607 967.561 956.748 966.38 954.359C965.212 951.969 964.628 949.177 964.628 945.983C964.628 942.761 965.212 939.949 966.38 937.546C967.561 935.143 969.199 933.277 971.293 931.949C973.401 930.62 975.85 929.955 978.642 929.955C981.434 929.955 983.878 930.62 985.972 931.949C988.079 933.277 989.717 935.143 990.884 937.546C992.066 939.949 992.656 942.761 992.656 945.983C992.656 949.177 992.066 951.969 990.884 954.359C989.717 956.748 988.079 958.607 985.972 959.936C983.878 961.265 981.434 961.929 978.642 961.929ZM978.642 957.661C980.763 957.661 982.508 957.117 983.878 956.03C985.247 954.943 986.26 953.513 986.918 951.741C987.576 949.969 987.904 948.05 987.904 945.983C987.904 943.915 987.576 941.989 986.918 940.204C986.26 938.419 985.247 936.976 983.878 935.875C982.508 934.774 980.763 934.224 978.642 934.224C976.522 934.224 974.777 934.774 973.407 935.875C972.038 936.976 971.025 938.419 970.367 940.204C969.709 941.989 969.38 943.915 969.38 945.983C969.38 948.05 969.709 949.969 970.367 951.741C971.025 953.513 972.038 954.943 973.407 956.03C974.777 957.117 976.522 957.661 978.642 957.661ZM1004.66 920.049V961.285H999.91V920.049H1004.66ZM1025.04 961.929C1022.47 961.929 1020.19 961.278 1018.22 959.976C1016.24 958.661 1014.7 956.808 1013.59 954.419C1012.47 952.016 1011.92 949.177 1011.92 945.902C1011.92 942.654 1012.47 939.835 1013.59 937.445C1014.7 935.056 1016.25 933.21 1018.24 931.908C1020.22 930.606 1022.52 929.955 1025.12 929.955C1027.14 929.955 1028.73 930.291 1029.9 930.962C1031.08 931.62 1031.98 932.371 1032.59 933.217C1033.22 934.049 1033.71 934.734 1034.06 935.271H1034.47V920.049H1039.22V961.285H1034.63V956.533H1034.06C1033.71 957.097 1033.22 957.809 1032.57 958.668C1031.93 959.513 1031.01 960.272 1029.82 960.943C1028.62 961.601 1027.03 961.929 1025.04 961.929ZM1025.69 957.661C1027.59 957.661 1029.2 957.164 1030.52 956.171C1031.84 955.164 1032.84 953.775 1033.52 952.003C1034.2 950.218 1034.55 948.157 1034.55 945.822C1034.55 943.513 1034.21 941.493 1033.54 939.761C1032.87 938.016 1031.88 936.66 1030.56 935.694C1029.24 934.714 1027.62 934.224 1025.69 934.224C1023.67 934.224 1022 934.741 1020.65 935.774C1019.33 936.794 1018.32 938.184 1017.65 939.942C1017 941.687 1016.67 943.647 1016.67 945.822C1016.67 948.023 1017 950.023 1017.67 951.822C1018.36 953.607 1019.37 955.03 1020.69 956.09C1022.04 957.137 1023.7 957.661 1025.69 957.661ZM1064.53 961.285V930.358H1069.28V961.285H1064.53ZM1066.94 925.203C1066.02 925.203 1065.22 924.888 1064.55 924.257C1063.89 923.626 1063.56 922.868 1063.56 921.982C1063.56 921.096 1063.89 920.337 1064.55 919.706C1065.22 919.076 1066.02 918.76 1066.94 918.76C1067.87 918.76 1068.66 919.076 1069.32 919.706C1069.99 920.337 1070.33 921.096 1070.33 921.982C1070.33 922.868 1069.99 923.626 1069.32 924.257C1068.66 924.888 1067.87 925.203 1066.94 925.203ZM1091.43 930.358V934.385H1075.41V930.358H1091.43ZM1080.08 922.948H1084.83V952.426C1084.83 953.768 1085.02 954.775 1085.41 955.446C1085.82 956.104 1086.33 956.547 1086.94 956.775C1087.57 956.99 1088.24 957.097 1088.94 957.097C1089.46 957.097 1089.89 957.07 1090.23 957.017C1090.56 956.949 1090.83 956.896 1091.03 956.855L1092 961.124C1091.67 961.245 1091.23 961.366 1090.65 961.487C1090.07 961.621 1089.34 961.688 1088.45 961.688C1087.11 961.688 1085.8 961.399 1084.51 960.822C1083.23 960.245 1082.17 959.366 1081.33 958.184C1080.49 957.003 1080.08 955.513 1080.08 953.714V922.948ZM1126.21 961.929C1123.63 961.929 1121.35 961.278 1119.38 959.976C1117.41 958.661 1115.86 956.808 1114.75 954.419C1113.64 952.016 1113.08 949.177 1113.08 945.902C1113.08 942.654 1113.64 939.835 1114.75 937.445C1115.86 935.056 1117.41 933.21 1119.4 931.908C1121.39 930.606 1123.68 929.955 1126.29 929.955C1128.3 929.955 1129.89 930.291 1131.06 930.962C1132.24 931.62 1133.14 932.371 1133.76 933.217C1134.39 934.049 1134.88 934.734 1135.23 935.271H1135.63V920.049H1140.38V961.285H1135.79V956.533H1135.23C1134.88 957.097 1134.38 957.809 1133.74 958.668C1133.09 959.513 1132.17 960.272 1130.98 960.943C1129.78 961.601 1128.19 961.929 1126.21 961.929ZM1126.85 957.661C1128.76 957.661 1130.37 957.164 1131.68 956.171C1133 955.164 1134 953.775 1134.68 952.003C1135.37 950.218 1135.71 948.157 1135.71 945.822C1135.71 943.513 1135.37 941.493 1134.7 939.761C1134.03 938.016 1133.04 936.66 1131.72 935.694C1130.41 934.714 1128.78 934.224 1126.85 934.224C1124.84 934.224 1123.16 934.741 1121.82 935.774C1120.49 936.794 1119.49 938.184 1118.82 939.942C1118.16 941.687 1117.83 943.647 1117.83 945.822C1117.83 948.023 1118.17 950.023 1118.84 951.822C1119.52 953.607 1120.53 955.03 1121.86 956.09C1123.2 957.137 1124.86 957.661 1126.85 957.661ZM1162.31 961.929C1159.52 961.929 1157.07 961.265 1154.96 959.936C1152.87 958.607 1151.23 956.748 1150.05 954.359C1148.88 951.969 1148.29 949.177 1148.29 945.983C1148.29 942.761 1148.88 939.949 1150.05 937.546C1151.23 935.143 1152.87 933.277 1154.96 931.949C1157.07 930.62 1159.52 929.955 1162.31 929.955C1165.1 929.955 1167.54 930.62 1169.64 931.949C1171.74 933.277 1173.38 935.143 1174.55 937.546C1175.73 939.949 1176.32 942.761 1176.32 945.983C1176.32 949.177 1175.73 951.969 1174.55 954.359C1173.38 956.748 1171.74 958.607 1169.64 959.936C1167.54 961.265 1165.1 961.929 1162.31 961.929ZM1162.31 957.661C1164.43 957.661 1166.17 957.117 1167.54 956.03C1168.91 954.943 1169.93 953.513 1170.58 951.741C1171.24 949.969 1171.57 948.05 1171.57 945.983C1171.57 943.915 1171.24 941.989 1170.58 940.204C1169.93 938.419 1168.91 936.976 1167.54 935.875C1166.17 934.774 1164.43 934.224 1162.31 934.224C1160.19 934.224 1158.44 934.774 1157.07 935.875C1155.7 936.976 1154.69 938.419 1154.03 940.204C1153.38 941.989 1153.05 943.915 1153.05 945.983C1153.05 948.05 1153.38 949.969 1154.03 951.741C1154.69 953.513 1155.7 954.943 1157.07 956.03C1158.44 957.117 1160.19 957.661 1162.31 957.661ZM1189.53 961.285L1180.11 930.358H1185.1L1191.79 954.037H1192.11L1198.71 930.358H1203.79L1210.31 953.956H1210.63L1217.32 930.358H1222.31L1212.89 961.285H1208.22L1201.45 937.526H1200.97L1194.2 961.285H1189.53ZM1233.34 942.68V961.285H1228.59V930.358H1233.18V935.19H1233.59C1234.31 933.62 1235.41 932.358 1236.89 931.405C1238.36 930.438 1240.27 929.955 1242.61 929.955C1244.7 929.955 1246.53 930.385 1248.1 931.244C1249.67 932.089 1250.9 933.378 1251.77 935.11C1252.64 936.828 1253.08 939.002 1253.08 941.633V961.285H1248.32V941.956C1248.32 939.526 1247.69 937.633 1246.43 936.278C1245.17 934.908 1243.44 934.224 1241.24 934.224C1239.72 934.224 1238.36 934.553 1237.17 935.21C1235.99 935.868 1235.06 936.828 1234.37 938.09C1233.69 939.351 1233.34 940.882 1233.34 942.68ZM1282.46 942.68V961.285H1277.71V920.049H1282.46V935.19H1282.86C1283.59 933.593 1284.67 932.324 1286.12 931.385C1287.59 930.432 1289.53 929.955 1291.96 929.955C1294.07 929.955 1295.92 930.378 1297.5 931.224C1299.08 932.056 1300.31 933.338 1301.18 935.069C1302.07 936.788 1302.51 938.976 1302.51 941.633V961.285H1297.76V941.956C1297.76 939.499 1297.12 937.6 1295.85 936.257C1294.59 934.902 1292.83 934.224 1290.59 934.224C1289.04 934.224 1287.64 934.553 1286.4 935.21C1285.18 935.868 1284.22 936.828 1283.51 938.09C1282.81 939.351 1282.46 940.882 1282.46 942.68ZM1320.31 962.01C1318.35 962.01 1316.57 961.641 1314.97 960.903C1313.37 960.151 1312.11 959.07 1311.17 957.661C1310.23 956.238 1309.76 954.52 1309.76 952.506C1309.76 950.734 1310.11 949.298 1310.8 948.197C1311.5 947.083 1312.43 946.211 1313.6 945.58C1314.77 944.949 1316.06 944.479 1317.47 944.17C1318.89 943.848 1320.32 943.593 1321.76 943.405C1323.64 943.164 1325.16 942.982 1326.33 942.862C1327.51 942.727 1328.37 942.506 1328.9 942.197C1329.46 941.888 1329.73 941.352 1329.73 940.586V940.425C1329.73 938.439 1329.19 936.895 1328.1 935.794C1327.03 934.694 1325.39 934.143 1323.21 934.143C1320.94 934.143 1319.16 934.64 1317.87 935.633C1316.58 936.627 1315.68 937.687 1315.15 938.815L1310.64 937.204C1311.45 935.325 1312.52 933.861 1313.86 932.814C1315.22 931.754 1316.7 931.016 1318.29 930.6C1319.9 930.17 1321.49 929.955 1323.05 929.955C1324.04 929.955 1325.18 930.076 1326.47 930.318C1327.77 930.546 1329.03 931.022 1330.23 931.747C1331.46 932.472 1332.47 933.566 1333.27 935.029C1334.08 936.492 1334.48 938.452 1334.48 940.909V961.285H1329.73V957.097H1329.49C1329.17 957.768 1328.63 958.486 1327.88 959.252C1327.13 960.017 1326.13 960.668 1324.88 961.205C1323.63 961.742 1322.11 962.01 1320.31 962.01ZM1321.03 957.741C1322.91 957.741 1324.5 957.372 1325.78 956.634C1327.09 955.896 1328.07 954.943 1328.72 953.775C1329.39 952.607 1329.73 951.379 1329.73 950.09V945.741C1329.53 945.983 1329.09 946.204 1328.4 946.405C1327.73 946.593 1326.95 946.761 1326.07 946.909C1325.19 947.043 1324.34 947.164 1323.51 947.271C1322.69 947.365 1322.03 947.446 1321.52 947.513C1320.28 947.674 1319.13 947.936 1318.05 948.298C1316.99 948.647 1316.13 949.177 1315.47 949.889C1314.83 950.587 1314.51 951.54 1314.51 952.748C1314.51 954.399 1315.12 955.647 1316.34 956.493C1317.58 957.325 1319.14 957.741 1321.03 957.741ZM1347.91 920.049V961.285H1343.16V920.049H1347.91ZM1370.38 930.358V934.385H1353.71V930.358H1370.38ZM1358.7 961.285V926.089C1358.7 924.317 1359.12 922.841 1359.95 921.66C1360.79 920.478 1361.87 919.592 1363.19 919.002C1364.52 918.411 1365.93 918.116 1367.4 918.116C1368.57 918.116 1369.52 918.21 1370.26 918.398C1371 918.586 1371.55 918.76 1371.91 918.921L1370.54 923.029C1370.3 922.948 1369.97 922.848 1369.54 922.727C1369.12 922.606 1368.57 922.546 1367.89 922.546C1366.32 922.546 1365.18 922.942 1364.48 923.733C1363.8 924.525 1363.46 925.687 1363.46 927.217V961.285H1358.7ZM1400 961.285L1390.57 930.358H1395.57L1402.25 954.037H1402.57L1409.18 930.358H1414.25L1420.78 953.956H1421.1L1427.78 930.358H1432.78L1423.35 961.285H1418.68L1411.92 937.526H1411.43L1404.67 961.285H1400ZM1448.16 962.01C1446.2 962.01 1444.42 961.641 1442.82 960.903C1441.23 960.151 1439.96 959.07 1439.02 957.661C1438.08 956.238 1437.61 954.52 1437.61 952.506C1437.61 950.734 1437.96 949.298 1438.66 948.197C1439.35 947.083 1440.29 946.211 1441.45 945.58C1442.62 944.949 1443.91 944.479 1445.32 944.17C1446.74 943.848 1448.17 943.593 1449.61 943.405C1451.49 943.164 1453.01 942.982 1454.18 942.862C1455.36 942.727 1456.22 942.506 1456.76 942.197C1457.31 941.888 1457.58 941.352 1457.58 940.586V940.425C1457.58 938.439 1457.04 936.895 1455.95 935.794C1454.88 934.694 1453.25 934.143 1451.06 934.143C1448.79 934.143 1447.01 934.64 1445.72 935.633C1444.43 936.627 1443.53 937.687 1443 938.815L1438.49 937.204C1439.3 935.325 1440.37 933.861 1441.72 932.814C1443.07 931.754 1444.55 931.016 1446.15 930.6C1447.76 930.17 1449.34 929.955 1450.9 929.955C1451.89 929.955 1453.03 930.076 1454.32 930.318C1455.62 930.546 1456.88 931.022 1458.09 931.747C1459.31 932.472 1460.32 933.566 1461.13 935.029C1461.93 936.492 1462.33 938.452 1462.33 940.909V961.285H1457.58V957.097H1457.34C1457.02 957.768 1456.48 958.486 1455.73 959.252C1454.98 960.017 1453.98 960.668 1452.73 961.205C1451.48 961.742 1449.96 962.01 1448.16 962.01ZM1448.88 957.741C1450.76 957.741 1452.35 957.372 1453.64 956.634C1454.94 955.896 1455.92 954.943 1456.58 953.775C1457.25 952.607 1457.58 951.379 1457.58 950.09V945.741C1457.38 945.983 1456.94 946.204 1456.25 946.405C1455.58 946.593 1454.8 946.761 1453.92 946.909C1453.05 947.043 1452.19 947.164 1451.36 947.271C1450.54 947.365 1449.88 947.446 1449.37 947.513C1448.13 947.674 1446.98 947.936 1445.9 948.298C1444.84 948.647 1443.98 949.177 1443.33 949.889C1442.68 950.587 1442.36 951.54 1442.36 952.748C1442.36 954.399 1442.97 955.647 1444.19 956.493C1445.43 957.325 1446.99 957.741 1448.88 957.741ZM1472.96 972.883C1472.15 972.883 1471.44 972.816 1470.81 972.682C1470.17 972.561 1469.74 972.44 1469.5 972.319L1470.71 968.131C1471.86 968.426 1472.88 968.534 1473.77 968.453C1474.65 968.373 1475.44 967.977 1476.12 967.265C1476.82 966.567 1477.46 965.433 1478.03 963.862L1478.92 961.446L1467.48 930.358H1472.64L1481.18 955.003H1481.5L1490.03 930.358H1495.19L1482.06 965.795C1481.47 967.393 1480.74 968.715 1479.87 969.762C1478.99 970.822 1477.98 971.608 1476.83 972.118C1475.69 972.628 1474.4 972.883 1472.96 972.883ZM1506.61 955.647L1506.29 957.822C1506.06 959.352 1505.71 960.99 1505.24 962.735C1504.79 964.48 1504.31 966.124 1503.81 967.668C1503.32 969.212 1502.91 970.44 1502.58 971.353H1498.96C1499.13 970.494 1499.36 969.359 1499.64 967.95C1499.93 966.54 1500.21 964.963 1500.49 963.218C1500.79 961.487 1501.03 959.715 1501.21 957.902L1501.46 955.647H1506.61ZM1531.36 961.285V930.358H1536.11V961.285H1531.36ZM1533.78 925.203C1532.85 925.203 1532.05 924.888 1531.38 924.257C1530.72 923.626 1530.4 922.868 1530.4 921.982C1530.4 921.096 1530.72 920.337 1531.38 919.706C1532.05 919.076 1532.85 918.76 1533.78 918.76C1534.7 918.76 1535.5 919.076 1536.15 919.706C1536.82 920.337 1537.16 921.096 1537.16 921.982C1537.16 922.868 1536.82 923.626 1536.15 924.257C1535.5 924.888 1534.7 925.203 1533.78 925.203ZM1558.27 930.358V934.385H1542.24V930.358H1558.27ZM1546.91 922.948H1551.66V952.426C1551.66 953.768 1551.86 954.775 1552.25 955.446C1552.65 956.104 1553.16 956.547 1553.78 956.775C1554.41 956.99 1555.07 957.097 1555.77 957.097C1556.29 957.097 1556.72 957.07 1557.06 957.017C1557.39 956.949 1557.66 956.896 1557.86 956.855L1558.83 961.124C1558.51 961.245 1558.06 961.366 1557.48 961.487C1556.9 961.621 1556.17 961.688 1555.29 961.688C1553.94 961.688 1552.63 961.399 1551.34 960.822C1550.07 960.245 1549 959.366 1548.16 958.184C1547.33 957.003 1546.91 955.513 1546.91 953.714V922.948ZM1593.04 961.929C1590.46 961.929 1588.19 961.278 1586.21 959.976C1584.24 958.661 1582.7 956.808 1581.58 954.419C1580.47 952.016 1579.91 949.177 1579.91 945.902C1579.91 942.654 1580.47 939.835 1581.58 937.445C1582.7 935.056 1584.25 933.21 1586.23 931.908C1588.22 930.606 1590.52 929.955 1593.12 929.955C1595.13 929.955 1596.72 930.291 1597.89 930.962C1599.07 931.62 1599.97 932.371 1600.59 933.217C1601.22 934.049 1601.71 934.734 1602.06 935.271H1602.46V920.049H1607.22V961.285H1602.62V956.533H1602.06C1601.71 957.097 1601.21 957.809 1600.57 958.668C1599.93 959.513 1599.01 960.272 1597.81 960.943C1596.62 961.601 1595.03 961.929 1593.04 961.929ZM1593.68 957.661C1595.59 957.661 1597.2 957.164 1598.52 956.171C1599.83 955.164 1600.83 953.775 1601.52 952.003C1602.2 950.218 1602.54 948.157 1602.54 945.822C1602.54 943.513 1602.21 941.493 1601.54 939.761C1600.87 938.016 1599.87 936.66 1598.56 935.694C1597.24 934.714 1595.62 934.224 1593.68 934.224C1591.67 934.224 1589.99 934.741 1588.65 935.774C1587.32 936.794 1586.32 938.184 1585.65 939.942C1584.99 941.687 1584.66 943.647 1584.66 945.822C1584.66 948.023 1585 950.023 1585.67 951.822C1586.36 953.607 1587.36 955.03 1588.69 956.09C1590.03 957.137 1591.7 957.661 1593.68 957.661ZM1629.14 961.929C1626.35 961.929 1623.9 961.265 1621.79 959.936C1619.7 958.607 1618.06 956.748 1616.88 954.359C1615.71 951.969 1615.13 949.177 1615.13 945.983C1615.13 942.761 1615.71 939.949 1616.88 937.546C1618.06 935.143 1619.7 933.277 1621.79 931.949C1623.9 930.62 1626.35 929.955 1629.14 929.955C1631.93 929.955 1634.38 930.62 1636.47 931.949C1638.58 933.277 1640.22 935.143 1641.38 937.546C1642.57 939.949 1643.16 942.761 1643.16 945.983C1643.16 949.177 1642.57 951.969 1641.38 954.359C1640.22 956.748 1638.58 958.607 1636.47 959.936C1634.38 961.265 1631.93 961.929 1629.14 961.929ZM1629.14 957.661C1631.26 957.661 1633.01 957.117 1634.38 956.03C1635.75 954.943 1636.76 953.513 1637.42 951.741C1638.08 949.969 1638.4 948.05 1638.4 945.983C1638.4 943.915 1638.08 941.989 1637.42 940.204C1636.76 938.419 1635.75 936.976 1634.38 935.875C1633.01 934.774 1631.26 934.224 1629.14 934.224C1627.02 934.224 1625.28 934.774 1623.91 935.875C1622.54 936.976 1621.52 938.419 1620.87 940.204C1620.21 941.989 1619.88 943.915 1619.88 945.983C1619.88 948.05 1620.21 949.969 1620.87 951.741C1621.52 953.513 1622.54 954.943 1623.91 956.03C1625.28 957.117 1627.02 957.661 1629.14 957.661ZM1663.38 961.929C1660.4 961.929 1657.83 961.272 1655.66 959.956C1653.52 958.627 1651.86 956.775 1650.69 954.399C1649.54 952.01 1648.96 949.231 1648.96 946.063C1648.96 942.895 1649.54 940.103 1650.69 937.687C1651.86 935.257 1653.48 933.365 1655.56 932.009C1657.66 930.64 1660.1 929.955 1662.89 929.955C1664.5 929.955 1666.09 930.224 1667.67 930.761C1669.24 931.298 1670.67 932.17 1671.95 933.378C1673.24 934.573 1674.27 936.157 1675.03 938.13C1675.8 940.103 1676.18 942.533 1676.18 945.419V947.432H1652.34V943.325H1671.35C1671.35 941.58 1671 940.023 1670.3 938.653C1669.62 937.284 1668.64 936.204 1667.36 935.412C1666.1 934.62 1664.61 934.224 1662.89 934.224C1661 934.224 1659.36 934.694 1657.98 935.633C1656.61 936.559 1655.56 937.768 1654.82 939.258C1654.08 940.748 1653.71 942.345 1653.71 944.05V946.788C1653.71 949.124 1654.11 951.104 1654.92 952.728C1655.74 954.339 1656.87 955.567 1658.32 956.413C1659.77 957.245 1661.46 957.661 1663.38 957.661C1664.62 957.661 1665.75 957.486 1666.76 957.137C1667.78 956.775 1668.66 956.238 1669.4 955.527C1670.13 954.802 1670.71 953.902 1671.11 952.828L1675.7 954.117C1675.22 955.674 1674.4 957.043 1673.26 958.225C1672.12 959.392 1670.71 960.305 1669.03 960.963C1667.36 961.607 1665.47 961.929 1663.38 961.929ZM1705.32 937.284L1701.05 938.492C1700.78 937.781 1700.38 937.09 1699.86 936.419C1699.35 935.734 1698.65 935.17 1697.77 934.727C1696.88 934.284 1695.75 934.063 1694.36 934.063C1692.47 934.063 1690.89 934.499 1689.63 935.371C1688.38 936.231 1687.76 937.325 1687.76 938.653C1687.76 939.835 1688.19 940.768 1689.05 941.452C1689.91 942.137 1691.25 942.707 1693.08 943.164L1697.67 944.291C1700.43 944.962 1702.49 945.989 1703.85 947.372C1705.2 948.741 1705.88 950.506 1705.88 952.667C1705.88 954.439 1705.37 956.023 1704.35 957.419C1703.34 958.815 1701.93 959.916 1700.12 960.721C1698.31 961.527 1696.2 961.929 1693.8 961.929C1690.65 961.929 1688.03 961.245 1685.97 959.876C1683.9 958.507 1682.59 956.506 1682.04 953.875L1686.55 952.748C1686.98 954.412 1687.79 955.661 1688.99 956.493C1690.2 957.325 1691.77 957.741 1693.72 957.741C1695.93 957.741 1697.69 957.272 1699 956.332C1700.31 955.379 1700.97 954.238 1700.97 952.909C1700.97 951.835 1700.59 950.936 1699.84 950.211C1699.09 949.473 1697.93 948.922 1696.38 948.56L1691.22 947.352C1688.39 946.681 1686.31 945.64 1684.98 944.231C1683.67 942.808 1683.01 941.029 1683.01 938.895C1683.01 937.15 1683.5 935.606 1684.48 934.264C1685.47 932.922 1686.82 931.868 1688.52 931.103C1690.24 930.338 1692.19 929.955 1694.36 929.955C1697.42 929.955 1699.83 930.626 1701.57 931.969C1703.33 933.311 1704.58 935.083 1705.32 937.284ZM1717.79 942.68V961.285H1713.03V930.358H1717.62V935.19H1718.03C1718.75 933.62 1719.85 932.358 1721.33 931.405C1722.81 930.438 1724.71 929.955 1727.05 929.955C1729.14 929.955 1730.97 930.385 1732.54 931.244C1734.12 932.089 1735.34 933.378 1736.21 935.11C1737.08 936.828 1737.52 939.002 1737.52 941.633V961.285H1732.77V941.956C1732.77 939.526 1732.14 937.633 1730.87 936.278C1729.61 934.908 1727.88 934.224 1725.68 934.224C1724.16 934.224 1722.81 934.553 1721.61 935.21C1720.43 935.868 1719.5 936.828 1718.81 938.09C1718.13 939.351 1717.79 940.882 1717.79 942.68ZM1750.39 920.049V923.673C1750.39 924.774 1750.19 925.948 1749.79 927.197C1749.4 928.432 1748.82 929.633 1748.05 930.801C1747.3 931.955 1746.39 932.962 1745.32 933.821L1742.74 931.727C1743.58 930.519 1744.32 929.264 1744.93 927.962C1745.56 926.646 1745.88 925.244 1745.88 923.754V920.049H1750.39ZM1770.95 930.358V934.385H1754.92V930.358H1770.95ZM1759.59 922.948H1764.34V952.426C1764.34 953.768 1764.54 954.775 1764.93 955.446C1765.33 956.104 1765.84 956.547 1766.46 956.775C1767.09 956.99 1767.75 957.097 1768.45 957.097C1768.97 957.097 1769.4 957.07 1769.74 957.017C1770.07 956.949 1770.34 956.896 1770.54 956.855L1771.51 961.124C1771.19 961.245 1770.74 961.366 1770.16 961.487C1769.58 961.621 1768.85 961.688 1767.97 961.688C1766.62 961.688 1765.31 961.399 1764.02 960.822C1762.75 960.245 1761.69 959.366 1760.84 958.184C1760.01 957.003 1759.59 955.513 1759.59 953.714V922.948ZM1781.56 961.607C1780.57 961.607 1779.71 961.252 1779 960.54C1778.29 959.829 1777.93 958.976 1777.93 957.983C1777.93 956.99 1778.29 956.137 1779 955.426C1779.71 954.714 1780.57 954.359 1781.56 954.359C1782.55 954.359 1783.4 954.714 1784.12 955.426C1784.83 956.137 1785.18 956.99 1785.18 957.983C1785.18 958.641 1785.01 959.245 1784.68 959.795C1784.36 960.346 1783.92 960.788 1783.37 961.124C1782.83 961.446 1782.23 961.607 1781.56 961.607ZM707.02 993.478V989.049H737.947V993.478H724.98V1030.29H719.986V993.478H707.02ZM749.761 1011.68V1030.29H745.009V989.049H749.761V1004.19H750.164C750.889 1002.59 751.976 1001.32 753.426 1000.38C754.889 999.432 756.835 998.955 759.265 998.955C761.372 998.955 763.218 999.378 764.802 1000.22C766.386 1001.06 767.614 1002.34 768.486 1004.07C769.372 1005.79 769.815 1007.98 769.815 1010.63V1030.29H765.064V1010.96C765.064 1008.5 764.426 1006.6 763.151 1005.26C761.889 1003.9 760.137 1003.22 757.895 1003.22C756.338 1003.22 754.942 1003.55 753.707 1004.21C752.486 1004.87 751.519 1005.83 750.808 1007.09C750.11 1008.35 749.761 1009.88 749.761 1011.68ZM778.509 1030.29V999.358H783.26V1030.29H778.509ZM780.925 994.203C779.999 994.203 779.2 993.888 778.529 993.257C777.871 992.626 777.542 991.868 777.542 990.982C777.542 990.096 777.871 989.337 778.529 988.706C779.2 988.076 779.999 987.76 780.925 987.76C781.851 987.76 782.643 988.076 783.301 988.706C783.972 989.337 784.307 990.096 784.307 990.982C784.307 991.868 783.972 992.626 783.301 993.257C782.643 993.888 781.851 994.203 780.925 994.203ZM813.871 1006.28L809.602 1007.49C809.334 1006.78 808.938 1006.09 808.414 1005.42C807.904 1004.73 807.206 1004.17 806.32 1003.73C805.434 1003.28 804.3 1003.06 802.917 1003.06C801.025 1003.06 799.447 1003.5 798.185 1004.37C796.937 1005.23 796.313 1006.32 796.313 1007.65C796.313 1008.83 796.742 1009.77 797.602 1010.45C798.461 1011.14 799.803 1011.71 801.629 1012.16L806.219 1013.29C808.985 1013.96 811.045 1014.99 812.401 1016.37C813.757 1017.74 814.434 1019.51 814.434 1021.67C814.434 1023.44 813.924 1025.02 812.904 1026.42C811.897 1027.82 810.488 1028.92 808.676 1029.72C806.864 1030.53 804.756 1030.93 802.353 1030.93C799.199 1030.93 796.588 1030.24 794.521 1028.88C792.454 1027.51 791.145 1025.51 790.595 1022.88L795.105 1021.75C795.534 1023.41 796.347 1024.66 797.541 1025.49C798.749 1026.33 800.327 1026.74 802.273 1026.74C804.488 1026.74 806.246 1026.27 807.548 1025.33C808.864 1024.38 809.521 1023.24 809.521 1021.91C809.521 1020.84 809.146 1019.94 808.394 1019.21C807.642 1018.47 806.488 1017.92 804.931 1017.56L799.776 1016.35C796.944 1015.68 794.863 1014.64 793.534 1013.23C792.219 1011.81 791.561 1010.03 791.561 1007.9C791.561 1006.15 792.051 1004.61 793.031 1003.26C794.024 1001.92 795.373 1000.87 797.078 1000.1C798.796 999.338 800.743 998.955 802.917 998.955C805.978 998.955 808.38 999.626 810.126 1000.97C811.884 1002.31 813.132 1004.08 813.871 1006.28ZM837.534 1030.29V999.358H842.286V1030.29H837.534ZM839.95 994.203C839.024 994.203 838.226 993.888 837.554 993.257C836.897 992.626 836.568 991.868 836.568 990.982C836.568 990.096 836.897 989.337 837.554 988.706C838.226 988.076 839.024 987.76 839.95 987.76C840.877 987.76 841.669 988.076 842.326 988.706C842.997 989.337 843.333 990.096 843.333 990.982C843.333 991.868 842.997 992.626 842.326 993.257C841.669 993.888 840.877 994.203 839.95 994.203ZM872.896 1006.28L868.628 1007.49C868.359 1006.78 867.963 1006.09 867.44 1005.42C866.93 1004.73 866.232 1004.17 865.346 1003.73C864.46 1003.28 863.325 1003.06 861.943 1003.06C860.05 1003.06 858.473 1003.5 857.211 1004.37C855.963 1005.23 855.339 1006.32 855.339 1007.65C855.339 1008.83 855.768 1009.77 856.627 1010.45C857.486 1011.14 858.829 1011.71 860.654 1012.16L865.245 1013.29C868.01 1013.96 870.071 1014.99 871.426 1016.37C872.782 1017.74 873.46 1019.51 873.46 1021.67C873.46 1023.44 872.95 1025.02 871.93 1026.42C870.923 1027.82 869.514 1028.92 867.701 1029.72C865.889 1030.53 863.782 1030.93 861.379 1030.93C858.225 1030.93 855.614 1030.24 853.547 1028.88C851.479 1027.51 850.171 1025.51 849.62 1022.88L854.13 1021.75C854.56 1023.41 855.372 1024.66 856.567 1025.49C857.775 1026.33 859.352 1026.74 861.298 1026.74C863.513 1026.74 865.272 1026.27 866.574 1025.33C867.889 1024.38 868.547 1023.24 868.547 1021.91C868.547 1020.84 868.171 1019.94 867.419 1019.21C866.668 1018.47 865.513 1017.92 863.956 1017.56L858.802 1016.35C855.969 1015.68 853.889 1014.64 852.56 1013.23C851.244 1011.81 850.587 1010.03 850.587 1007.9C850.587 1006.15 851.077 1004.61 852.057 1003.26C853.05 1001.92 854.399 1000.87 856.104 1000.1C857.822 999.338 859.768 998.955 861.943 998.955C865.003 998.955 867.406 999.626 869.151 1000.97C870.91 1002.31 872.158 1004.08 872.896 1006.28ZM909.124 1030.93C906.225 1030.93 903.728 1030.24 901.634 1028.88C899.54 1027.51 897.929 1025.62 896.801 1023.22C895.674 1020.82 895.11 1018.07 895.11 1014.98C895.11 1011.84 895.687 1009.07 896.842 1006.67C898.009 1004.25 899.634 1002.36 901.714 1001.01C903.808 999.64 906.251 998.955 909.043 998.955C911.218 998.955 913.178 999.358 914.923 1000.16C916.668 1000.97 918.097 1002.1 919.212 1003.55C920.326 1005 921.017 1006.69 921.285 1008.62H916.534C916.171 1007.21 915.366 1005.96 914.117 1004.87C912.883 1003.77 911.218 1003.22 909.124 1003.22C907.272 1003.22 905.647 1003.71 904.251 1004.67C902.869 1005.63 901.788 1006.98 901.01 1008.72C900.244 1010.45 899.862 1012.49 899.862 1014.82C899.862 1017.21 900.238 1019.29 900.989 1021.06C901.755 1022.84 902.828 1024.21 904.211 1025.19C905.607 1026.17 907.245 1026.66 909.124 1026.66C910.359 1026.66 911.48 1026.45 912.487 1026.02C913.493 1025.59 914.346 1024.97 915.044 1024.16C915.742 1023.36 916.238 1022.39 916.534 1021.26H921.285C921.017 1023.09 920.353 1024.73 919.292 1026.2C918.245 1027.65 916.856 1028.8 915.124 1029.66C913.406 1030.51 911.406 1030.93 909.124 1030.93ZM937.333 1031.01C935.373 1031.01 933.595 1030.64 931.997 1029.9C930.4 1029.15 929.131 1028.07 928.192 1026.66C927.252 1025.24 926.782 1023.52 926.782 1021.51C926.782 1019.73 927.131 1018.3 927.829 1017.2C928.527 1016.08 929.46 1015.21 930.628 1014.58C931.796 1013.95 933.085 1013.48 934.494 1013.17C935.917 1012.85 937.346 1012.59 938.783 1012.41C940.662 1012.16 942.186 1011.98 943.353 1011.86C944.535 1011.73 945.394 1011.51 945.931 1011.2C946.481 1010.89 946.756 1010.35 946.756 1009.59V1009.43C946.756 1007.44 946.213 1005.9 945.125 1004.79C944.051 1003.69 942.421 1003.14 940.233 1003.14C937.964 1003.14 936.185 1003.64 934.897 1004.63C933.608 1005.63 932.702 1006.69 932.179 1007.81L927.668 1006.2C928.474 1004.32 929.548 1002.86 930.89 1001.81C932.246 1000.75 933.722 1000.02 935.32 999.6C936.93 999.17 938.514 998.955 940.071 998.955C941.065 998.955 942.206 999.076 943.494 999.318C944.796 999.546 946.052 1000.02 947.26 1000.75C948.481 1001.47 949.495 1002.57 950.3 1004.03C951.105 1005.49 951.508 1007.45 951.508 1009.91V1030.29H946.756V1026.1H946.515C946.192 1026.77 945.656 1027.49 944.904 1028.25C944.152 1029.02 943.152 1029.67 941.904 1030.2C940.655 1030.74 939.132 1031.01 937.333 1031.01ZM938.058 1026.74C939.937 1026.74 941.521 1026.37 942.81 1025.63C944.112 1024.9 945.092 1023.94 945.749 1022.77C946.421 1021.61 946.756 1020.38 946.756 1019.09V1014.74C946.555 1014.98 946.112 1015.2 945.427 1015.41C944.756 1015.59 943.978 1015.76 943.092 1015.91C942.219 1016.04 941.367 1016.16 940.535 1016.27C939.716 1016.37 939.051 1016.45 938.541 1016.51C937.306 1016.67 936.152 1016.94 935.078 1017.3C934.018 1017.65 933.158 1018.18 932.501 1018.89C931.856 1019.59 931.534 1020.54 931.534 1021.75C931.534 1023.4 932.145 1024.65 933.366 1025.49C934.601 1026.33 936.165 1026.74 938.058 1026.74ZM964.933 989.049V1030.29H960.181V989.049H964.933ZM978.388 989.049V1030.29H973.636V989.049H978.388ZM1000.06 1030.93C997.078 1030.93 994.508 1030.27 992.347 1028.96C990.199 1027.63 988.541 1025.77 987.373 1023.4C986.219 1021.01 985.642 1018.23 985.642 1015.06C985.642 1011.9 986.219 1009.1 987.373 1006.69C988.541 1004.26 990.165 1002.36 992.246 1001.01C994.34 999.64 996.783 998.955 999.575 998.955C1001.19 998.955 1002.78 999.224 1004.35 999.761C1005.92 1000.3 1007.35 1001.17 1008.64 1002.38C1009.92 1003.57 1010.95 1005.16 1011.72 1007.13C1012.48 1009.1 1012.86 1011.53 1012.86 1014.42V1016.43H989.024V1012.32H1008.03C1008.03 1010.58 1007.68 1009.02 1006.98 1007.65C1006.3 1006.28 1005.32 1005.2 1004.05 1004.41C1002.78 1003.62 1001.29 1003.22 999.575 1003.22C997.682 1003.22 996.045 1003.69 994.662 1004.63C993.293 1005.56 992.239 1006.77 991.501 1008.26C990.763 1009.75 990.394 1011.34 990.394 1013.05V1015.79C990.394 1018.12 990.796 1020.1 991.602 1021.73C992.421 1023.34 993.555 1024.57 995.005 1025.41C996.454 1026.24 998.139 1026.66 1000.06 1026.66C1001.31 1026.66 1002.43 1026.49 1003.44 1026.14C1004.46 1025.77 1005.34 1025.24 1006.08 1024.53C1006.82 1023.8 1007.39 1022.9 1007.79 1021.83L1012.38 1023.12C1011.9 1024.67 1011.09 1026.04 1009.94 1027.22C1008.8 1028.39 1007.39 1029.31 1005.72 1029.96C1004.04 1030.61 1002.15 1030.93 1000.06 1030.93ZM1031.77 1030.93C1029.19 1030.93 1026.92 1030.28 1024.95 1028.98C1022.97 1027.66 1021.43 1025.81 1020.31 1023.42C1019.2 1021.02 1018.64 1018.18 1018.64 1014.9C1018.64 1011.65 1019.2 1008.83 1020.31 1006.45C1021.43 1004.06 1022.98 1002.21 1024.97 1000.91C1026.95 999.606 1029.25 998.955 1031.85 998.955C1033.86 998.955 1035.46 999.291 1036.62 999.962C1037.8 1000.62 1038.7 1001.37 1039.32 1002.22C1039.95 1003.05 1040.44 1003.73 1040.79 1004.27H1041.19V989.049H1045.95V1030.29H1041.36V1025.53H1040.79C1040.44 1026.1 1039.95 1026.81 1039.3 1027.67C1038.66 1028.51 1037.74 1029.27 1036.54 1029.94C1035.35 1030.6 1033.76 1030.93 1031.77 1030.93ZM1032.42 1026.66C1034.32 1026.66 1035.93 1026.16 1037.25 1025.17C1038.56 1024.16 1039.56 1022.77 1040.25 1021C1040.93 1019.22 1041.27 1017.16 1041.27 1014.82C1041.27 1012.51 1040.94 1010.49 1040.27 1008.76C1039.6 1007.02 1038.6 1005.66 1037.29 1004.69C1035.97 1003.71 1034.35 1003.22 1032.42 1003.22C1030.4 1003.22 1028.72 1003.74 1027.38 1004.77C1026.05 1005.79 1025.05 1007.18 1024.38 1008.94C1023.72 1010.69 1023.39 1012.65 1023.39 1014.82C1023.39 1017.02 1023.73 1019.02 1024.4 1020.82C1025.09 1022.61 1026.09 1024.03 1027.42 1025.09C1028.76 1026.14 1030.43 1026.66 1032.42 1026.66ZM1076.01 1011.68V1030.29H1071.26V989.049H1076.01V1004.19H1076.41C1077.13 1002.59 1078.22 1001.32 1079.67 1000.38C1081.14 999.432 1083.08 998.955 1085.51 998.955C1087.62 998.955 1089.46 999.378 1091.05 1000.22C1092.63 1001.06 1093.86 1002.34 1094.73 1004.07C1095.62 1005.79 1096.06 1007.98 1096.06 1010.63V1030.29H1091.31V1010.96C1091.31 1008.5 1090.67 1006.6 1089.4 1005.26C1088.14 1003.9 1086.38 1003.22 1084.14 1003.22C1082.58 1003.22 1081.19 1003.55 1079.95 1004.21C1078.73 1004.87 1077.77 1005.83 1077.05 1007.09C1076.36 1008.35 1076.01 1009.88 1076.01 1011.68ZM1113.86 1031.01C1111.9 1031.01 1110.12 1030.64 1108.52 1029.9C1106.92 1029.15 1105.65 1028.07 1104.71 1026.66C1103.78 1025.24 1103.31 1023.52 1103.31 1021.51C1103.31 1019.73 1103.65 1018.3 1104.35 1017.2C1105.05 1016.08 1105.98 1015.21 1107.15 1014.58C1108.32 1013.95 1109.61 1013.48 1111.02 1013.17C1112.44 1012.85 1113.87 1012.59 1115.31 1012.41C1117.19 1012.16 1118.71 1011.98 1119.88 1011.86C1121.06 1011.73 1121.92 1011.51 1122.45 1011.2C1123 1010.89 1123.28 1010.35 1123.28 1009.59V1009.43C1123.28 1007.44 1122.74 1005.9 1121.65 1004.79C1120.57 1003.69 1118.94 1003.14 1116.76 1003.14C1114.49 1003.14 1112.71 1003.64 1111.42 1004.63C1110.13 1005.63 1109.23 1006.69 1108.7 1007.81L1104.19 1006.2C1105 1004.32 1106.07 1002.86 1107.41 1001.81C1108.77 1000.75 1110.25 1000.02 1111.84 999.6C1113.45 999.17 1115.04 998.955 1116.59 998.955C1117.59 998.955 1118.73 999.076 1120.02 999.318C1121.32 999.546 1122.57 1000.02 1123.78 1000.75C1125 1001.47 1126.02 1002.57 1126.82 1004.03C1127.63 1005.49 1128.03 1007.45 1128.03 1009.91V1030.29H1123.28V1026.1H1123.04C1122.72 1026.77 1122.18 1027.49 1121.43 1028.25C1120.68 1029.02 1119.68 1029.67 1118.43 1030.2C1117.18 1030.74 1115.65 1031.01 1113.86 1031.01ZM1114.58 1026.74C1116.46 1026.74 1118.04 1026.37 1119.33 1025.63C1120.63 1024.9 1121.61 1023.94 1122.27 1022.77C1122.94 1021.61 1123.28 1020.38 1123.28 1019.09V1014.74C1123.08 1014.98 1122.63 1015.2 1121.95 1015.41C1121.28 1015.59 1120.5 1015.76 1119.61 1015.91C1118.74 1016.04 1117.89 1016.16 1117.06 1016.27C1116.24 1016.37 1115.57 1016.45 1115.06 1016.51C1113.83 1016.67 1112.67 1016.94 1111.6 1017.3C1110.54 1017.65 1109.68 1018.18 1109.02 1018.89C1108.38 1019.59 1108.06 1020.54 1108.06 1021.75C1108.06 1023.4 1108.67 1024.65 1109.89 1025.49C1111.12 1026.33 1112.69 1026.74 1114.58 1026.74ZM1141.46 989.049V1030.29H1136.7V989.049H1141.46ZM1163.93 999.358V1003.38H1147.26V999.358H1163.93ZM1152.25 1030.29V995.089C1152.25 993.317 1152.67 991.841 1153.5 990.66C1154.33 989.478 1155.41 988.592 1156.74 988.002C1158.07 987.411 1159.48 987.116 1160.95 987.116C1162.12 987.116 1163.07 987.21 1163.81 987.398C1164.55 987.586 1165.1 987.76 1165.46 987.921L1164.09 992.029C1163.85 991.948 1163.52 991.848 1163.09 991.727C1162.67 991.606 1162.12 991.546 1161.43 991.546C1159.86 991.546 1158.73 991.942 1158.03 992.733C1157.35 993.525 1157.01 994.687 1157.01 996.217V1030.29H1152.25ZM1186.7 1010.39V1014.82H1168.66V1010.39H1186.7ZM1207.55 1042.53C1205.25 1042.53 1203.28 1042.23 1201.63 1041.64C1199.98 1041.06 1198.6 1040.3 1197.5 1039.35C1196.41 1038.41 1195.55 1037.4 1194.9 1036.33L1198.69 1033.67C1199.12 1034.23 1199.66 1034.88 1200.32 1035.6C1200.98 1036.34 1201.88 1036.98 1203.02 1037.51C1204.17 1038.06 1205.68 1038.34 1207.55 1038.34C1210.05 1038.34 1212.11 1037.74 1213.73 1036.53C1215.35 1035.32 1216.17 1033.43 1216.17 1030.85V1024.57H1215.76C1215.42 1025.13 1214.92 1025.83 1214.27 1026.66C1213.64 1027.48 1212.73 1028.21 1211.54 1028.86C1210.35 1029.49 1208.76 1029.8 1206.74 1029.8C1204.25 1029.8 1202.01 1029.21 1200.02 1028.03C1198.05 1026.85 1196.48 1025.13 1195.33 1022.88C1194.19 1020.62 1193.62 1017.88 1193.62 1014.66C1193.62 1011.49 1194.17 1008.73 1195.29 1006.38C1196.4 1004.02 1197.95 1002.2 1199.94 1000.91C1201.92 999.606 1204.22 998.955 1206.82 998.955C1208.84 998.955 1210.44 999.291 1211.62 999.962C1212.81 1000.62 1213.72 1001.37 1214.35 1002.22C1215 1003.05 1215.5 1003.73 1215.84 1004.27H1216.33V999.358H1220.92V1031.17C1220.92 1033.83 1220.31 1035.99 1219.11 1037.65C1217.91 1039.33 1216.3 1040.56 1214.27 1041.34C1212.26 1042.13 1210.02 1042.53 1207.55 1042.53ZM1207.39 1025.53C1209.29 1025.53 1210.9 1025.1 1212.22 1024.22C1213.54 1023.35 1214.54 1022.1 1215.22 1020.46C1215.9 1018.82 1216.25 1016.86 1216.25 1014.58C1216.25 1012.35 1215.91 1010.39 1215.24 1008.68C1214.57 1006.98 1213.58 1005.64 1212.26 1004.67C1210.95 1003.71 1209.32 1003.22 1207.39 1003.22C1205.37 1003.22 1203.7 1003.73 1202.35 1004.75C1201.03 1005.77 1200.03 1007.14 1199.35 1008.86C1198.7 1010.58 1198.37 1012.49 1198.37 1014.58C1198.37 1016.73 1198.7 1018.63 1199.37 1020.28C1200.06 1021.92 1201.07 1023.2 1202.39 1024.14C1203.74 1025.07 1205.4 1025.53 1207.39 1025.53ZM1229.62 1030.29V999.358H1234.21V1004.03H1234.53C1235.09 1002.5 1236.11 1001.26 1237.59 1000.3C1239.07 999.351 1240.73 998.875 1242.58 998.875C1242.93 998.875 1243.37 998.881 1243.89 998.895C1244.42 998.908 1244.81 998.928 1245.08 998.955V1003.79C1244.92 1003.75 1244.55 1003.69 1243.97 1003.61C1243.41 1003.51 1242.81 1003.47 1242.18 1003.47C1240.68 1003.47 1239.34 1003.78 1238.15 1004.41C1236.99 1005.03 1236.06 1005.89 1235.38 1006.99C1234.7 1008.08 1234.37 1009.32 1234.37 1010.71V1030.29H1229.62ZM1259.81 1031.01C1257.85 1031.01 1256.08 1030.64 1254.48 1029.9C1252.88 1029.15 1251.61 1028.07 1250.67 1026.66C1249.73 1025.24 1249.26 1023.52 1249.26 1021.51C1249.26 1019.73 1249.61 1018.3 1250.31 1017.2C1251.01 1016.08 1251.94 1015.21 1253.11 1014.58C1254.28 1013.95 1255.57 1013.48 1256.98 1013.17C1258.4 1012.85 1259.83 1012.59 1261.26 1012.41C1263.14 1012.16 1264.67 1011.98 1265.83 1011.86C1267.02 1011.73 1267.87 1011.51 1268.41 1011.2C1268.96 1010.89 1269.24 1010.35 1269.24 1009.59V1009.43C1269.24 1007.44 1268.69 1005.9 1267.61 1004.79C1266.53 1003.69 1264.9 1003.14 1262.71 1003.14C1260.45 1003.14 1258.67 1003.64 1257.38 1004.63C1256.09 1005.63 1255.18 1006.69 1254.66 1007.81L1250.15 1006.2C1250.95 1004.32 1252.03 1002.86 1253.37 1001.81C1254.73 1000.75 1256.2 1000.02 1257.8 999.6C1259.41 999.17 1261 998.955 1262.55 998.955C1263.55 998.955 1264.69 999.076 1265.98 999.318C1267.28 999.546 1268.53 1000.02 1269.74 1000.75C1270.96 1001.47 1271.98 1002.57 1272.78 1004.03C1273.59 1005.49 1273.99 1007.45 1273.99 1009.91V1030.29H1269.24V1026.1H1269C1268.67 1026.77 1268.14 1027.49 1267.39 1028.25C1266.63 1029.02 1265.63 1029.67 1264.38 1030.2C1263.14 1030.74 1261.61 1031.01 1259.81 1031.01ZM1260.54 1026.74C1262.42 1026.74 1264 1026.37 1265.29 1025.63C1266.59 1024.9 1267.57 1023.94 1268.23 1022.77C1268.9 1021.61 1269.24 1020.38 1269.24 1019.09V1014.74C1269.04 1014.98 1268.59 1015.2 1267.91 1015.41C1267.24 1015.59 1266.46 1015.76 1265.57 1015.91C1264.7 1016.04 1263.85 1016.16 1263.02 1016.27C1262.2 1016.37 1261.53 1016.45 1261.02 1016.51C1259.79 1016.67 1258.63 1016.94 1257.56 1017.3C1256.5 1017.65 1255.64 1018.18 1254.98 1018.89C1254.34 1019.59 1254.02 1020.54 1254.02 1021.75C1254.02 1023.4 1254.63 1024.65 1255.85 1025.49C1257.08 1026.33 1258.65 1026.74 1260.54 1026.74ZM1282.66 1041.88V999.358H1287.25V1004.27H1287.82C1288.17 1003.73 1288.65 1003.05 1289.27 1002.22C1289.9 1001.37 1290.8 1000.62 1291.96 999.962C1293.15 999.291 1294.74 998.955 1296.76 998.955C1299.36 998.955 1301.66 999.606 1303.64 1000.91C1305.63 1002.21 1307.18 1004.06 1308.29 1006.45C1309.41 1008.83 1309.97 1011.65 1309.97 1014.9C1309.97 1018.18 1309.41 1021.02 1308.29 1023.42C1307.18 1025.81 1305.64 1027.66 1303.66 1028.98C1301.69 1030.28 1299.41 1030.93 1296.84 1030.93C1294.85 1030.93 1293.26 1030.6 1292.07 1029.94C1290.87 1029.27 1289.95 1028.51 1289.31 1027.67C1288.66 1026.81 1288.17 1026.1 1287.82 1025.53H1287.41V1041.88H1282.66ZM1287.33 1014.82C1287.33 1017.16 1287.68 1019.22 1288.36 1021C1289.05 1022.77 1290.05 1024.16 1291.36 1025.17C1292.68 1026.16 1294.29 1026.66 1296.19 1026.66C1298.18 1026.66 1299.84 1026.14 1301.17 1025.09C1302.51 1024.03 1303.52 1022.61 1304.19 1020.82C1304.87 1019.02 1305.21 1017.02 1305.21 1014.82C1305.21 1012.65 1304.88 1010.69 1304.21 1008.94C1303.55 1007.18 1302.55 1005.79 1301.21 1004.77C1299.88 1003.74 1298.21 1003.22 1296.19 1003.22C1294.26 1003.22 1292.64 1003.71 1291.32 1004.69C1290 1005.66 1289.01 1007.02 1288.34 1008.76C1287.67 1010.49 1287.33 1012.51 1287.33 1014.82ZM1317.21 1041.88V999.358H1321.8V1004.27H1322.37C1322.72 1003.73 1323.2 1003.05 1323.82 1002.22C1324.45 1001.37 1325.35 1000.62 1326.52 999.962C1327.7 999.291 1329.29 998.955 1331.31 998.955C1333.91 998.955 1336.21 999.606 1338.19 1000.91C1340.18 1002.21 1341.73 1004.06 1342.85 1006.45C1343.96 1008.83 1344.52 1011.65 1344.52 1014.9C1344.52 1018.18 1343.96 1021.02 1342.85 1023.42C1341.73 1025.81 1340.19 1027.66 1338.21 1028.98C1336.24 1030.28 1333.97 1030.93 1331.39 1030.93C1329.4 1030.93 1327.81 1030.6 1326.62 1029.94C1325.42 1029.27 1324.5 1028.51 1323.86 1027.67C1323.21 1026.81 1322.72 1026.1 1322.37 1025.53H1321.97V1041.88H1317.21ZM1321.89 1014.82C1321.89 1017.16 1322.23 1019.22 1322.91 1021C1323.6 1022.77 1324.6 1024.16 1325.91 1025.17C1327.23 1026.16 1328.84 1026.66 1330.74 1026.66C1332.73 1026.66 1334.39 1026.14 1335.72 1025.09C1337.06 1024.03 1338.07 1022.61 1338.74 1020.82C1339.42 1019.02 1339.77 1017.02 1339.77 1014.82C1339.77 1012.65 1339.43 1010.69 1338.76 1008.94C1338.1 1007.18 1337.1 1005.79 1335.76 1004.77C1334.43 1003.74 1332.76 1003.22 1330.74 1003.22C1328.81 1003.22 1327.19 1003.71 1325.87 1004.69C1324.56 1005.66 1323.56 1007.02 1322.89 1008.76C1322.22 1010.49 1321.89 1012.51 1321.89 1014.82ZM1356.52 989.049V1030.29H1351.77V989.049H1356.52ZM1365.22 1030.29V999.358H1369.97V1030.29H1365.22ZM1367.64 994.203C1366.71 994.203 1365.91 993.888 1365.24 993.257C1364.58 992.626 1364.25 991.868 1364.25 990.982C1364.25 990.096 1364.58 989.337 1365.24 988.706C1365.91 988.076 1366.71 987.76 1367.64 987.76C1368.56 987.76 1369.36 988.076 1370.01 988.706C1370.68 989.337 1371.02 990.096 1371.02 990.982C1371.02 991.868 1370.68 992.626 1370.01 993.257C1369.36 993.888 1368.56 994.203 1367.64 994.203ZM1383.43 1011.68V1030.29H1378.68V999.358H1383.27V1004.19H1383.67C1384.39 1002.62 1385.49 1001.36 1386.97 1000.4C1388.45 999.438 1390.35 998.955 1392.69 998.955C1394.78 998.955 1396.62 999.385 1398.19 1000.24C1399.76 1001.09 1400.98 1002.38 1401.85 1004.11C1402.72 1005.83 1403.16 1008 1403.16 1010.63V1030.29H1398.41V1010.96C1398.41 1008.53 1397.78 1006.63 1396.52 1005.28C1395.25 1003.91 1393.52 1003.22 1391.32 1003.22C1389.8 1003.22 1388.45 1003.55 1387.25 1004.21C1386.07 1004.87 1385.14 1005.83 1384.45 1007.09C1383.77 1008.35 1383.43 1009.88 1383.43 1011.68ZM1424.33 1042.53C1422.03 1042.53 1420.06 1042.23 1418.41 1041.64C1416.76 1041.06 1415.38 1040.3 1414.28 1039.35C1413.19 1038.41 1412.33 1037.4 1411.68 1036.33L1415.47 1033.67C1415.9 1034.23 1416.44 1034.88 1417.1 1035.6C1417.76 1036.34 1418.66 1036.98 1419.8 1037.51C1420.95 1038.06 1422.46 1038.34 1424.33 1038.34C1426.82 1038.34 1428.88 1037.74 1430.51 1036.53C1432.13 1035.32 1432.94 1033.43 1432.94 1030.85V1024.57H1432.54C1432.19 1025.13 1431.7 1025.83 1431.05 1026.66C1430.42 1027.48 1429.51 1028.21 1428.31 1028.86C1427.13 1029.49 1425.53 1029.8 1423.52 1029.8C1421.02 1029.8 1418.78 1029.21 1416.8 1028.03C1414.82 1026.85 1413.26 1025.13 1412.1 1022.88C1410.96 1020.62 1410.39 1017.88 1410.39 1014.66C1410.39 1011.49 1410.95 1008.73 1412.06 1006.38C1413.18 1004.02 1414.73 1002.2 1416.72 1000.91C1418.7 999.606 1421 998.955 1423.6 998.955C1425.62 998.955 1427.21 999.291 1428.39 999.962C1429.59 1000.62 1430.5 1001.37 1431.13 1002.22C1431.78 1003.05 1432.27 1003.73 1432.62 1004.27H1433.11V999.358H1437.7V1031.17C1437.7 1033.83 1437.09 1035.99 1435.88 1037.65C1434.69 1039.33 1433.08 1040.56 1431.05 1041.34C1429.04 1042.13 1426.8 1042.53 1424.33 1042.53ZM1424.17 1025.53C1426.07 1025.53 1427.68 1025.1 1429 1024.22C1430.31 1023.35 1431.31 1022.1 1432 1020.46C1432.68 1018.82 1433.03 1016.86 1433.03 1014.58C1433.03 1012.35 1432.69 1010.39 1432.02 1008.68C1431.35 1006.98 1430.35 1005.64 1429.04 1004.67C1427.72 1003.71 1426.1 1003.22 1424.17 1003.22C1422.15 1003.22 1420.47 1003.73 1419.13 1004.75C1417.8 1005.77 1416.8 1007.14 1416.13 1008.86C1415.47 1010.58 1415.15 1012.49 1415.15 1014.58C1415.15 1016.73 1415.48 1018.63 1416.15 1020.28C1416.84 1021.92 1417.84 1023.2 1419.17 1024.14C1420.51 1025.07 1422.18 1025.53 1424.17 1025.53ZM1449.86 1030.61C1448.86 1030.61 1448.01 1030.25 1447.3 1029.54C1446.59 1028.83 1446.23 1027.98 1446.23 1026.98C1446.23 1025.99 1446.59 1025.14 1447.3 1024.43C1448.01 1023.71 1448.86 1023.36 1449.86 1023.36C1450.85 1023.36 1451.7 1023.71 1452.42 1024.43C1453.13 1025.14 1453.48 1025.99 1453.48 1026.98C1453.48 1027.64 1453.31 1028.24 1452.98 1028.8C1452.66 1029.35 1452.22 1029.79 1451.67 1030.12C1451.13 1030.45 1450.53 1030.61 1449.86 1030.61Z" fill="white"/>
<path d="M1580.82 443.393C1580.48 442.954 1579.85 442.871 1579.41 443.207L1572.27 448.68C1571.83 449.016 1571.75 449.643 1572.08 450.082C1572.42 450.52 1573.05 450.603 1573.49 450.267L1579.84 445.403L1584.7 451.754C1585.04 452.192 1585.66 452.275 1586.1 451.94C1586.54 451.604 1586.62 450.976 1586.29 450.538L1580.82 443.393ZM940.049 450.263C936.676 464.134 943.74 480.195 958.238 496.806C972.777 513.464 994.986 530.905 1022.46 547.621C1077.41 581.058 1153.6 611.705 1232.14 627.401C1310.66 643.094 1391.67 643.87 1456.17 617.415C1520.75 590.926 1568.68 537.175 1581.01 444.132L1579.03 443.869C1566.79 536.221 1519.31 589.354 1455.41 615.564C1391.42 641.808 1310.87 641.096 1232.53 625.44C1154.21 609.788 1078.24 579.224 1023.5 545.912C996.121 529.254 974.099 511.937 959.745 495.491C945.351 479 938.861 463.615 941.993 450.735L940.049 450.263Z" fill="white"/>
<defs>
<linearGradient id="paint0_linear_974_148" x1="387.5" y1="414.5" x2="1888.5" y2="414.5" gradientUnits="userSpaceOnUse">
<stop stop-color="#21271F"/>
<stop offset="1" stop-color="#778D71" stop-opacity="0.2"/>
</linearGradient>
<linearGradient id="paint1_linear_974_148" x1="1016" y1="402.904" x2="556" y2="402.904" gradientUnits="userSpaceOnUse">
<stop offset="0.94" stop-color="#AEAEAE"/>
<stop offset="1" stop-color="white" stop-opacity="0"/>
</linearGradient>
<linearGradient id="paint2_linear_974_148" x1="1661" y1="402.717" x2="1201" y2="402.716" gradientUnits="userSpaceOnUse">
<stop offset="0.9375" stop-color="#AEAEAE"/>
<stop offset="1" stop-color="white" stop-opacity="0"/>
</linearGradient>
</defs>
</svg>
