<svg width="2885" height="1490" viewBox="0 0 2885 1490" fill="none" xmlns="http://www.w3.org/2000/svg">
<rect width="2884.14" height="1489.32" rx="113.4" fill="#171717"/>
<path d="M658.406 775.18L562.188 423.297H605.486L679.024 709.889H682.461L757.373 423.297H805.483L880.395 709.889H883.832L957.37 423.297H1000.67L904.45 775.18H860.464L782.803 494.773H780.053L702.392 775.18H658.406ZM1101.35 781.366C1084.63 781.366 1069.45 778.216 1055.82 771.916C1042.19 765.501 1031.37 756.28 1023.35 744.253C1015.33 732.111 1011.32 717.449 1011.32 700.267C1011.32 685.147 1014.3 672.891 1020.26 663.498C1026.21 653.991 1034.17 646.546 1044.14 641.162C1054.1 635.778 1065.1 631.769 1077.13 629.135C1089.27 626.386 1101.47 624.209 1113.72 622.606C1129.76 620.544 1142.76 618.997 1152.73 617.967C1162.81 616.821 1170.14 614.931 1174.72 612.297C1179.42 609.662 1181.76 605.08 1181.76 598.551V597.177C1181.76 580.224 1177.13 567.051 1167.85 557.658C1158.68 548.266 1144.77 543.569 1126.1 543.569C1106.74 543.569 1091.56 547.807 1080.56 556.284C1069.57 564.76 1061.84 573.809 1057.37 583.431L1018.88 569.686C1025.75 553.649 1034.92 541.164 1046.37 532.229C1057.94 523.18 1070.54 516.88 1084.17 513.329C1097.92 509.664 1111.43 507.831 1124.72 507.831C1133.2 507.831 1142.93 508.862 1153.93 510.924C1165.04 512.871 1175.75 516.937 1186.06 523.123C1196.48 529.308 1205.13 538.644 1212 551.129C1218.88 563.615 1222.31 580.338 1222.31 601.3V775.18H1181.76V739.442H1179.7C1176.95 745.169 1172.37 751.297 1165.96 757.827C1159.54 764.356 1151.01 769.911 1140.36 774.493C1129.7 779.075 1116.7 781.366 1101.35 781.366ZM1107.54 744.94C1123.58 744.94 1137.09 741.79 1148.09 735.49C1159.2 729.19 1167.56 721.057 1173.17 711.092C1178.9 701.127 1181.76 690.646 1181.76 679.649V642.537C1180.05 644.598 1176.27 646.488 1170.42 648.207C1164.7 649.81 1158.05 651.242 1150.49 652.502C1143.05 653.647 1135.77 654.678 1128.67 655.595C1121.69 656.397 1116.02 657.084 1111.66 657.657C1101.12 659.031 1091.27 661.265 1082.11 664.357C1073.06 667.336 1065.73 671.86 1060.12 677.931C1054.62 683.887 1051.87 692.02 1051.87 702.329C1051.87 716.418 1057.08 727.071 1067.51 734.287C1078.04 741.389 1091.39 744.94 1107.54 744.94ZM1336.87 423.297V775.18H1296.32V423.297H1336.87ZM1448.94 678.962L1448.25 628.791H1456.5L1571.96 511.267H1622.13L1499.11 635.664H1495.68L1448.94 678.962ZM1411.14 775.18V423.297H1451.69V775.18H1411.14ZM1578.84 775.18L1475.75 644.598L1504.61 616.42L1630.38 775.18H1578.84ZM1674.32 775.18V511.267H1714.87V775.18H1674.32ZM1694.94 467.282C1687.04 467.282 1680.22 464.59 1674.5 459.207C1668.88 453.823 1666.08 447.351 1666.08 439.791C1666.08 432.231 1668.88 425.759 1674.5 420.376C1680.22 414.992 1687.04 412.3 1694.94 412.3C1702.85 412.3 1709.6 414.992 1715.22 420.376C1720.94 425.759 1723.81 432.231 1723.81 439.791C1723.81 447.351 1720.94 453.823 1715.22 459.207C1709.6 464.59 1702.85 467.282 1694.94 467.282ZM1829.69 616.42V775.18H1789.14V511.267H1828.32V552.504H1831.75C1837.94 539.102 1847.33 528.335 1859.93 520.202C1872.53 511.955 1888.8 507.831 1908.73 507.831C1926.6 507.831 1942.23 511.497 1955.63 518.827C1969.04 526.044 1979.46 537.04 1986.9 551.817C1994.35 566.478 1998.07 585.035 1998.07 607.486V775.18H1957.52V610.235C1957.52 589.502 1952.14 573.351 1941.37 561.782C1930.61 550.098 1915.83 544.257 1897.04 544.257C1884.1 544.257 1872.53 547.063 1862.34 552.676C1852.26 558.288 1844.3 566.478 1838.45 577.246C1832.61 588.013 1829.69 601.071 1829.69 616.42ZM2178.7 879.646C2159.11 879.646 2142.27 877.126 2128.18 872.086C2114.09 867.16 2102.35 860.631 2092.96 852.498C2083.68 844.48 2076.29 835.889 2070.79 826.726L2103.1 804.046C2106.76 808.857 2111.4 814.355 2117.01 820.54C2122.63 826.84 2130.3 832.281 2140.04 836.863C2149.89 841.559 2162.77 843.907 2178.7 843.907C2200 843.907 2217.58 838.753 2231.44 828.444C2245.3 818.135 2252.23 801.984 2252.23 779.991V726.384H2248.8C2245.82 731.195 2241.58 737.151 2236.08 744.253C2230.7 751.24 2222.91 757.483 2212.72 762.981C2202.64 768.365 2189.01 771.057 2171.82 771.057C2150.52 771.057 2131.39 766.017 2114.44 755.937C2097.6 745.857 2084.25 731.195 2074.4 711.951C2064.67 692.707 2059.8 669.34 2059.8 641.849C2059.8 614.817 2064.55 591.277 2074.06 571.232C2083.57 551.072 2096.8 535.494 2113.75 524.497C2130.7 513.387 2150.29 507.831 2172.51 507.831C2189.69 507.831 2203.32 510.695 2213.4 516.422C2223.6 522.035 2231.39 528.449 2236.77 535.666C2242.27 542.767 2246.51 548.609 2249.49 553.191H2253.61V511.267H2292.78V782.74C2292.78 805.42 2287.63 823.862 2277.32 838.066C2267.13 852.384 2253.38 862.865 2236.08 869.508C2218.9 876.267 2199.77 879.646 2178.7 879.646ZM2177.32 734.631C2193.59 734.631 2207.33 730.908 2218.56 723.463C2229.78 716.017 2238.32 705.307 2244.16 691.333C2250 677.358 2252.92 660.635 2252.92 641.162C2252.92 622.147 2250.06 605.367 2244.33 590.819C2238.6 576.272 2230.13 564.875 2218.9 556.627C2207.68 548.38 2193.82 544.257 2177.32 544.257C2160.14 544.257 2145.82 548.609 2134.37 557.315C2123.03 566.02 2114.49 577.704 2108.77 592.366C2103.15 607.027 2100.35 623.293 2100.35 641.162C2100.35 659.489 2103.21 675.697 2108.94 689.787C2114.78 703.761 2123.37 714.757 2134.71 722.776C2146.17 730.679 2160.37 734.631 2177.32 734.631Z" fill="white"/>
<rect width="2884.14" height="1489.32" rx="113.4" fill="#171717"/>
<g opacity="0.18">
<circle cx="2508.69" cy="1077.2" r="217.312" fill="black"/>
<circle cx="2491.31" cy="1059.82" r="217.312" fill="#BABABA"/>
</g>
<circle cx="408.689" cy="1077.2" r="217.312" fill="black"/>
<circle cx="391.31" cy="1059.82" r="217.312" fill="#BABABA"/>
<path d="M658.406 775.18L562.188 423.297H605.486L679.024 709.889H682.461L757.373 423.297H805.483L880.395 709.889H883.832L957.37 423.297H1000.67L904.45 775.18H860.464L782.803 494.773H780.053L702.392 775.18H658.406ZM1101.35 781.366C1084.63 781.366 1069.45 778.216 1055.82 771.916C1042.19 765.501 1031.37 756.28 1023.35 744.253C1015.33 732.111 1011.32 717.449 1011.32 700.267C1011.32 685.147 1014.3 672.891 1020.26 663.498C1026.21 653.991 1034.17 646.546 1044.14 641.162C1054.1 635.778 1065.1 631.769 1077.13 629.135C1089.27 626.386 1101.47 624.209 1113.72 622.606C1129.76 620.544 1142.76 618.997 1152.73 617.967C1162.81 616.821 1170.14 614.931 1174.72 612.297C1179.42 609.662 1181.76 605.08 1181.76 598.551V597.177C1181.76 580.224 1177.13 567.051 1167.85 557.658C1158.68 548.266 1144.77 543.569 1126.1 543.569C1106.74 543.569 1091.56 547.807 1080.56 556.284C1069.57 564.76 1061.84 573.809 1057.37 583.431L1018.88 569.686C1025.75 553.649 1034.92 541.164 1046.37 532.229C1057.94 523.18 1070.54 516.88 1084.17 513.329C1097.92 509.664 1111.43 507.831 1124.72 507.831C1133.2 507.831 1142.93 508.862 1153.93 510.924C1165.04 512.871 1175.75 516.937 1186.06 523.123C1196.48 529.308 1205.13 538.644 1212 551.129C1218.88 563.615 1222.31 580.338 1222.31 601.3V775.18H1181.76V739.442H1179.7C1176.95 745.169 1172.37 751.297 1165.96 757.827C1159.54 764.356 1151.01 769.911 1140.36 774.493C1129.7 779.075 1116.7 781.366 1101.35 781.366ZM1107.54 744.94C1123.58 744.94 1137.09 741.79 1148.09 735.49C1159.2 729.19 1167.56 721.057 1173.17 711.092C1178.9 701.127 1181.76 690.646 1181.76 679.649V642.537C1180.05 644.598 1176.27 646.488 1170.42 648.207C1164.7 649.81 1158.05 651.242 1150.49 652.502C1143.05 653.647 1135.77 654.678 1128.67 655.595C1121.69 656.397 1116.02 657.084 1111.66 657.657C1101.12 659.031 1091.27 661.265 1082.11 664.357C1073.06 667.336 1065.73 671.86 1060.12 677.931C1054.62 683.887 1051.87 692.02 1051.87 702.329C1051.87 716.418 1057.08 727.071 1067.51 734.287C1078.04 741.389 1091.39 744.94 1107.54 744.94ZM1336.87 423.297V775.18H1296.32V423.297H1336.87ZM1448.94 678.962L1448.25 628.791H1456.5L1571.96 511.267H1622.13L1499.11 635.664H1495.68L1448.94 678.962ZM1411.14 775.18V423.297H1451.69V775.18H1411.14ZM1578.84 775.18L1475.75 644.598L1504.61 616.42L1630.38 775.18H1578.84ZM1674.32 775.18V511.267H1714.87V775.18H1674.32ZM1694.94 467.282C1687.04 467.282 1680.22 464.59 1674.5 459.207C1668.88 453.823 1666.08 447.351 1666.08 439.791C1666.08 432.231 1668.88 425.759 1674.5 420.376C1680.22 414.992 1687.04 412.3 1694.94 412.3C1702.85 412.3 1709.6 414.992 1715.22 420.376C1720.94 425.759 1723.81 432.231 1723.81 439.791C1723.81 447.351 1720.94 453.823 1715.22 459.207C1709.6 464.59 1702.85 467.282 1694.94 467.282ZM1829.69 616.42V775.18H1789.14V511.267H1828.32V552.504H1831.75C1837.94 539.102 1847.33 528.335 1859.93 520.202C1872.53 511.955 1888.8 507.831 1908.73 507.831C1926.6 507.831 1942.23 511.497 1955.63 518.827C1969.04 526.044 1979.46 537.04 1986.9 551.817C1994.35 566.478 1998.07 585.035 1998.07 607.486V775.18H1957.52V610.235C1957.52 589.502 1952.14 573.351 1941.37 561.782C1930.61 550.098 1915.83 544.257 1897.04 544.257C1884.1 544.257 1872.53 547.063 1862.34 552.676C1852.26 558.288 1844.3 566.478 1838.45 577.246C1832.61 588.013 1829.69 601.071 1829.69 616.42ZM2178.7 879.646C2159.11 879.646 2142.27 877.126 2128.18 872.086C2114.09 867.16 2102.35 860.631 2092.96 852.498C2083.68 844.48 2076.29 835.889 2070.79 826.726L2103.1 804.046C2106.76 808.857 2111.4 814.355 2117.01 820.54C2122.63 826.84 2130.3 832.281 2140.04 836.863C2149.89 841.559 2162.77 843.907 2178.7 843.907C2200 843.907 2217.58 838.753 2231.44 828.444C2245.3 818.135 2252.23 801.984 2252.23 779.991V726.384H2248.8C2245.82 731.195 2241.58 737.151 2236.08 744.253C2230.7 751.24 2222.91 757.483 2212.72 762.981C2202.64 768.365 2189.01 771.057 2171.82 771.057C2150.52 771.057 2131.39 766.017 2114.44 755.937C2097.6 745.857 2084.25 731.195 2074.4 711.951C2064.67 692.707 2059.8 669.34 2059.8 641.849C2059.8 614.817 2064.55 591.277 2074.06 571.232C2083.57 551.072 2096.8 535.494 2113.75 524.497C2130.7 513.387 2150.29 507.831 2172.51 507.831C2189.69 507.831 2203.32 510.695 2213.4 516.422C2223.6 522.035 2231.39 528.449 2236.77 535.666C2242.27 542.767 2246.51 548.609 2249.49 553.191H2253.61V511.267H2292.78V782.74C2292.78 805.42 2287.63 823.862 2277.32 838.066C2267.13 852.384 2253.38 862.865 2236.08 869.508C2218.9 876.267 2199.77 879.646 2178.7 879.646ZM2177.32 734.631C2193.59 734.631 2207.33 730.908 2218.56 723.463C2229.78 716.017 2238.32 705.307 2244.16 691.333C2250 677.358 2252.92 660.635 2252.92 641.162C2252.92 622.147 2250.06 605.367 2244.33 590.819C2238.6 576.272 2230.13 564.875 2218.9 556.627C2207.68 548.38 2193.82 544.257 2177.32 544.257C2160.14 544.257 2145.82 548.609 2134.37 557.315C2123.03 566.02 2114.49 577.704 2108.77 592.366C2103.15 607.027 2100.35 623.293 2100.35 641.162C2100.35 659.489 2103.21 675.697 2108.94 689.787C2114.78 703.761 2123.37 714.757 2134.71 722.776C2146.17 730.679 2160.37 734.631 2177.32 734.631Z" fill="white"/>
</svg>
