<svg width="2886" height="1490" viewBox="0 0 2886 1490" fill="none" xmlns="http://www.w3.org/2000/svg">
<g clip-path="url(#clip0_472_515)">
<rect x="0.898438" width="2884.14" height="1489.32" rx="113.4" fill="#171717"/>
<circle cx="612.313" cy="303.84" r="239.184" fill="black"/>
<circle cx="596.68" cy="281.179" r="239.184" fill="#BABABA"/>
<circle cx="239.184" cy="239.184" r="239.184" transform="matrix(-1 0 0 1 2512.87 64.6562)" fill="black"/>
<circle cx="239.184" cy="239.184" r="239.184" transform="matrix(-1 0 0 1 2528.5 41.9951)" fill="#BABABA"/>
<path d="M643.156 423.297H685.767V674.838C685.767 697.289 681.643 716.361 673.396 732.054C665.149 747.747 653.523 759.659 638.517 767.792C623.512 775.925 605.814 779.991 585.425 779.991C566.182 779.991 549.057 776.497 534.052 769.51C519.046 762.408 507.248 752.328 498.657 739.27C490.066 726.212 485.771 710.691 485.771 692.707H527.694C527.694 702.673 530.157 711.378 535.083 718.824C540.123 726.155 546.995 731.882 555.701 736.006C564.406 740.129 574.314 742.191 585.425 742.191C597.682 742.191 608.105 739.614 616.696 734.459C625.287 729.305 631.816 721.745 636.283 711.779C640.865 701.699 643.156 689.386 643.156 674.838V423.297ZM931.983 667.278V511.267H972.532V775.18H931.983V730.507H929.233C923.048 743.909 913.426 755.307 900.368 764.699C887.31 773.977 870.815 778.617 850.884 778.617C834.39 778.617 819.728 775.008 806.899 767.792C794.07 760.461 783.99 749.465 776.659 734.803C769.328 720.027 765.663 701.413 765.663 678.962V511.267H806.212V676.213C806.212 695.457 811.595 710.806 822.363 722.26C833.244 733.715 847.104 739.442 863.943 739.442C874.023 739.442 884.274 736.865 894.698 731.71C905.236 726.556 914.056 718.652 921.158 707.999C928.374 697.347 931.983 683.773 931.983 667.278ZM1046.8 775.18V511.267H1085.97V552.504H1089.41C1094.91 538.415 1103.79 527.476 1116.04 519.687C1128.3 511.783 1143.02 507.831 1160.2 507.831C1177.61 507.831 1192.1 511.783 1203.67 519.687C1215.35 527.476 1224.46 538.415 1230.99 552.504H1233.74C1240.5 538.873 1250.63 528.048 1264.15 520.03C1277.67 511.897 1293.87 507.831 1312.77 507.831C1336.37 507.831 1355.67 515.219 1370.68 529.996C1385.68 544.657 1393.19 567.509 1393.19 598.551V775.18H1352.64V598.551C1352.64 579.078 1347.31 565.161 1336.66 556.799C1326 548.437 1313.46 544.257 1299.03 544.257C1280.47 544.257 1266.1 549.869 1255.9 561.095C1245.71 572.206 1240.61 586.295 1240.61 603.362V775.18H1199.37V594.427C1199.37 579.422 1194.51 567.337 1184.77 558.174C1175.03 548.896 1162.49 544.257 1147.14 544.257C1136.6 544.257 1126.75 547.063 1117.59 552.676C1108.54 558.288 1101.21 566.077 1095.6 576.043C1090.1 585.894 1087.35 597.291 1087.35 610.235V775.18H1046.8ZM1467.33 874.147V511.267H1506.5V553.191H1511.31C1514.29 548.609 1518.41 542.767 1523.68 535.666C1529.07 528.449 1536.74 522.035 1546.7 516.422C1556.79 510.695 1570.42 507.831 1587.6 507.831C1609.82 507.831 1629.41 513.387 1646.36 524.497C1663.31 535.608 1676.54 551.358 1686.05 571.747C1695.56 592.137 1700.31 616.191 1700.31 643.911C1700.31 671.86 1695.56 696.087 1686.05 716.59C1676.54 736.979 1663.37 752.787 1646.53 764.012C1629.69 775.123 1610.28 780.678 1588.29 780.678C1571.33 780.678 1557.76 777.872 1547.56 772.259C1537.37 766.532 1529.52 760.06 1524.03 752.844C1518.53 745.513 1514.29 739.442 1511.31 734.631H1507.87V874.147H1467.33ZM1507.19 643.224C1507.19 663.155 1510.11 680.737 1515.95 695.972C1521.79 711.092 1530.33 722.947 1541.55 731.538C1552.78 740.015 1566.52 744.253 1582.79 744.253C1599.74 744.253 1613.89 739.786 1625.23 730.851C1636.68 721.802 1645.27 709.66 1651 694.426C1656.84 679.077 1659.76 662.009 1659.76 643.224C1659.76 624.667 1656.9 607.944 1651.17 593.053C1645.56 578.047 1637.02 566.192 1625.57 557.487C1614.23 548.667 1599.97 544.257 1582.79 544.257C1566.29 544.257 1552.43 548.437 1541.21 556.799C1529.98 565.047 1521.51 576.616 1515.78 591.507C1510.05 606.283 1507.19 623.522 1507.19 643.224ZM1762.16 775.18V511.267H1802.71V775.18H1762.16ZM1782.78 467.282C1774.88 467.282 1768.06 464.59 1762.34 459.207C1756.72 453.823 1753.92 447.351 1753.92 439.791C1753.92 432.231 1756.72 425.759 1762.34 420.376C1768.06 414.992 1774.88 412.3 1782.78 412.3C1790.69 412.3 1797.44 414.992 1803.06 420.376C1808.78 425.759 1811.65 432.231 1811.65 439.791C1811.65 447.351 1808.78 453.823 1803.06 459.207C1797.44 464.59 1790.69 467.282 1782.78 467.282ZM1917.53 616.42V775.18H1876.98V511.267H1916.16V552.504H1919.59C1925.78 539.102 1935.17 528.335 1947.77 520.202C1960.37 511.955 1976.64 507.831 1996.57 507.831C2014.44 507.831 2030.07 511.497 2043.47 518.827C2056.88 526.044 2067.3 537.04 2074.75 551.817C2082.19 566.478 2085.91 585.035 2085.91 607.486V775.18H2045.36V610.235C2045.36 589.502 2039.98 573.351 2029.21 561.782C2018.45 550.098 2003.67 544.257 1984.88 544.257C1971.94 544.257 1960.37 547.063 1950.18 552.676C1940.1 558.288 1932.14 566.478 1926.29 577.246C1920.45 588.013 1917.53 601.071 1917.53 616.42ZM2266.54 879.646C2246.95 879.646 2230.11 877.126 2216.02 872.086C2201.93 867.16 2190.19 860.631 2180.8 852.498C2171.52 844.48 2164.13 835.889 2158.64 826.726L2190.94 804.046C2194.6 808.857 2199.24 814.355 2204.85 820.54C2210.47 826.84 2218.14 832.281 2227.88 836.863C2237.73 841.559 2250.62 843.907 2266.54 843.907C2287.84 843.907 2305.43 838.753 2319.29 828.444C2333.15 818.135 2340.08 801.984 2340.08 779.991V726.384H2336.64C2333.66 731.195 2329.42 737.151 2323.92 744.253C2318.54 751.24 2310.75 757.483 2300.56 762.981C2290.48 768.365 2276.85 771.057 2259.66 771.057C2238.36 771.057 2219.23 766.017 2202.28 755.937C2185.44 745.857 2172.09 731.195 2162.24 711.951C2152.51 692.707 2147.64 669.34 2147.64 641.849C2147.64 614.817 2152.39 591.277 2161.9 571.232C2171.41 551.072 2184.64 535.494 2201.59 524.497C2218.54 513.387 2238.13 507.831 2260.35 507.831C2277.53 507.831 2291.16 510.695 2301.24 516.422C2311.44 522.035 2319.23 528.449 2324.61 535.666C2330.11 542.767 2334.35 548.609 2337.33 553.191H2341.45V511.267H2380.62V782.74C2380.62 805.42 2375.47 823.862 2365.16 838.066C2354.97 852.384 2341.22 862.865 2323.92 869.508C2306.74 876.267 2287.61 879.646 2266.54 879.646ZM2265.16 734.631C2281.43 734.631 2295.17 730.908 2306.4 723.463C2317.62 716.017 2326.16 705.307 2332 691.333C2337.84 677.358 2340.76 660.635 2340.76 641.162C2340.76 622.147 2337.9 605.367 2332.17 590.819C2326.44 576.272 2317.97 564.875 2306.74 556.627C2295.52 548.38 2281.66 544.257 2265.16 544.257C2247.98 544.257 2233.66 548.609 2222.21 557.315C2210.87 566.02 2202.33 577.704 2196.61 592.366C2190.99 607.027 2188.19 623.293 2188.19 641.162C2188.19 659.489 2191.05 675.697 2196.78 689.787C2202.62 703.761 2211.21 714.757 2222.55 722.776C2234.01 730.679 2248.21 734.631 2265.16 734.631Z" fill="white"/>
</g>
<defs>
<clipPath id="clip0_472_515">
<rect width="2884.14" height="1489.32" fill="white" transform="translate(0.898438)"/>
</clipPath>
</defs>
</svg>
