<svg width="763" height="394" viewBox="0 0 763 394" fill="none" xmlns="http://www.w3.org/2000/svg">
<rect width="763" height="394" rx="30" fill="#171717"/>
<circle cx="382" cy="274" r="50" fill="#638DDD"/>
<path d="M127.182 109.909V99.9091H197V109.909H167.727V193H156.455V109.909H127.182ZM205.693 193V123.182H216.057V133.727H216.784C218.057 130.273 220.36 127.47 223.693 125.318C227.027 123.167 230.784 122.091 234.966 122.091C235.754 122.091 236.739 122.106 237.92 122.136C239.102 122.167 239.996 122.212 240.602 122.273V133.182C240.239 133.091 239.405 132.955 238.102 132.773C236.83 132.561 235.481 132.455 234.057 132.455C230.663 132.455 227.633 133.167 224.966 134.591C222.33 135.985 220.239 137.924 218.693 140.409C217.178 142.864 216.42 145.667 216.42 148.818V193H205.693ZM273.864 194.636C269.439 194.636 265.424 193.803 261.818 192.136C258.212 190.439 255.348 188 253.227 184.818C251.106 181.606 250.045 177.727 250.045 173.182C250.045 169.182 250.833 165.939 252.409 163.455C253.985 160.939 256.091 158.97 258.727 157.545C261.364 156.121 264.273 155.061 267.455 154.364C270.667 153.636 273.894 153.061 277.136 152.636C281.379 152.091 284.818 151.682 287.455 151.409C290.121 151.106 292.061 150.606 293.273 149.909C294.515 149.212 295.136 148 295.136 146.273V145.909C295.136 141.424 293.909 137.939 291.455 135.455C289.03 132.97 285.348 131.727 280.409 131.727C275.288 131.727 271.273 132.848 268.364 135.091C265.455 137.333 263.409 139.727 262.227 142.273L252.045 138.636C253.864 134.394 256.288 131.091 259.318 128.727C262.379 126.333 265.712 124.667 269.318 123.727C272.955 122.758 276.53 122.273 280.045 122.273C282.288 122.273 284.864 122.545 287.773 123.091C290.712 123.606 293.545 124.682 296.273 126.318C299.03 127.955 301.318 130.424 303.136 133.727C304.955 137.03 305.864 141.455 305.864 147V193H295.136V183.545H294.591C293.864 185.061 292.652 186.682 290.955 188.409C289.258 190.136 287 191.606 284.182 192.818C281.364 194.03 277.924 194.636 273.864 194.636ZM275.5 185C279.742 185 283.318 184.167 286.227 182.5C289.167 180.833 291.379 178.682 292.864 176.045C294.379 173.409 295.136 170.636 295.136 167.727V157.909C294.682 158.455 293.682 158.955 292.136 159.409C290.621 159.833 288.864 160.212 286.864 160.545C284.894 160.848 282.97 161.121 281.091 161.364C279.242 161.576 277.742 161.758 276.591 161.909C273.803 162.273 271.197 162.864 268.773 163.682C266.379 164.47 264.439 165.667 262.955 167.273C261.5 168.848 260.773 171 260.773 173.727C260.773 177.455 262.152 180.273 264.909 182.182C267.697 184.061 271.227 185 275.5 185ZM353.807 194.455C347.261 194.455 341.625 192.909 336.898 189.818C332.17 186.727 328.534 182.47 325.989 177.045C323.443 171.621 322.17 165.424 322.17 158.455C322.17 151.364 323.473 145.106 326.08 139.682C328.716 134.227 332.383 129.97 337.08 126.909C341.807 123.818 347.322 122.273 353.625 122.273C358.534 122.273 362.958 123.182 366.898 125C370.837 126.818 374.064 129.364 376.58 132.636C379.095 135.909 380.655 139.727 381.261 144.091H370.534C369.716 140.909 367.898 138.091 365.08 135.636C362.292 133.152 358.534 131.909 353.807 131.909C349.625 131.909 345.958 133 342.807 135.182C339.686 137.333 337.246 140.379 335.489 144.318C333.761 148.227 332.898 152.818 332.898 158.091C332.898 163.485 333.746 168.182 335.443 172.182C337.17 176.182 339.595 179.288 342.716 181.5C345.867 183.712 349.564 184.818 353.807 184.818C356.595 184.818 359.125 184.333 361.398 183.364C363.67 182.394 365.595 181 367.17 179.182C368.746 177.364 369.867 175.182 370.534 172.636H381.261C380.655 176.758 379.155 180.47 376.761 183.773C374.398 187.045 371.261 189.652 367.352 191.591C363.473 193.5 358.958 194.455 353.807 194.455ZM406.943 167.545L406.761 154.273H408.943L439.489 123.182H452.761L420.216 156.091H419.307L406.943 167.545ZM396.943 193V99.9091H407.67V193H396.943ZM441.307 193L414.034 158.455L421.67 151L454.943 193H441.307ZM492.966 194.455C486.239 194.455 480.436 192.97 475.557 190C470.708 187 466.966 182.818 464.33 177.455C461.723 172.061 460.42 165.788 460.42 158.636C460.42 151.485 461.723 145.182 464.33 139.727C466.966 134.242 470.633 129.97 475.33 126.909C480.057 123.818 485.572 122.273 491.875 122.273C495.511 122.273 499.102 122.879 502.648 124.091C506.193 125.303 509.42 127.273 512.33 130C515.239 132.697 517.557 136.273 519.284 140.727C521.011 145.182 521.875 150.667 521.875 157.182V161.727H468.057V152.455H510.966C510.966 148.515 510.178 145 508.602 141.909C507.057 138.818 504.845 136.379 501.966 134.591C499.117 132.803 495.754 131.909 491.875 131.909C487.602 131.909 483.905 132.97 480.784 135.091C477.693 137.182 475.314 139.909 473.648 143.273C471.981 146.636 471.148 150.242 471.148 154.091V160.273C471.148 165.545 472.057 170.015 473.875 173.682C475.723 177.318 478.284 180.091 481.557 182C484.83 183.879 488.633 184.818 492.966 184.818C495.784 184.818 498.33 184.424 500.602 183.636C502.905 182.818 504.89 181.606 506.557 180C508.223 178.364 509.511 176.333 510.42 173.909L520.784 176.818C519.693 180.333 517.86 183.424 515.284 186.091C512.708 188.727 509.527 190.788 505.739 192.273C501.951 193.727 497.693 194.455 492.966 194.455ZM538.193 193V123.182H548.557V133.727H549.284C550.557 130.273 552.86 127.47 556.193 125.318C559.527 123.167 563.284 122.091 567.466 122.091C568.254 122.091 569.239 122.106 570.42 122.136C571.602 122.167 572.496 122.212 573.102 122.273V133.182C572.739 133.091 571.905 132.955 570.602 132.773C569.33 132.561 567.981 132.455 566.557 132.455C563.163 132.455 560.133 133.167 557.466 134.591C554.83 135.985 552.739 137.924 551.193 140.409C549.678 142.864 548.92 145.667 548.92 148.818V193H538.193ZM635.273 138.818L625.636 141.545C625.03 139.939 624.136 138.379 622.955 136.864C621.803 135.318 620.227 134.045 618.227 133.045C616.227 132.045 613.667 131.545 610.545 131.545C606.273 131.545 602.712 132.53 599.864 134.5C597.045 136.439 595.636 138.909 595.636 141.909C595.636 144.576 596.606 146.682 598.545 148.227C600.485 149.773 603.515 151.061 607.636 152.091L618 154.636C624.242 156.152 628.894 158.47 631.955 161.591C635.015 164.682 636.545 168.667 636.545 173.545C636.545 177.545 635.394 181.121 633.091 184.273C630.818 187.424 627.636 189.909 623.545 191.727C619.455 193.545 614.697 194.455 609.273 194.455C602.152 194.455 596.258 192.909 591.591 189.818C586.924 186.727 583.97 182.212 582.727 176.273L592.909 173.727C593.879 177.485 595.712 180.303 598.409 182.182C601.136 184.061 604.697 185 609.091 185C614.091 185 618.061 183.939 621 181.818C623.97 179.667 625.455 177.091 625.455 174.091C625.455 171.667 624.606 169.636 622.909 168C621.212 166.333 618.606 165.091 615.091 164.273L603.455 161.545C597.061 160.03 592.364 157.682 589.364 154.5C586.394 151.288 584.909 147.273 584.909 142.455C584.909 138.515 586.015 135.03 588.227 132C590.47 128.97 593.515 126.591 597.364 124.864C601.242 123.136 605.636 122.273 610.545 122.273C617.455 122.273 622.879 123.788 626.818 126.818C630.788 129.848 633.606 133.848 635.273 138.818Z" fill="white"/>
</svg>
