<svg width="763" height="394" viewBox="0 0 763 394" fill="none" xmlns="http://www.w3.org/2000/svg">
<rect width="763" height="394" rx="30" fill="#171717"/>
<path d="M30.5909 22.7273V46H27.7727V25.6818H27.6364L21.9545 29.4545V26.5909L27.7727 22.7273H30.5909ZM37.9091 46.1818C37.3485 46.1818 36.8674 45.9811 36.4659 45.5795C36.0644 45.178 35.8636 44.697 35.8636 44.1364C35.8636 43.5758 36.0644 43.0947 36.4659 42.6932C36.8674 42.2917 37.3485 42.0909 37.9091 42.0909C38.4697 42.0909 38.9508 42.2917 39.3523 42.6932C39.7538 43.0947 39.9545 43.5758 39.9545 44.1364C39.9545 44.5076 39.8598 44.8485 39.6705 45.1591C39.4886 45.4697 39.2424 45.7197 38.9318 45.9091C38.6288 46.0909 38.2879 46.1818 37.9091 46.1818Z" fill="white"/>
<circle cx="381" cy="197" r="48.5" fill="#638DDD" stroke="white" stroke-width="3"/>
<path d="M192.003 280C191.847 279.522 191.641 279.093 191.385 278.714C191.135 278.331 190.834 278.004 190.483 277.734C190.138 277.464 189.745 277.259 189.305 277.116C188.864 276.974 188.381 276.903 187.856 276.903C186.994 276.903 186.21 277.126 185.505 277.571C184.799 278.016 184.238 278.672 183.822 279.538C183.405 280.405 183.197 281.468 183.197 282.727C183.197 283.987 183.407 285.05 183.829 285.916C184.25 286.783 184.821 287.438 185.54 287.884C186.26 288.329 187.07 288.551 187.969 288.551C188.803 288.551 189.537 288.374 190.171 288.018C190.81 287.659 191.307 287.152 191.662 286.499C192.022 285.84 192.202 285.066 192.202 284.176L192.742 284.29H188.367V282.727H193.907V284.29C193.907 285.488 193.651 286.529 193.14 287.415C192.633 288.3 191.932 288.987 191.037 289.474C190.147 289.957 189.125 290.199 187.969 290.199C186.681 290.199 185.55 289.896 184.574 289.29C183.604 288.684 182.846 287.822 182.302 286.705C181.762 285.587 181.492 284.261 181.492 282.727C181.492 281.577 181.646 280.542 181.954 279.624C182.266 278.7 182.706 277.914 183.275 277.266C183.843 276.617 184.515 276.12 185.292 275.774C186.068 275.429 186.923 275.256 187.856 275.256C188.623 275.256 189.338 275.372 190.001 275.604C190.668 275.831 191.262 276.155 191.783 276.577C192.309 276.993 192.747 277.493 193.097 278.075C193.448 278.653 193.689 279.295 193.822 280H192.003ZM201.27 290.227C200.219 290.227 199.312 289.995 198.55 289.531C197.792 289.062 197.208 288.409 196.796 287.571C196.388 286.728 196.185 285.748 196.185 284.631C196.185 283.513 196.388 282.528 196.796 281.676C197.208 280.819 197.78 280.152 198.514 279.673C199.253 279.19 200.115 278.949 201.1 278.949C201.668 278.949 202.229 279.044 202.783 279.233C203.337 279.422 203.841 279.73 204.296 280.156C204.75 280.578 205.112 281.136 205.382 281.832C205.652 282.528 205.787 283.385 205.787 284.403V285.114H197.378V283.665H204.083C204.083 283.049 203.959 282.5 203.713 282.017C203.472 281.534 203.126 281.153 202.676 280.874C202.231 280.594 201.706 280.455 201.1 280.455C200.432 280.455 199.854 280.62 199.367 280.952C198.884 281.278 198.512 281.705 198.252 282.23C197.991 282.756 197.861 283.319 197.861 283.92V284.886C197.861 285.71 198.003 286.409 198.287 286.982C198.576 287.55 198.976 287.983 199.487 288.281C199.999 288.575 200.593 288.722 201.27 288.722C201.71 288.722 202.108 288.66 202.463 288.537C202.823 288.409 203.133 288.22 203.394 287.969C203.654 287.713 203.855 287.396 203.997 287.017L205.617 287.472C205.446 288.021 205.16 288.504 204.757 288.92C204.355 289.332 203.858 289.654 203.266 289.886C202.674 290.114 202.009 290.227 201.27 290.227ZM213.081 279.091V280.511H207.428V279.091H213.081ZM209.075 276.477H210.752V286.875C210.752 287.348 210.82 287.704 210.958 287.94C211.1 288.172 211.28 288.329 211.497 288.409C211.72 288.485 211.954 288.523 212.2 288.523C212.385 288.523 212.537 288.513 212.655 288.494C212.773 288.471 212.868 288.452 212.939 288.438L213.28 289.943C213.166 289.986 213.008 290.028 212.804 290.071C212.601 290.118 212.343 290.142 212.03 290.142C211.557 290.142 211.093 290.04 210.638 289.837C210.188 289.633 209.814 289.323 209.516 288.906C209.222 288.49 209.075 287.964 209.075 287.33V276.477ZM224.438 290.256C223.746 290.256 223.119 290.125 222.556 289.865C221.992 289.6 221.545 289.219 221.213 288.722C220.882 288.22 220.716 287.614 220.716 286.903C220.716 286.278 220.839 285.772 221.085 285.384C221.332 284.991 221.661 284.683 222.073 284.46C222.485 284.238 222.939 284.072 223.436 283.963C223.938 283.849 224.442 283.759 224.949 283.693C225.612 283.608 226.149 283.544 226.561 283.501C226.978 283.454 227.281 283.376 227.47 283.267C227.664 283.158 227.762 282.969 227.762 282.699V282.642C227.762 281.941 227.57 281.397 227.186 281.009C226.807 280.62 226.232 280.426 225.46 280.426C224.66 280.426 224.033 280.601 223.578 280.952C223.124 281.302 222.804 281.676 222.619 282.074L221.029 281.506C221.313 280.843 221.691 280.327 222.165 279.957C222.643 279.583 223.164 279.323 223.727 279.176C224.296 279.025 224.854 278.949 225.404 278.949C225.754 278.949 226.156 278.991 226.611 279.077C227.07 279.157 227.513 279.325 227.939 279.581C228.37 279.837 228.727 280.223 229.012 280.739C229.296 281.255 229.438 281.946 229.438 282.812V290H227.762V288.523H227.676C227.563 288.759 227.373 289.013 227.108 289.283C226.843 289.553 226.49 289.782 226.05 289.972C225.61 290.161 225.072 290.256 224.438 290.256ZM224.693 288.75C225.356 288.75 225.915 288.62 226.369 288.359C226.829 288.099 227.174 287.763 227.406 287.351C227.643 286.939 227.762 286.506 227.762 286.051V284.517C227.691 284.602 227.534 284.68 227.293 284.751C227.056 284.818 226.781 284.877 226.469 284.929C226.161 284.976 225.86 285.019 225.567 285.057C225.278 285.09 225.044 285.118 224.864 285.142C224.428 285.199 224.021 285.291 223.642 285.419C223.268 285.542 222.965 285.729 222.733 285.98C222.506 286.226 222.392 286.562 222.392 286.989C222.392 287.571 222.608 288.011 223.039 288.31C223.474 288.603 224.026 288.75 224.693 288.75ZM238.122 290V279.091H239.741V280.739H239.855C240.054 280.199 240.414 279.761 240.934 279.425C241.455 279.089 242.042 278.92 242.696 278.92C242.819 278.92 242.973 278.923 243.157 278.928C243.342 278.932 243.482 278.939 243.577 278.949V280.653C243.52 280.639 243.39 280.618 243.186 280.589C242.987 280.556 242.776 280.54 242.554 280.54C242.023 280.54 241.55 280.651 241.133 280.874C240.721 281.091 240.395 281.394 240.153 281.783C239.916 282.166 239.798 282.604 239.798 283.097V290H238.122ZM248.774 290.256C248.082 290.256 247.455 290.125 246.892 289.865C246.328 289.6 245.881 289.219 245.549 288.722C245.218 288.22 245.052 287.614 245.052 286.903C245.052 286.278 245.175 285.772 245.421 285.384C245.668 284.991 245.997 284.683 246.409 284.46C246.82 284.238 247.275 284.072 247.772 283.963C248.274 283.849 248.778 283.759 249.285 283.693C249.948 283.608 250.485 283.544 250.897 283.501C251.314 283.454 251.617 283.376 251.806 283.267C252 283.158 252.097 282.969 252.097 282.699V282.642C252.097 281.941 251.906 281.397 251.522 281.009C251.143 280.62 250.568 280.426 249.796 280.426C248.996 280.426 248.369 280.601 247.914 280.952C247.46 281.302 247.14 281.676 246.955 282.074L245.365 281.506C245.649 280.843 246.027 280.327 246.501 279.957C246.979 279.583 247.5 279.323 248.063 279.176C248.632 279.025 249.19 278.949 249.74 278.949C250.09 278.949 250.492 278.991 250.947 279.077C251.406 279.157 251.849 279.325 252.275 279.581C252.706 279.837 253.063 280.223 253.347 280.739C253.632 281.255 253.774 281.946 253.774 282.812V290H252.097V288.523H252.012C251.899 288.759 251.709 289.013 251.444 289.283C251.179 289.553 250.826 289.782 250.386 289.972C249.945 290.161 249.408 290.256 248.774 290.256ZM249.029 288.75C249.692 288.75 250.251 288.62 250.705 288.359C251.165 288.099 251.51 287.763 251.742 287.351C251.979 286.939 252.097 286.506 252.097 286.051V284.517C252.026 284.602 251.87 284.68 251.629 284.751C251.392 284.818 251.117 284.877 250.805 284.929C250.497 284.976 250.196 285.019 249.903 285.057C249.614 285.09 249.38 285.118 249.2 285.142C248.764 285.199 248.357 285.291 247.978 285.419C247.604 285.542 247.301 285.729 247.069 285.98C246.842 286.226 246.728 286.562 246.728 286.989C246.728 287.571 246.944 288.011 247.374 288.31C247.81 288.603 248.362 288.75 249.029 288.75ZM258.509 283.438V290H256.833V279.091H258.452V280.795H258.594C258.85 280.241 259.238 279.796 259.759 279.46C260.28 279.119 260.952 278.949 261.776 278.949C262.515 278.949 263.161 279.1 263.715 279.403C264.269 279.702 264.7 280.156 265.008 280.767C265.315 281.373 265.469 282.14 265.469 283.068V290H263.793V283.182C263.793 282.325 263.571 281.657 263.126 281.179C262.68 280.696 262.07 280.455 261.293 280.455C260.758 280.455 260.28 280.571 259.858 280.803C259.442 281.035 259.113 281.373 258.871 281.818C258.63 282.263 258.509 282.803 258.509 283.438ZM272.651 290.227C271.742 290.227 270.94 289.998 270.244 289.538C269.548 289.074 269.003 288.421 268.61 287.578C268.217 286.731 268.021 285.729 268.021 284.574C268.021 283.428 268.217 282.434 268.61 281.591C269.003 280.748 269.55 280.097 270.251 279.638C270.952 279.179 271.761 278.949 272.68 278.949C273.39 278.949 273.951 279.067 274.363 279.304C274.78 279.536 275.097 279.801 275.315 280.099C275.537 280.393 275.71 280.634 275.833 280.824H275.975V275.455H277.651V290H276.032V288.324H275.833C275.71 288.523 275.535 288.774 275.308 289.077C275.08 289.375 274.756 289.643 274.335 289.879C273.913 290.111 273.352 290.227 272.651 290.227ZM272.879 288.722C273.551 288.722 274.119 288.546 274.583 288.196C275.047 287.841 275.4 287.351 275.642 286.726C275.883 286.096 276.004 285.369 276.004 284.545C276.004 283.731 275.885 283.018 275.649 282.408C275.412 281.792 275.061 281.314 274.597 280.973C274.133 280.627 273.561 280.455 272.879 280.455C272.169 280.455 271.577 280.637 271.103 281.001C270.634 281.361 270.282 281.851 270.045 282.472C269.813 283.087 269.697 283.778 269.697 284.545C269.697 285.322 269.815 286.027 270.052 286.662C270.294 287.292 270.649 287.794 271.117 288.168C271.591 288.537 272.178 288.722 272.879 288.722ZM285.386 290.227C284.401 290.227 283.537 289.993 282.794 289.524C282.055 289.055 281.477 288.4 281.061 287.557C280.649 286.714 280.443 285.729 280.443 284.602C280.443 283.466 280.649 282.474 281.061 281.626C281.477 280.779 282.055 280.121 282.794 279.652C283.537 279.183 284.401 278.949 285.386 278.949C286.371 278.949 287.232 279.183 287.971 279.652C288.714 280.121 289.292 280.779 289.704 281.626C290.121 282.474 290.329 283.466 290.329 284.602C290.329 285.729 290.121 286.714 289.704 287.557C289.292 288.4 288.714 289.055 287.971 289.524C287.232 289.993 286.371 290.227 285.386 290.227ZM285.386 288.722C286.134 288.722 286.749 288.53 287.232 288.146C287.715 287.763 288.073 287.259 288.305 286.634C288.537 286.009 288.653 285.331 288.653 284.602C288.653 283.873 288.537 283.194 288.305 282.564C288.073 281.934 287.715 281.425 287.232 281.037C286.749 280.649 286.134 280.455 285.386 280.455C284.638 280.455 284.022 280.649 283.539 281.037C283.056 281.425 282.699 281.934 282.467 282.564C282.235 283.194 282.119 283.873 282.119 284.602C282.119 285.331 282.235 286.009 282.467 286.634C282.699 287.259 283.056 287.763 283.539 288.146C284.022 288.53 284.638 288.722 285.386 288.722ZM292.888 290V279.091H294.507V280.795H294.649C294.876 280.213 295.243 279.761 295.75 279.439C296.256 279.112 296.865 278.949 297.575 278.949C298.295 278.949 298.894 279.112 299.372 279.439C299.855 279.761 300.231 280.213 300.501 280.795H300.615C300.894 280.232 301.313 279.785 301.872 279.453C302.431 279.117 303.101 278.949 303.882 278.949C304.857 278.949 305.655 279.254 306.275 279.865C306.896 280.471 307.206 281.416 307.206 282.699V290H305.53V282.699C305.53 281.894 305.309 281.319 304.869 280.973C304.429 280.627 303.91 280.455 303.314 280.455C302.547 280.455 301.952 280.687 301.531 281.151C301.11 281.61 300.899 282.192 300.899 282.898V290H299.194V282.528C299.194 281.908 298.993 281.409 298.591 281.03C298.188 280.646 297.67 280.455 297.035 280.455C296.6 280.455 296.193 280.571 295.814 280.803C295.44 281.035 295.137 281.357 294.905 281.768C294.677 282.176 294.564 282.647 294.564 283.182V290H292.888ZM316.123 290V275.455H317.799V280.824H317.941C318.064 280.634 318.234 280.393 318.452 280.099C318.675 279.801 318.992 279.536 319.404 279.304C319.821 279.067 320.384 278.949 321.094 278.949C322.013 278.949 322.823 279.179 323.523 279.638C324.224 280.097 324.771 280.748 325.164 281.591C325.557 282.434 325.753 283.428 325.753 284.574C325.753 285.729 325.557 286.731 325.164 287.578C324.771 288.421 324.226 289.074 323.53 289.538C322.834 289.998 322.032 290.227 321.123 290.227C320.422 290.227 319.861 290.111 319.439 289.879C319.018 289.643 318.694 289.375 318.466 289.077C318.239 288.774 318.064 288.523 317.941 288.324H317.742V290H316.123ZM317.77 284.545C317.77 285.369 317.891 286.096 318.133 286.726C318.374 287.351 318.727 287.841 319.191 288.196C319.655 288.546 320.223 288.722 320.895 288.722C321.596 288.722 322.181 288.537 322.65 288.168C323.123 287.794 323.478 287.292 323.715 286.662C323.956 286.027 324.077 285.322 324.077 284.545C324.077 283.778 323.959 283.087 323.722 282.472C323.49 281.851 323.137 281.361 322.664 281.001C322.195 280.637 321.606 280.455 320.895 280.455C320.214 280.455 319.641 280.627 319.177 280.973C318.713 281.314 318.362 281.792 318.126 282.408C317.889 283.018 317.77 283.731 317.77 284.545ZM329.993 275.455V290H328.317V275.455H329.993ZM337.495 290.227C336.51 290.227 335.646 289.993 334.903 289.524C334.164 289.055 333.587 288.4 333.17 287.557C332.758 286.714 332.552 285.729 332.552 284.602C332.552 283.466 332.758 282.474 333.17 281.626C333.587 280.779 334.164 280.121 334.903 279.652C335.646 279.183 336.51 278.949 337.495 278.949C338.48 278.949 339.342 279.183 340.08 279.652C340.824 280.121 341.401 280.779 341.813 281.626C342.23 282.474 342.438 283.466 342.438 284.602C342.438 285.729 342.23 286.714 341.813 287.557C341.401 288.4 340.824 289.055 340.08 289.524C339.342 289.993 338.48 290.227 337.495 290.227ZM337.495 288.722C338.243 288.722 338.859 288.53 339.342 288.146C339.825 287.763 340.182 287.259 340.414 286.634C340.646 286.009 340.762 285.331 340.762 284.602C340.762 283.873 340.646 283.194 340.414 282.564C340.182 281.934 339.825 281.425 339.342 281.037C338.859 280.649 338.243 280.455 337.495 280.455C336.747 280.455 336.132 280.649 335.649 281.037C335.166 281.425 334.808 281.934 334.576 282.564C334.344 283.194 334.228 283.873 334.228 284.602C334.228 285.331 334.344 286.009 334.576 286.634C334.808 287.259 335.166 287.763 335.649 288.146C336.132 288.53 336.747 288.722 337.495 288.722ZM349.429 290.227C348.406 290.227 347.525 289.986 346.787 289.503C346.048 289.02 345.48 288.355 345.082 287.507C344.684 286.66 344.486 285.691 344.486 284.602C344.486 283.494 344.689 282.517 345.096 281.669C345.508 280.817 346.081 280.152 346.815 279.673C347.554 279.19 348.416 278.949 349.4 278.949C350.167 278.949 350.859 279.091 351.474 279.375C352.09 279.659 352.594 280.057 352.987 280.568C353.38 281.08 353.624 281.676 353.719 282.358H352.042C351.915 281.861 351.631 281.42 351.19 281.037C350.755 280.649 350.167 280.455 349.429 280.455C348.775 280.455 348.202 280.625 347.71 280.966C347.222 281.302 346.841 281.778 346.567 282.393C346.297 283.004 346.162 283.722 346.162 284.545C346.162 285.388 346.294 286.122 346.559 286.747C346.829 287.372 347.208 287.857 347.696 288.203C348.188 288.549 348.766 288.722 349.429 288.722C349.864 288.722 350.26 288.646 350.615 288.494C350.97 288.343 351.271 288.125 351.517 287.841C351.763 287.557 351.938 287.216 352.042 286.818H353.719C353.624 287.462 353.39 288.042 353.015 288.558C352.646 289.07 352.156 289.477 351.545 289.78C350.939 290.078 350.234 290.227 349.429 290.227ZM357.731 286.023L357.703 283.949H358.044L362.817 279.091H364.89L359.805 284.233H359.663L357.731 286.023ZM356.169 290V275.455H357.845V290H356.169ZM363.101 290L358.839 284.602L360.032 283.438L365.231 290H363.101ZM369.548 288.011L369.434 288.778C369.354 289.318 369.231 289.896 369.065 290.511C368.904 291.127 368.736 291.707 368.561 292.251C368.385 292.796 368.241 293.229 368.127 293.551H366.849C366.91 293.248 366.991 292.848 367.09 292.351C367.19 291.854 367.289 291.297 367.389 290.682C367.493 290.071 367.578 289.446 367.644 288.807L367.73 288.011H369.548ZM383.136 279.091V280.511H377.256V279.091H383.136ZM379.017 290V277.585C379.017 276.96 379.164 276.439 379.457 276.023C379.751 275.606 380.132 275.294 380.601 275.085C381.069 274.877 381.564 274.773 382.085 274.773C382.497 274.773 382.833 274.806 383.094 274.872C383.354 274.938 383.548 275 383.676 275.057L383.193 276.506C383.108 276.477 382.989 276.442 382.838 276.399C382.691 276.357 382.497 276.335 382.256 276.335C381.702 276.335 381.301 276.475 381.055 276.754C380.814 277.034 380.693 277.443 380.693 277.983V290H379.017ZM389.468 290.227C388.483 290.227 387.619 289.993 386.876 289.524C386.137 289.055 385.559 288.4 385.143 287.557C384.731 286.714 384.525 285.729 384.525 284.602C384.525 283.466 384.731 282.474 385.143 281.626C385.559 280.779 386.137 280.121 386.876 279.652C387.619 279.183 388.483 278.949 389.468 278.949C390.453 278.949 391.314 279.183 392.053 279.652C392.796 280.121 393.374 280.779 393.786 281.626C394.203 282.474 394.411 283.466 394.411 284.602C394.411 285.729 394.203 286.714 393.786 287.557C393.374 288.4 392.796 289.055 392.053 289.524C391.314 289.993 390.453 290.227 389.468 290.227ZM389.468 288.722C390.216 288.722 390.831 288.53 391.314 288.146C391.797 287.763 392.155 287.259 392.387 286.634C392.619 286.009 392.735 285.331 392.735 284.602C392.735 283.873 392.619 283.194 392.387 282.564C392.155 281.934 391.797 281.425 391.314 281.037C390.831 280.649 390.216 280.455 389.468 280.455C388.72 280.455 388.104 280.649 387.621 281.037C387.138 281.425 386.781 281.934 386.549 282.564C386.317 283.194 386.201 283.873 386.201 284.602C386.201 285.331 386.317 286.009 386.549 286.634C386.781 287.259 387.138 287.763 387.621 288.146C388.104 288.53 388.72 288.722 389.468 288.722ZM396.97 290V279.091H398.589V280.739H398.703C398.901 280.199 399.261 279.761 399.782 279.425C400.303 279.089 400.89 278.92 401.544 278.92C401.667 278.92 401.82 278.923 402.005 278.928C402.19 278.932 402.329 278.939 402.424 278.949V280.653C402.367 280.639 402.237 280.618 402.034 280.589C401.835 280.556 401.624 280.54 401.401 280.54C400.871 280.54 400.398 280.651 399.981 280.874C399.569 281.091 399.242 281.394 399.001 281.783C398.764 282.166 398.646 282.604 398.646 283.097V290H396.97ZM414.78 279.091V280.511H409.127V279.091H414.78ZM410.775 276.477H412.451V286.875C412.451 287.348 412.519 287.704 412.657 287.94C412.799 288.172 412.979 288.329 413.197 288.409C413.419 288.485 413.653 288.523 413.9 288.523C414.084 288.523 414.236 288.513 414.354 288.494C414.473 288.471 414.567 288.452 414.638 288.438L414.979 289.943C414.866 289.986 414.707 290.028 414.503 290.071C414.3 290.118 414.042 290.142 413.729 290.142C413.256 290.142 412.792 290.04 412.337 289.837C411.887 289.633 411.513 289.323 411.215 288.906C410.921 288.49 410.775 287.964 410.775 287.33V276.477ZM419.212 283.438V290H417.536V275.455H419.212V280.795H419.354C419.61 280.232 419.993 279.785 420.505 279.453C421.021 279.117 421.707 278.949 422.564 278.949C423.308 278.949 423.959 279.098 424.518 279.396C425.076 279.69 425.51 280.142 425.817 280.753C426.13 281.359 426.286 282.131 426.286 283.068V290H424.61V283.182C424.61 282.315 424.385 281.645 423.935 281.172C423.49 280.694 422.872 280.455 422.081 280.455C421.532 280.455 421.04 280.571 420.604 280.803C420.173 281.035 419.832 281.373 419.581 281.818C419.335 282.263 419.212 282.803 419.212 283.438ZM429.352 290V279.091H431.029V290H429.352ZM430.205 277.273C429.878 277.273 429.596 277.161 429.36 276.939C429.128 276.716 429.012 276.449 429.012 276.136C429.012 275.824 429.128 275.556 429.36 275.334C429.596 275.111 429.878 275 430.205 275C430.531 275 430.811 275.111 431.043 275.334C431.28 275.556 431.398 275.824 431.398 276.136C431.398 276.449 431.28 276.716 431.043 276.939C430.811 277.161 430.531 277.273 430.205 277.273ZM441.826 281.534L440.32 281.96C440.225 281.709 440.086 281.465 439.901 281.229C439.721 280.987 439.475 280.788 439.162 280.632C438.85 280.476 438.45 280.398 437.962 280.398C437.295 280.398 436.738 280.552 436.293 280.859C435.853 281.162 435.633 281.548 435.633 282.017C435.633 282.434 435.784 282.763 436.087 283.004C436.39 283.246 436.864 283.447 437.508 283.608L439.127 284.006C440.102 284.242 440.829 284.605 441.307 285.092C441.786 285.575 442.025 286.198 442.025 286.96C442.025 287.585 441.845 288.144 441.485 288.636C441.13 289.129 440.633 289.517 439.993 289.801C439.354 290.085 438.611 290.227 437.763 290.227C436.651 290.227 435.73 289.986 435.001 289.503C434.271 289.02 433.81 288.314 433.616 287.386L435.206 286.989C435.358 287.576 435.644 288.016 436.066 288.31C436.492 288.603 437.048 288.75 437.735 288.75C438.516 288.75 439.136 288.584 439.596 288.253C440.06 287.917 440.292 287.514 440.292 287.045C440.292 286.667 440.159 286.349 439.894 286.094C439.629 285.833 439.222 285.639 438.672 285.511L436.854 285.085C435.855 284.848 435.121 284.482 434.653 283.984C434.189 283.482 433.956 282.855 433.956 282.102C433.956 281.487 434.129 280.942 434.475 280.469C434.825 279.995 435.301 279.624 435.903 279.354C436.509 279.084 437.195 278.949 437.962 278.949C439.042 278.949 439.889 279.186 440.505 279.659C441.125 280.133 441.565 280.758 441.826 281.534ZM450.173 290V279.091H451.849V290H450.173ZM451.025 277.273C450.698 277.273 450.417 277.161 450.18 276.939C449.948 276.716 449.832 276.449 449.832 276.136C449.832 275.824 449.948 275.556 450.18 275.334C450.417 275.111 450.698 275 451.025 275C451.352 275 451.631 275.111 451.863 275.334C452.1 275.556 452.218 275.824 452.218 276.136C452.218 276.449 452.1 276.716 451.863 276.939C451.631 277.161 451.352 277.273 451.025 277.273ZM459.663 279.091V280.511H454.01V279.091H459.663ZM455.657 276.477H457.334V286.875C457.334 287.348 457.402 287.704 457.54 287.94C457.682 288.172 457.862 288.329 458.079 288.409C458.302 288.485 458.536 288.523 458.782 288.523C458.967 288.523 459.119 288.513 459.237 288.494C459.355 288.471 459.45 288.452 459.521 288.438L459.862 289.943C459.748 289.986 459.59 290.028 459.386 290.071C459.183 290.118 458.925 290.142 458.612 290.142C458.139 290.142 457.675 290.04 457.22 289.837C456.77 289.633 456.396 289.323 456.098 288.906C455.804 288.49 455.657 287.964 455.657 287.33V276.477ZM464.228 275.455V276.733C464.228 277.121 464.157 277.536 464.015 277.976C463.878 278.411 463.674 278.835 463.404 279.247C463.139 279.654 462.817 280.009 462.438 280.312L461.529 279.574C461.828 279.148 462.086 278.705 462.303 278.246C462.526 277.782 462.637 277.287 462.637 276.761V275.455H464.228ZM468.118 275.455V290H466.442V275.455H468.118ZM472.865 275.455V290H471.188V275.455H472.865ZM481.787 290V275.455H483.463V280.824H483.605C483.728 280.634 483.898 280.393 484.116 280.099C484.339 279.801 484.656 279.536 485.068 279.304C485.485 279.067 486.048 278.949 486.758 278.949C487.677 278.949 488.487 279.179 489.187 279.638C489.888 280.097 490.435 280.748 490.828 281.591C491.221 282.434 491.417 283.428 491.417 284.574C491.417 285.729 491.221 286.731 490.828 287.578C490.435 288.421 489.89 289.074 489.194 289.538C488.498 289.998 487.696 290.227 486.787 290.227C486.086 290.227 485.525 290.111 485.104 289.879C484.682 289.643 484.358 289.375 484.131 289.077C483.903 288.774 483.728 288.523 483.605 288.324H483.406V290H481.787ZM483.434 284.545C483.434 285.369 483.555 286.096 483.797 286.726C484.038 287.351 484.391 287.841 484.855 288.196C485.319 288.546 485.887 288.722 486.559 288.722C487.26 288.722 487.845 288.537 488.314 288.168C488.787 287.794 489.142 287.292 489.379 286.662C489.621 286.027 489.741 285.322 489.741 284.545C489.741 283.778 489.623 283.087 489.386 282.472C489.154 281.851 488.801 281.361 488.328 281.001C487.859 280.637 487.27 280.455 486.559 280.455C485.878 280.455 485.305 280.627 484.841 280.973C484.377 281.314 484.026 281.792 483.79 282.408C483.553 283.018 483.434 283.731 483.434 284.545ZM498.555 290.227C497.504 290.227 496.597 289.995 495.835 289.531C495.077 289.062 494.493 288.409 494.081 287.571C493.674 286.728 493.47 285.748 493.47 284.631C493.47 283.513 493.674 282.528 494.081 281.676C494.493 280.819 495.066 280.152 495.8 279.673C496.538 279.19 497.4 278.949 498.385 278.949C498.953 278.949 499.514 279.044 500.068 279.233C500.622 279.422 501.126 279.73 501.581 280.156C502.035 280.578 502.398 281.136 502.667 281.832C502.937 282.528 503.072 283.385 503.072 284.403V285.114H494.663V283.665H501.368C501.368 283.049 501.245 282.5 500.998 282.017C500.757 281.534 500.411 281.153 499.961 280.874C499.516 280.594 498.991 280.455 498.385 280.455C497.717 280.455 497.14 280.62 496.652 280.952C496.169 281.278 495.797 281.705 495.537 282.23C495.276 282.756 495.146 283.319 495.146 283.92V284.886C495.146 285.71 495.288 286.409 495.572 286.982C495.861 287.55 496.261 287.983 496.773 288.281C497.284 288.575 497.878 288.722 498.555 288.722C498.996 288.722 499.393 288.66 499.748 288.537C500.108 288.409 500.418 288.22 500.679 287.969C500.939 287.713 501.14 287.396 501.282 287.017L502.902 287.472C502.731 288.021 502.445 288.504 502.042 288.92C501.64 289.332 501.143 289.654 500.551 289.886C499.959 290.114 499.294 290.227 498.555 290.227ZM514.457 290.256C513.766 290.256 513.139 290.125 512.575 289.865C512.012 289.6 511.564 289.219 511.233 288.722C510.901 288.22 510.736 287.614 510.736 286.903C510.736 286.278 510.859 285.772 511.105 285.384C511.351 284.991 511.68 284.683 512.092 284.46C512.504 284.238 512.959 284.072 513.456 283.963C513.958 283.849 514.462 283.759 514.969 283.693C515.631 283.608 516.169 283.544 516.581 283.501C516.997 283.454 517.3 283.376 517.49 283.267C517.684 283.158 517.781 282.969 517.781 282.699V282.642C517.781 281.941 517.589 281.397 517.206 281.009C516.827 280.62 516.252 280.426 515.48 280.426C514.68 280.426 514.052 280.601 513.598 280.952C513.143 281.302 512.824 281.676 512.639 282.074L511.048 281.506C511.332 280.843 511.711 280.327 512.184 279.957C512.663 279.583 513.184 279.323 513.747 279.176C514.315 279.025 514.874 278.949 515.423 278.949C515.773 278.949 516.176 278.991 516.631 279.077C517.09 279.157 517.532 279.325 517.959 279.581C518.39 279.837 518.747 280.223 519.031 280.739C519.315 281.255 519.457 281.946 519.457 282.812V290H517.781V288.523H517.696C517.582 288.759 517.393 289.013 517.128 289.283C516.863 289.553 516.51 289.782 516.069 289.972C515.629 290.161 515.092 290.256 514.457 290.256ZM514.713 288.75C515.376 288.75 515.934 288.62 516.389 288.359C516.848 288.099 517.194 287.763 517.426 287.351C517.663 286.939 517.781 286.506 517.781 286.051V284.517C517.71 284.602 517.554 284.68 517.312 284.751C517.076 284.818 516.801 284.877 516.488 284.929C516.181 284.976 515.88 285.019 515.586 285.057C515.298 285.09 515.063 285.118 514.883 285.142C514.448 285.199 514.041 285.291 513.662 285.419C513.288 285.542 512.985 285.729 512.753 285.98C512.525 286.226 512.412 286.562 512.412 286.989C512.412 287.571 512.627 288.011 513.058 288.31C513.494 288.603 514.045 288.75 514.713 288.75ZM532.573 290.227C531.551 290.227 530.67 289.986 529.931 289.503C529.193 289.02 528.624 288.355 528.227 287.507C527.829 286.66 527.63 285.691 527.63 284.602C527.63 283.494 527.834 282.517 528.241 281.669C528.653 280.817 529.226 280.152 529.96 279.673C530.698 279.19 531.56 278.949 532.545 278.949C533.312 278.949 534.003 279.091 534.619 279.375C535.234 279.659 535.739 280.057 536.132 280.568C536.525 281.08 536.768 281.676 536.863 282.358H535.187C535.059 281.861 534.775 281.42 534.335 281.037C533.899 280.649 533.312 280.455 532.573 280.455C531.92 280.455 531.347 280.625 530.855 280.966C530.367 281.302 529.986 281.778 529.711 282.393C529.441 283.004 529.306 283.722 529.306 284.545C529.306 285.388 529.439 286.122 529.704 286.747C529.974 287.372 530.353 287.857 530.84 288.203C531.333 288.549 531.91 288.722 532.573 288.722C533.009 288.722 533.404 288.646 533.759 288.494C534.115 288.343 534.415 288.125 534.661 287.841C534.908 287.557 535.083 287.216 535.187 286.818H536.863C536.768 287.462 536.534 288.042 536.16 288.558C535.791 289.07 535.301 289.477 534.69 289.78C534.084 290.078 533.378 290.227 532.573 290.227ZM539.313 290V279.091H540.99V290H539.313ZM540.166 277.273C539.839 277.273 539.557 277.161 539.32 276.939C539.088 276.716 538.972 276.449 538.972 276.136C538.972 275.824 539.088 275.556 539.32 275.334C539.557 275.111 539.839 275 540.166 275C540.492 275 540.772 275.111 541.004 275.334C541.24 275.556 541.359 275.824 541.359 276.136C541.359 276.449 541.24 276.716 541.004 276.939C540.772 277.161 540.492 277.273 540.166 277.273ZM544.059 290V279.091H545.679V280.739H545.792C545.991 280.199 546.351 279.761 546.872 279.425C547.393 279.089 547.98 278.92 548.633 278.92C548.756 278.92 548.91 278.923 549.095 278.928C549.28 278.932 549.419 278.939 549.514 278.949V280.653C549.457 280.639 549.327 280.618 549.123 280.589C548.925 280.556 548.714 280.54 548.491 280.54C547.961 280.54 547.488 280.651 547.071 280.874C546.659 281.091 546.332 281.394 546.091 281.783C545.854 282.166 545.736 282.604 545.736 283.097V290H544.059ZM555.601 290.227C554.578 290.227 553.697 289.986 552.959 289.503C552.22 289.02 551.652 288.355 551.254 287.507C550.856 286.66 550.657 285.691 550.657 284.602C550.657 283.494 550.861 282.517 551.268 281.669C551.68 280.817 552.253 280.152 552.987 279.673C553.726 279.19 554.587 278.949 555.572 278.949C556.339 278.949 557.031 279.091 557.646 279.375C558.262 279.659 558.766 280.057 559.159 280.568C559.552 281.08 559.796 281.676 559.89 282.358H558.214C558.086 281.861 557.802 281.42 557.362 281.037C556.926 280.649 556.339 280.455 555.601 280.455C554.947 280.455 554.374 280.625 553.882 280.966C553.394 281.302 553.013 281.778 552.738 282.393C552.469 283.004 552.334 283.722 552.334 284.545C552.334 285.388 552.466 286.122 552.731 286.747C553.001 287.372 553.38 287.857 553.868 288.203C554.36 288.549 554.938 288.722 555.601 288.722C556.036 288.722 556.432 288.646 556.787 288.494C557.142 288.343 557.443 288.125 557.689 287.841C557.935 287.557 558.11 287.216 558.214 286.818H559.89C559.796 287.462 559.561 288.042 559.187 288.558C558.818 289.07 558.328 289.477 557.717 289.78C557.111 290.078 556.406 290.227 555.601 290.227ZM564.017 275.455V290H562.341V275.455H564.017ZM571.661 290.227C570.61 290.227 569.703 289.995 568.941 289.531C568.183 289.062 567.598 288.409 567.186 287.571C566.779 286.728 566.575 285.748 566.575 284.631C566.575 283.513 566.779 282.528 567.186 281.676C567.598 280.819 568.171 280.152 568.905 279.673C569.644 279.19 570.505 278.949 571.49 278.949C572.058 278.949 572.619 279.044 573.173 279.233C573.727 279.422 574.232 279.73 574.686 280.156C575.141 280.578 575.503 281.136 575.773 281.832C576.043 282.528 576.178 283.385 576.178 284.403V285.114H567.769V283.665H574.473C574.473 283.049 574.35 282.5 574.104 282.017C573.862 281.534 573.517 281.153 573.067 280.874C572.622 280.594 572.096 280.455 571.49 280.455C570.823 280.455 570.245 280.62 569.757 280.952C569.274 281.278 568.903 281.705 568.642 282.23C568.382 282.756 568.252 283.319 568.252 283.92V284.886C568.252 285.71 568.394 286.409 568.678 286.982C568.967 287.55 569.367 287.983 569.878 288.281C570.389 288.575 570.984 288.722 571.661 288.722C572.101 288.722 572.499 288.66 572.854 288.537C573.214 288.409 573.524 288.22 573.784 287.969C574.045 287.713 574.246 287.396 574.388 287.017L576.007 287.472C575.837 288.021 575.55 288.504 575.148 288.92C574.745 289.332 574.248 289.654 573.656 289.886C573.065 290.114 572.399 290.227 571.661 290.227ZM579.949 290.114C579.599 290.114 579.298 289.988 579.047 289.737C578.796 289.486 578.671 289.186 578.671 288.835C578.671 288.485 578.796 288.184 579.047 287.933C579.298 287.682 579.599 287.557 579.949 287.557C580.299 287.557 580.6 287.682 580.851 287.933C581.102 288.184 581.227 288.485 581.227 288.835C581.227 289.067 581.168 289.28 581.05 289.474C580.936 289.669 580.782 289.825 580.588 289.943C580.399 290.057 580.186 290.114 579.949 290.114ZM200.999 299.455V314H199.238V299.455H200.999ZM209.048 303.091V304.511H203.395V303.091H209.048ZM205.042 300.477H206.718V310.875C206.718 311.348 206.787 311.704 206.924 311.94C207.066 312.172 207.246 312.329 207.464 312.409C207.687 312.485 207.921 312.523 208.167 312.523C208.352 312.523 208.503 312.513 208.622 312.494C208.74 312.471 208.835 312.452 208.906 312.438L209.247 313.943C209.133 313.986 208.975 314.028 208.771 314.071C208.567 314.118 208.309 314.142 207.997 314.142C207.523 314.142 207.059 314.04 206.605 313.837C206.155 313.633 205.781 313.323 205.483 312.906C205.189 312.49 205.042 311.964 205.042 311.33V300.477ZM221.626 314.227C220.603 314.227 219.723 313.986 218.984 313.503C218.245 313.02 217.677 312.355 217.279 311.507C216.882 310.66 216.683 309.691 216.683 308.602C216.683 307.494 216.886 306.517 217.294 305.669C217.706 304.817 218.279 304.152 219.012 303.673C219.751 303.19 220.613 302.949 221.598 302.949C222.365 302.949 223.056 303.091 223.672 303.375C224.287 303.659 224.791 304.057 225.184 304.568C225.577 305.08 225.821 305.676 225.916 306.358H224.24C224.112 305.861 223.828 305.42 223.387 305.037C222.952 304.649 222.365 304.455 221.626 304.455C220.973 304.455 220.4 304.625 219.907 304.966C219.42 305.302 219.038 305.778 218.764 306.393C218.494 307.004 218.359 307.722 218.359 308.545C218.359 309.388 218.492 310.122 218.757 310.747C219.027 311.372 219.405 311.857 219.893 312.203C220.386 312.549 220.963 312.722 221.626 312.722C222.062 312.722 222.457 312.646 222.812 312.494C223.167 312.343 223.468 312.125 223.714 311.841C223.96 311.557 224.136 311.216 224.24 310.818H225.916C225.821 311.462 225.587 312.042 225.213 312.558C224.843 313.07 224.353 313.477 223.743 313.78C223.136 314.078 222.431 314.227 221.626 314.227ZM231.576 314.256C230.885 314.256 230.258 314.125 229.694 313.865C229.131 313.6 228.683 313.219 228.352 312.722C228.02 312.22 227.855 311.614 227.855 310.903C227.855 310.278 227.978 309.772 228.224 309.384C228.47 308.991 228.799 308.683 229.211 308.46C229.623 308.238 230.078 308.072 230.575 307.963C231.077 307.849 231.581 307.759 232.088 307.693C232.751 307.608 233.288 307.544 233.7 307.501C234.117 307.454 234.42 307.376 234.609 307.267C234.803 307.158 234.9 306.969 234.9 306.699V306.642C234.9 305.941 234.708 305.397 234.325 305.009C233.946 304.62 233.371 304.426 232.599 304.426C231.799 304.426 231.172 304.601 230.717 304.952C230.262 305.302 229.943 305.676 229.758 306.074L228.167 305.506C228.451 304.843 228.83 304.327 229.304 303.957C229.782 303.583 230.303 303.323 230.866 303.176C231.434 303.025 231.993 302.949 232.542 302.949C232.893 302.949 233.295 302.991 233.75 303.077C234.209 303.157 234.652 303.325 235.078 303.581C235.509 303.837 235.866 304.223 236.15 304.739C236.434 305.255 236.576 305.946 236.576 306.812V314H234.9V312.523H234.815C234.701 312.759 234.512 313.013 234.247 313.283C233.982 313.553 233.629 313.782 233.189 313.972C232.748 314.161 232.211 314.256 231.576 314.256ZM231.832 312.75C232.495 312.75 233.054 312.62 233.508 312.359C233.967 312.099 234.313 311.763 234.545 311.351C234.782 310.939 234.9 310.506 234.9 310.051V308.517C234.829 308.602 234.673 308.68 234.431 308.751C234.195 308.818 233.92 308.877 233.608 308.929C233.3 308.976 232.999 309.019 232.706 309.057C232.417 309.09 232.182 309.118 232.002 309.142C231.567 309.199 231.16 309.291 230.781 309.419C230.407 309.542 230.104 309.729 229.872 309.98C229.645 310.226 229.531 310.562 229.531 310.989C229.531 311.571 229.746 312.011 230.177 312.31C230.613 312.603 231.164 312.75 231.832 312.75ZM241.312 307.438V314H239.636V303.091H241.255V304.795H241.397C241.653 304.241 242.041 303.796 242.562 303.46C243.083 303.119 243.755 302.949 244.579 302.949C245.317 302.949 245.964 303.1 246.518 303.403C247.072 303.702 247.503 304.156 247.81 304.767C248.118 305.373 248.272 306.14 248.272 307.068V314H246.596V307.182C246.596 306.325 246.373 305.657 245.928 305.179C245.483 304.696 244.872 304.455 244.096 304.455C243.561 304.455 243.083 304.571 242.661 304.803C242.245 305.035 241.915 305.373 241.674 305.818C241.433 306.263 241.312 306.803 241.312 307.438ZM257.187 314V299.455H258.863V304.824H259.005C259.128 304.634 259.299 304.393 259.517 304.099C259.739 303.801 260.056 303.536 260.468 303.304C260.885 303.067 261.449 302.949 262.159 302.949C263.077 302.949 263.887 303.179 264.588 303.638C265.288 304.097 265.835 304.748 266.228 305.591C266.621 306.434 266.818 307.428 266.818 308.574C266.818 309.729 266.621 310.731 266.228 311.578C265.835 312.421 265.291 313.074 264.595 313.538C263.899 313.998 263.096 314.227 262.187 314.227C261.486 314.227 260.925 314.111 260.504 313.879C260.083 313.643 259.758 313.375 259.531 313.077C259.304 312.774 259.128 312.523 259.005 312.324H258.806V314H257.187ZM258.835 308.545C258.835 309.369 258.956 310.096 259.197 310.726C259.439 311.351 259.791 311.841 260.255 312.196C260.719 312.546 261.288 312.722 261.96 312.722C262.661 312.722 263.245 312.537 263.714 312.168C264.188 311.794 264.543 311.292 264.779 310.662C265.021 310.027 265.142 309.322 265.142 308.545C265.142 307.778 265.023 307.087 264.787 306.472C264.555 305.851 264.202 305.361 263.728 305.001C263.26 304.637 262.67 304.455 261.96 304.455C261.278 304.455 260.705 304.627 260.241 304.973C259.777 305.314 259.427 305.792 259.19 306.408C258.953 307.018 258.835 307.731 258.835 308.545ZM273.956 314.227C272.904 314.227 271.998 313.995 271.235 313.531C270.478 313.062 269.893 312.409 269.481 311.571C269.074 310.728 268.87 309.748 268.87 308.631C268.87 307.513 269.074 306.528 269.481 305.676C269.893 304.819 270.466 304.152 271.2 303.673C271.939 303.19 272.8 302.949 273.785 302.949C274.353 302.949 274.914 303.044 275.468 303.233C276.022 303.422 276.527 303.73 276.981 304.156C277.436 304.578 277.798 305.136 278.068 305.832C278.338 306.528 278.473 307.385 278.473 308.403V309.114H270.064V307.665H276.768C276.768 307.049 276.645 306.5 276.399 306.017C276.157 305.534 275.812 305.153 275.362 304.874C274.917 304.594 274.391 304.455 273.785 304.455C273.118 304.455 272.54 304.62 272.052 304.952C271.569 305.278 271.198 305.705 270.937 306.23C270.677 306.756 270.547 307.319 270.547 307.92V308.886C270.547 309.71 270.689 310.409 270.973 310.982C271.261 311.55 271.662 311.983 272.173 312.281C272.684 312.575 273.279 312.722 273.956 312.722C274.396 312.722 274.794 312.66 275.149 312.537C275.509 312.409 275.819 312.22 276.079 311.969C276.34 311.713 276.541 311.396 276.683 311.017L278.302 311.472C278.132 312.021 277.845 312.504 277.443 312.92C277.04 313.332 276.543 313.654 275.951 313.886C275.359 314.114 274.694 314.227 273.956 314.227ZM289.858 314.256C289.166 314.256 288.539 314.125 287.975 313.865C287.412 313.6 286.965 313.219 286.633 312.722C286.302 312.22 286.136 311.614 286.136 310.903C286.136 310.278 286.259 309.772 286.505 309.384C286.752 308.991 287.081 308.683 287.493 308.46C287.904 308.238 288.359 308.072 288.856 307.963C289.358 307.849 289.862 307.759 290.369 307.693C291.032 307.608 291.569 307.544 291.981 307.501C292.398 307.454 292.701 307.376 292.89 307.267C293.084 307.158 293.181 306.969 293.181 306.699V306.642C293.181 305.941 292.99 305.397 292.606 305.009C292.227 304.62 291.652 304.426 290.88 304.426C290.08 304.426 289.453 304.601 288.998 304.952C288.544 305.302 288.224 305.676 288.039 306.074L286.449 305.506C286.733 304.843 287.111 304.327 287.585 303.957C288.063 303.583 288.584 303.323 289.147 303.176C289.716 303.025 290.274 302.949 290.824 302.949C291.174 302.949 291.576 302.991 292.031 303.077C292.49 303.157 292.933 303.325 293.359 303.581C293.79 303.837 294.147 304.223 294.431 304.739C294.716 305.255 294.858 305.946 294.858 306.812V314H293.181V312.523H293.096C292.983 312.759 292.793 313.013 292.528 313.283C292.263 313.553 291.91 313.782 291.47 313.972C291.029 314.161 290.492 314.256 289.858 314.256ZM290.113 312.75C290.776 312.75 291.335 312.62 291.789 312.359C292.249 312.099 292.594 311.763 292.826 311.351C293.063 310.939 293.181 310.506 293.181 310.051V308.517C293.11 308.602 292.954 308.68 292.713 308.751C292.476 308.818 292.201 308.877 291.889 308.929C291.581 308.976 291.28 309.019 290.987 309.057C290.698 309.09 290.464 309.118 290.284 309.142C289.848 309.199 289.441 309.291 289.062 309.419C288.688 309.542 288.385 309.729 288.153 309.98C287.926 310.226 287.812 310.562 287.812 310.989C287.812 311.571 288.028 312.011 288.458 312.31C288.894 312.603 289.446 312.75 290.113 312.75ZM299.593 307.438V314H297.917V303.091H299.536V304.795H299.678C299.934 304.241 300.322 303.796 300.843 303.46C301.364 303.119 302.036 302.949 302.86 302.949C303.599 302.949 304.245 303.1 304.799 303.403C305.353 303.702 305.784 304.156 306.092 304.767C306.399 305.373 306.553 306.14 306.553 307.068V314H304.877V307.182C304.877 306.325 304.655 305.657 304.21 305.179C303.764 304.696 303.154 304.455 302.377 304.455C301.842 304.455 301.364 304.571 300.942 304.803C300.526 305.035 300.197 305.373 299.955 305.818C299.714 306.263 299.593 306.803 299.593 307.438ZM310.305 318.091C310.021 318.091 309.768 318.067 309.545 318.02C309.323 317.977 309.169 317.935 309.083 317.892L309.51 316.415C309.917 316.519 310.277 316.557 310.589 316.528C310.902 316.5 311.179 316.36 311.42 316.109C311.666 315.863 311.891 315.463 312.095 314.909L312.407 314.057L308.373 303.091H310.191L313.203 311.784H313.316L316.328 303.091H318.146L313.515 315.591C313.307 316.154 313.049 316.621 312.741 316.99C312.433 317.364 312.076 317.641 311.669 317.821C311.266 318.001 310.812 318.091 310.305 318.091ZM333.711 305.534L332.205 305.96C332.11 305.709 331.971 305.465 331.786 305.229C331.606 304.987 331.36 304.788 331.047 304.632C330.735 304.476 330.335 304.398 329.847 304.398C329.179 304.398 328.623 304.552 328.178 304.859C327.738 305.162 327.517 305.548 327.517 306.017C327.517 306.434 327.669 306.763 327.972 307.004C328.275 307.246 328.748 307.447 329.392 307.608L331.012 308.006C331.987 308.242 332.714 308.605 333.192 309.092C333.67 309.575 333.909 310.198 333.909 310.96C333.909 311.585 333.73 312.144 333.37 312.636C333.015 313.129 332.517 313.517 331.878 313.801C331.239 314.085 330.496 314.227 329.648 314.227C328.535 314.227 327.614 313.986 326.885 313.503C326.156 313.02 325.694 312.314 325.5 311.386L327.091 310.989C327.243 311.576 327.529 312.016 327.951 312.31C328.377 312.603 328.933 312.75 329.62 312.75C330.401 312.75 331.021 312.584 331.48 312.253C331.944 311.917 332.176 311.514 332.176 311.045C332.176 310.667 332.044 310.349 331.779 310.094C331.514 309.833 331.106 309.639 330.557 309.511L328.739 309.085C327.74 308.848 327.006 308.482 326.537 307.984C326.073 307.482 325.841 306.855 325.841 306.102C325.841 305.487 326.014 304.942 326.36 304.469C326.71 303.995 327.186 303.624 327.787 303.354C328.393 303.084 329.08 302.949 329.847 302.949C330.926 302.949 331.774 303.186 332.39 303.659C333.01 304.133 333.45 304.758 333.711 305.534ZM338.109 307.438V314H336.433V299.455H338.109V304.795H338.251C338.506 304.232 338.89 303.785 339.401 303.453C339.917 303.117 340.604 302.949 341.461 302.949C342.204 302.949 342.855 303.098 343.414 303.396C343.973 303.69 344.406 304.142 344.714 304.753C345.026 305.359 345.183 306.131 345.183 307.068V314H343.506V307.182C343.506 306.315 343.281 305.645 342.832 305.172C342.387 304.694 341.769 304.455 340.978 304.455C340.429 304.455 339.936 304.571 339.501 304.803C339.07 305.035 338.729 305.373 338.478 305.818C338.232 306.263 338.109 306.803 338.109 307.438ZM351.459 314.256C350.768 314.256 350.141 314.125 349.577 313.865C349.014 313.6 348.566 313.219 348.235 312.722C347.903 312.22 347.738 311.614 347.738 310.903C347.738 310.278 347.861 309.772 348.107 309.384C348.353 308.991 348.682 308.683 349.094 308.46C349.506 308.238 349.961 308.072 350.458 307.963C350.96 307.849 351.464 307.759 351.971 307.693C352.633 307.608 353.171 307.544 353.583 307.501C353.999 307.454 354.302 307.376 354.492 307.267C354.686 307.158 354.783 306.969 354.783 306.699V306.642C354.783 305.941 354.591 305.397 354.208 305.009C353.829 304.62 353.254 304.426 352.482 304.426C351.682 304.426 351.054 304.601 350.6 304.952C350.145 305.302 349.826 305.676 349.641 306.074L348.05 305.506C348.334 304.843 348.713 304.327 349.186 303.957C349.665 303.583 350.185 303.323 350.749 303.176C351.317 303.025 351.876 302.949 352.425 302.949C352.775 302.949 353.178 302.991 353.632 303.077C354.092 303.157 354.534 303.325 354.961 303.581C355.391 303.837 355.749 304.223 356.033 304.739C356.317 305.255 356.459 305.946 356.459 306.812V314H354.783V312.523H354.698C354.584 312.759 354.395 313.013 354.13 313.283C353.864 313.553 353.512 313.782 353.071 313.972C352.631 314.161 352.094 314.256 351.459 314.256ZM351.715 312.75C352.378 312.75 352.936 312.62 353.391 312.359C353.85 312.099 354.196 311.763 354.428 311.351C354.665 310.939 354.783 310.506 354.783 310.051V308.517C354.712 308.602 354.556 308.68 354.314 308.751C354.078 308.818 353.803 308.877 353.49 308.929C353.183 308.976 352.882 309.019 352.588 309.057C352.3 309.09 352.065 309.118 351.885 309.142C351.45 309.199 351.042 309.291 350.664 309.419C350.29 309.542 349.987 309.729 349.755 309.98C349.527 310.226 349.414 310.562 349.414 310.989C349.414 311.571 349.629 312.011 350.06 312.31C350.496 312.603 351.047 312.75 351.715 312.75ZM359.518 318.091V303.091H361.138V304.824H361.337C361.46 304.634 361.63 304.393 361.848 304.099C362.071 303.801 362.388 303.536 362.8 303.304C363.216 303.067 363.78 302.949 364.49 302.949C365.409 302.949 366.218 303.179 366.919 303.638C367.62 304.097 368.167 304.748 368.56 305.591C368.953 306.434 369.149 307.428 369.149 308.574C369.149 309.729 368.953 310.731 368.56 311.578C368.167 312.421 367.622 313.074 366.926 313.538C366.23 313.998 365.428 314.227 364.518 314.227C363.818 314.227 363.257 314.111 362.835 313.879C362.414 313.643 362.089 313.375 361.862 313.077C361.635 312.774 361.46 312.523 361.337 312.324H361.195V318.091H359.518ZM361.166 308.545C361.166 309.369 361.287 310.096 361.528 310.726C361.77 311.351 362.123 311.841 362.587 312.196C363.051 312.546 363.619 312.722 364.291 312.722C364.992 312.722 365.577 312.537 366.045 312.168C366.519 311.794 366.874 311.292 367.111 310.662C367.352 310.027 367.473 309.322 367.473 308.545C367.473 307.778 367.355 307.087 367.118 306.472C366.886 305.851 366.533 305.361 366.06 305.001C365.591 304.637 365.001 304.455 364.291 304.455C363.609 304.455 363.036 304.627 362.572 304.973C362.108 305.314 361.758 305.792 361.521 306.408C361.285 307.018 361.166 307.731 361.166 308.545ZM376.28 314.227C375.229 314.227 374.322 313.995 373.56 313.531C372.802 313.062 372.217 312.409 371.805 311.571C371.398 310.728 371.195 309.748 371.195 308.631C371.195 307.513 371.398 306.528 371.805 305.676C372.217 304.819 372.79 304.152 373.524 303.673C374.263 303.19 375.125 302.949 376.109 302.949C376.678 302.949 377.239 303.044 377.793 303.233C378.347 303.422 378.851 303.73 379.305 304.156C379.76 304.578 380.122 305.136 380.392 305.832C380.662 306.528 380.797 307.385 380.797 308.403V309.114H372.388V307.665H379.092C379.092 307.049 378.969 306.5 378.723 306.017C378.482 305.534 378.136 305.153 377.686 304.874C377.241 304.594 376.715 304.455 376.109 304.455C375.442 304.455 374.864 304.62 374.376 304.952C373.893 305.278 373.522 305.705 373.261 306.23C373.001 306.756 372.871 307.319 372.871 307.92V308.886C372.871 309.71 373.013 310.409 373.297 310.982C373.586 311.55 373.986 311.983 374.497 312.281C375.009 312.575 375.603 312.722 376.28 312.722C376.72 312.722 377.118 312.66 377.473 312.537C377.833 312.409 378.143 312.22 378.403 311.969C378.664 311.713 378.865 311.396 379.007 311.017L380.626 311.472C380.456 312.021 380.17 312.504 379.767 312.92C379.365 313.332 378.867 313.654 378.276 313.886C377.684 314.114 377.018 314.227 376.28 314.227ZM385.847 312.011L385.733 312.778C385.652 313.318 385.529 313.896 385.364 314.511C385.203 315.127 385.035 315.707 384.859 316.251C384.684 316.796 384.54 317.229 384.426 317.551H383.148C383.209 317.248 383.29 316.848 383.389 316.351C383.489 315.854 383.588 315.297 383.688 314.682C383.792 314.071 383.877 313.446 383.943 312.807L384.028 312.011H385.847ZM402.304 305.534L400.799 305.96C400.704 305.709 400.564 305.465 400.38 305.229C400.2 304.987 399.953 304.788 399.641 304.632C399.328 304.476 398.928 304.398 398.441 304.398C397.773 304.398 397.217 304.552 396.772 304.859C396.331 305.162 396.111 305.548 396.111 306.017C396.111 306.434 396.263 306.763 396.566 307.004C396.869 307.246 397.342 307.447 397.986 307.608L399.605 308.006C400.581 308.242 401.308 308.605 401.786 309.092C402.264 309.575 402.503 310.198 402.503 310.96C402.503 311.585 402.323 312.144 401.963 312.636C401.608 313.129 401.111 313.517 400.472 313.801C399.833 314.085 399.089 314.227 398.242 314.227C397.129 314.227 396.208 313.986 395.479 313.503C394.75 313.02 394.288 312.314 394.094 311.386L395.685 310.989C395.837 311.576 396.123 312.016 396.544 312.31C396.971 312.603 397.527 312.75 398.213 312.75C398.995 312.75 399.615 312.584 400.074 312.253C400.538 311.917 400.77 311.514 400.77 311.045C400.77 310.667 400.638 310.349 400.373 310.094C400.107 309.833 399.7 309.639 399.151 309.511L397.333 309.085C396.334 308.848 395.6 308.482 395.131 307.984C394.667 307.482 394.435 306.855 394.435 306.102C394.435 305.487 394.608 304.942 394.953 304.469C395.304 303.995 395.78 303.624 396.381 303.354C396.987 303.084 397.674 302.949 398.441 302.949C399.52 302.949 400.368 303.186 400.983 303.659C401.604 304.133 402.044 304.758 402.304 305.534ZM405.026 314V303.091H406.702V314H405.026ZM405.879 301.273C405.552 301.273 405.27 301.161 405.033 300.939C404.801 300.716 404.685 300.449 404.685 300.136C404.685 299.824 404.801 299.556 405.033 299.334C405.27 299.111 405.552 299 405.879 299C406.205 299 406.485 299.111 406.717 299.334C406.953 299.556 407.072 299.824 407.072 300.136C407.072 300.449 406.953 300.716 406.717 300.939C406.485 301.161 406.205 301.273 405.879 301.273ZM409.46 314V312.722L415.653 304.767V304.653H409.659V303.091H417.812V304.426L411.789 312.324V312.438H418.011V314H409.46ZM424.854 314.227C423.803 314.227 422.896 313.995 422.134 313.531C421.376 313.062 420.792 312.409 420.38 311.571C419.972 310.728 419.769 309.748 419.769 308.631C419.769 307.513 419.972 306.528 420.38 305.676C420.792 304.819 421.364 304.152 422.098 303.673C422.837 303.19 423.699 302.949 424.684 302.949C425.252 302.949 425.813 303.044 426.367 303.233C426.921 303.422 427.425 303.73 427.88 304.156C428.334 304.578 428.696 305.136 428.966 305.832C429.236 306.528 429.371 307.385 429.371 308.403V309.114H420.962V307.665H427.667C427.667 307.049 427.543 306.5 427.297 306.017C427.056 305.534 426.71 305.153 426.26 304.874C425.815 304.594 425.29 304.455 424.684 304.455C424.016 304.455 423.438 304.62 422.951 304.952C422.468 305.278 422.096 305.705 421.836 306.23C421.575 306.756 421.445 307.319 421.445 307.92V308.886C421.445 309.71 421.587 310.409 421.871 310.982C422.16 311.55 422.56 311.983 423.071 312.281C423.583 312.575 424.177 312.722 424.854 312.722C425.294 312.722 425.692 312.66 426.047 312.537C426.407 312.409 426.717 312.22 426.978 311.969C427.238 311.713 427.439 311.396 427.581 311.017L429.201 311.472C429.03 312.021 428.744 312.504 428.341 312.92C427.939 313.332 427.442 313.654 426.85 313.886C426.258 314.114 425.593 314.227 424.854 314.227ZM441.978 314.227C440.993 314.227 440.129 313.993 439.385 313.524C438.647 313.055 438.069 312.4 437.652 311.557C437.24 310.714 437.034 309.729 437.034 308.602C437.034 307.466 437.24 306.474 437.652 305.626C438.069 304.779 438.647 304.121 439.385 303.652C440.129 303.183 440.993 302.949 441.978 302.949C442.962 302.949 443.824 303.183 444.563 303.652C445.306 304.121 445.884 304.779 446.296 305.626C446.712 306.474 446.921 307.466 446.921 308.602C446.921 309.729 446.712 310.714 446.296 311.557C445.884 312.4 445.306 313.055 444.563 313.524C443.824 313.993 442.962 314.227 441.978 314.227ZM441.978 312.722C442.726 312.722 443.341 312.53 443.824 312.146C444.307 311.763 444.665 311.259 444.897 310.634C445.129 310.009 445.245 309.331 445.245 308.602C445.245 307.873 445.129 307.194 444.897 306.564C444.665 305.934 444.307 305.425 443.824 305.037C443.341 304.649 442.726 304.455 441.978 304.455C441.23 304.455 440.614 304.649 440.131 305.037C439.648 305.425 439.291 305.934 439.059 306.564C438.827 307.194 438.711 307.873 438.711 308.602C438.711 309.331 438.827 310.009 439.059 310.634C439.291 311.259 439.648 311.763 440.131 312.146C440.614 312.53 441.23 312.722 441.978 312.722ZM449.479 314V303.091H451.099V304.739H451.212C451.411 304.199 451.771 303.761 452.292 303.425C452.813 303.089 453.4 302.92 454.053 302.92C454.176 302.92 454.33 302.923 454.515 302.928C454.7 302.932 454.839 302.939 454.934 302.949V304.653C454.877 304.639 454.747 304.618 454.543 304.589C454.344 304.556 454.134 304.54 453.911 304.54C453.381 304.54 452.907 304.651 452.491 304.874C452.079 305.091 451.752 305.394 451.511 305.783C451.274 306.166 451.156 306.604 451.156 307.097V314H449.479ZM462.773 314V299.455H464.449V304.824H464.591C464.714 304.634 464.885 304.393 465.103 304.099C465.325 303.801 465.642 303.536 466.054 303.304C466.471 303.067 467.034 302.949 467.745 302.949C468.663 302.949 469.473 303.179 470.174 303.638C470.874 304.097 471.421 304.748 471.814 305.591C472.207 306.434 472.404 307.428 472.404 308.574C472.404 309.729 472.207 310.731 471.814 311.578C471.421 312.421 470.877 313.074 470.181 313.538C469.485 313.998 468.682 314.227 467.773 314.227C467.072 314.227 466.511 314.111 466.09 313.879C465.668 313.643 465.344 313.375 465.117 313.077C464.89 312.774 464.714 312.523 464.591 312.324H464.392V314H462.773ZM464.421 308.545C464.421 309.369 464.542 310.096 464.783 310.726C465.025 311.351 465.377 311.841 465.841 312.196C466.305 312.546 466.873 312.722 467.546 312.722C468.247 312.722 468.831 312.537 469.3 312.168C469.774 311.794 470.129 311.292 470.365 310.662C470.607 310.027 470.728 309.322 470.728 308.545C470.728 307.778 470.609 307.087 470.373 306.472C470.141 305.851 469.788 305.361 469.314 305.001C468.846 304.637 468.256 304.455 467.546 304.455C466.864 304.455 466.291 304.627 465.827 304.973C465.363 305.314 465.013 305.792 464.776 306.408C464.539 307.018 464.421 307.731 464.421 308.545ZM476.644 299.455V314H474.968V299.455H476.644ZM484.146 314.227C483.161 314.227 482.297 313.993 481.553 313.524C480.815 313.055 480.237 312.4 479.82 311.557C479.408 310.714 479.202 309.729 479.202 308.602C479.202 307.466 479.408 306.474 479.82 305.626C480.237 304.779 480.815 304.121 481.553 303.652C482.297 303.183 483.161 302.949 484.146 302.949C485.13 302.949 485.992 303.183 486.731 303.652C487.474 304.121 488.052 304.779 488.464 305.626C488.88 306.474 489.089 307.466 489.089 308.602C489.089 309.729 488.88 310.714 488.464 311.557C488.052 312.4 487.474 313.055 486.731 313.524C485.992 313.993 485.13 314.227 484.146 314.227ZM484.146 312.722C484.894 312.722 485.509 312.53 485.992 312.146C486.475 311.763 486.833 311.259 487.065 310.634C487.297 310.009 487.413 309.331 487.413 308.602C487.413 307.873 487.297 307.194 487.065 306.564C486.833 305.934 486.475 305.425 485.992 305.037C485.509 304.649 484.894 304.455 484.146 304.455C483.397 304.455 482.782 304.649 482.299 305.037C481.816 305.425 481.459 305.934 481.227 306.564C480.995 307.194 480.879 307.873 480.879 308.602C480.879 309.331 480.995 310.009 481.227 310.634C481.459 311.259 481.816 311.763 482.299 312.146C482.782 312.53 483.397 312.722 484.146 312.722ZM496.079 314.227C495.056 314.227 494.176 313.986 493.437 313.503C492.699 313.02 492.13 312.355 491.733 311.507C491.335 310.66 491.136 309.691 491.136 308.602C491.136 307.494 491.34 306.517 491.747 305.669C492.159 304.817 492.732 304.152 493.466 303.673C494.204 303.19 495.066 302.949 496.051 302.949C496.818 302.949 497.509 303.091 498.125 303.375C498.74 303.659 499.244 304.057 499.637 304.568C500.03 305.08 500.274 305.676 500.369 306.358H498.693C498.565 305.861 498.281 305.42 497.841 305.037C497.405 304.649 496.818 304.455 496.079 304.455C495.426 304.455 494.853 304.625 494.36 304.966C493.873 305.302 493.492 305.778 493.217 306.393C492.947 307.004 492.812 307.722 492.812 308.545C492.812 309.388 492.945 310.122 493.21 310.747C493.48 311.372 493.859 311.857 494.346 312.203C494.839 312.549 495.416 312.722 496.079 312.722C496.515 312.722 496.91 312.646 497.265 312.494C497.62 312.343 497.921 312.125 498.167 311.841C498.413 311.557 498.589 311.216 498.693 310.818H500.369C500.274 311.462 500.04 312.042 499.666 312.558C499.297 313.07 498.806 313.477 498.196 313.78C497.59 314.078 496.884 314.227 496.079 314.227ZM504.382 310.023L504.353 307.949H504.694L509.467 303.091H511.541L506.456 308.233H506.314L504.382 310.023ZM502.819 314V299.455H504.495V314H502.819ZM509.751 314L505.49 308.602L506.683 307.438L511.882 314H509.751ZM524.067 303.091V304.511H518.414V303.091H524.067ZM520.062 300.477H521.738V310.875C521.738 311.348 521.807 311.704 521.944 311.94C522.086 312.172 522.266 312.329 522.484 312.409C522.706 312.485 522.941 312.523 523.187 312.523C523.371 312.523 523.523 312.513 523.641 312.494C523.76 312.471 523.854 312.452 523.925 312.438L524.266 313.943C524.153 313.986 523.994 314.028 523.79 314.071C523.587 314.118 523.329 314.142 523.016 314.142C522.543 314.142 522.079 314.04 521.624 313.837C521.174 313.633 520.8 313.323 520.502 312.906C520.209 312.49 520.062 311.964 520.062 311.33V300.477ZM527.668 318.091C527.384 318.091 527.131 318.067 526.908 318.02C526.686 317.977 526.532 317.935 526.447 317.892L526.873 316.415C527.28 316.519 527.64 316.557 527.952 316.528C528.265 316.5 528.542 316.36 528.783 316.109C529.03 315.863 529.254 315.463 529.458 314.909L529.771 314.057L525.737 303.091H527.555L530.566 311.784H530.68L533.691 303.091H535.509L530.879 315.591C530.67 316.154 530.412 316.621 530.104 316.99C529.797 317.364 529.439 317.641 529.032 317.821C528.629 318.001 528.175 318.091 527.668 318.091ZM537.722 318.091V303.091H539.341V304.824H539.54C539.663 304.634 539.833 304.393 540.051 304.099C540.274 303.801 540.591 303.536 541.003 303.304C541.42 303.067 541.983 302.949 542.693 302.949C543.612 302.949 544.421 303.179 545.122 303.638C545.823 304.097 546.37 304.748 546.763 305.591C547.156 306.434 547.352 307.428 547.352 308.574C547.352 309.729 547.156 310.731 546.763 311.578C546.37 312.421 545.825 313.074 545.129 313.538C544.433 313.998 543.631 314.227 542.722 314.227C542.021 314.227 541.46 314.111 541.038 313.879C540.617 313.643 540.293 313.375 540.065 313.077C539.838 312.774 539.663 312.523 539.54 312.324H539.398V318.091H537.722ZM539.369 308.545C539.369 309.369 539.49 310.096 539.732 310.726C539.973 311.351 540.326 311.841 540.79 312.196C541.254 312.546 541.822 312.722 542.494 312.722C543.195 312.722 543.78 312.537 544.249 312.168C544.722 311.794 545.077 311.292 545.314 310.662C545.555 310.027 545.676 309.322 545.676 308.545C545.676 307.778 545.558 307.087 545.321 306.472C545.089 305.851 544.736 305.361 544.263 305.001C543.794 304.637 543.205 304.455 542.494 304.455C541.813 304.455 541.24 304.627 540.776 304.973C540.312 305.314 539.961 305.792 539.724 306.408C539.488 307.018 539.369 307.731 539.369 308.545ZM554.483 314.227C553.432 314.227 552.525 313.995 551.763 313.531C551.005 313.062 550.42 312.409 550.009 311.571C549.601 310.728 549.398 309.748 549.398 308.631C549.398 307.513 549.601 306.528 550.009 305.676C550.42 304.819 550.993 304.152 551.727 303.673C552.466 303.19 553.328 302.949 554.312 302.949C554.881 302.949 555.442 303.044 555.996 303.233C556.55 303.422 557.054 303.73 557.509 304.156C557.963 304.578 558.325 305.136 558.595 305.832C558.865 306.528 559 307.385 559 308.403V309.114H550.591V307.665H557.295C557.295 307.049 557.172 306.5 556.926 306.017C556.685 305.534 556.339 305.153 555.889 304.874C555.444 304.594 554.919 304.455 554.312 304.455C553.645 304.455 553.067 304.62 552.58 304.952C552.097 305.278 551.725 305.705 551.464 306.23C551.204 306.756 551.074 307.319 551.074 307.92V308.886C551.074 309.71 551.216 310.409 551.5 310.982C551.789 311.55 552.189 311.983 552.7 312.281C553.212 312.575 553.806 312.722 554.483 312.722C554.923 312.722 555.321 312.66 555.676 312.537C556.036 312.409 556.346 312.22 556.607 311.969C556.867 311.713 557.068 311.396 557.21 311.017L558.83 311.472C558.659 312.021 558.373 312.504 557.97 312.92C557.568 313.332 557.071 313.654 556.479 313.886C555.887 314.114 555.222 314.227 554.483 314.227ZM562.771 314.114C562.421 314.114 562.12 313.988 561.869 313.737C561.618 313.486 561.493 313.186 561.493 312.835C561.493 312.485 561.618 312.184 561.869 311.933C562.12 311.682 562.421 311.557 562.771 311.557C563.122 311.557 563.422 311.682 563.673 311.933C563.924 312.184 564.05 312.485 564.05 312.835C564.05 313.067 563.991 313.28 563.872 313.474C563.759 313.669 563.605 313.825 563.411 313.943C563.221 314.057 563.008 314.114 562.771 314.114ZM285.476 330.727C285.476 328.937 285.708 327.292 286.172 325.791C286.641 324.286 287.309 322.901 288.175 321.636H289.653C289.312 322.105 288.992 322.683 288.694 323.369C288.4 324.051 288.142 324.802 287.92 325.621C287.697 326.435 287.522 327.278 287.394 328.149C287.271 329.02 287.209 329.88 287.209 330.727C287.209 331.854 287.318 332.998 287.536 334.158C287.754 335.318 288.047 336.395 288.417 337.389C288.786 338.384 289.198 339.193 289.653 339.818H288.175C287.309 338.554 286.641 337.171 286.172 335.67C285.708 334.165 285.476 332.517 285.476 330.727ZM291.558 325.017V323.455H302.467V325.017H297.893V338H296.132V325.017H291.558ZM306.634 331.438V338H304.958V323.455H306.634V328.795H306.776C307.032 328.232 307.415 327.785 307.927 327.453C308.443 327.117 309.129 326.949 309.986 326.949C310.73 326.949 311.381 327.098 311.939 327.396C312.498 327.69 312.931 328.142 313.239 328.753C313.552 329.359 313.708 330.131 313.708 331.068V338H312.032V331.182C312.032 330.315 311.807 329.645 311.357 329.172C310.912 328.694 310.294 328.455 309.503 328.455C308.954 328.455 308.462 328.571 308.026 328.803C307.595 329.035 307.254 329.373 307.003 329.818C306.757 330.263 306.634 330.803 306.634 331.438ZM316.774 338V327.091H318.45V338H316.774ZM317.627 325.273C317.3 325.273 317.018 325.161 316.781 324.939C316.549 324.716 316.433 324.449 316.433 324.136C316.433 323.824 316.549 323.556 316.781 323.334C317.018 323.111 317.3 323 317.627 323C317.953 323 318.233 323.111 318.465 323.334C318.701 323.556 318.82 323.824 318.82 324.136C318.82 324.449 318.701 324.716 318.465 324.939C318.233 325.161 317.953 325.273 317.627 325.273ZM329.248 329.534L327.742 329.96C327.647 329.709 327.508 329.465 327.323 329.229C327.143 328.987 326.897 328.788 326.584 328.632C326.272 328.476 325.872 328.398 325.384 328.398C324.716 328.398 324.16 328.552 323.715 328.859C323.275 329.162 323.055 329.548 323.055 330.017C323.055 330.434 323.206 330.763 323.509 331.004C323.812 331.246 324.286 331.447 324.93 331.608L326.549 332.006C327.524 332.242 328.251 332.605 328.729 333.092C329.207 333.575 329.447 334.198 329.447 334.96C329.447 335.585 329.267 336.144 328.907 336.636C328.552 337.129 328.055 337.517 327.415 337.801C326.776 338.085 326.033 338.227 325.185 338.227C324.073 338.227 323.152 337.986 322.422 337.503C321.693 337.02 321.232 336.314 321.037 335.386L322.628 334.989C322.78 335.576 323.066 336.016 323.488 336.31C323.914 336.603 324.47 336.75 325.157 336.75C325.938 336.75 326.558 336.584 327.018 336.253C327.482 335.917 327.714 335.514 327.714 335.045C327.714 334.667 327.581 334.349 327.316 334.094C327.051 333.833 326.644 333.639 326.094 333.511L324.276 333.085C323.277 332.848 322.543 332.482 322.074 331.984C321.61 331.482 321.378 330.855 321.378 330.102C321.378 329.487 321.551 328.942 321.897 328.469C322.247 327.995 322.723 327.624 323.324 327.354C323.93 327.084 324.617 326.949 325.384 326.949C326.464 326.949 327.311 327.186 327.927 327.659C328.547 328.133 328.987 328.758 329.248 329.534ZM337.595 338V327.091H339.271V338H337.595ZM338.447 325.273C338.12 325.273 337.838 325.161 337.602 324.939C337.37 324.716 337.254 324.449 337.254 324.136C337.254 323.824 337.37 323.556 337.602 323.334C337.838 323.111 338.12 323 338.447 323C338.774 323 339.053 323.111 339.285 323.334C339.522 323.556 339.64 323.824 339.64 324.136C339.64 324.449 339.522 324.716 339.285 324.939C339.053 325.161 338.774 325.273 338.447 325.273ZM350.068 329.534L348.562 329.96C348.468 329.709 348.328 329.465 348.143 329.229C347.963 328.987 347.717 328.788 347.405 328.632C347.092 328.476 346.692 328.398 346.204 328.398C345.537 328.398 344.98 328.552 344.535 328.859C344.095 329.162 343.875 329.548 343.875 330.017C343.875 330.434 344.026 330.763 344.329 331.004C344.632 331.246 345.106 331.447 345.75 331.608L347.369 332.006C348.345 332.242 349.071 332.605 349.55 333.092C350.028 333.575 350.267 334.198 350.267 334.96C350.267 335.585 350.087 336.144 349.727 336.636C349.372 337.129 348.875 337.517 348.236 337.801C347.596 338.085 346.853 338.227 346.006 338.227C344.893 338.227 343.972 337.986 343.243 337.503C342.514 337.02 342.052 336.314 341.858 335.386L343.449 334.989C343.6 335.576 343.887 336.016 344.308 336.31C344.734 336.603 345.291 336.75 345.977 336.75C346.758 336.75 347.379 336.584 347.838 336.253C348.302 335.917 348.534 335.514 348.534 335.045C348.534 334.667 348.401 334.349 348.136 334.094C347.871 333.833 347.464 333.639 346.915 333.511L345.096 333.085C344.097 332.848 343.363 332.482 342.895 331.984C342.431 331.482 342.199 330.855 342.199 330.102C342.199 329.487 342.372 328.942 342.717 328.469C343.068 327.995 343.543 327.624 344.145 327.354C344.751 327.084 345.437 326.949 346.204 326.949C347.284 326.949 348.131 327.186 348.747 327.659C349.367 328.133 349.808 328.758 350.068 329.534ZM361.625 338.256C360.934 338.256 360.307 338.125 359.743 337.865C359.18 337.6 358.732 337.219 358.401 336.722C358.069 336.22 357.904 335.614 357.904 334.903C357.904 334.278 358.027 333.772 358.273 333.384C358.519 332.991 358.848 332.683 359.26 332.46C359.672 332.238 360.127 332.072 360.624 331.963C361.126 331.849 361.63 331.759 362.137 331.693C362.799 331.608 363.337 331.544 363.749 331.501C364.165 331.454 364.468 331.376 364.658 331.267C364.852 331.158 364.949 330.969 364.949 330.699V330.642C364.949 329.941 364.757 329.397 364.374 329.009C363.995 328.62 363.42 328.426 362.648 328.426C361.848 328.426 361.22 328.601 360.766 328.952C360.311 329.302 359.992 329.676 359.807 330.074L358.216 329.506C358.5 328.843 358.879 328.327 359.352 327.957C359.831 327.583 360.352 327.323 360.915 327.176C361.483 327.025 362.042 326.949 362.591 326.949C362.941 326.949 363.344 326.991 363.798 327.077C364.258 327.157 364.7 327.325 365.127 327.581C365.557 327.837 365.915 328.223 366.199 328.739C366.483 329.255 366.625 329.946 366.625 330.812V338H364.949V336.523H364.864C364.75 336.759 364.561 337.013 364.296 337.283C364.03 337.553 363.678 337.782 363.237 337.972C362.797 338.161 362.26 338.256 361.625 338.256ZM361.881 336.75C362.544 336.75 363.102 336.62 363.557 336.359C364.016 336.099 364.362 335.763 364.594 335.351C364.831 334.939 364.949 334.506 364.949 334.051V332.517C364.878 332.602 364.722 332.68 364.48 332.751C364.244 332.818 363.969 332.877 363.656 332.929C363.349 332.976 363.048 333.019 362.754 333.057C362.466 333.09 362.231 333.118 362.051 333.142C361.616 333.199 361.209 333.291 360.83 333.419C360.456 333.542 360.153 333.729 359.921 333.98C359.693 334.226 359.58 334.562 359.58 334.989C359.58 335.571 359.795 336.011 360.226 336.31C360.662 336.603 361.213 336.75 361.881 336.75ZM380.167 327.091V328.511H374.287V327.091H380.167ZM376.048 338V325.585C376.048 324.96 376.195 324.439 376.488 324.023C376.782 323.606 377.163 323.294 377.632 323.085C378.101 322.877 378.595 322.773 379.116 322.773C379.528 322.773 379.864 322.806 380.125 322.872C380.385 322.938 380.579 323 380.707 323.057L380.224 324.506C380.139 324.477 380.021 324.442 379.869 324.399C379.722 324.357 379.528 324.335 379.287 324.335C378.733 324.335 378.333 324.475 378.086 324.754C377.845 325.034 377.724 325.443 377.724 325.983V338H376.048ZM382.517 338V327.091H384.136V328.739H384.249C384.448 328.199 384.808 327.761 385.329 327.425C385.85 327.089 386.437 326.92 387.09 326.92C387.213 326.92 387.367 326.923 387.552 326.928C387.737 326.932 387.876 326.939 387.971 326.949V328.653C387.914 328.639 387.784 328.618 387.58 328.589C387.382 328.556 387.171 328.54 386.948 328.54C386.418 328.54 385.945 328.651 385.528 328.874C385.116 329.091 384.789 329.394 384.548 329.783C384.311 330.166 384.193 330.604 384.193 331.097V338H382.517ZM394.058 338.227C393.073 338.227 392.209 337.993 391.465 337.524C390.727 337.055 390.149 336.4 389.732 335.557C389.32 334.714 389.115 333.729 389.115 332.602C389.115 331.466 389.32 330.474 389.732 329.626C390.149 328.779 390.727 328.121 391.465 327.652C392.209 327.183 393.073 326.949 394.058 326.949C395.043 326.949 395.904 327.183 396.643 327.652C397.386 328.121 397.964 328.779 398.376 329.626C398.793 330.474 399.001 331.466 399.001 332.602C399.001 333.729 398.793 334.714 398.376 335.557C397.964 336.4 397.386 337.055 396.643 337.524C395.904 337.993 395.043 338.227 394.058 338.227ZM394.058 336.722C394.806 336.722 395.421 336.53 395.904 336.146C396.387 335.763 396.745 335.259 396.977 334.634C397.209 334.009 397.325 333.331 397.325 332.602C397.325 331.873 397.209 331.194 396.977 330.564C396.745 329.934 396.387 329.425 395.904 329.037C395.421 328.649 394.806 328.455 394.058 328.455C393.31 328.455 392.694 328.649 392.211 329.037C391.728 329.425 391.371 329.934 391.139 330.564C390.907 331.194 390.791 331.873 390.791 332.602C390.791 333.331 390.907 334.009 391.139 334.634C391.371 335.259 391.728 335.763 392.211 336.146C392.694 336.53 393.31 336.722 394.058 336.722ZM403.236 331.438V338H401.559V327.091H403.179V328.795H403.321C403.577 328.241 403.965 327.796 404.486 327.46C405.006 327.119 405.679 326.949 406.503 326.949C407.241 326.949 407.888 327.1 408.442 327.403C408.996 327.702 409.426 328.156 409.734 328.767C410.042 329.373 410.196 330.14 410.196 331.068V338H408.52V331.182C408.52 330.325 408.297 329.657 407.852 329.179C407.407 328.696 406.796 328.455 406.02 328.455C405.485 328.455 405.006 328.571 404.585 328.803C404.168 329.035 403.839 329.373 403.598 329.818C403.356 330.263 403.236 330.803 403.236 331.438ZM418.003 327.091V328.511H412.35V327.091H418.003ZM413.997 324.477H415.673V334.875C415.673 335.348 415.742 335.704 415.879 335.94C416.021 336.172 416.201 336.329 416.419 336.409C416.642 336.485 416.876 336.523 417.122 336.523C417.307 336.523 417.459 336.513 417.577 336.494C417.695 336.471 417.79 336.452 417.861 336.438L418.202 337.943C418.088 337.986 417.93 338.028 417.726 338.071C417.522 338.118 417.264 338.142 416.952 338.142C416.478 338.142 416.014 338.04 415.56 337.837C415.11 337.633 414.736 337.323 414.438 336.906C414.144 336.49 413.997 335.964 413.997 335.33V324.477ZM435.07 327.091L431.036 338H429.331L425.297 327.091H427.115L430.127 335.784H430.24L433.252 327.091H435.07ZM437.282 338V327.091H438.958V338H437.282ZM438.134 325.273C437.808 325.273 437.526 325.161 437.289 324.939C437.057 324.716 436.941 324.449 436.941 324.136C436.941 323.824 437.057 323.556 437.289 323.334C437.526 323.111 437.808 323 438.134 323C438.461 323 438.74 323.111 438.972 323.334C439.209 323.556 439.328 323.824 439.328 324.136C439.328 324.449 439.209 324.716 438.972 324.939C438.74 325.161 438.461 325.273 438.134 325.273ZM446.602 338.227C445.551 338.227 444.644 337.995 443.882 337.531C443.124 337.062 442.54 336.409 442.128 335.571C441.72 334.728 441.517 333.748 441.517 332.631C441.517 331.513 441.72 330.528 442.128 329.676C442.54 328.819 443.113 328.152 443.846 327.673C444.585 327.19 445.447 326.949 446.432 326.949C447 326.949 447.561 327.044 448.115 327.233C448.669 327.422 449.173 327.73 449.628 328.156C450.082 328.578 450.444 329.136 450.714 329.832C450.984 330.528 451.119 331.385 451.119 332.403V333.114H442.71V331.665H449.415C449.415 331.049 449.291 330.5 449.045 330.017C448.804 329.534 448.458 329.153 448.008 328.874C447.563 328.594 447.038 328.455 446.432 328.455C445.764 328.455 445.186 328.62 444.699 328.952C444.216 329.278 443.844 329.705 443.584 330.23C443.323 330.756 443.193 331.319 443.193 331.92V332.886C443.193 333.71 443.335 334.409 443.619 334.982C443.908 335.55 444.308 335.983 444.819 336.281C445.331 336.575 445.925 336.722 446.602 336.722C447.042 336.722 447.44 336.66 447.795 336.537C448.155 336.409 448.465 336.22 448.726 335.969C448.986 335.713 449.187 335.396 449.329 335.017L450.949 335.472C450.778 336.021 450.492 336.504 450.089 336.92C449.687 337.332 449.19 337.654 448.598 337.886C448.006 338.114 447.341 338.227 446.602 338.227ZM456.14 338L452.817 327.091H454.578L456.936 335.443H457.05L459.379 327.091H461.169L463.47 335.415H463.584L465.942 327.091H467.703L464.379 338H462.731L460.345 329.619H460.175L457.788 338H456.14ZM469.656 338.114C469.306 338.114 469.005 337.988 468.754 337.737C468.503 337.486 468.378 337.186 468.378 336.835C468.378 336.485 468.503 336.184 468.754 335.933C469.005 335.682 469.306 335.557 469.656 335.557C470.006 335.557 470.307 335.682 470.558 335.933C470.809 336.184 470.934 336.485 470.934 336.835C470.934 337.067 470.875 337.28 470.757 337.474C470.643 337.669 470.489 337.825 470.295 337.943C470.106 338.057 469.893 338.114 469.656 338.114ZM477.522 331.864C477.522 333.653 477.287 335.301 476.819 336.807C476.355 338.308 475.689 339.69 474.823 340.955H473.346C473.687 340.486 474.004 339.908 474.297 339.222C474.596 338.54 474.856 337.792 475.079 336.977C475.301 336.158 475.474 335.313 475.597 334.442C475.725 333.566 475.789 332.706 475.789 331.864C475.789 330.737 475.68 329.593 475.462 328.433C475.244 327.273 474.951 326.196 474.581 325.202C474.212 324.207 473.8 323.398 473.346 322.773H474.823C475.689 324.037 476.355 325.422 476.819 326.928C477.287 328.429 477.522 330.074 477.522 331.864Z" fill="white"/>
</svg>
