<svg width="1021" height="1021" viewBox="0 0 1021 1021" fill="none" xmlns="http://www.w3.org/2000/svg">
<path fill-rule="evenodd" clip-rule="evenodd" d="M510.5 929.641C741.983 929.641 929.637 741.987 929.637 510.504C929.637 279.021 741.983 91.3667 510.5 91.3667C279.017 91.3667 91.3629 279.021 91.3629 510.504C91.3629 741.987 279.017 929.641 510.5 929.641ZM510.5 806.656C674.06 806.656 806.652 674.064 806.652 510.504C806.652 346.943 674.06 214.351 510.5 214.351C346.939 214.351 214.347 346.943 214.347 510.504C214.347 674.064 346.939 806.656 510.5 806.656Z" fill="#95A5A6"/>
<rect x="839.156" y="611.224" width="207.579" height="181.844" rx="80" transform="rotate(-90 839.156 611.224)" fill="#95A5A6"/>
<rect width="207.802" height="181.65" rx="80" transform="matrix(0.707865 -0.706348 0.707865 0.706348 671.519 813.62)" fill="#95A5A6"/>
<rect width="208.024" height="181.455" rx="80" transform="matrix(-0.999945 -0.0105095 0.0105547 -0.999944 614.893 183.631)" fill="#95A5A6"/>
<rect width="207.797" height="181.654" rx="80" transform="matrix(-0.700386 -0.713764 0.715264 -0.698854 815.944 353.027)" fill="#95A5A6"/>
<rect y="616.656" width="207.579" height="181.844" rx="80" transform="rotate(-90 0 616.656)" fill="#95A5A6"/>
<rect width="207.802" height="181.65" rx="80" transform="matrix(0.707865 -0.706348 0.707865 0.706348 74.2974 225.359)" fill="#95A5A6"/>
<rect width="208.024" height="181.455" rx="80" transform="matrix(-0.999945 -0.0105095 0.0105547 -0.999944 611.498 1021)" fill="#95A5A6"/>
<rect width="207.797" height="181.654" rx="80" transform="matrix(-0.700386 -0.713764 0.715264 -0.698854 220.163 942.741)" fill="#95A5A6"/>
</svg>
