<svg width="763" height="394" viewBox="0 0 763 394" fill="none" xmlns="http://www.w3.org/2000/svg">
<rect width="763" height="394" rx="30" fill="#171717"/>
<path d="M36.2727 205V111.909H67.7273C75.0303 111.909 81 113.227 85.6364 115.864C90.303 118.47 93.7576 122 96 126.455C98.2424 130.909 99.3636 135.879 99.3636 141.364C99.3636 146.848 98.2424 151.833 96 156.318C93.7879 160.803 90.3636 164.379 85.7273 167.045C81.0909 169.682 75.1515 171 67.9091 171H45.3636V161H67.5455C72.5455 161 76.5606 160.136 79.5909 158.409C82.6212 156.682 84.8182 154.348 86.1818 151.409C87.5758 148.439 88.2727 145.091 88.2727 141.364C88.2727 137.636 87.5758 134.303 86.1818 131.364C84.8182 128.424 82.6061 126.121 79.5455 124.455C76.4849 122.758 72.4242 121.909 67.3636 121.909H47.5455V205H36.2727ZM126.795 111.909V205H116.068V111.909H126.795ZM166.989 206.636C162.564 206.636 158.549 205.803 154.943 204.136C151.337 202.439 148.473 200 146.352 196.818C144.231 193.606 143.17 189.727 143.17 185.182C143.17 181.182 143.958 177.939 145.534 175.455C147.11 172.939 149.216 170.97 151.852 169.545C154.489 168.121 157.398 167.061 160.58 166.364C163.792 165.636 167.019 165.061 170.261 164.636C174.504 164.091 177.943 163.682 180.58 163.409C183.246 163.106 185.186 162.606 186.398 161.909C187.64 161.212 188.261 160 188.261 158.273V157.909C188.261 153.424 187.034 149.939 184.58 147.455C182.155 144.97 178.473 143.727 173.534 143.727C168.413 143.727 164.398 144.848 161.489 147.091C158.58 149.333 156.534 151.727 155.352 154.273L145.17 150.636C146.989 146.394 149.413 143.091 152.443 140.727C155.504 138.333 158.837 136.667 162.443 135.727C166.08 134.758 169.655 134.273 173.17 134.273C175.413 134.273 177.989 134.545 180.898 135.091C183.837 135.606 186.67 136.682 189.398 138.318C192.155 139.955 194.443 142.424 196.261 145.727C198.08 149.03 198.989 153.455 198.989 159V205H188.261V195.545H187.716C186.989 197.061 185.777 198.682 184.08 200.409C182.383 202.136 180.125 203.606 177.307 204.818C174.489 206.03 171.049 206.636 166.989 206.636ZM168.625 197C172.867 197 176.443 196.167 179.352 194.5C182.292 192.833 184.504 190.682 185.989 188.045C187.504 185.409 188.261 182.636 188.261 179.727V169.909C187.807 170.455 186.807 170.955 185.261 171.409C183.746 171.833 181.989 172.212 179.989 172.545C178.019 172.848 176.095 173.121 174.216 173.364C172.367 173.576 170.867 173.758 169.716 173.909C166.928 174.273 164.322 174.864 161.898 175.682C159.504 176.47 157.564 177.667 156.08 179.273C154.625 180.848 153.898 183 153.898 185.727C153.898 189.455 155.277 192.273 158.034 194.182C160.822 196.061 164.352 197 168.625 197ZM246.932 206.455C240.386 206.455 234.75 204.909 230.023 201.818C225.295 198.727 221.659 194.47 219.114 189.045C216.568 183.621 215.295 177.424 215.295 170.455C215.295 163.364 216.598 157.106 219.205 151.682C221.841 146.227 225.508 141.97 230.205 138.909C234.932 135.818 240.447 134.273 246.75 134.273C251.659 134.273 256.083 135.182 260.023 137C263.962 138.818 267.189 141.364 269.705 144.636C272.22 147.909 273.78 151.727 274.386 156.091H263.659C262.841 152.909 261.023 150.091 258.205 147.636C255.417 145.152 251.659 143.909 246.932 143.909C242.75 143.909 239.083 145 235.932 147.182C232.811 149.333 230.371 152.379 228.614 156.318C226.886 160.227 226.023 164.818 226.023 170.091C226.023 175.485 226.871 180.182 228.568 184.182C230.295 188.182 232.72 191.288 235.841 193.5C238.992 195.712 242.689 196.818 246.932 196.818C249.72 196.818 252.25 196.333 254.523 195.364C256.795 194.394 258.72 193 260.295 191.182C261.871 189.364 262.992 187.182 263.659 184.636H274.386C273.78 188.758 272.28 192.47 269.886 195.773C267.523 199.045 264.386 201.652 260.477 203.591C256.598 205.5 252.083 206.455 246.932 206.455ZM319.341 206.455C312.614 206.455 306.811 204.97 301.932 202C297.083 199 293.341 194.818 290.705 189.455C288.098 184.061 286.795 177.788 286.795 170.636C286.795 163.485 288.098 157.182 290.705 151.727C293.341 146.242 297.008 141.97 301.705 138.909C306.432 135.818 311.947 134.273 318.25 134.273C321.886 134.273 325.477 134.879 329.023 136.091C332.568 137.303 335.795 139.273 338.705 142C341.614 144.697 343.932 148.273 345.659 152.727C347.386 157.182 348.25 162.667 348.25 169.182V173.727H294.432V164.455H337.341C337.341 160.515 336.553 157 334.977 153.909C333.432 150.818 331.22 148.379 328.341 146.591C325.492 144.803 322.129 143.909 318.25 143.909C313.977 143.909 310.28 144.97 307.159 147.091C304.068 149.182 301.689 151.909 300.023 155.273C298.356 158.636 297.523 162.242 297.523 166.091V172.273C297.523 177.545 298.432 182.015 300.25 185.682C302.098 189.318 304.659 192.091 307.932 194C311.205 195.879 315.008 196.818 319.341 196.818C322.159 196.818 324.705 196.424 326.977 195.636C329.28 194.818 331.265 193.606 332.932 192C334.598 190.364 335.886 188.333 336.795 185.909L347.159 188.818C346.068 192.333 344.235 195.424 341.659 198.091C339.083 200.727 335.902 202.788 332.114 204.273C328.326 205.727 324.068 206.455 319.341 206.455ZM375.295 163V205H364.568V111.909H375.295V146.091H376.205C377.841 142.485 380.295 139.621 383.568 137.5C386.871 135.348 391.265 134.273 396.75 134.273C401.508 134.273 405.674 135.227 409.25 137.136C412.826 139.015 415.598 141.909 417.568 145.818C419.568 149.697 420.568 154.636 420.568 160.636V205H409.841V161.364C409.841 155.818 408.402 151.53 405.523 148.5C402.674 145.439 398.72 143.909 393.659 143.909C390.144 143.909 386.992 144.652 384.205 146.136C381.447 147.621 379.265 149.788 377.659 152.636C376.083 155.485 375.295 158.939 375.295 163ZM468.557 206.455C462.254 206.455 456.723 204.955 451.966 201.955C447.239 198.955 443.542 194.758 440.875 189.364C438.239 183.97 436.92 177.667 436.92 170.455C436.92 163.182 438.239 156.833 440.875 151.409C443.542 145.985 447.239 141.773 451.966 138.773C456.723 135.773 462.254 134.273 468.557 134.273C474.86 134.273 480.375 135.773 485.102 138.773C489.86 141.773 493.557 145.985 496.193 151.409C498.86 156.833 500.193 163.182 500.193 170.455C500.193 177.667 498.86 183.97 496.193 189.364C493.557 194.758 489.86 198.955 485.102 201.955C480.375 204.955 474.86 206.455 468.557 206.455ZM468.557 196.818C473.345 196.818 477.284 195.591 480.375 193.136C483.466 190.682 485.754 187.455 487.239 183.455C488.723 179.455 489.466 175.121 489.466 170.455C489.466 165.788 488.723 161.439 487.239 157.409C485.754 153.379 483.466 150.121 480.375 147.636C477.284 145.152 473.345 143.909 468.557 143.909C463.769 143.909 459.83 145.152 456.739 147.636C453.648 150.121 451.36 153.379 449.875 157.409C448.39 161.439 447.648 165.788 447.648 170.455C447.648 175.121 448.39 179.455 449.875 183.455C451.36 187.455 453.648 190.682 456.739 193.136C459.83 195.591 463.769 196.818 468.557 196.818ZM527.295 111.909V205H516.568V111.909H527.295ZM573.307 206.455C567.489 206.455 562.352 204.985 557.898 202.045C553.443 199.076 549.958 194.894 547.443 189.5C544.928 184.076 543.67 177.667 543.67 170.273C543.67 162.939 544.928 156.576 547.443 151.182C549.958 145.788 553.458 141.621 557.943 138.682C562.428 135.742 567.61 134.273 573.489 134.273C578.034 134.273 581.625 135.03 584.261 136.545C586.928 138.03 588.958 139.727 590.352 141.636C591.777 143.515 592.883 145.061 593.67 146.273H594.58V111.909H605.307V205H594.943V194.273H593.67C592.883 195.545 591.761 197.152 590.307 199.091C588.852 201 586.777 202.712 584.08 204.227C581.383 205.712 577.792 206.455 573.307 206.455ZM574.761 196.818C579.064 196.818 582.701 195.697 585.67 193.455C588.64 191.182 590.898 188.045 592.443 184.045C593.989 180.015 594.761 175.364 594.761 170.091C594.761 164.879 594.004 160.318 592.489 156.409C590.973 152.47 588.731 149.409 585.761 147.227C582.792 145.015 579.125 143.909 574.761 143.909C570.216 143.909 566.428 145.076 563.398 147.409C560.398 149.712 558.14 152.848 556.625 156.818C555.14 160.758 554.398 165.182 554.398 170.091C554.398 175.061 555.155 179.576 556.67 183.636C558.216 187.667 560.489 190.879 563.489 193.273C566.519 195.636 570.277 196.818 574.761 196.818ZM655.716 206.455C648.989 206.455 643.186 204.97 638.307 202C633.458 199 629.716 194.818 627.08 189.455C624.473 184.061 623.17 177.788 623.17 170.636C623.17 163.485 624.473 157.182 627.08 151.727C629.716 146.242 633.383 141.97 638.08 138.909C642.807 135.818 648.322 134.273 654.625 134.273C658.261 134.273 661.852 134.879 665.398 136.091C668.943 137.303 672.17 139.273 675.08 142C677.989 144.697 680.307 148.273 682.034 152.727C683.761 157.182 684.625 162.667 684.625 169.182V173.727H630.807V164.455H673.716C673.716 160.515 672.928 157 671.352 153.909C669.807 150.818 667.595 148.379 664.716 146.591C661.867 144.803 658.504 143.909 654.625 143.909C650.352 143.909 646.655 144.97 643.534 147.091C640.443 149.182 638.064 151.909 636.398 155.273C634.731 158.636 633.898 162.242 633.898 166.091V172.273C633.898 177.545 634.807 182.015 636.625 185.682C638.473 189.318 641.034 192.091 644.307 194C647.58 195.879 651.383 196.818 655.716 196.818C658.534 196.818 661.08 196.424 663.352 195.636C665.655 194.818 667.64 193.606 669.307 192C670.973 190.364 672.261 188.333 673.17 185.909L683.534 188.818C682.443 192.333 680.61 195.424 678.034 198.091C675.458 200.727 672.277 202.788 668.489 204.273C664.701 205.727 660.443 206.455 655.716 206.455ZM700.943 205V135.182H711.307V145.727H712.034C713.307 142.273 715.61 139.47 718.943 137.318C722.277 135.167 726.034 134.091 730.216 134.091C731.004 134.091 731.989 134.106 733.17 134.136C734.352 134.167 735.246 134.212 735.852 134.273V145.182C735.489 145.091 734.655 144.955 733.352 144.773C732.08 144.561 730.731 144.455 729.307 144.455C725.913 144.455 722.883 145.167 720.216 146.591C717.58 147.985 715.489 149.924 713.943 152.409C712.428 154.864 711.67 157.667 711.67 160.818V205H700.943Z" fill="white"/>
</svg>
