<svg width="763" height="394" viewBox="0 0 763 394" fill="none" xmlns="http://www.w3.org/2000/svg">
<rect width="763" height="394" rx="30" fill="#171717"/>
<rect x="41" y="236" width="682" height="116" rx="35" fill="#535353"/>
<path d="M238.182 135.182C237.636 130.576 235.424 127 231.545 124.455C227.667 121.909 222.909 120.636 217.273 120.636C213.152 120.636 209.545 121.303 206.455 122.636C203.394 123.97 201 125.803 199.273 128.136C197.576 130.47 196.727 133.121 196.727 136.091C196.727 138.576 197.318 140.712 198.5 142.5C199.712 144.258 201.258 145.727 203.136 146.909C205.015 148.061 206.985 149.015 209.045 149.773C211.106 150.5 213 151.091 214.727 151.545L224.182 154.091C226.606 154.727 229.303 155.606 232.273 156.727C235.273 157.848 238.136 159.379 240.864 161.318C243.621 163.227 245.894 165.682 247.682 168.682C249.47 171.682 250.364 175.364 250.364 179.727C250.364 184.758 249.045 189.303 246.409 193.364C243.803 197.424 239.985 200.652 234.955 203.045C229.955 205.439 223.879 206.636 216.727 206.636C210.061 206.636 204.288 205.561 199.409 203.409C194.561 201.258 190.742 198.258 187.955 194.409C185.197 190.561 183.636 186.091 183.273 181H194.909C195.212 184.515 196.394 187.424 198.455 189.727C200.545 192 203.182 193.697 206.364 194.818C209.576 195.909 213.03 196.455 216.727 196.455C221.03 196.455 224.894 195.758 228.318 194.364C231.742 192.939 234.455 190.97 236.455 188.455C238.455 185.909 239.455 182.939 239.455 179.545C239.455 176.455 238.591 173.939 236.864 172C235.136 170.061 232.864 168.485 230.045 167.273C227.227 166.061 224.182 165 220.909 164.091L209.455 160.818C202.182 158.727 196.424 155.742 192.182 151.864C187.939 147.985 185.818 142.909 185.818 136.636C185.818 131.424 187.227 126.879 190.045 123C192.894 119.091 196.712 116.061 201.5 113.909C206.318 111.727 211.697 110.636 217.636 110.636C223.636 110.636 228.97 111.712 233.636 113.864C238.303 115.985 242 118.894 244.727 122.591C247.485 126.288 248.939 130.485 249.091 135.182H238.182ZM278.17 111.909V205H267.443V111.909H278.17ZM297.818 205V135.182H308.545V205H297.818ZM303.273 123.545C301.182 123.545 299.379 122.833 297.864 121.409C296.379 119.985 295.636 118.273 295.636 116.273C295.636 114.273 296.379 112.561 297.864 111.136C299.379 109.712 301.182 109 303.273 109C305.364 109 307.152 109.712 308.636 111.136C310.152 112.561 310.909 114.273 310.909 116.273C310.909 118.273 310.152 119.985 308.636 121.409C307.152 122.833 305.364 123.545 303.273 123.545ZM354.557 206.455C348.739 206.455 343.602 204.985 339.148 202.045C334.693 199.076 331.208 194.894 328.693 189.5C326.178 184.076 324.92 177.667 324.92 170.273C324.92 162.939 326.178 156.576 328.693 151.182C331.208 145.788 334.708 141.621 339.193 138.682C343.678 135.742 348.86 134.273 354.739 134.273C359.284 134.273 362.875 135.03 365.511 136.545C368.178 138.03 370.208 139.727 371.602 141.636C373.027 143.515 374.133 145.061 374.92 146.273H375.83V111.909H386.557V205H376.193V194.273H374.92C374.133 195.545 373.011 197.152 371.557 199.091C370.102 201 368.027 202.712 365.33 204.227C362.633 205.712 359.042 206.455 354.557 206.455ZM356.011 196.818C360.314 196.818 363.951 195.697 366.92 193.455C369.89 191.182 372.148 188.045 373.693 184.045C375.239 180.015 376.011 175.364 376.011 170.091C376.011 164.879 375.254 160.318 373.739 156.409C372.223 152.47 369.981 149.409 367.011 147.227C364.042 145.015 360.375 143.909 356.011 143.909C351.466 143.909 347.678 145.076 344.648 147.409C341.648 149.712 339.39 152.848 337.875 156.818C336.39 160.758 335.648 165.182 335.648 170.091C335.648 175.061 336.405 179.576 337.92 183.636C339.466 187.667 341.739 190.879 344.739 193.273C347.769 195.636 351.527 196.818 356.011 196.818ZM436.966 206.455C430.239 206.455 424.436 204.97 419.557 202C414.708 199 410.966 194.818 408.33 189.455C405.723 184.061 404.42 177.788 404.42 170.636C404.42 163.485 405.723 157.182 408.33 151.727C410.966 146.242 414.633 141.97 419.33 138.909C424.057 135.818 429.572 134.273 435.875 134.273C439.511 134.273 443.102 134.879 446.648 136.091C450.193 137.303 453.42 139.273 456.33 142C459.239 144.697 461.557 148.273 463.284 152.727C465.011 157.182 465.875 162.667 465.875 169.182V173.727H412.057V164.455H454.966C454.966 160.515 454.178 157 452.602 153.909C451.057 150.818 448.845 148.379 445.966 146.591C443.117 144.803 439.754 143.909 435.875 143.909C431.602 143.909 427.905 144.97 424.784 147.091C421.693 149.182 419.314 151.909 417.648 155.273C415.981 158.636 415.148 162.242 415.148 166.091V172.273C415.148 177.545 416.057 182.015 417.875 185.682C419.723 189.318 422.284 192.091 425.557 194C428.83 195.879 432.633 196.818 436.966 196.818C439.784 196.818 442.33 196.424 444.602 195.636C446.905 194.818 448.89 193.606 450.557 192C452.223 190.364 453.511 188.333 454.42 185.909L464.784 188.818C463.693 192.333 461.86 195.424 459.284 198.091C456.708 200.727 453.527 202.788 449.739 204.273C445.951 205.727 441.693 206.455 436.966 206.455ZM482.193 205V135.182H492.557V145.727H493.284C494.557 142.273 496.86 139.47 500.193 137.318C503.527 135.167 507.284 134.091 511.466 134.091C512.254 134.091 513.239 134.106 514.42 134.136C515.602 134.167 516.496 134.212 517.102 134.273V145.182C516.739 145.091 515.905 144.955 514.602 144.773C513.33 144.561 511.981 144.455 510.557 144.455C507.163 144.455 504.133 145.167 501.466 146.591C498.83 147.985 496.739 149.924 495.193 152.409C493.678 154.864 492.92 157.667 492.92 160.818V205H482.193ZM579.273 150.818L569.636 153.545C569.03 151.939 568.136 150.379 566.955 148.864C565.803 147.318 564.227 146.045 562.227 145.045C560.227 144.045 557.667 143.545 554.545 143.545C550.273 143.545 546.712 144.53 543.864 146.5C541.045 148.439 539.636 150.909 539.636 153.909C539.636 156.576 540.606 158.682 542.545 160.227C544.485 161.773 547.515 163.061 551.636 164.091L562 166.636C568.242 168.152 572.894 170.47 575.955 173.591C579.015 176.682 580.545 180.667 580.545 185.545C580.545 189.545 579.394 193.121 577.091 196.273C574.818 199.424 571.636 201.909 567.545 203.727C563.455 205.545 558.697 206.455 553.273 206.455C546.152 206.455 540.258 204.909 535.591 201.818C530.924 198.727 527.97 194.212 526.727 188.273L536.909 185.727C537.879 189.485 539.712 192.303 542.409 194.182C545.136 196.061 548.697 197 553.091 197C558.091 197 562.061 195.939 565 193.818C567.97 191.667 569.455 189.091 569.455 186.091C569.455 183.667 568.606 181.636 566.909 180C565.212 178.333 562.606 177.091 559.091 176.273L547.455 173.545C541.061 172.03 536.364 169.682 533.364 166.5C530.394 163.288 528.909 159.273 528.909 154.455C528.909 150.515 530.015 147.03 532.227 144C534.47 140.97 537.515 138.591 541.364 136.864C545.242 135.136 549.636 134.273 554.545 134.273C561.455 134.273 566.879 135.788 570.818 138.818C574.788 141.848 577.606 145.848 579.273 150.818Z" fill="white"/>
</svg>
