<?xml version="1.0" encoding="UTF-8"?>
<svg version="1.1" xmlns="http://www.w3.org/2000/svg" width="64" height="64">
<path d="M0 0 C21.12 0 42.24 0 64 0 C64 21.12 64 42.24 64 64 C42.88 64 21.76 64 0 64 C0 42.88 0 21.76 0 0 Z " fill="#F79900" transform="translate(0,0)"/>
<path d="M0 0 C3.29164829 -0.02895225 6.58326399 -0.0467823 9.875 -0.0625 C10.81214844 -0.07087891 11.74929687 -0.07925781 12.71484375 -0.08789062 C14.05869141 -0.09272461 14.05869141 -0.09272461 15.4296875 -0.09765625 C16.67081299 -0.10551147 16.67081299 -0.10551147 17.93701172 -0.11352539 C20 0 20 0 22 1 C22 1.66 22 2.32 22 3 C21.01 3 20.02 3 19 3 C19 3.66 19 4.32 19 5 C19.99 5.33 20.98 5.66 22 6 C20.68 6 19.36 6 18 6 C18 6.99 18 7.98 18 9 C19.32 9.33 20.64 9.66 22 10 C20.35 10 18.7 10 17 10 C17 8.02 17 6.04 17 4 C16.67 5.65 16.34 7.3 16 9 C14.0085944 9.38133299 12.00720923 9.71325582 10 10 C9 9 9 9 8.9375 6.4375 C8.958125 5.633125 8.97875 4.82875 9 4 C8.67 5.65 8.34 7.3 8 9 C4.56484998 9.62457273 1.50935186 10 -2 10 C-2 7.36 -2 4.72 -2 2 C-1.34 2 -0.68 2 0 2 C0 1.34 0 0.68 0 0 Z " fill="#B67200" transform="translate(24,28)"/>
<path d="M0 0 C5.75 -0.125 5.75 -0.125 8 1 C8 1.66 8 2.32 8 3 C7.01 3 6.02 3 5 3 C5 3.66 5 4.32 5 5 C5.99 5.33 6.98 5.66 8 6 C6.68 6 5.36 6 4 6 C4 6.99 4 7.98 4 9 C5.32 9.33 6.64 9.66 8 10 C6.35 10 4.7 10 3 10 C3 8.02 3 6.04 3 4 C2.67 5.65 2.34 7.3 2 9 C0.0085944 9.38133299 -1.99279077 9.71325582 -4 10 C-5 9 -5 9 -5.0625 5.9375 C-5.041875 4.968125 -5.02125 3.99875 -5 3 C-3.35 2.67 -1.7 2.34 0 2 C0 1.34 0 0.68 0 0 Z " fill="#794B00" transform="translate(38,28)"/>
<path d="M0 0 C0.125 4.75 0.125 4.75 -1 7 C-0.67 7.99 -0.34 8.98 0 10 C-2 10 -2 10 -3.625 8.5 C-4.07875 8.005 -4.5325 7.51 -5 7 C-5.33 7.99 -5.66 8.98 -6 10 C-6.33 7.69 -6.66 5.38 -7 3 C-7.66 3 -8.32 3 -9 3 C-9 5.31 -9 7.62 -9 10 C-9.33 10 -9.66 10 -10 10 C-10 7.69 -10 5.38 -10 3 C-10.66 3 -11.32 3 -12 3 C-12 2.34 -12 1.68 -12 1 C-7.9472484 0.01751476 -4.16138263 -0.08159574 0 0 Z " fill="#684000" transform="translate(20,28)"/>
<path d="M0 0 C1.2065625 0.0309375 1.2065625 0.0309375 2.4375 0.0625 C2.7675 2.3725 3.0975 4.6825 3.4375 7.0625 C1.4460944 7.44383299 -0.55529077 7.77575582 -2.5625 8.0625 C-3.5625 7.0625 -3.5625 7.0625 -3.6875 4.0625 C-3.52180824 0.08589776 -3.52180824 0.08589776 0 0 Z " fill="#7B4C00" transform="translate(28.5625,29.9375)"/>
<path d="M0 0 C1.98 0 3.96 0 6 0 C5.814375 0.763125 5.62875 1.52625 5.4375 2.3125 C4.77180827 5.08967375 4.77180827 5.08967375 6 8 C4 8 4 8 2.375 6.5 C1.92125 6.005 1.4675 5.51 1 5 C0.67 5.99 0.34 6.98 0 8 C0 5.36 0 2.72 0 0 Z " fill="#503100" transform="translate(48,30)"/>
</svg>
