<svg width="100" height="100" viewBox="0 0 100 100" fill="none" xmlns="http://www.w3.org/2000/svg">
<rect width="100" height="100" fill="#F89A00"/>
<path d="M8.2706 44.017V42.4545H19.1797V44.017H14.6058V57H12.8445V44.017H8.2706ZM21.8981 57V42.4545H26.8129C27.9492 42.4545 28.882 42.6487 29.6112 43.0369C30.3403 43.4205 30.8801 43.9484 31.2305 44.6207C31.5808 45.2931 31.756 46.0578 31.756 46.9148C31.756 47.7718 31.5808 48.5317 31.2305 49.1946C30.8801 49.8575 30.3427 50.3783 29.6183 50.7571C28.8938 51.1312 27.9682 51.3182 26.8413 51.3182H22.864V49.7273H26.7844C27.561 49.7273 28.186 49.6136 28.6594 49.3864C29.1377 49.1591 29.4833 48.8371 29.6964 48.4205C29.9142 47.9991 30.0231 47.4972 30.0231 46.9148C30.0231 46.3324 29.9142 45.8234 29.6964 45.3878C29.4786 44.9522 29.1306 44.616 28.6523 44.3793C28.1741 44.1378 27.542 44.017 26.756 44.017H23.6594V57H21.8981ZM28.7447 50.4659L32.3242 57H30.2788L26.756 50.4659H28.7447ZM36.4524 42.4545V57H34.6911V42.4545H36.4524ZM49.9272 47C49.771 46.5218 49.565 46.0933 49.3093 45.7145C49.0584 45.331 48.7577 45.0043 48.4073 44.7344C48.0617 44.4645 47.6687 44.2585 47.2283 44.1165C46.788 43.9744 46.305 43.9034 45.7795 43.9034C44.9177 43.9034 44.1341 44.1259 43.4286 44.571C42.7231 45.0161 42.1621 45.6719 41.7454 46.5384C41.3287 47.4048 41.1204 48.4678 41.1204 49.7273C41.1204 50.9867 41.3311 52.0497 41.7525 52.9162C42.1739 53.7827 42.7444 54.4384 43.4641 54.8835C44.1838 55.3286 44.9935 55.5511 45.8931 55.5511C46.7264 55.5511 47.4603 55.3736 48.0948 55.0185C48.734 54.6586 49.2312 54.152 49.5863 53.4986C49.9461 52.8404 50.1261 52.0663 50.1261 51.1761L50.6658 51.2898H46.2908V49.7273H51.8306V51.2898C51.8306 52.4877 51.5749 53.5294 51.0636 54.4148C50.5569 55.3002 49.8562 55.9867 48.9613 56.4744C48.0711 56.9574 47.0484 57.1989 45.8931 57.1989C44.6052 57.1989 43.4736 56.8958 42.4982 56.2898C41.5276 55.6837 40.77 54.822 40.2255 53.7045C39.6857 52.5871 39.4158 51.2614 39.4158 49.7273C39.4158 48.5767 39.5697 47.5421 39.8775 46.6236C40.19 45.7003 40.6303 44.9143 41.1985 44.2656C41.7667 43.617 42.439 43.1198 43.2156 42.7741C43.9921 42.4285 44.8467 42.2557 45.7795 42.2557C46.5465 42.2557 47.2615 42.3717 47.9244 42.6037C48.592 42.831 49.1862 43.1553 49.707 43.5767C50.2326 43.9934 50.6706 44.4929 51.021 45.0753C51.3713 45.6529 51.6128 46.2945 51.7454 47H49.9272ZM64.7905 47C64.6342 46.5218 64.4283 46.0933 64.1726 45.7145C63.9216 45.331 63.621 45.0043 63.2706 44.7344C62.925 44.4645 62.532 44.2585 62.0916 44.1165C61.6513 43.9744 61.1683 43.9034 60.6428 43.9034C59.781 43.9034 58.9974 44.1259 58.2919 44.571C57.5864 45.0161 57.0253 45.6719 56.6087 46.5384C56.192 47.4048 55.9837 48.4678 55.9837 49.7273C55.9837 50.9867 56.1944 52.0497 56.6158 52.9162C57.0372 53.7827 57.6077 54.4384 58.3274 54.8835C59.0471 55.3286 59.8568 55.5511 60.7564 55.5511C61.5897 55.5511 62.3236 55.3736 62.9581 55.0185C63.5973 54.6586 64.0945 54.152 64.4496 53.4986C64.8094 52.8404 64.9893 52.0663 64.9893 51.1761L65.5291 51.2898H61.1541V49.7273H66.6939V51.2898C66.6939 52.4877 66.4382 53.5294 65.9268 54.4148C65.4202 55.3002 64.7195 55.9867 63.8246 56.4744C62.9344 56.9574 61.9117 57.1989 60.7564 57.1989C59.4685 57.1989 58.3369 56.8958 57.3615 56.2898C56.3909 55.6837 55.6333 54.822 55.0888 53.7045C54.549 52.5871 54.2791 51.2614 54.2791 49.7273C54.2791 48.5767 54.433 47.5421 54.7408 46.6236C55.0533 45.7003 55.4936 44.9143 56.0618 44.2656C56.63 43.617 57.3023 43.1198 58.0788 42.7741C58.8554 42.4285 59.71 42.2557 60.6428 42.2557C61.4098 42.2557 62.1248 42.3717 62.7876 42.6037C63.4553 42.831 64.0495 43.1553 64.5703 43.5767C65.0959 43.9934 65.5339 44.4929 65.8842 45.0753C66.2346 45.6529 66.4761 46.2945 66.6087 47H64.7905ZM69.7106 57V42.4545H78.489V44.017H71.4719V48.9318H78.0344V50.4943H71.4719V55.4375H78.6026V57H69.7106ZM81.6637 57V42.4545H86.5785C87.7148 42.4545 88.6476 42.6487 89.3768 43.0369C90.1059 43.4205 90.6457 43.9484 90.9961 44.6207C91.3465 45.2931 91.5217 46.0578 91.5217 46.9148C91.5217 47.7718 91.3465 48.5317 90.9961 49.1946C90.6457 49.8575 90.1083 50.3783 89.3839 50.7571C88.6594 51.1312 87.7338 51.3182 86.6069 51.3182H82.6296V49.7273H86.5501C87.3266 49.7273 87.9516 49.6136 88.4251 49.3864C88.9033 49.1591 89.2489 48.8371 89.462 48.4205C89.6798 47.9991 89.7887 47.4972 89.7887 46.9148C89.7887 46.3324 89.6798 45.8234 89.462 45.3878C89.2442 44.9522 88.8962 44.616 88.418 44.3793C87.9397 44.1378 87.3076 44.017 86.5217 44.017H83.4251V57H81.6637ZM88.5103 50.4659L92.0898 57H90.0444L86.5217 50.4659H88.5103Z" fill="black"/>
</svg>
