<svg width="100" height="100" viewBox="0 0 100 100" fill="none" xmlns="http://www.w3.org/2000/svg">
<rect width="100" height="100" fill="#F89A00"/>
<path d="M7.27521 44.3438V42.4545H18.5323V44.3438H13.994V57H11.8065V44.3438H7.27521ZM21.0199 57V42.4545H26.2045C27.3314 42.4545 28.2666 42.6487 29.0099 43.0369C29.758 43.4252 30.3168 43.9626 30.6861 44.6491C31.0554 45.331 31.2401 46.1193 31.2401 47.0142C31.2401 47.9044 31.053 48.688 30.679 49.3651C30.3097 50.0374 29.7509 50.5606 29.0028 50.9347C28.2595 51.3087 27.3243 51.4957 26.1974 51.4957H22.2699V49.6065H25.9986C26.7088 49.6065 27.2865 49.5047 27.7315 49.3011C28.1813 49.0975 28.5104 48.8016 28.7188 48.4134C28.9271 48.0251 29.0312 47.5587 29.0312 47.0142C29.0312 46.465 28.9247 45.9891 28.7116 45.5866C28.5033 45.1842 28.1742 44.8764 27.7244 44.6634C27.2794 44.4455 26.6946 44.3366 25.9702 44.3366H23.2145V57H21.0199ZM28.2003 50.4375L31.794 57H29.294L25.7713 50.4375H28.2003ZM36.1051 42.4545V57H33.9105V42.4545H36.1051ZM49.1449 47.0497C49.0076 46.6188 48.8229 46.233 48.5909 45.892C48.3636 45.5464 48.0914 45.2528 47.7741 45.0114C47.4569 44.7652 47.0947 44.5781 46.6875 44.4503C46.285 44.3224 45.8423 44.2585 45.3594 44.2585C44.5402 44.2585 43.8016 44.4692 43.1435 44.8906C42.4853 45.312 41.9645 45.9299 41.581 46.7443C41.2022 47.554 41.0128 48.5459 41.0128 49.7202C41.0128 50.8991 41.2045 51.8958 41.5881 52.7102C41.9716 53.5246 42.4972 54.1425 43.1648 54.5639C43.8324 54.9853 44.5923 55.196 45.4446 55.196C46.2353 55.196 46.9242 55.035 47.5114 54.7131C48.1032 54.3911 48.5601 53.9366 48.8821 53.3494C49.2088 52.7576 49.3722 52.0616 49.3722 51.2614L49.9403 51.3679H45.7784V49.5568H51.4957V51.2116C51.4957 52.4332 51.2353 53.4938 50.7145 54.3935C50.1984 55.2884 49.4834 55.9796 48.5696 56.4673C47.6605 56.955 46.6188 57.1989 45.4446 57.1989C44.1283 57.1989 42.973 56.8958 41.9787 56.2898C40.9891 55.6837 40.2173 54.8243 39.6634 53.7116C39.1094 52.5942 38.8324 51.2685 38.8324 49.7344C38.8324 48.5743 38.9934 47.5327 39.3153 46.6094C39.6373 45.6861 40.0895 44.9025 40.6719 44.2585C41.259 43.6098 41.9479 43.1151 42.7386 42.7741C43.5341 42.4285 44.4029 42.2557 45.3452 42.2557C46.1312 42.2557 46.8627 42.3717 47.5398 42.6037C48.2216 42.8357 48.8277 43.1648 49.358 43.5909C49.893 44.017 50.3357 44.5237 50.6861 45.1108C51.0365 45.6932 51.2732 46.3395 51.3963 47.0497H49.1449ZM64.1254 47.0497C63.988 46.6188 63.8034 46.233 63.5714 45.892C63.3441 45.5464 63.0719 45.2528 62.7546 45.0114C62.4374 44.7652 62.0752 44.5781 61.668 44.4503C61.2655 44.3224 60.8228 44.2585 60.3398 44.2585C59.5207 44.2585 58.7821 44.4692 58.1239 44.8906C57.4658 45.312 56.945 45.9299 56.5614 46.7443C56.1826 47.554 55.9933 48.5459 55.9933 49.7202C55.9933 50.8991 56.185 51.8958 56.5685 52.7102C56.9521 53.5246 57.4776 54.1425 58.1452 54.5639C58.8129 54.9853 59.5728 55.196 60.4251 55.196C61.2158 55.196 61.9047 55.035 62.4918 54.7131C63.0837 54.3911 63.5406 53.9366 63.8626 53.3494C64.1893 52.7576 64.3526 52.0616 64.3526 51.2614L64.9208 51.3679H60.7589V49.5568H66.4762V51.2116C66.4762 52.4332 66.2158 53.4938 65.695 54.3935C65.1789 55.2884 64.4639 55.9796 63.5501 56.4673C62.641 56.955 61.5993 57.1989 60.4251 57.1989C59.1088 57.1989 57.9535 56.8958 56.9592 56.2898C55.9696 55.6837 55.1978 54.8243 54.6438 53.7116C54.0898 52.5942 53.8129 51.2685 53.8129 49.7344C53.8129 48.5743 53.9738 47.5327 54.2958 46.6094C54.6178 45.6861 55.07 44.9025 55.6523 44.2585C56.2395 43.6098 56.9284 43.1151 57.7191 42.7741C58.5146 42.4285 59.3834 42.2557 60.3256 42.2557C61.1116 42.2557 61.8432 42.3717 62.5202 42.6037C63.2021 42.8357 63.8081 43.1648 64.3384 43.5909C64.8735 44.017 65.3162 44.5237 65.6665 45.1108C66.0169 45.6932 66.2537 46.3395 66.3768 47.0497H64.1254ZM69.2621 57V42.4545H78.3814V44.3438H71.4567V48.7756H77.9055V50.6577H71.4567V55.1108H78.4666V57H69.2621ZM81.3129 57V42.4545H86.4975C87.6244 42.4545 88.5595 42.6487 89.3029 43.0369C90.051 43.4252 90.6097 43.9626 90.979 44.6491C91.3484 45.331 91.533 46.1193 91.533 47.0142C91.533 47.9044 91.346 48.688 90.9719 49.3651C90.6026 50.0374 90.0439 50.5606 89.2958 50.9347C88.5524 51.3087 87.6173 51.4957 86.4904 51.4957H82.5629V49.6065H86.2915C87.0018 49.6065 87.5794 49.5047 88.0245 49.3011C88.4743 49.0975 88.8034 48.8016 89.0117 48.4134C89.2201 48.0251 89.3242 47.5587 89.3242 47.0142C89.3242 46.465 89.2177 45.9891 89.0046 45.5866C88.7963 45.1842 88.4672 44.8764 88.0174 44.6634C87.5723 44.4455 86.9876 44.3366 86.2631 44.3366H83.5075V57H81.3129ZM88.4933 50.4375L92.087 57H89.587L86.0643 50.4375H88.4933Z" fill="black"/>
</svg>
