<svg width="763" height="394" viewBox="0 0 763 394" fill="none" xmlns="http://www.w3.org/2000/svg">
<rect width="763" height="394" rx="30" fill="#60AA68"/>
<path d="M35.2727 205V111.909H66.7273C74 111.909 79.9697 113.152 84.6364 115.636C89.303 118.091 92.7576 121.47 95 125.773C97.2424 130.076 98.3636 134.97 98.3636 140.455C98.3636 145.939 97.2424 150.803 95 155.045C92.7576 159.288 89.3182 162.621 84.6818 165.045C80.0455 167.439 74.1212 168.636 66.9091 168.636H41.4545V158.455H66.5455C71.5152 158.455 75.5152 157.727 78.5455 156.273C81.6061 154.818 83.8182 152.758 85.1818 150.091C86.5758 147.394 87.2727 144.182 87.2727 140.455C87.2727 136.727 86.5758 133.47 85.1818 130.682C83.7879 127.894 81.5606 125.742 78.5 124.227C75.4394 122.682 71.3939 121.909 66.3636 121.909H46.5455V205H35.2727ZM79.0909 163.182L102 205H88.9091L66.3636 163.182H79.0909ZM136.239 206.636C131.814 206.636 127.799 205.803 124.193 204.136C120.587 202.439 117.723 200 115.602 196.818C113.481 193.606 112.42 189.727 112.42 185.182C112.42 181.182 113.208 177.939 114.784 175.455C116.36 172.939 118.466 170.97 121.102 169.545C123.739 168.121 126.648 167.061 129.83 166.364C133.042 165.636 136.269 165.061 139.511 164.636C143.754 164.091 147.193 163.682 149.83 163.409C152.496 163.106 154.436 162.606 155.648 161.909C156.89 161.212 157.511 160 157.511 158.273V157.909C157.511 153.424 156.284 149.939 153.83 147.455C151.405 144.97 147.723 143.727 142.784 143.727C137.663 143.727 133.648 144.848 130.739 147.091C127.83 149.333 125.784 151.727 124.602 154.273L114.42 150.636C116.239 146.394 118.663 143.091 121.693 140.727C124.754 138.333 128.087 136.667 131.693 135.727C135.33 134.758 138.905 134.273 142.42 134.273C144.663 134.273 147.239 134.545 150.148 135.091C153.087 135.606 155.92 136.682 158.648 138.318C161.405 139.955 163.693 142.424 165.511 145.727C167.33 149.03 168.239 153.455 168.239 159V205H157.511V195.545H156.966C156.239 197.061 155.027 198.682 153.33 200.409C151.633 202.136 149.375 203.606 146.557 204.818C143.739 206.03 140.299 206.636 136.239 206.636ZM137.875 197C142.117 197 145.693 196.167 148.602 194.5C151.542 192.833 153.754 190.682 155.239 188.045C156.754 185.409 157.511 182.636 157.511 179.727V169.909C157.057 170.455 156.057 170.955 154.511 171.409C152.996 171.833 151.239 172.212 149.239 172.545C147.269 172.848 145.345 173.121 143.466 173.364C141.617 173.576 140.117 173.758 138.966 173.909C136.178 174.273 133.572 174.864 131.148 175.682C128.754 176.47 126.814 177.667 125.33 179.273C123.875 180.848 123.148 183 123.148 185.727C123.148 189.455 124.527 192.273 127.284 194.182C130.072 196.061 133.602 197 137.875 197ZM198.545 163V205H187.818V135.182H198.182V146.091H199.091C200.727 142.545 203.212 139.697 206.545 137.545C209.879 135.364 214.182 134.273 219.455 134.273C224.182 134.273 228.318 135.242 231.864 137.182C235.409 139.091 238.167 142 240.136 145.909C242.106 149.788 243.091 154.697 243.091 160.636V205H232.364V161.364C232.364 155.879 230.939 151.606 228.091 148.545C225.242 145.455 221.333 143.909 216.364 143.909C212.939 143.909 209.879 144.652 207.182 146.136C204.515 147.621 202.409 149.788 200.864 152.636C199.318 155.485 198.545 158.939 198.545 163ZM289.057 206.455C283.239 206.455 278.102 204.985 273.648 202.045C269.193 199.076 265.708 194.894 263.193 189.5C260.678 184.076 259.42 177.667 259.42 170.273C259.42 162.939 260.678 156.576 263.193 151.182C265.708 145.788 269.208 141.621 273.693 138.682C278.178 135.742 283.36 134.273 289.239 134.273C293.784 134.273 297.375 135.03 300.011 136.545C302.678 138.03 304.708 139.727 306.102 141.636C307.527 143.515 308.633 145.061 309.42 146.273H310.33V111.909H321.057V205H310.693V194.273H309.42C308.633 195.545 307.511 197.152 306.057 199.091C304.602 201 302.527 202.712 299.83 204.227C297.133 205.712 293.542 206.455 289.057 206.455ZM290.511 196.818C294.814 196.818 298.451 195.697 301.42 193.455C304.39 191.182 306.648 188.045 308.193 184.045C309.739 180.015 310.511 175.364 310.511 170.091C310.511 164.879 309.754 160.318 308.239 156.409C306.723 152.47 304.481 149.409 301.511 147.227C298.542 145.015 294.875 143.909 290.511 143.909C285.966 143.909 282.178 145.076 279.148 147.409C276.148 149.712 273.89 152.848 272.375 156.818C270.89 160.758 270.148 165.182 270.148 170.091C270.148 175.061 270.905 179.576 272.42 183.636C273.966 187.667 276.239 190.879 279.239 193.273C282.269 195.636 286.027 196.818 290.511 196.818ZM370.557 206.455C364.254 206.455 358.723 204.955 353.966 201.955C349.239 198.955 345.542 194.758 342.875 189.364C340.239 183.97 338.92 177.667 338.92 170.455C338.92 163.182 340.239 156.833 342.875 151.409C345.542 145.985 349.239 141.773 353.966 138.773C358.723 135.773 364.254 134.273 370.557 134.273C376.86 134.273 382.375 135.773 387.102 138.773C391.86 141.773 395.557 145.985 398.193 151.409C400.86 156.833 402.193 163.182 402.193 170.455C402.193 177.667 400.86 183.97 398.193 189.364C395.557 194.758 391.86 198.955 387.102 201.955C382.375 204.955 376.86 206.455 370.557 206.455ZM370.557 196.818C375.345 196.818 379.284 195.591 382.375 193.136C385.466 190.682 387.754 187.455 389.239 183.455C390.723 179.455 391.466 175.121 391.466 170.455C391.466 165.788 390.723 161.439 389.239 157.409C387.754 153.379 385.466 150.121 382.375 147.636C379.284 145.152 375.345 143.909 370.557 143.909C365.769 143.909 361.83 145.152 358.739 147.636C355.648 150.121 353.36 153.379 351.875 157.409C350.39 161.439 349.648 165.788 349.648 170.455C349.648 175.121 350.39 179.455 351.875 183.455C353.36 187.455 355.648 190.682 358.739 193.136C361.83 195.591 365.769 196.818 370.557 196.818ZM418.568 205V135.182H428.932V146.091H429.841C431.295 142.364 433.644 139.47 436.886 137.409C440.129 135.318 444.023 134.273 448.568 134.273C453.174 134.273 457.008 135.318 460.068 137.409C463.159 139.47 465.568 142.364 467.295 146.091H468.023C469.811 142.485 472.492 139.621 476.068 137.5C479.644 135.348 483.932 134.273 488.932 134.273C495.174 134.273 500.28 136.227 504.25 140.136C508.22 144.015 510.205 150.061 510.205 158.273V205H499.477V158.273C499.477 153.121 498.068 149.439 495.25 147.227C492.432 145.015 489.114 143.909 485.295 143.909C480.386 143.909 476.583 145.394 473.886 148.364C471.189 151.303 469.841 155.03 469.841 159.545V205H458.932V157.182C458.932 153.212 457.644 150.015 455.068 147.591C452.492 145.136 449.174 143.909 445.114 143.909C442.326 143.909 439.72 144.652 437.295 146.136C434.902 147.621 432.962 149.682 431.477 152.318C430.023 154.924 429.295 157.939 429.295 161.364V205H418.568ZM529.818 205V135.182H540.545V205H529.818ZM535.273 123.545C533.182 123.545 531.379 122.833 529.864 121.409C528.379 119.985 527.636 118.273 527.636 116.273C527.636 114.273 528.379 112.561 529.864 111.136C531.379 109.712 533.182 109 535.273 109C537.364 109 539.152 109.712 540.636 111.136C542.152 112.561 542.909 114.273 542.909 116.273C542.909 118.273 542.152 119.985 540.636 121.409C539.152 122.833 537.364 123.545 535.273 123.545ZM609.648 150.818L600.011 153.545C599.405 151.939 598.511 150.379 597.33 148.864C596.178 147.318 594.602 146.045 592.602 145.045C590.602 144.045 588.042 143.545 584.92 143.545C580.648 143.545 577.087 144.53 574.239 146.5C571.42 148.439 570.011 150.909 570.011 153.909C570.011 156.576 570.981 158.682 572.92 160.227C574.86 161.773 577.89 163.061 582.011 164.091L592.375 166.636C598.617 168.152 603.269 170.47 606.33 173.591C609.39 176.682 610.92 180.667 610.92 185.545C610.92 189.545 609.769 193.121 607.466 196.273C605.193 199.424 602.011 201.909 597.92 203.727C593.83 205.545 589.072 206.455 583.648 206.455C576.527 206.455 570.633 204.909 565.966 201.818C561.299 198.727 558.345 194.212 557.102 188.273L567.284 185.727C568.254 189.485 570.087 192.303 572.784 194.182C575.511 196.061 579.072 197 583.466 197C588.466 197 592.436 195.939 595.375 193.818C598.345 191.667 599.83 189.091 599.83 186.091C599.83 183.667 598.981 181.636 597.284 180C595.587 178.333 592.981 177.091 589.466 176.273L577.83 173.545C571.436 172.03 566.739 169.682 563.739 166.5C560.769 163.288 559.284 159.273 559.284 154.455C559.284 150.515 560.39 147.03 562.602 144C564.845 140.97 567.89 138.591 571.739 136.864C575.617 135.136 580.011 134.273 584.92 134.273C591.83 134.273 597.254 135.788 601.193 138.818C605.163 141.848 607.981 145.848 609.648 150.818ZM656.341 206.455C649.614 206.455 643.811 204.97 638.932 202C634.083 199 630.341 194.818 627.705 189.455C625.098 184.061 623.795 177.788 623.795 170.636C623.795 163.485 625.098 157.182 627.705 151.727C630.341 146.242 634.008 141.97 638.705 138.909C643.432 135.818 648.947 134.273 655.25 134.273C658.886 134.273 662.477 134.879 666.023 136.091C669.568 137.303 672.795 139.273 675.705 142C678.614 144.697 680.932 148.273 682.659 152.727C684.386 157.182 685.25 162.667 685.25 169.182V173.727H631.432V164.455H674.341C674.341 160.515 673.553 157 671.977 153.909C670.432 150.818 668.22 148.379 665.341 146.591C662.492 144.803 659.129 143.909 655.25 143.909C650.977 143.909 647.28 144.97 644.159 147.091C641.068 149.182 638.689 151.909 637.023 155.273C635.356 158.636 634.523 162.242 634.523 166.091V172.273C634.523 177.545 635.432 182.015 637.25 185.682C639.098 189.318 641.659 192.091 644.932 194C648.205 195.879 652.008 196.818 656.341 196.818C659.159 196.818 661.705 196.424 663.977 195.636C666.28 194.818 668.265 193.606 669.932 192C671.598 190.364 672.886 188.333 673.795 185.909L684.159 188.818C683.068 192.333 681.235 195.424 678.659 198.091C676.083 200.727 672.902 202.788 669.114 204.273C665.326 205.727 661.068 206.455 656.341 206.455ZM701.568 205V135.182H711.932V145.727H712.659C713.932 142.273 716.235 139.47 719.568 137.318C722.902 135.167 726.659 134.091 730.841 134.091C731.629 134.091 732.614 134.106 733.795 134.136C734.977 134.167 735.871 134.212 736.477 134.273V145.182C736.114 145.091 735.28 144.955 733.977 144.773C732.705 144.561 731.356 144.455 729.932 144.455C726.538 144.455 723.508 145.167 720.841 146.591C718.205 147.985 716.114 149.924 714.568 152.409C713.053 154.864 712.295 157.667 712.295 160.818V205H701.568Z" fill="white"/>
</svg>
