<svg width="2164" height="1117" viewBox="0 0 2164 1117" fill="none" xmlns="http://www.w3.org/2000/svg">
<rect width="2163.1" height="1116.99" rx="85.05" fill="#171717"/>
<path d="M493.806 580.635L421.642 316.722H454.116L509.269 531.667H511.847L568.031 316.722H604.113L660.297 531.667H662.875L718.028 316.722H750.502L678.338 580.635H645.349L587.103 370.329H585.041L526.795 580.635H493.806ZM826.016 585.274C813.473 585.274 802.09 582.911 791.867 578.186C781.644 573.375 773.526 566.46 767.512 557.439C761.498 548.333 758.491 537.337 758.491 524.45C758.491 513.11 760.725 503.918 765.192 496.873C769.66 489.743 775.63 484.159 783.104 480.121C790.579 476.083 798.826 473.077 807.846 471.101C816.953 469.039 826.102 467.407 835.294 466.204C847.321 464.657 857.072 463.498 864.546 462.725C872.106 461.865 877.604 460.448 881.041 458.472C884.563 456.496 886.324 453.06 886.324 448.163V447.132C886.324 434.417 882.845 424.538 875.886 417.493C869.014 410.449 858.576 406.927 844.572 406.927C830.054 406.927 818.671 410.105 810.424 416.463C802.176 422.82 796.377 429.607 793.027 436.823L764.161 426.514C769.316 414.487 776.189 405.122 784.78 398.422C793.456 391.635 802.906 386.91 813.13 384.247C823.439 381.498 833.576 380.123 843.541 380.123C849.899 380.123 857.201 380.896 865.448 382.442C873.781 383.903 881.814 386.953 889.546 391.592C897.364 396.231 903.85 403.233 909.004 412.597C914.159 421.961 916.736 434.503 916.736 450.225V580.635H886.324V553.831H884.778C882.716 558.127 879.28 562.723 874.469 567.62C869.658 572.516 863.258 576.683 855.268 580.119C847.279 583.556 837.528 585.274 826.016 585.274ZM830.655 557.955C842.682 557.955 852.82 555.592 861.067 550.867C869.4 546.142 875.671 540.043 879.881 532.569C884.176 525.095 886.324 517.234 886.324 508.987V481.152C885.036 482.698 882.201 484.116 877.819 485.405C873.524 486.607 868.541 487.681 862.871 488.626C857.287 489.485 851.832 490.258 846.505 490.946C841.265 491.547 837.012 492.062 833.748 492.492C825.844 493.523 818.456 495.198 811.583 497.518C804.796 499.751 799.298 503.145 795.089 507.698C790.965 512.165 788.903 518.265 788.903 525.997C788.903 536.563 792.812 544.553 800.63 549.965C808.534 555.292 818.542 557.955 830.655 557.955ZM1002.66 316.722V580.635H972.244V316.722H1002.66ZM1086.71 508.471L1086.19 470.843H1092.38L1178.97 382.7H1216.6L1124.34 475.997H1121.76L1086.71 508.471ZM1058.36 580.635V316.722H1088.77V580.635H1058.36ZM1184.13 580.635L1106.81 482.698L1128.46 461.565L1222.79 580.635H1184.13ZM1255.74 580.635V382.7H1286.16V580.635H1255.74ZM1271.21 349.711C1265.28 349.711 1260.17 347.692 1255.87 343.655C1251.66 339.617 1249.56 334.763 1249.56 329.093C1249.56 323.423 1251.66 318.569 1255.87 314.531C1260.17 310.494 1265.28 308.475 1271.21 308.475C1277.14 308.475 1282.2 310.494 1286.41 314.531C1290.71 318.569 1292.86 323.423 1292.86 329.093C1292.86 334.763 1290.71 339.617 1286.41 343.655C1282.2 347.692 1277.14 349.711 1271.21 349.711ZM1372.27 461.565V580.635H1341.86V382.7H1371.24V413.628H1373.82C1378.45 403.576 1385.5 395.501 1394.95 389.401C1404.4 383.216 1416.6 380.123 1431.55 380.123C1444.95 380.123 1456.67 382.872 1466.73 388.37C1476.78 393.783 1484.6 402.03 1490.18 413.112C1495.76 424.108 1498.56 438.026 1498.56 454.864V580.635H1468.14V456.926C1468.14 441.376 1464.11 429.263 1456.03 420.586C1447.95 411.823 1436.87 407.442 1422.78 407.442C1413.08 407.442 1404.4 409.547 1396.75 413.756C1389.19 417.966 1383.22 424.108 1378.84 432.184C1374.46 440.259 1372.27 450.053 1372.27 461.565ZM1634.02 658.984C1619.33 658.984 1606.7 657.094 1596.14 653.314C1585.57 649.62 1576.76 644.723 1569.72 638.623C1562.76 632.61 1557.22 626.167 1553.1 619.294L1577.32 602.284C1580.07 605.892 1583.55 610.016 1587.76 614.655C1591.97 619.38 1597.73 623.46 1605.03 626.897C1612.42 630.419 1622.08 632.18 1634.02 632.18C1650 632.18 1663.19 628.314 1673.58 620.582C1683.98 612.851 1689.18 600.737 1689.18 584.243V544.037H1686.6C1684.37 547.646 1681.19 552.113 1677.06 557.439C1673.03 562.68 1667.18 567.362 1659.54 571.485C1651.98 575.523 1641.76 577.542 1628.87 577.542C1612.89 577.542 1598.54 573.762 1585.83 566.202C1573.2 558.642 1563.19 547.646 1555.8 533.213C1548.5 518.78 1544.85 501.255 1544.85 480.637C1544.85 460.362 1548.41 442.708 1555.55 427.674C1562.68 412.554 1572.6 400.87 1585.31 392.623C1598.03 384.29 1612.72 380.123 1629.38 380.123C1642.27 380.123 1652.49 382.271 1660.05 386.566C1667.7 390.776 1673.54 395.587 1677.58 400.999C1681.7 406.325 1684.88 410.707 1687.12 414.143H1690.21V382.7H1719.59V586.305C1719.59 603.315 1715.72 617.146 1707.99 627.799C1700.35 638.537 1690.04 646.398 1677.06 651.381C1664.18 656.45 1649.83 658.984 1634.02 658.984ZM1632.99 550.223C1645.19 550.223 1655.5 547.431 1663.92 541.847C1672.34 536.263 1678.74 528.23 1683.12 517.749C1687.5 507.268 1689.69 494.726 1689.69 480.121C1689.69 465.86 1687.54 453.275 1683.25 442.364C1678.95 431.454 1672.6 422.906 1664.18 416.72C1655.76 410.535 1645.36 407.442 1632.99 407.442C1620.11 407.442 1609.37 410.707 1600.78 417.236C1592.27 423.765 1585.87 432.528 1581.58 443.524C1577.37 454.52 1575.26 466.719 1575.26 480.121C1575.26 493.867 1577.41 506.023 1581.7 516.59C1586.09 527.07 1592.53 535.318 1601.03 541.331C1609.63 547.259 1620.28 550.223 1632.99 550.223Z" fill="white"/>
<rect width="2163.1" height="1116.99" rx="85.05" fill="#171717"/>
<rect x="179" y="234" width="1805" height="399" rx="44" fill="#FF0000"/>
<path d="M645.277 499V368.091H691.044C700.164 368.091 707.685 369.668 713.608 372.821C719.532 375.932 723.942 380.129 726.84 385.413C729.737 390.655 731.186 396.472 731.186 402.864C731.186 408.489 730.185 413.134 728.182 416.798C726.222 420.463 723.622 423.361 720.384 425.491C717.188 427.622 713.715 429.199 709.965 430.222V431.5C713.97 431.756 717.997 433.162 722.046 435.719C726.094 438.276 729.482 441.94 732.209 446.713C734.936 451.486 736.3 457.324 736.3 464.227C736.3 470.79 734.809 476.692 731.826 481.933C728.843 487.175 724.134 491.33 717.699 494.398C711.264 497.466 702.891 499 692.578 499H645.277ZM661.13 484.938H692.578C702.934 484.938 710.284 482.935 714.631 478.929C719.02 474.881 721.215 469.98 721.215 464.227C721.215 459.795 720.086 455.705 717.827 451.955C715.568 448.162 712.351 445.136 708.175 442.878C703.999 440.577 699.056 439.426 693.345 439.426H661.13V484.938ZM661.13 425.619H690.533C695.306 425.619 699.61 424.682 703.445 422.807C707.323 420.932 710.391 418.29 712.649 414.881C714.951 411.472 716.101 407.466 716.101 402.864C716.101 397.111 714.098 392.232 710.093 388.226C706.087 384.178 699.737 382.153 691.044 382.153H661.13V425.619ZM941.857 368.091H957.709V454.767C957.709 463.716 955.6 471.706 951.381 478.737C947.205 485.726 941.303 491.244 933.675 495.293C926.047 499.298 917.098 501.301 906.828 501.301C896.558 501.301 887.61 499.298 879.982 495.293C872.354 491.244 866.431 485.726 862.212 478.737C858.036 471.706 855.948 463.716 855.948 454.767V368.091H871.8V453.489C871.8 459.881 873.206 465.57 876.019 470.555C878.831 475.499 882.837 479.398 888.036 482.253C893.277 485.065 899.541 486.472 906.828 486.472C914.115 486.472 920.379 485.065 925.621 482.253C930.862 479.398 934.868 475.499 937.638 470.555C940.45 465.57 941.857 459.881 941.857 453.489V368.091ZM1098.82 368.091V499H1082.97V368.091H1098.82ZM1224.2 499V368.091H1240.05V484.938H1300.91V499H1224.2ZM1459.45 499H1419.05V368.091H1461.24C1473.94 368.091 1484.81 370.712 1493.84 375.953C1502.87 381.152 1509.8 388.631 1514.61 398.389C1519.43 408.105 1521.84 419.739 1521.84 433.29C1521.84 446.926 1519.41 458.666 1514.55 468.51C1509.69 478.311 1502.62 485.854 1493.33 491.138C1484.04 496.379 1472.75 499 1459.45 499ZM1434.9 484.938H1458.43C1469.25 484.938 1478.22 482.849 1485.34 478.673C1492.45 474.497 1497.76 468.553 1501.25 460.839C1504.75 453.126 1506.5 443.943 1506.5 433.29C1506.5 422.722 1504.77 413.624 1501.32 405.996C1497.87 398.325 1492.71 392.445 1485.85 388.354C1478.99 384.22 1470.44 382.153 1460.22 382.153H1434.9V484.938Z" fill="black"/>
</svg>
