<svg width="2150" height="1110" viewBox="0 0 2150 1110" fill="none" xmlns="http://www.w3.org/2000/svg">
<rect width="2149.59" height="1110.01" rx="84.5184" fill="#171717"/>
<path d="M490.716 577.191L419.004 314.928H451.274L506.083 528.529H508.645L564.478 314.928H600.334L656.168 528.529H658.729L713.538 314.928H745.808L674.096 577.191H641.313L583.431 368.2H581.382L523.499 577.191H490.716ZM820.851 581.802C808.386 581.802 797.074 579.454 786.915 574.758C776.756 569.977 768.688 563.105 762.712 554.141C756.736 545.091 753.748 534.164 753.748 521.358C753.748 510.089 755.968 500.954 760.407 493.954C764.846 486.868 770.78 481.318 778.207 477.306C785.635 473.293 793.83 470.305 802.794 468.342C811.844 466.293 820.936 464.671 830.071 463.476C842.023 461.939 851.713 460.786 859.14 460.018C866.653 459.164 872.116 457.756 875.531 455.792C879.032 453.829 880.782 450.414 880.782 445.548V444.523C880.782 431.888 877.324 422.07 870.409 415.07C863.579 408.069 853.207 404.569 839.291 404.569C824.863 404.569 813.551 407.728 805.355 414.045C797.16 420.363 791.397 427.107 788.068 434.278L759.383 424.034C764.505 412.082 771.335 402.776 779.872 396.117C788.494 389.373 797.885 384.677 808.045 382.031C818.289 379.299 828.363 377.933 838.266 377.933C844.584 377.933 851.841 378.701 860.036 380.238C868.317 381.689 876.3 384.72 883.983 389.33C891.752 393.94 898.198 400.898 903.32 410.203C908.442 419.509 911.004 431.973 911.004 447.596V577.191H880.782V550.555H879.245C877.196 554.824 873.781 559.391 869 564.258C864.22 569.124 857.859 573.264 849.92 576.679C841.98 580.094 832.29 581.802 820.851 581.802ZM825.461 554.653C837.413 554.653 847.487 552.305 855.682 547.61C863.963 542.914 870.196 536.853 874.379 529.426C878.647 521.998 880.782 514.187 880.782 505.991V478.33C879.501 479.867 876.684 481.276 872.33 482.556C868.061 483.752 863.11 484.819 857.475 485.758C851.926 486.612 846.505 487.38 841.212 488.063C836.004 488.66 831.778 489.173 828.534 489.6C820.68 490.624 813.338 492.289 806.508 494.594C799.764 496.814 794.3 500.186 790.117 504.71C786.019 509.15 783.97 515.211 783.97 522.895C783.97 533.395 787.854 541.335 795.623 546.714C803.477 552.007 813.423 554.653 825.461 554.653ZM996.386 314.928V577.191H966.165V314.928H996.386ZM1079.91 505.479L1079.4 468.086H1085.55L1171.6 380.494H1209L1117.31 473.208H1114.74L1079.91 505.479ZM1051.74 577.191V314.928H1081.96V577.191H1051.74ZM1176.72 577.191L1099.89 479.867L1121.4 458.866L1215.14 577.191H1176.72ZM1247.89 577.191V380.494H1278.11V577.191H1247.89ZM1263.26 347.711C1257.37 347.711 1252.29 345.705 1248.02 341.692C1243.84 337.68 1241.75 332.856 1241.75 327.222C1241.75 321.587 1243.84 316.764 1248.02 312.751C1252.29 308.739 1257.37 306.732 1263.26 306.732C1269.15 306.732 1274.19 308.739 1278.37 312.751C1282.64 316.764 1284.77 321.587 1284.77 327.222C1284.77 332.856 1282.64 337.68 1278.37 341.692C1274.19 345.705 1269.15 347.711 1263.26 347.711ZM1363.69 458.866V577.191H1333.47V380.494H1362.66V411.228H1365.23C1369.84 401.239 1376.84 393.214 1386.23 387.153C1395.62 381.006 1407.74 377.933 1422.6 377.933C1435.91 377.933 1447.57 380.665 1457.56 386.129C1467.54 391.507 1475.31 399.703 1480.86 410.716C1486.41 421.643 1489.19 435.474 1489.19 452.207V577.191H1458.96V454.256C1458.96 438.803 1454.95 426.766 1446.93 418.143C1438.9 409.435 1427.89 405.081 1413.89 405.081C1404.24 405.081 1395.62 407.173 1388.02 411.356C1380.51 415.539 1374.57 421.643 1370.22 429.668C1365.87 437.693 1363.69 447.426 1363.69 458.866ZM1623.81 655.051C1609.21 655.051 1596.66 653.173 1586.16 649.416C1575.66 645.745 1566.91 640.879 1559.91 634.818C1552.99 628.842 1547.48 622.439 1543.39 615.609L1567.46 598.705C1570.19 602.291 1573.65 606.389 1577.83 610.999C1582.02 615.694 1587.74 619.749 1594.99 623.164C1602.34 626.665 1611.94 628.415 1623.81 628.415C1639.69 628.415 1652.79 624.573 1663.12 616.889C1673.45 609.206 1678.62 597.168 1678.62 580.777V540.823H1676.06C1673.84 544.408 1670.68 548.848 1666.58 554.141C1662.57 559.349 1656.76 564.001 1649.16 568.099C1641.65 572.112 1631.49 574.118 1618.69 574.118C1602.81 574.118 1588.55 570.362 1575.91 562.849C1563.36 555.336 1553.42 544.408 1546.08 530.066C1538.82 515.723 1535.19 498.308 1535.19 477.818C1535.19 457.67 1538.73 440.126 1545.82 425.186C1552.91 410.161 1562.77 398.55 1575.4 390.354C1588.04 382.073 1602.64 377.933 1619.2 377.933C1632 377.933 1642.16 380.067 1649.68 384.336C1657.27 388.519 1663.08 393.3 1667.09 398.678C1671.19 403.971 1674.35 408.325 1676.57 411.74H1679.64V380.494H1708.84V582.826C1708.84 599.73 1705 613.475 1697.31 624.061C1689.71 634.732 1679.47 642.544 1666.58 647.495C1653.77 652.532 1639.52 655.051 1623.81 655.051ZM1622.78 546.97C1634.91 546.97 1645.15 544.195 1653.52 538.646C1661.88 533.097 1668.24 525.114 1672.6 514.699C1676.95 504.284 1679.13 491.819 1679.13 477.306C1679.13 463.134 1676.99 450.627 1672.73 439.785C1668.46 428.943 1662.14 420.448 1653.77 414.301C1645.41 408.155 1635.08 405.081 1622.78 405.081C1609.98 405.081 1599.31 408.325 1590.77 414.814C1582.32 421.302 1575.96 430.01 1571.69 440.937C1567.5 451.865 1565.41 463.988 1565.41 477.306C1565.41 490.966 1567.55 503.046 1571.82 513.546C1576.17 523.962 1582.57 532.158 1591.02 538.134C1599.56 544.024 1610.15 546.97 1622.78 546.97Z" fill="white"/>
<rect width="2149.59" height="1110.01" rx="84.5184" fill="#171717"/>
<rect x="177.881" y="232.539" width="1793.72" height="396.506" rx="43.725" fill="#FF0000"/>
<path d="M641.069 495.969V365.878H686.55C695.612 365.878 703.087 367.445 708.973 370.578C714.859 373.67 719.242 377.841 722.122 383.092C725.001 388.301 726.441 394.081 726.441 400.433C726.441 406.023 725.446 410.639 723.456 414.281C721.508 417.923 718.924 420.802 715.706 422.92C712.53 425.037 709.079 426.604 705.352 427.62V428.891C709.333 429.145 713.335 430.542 717.358 433.083C721.381 435.624 724.747 439.266 727.457 444.009C730.168 448.752 731.523 454.553 731.523 461.413C731.523 467.935 730.041 473.8 727.076 479.009C724.112 484.217 719.433 488.346 713.038 491.395C706.644 494.444 698.322 495.969 688.074 495.969H641.069ZM656.822 481.994H688.074C698.365 481.994 705.67 480.004 709.989 476.023C714.351 472 716.532 467.13 716.532 461.413C716.532 457.009 715.41 452.944 713.165 449.217C710.921 445.448 707.724 442.442 703.574 440.197C699.423 437.911 694.511 436.767 688.837 436.767H656.822V481.994ZM656.822 423.047H686.042C690.785 423.047 695.062 422.115 698.873 420.252C702.727 418.388 705.776 415.763 708.02 412.375C710.307 408.987 711.45 405.007 711.45 400.433C711.45 394.716 709.46 389.868 705.479 385.887C701.499 381.864 695.189 379.852 686.55 379.852H656.822V423.047ZM935.795 365.878H951.548V452.012C951.548 460.905 949.452 468.845 945.259 475.833C941.109 482.778 935.244 488.262 927.664 492.285C920.084 496.265 911.191 498.256 900.985 498.256C890.78 498.256 881.887 496.265 874.306 492.285C866.726 488.262 860.84 482.778 856.648 475.833C852.498 468.845 850.423 460.905 850.423 452.012V365.878H866.176V450.742C866.176 457.094 867.573 462.747 870.368 467.702C873.163 472.614 877.144 476.489 882.31 479.326C887.519 482.121 893.744 483.519 900.985 483.519C908.227 483.519 914.452 482.121 919.66 479.326C924.869 476.489 928.85 472.614 931.602 467.702C934.397 462.747 935.795 457.094 935.795 450.742V365.878ZM1091.77 365.878V495.969H1076.02V365.878H1091.77ZM1216.38 495.969V365.878H1232.13V481.994H1292.6V495.969H1216.38ZM1450.15 495.969H1410.01V365.878H1451.93C1464.55 365.878 1475.35 368.482 1484.33 373.691C1493.3 378.857 1500.19 386.289 1504.97 395.987C1509.76 405.642 1512.15 417.203 1512.15 430.669C1512.15 444.22 1509.74 455.887 1504.91 465.669C1500.08 475.409 1493.05 482.905 1483.82 488.156C1474.59 493.364 1463.37 495.969 1450.15 495.969ZM1425.76 481.994H1449.14C1459.89 481.994 1468.81 479.919 1475.88 475.769C1482.95 471.619 1488.22 465.712 1491.7 458.047C1495.17 450.382 1496.9 441.256 1496.9 430.669C1496.9 420.167 1495.19 411.126 1491.76 403.546C1488.33 395.923 1483.21 390.079 1476.39 386.014C1469.57 381.906 1461.08 379.852 1450.92 379.852H1425.76V481.994Z" fill="black"/>
</svg>
