<svg width="2885" height="1490" viewBox="0 0 2885 1490" fill="none" xmlns="http://www.w3.org/2000/svg">
<rect width="2884.14" height="1489.32" rx="113.4" fill="url(#paint0_linear_376_954)"/>
<path d="M1110.51 511.267C1108.45 493.856 1100.09 480.34 1085.43 470.718C1070.76 461.096 1052.78 456.285 1031.48 456.285C1015.9 456.285 1002.27 458.805 990.582 463.845C979.013 468.885 969.964 475.815 963.435 484.635C957.02 493.455 953.813 503.478 953.813 514.703C953.813 524.096 956.047 532.172 960.514 538.93C965.096 545.573 970.938 551.129 978.04 555.596C985.141 559.949 992.587 563.557 1000.38 566.421C1008.17 569.17 1015.32 571.403 1021.85 573.122L1057.59 582.743C1066.76 585.149 1076.95 588.471 1088.18 592.709C1099.52 596.947 1110.34 602.732 1120.65 610.062C1131.07 617.279 1139.66 626.557 1146.42 637.897C1153.18 649.237 1156.56 663.154 1156.56 679.649C1156.56 698.663 1151.58 715.845 1141.61 731.194C1131.76 746.543 1117.33 758.742 1098.31 767.792C1079.41 776.841 1056.45 781.365 1029.41 781.365C1004.21 781.365 982.392 777.299 963.95 769.166C945.623 761.033 931.19 749.693 920.652 735.146C910.229 720.599 904.33 703.703 902.955 684.46H946.94C948.086 697.747 952.553 708.743 960.342 717.449C968.246 726.04 978.211 732.454 990.239 736.692C1002.38 740.816 1015.44 742.878 1029.41 742.878C1045.68 742.878 1060.28 740.243 1073.23 734.974C1086.17 729.591 1096.42 722.145 1103.98 712.638C1111.54 703.016 1115.32 691.791 1115.32 678.962C1115.32 667.278 1112.06 657.771 1105.53 650.44C1099 643.109 1090.41 637.152 1079.76 632.571C1069.1 627.989 1057.59 623.98 1045.22 620.543L1001.92 608.172C974.431 600.269 952.668 588.986 936.631 574.324C920.595 559.662 912.577 540.476 912.577 516.765C912.577 497.063 917.903 479.882 928.556 465.22C939.323 450.443 953.756 438.989 971.854 430.856C990.067 422.609 1010.4 418.485 1032.85 418.485C1055.53 418.485 1075.69 422.552 1093.33 430.684C1110.97 438.702 1124.94 449.699 1135.25 463.673C1145.68 477.648 1151.18 493.512 1151.75 511.267H1110.51ZM1335.89 511.267V545.631H1199.13V511.267H1335.89ZM1238.99 448.038H1279.54V699.58C1279.54 711.034 1281.2 719.625 1284.52 725.352C1287.96 730.965 1292.31 734.745 1297.58 736.692C1302.96 738.525 1308.63 739.442 1314.59 739.442C1319.06 739.442 1322.72 739.212 1325.58 738.754C1328.45 738.182 1330.74 737.723 1332.46 737.38L1340.7 773.805C1337.96 774.836 1334.12 775.867 1329.19 776.898C1324.27 778.043 1318.02 778.616 1310.46 778.616C1299.01 778.616 1287.78 776.153 1276.79 771.228C1265.91 766.302 1256.86 758.8 1249.64 748.72C1242.54 738.64 1238.99 725.925 1238.99 710.576V448.038ZM1474.55 781.365C1457.83 781.365 1442.65 778.215 1429.02 771.915C1415.39 765.501 1404.56 756.28 1396.55 744.252C1388.53 732.111 1384.52 717.449 1384.52 700.267C1384.52 685.147 1387.5 672.891 1393.45 663.498C1399.41 653.991 1407.37 646.545 1417.34 641.162C1427.3 635.778 1438.3 631.769 1450.32 629.134C1462.47 626.385 1474.67 624.209 1486.92 622.605C1502.96 620.543 1515.96 618.997 1525.92 617.966C1536 616.821 1543.34 614.931 1547.92 612.296C1552.61 609.662 1554.96 605.08 1554.96 598.551V597.176C1554.96 580.223 1550.32 567.051 1541.04 557.658C1531.88 548.265 1517.96 543.569 1499.29 543.569C1479.93 543.569 1464.76 547.807 1453.76 556.283C1442.76 564.76 1435.03 573.809 1430.57 583.431L1392.08 569.685C1398.95 553.649 1408.11 541.163 1419.57 532.229C1431.14 523.18 1443.74 516.88 1457.37 513.329C1471.11 509.663 1484.63 507.831 1497.92 507.831C1506.39 507.831 1516.13 508.862 1527.13 510.923C1538.24 512.871 1548.95 516.937 1559.26 523.122C1569.68 529.308 1578.33 538.643 1585.2 551.129C1592.07 563.614 1595.51 580.338 1595.51 601.3V775.18H1554.96V739.442H1552.9C1550.15 745.169 1545.57 751.297 1539.15 757.826C1532.74 764.355 1524.21 769.911 1513.55 774.492C1502.9 779.074 1489.9 781.365 1474.55 781.365ZM1480.74 744.94C1496.77 744.94 1510.29 741.79 1521.29 735.49C1532.4 729.19 1540.76 721.057 1546.37 711.092C1552.1 701.126 1554.96 690.645 1554.96 679.649V642.536C1553.24 644.598 1549.46 646.488 1543.62 648.206C1537.89 649.81 1531.25 651.242 1523.69 652.502C1516.25 653.647 1508.97 654.678 1501.87 655.594C1494.88 656.396 1489.21 657.083 1484.86 657.656C1474.32 659.031 1464.47 661.264 1455.31 664.357C1446.26 667.335 1438.93 671.86 1433.31 677.931C1427.82 683.887 1425.07 692.02 1425.07 702.329C1425.07 716.418 1430.28 727.071 1440.7 734.287C1451.24 741.389 1464.59 744.94 1480.74 744.94ZM1669.52 775.18V511.267H1708.7V551.129H1711.45C1716.26 538.071 1724.96 527.475 1737.56 519.342C1750.16 511.21 1764.37 507.143 1780.17 507.143C1783.15 507.143 1786.87 507.201 1791.34 507.315C1795.81 507.43 1799.19 507.602 1801.48 507.831V549.067C1800.1 548.723 1796.95 548.208 1792.03 547.521C1787.22 546.719 1782.12 546.318 1776.74 546.318C1763.91 546.318 1752.45 549.01 1742.37 554.393C1732.41 559.662 1724.5 566.993 1718.66 576.386C1712.93 585.664 1710.07 596.26 1710.07 608.172V775.18H1669.52ZM1980.86 511.267V545.631H1844.09V511.267H1980.86ZM1883.95 448.038H1924.5V699.58C1924.5 711.034 1926.16 719.625 1929.48 725.352C1932.92 730.965 1937.27 734.745 1942.54 736.692C1947.92 738.525 1953.59 739.442 1959.55 739.442C1964.02 739.442 1967.68 739.212 1970.55 738.754C1973.41 738.182 1975.7 737.723 1977.42 737.38L1985.67 773.805C1982.92 774.836 1979.08 775.867 1974.16 776.898C1969.23 778.043 1962.99 778.616 1955.43 778.616C1943.97 778.616 1932.75 776.153 1921.75 771.228C1910.87 766.302 1901.82 758.8 1894.6 748.72C1887.5 738.64 1883.95 725.925 1883.95 710.576V448.038Z" fill="white"/>
<defs>
<linearGradient id="paint0_linear_376_954" x1="1442.07" y1="0" x2="1442.07" y2="1489.32" gradientUnits="userSpaceOnUse">
<stop stop-color="#171717" stop-opacity="0"/>
<stop offset="0.9999" stop-color="#00FF00"/>
</linearGradient>
</defs>
</svg>
