<svg width="2164" height="1117" viewBox="0 0 2164 1117" fill="none" xmlns="http://www.w3.org/2000/svg">
<rect x="0.210938" width="2163.1" height="1116.99" rx="85.05" fill="#171717"/>
<path d="M494.017 580.635L421.853 316.722H454.327L509.48 531.667H512.057L568.242 316.722H604.324L660.508 531.667H663.086L718.239 316.722H750.713L678.549 580.635H645.56L587.314 370.329H585.252L527.006 580.635H494.017ZM826.227 585.274C813.684 585.274 802.301 582.911 792.078 578.186C781.855 573.375 773.737 566.46 767.723 557.439C761.709 548.333 758.702 537.337 758.702 524.45C758.702 513.11 760.936 503.918 765.403 496.873C769.871 489.743 775.841 484.159 783.315 480.121C790.789 476.083 799.037 473.077 808.057 471.101C817.164 469.039 826.313 467.407 835.505 466.204C847.532 464.657 857.283 463.498 864.757 462.725C872.317 461.865 877.815 460.448 881.252 458.472C884.774 456.496 886.535 453.06 886.535 448.163V447.132C886.535 434.417 883.056 424.538 876.097 417.493C869.224 410.449 858.787 406.927 844.783 406.927C830.265 406.927 818.882 410.105 810.634 416.463C802.387 422.82 796.588 429.607 793.238 436.823L764.372 426.514C769.527 414.487 776.4 405.122 784.991 398.422C793.667 391.635 803.117 386.91 813.341 384.247C823.65 381.498 833.787 380.123 843.752 380.123C850.11 380.123 857.412 380.896 865.659 382.442C873.992 383.903 882.025 386.953 889.757 391.592C897.574 396.231 904.061 403.233 909.215 412.597C914.37 421.961 916.947 434.503 916.947 450.225V580.635H886.535V553.831H884.989C882.927 558.127 879.491 562.723 874.68 567.62C869.869 572.516 863.469 576.683 855.479 580.119C847.489 583.556 837.739 585.274 826.227 585.274ZM830.866 557.955C842.893 557.955 853.031 555.592 861.278 550.867C869.611 546.142 875.882 540.043 880.092 532.569C884.387 525.095 886.535 517.234 886.535 508.987V481.152C885.247 482.698 882.412 484.116 878.03 485.405C873.735 486.607 868.752 487.681 863.082 488.626C857.498 489.485 852.043 490.258 846.716 490.946C841.476 491.547 837.223 492.062 833.959 492.492C826.055 493.523 818.667 495.198 811.794 497.518C805.007 499.751 799.509 503.145 795.3 507.698C791.176 512.165 789.114 518.265 789.114 525.997C789.114 536.563 793.023 544.553 800.841 549.965C808.744 555.292 818.753 557.955 830.866 557.955ZM1002.87 316.722V580.635H972.455V316.722H1002.87ZM1086.92 508.471L1086.4 470.843H1092.59L1179.18 382.7H1216.81L1124.55 475.997H1121.97L1086.92 508.471ZM1058.57 580.635V316.722H1088.98V580.635H1058.57ZM1184.34 580.635L1107.02 482.698L1128.67 461.565L1223 580.635H1184.34ZM1255.95 580.635V382.7H1286.37V580.635H1255.95ZM1271.42 349.711C1265.49 349.711 1260.38 347.692 1256.08 343.655C1251.87 339.617 1249.77 334.763 1249.77 329.093C1249.77 323.423 1251.87 318.569 1256.08 314.531C1260.38 310.494 1265.49 308.475 1271.42 308.475C1277.35 308.475 1282.41 310.494 1286.62 314.531C1290.92 318.569 1293.07 323.423 1293.07 329.093C1293.07 334.763 1290.92 339.617 1286.62 343.655C1282.41 347.692 1277.35 349.711 1271.42 349.711ZM1372.48 461.565V580.635H1342.07V382.7H1371.45V413.628H1374.03C1378.67 403.576 1385.71 395.501 1395.16 389.401C1404.61 383.216 1416.81 380.123 1431.76 380.123C1445.16 380.123 1456.89 382.872 1466.94 388.37C1476.99 393.783 1484.81 402.03 1490.39 413.112C1495.97 424.108 1498.77 438.026 1498.77 454.864V580.635H1468.35V456.926C1468.35 441.376 1464.32 429.263 1456.24 420.586C1448.17 411.823 1437.08 407.442 1422.99 407.442C1413.29 407.442 1404.61 409.547 1396.96 413.756C1389.4 417.966 1383.43 424.108 1379.05 432.184C1374.67 440.259 1372.48 450.053 1372.48 461.565ZM1634.23 658.984C1619.54 658.984 1606.92 657.094 1596.35 653.314C1585.78 649.62 1576.98 644.723 1569.93 638.623C1562.97 632.61 1557.43 626.167 1553.31 619.294L1577.53 602.284C1580.28 605.892 1583.76 610.016 1587.97 614.655C1592.18 619.38 1597.94 623.46 1605.24 626.897C1612.63 630.419 1622.29 632.18 1634.23 632.18C1650.21 632.18 1663.4 628.314 1673.8 620.582C1684.19 612.851 1689.39 600.737 1689.39 584.243V544.037H1686.81C1684.58 547.646 1681.4 552.113 1677.27 557.439C1673.24 562.68 1667.4 567.362 1659.75 571.485C1652.19 575.523 1641.97 577.542 1629.08 577.542C1613.1 577.542 1598.75 573.762 1586.04 566.202C1573.41 558.642 1563.4 547.646 1556.01 533.213C1548.71 518.78 1545.06 501.255 1545.06 480.637C1545.06 460.362 1548.63 442.708 1555.76 427.674C1562.89 412.554 1572.81 400.87 1585.52 392.623C1598.24 384.29 1612.93 380.123 1629.6 380.123C1642.48 380.123 1652.7 382.271 1660.26 386.566C1667.91 390.776 1673.75 395.587 1677.79 400.999C1681.91 406.325 1685.09 410.707 1687.33 414.143H1690.42V382.7H1719.8V586.305C1719.8 603.315 1715.93 617.146 1708.2 627.799C1700.56 638.537 1690.25 646.398 1677.27 651.381C1664.39 656.45 1650.04 658.984 1634.23 658.984ZM1633.2 550.223C1645.4 550.223 1655.71 547.431 1664.13 541.847C1672.55 536.263 1678.95 528.23 1683.33 517.749C1687.71 507.268 1689.9 494.726 1689.9 480.121C1689.9 465.86 1687.76 453.275 1683.46 442.364C1679.16 431.454 1672.81 422.906 1664.39 416.72C1655.97 410.535 1645.57 407.442 1633.2 407.442C1620.32 407.442 1609.58 410.707 1600.99 417.236C1592.48 423.765 1586.08 432.528 1581.79 443.524C1577.58 454.52 1575.47 466.719 1575.47 480.121C1575.47 493.867 1577.62 506.023 1581.92 516.59C1586.3 527.07 1592.74 535.318 1601.25 541.331C1609.84 547.259 1620.49 550.223 1633.2 550.223Z" fill="white"/>
<rect x="0.210938" width="2163.1" height="1116.99" rx="85.05" fill="#171717"/>
<rect x="179.211" y="234" width="1805" height="399" rx="44" fill="#2EDF24"/>
<path d="M426.38 499V368.091H470.613C480.883 368.091 489.278 369.945 495.798 373.652C502.361 377.317 507.218 382.281 510.372 388.545C513.525 394.81 515.102 401.798 515.102 409.511C515.102 417.224 513.525 424.234 510.372 430.541C507.261 436.848 502.446 441.876 495.926 445.626C489.406 449.334 481.054 451.188 470.869 451.188H439.165V437.125H470.358C477.389 437.125 483.035 435.911 487.297 433.482C491.558 431.053 494.647 427.771 496.565 423.638C498.525 419.462 499.505 414.753 499.505 409.511C499.505 404.27 498.525 399.582 496.565 395.449C494.647 391.315 491.537 388.077 487.233 385.733C482.929 383.347 477.218 382.153 470.102 382.153H442.233V499H426.38ZM634.238 499V368.091H678.471C688.698 368.091 697.093 369.838 703.656 373.332C710.218 376.784 715.076 381.536 718.23 387.587C721.383 393.638 722.96 400.52 722.96 408.233C722.96 415.946 721.383 422.786 718.23 428.751C715.076 434.717 710.24 439.405 703.72 442.814C697.2 446.18 688.869 447.864 678.727 447.864H642.931V433.545H678.216C685.204 433.545 690.829 432.523 695.091 430.477C699.394 428.432 702.505 425.534 704.423 421.784C706.383 417.991 707.363 413.474 707.363 408.233C707.363 402.991 706.383 398.411 704.423 394.49C702.463 390.57 699.331 387.544 695.027 385.413C690.723 383.24 685.034 382.153 677.96 382.153H650.091V499H634.238ZM695.858 440.193L728.073 499H709.664L677.96 440.193H695.858ZM842.975 499V368.091H921.981V382.153H858.827V426.386H917.89V440.449H858.827V484.938H923.003V499H842.975ZM1044.15 499V368.091H1122.65V382.153H1060.01V426.386H1116.77V440.449H1060.01V499H1044.15ZM1232.42 499H1215.8L1263.87 368.091H1280.23L1328.3 499H1311.68L1272.56 388.801H1271.54L1232.42 499ZM1238.56 447.864H1305.54V461.926H1238.56V447.864ZM1442.29 499V368.091H1488.06C1497.18 368.091 1504.7 369.668 1510.62 372.821C1516.54 375.932 1520.96 380.129 1523.85 385.413C1526.75 390.655 1528.2 396.472 1528.2 402.864C1528.2 408.489 1527.2 413.134 1525.2 416.798C1523.24 420.463 1520.64 423.361 1517.4 425.491C1514.2 427.622 1510.73 429.199 1506.98 430.222V431.5C1510.98 431.756 1515.01 433.162 1519.06 435.719C1523.11 438.276 1526.5 441.94 1529.22 446.713C1531.95 451.486 1533.31 457.324 1533.31 464.227C1533.31 470.79 1531.82 476.692 1528.84 481.933C1525.86 487.175 1521.15 491.33 1514.71 494.398C1508.28 497.466 1499.9 499 1489.59 499H1442.29ZM1458.14 484.938H1489.59C1499.95 484.938 1507.3 482.935 1511.64 478.929C1516.03 474.881 1518.23 469.98 1518.23 464.227C1518.23 459.795 1517.1 455.705 1514.84 451.955C1512.58 448.162 1509.36 445.136 1505.19 442.878C1501.01 440.577 1496.07 439.426 1490.36 439.426H1458.14V484.938ZM1458.14 425.619H1487.55C1492.32 425.619 1496.62 424.682 1500.46 422.807C1504.34 420.932 1507.4 418.29 1509.66 414.881C1511.96 411.472 1513.11 407.466 1513.11 402.864C1513.11 397.111 1511.11 392.232 1507.11 388.226C1503.1 384.178 1496.75 382.153 1488.06 382.153H1458.14V425.619ZM1724.55 400.818C1723.78 394.341 1720.67 389.312 1715.22 385.733C1709.76 382.153 1703.07 380.364 1695.15 380.364C1689.35 380.364 1684.28 381.301 1679.94 383.176C1675.63 385.051 1672.26 387.629 1669.84 390.911C1667.45 394.192 1666.26 397.92 1666.26 402.097C1666.26 405.591 1667.09 408.595 1668.75 411.109C1670.45 413.581 1672.63 415.648 1675.27 417.31C1677.91 418.929 1680.68 420.271 1683.58 421.337C1686.48 422.359 1689.14 423.19 1691.57 423.83L1704.86 427.409C1708.27 428.304 1712.07 429.54 1716.24 431.116C1720.46 432.693 1724.49 434.845 1728.32 437.572C1732.2 440.257 1735.4 443.709 1737.91 447.928C1740.43 452.146 1741.68 457.324 1741.68 463.46C1741.68 470.534 1739.83 476.926 1736.12 482.636C1732.46 488.347 1727.09 492.885 1720.01 496.251C1712.98 499.618 1704.44 501.301 1694.38 501.301C1685.01 501.301 1676.89 499.788 1670.03 496.763C1663.21 493.737 1657.84 489.518 1653.92 484.107C1650.04 478.695 1647.85 472.409 1647.34 465.25H1663.7C1664.13 470.193 1665.79 474.284 1668.69 477.523C1671.63 480.719 1675.33 483.105 1679.81 484.682C1684.32 486.216 1689.18 486.983 1694.38 486.983C1700.43 486.983 1705.87 486.003 1710.68 484.043C1715.5 482.04 1719.31 479.27 1722.12 475.733C1724.94 472.153 1726.34 467.977 1726.34 463.205C1726.34 458.858 1725.13 455.321 1722.7 452.594C1720.27 449.866 1717.07 447.651 1713.11 445.946C1709.15 444.241 1704.86 442.75 1700.26 441.472L1684.15 436.869C1673.93 433.929 1665.83 429.732 1659.86 424.277C1653.9 418.822 1650.92 411.685 1650.92 402.864C1650.92 395.534 1652.9 389.142 1656.86 383.688C1660.87 378.19 1666.24 373.929 1672.97 370.903C1679.74 367.835 1687.31 366.301 1695.66 366.301C1704.1 366.301 1711.6 367.814 1718.16 370.839C1724.72 373.822 1729.92 377.913 1733.76 383.112C1737.63 388.311 1739.68 394.213 1739.89 400.818H1724.55Z" fill="black"/>
</svg>
