<svg width="2164" height="1117" viewBox="0 0 2164 1117" fill="none" xmlns="http://www.w3.org/2000/svg">
<rect width="2163.1" height="1116.99" rx="85.05" fill="#171717"/>
<path d="M86.7264 64.5472V130.525H78.7369V72.9233H78.3503L62.2423 83.619V75.5006L78.7369 64.5472H86.7264ZM107.473 131.041C105.884 131.041 104.52 130.472 103.382 129.333C102.244 128.195 101.675 126.831 101.675 125.242C101.675 123.653 102.244 122.289 103.382 121.151C104.52 120.012 105.884 119.443 107.473 119.443C109.063 119.443 110.427 120.012 111.565 121.151C112.703 122.289 113.272 123.653 113.272 125.242C113.272 126.294 113.004 127.261 112.467 128.141C111.951 129.022 111.253 129.731 110.373 130.268C109.514 130.783 108.547 131.041 107.473 131.041Z" fill="white"/>
<path d="M232.371 794.935H227.378C227.082 793.499 226.565 792.237 225.827 791.15C225.102 790.063 224.216 789.15 223.169 788.411C222.136 787.66 220.988 787.096 219.726 786.72C218.465 786.344 217.149 786.156 215.78 786.156C213.283 786.156 211.021 786.787 208.994 788.049C206.981 789.311 205.377 791.17 204.182 793.626C203.001 796.083 202.41 799.096 202.41 802.667C202.41 806.238 203.001 809.251 204.182 811.708C205.377 814.164 206.981 816.023 208.994 817.285C211.021 818.547 213.283 819.178 215.78 819.178C217.149 819.178 218.465 818.99 219.726 818.614C220.988 818.238 222.136 817.681 223.169 816.943C224.216 816.191 225.102 815.271 225.827 814.184C226.565 813.083 227.082 811.822 227.378 810.399H232.371C231.995 812.506 231.311 814.392 230.317 816.057C229.324 817.721 228.089 819.137 226.612 820.305C225.136 821.46 223.478 822.339 221.639 822.943C219.814 823.547 217.86 823.849 215.78 823.849C212.263 823.849 209.135 822.99 206.397 821.272C203.659 819.553 201.504 817.11 199.934 813.943C198.363 810.775 197.578 807.016 197.578 802.667C197.578 798.318 198.363 794.559 199.934 791.391C201.504 788.224 203.659 785.78 206.397 784.062C209.135 782.344 212.263 781.485 215.78 781.485C217.86 781.485 219.814 781.787 221.639 782.391C223.478 782.995 225.136 783.881 226.612 785.049C228.089 786.203 229.324 787.613 230.317 789.277C231.311 790.928 231.995 792.814 232.371 794.935ZM252.36 823.929C249.568 823.929 247.118 823.265 245.011 821.936C242.917 820.607 241.279 818.748 240.098 816.359C238.93 813.969 238.346 811.177 238.346 807.983C238.346 804.761 238.93 801.949 240.098 799.546C241.279 797.143 242.917 795.277 245.011 793.949C247.118 792.62 249.568 791.955 252.36 791.955C255.152 791.955 257.595 792.62 259.689 793.949C261.797 795.277 263.434 797.143 264.602 799.546C265.783 801.949 266.374 804.761 266.374 807.983C266.374 811.177 265.783 813.969 264.602 816.359C263.434 818.748 261.797 820.607 259.689 821.936C257.595 823.265 255.152 823.929 252.36 823.929ZM252.36 819.661C254.481 819.661 256.226 819.117 257.595 818.03C258.964 816.943 259.978 815.513 260.635 813.741C261.293 811.969 261.622 810.05 261.622 807.983C261.622 805.915 261.293 803.989 260.635 802.204C259.978 800.419 258.964 798.976 257.595 797.875C256.226 796.774 254.481 796.224 252.36 796.224C250.239 796.224 248.494 796.774 247.125 797.875C245.756 798.976 244.742 800.419 244.085 802.204C243.427 803.989 243.098 805.915 243.098 807.983C243.098 810.05 243.427 811.969 244.085 813.741C244.742 815.513 245.756 816.943 247.125 818.03C248.494 819.117 250.239 819.661 252.36 819.661ZM278.379 782.049V823.285H273.628V782.049H278.379ZM299.647 823.929C296.855 823.929 294.405 823.265 292.298 821.936C290.204 820.607 288.566 818.748 287.385 816.359C286.217 813.969 285.633 811.177 285.633 807.983C285.633 804.761 286.217 801.949 287.385 799.546C288.566 797.143 290.204 795.277 292.298 793.949C294.405 792.62 296.855 791.955 299.647 791.955C302.439 791.955 304.882 792.62 306.976 793.949C309.083 795.277 310.721 797.143 311.889 799.546C313.07 801.949 313.661 804.761 313.661 807.983C313.661 811.177 313.07 813.969 311.889 816.359C310.721 818.748 309.083 820.607 306.976 821.936C304.882 823.265 302.439 823.929 299.647 823.929ZM299.647 819.661C301.768 819.661 303.513 819.117 304.882 818.03C306.251 816.943 307.265 815.513 307.922 813.741C308.58 811.969 308.909 810.05 308.909 807.983C308.909 805.915 308.58 803.989 307.922 802.204C307.265 800.419 306.251 798.976 304.882 797.875C303.513 796.774 301.768 796.224 299.647 796.224C297.526 796.224 295.781 796.774 294.412 797.875C293.043 798.976 292.029 800.419 291.371 802.204C290.714 803.989 290.385 805.915 290.385 807.983C290.385 810.05 290.714 811.969 291.371 813.741C292.029 815.513 293.043 816.943 294.412 818.03C295.781 819.117 297.526 819.661 299.647 819.661ZM320.914 823.285V792.358H325.505V797.029H325.827C326.391 795.499 327.411 794.257 328.888 793.304C330.364 792.351 332.029 791.875 333.881 791.875C334.23 791.875 334.667 791.881 335.19 791.895C335.714 791.908 336.11 791.928 336.378 791.955V796.788C336.217 796.747 335.848 796.687 335.271 796.606C334.707 796.512 334.11 796.465 333.479 796.465C331.975 796.465 330.633 796.781 329.452 797.412C328.284 798.029 327.358 798.888 326.673 799.989C326.002 801.076 325.666 802.318 325.666 803.714V823.285H320.914ZM363.918 799.284L359.649 800.492C359.381 799.781 358.985 799.09 358.461 798.419C357.951 797.734 357.253 797.17 356.367 796.727C355.481 796.284 354.347 796.063 352.964 796.063C351.072 796.063 349.494 796.499 348.233 797.371C346.984 798.231 346.36 799.325 346.36 800.653C346.36 801.835 346.79 802.768 347.649 803.452C348.508 804.137 349.85 804.707 351.676 805.164L356.266 806.291C359.032 806.962 361.092 807.989 362.448 809.372C363.804 810.741 364.481 812.506 364.481 814.667C364.481 816.439 363.971 818.023 362.951 819.419C361.944 820.815 360.535 821.916 358.723 822.721C356.911 823.527 354.803 823.929 352.4 823.929C349.246 823.929 346.635 823.245 344.568 821.876C342.501 820.507 341.192 818.506 340.642 815.875L345.152 814.748C345.581 816.412 346.394 817.661 347.588 818.493C348.796 819.325 350.374 819.741 352.32 819.741C354.535 819.741 356.293 819.272 357.595 818.332C358.911 817.379 359.569 816.238 359.569 814.909C359.569 813.835 359.193 812.936 358.441 812.211C357.689 811.473 356.535 810.922 354.978 810.56L349.823 809.352C346.991 808.681 344.91 807.64 343.581 806.231C342.266 804.808 341.608 803.029 341.608 800.895C341.608 799.15 342.098 797.606 343.078 796.264C344.071 794.922 345.42 793.868 347.125 793.103C348.843 792.338 350.79 791.955 352.964 791.955C356.025 791.955 358.428 792.626 360.173 793.969C361.931 795.311 363.179 797.083 363.918 799.284ZM396.682 824.01C394.722 824.01 392.944 823.641 391.346 822.903C389.749 822.151 388.481 821.07 387.541 819.661C386.601 818.238 386.132 816.52 386.132 814.506C386.132 812.734 386.481 811.298 387.179 810.197C387.877 809.083 388.809 808.211 389.977 807.58C391.145 806.949 392.434 806.479 393.843 806.17C395.266 805.848 396.696 805.593 398.132 805.405C400.011 805.164 401.535 804.982 402.703 804.862C403.884 804.727 404.743 804.506 405.28 804.197C405.83 803.888 406.105 803.352 406.105 802.586V802.425C406.105 800.439 405.562 798.895 404.474 797.794C403.401 796.694 401.77 796.143 399.582 796.143C397.313 796.143 395.535 796.64 394.246 797.633C392.957 798.627 392.051 799.687 391.528 800.815L387.017 799.204C387.823 797.325 388.897 795.861 390.239 794.814C391.595 793.754 393.071 793.016 394.669 792.6C396.28 792.17 397.863 791.955 399.421 791.955C400.414 791.955 401.555 792.076 402.844 792.318C404.146 792.546 405.401 793.022 406.609 793.747C407.83 794.472 408.844 795.566 409.649 797.029C410.455 798.492 410.857 800.452 410.857 802.909V823.285H406.105V819.097H405.864C405.542 819.768 405.005 820.486 404.253 821.252C403.501 822.017 402.501 822.668 401.253 823.205C400.005 823.742 398.481 824.01 396.682 824.01ZM397.407 819.741C399.286 819.741 400.87 819.372 402.159 818.634C403.461 817.896 404.441 816.943 405.099 815.775C405.77 814.607 406.105 813.379 406.105 812.09V807.741C405.904 807.983 405.461 808.204 404.776 808.405C404.105 808.593 403.327 808.761 402.441 808.909C401.568 809.043 400.716 809.164 399.884 809.271C399.065 809.365 398.4 809.446 397.89 809.513C396.655 809.674 395.501 809.936 394.427 810.298C393.367 810.647 392.508 811.177 391.85 811.889C391.206 812.587 390.883 813.54 390.883 814.748C390.883 816.399 391.494 817.647 392.716 818.493C393.951 819.325 395.514 819.741 397.407 819.741ZM419.53 823.285V792.358H424.121V797.029H424.443C425.007 795.499 426.027 794.257 427.504 793.304C428.98 792.351 430.645 791.875 432.497 791.875C432.846 791.875 433.283 791.881 433.806 791.895C434.33 791.908 434.726 791.928 434.994 791.955V796.788C434.833 796.747 434.464 796.687 433.887 796.606C433.323 796.512 432.725 796.465 432.095 796.465C430.591 796.465 429.249 796.781 428.068 797.412C426.9 798.029 425.974 798.888 425.289 799.989C424.618 801.076 424.282 802.318 424.282 803.714V823.285H419.53ZM452.652 823.929C449.672 823.929 447.102 823.272 444.941 821.956C442.793 820.627 441.135 818.775 439.967 816.399C438.813 814.01 438.236 811.231 438.236 808.063C438.236 804.895 438.813 802.103 439.967 799.687C441.135 797.257 442.759 795.365 444.84 794.009C446.934 792.64 449.377 791.955 452.169 791.955C453.78 791.955 455.371 792.224 456.941 792.761C458.512 793.298 459.941 794.17 461.23 795.378C462.518 796.573 463.545 798.157 464.31 800.13C465.076 802.103 465.458 804.533 465.458 807.419V809.432H441.618V805.325H460.626C460.626 803.58 460.277 802.023 459.579 800.653C458.894 799.284 457.914 798.204 456.639 797.412C455.377 796.62 453.887 796.224 452.169 796.224C450.276 796.224 448.639 796.694 447.256 797.633C445.887 798.559 444.833 799.768 444.095 801.258C443.357 802.748 442.988 804.345 442.988 806.05V808.788C442.988 811.124 443.39 813.104 444.196 814.728C445.014 816.339 446.149 817.567 447.598 818.413C449.048 819.245 450.733 819.661 452.652 819.661C453.901 819.661 455.028 819.486 456.035 819.137C457.055 818.775 457.934 818.238 458.673 817.527C459.411 816.802 459.981 815.902 460.384 814.828L464.975 816.117C464.492 817.674 463.68 819.043 462.539 820.225C461.398 821.392 459.988 822.305 458.31 822.963C456.632 823.607 454.746 823.929 452.652 823.929ZM508.124 810.64V792.358H512.876V823.285H508.124V818.05H507.802C507.077 819.621 505.95 820.956 504.419 822.057C502.889 823.144 500.956 823.688 498.62 823.688C496.687 823.688 494.969 823.265 493.466 822.419C491.962 821.56 490.781 820.272 489.922 818.553C489.063 816.822 488.633 814.641 488.633 812.01V792.358H493.385V811.687C493.385 813.943 494.016 815.741 495.278 817.084C496.553 818.426 498.177 819.097 500.151 819.097C501.332 819.097 502.533 818.795 503.755 818.191C504.99 817.587 506.023 816.661 506.856 815.412C507.701 814.164 508.124 812.573 508.124 810.64ZM543.486 799.284L539.217 800.492C538.949 799.781 538.553 799.09 538.03 798.419C537.519 797.734 536.821 797.17 535.935 796.727C535.05 796.284 533.915 796.063 532.533 796.063C530.64 796.063 529.063 796.499 527.801 797.371C526.553 798.231 525.928 799.325 525.928 800.653C525.928 801.835 526.358 802.768 527.217 803.452C528.076 804.137 529.418 804.707 531.244 805.164L535.835 806.291C538.6 806.962 540.66 807.989 542.016 809.372C543.372 810.741 544.05 812.506 544.05 814.667C544.05 816.439 543.54 818.023 542.52 819.419C541.513 820.815 540.103 821.916 538.291 822.721C536.479 823.527 534.372 823.929 531.969 823.929C528.814 823.929 526.204 823.245 524.136 821.876C522.069 820.507 520.76 818.506 520.21 815.875L524.72 814.748C525.15 816.412 525.962 817.661 527.157 818.493C528.365 819.325 529.942 819.741 531.888 819.741C534.103 819.741 535.862 819.272 537.164 818.332C538.479 817.379 539.137 816.238 539.137 814.909C539.137 813.835 538.761 812.936 538.009 812.211C537.258 811.473 536.103 810.922 534.546 810.56L529.392 809.352C526.559 808.681 524.479 807.64 523.15 806.231C521.834 804.808 521.177 803.029 521.177 800.895C521.177 799.15 521.667 797.606 522.646 796.264C523.64 794.922 524.989 793.868 526.694 793.103C528.412 792.338 530.358 791.955 532.533 791.955C535.593 791.955 537.996 792.626 539.741 793.969C541.499 795.311 542.748 797.083 543.486 799.284ZM564.17 823.929C561.19 823.929 558.619 823.272 556.458 821.956C554.31 820.627 552.653 818.775 551.485 816.399C550.33 814.01 549.753 811.231 549.753 808.063C549.753 804.895 550.33 802.103 551.485 799.687C552.653 797.257 554.277 795.365 556.357 794.009C558.451 792.64 560.894 791.955 563.686 791.955C565.297 791.955 566.888 792.224 568.458 792.761C570.029 793.298 571.459 794.17 572.747 795.378C574.036 796.573 575.063 798.157 575.828 800.13C576.593 802.103 576.976 804.533 576.976 807.419V809.432H553.136V805.325H572.143C572.143 803.58 571.794 802.023 571.096 800.653C570.412 799.284 569.432 798.204 568.156 797.412C566.895 796.62 565.405 796.224 563.686 796.224C561.794 796.224 560.156 796.694 558.774 797.633C557.404 798.559 556.351 799.768 555.612 801.258C554.874 802.748 554.505 804.345 554.505 806.05V808.788C554.505 811.124 554.908 813.104 555.713 814.728C556.532 816.339 557.666 817.567 559.116 818.413C560.566 819.245 562.25 819.661 564.17 819.661C565.418 819.661 566.546 819.486 567.552 819.137C568.573 818.775 569.452 818.238 570.19 817.527C570.928 816.802 571.499 815.902 571.902 814.828L576.492 816.117C576.009 817.674 575.197 819.043 574.056 820.225C572.915 821.392 571.506 822.305 569.828 822.963C568.15 823.607 566.264 823.929 564.17 823.929ZM595.882 823.929C593.305 823.929 591.03 823.278 589.057 821.976C587.083 820.661 585.54 818.808 584.425 816.419C583.311 814.016 582.754 811.177 582.754 807.902C582.754 804.654 583.311 801.835 584.425 799.445C585.54 797.056 587.09 795.21 589.077 793.908C591.063 792.606 593.359 791.955 595.963 791.955C597.976 791.955 599.567 792.291 600.735 792.962C601.916 793.62 602.815 794.371 603.433 795.217C604.064 796.049 604.554 796.734 604.903 797.271H605.305V782.049H610.057V823.285H605.467V818.533H604.903C604.554 819.097 604.057 819.809 603.413 820.668C602.768 821.513 601.849 822.272 600.654 822.943C599.46 823.601 597.869 823.929 595.882 823.929ZM596.527 819.661C598.433 819.661 600.043 819.164 601.359 818.171C602.674 817.164 603.674 815.775 604.359 814.003C605.044 812.218 605.386 810.157 605.386 807.822C605.386 805.513 605.05 803.493 604.379 801.761C603.708 800.016 602.715 798.66 601.399 797.694C600.084 796.714 598.46 796.224 596.527 796.224C594.513 796.224 592.835 796.741 591.493 797.774C590.164 798.794 589.164 800.184 588.493 801.942C587.835 803.687 587.506 805.647 587.506 807.822C587.506 810.023 587.842 812.023 588.513 813.822C589.197 815.607 590.204 817.03 591.533 818.09C592.875 819.137 594.54 819.661 596.527 819.661ZM635.367 823.285V792.358H640.119V823.285H635.367ZM637.783 787.203C636.857 787.203 636.058 786.888 635.387 786.257C634.729 785.626 634.4 784.868 634.4 783.982C634.4 783.096 634.729 782.337 635.387 781.706C636.058 781.076 636.857 780.76 637.783 780.76C638.709 780.76 639.501 781.076 640.159 781.706C640.83 782.337 641.166 783.096 641.166 783.982C641.166 784.868 640.83 785.626 640.159 786.257C639.501 786.888 638.709 787.203 637.783 787.203ZM653.574 804.68V823.285H648.822V792.358H653.413V797.19H653.816C654.54 795.62 655.641 794.358 657.118 793.405C658.594 792.438 660.5 791.955 662.836 791.955C664.93 791.955 666.762 792.385 668.333 793.244C669.903 794.089 671.125 795.378 671.997 797.11C672.87 798.828 673.306 801.002 673.306 803.633V823.285H668.554V803.956C668.554 801.526 667.923 799.633 666.662 798.278C665.4 796.908 663.668 796.224 661.467 796.224C659.95 796.224 658.594 796.553 657.4 797.21C656.218 797.868 655.285 798.828 654.601 800.09C653.916 801.351 653.574 802.882 653.574 804.68ZM697.936 823.285V792.358H702.527V797.19H702.93C703.574 795.539 704.614 794.257 706.051 793.344C707.487 792.418 709.212 791.955 711.225 791.955C713.266 791.955 714.964 792.418 716.319 793.344C717.689 794.257 718.756 795.539 719.521 797.19H719.843C720.635 795.593 721.823 794.324 723.407 793.385C724.991 792.432 726.89 791.955 729.105 791.955C731.87 791.955 734.132 792.821 735.891 794.553C737.649 796.271 738.528 798.949 738.528 802.586V823.285H733.776V802.586C733.776 800.304 733.152 798.674 731.904 797.694C730.655 796.714 729.186 796.224 727.494 796.224C725.32 796.224 723.635 796.882 722.44 798.197C721.246 799.499 720.648 801.15 720.648 803.15V823.285H715.816V802.103C715.816 800.345 715.246 798.929 714.105 797.855C712.964 796.767 711.494 796.224 709.695 796.224C708.46 796.224 707.306 796.553 706.232 797.21C705.171 797.868 704.312 798.781 703.655 799.949C703.01 801.103 702.688 802.439 702.688 803.956V823.285H697.936ZM756.317 824.01C754.358 824.01 752.579 823.641 750.982 822.903C749.384 822.151 748.116 821.07 747.176 819.661C746.237 818.238 745.767 816.52 745.767 814.506C745.767 812.734 746.116 811.298 746.814 810.197C747.512 809.083 748.445 808.211 749.613 807.58C750.78 806.949 752.069 806.479 753.478 806.17C754.901 805.848 756.331 805.593 757.767 805.405C759.646 805.164 761.17 804.982 762.338 804.862C763.519 804.727 764.378 804.506 764.915 804.197C765.465 803.888 765.741 803.352 765.741 802.586V802.425C765.741 800.439 765.197 798.895 764.11 797.794C763.036 796.694 761.405 796.143 759.217 796.143C756.948 796.143 755.17 796.64 753.881 797.633C752.592 798.627 751.686 799.687 751.163 800.815L746.653 799.204C747.458 797.325 748.532 795.861 749.874 794.814C751.23 793.754 752.707 793.016 754.304 792.6C755.915 792.17 757.499 791.955 759.056 791.955C760.049 791.955 761.19 792.076 762.479 792.318C763.781 792.546 765.036 793.022 766.244 793.747C767.465 794.472 768.479 795.566 769.284 797.029C770.09 798.492 770.492 800.452 770.492 802.909V823.285H765.741V819.097H765.499C765.177 819.768 764.64 820.486 763.888 821.252C763.136 822.017 762.136 822.668 760.888 823.205C759.64 823.742 758.116 824.01 756.317 824.01ZM757.042 819.741C758.922 819.741 760.506 819.372 761.794 818.634C763.096 817.896 764.076 816.943 764.734 815.775C765.405 814.607 765.741 813.379 765.741 812.09V807.741C765.539 807.983 765.096 808.204 764.412 808.405C763.741 808.593 762.962 808.761 762.076 808.909C761.204 809.043 760.351 809.164 759.519 809.271C758.7 809.365 758.036 809.446 757.526 809.513C756.291 809.674 755.136 809.936 754.062 810.298C753.002 810.647 752.143 811.177 751.485 811.889C750.841 812.587 750.519 813.54 750.519 814.748C750.519 816.399 751.129 817.647 752.351 818.493C753.586 819.325 755.15 819.741 757.042 819.741ZM783.917 804.68V823.285H779.166V792.358H783.756V797.19H784.159C784.884 795.62 785.985 794.358 787.461 793.405C788.938 792.438 790.844 791.955 793.18 791.955C795.274 791.955 797.106 792.385 798.676 793.244C800.247 794.089 801.468 795.378 802.341 797.11C803.213 798.828 803.65 801.002 803.65 803.633V823.285H798.898V803.956C798.898 801.526 798.267 799.633 797.005 798.278C795.743 796.908 794.012 796.224 791.81 796.224C790.294 796.224 788.938 796.553 787.743 797.21C786.562 797.868 785.629 798.828 784.944 800.09C784.26 801.351 783.917 802.882 783.917 804.68ZM814.286 834.883C813.481 834.883 812.762 834.816 812.132 834.682C811.501 834.561 811.064 834.44 810.823 834.319L812.031 830.131C813.185 830.426 814.205 830.534 815.091 830.453C815.977 830.373 816.763 829.977 817.447 829.265C818.145 828.567 818.783 827.433 819.36 825.862L820.246 823.446L808.809 792.358H813.964L822.501 817.003H822.823L831.36 792.358H836.515L823.387 827.795C822.796 829.393 822.065 830.715 821.192 831.762C820.32 832.822 819.306 833.608 818.152 834.118C817.011 834.628 815.722 834.883 814.286 834.883ZM859.378 823.285V782.049H864.13V797.271H864.533C864.882 796.734 865.365 796.049 865.982 795.217C866.613 794.371 867.513 793.62 868.681 792.962C869.862 792.291 871.459 791.955 873.473 791.955C876.077 791.955 878.372 792.606 880.359 793.908C882.345 795.21 883.896 797.056 885.01 799.445C886.124 801.835 886.681 804.654 886.681 807.902C886.681 811.177 886.124 814.016 885.01 816.419C883.896 818.808 882.352 820.661 880.379 821.976C878.406 823.278 876.13 823.929 873.553 823.929C871.567 823.929 869.976 823.601 868.781 822.943C867.587 822.272 866.667 821.513 866.023 820.668C865.378 819.809 864.882 819.097 864.533 818.533H863.969V823.285H859.378ZM864.049 807.822C864.049 810.157 864.392 812.218 865.076 814.003C865.761 815.775 866.761 817.164 868.076 818.171C869.392 819.164 871.003 819.661 872.909 819.661C874.895 819.661 876.553 819.137 877.882 818.09C879.225 817.03 880.231 815.607 880.902 813.822C881.587 812.023 881.929 810.023 881.929 807.822C881.929 805.647 881.594 803.687 880.923 801.942C880.265 800.184 879.265 798.794 877.922 797.774C876.594 796.741 874.922 796.224 872.909 796.224C870.976 796.224 869.352 796.714 868.036 797.694C866.721 798.66 865.727 800.016 865.056 801.761C864.385 803.493 864.049 805.513 864.049 807.822ZM898.702 782.049V823.285H893.95V782.049H898.702ZM919.969 823.929C917.177 823.929 914.727 823.265 912.62 821.936C910.526 820.607 908.888 818.748 907.707 816.359C906.539 813.969 905.955 811.177 905.955 807.983C905.955 804.761 906.539 801.949 907.707 799.546C908.888 797.143 910.526 795.277 912.62 793.949C914.727 792.62 917.177 791.955 919.969 791.955C922.761 791.955 925.204 792.62 927.298 793.949C929.406 795.277 931.043 797.143 932.211 799.546C933.393 801.949 933.983 804.761 933.983 807.983C933.983 811.177 933.393 813.969 932.211 816.359C931.043 818.748 929.406 820.607 927.298 821.936C925.204 823.265 922.761 823.929 919.969 823.929ZM919.969 819.661C922.09 819.661 923.835 819.117 925.204 818.03C926.574 816.943 927.587 815.513 928.245 813.741C928.902 811.969 929.231 810.05 929.231 807.983C929.231 805.915 928.902 803.989 928.245 802.204C927.587 800.419 926.574 798.976 925.204 797.875C923.835 796.774 922.09 796.224 919.969 796.224C917.848 796.224 916.103 796.774 914.734 797.875C913.365 798.976 912.352 800.419 911.694 802.204C911.036 803.989 910.707 805.915 910.707 807.983C910.707 810.05 911.036 811.969 911.694 813.741C912.352 815.513 913.365 816.943 914.734 818.03C916.103 819.117 917.848 819.661 919.969 819.661ZM953.801 823.929C950.902 823.929 948.405 823.245 946.311 821.876C944.217 820.507 942.606 818.621 941.478 816.218C940.351 813.815 939.787 811.07 939.787 807.983C939.787 804.842 940.364 802.07 941.519 799.667C942.686 797.251 944.311 795.365 946.391 794.009C948.485 792.64 950.928 791.955 953.72 791.955C955.895 791.955 957.855 792.358 959.6 793.163C961.345 793.969 962.774 795.096 963.889 796.546C965.003 797.996 965.694 799.687 965.962 801.62H961.211C960.848 800.211 960.043 798.962 958.794 797.875C957.56 796.774 955.895 796.224 953.801 796.224C951.949 796.224 950.324 796.707 948.928 797.674C947.546 798.627 946.465 799.976 945.687 801.721C944.921 803.452 944.539 805.486 944.539 807.822C944.539 810.211 944.915 812.291 945.666 814.063C946.432 815.835 947.505 817.211 948.888 818.191C950.284 819.171 951.922 819.661 953.801 819.661C955.036 819.661 956.157 819.446 957.164 819.017C958.17 818.587 959.023 817.97 959.721 817.164C960.419 816.359 960.915 815.392 961.211 814.265H965.962C965.694 816.09 965.03 817.735 963.969 819.198C962.922 820.647 961.533 821.802 959.801 822.661C958.083 823.507 956.083 823.929 953.801 823.929ZM977.339 812.01L977.258 806.13H978.225L991.755 792.358H997.635L983.218 806.936H982.815L977.339 812.01ZM972.909 823.285V782.049H977.661V823.285H972.909ZM992.561 823.285L980.48 807.983L983.862 804.68L998.601 823.285H992.561ZM1025.66 799.284L1021.39 800.492C1021.12 799.781 1020.72 799.09 1020.2 798.419C1019.69 797.734 1018.99 797.17 1018.11 796.727C1017.22 796.284 1016.09 796.063 1014.7 796.063C1012.81 796.063 1011.23 796.499 1009.97 797.371C1008.72 798.231 1008.1 799.325 1008.1 800.653C1008.1 801.835 1008.53 802.768 1009.39 803.452C1010.25 804.137 1011.59 804.707 1013.42 805.164L1018.01 806.291C1020.77 806.962 1022.83 807.989 1024.19 809.372C1025.54 810.741 1026.22 812.506 1026.22 814.667C1026.22 816.439 1025.71 818.023 1024.69 819.419C1023.68 820.815 1022.27 821.916 1020.46 822.721C1018.65 823.527 1016.54 823.929 1014.14 823.929C1010.99 823.929 1008.38 823.245 1006.31 821.876C1004.24 820.507 1002.93 818.506 1002.38 815.875L1006.89 814.748C1007.32 816.412 1008.13 817.661 1009.33 818.493C1010.54 819.325 1012.11 819.741 1014.06 819.741C1016.27 819.741 1018.03 819.272 1019.34 818.332C1020.65 817.379 1021.31 816.238 1021.31 814.909C1021.31 813.835 1020.93 812.936 1020.18 812.211C1019.43 811.473 1018.27 810.922 1016.72 810.56L1011.56 809.352C1008.73 808.681 1006.65 807.64 1005.32 806.231C1004.01 804.808 1003.35 803.029 1003.35 800.895C1003.35 799.15 1003.84 797.606 1004.82 796.264C1005.81 794.922 1007.16 793.868 1008.87 793.103C1010.58 792.338 1012.53 791.955 1014.7 791.955C1017.76 791.955 1020.17 792.626 1021.91 793.969C1023.67 795.311 1024.92 797.083 1025.66 799.284ZM1040.46 817.647L1040.14 819.822C1039.91 821.352 1039.56 822.99 1039.09 824.735C1038.64 826.48 1038.16 828.124 1037.66 829.668C1037.17 831.212 1036.76 832.44 1036.43 833.353H1032.81C1032.99 832.494 1033.21 831.359 1033.5 829.95C1033.78 828.54 1034.06 826.963 1034.34 825.218C1034.64 823.487 1034.88 821.715 1035.07 819.902L1035.31 817.647H1040.46ZM1069.96 782.049V823.285H1065.21V782.049H1069.96ZM1078.67 823.285V792.358H1083.42V823.285H1078.67ZM1081.08 787.203C1080.16 787.203 1079.36 786.888 1078.69 786.257C1078.03 785.626 1077.7 784.868 1077.7 783.982C1077.7 783.096 1078.03 782.337 1078.69 781.706C1079.36 781.076 1080.16 780.76 1081.08 780.76C1082.01 780.76 1082.8 781.076 1083.46 781.706C1084.13 782.337 1084.47 783.096 1084.47 783.982C1084.47 784.868 1084.13 785.626 1083.46 786.257C1082.8 786.888 1082.01 787.203 1081.08 787.203ZM1096.55 812.01L1096.47 806.13H1097.44L1110.97 792.358H1116.85L1102.43 806.936H1102.03L1096.55 812.01ZM1092.12 823.285V782.049H1096.87V823.285H1092.12ZM1111.77 823.285L1099.69 807.983L1103.08 804.68L1117.82 823.285H1111.77ZM1134.66 823.929C1131.68 823.929 1129.11 823.272 1126.95 821.956C1124.8 820.627 1123.14 818.775 1121.97 816.399C1120.82 814.01 1120.24 811.231 1120.24 808.063C1120.24 804.895 1120.82 802.103 1121.97 799.687C1123.14 797.257 1124.77 795.365 1126.85 794.009C1128.94 792.64 1131.38 791.955 1134.17 791.955C1135.79 791.955 1137.38 792.224 1138.95 792.761C1140.52 793.298 1141.95 794.17 1143.24 795.378C1144.52 796.573 1145.55 798.157 1146.32 800.13C1147.08 802.103 1147.46 804.533 1147.46 807.419V809.432H1123.62V805.325H1142.63C1142.63 803.58 1142.28 802.023 1141.58 800.653C1140.9 799.284 1139.92 798.204 1138.64 797.412C1137.38 796.62 1135.89 796.224 1134.17 796.224C1132.28 796.224 1130.64 796.694 1129.26 797.633C1127.89 798.559 1126.84 799.768 1126.1 801.258C1125.36 802.748 1124.99 804.345 1124.99 806.05V808.788C1124.99 811.124 1125.4 813.104 1126.2 814.728C1127.02 816.339 1128.15 817.567 1129.6 818.413C1131.05 819.245 1132.74 819.661 1134.66 819.661C1135.91 819.661 1137.03 819.486 1138.04 819.137C1139.06 818.775 1139.94 818.238 1140.68 817.527C1141.42 816.802 1141.99 815.902 1142.39 814.828L1146.98 816.117C1146.5 817.674 1145.69 819.043 1144.54 820.225C1143.4 821.392 1141.99 822.305 1140.32 822.963C1138.64 823.607 1136.75 823.929 1134.66 823.929ZM1175.39 782.049V823.285H1170.64V782.049H1175.39ZM1193.2 824.01C1191.24 824.01 1189.46 823.641 1187.86 822.903C1186.26 822.151 1184.99 821.07 1184.05 819.661C1183.11 818.238 1182.64 816.52 1182.64 814.506C1182.64 812.734 1182.99 811.298 1183.69 810.197C1184.39 809.083 1185.32 808.211 1186.49 807.58C1187.66 806.949 1188.95 806.479 1190.36 806.17C1191.78 805.848 1193.21 805.593 1194.65 805.405C1196.52 805.164 1198.05 804.982 1199.22 804.862C1200.4 804.727 1201.26 804.506 1201.79 804.197C1202.34 803.888 1202.62 803.352 1202.62 802.586V802.425C1202.62 800.439 1202.07 798.895 1200.99 797.794C1199.91 796.694 1198.28 796.143 1196.09 796.143C1193.83 796.143 1192.05 796.64 1190.76 797.633C1189.47 798.627 1188.56 799.687 1188.04 800.815L1183.53 799.204C1184.34 797.325 1185.41 795.861 1186.75 794.814C1188.11 793.754 1189.58 793.016 1191.18 792.6C1192.79 792.17 1194.38 791.955 1195.93 791.955C1196.93 791.955 1198.07 792.076 1199.36 792.318C1200.66 792.546 1201.91 793.022 1203.12 793.747C1204.34 794.472 1205.36 795.566 1206.16 797.029C1206.97 798.492 1207.37 800.452 1207.37 802.909V823.285H1202.62V819.097H1202.38C1202.05 819.768 1201.52 820.486 1200.77 821.252C1200.01 822.017 1199.01 822.668 1197.77 823.205C1196.52 823.742 1194.99 824.01 1193.2 824.01ZM1193.92 819.741C1195.8 819.741 1197.38 819.372 1198.67 818.634C1199.97 817.896 1200.95 816.943 1201.61 815.775C1202.28 814.607 1202.62 813.379 1202.62 812.09V807.741C1202.42 807.983 1201.97 808.204 1201.29 808.405C1200.62 808.593 1199.84 808.761 1198.95 808.909C1198.08 809.043 1197.23 809.164 1196.4 809.271C1195.58 809.365 1194.91 809.446 1194.4 809.513C1193.17 809.674 1192.01 809.936 1190.94 810.298C1189.88 810.647 1189.02 811.177 1188.36 811.889C1187.72 812.587 1187.4 813.54 1187.4 814.748C1187.4 816.399 1188.01 817.647 1189.23 818.493C1190.46 819.325 1192.03 819.741 1193.92 819.741ZM1240.23 792.358L1228.79 823.285H1223.96L1212.52 792.358H1217.67L1226.21 817.003H1226.53L1235.07 792.358H1240.23ZM1254.66 824.01C1252.7 824.01 1250.92 823.641 1249.32 822.903C1247.72 822.151 1246.46 821.07 1245.52 819.661C1244.58 818.238 1244.11 816.52 1244.11 814.506C1244.11 812.734 1244.46 811.298 1245.15 810.197C1245.85 809.083 1246.78 808.211 1247.95 807.58C1249.12 806.949 1250.41 806.479 1251.82 806.17C1253.24 805.848 1254.67 805.593 1256.11 805.405C1257.99 805.164 1259.51 804.982 1260.68 804.862C1261.86 804.727 1262.72 804.506 1263.25 804.197C1263.81 803.888 1264.08 803.352 1264.08 802.586V802.425C1264.08 800.439 1263.54 798.895 1262.45 797.794C1261.38 796.694 1259.74 796.143 1257.56 796.143C1255.29 796.143 1253.51 796.64 1252.22 797.633C1250.93 798.627 1250.03 799.687 1249.5 800.815L1244.99 799.204C1245.8 797.325 1246.87 795.861 1248.21 794.814C1249.57 793.754 1251.05 793.016 1252.64 792.6C1254.25 792.17 1255.84 791.955 1257.4 791.955C1258.39 791.955 1259.53 792.076 1260.82 792.318C1262.12 792.546 1263.38 793.022 1264.58 793.747C1265.81 794.472 1266.82 795.566 1267.62 797.029C1268.43 798.492 1268.83 800.452 1268.83 802.909V823.285H1264.08V819.097H1263.84C1263.52 819.768 1262.98 820.486 1262.23 821.252C1261.48 822.017 1260.48 822.668 1259.23 823.205C1257.98 823.742 1256.46 824.01 1254.66 824.01ZM1255.38 819.741C1257.26 819.741 1258.85 819.372 1260.13 818.634C1261.44 817.896 1262.42 816.943 1263.07 815.775C1263.74 814.607 1264.08 813.379 1264.08 812.09V807.741C1263.88 807.983 1263.44 808.204 1262.75 808.405C1262.08 808.593 1261.3 808.761 1260.42 808.909C1259.54 809.043 1258.69 809.164 1257.86 809.271C1257.04 809.365 1256.38 809.446 1255.87 809.513C1254.63 809.674 1253.48 809.936 1252.4 810.298C1251.34 810.647 1250.48 811.177 1249.82 811.889C1249.18 812.587 1248.86 813.54 1248.86 814.748C1248.86 816.399 1249.47 817.647 1250.69 818.493C1251.93 819.325 1253.49 819.741 1255.38 819.741ZM1284.59 817.647L1284.27 819.822C1284.04 821.352 1283.69 822.99 1283.22 824.735C1282.77 826.48 1282.29 828.124 1281.79 829.668C1281.3 831.212 1280.89 832.44 1280.57 833.353H1276.94C1277.12 832.494 1277.34 831.359 1277.63 829.95C1277.91 828.54 1278.19 826.963 1278.47 825.218C1278.77 823.487 1279.01 821.715 1279.2 819.902L1279.44 817.647H1284.59ZM1309.34 834.883V792.358H1313.93V797.271H1314.5C1314.85 796.734 1315.33 796.049 1315.95 795.217C1316.58 794.371 1317.48 793.62 1318.65 792.962C1319.83 792.291 1321.42 791.955 1323.44 791.955C1326.04 791.955 1328.34 792.606 1330.32 793.908C1332.31 795.21 1333.86 797.056 1334.98 799.445C1336.09 801.835 1336.65 804.654 1336.65 807.902C1336.65 811.177 1336.09 814.016 1334.98 816.419C1333.86 818.808 1332.32 820.661 1330.34 821.976C1328.37 823.278 1326.1 823.929 1323.52 823.929C1321.53 823.929 1319.94 823.601 1318.75 822.943C1317.55 822.272 1316.63 821.513 1315.99 820.668C1315.34 819.809 1314.85 819.097 1314.5 818.533H1314.1V834.883H1309.34ZM1314.02 807.822C1314.02 810.157 1314.36 812.218 1315.04 814.003C1315.73 815.775 1316.73 817.164 1318.04 818.171C1319.36 819.164 1320.97 819.661 1322.87 819.661C1324.86 819.661 1326.52 819.137 1327.85 818.09C1329.19 817.03 1330.2 815.607 1330.87 813.822C1331.55 812.023 1331.89 810.023 1331.89 807.822C1331.89 805.647 1331.56 803.687 1330.89 801.942C1330.23 800.184 1329.23 798.794 1327.89 797.774C1326.56 796.741 1324.89 796.224 1322.87 796.224C1320.94 796.224 1319.32 796.714 1318 797.694C1316.69 798.66 1315.69 800.016 1315.02 801.761C1314.35 803.493 1314.02 805.513 1314.02 807.822ZM1353 824.01C1351.04 824.01 1349.26 823.641 1347.66 822.903C1346.06 822.151 1344.79 821.07 1343.86 819.661C1342.92 818.238 1342.45 816.52 1342.45 814.506C1342.45 812.734 1342.79 811.298 1343.49 810.197C1344.19 809.083 1345.12 808.211 1346.29 807.58C1347.46 806.949 1348.75 806.479 1350.16 806.17C1351.58 805.848 1353.01 805.593 1354.45 805.405C1356.33 805.164 1357.85 804.982 1359.02 804.862C1360.2 804.727 1361.06 804.506 1361.59 804.197C1362.14 803.888 1362.42 803.352 1362.42 802.586V802.425C1362.42 800.439 1361.88 798.895 1360.79 797.794C1359.71 796.694 1358.08 796.143 1355.9 796.143C1353.63 796.143 1351.85 796.64 1350.56 797.633C1349.27 798.627 1348.37 799.687 1347.84 800.815L1343.33 799.204C1344.14 797.325 1345.21 795.861 1346.55 794.814C1347.91 793.754 1349.39 793.016 1350.98 792.6C1352.59 792.17 1354.18 791.955 1355.73 791.955C1356.73 791.955 1357.87 792.076 1359.16 792.318C1360.46 792.546 1361.71 793.022 1362.92 793.747C1364.14 794.472 1365.16 795.566 1365.96 797.029C1366.77 798.492 1367.17 800.452 1367.17 802.909V823.285H1362.42V819.097H1362.18C1361.86 819.768 1361.32 820.486 1360.57 821.252C1359.82 822.017 1358.82 822.668 1357.57 823.205C1356.32 823.742 1354.8 824.01 1353 824.01ZM1353.72 819.741C1355.6 819.741 1357.18 819.372 1358.47 818.634C1359.78 817.896 1360.76 816.943 1361.41 815.775C1362.08 814.607 1362.42 813.379 1362.42 812.09V807.741C1362.22 807.983 1361.78 808.204 1361.09 808.405C1360.42 808.593 1359.64 808.761 1358.75 808.909C1357.88 809.043 1357.03 809.164 1356.2 809.271C1355.38 809.365 1354.71 809.446 1354.2 809.513C1352.97 809.674 1351.82 809.936 1350.74 810.298C1349.68 810.647 1348.82 811.177 1348.16 811.889C1347.52 812.587 1347.2 813.54 1347.2 814.748C1347.2 816.399 1347.81 817.647 1349.03 818.493C1350.26 819.325 1351.83 819.741 1353.72 819.741ZM1375.84 823.285V792.358H1380.44V797.029H1380.76C1381.32 795.499 1382.34 794.257 1383.82 793.304C1385.29 792.351 1386.96 791.875 1388.81 791.875C1389.16 791.875 1389.6 791.881 1390.12 791.895C1390.64 791.908 1391.04 791.928 1391.31 791.955V796.788C1391.15 796.747 1390.78 796.687 1390.2 796.606C1389.64 796.512 1389.04 796.465 1388.41 796.465C1386.91 796.465 1385.56 796.781 1384.38 797.412C1383.21 798.029 1382.29 798.888 1381.6 799.989C1380.93 801.076 1380.6 802.318 1380.6 803.714V823.285H1375.84ZM1412.33 792.358V796.385H1396.3V792.358H1412.33ZM1400.97 784.948H1405.72V814.426C1405.72 815.768 1405.92 816.775 1406.31 817.446C1406.71 818.104 1407.22 818.547 1407.84 818.775C1408.47 818.99 1409.13 819.097 1409.83 819.097C1410.36 819.097 1410.79 819.07 1411.12 819.017C1411.46 818.949 1411.72 818.896 1411.93 818.855L1412.89 823.124C1412.57 823.245 1412.12 823.366 1411.54 823.487C1410.97 823.621 1410.23 823.688 1409.35 823.688C1408.01 823.688 1406.69 823.399 1405.4 822.822C1404.13 822.245 1403.07 821.366 1402.22 820.184C1401.39 819.003 1400.97 817.513 1400.97 815.714V784.948ZM1419.48 823.285V792.358H1424.23V823.285H1419.48ZM1421.89 787.203C1420.97 787.203 1420.17 786.888 1419.5 786.257C1418.84 785.626 1418.51 784.868 1418.51 783.982C1418.51 783.096 1418.84 782.337 1419.5 781.706C1420.17 781.076 1420.97 780.76 1421.89 780.76C1422.82 780.76 1423.61 781.076 1424.27 781.706C1424.94 782.337 1425.28 783.096 1425.28 783.982C1425.28 784.868 1424.94 785.626 1424.27 786.257C1423.61 786.888 1422.82 787.203 1421.89 787.203ZM1445.5 823.929C1442.6 823.929 1440.1 823.245 1438.01 821.876C1435.91 820.507 1434.3 818.621 1433.17 816.218C1432.05 813.815 1431.48 811.07 1431.48 807.983C1431.48 804.842 1432.06 802.07 1433.21 799.667C1434.38 797.251 1436.01 795.365 1438.09 794.009C1440.18 792.64 1442.62 791.955 1445.42 791.955C1447.59 791.955 1449.55 792.358 1451.3 793.163C1453.04 793.969 1454.47 795.096 1455.58 796.546C1456.7 797.996 1457.39 799.687 1457.66 801.62H1452.91C1452.54 800.211 1451.74 798.962 1450.49 797.875C1449.25 796.774 1447.59 796.224 1445.5 796.224C1443.64 796.224 1442.02 796.707 1440.62 797.674C1439.24 798.627 1438.16 799.976 1437.38 801.721C1436.62 803.452 1436.23 805.486 1436.23 807.822C1436.23 810.211 1436.61 812.291 1437.36 814.063C1438.13 815.835 1439.2 817.211 1440.58 818.191C1441.98 819.171 1443.62 819.661 1445.5 819.661C1446.73 819.661 1447.85 819.446 1448.86 819.017C1449.87 818.587 1450.72 817.97 1451.42 817.164C1452.11 816.359 1452.61 815.392 1452.91 814.265H1457.66C1457.39 816.09 1456.72 817.735 1455.66 819.198C1454.62 820.647 1453.23 821.802 1451.5 822.661C1449.78 823.507 1447.78 823.929 1445.5 823.929ZM1469.36 782.049V823.285H1464.6V782.049H1469.36ZM1491.03 823.929C1488.05 823.929 1485.48 823.272 1483.31 821.956C1481.17 820.627 1479.51 818.775 1478.34 816.399C1477.19 814.01 1476.61 811.231 1476.61 808.063C1476.61 804.895 1477.19 802.103 1478.34 799.687C1479.51 797.257 1481.13 795.365 1483.21 794.009C1485.31 792.64 1487.75 791.955 1490.54 791.955C1492.15 791.955 1493.74 792.224 1495.32 792.761C1496.89 793.298 1498.32 794.17 1499.6 795.378C1500.89 796.573 1501.92 798.157 1502.68 800.13C1503.45 802.103 1503.83 804.533 1503.83 807.419V809.432H1479.99V805.325H1499C1499 803.58 1498.65 802.023 1497.95 800.653C1497.27 799.284 1496.29 798.204 1495.01 797.412C1493.75 796.62 1492.26 796.224 1490.54 796.224C1488.65 796.224 1487.01 796.694 1485.63 797.633C1484.26 798.559 1483.21 799.768 1482.47 801.258C1481.73 802.748 1481.36 804.345 1481.36 806.05V808.788C1481.36 811.124 1481.76 813.104 1482.57 814.728C1483.39 816.339 1484.52 817.567 1485.97 818.413C1487.42 819.245 1489.11 819.661 1491.03 819.661C1492.27 819.661 1493.4 819.486 1494.41 819.137C1495.43 818.775 1496.31 818.238 1497.05 817.527C1497.79 816.802 1498.36 815.902 1498.76 814.828L1503.35 816.117C1502.87 817.674 1502.05 819.043 1500.91 820.225C1499.77 821.392 1498.36 822.305 1496.68 822.963C1495.01 823.607 1493.12 823.929 1491.03 823.929ZM1532.97 799.284L1528.7 800.492C1528.43 799.781 1528.03 799.09 1527.51 798.419C1527 797.734 1526.3 797.17 1525.42 796.727C1524.53 796.284 1523.4 796.063 1522.01 796.063C1520.12 796.063 1518.54 796.499 1517.28 797.371C1516.03 798.231 1515.41 799.325 1515.41 800.653C1515.41 801.835 1515.84 802.768 1516.7 803.452C1517.56 804.137 1518.9 804.707 1520.73 805.164L1525.32 806.291C1528.08 806.962 1530.14 807.989 1531.5 809.372C1532.85 810.741 1533.53 812.506 1533.53 814.667C1533.53 816.439 1533.02 818.023 1532 819.419C1530.99 820.815 1529.58 821.916 1527.77 822.721C1525.96 823.527 1523.85 823.929 1521.45 823.929C1518.3 823.929 1515.69 823.245 1513.62 821.876C1511.55 820.507 1510.24 818.506 1509.69 815.875L1514.2 814.748C1514.63 816.412 1515.44 817.661 1516.64 818.493C1517.85 819.325 1519.42 819.741 1521.37 819.741C1523.58 819.741 1525.34 819.272 1526.65 818.332C1527.96 817.379 1528.62 816.238 1528.62 814.909C1528.62 813.835 1528.24 812.936 1527.49 812.211C1526.74 811.473 1525.58 810.922 1524.03 810.56L1518.87 809.352C1516.04 808.681 1513.96 807.64 1512.63 806.231C1511.32 804.808 1510.66 803.029 1510.66 800.895C1510.66 799.15 1511.15 797.606 1512.13 796.264C1513.12 794.922 1514.47 793.868 1516.17 793.103C1517.89 792.338 1519.84 791.955 1522.01 791.955C1525.07 791.955 1527.48 792.626 1529.22 793.969C1530.98 795.311 1532.23 797.083 1532.97 799.284ZM1569.2 823.929C1566.4 823.929 1563.95 823.265 1561.85 821.936C1559.75 820.607 1558.11 818.748 1556.93 816.359C1555.77 813.969 1555.18 811.177 1555.18 807.983C1555.18 804.761 1555.77 801.949 1556.93 799.546C1558.11 797.143 1559.75 795.277 1561.85 793.949C1563.95 792.62 1566.4 791.955 1569.2 791.955C1571.99 791.955 1574.43 792.62 1576.52 793.949C1578.63 795.277 1580.27 797.143 1581.44 799.546C1582.62 801.949 1583.21 804.761 1583.21 807.983C1583.21 811.177 1582.62 813.969 1581.44 816.359C1580.27 818.748 1578.63 820.607 1576.52 821.936C1574.43 823.265 1571.99 823.929 1569.2 823.929ZM1569.2 819.661C1571.32 819.661 1573.06 819.117 1574.43 818.03C1575.8 816.943 1576.81 815.513 1577.47 813.741C1578.13 811.969 1578.46 810.05 1578.46 807.983C1578.46 805.915 1578.13 803.989 1577.47 802.204C1576.81 800.419 1575.8 798.976 1574.43 797.875C1573.06 796.774 1571.32 796.224 1569.2 796.224C1567.07 796.224 1565.33 796.774 1563.96 797.875C1562.59 798.976 1561.58 800.419 1560.92 802.204C1560.26 803.989 1559.93 805.915 1559.93 807.983C1559.93 810.05 1560.26 811.969 1560.92 813.741C1561.58 815.513 1562.59 816.943 1563.96 818.03C1565.33 819.117 1567.07 819.661 1569.2 819.661ZM1590.46 823.285V792.358H1595.05V797.029H1595.38C1595.94 795.499 1596.96 794.257 1598.44 793.304C1599.91 792.351 1601.58 791.875 1603.43 791.875C1603.78 791.875 1604.21 791.881 1604.74 791.895C1605.26 791.908 1605.66 791.928 1605.93 791.955V796.788C1605.77 796.747 1605.4 796.687 1604.82 796.606C1604.26 796.512 1603.66 796.465 1603.03 796.465C1601.52 796.465 1600.18 796.781 1599 797.412C1597.83 798.029 1596.91 798.888 1596.22 799.989C1595.55 801.076 1595.21 802.318 1595.21 803.714V823.285H1590.46ZM1640.07 823.929C1637.17 823.929 1634.67 823.245 1632.58 821.876C1630.49 820.507 1628.88 818.621 1627.75 816.218C1626.62 813.815 1626.06 811.07 1626.06 807.983C1626.06 804.842 1626.63 802.07 1627.79 799.667C1628.96 797.251 1630.58 795.365 1632.66 794.009C1634.75 792.64 1637.2 791.955 1639.99 791.955C1642.16 791.955 1644.12 792.358 1645.87 793.163C1647.61 793.969 1649.04 795.096 1650.16 796.546C1651.27 797.996 1651.96 799.687 1652.23 801.62H1647.48C1647.12 800.211 1646.31 798.962 1645.06 797.875C1643.83 796.774 1642.16 796.224 1640.07 796.224C1638.22 796.224 1636.59 796.707 1635.2 797.674C1633.82 798.627 1632.73 799.976 1631.96 801.721C1631.19 803.452 1630.81 805.486 1630.81 807.822C1630.81 810.211 1631.18 812.291 1631.94 814.063C1632.7 815.835 1633.77 817.211 1635.16 818.191C1636.55 819.171 1638.19 819.661 1640.07 819.661C1641.31 819.661 1642.43 819.446 1643.43 819.017C1644.44 818.587 1645.29 817.97 1645.99 817.164C1646.69 816.359 1647.18 815.392 1647.48 814.265H1652.23C1651.96 816.09 1651.3 817.735 1650.24 819.198C1649.19 820.647 1647.8 821.802 1646.07 822.661C1644.35 823.507 1642.35 823.929 1640.07 823.929ZM1671.74 823.929C1668.95 823.929 1666.5 823.265 1664.39 821.936C1662.3 820.607 1660.66 818.748 1659.48 816.359C1658.31 813.969 1657.73 811.177 1657.73 807.983C1657.73 804.761 1658.31 801.949 1659.48 799.546C1660.66 797.143 1662.3 795.277 1664.39 793.949C1666.5 792.62 1668.95 791.955 1671.74 791.955C1674.53 791.955 1676.98 792.62 1679.07 793.949C1681.18 795.277 1682.82 797.143 1683.98 799.546C1685.17 801.949 1685.76 804.761 1685.76 807.983C1685.76 811.177 1685.17 813.969 1683.98 816.359C1682.82 818.748 1681.18 820.607 1679.07 821.936C1676.98 823.265 1674.53 823.929 1671.74 823.929ZM1671.74 819.661C1673.86 819.661 1675.61 819.117 1676.98 818.03C1678.35 816.943 1679.36 815.513 1680.02 813.741C1680.68 811.969 1681 810.05 1681 807.983C1681 805.915 1680.68 803.989 1680.02 802.204C1679.36 800.419 1678.35 798.976 1676.98 797.875C1675.61 796.774 1673.86 796.224 1671.74 796.224C1669.62 796.224 1667.88 796.774 1666.51 797.875C1665.14 798.976 1664.12 800.419 1663.47 802.204C1662.81 803.989 1662.48 805.915 1662.48 807.983C1662.48 810.05 1662.81 811.969 1663.47 813.741C1664.12 815.513 1665.14 816.943 1666.51 818.03C1667.88 819.117 1669.62 819.661 1671.74 819.661ZM1697.76 782.049V823.285H1693.01V782.049H1697.76ZM1719.03 823.929C1716.24 823.929 1713.79 823.265 1711.68 821.936C1709.59 820.607 1707.95 818.748 1706.77 816.359C1705.6 813.969 1705.02 811.177 1705.02 807.983C1705.02 804.761 1705.6 801.949 1706.77 799.546C1707.95 797.143 1709.59 795.277 1711.68 793.949C1713.79 792.62 1716.24 791.955 1719.03 791.955C1721.82 791.955 1724.26 792.62 1726.36 793.949C1728.47 795.277 1730.1 797.143 1731.27 799.546C1732.45 801.949 1733.04 804.761 1733.04 807.983C1733.04 811.177 1732.45 813.969 1731.27 816.359C1730.1 818.748 1728.47 820.607 1726.36 821.936C1724.26 823.265 1721.82 823.929 1719.03 823.929ZM1719.03 819.661C1721.15 819.661 1722.9 819.117 1724.26 818.03C1725.63 816.943 1726.65 815.513 1727.3 813.741C1727.96 811.969 1728.29 810.05 1728.29 807.983C1728.29 805.915 1727.96 803.989 1727.3 802.204C1726.65 800.419 1725.63 798.976 1724.26 797.875C1722.9 796.774 1721.15 796.224 1719.03 796.224C1716.91 796.224 1715.16 796.774 1713.79 797.875C1712.43 798.976 1711.41 800.419 1710.75 802.204C1710.1 803.989 1709.77 805.915 1709.77 807.983C1709.77 810.05 1710.1 811.969 1710.75 813.741C1711.41 815.513 1712.43 816.943 1713.79 818.03C1715.16 819.117 1716.91 819.661 1719.03 819.661ZM1740.3 823.285V792.358H1744.89V797.029H1745.21C1745.77 795.499 1746.79 794.257 1748.27 793.304C1749.75 792.351 1751.41 791.875 1753.26 791.875C1753.61 791.875 1754.05 791.881 1754.57 791.895C1755.1 791.908 1755.49 791.928 1755.76 791.955V796.788C1755.6 796.747 1755.23 796.687 1754.65 796.606C1754.09 796.512 1753.49 796.465 1752.86 796.465C1751.36 796.465 1750.02 796.781 1748.83 797.412C1747.67 798.029 1746.74 798.888 1746.06 799.989C1745.38 801.076 1745.05 802.318 1745.05 803.714V823.285H1740.3ZM1777.98 823.285V782.049H1782.74V797.271H1783.14C1783.49 796.734 1783.97 796.049 1784.59 795.217C1785.22 794.371 1786.12 793.62 1787.29 792.962C1788.47 792.291 1790.07 791.955 1792.08 791.955C1794.68 791.955 1796.98 792.606 1798.97 793.908C1800.95 795.21 1802.5 797.056 1803.62 799.445C1804.73 801.835 1805.29 804.654 1805.29 807.902C1805.29 811.177 1804.73 814.016 1803.62 816.419C1802.5 818.808 1800.96 820.661 1798.99 821.976C1797.01 823.278 1794.74 823.929 1792.16 823.929C1790.17 823.929 1788.58 823.601 1787.39 822.943C1786.19 822.272 1785.27 821.513 1784.63 820.668C1783.98 819.809 1783.49 819.097 1783.14 818.533H1782.58V823.285H1777.98ZM1782.66 807.822C1782.66 810.157 1783 812.218 1783.68 814.003C1784.37 815.775 1785.37 817.164 1786.68 818.171C1788 819.164 1789.61 819.661 1791.52 819.661C1793.5 819.661 1795.16 819.137 1796.49 818.09C1797.83 817.03 1798.84 815.607 1799.51 813.822C1800.19 812.023 1800.54 810.023 1800.54 807.822C1800.54 805.647 1800.2 803.687 1799.53 801.942C1798.87 800.184 1797.87 798.794 1796.53 797.774C1795.2 796.741 1793.53 796.224 1791.52 796.224C1789.58 796.224 1787.96 796.714 1786.64 797.694C1785.33 798.66 1784.33 800.016 1783.66 801.761C1782.99 803.493 1782.66 805.513 1782.66 807.822ZM1817.31 782.049V823.285H1812.56V782.049H1817.31ZM1838.58 823.929C1835.78 823.929 1833.33 823.265 1831.23 821.936C1829.13 820.607 1827.49 818.748 1826.31 816.359C1825.15 813.969 1824.56 811.177 1824.56 807.983C1824.56 804.761 1825.15 801.949 1826.31 799.546C1827.49 797.143 1829.13 795.277 1831.23 793.949C1833.33 792.62 1835.78 791.955 1838.58 791.955C1841.37 791.955 1843.81 792.62 1845.9 793.949C1848.01 795.277 1849.65 797.143 1850.82 799.546C1852 801.949 1852.59 804.761 1852.59 807.983C1852.59 811.177 1852 813.969 1850.82 816.359C1849.65 818.748 1848.01 820.607 1845.9 821.936C1843.81 823.265 1841.37 823.929 1838.58 823.929ZM1838.58 819.661C1840.7 819.661 1842.44 819.117 1843.81 818.03C1845.18 816.943 1846.19 815.513 1846.85 813.741C1847.51 811.969 1847.84 810.05 1847.84 807.983C1847.84 805.915 1847.51 803.989 1846.85 802.204C1846.19 800.419 1845.18 798.976 1843.81 797.875C1842.44 796.774 1840.7 796.224 1838.58 796.224C1836.45 796.224 1834.71 796.774 1833.34 797.875C1831.97 798.976 1830.96 800.419 1830.3 802.204C1829.64 803.989 1829.31 805.915 1829.31 807.983C1829.31 810.05 1829.64 811.969 1830.3 813.741C1830.96 815.513 1831.97 816.943 1833.34 818.03C1834.71 819.117 1836.45 819.661 1838.58 819.661ZM1872.41 823.929C1869.51 823.929 1867.01 823.245 1864.92 821.876C1862.82 820.507 1861.21 818.621 1860.08 816.218C1858.96 813.815 1858.39 811.07 1858.39 807.983C1858.39 804.842 1858.97 802.07 1860.13 799.667C1861.29 797.251 1862.92 795.365 1865 794.009C1867.09 792.64 1869.53 791.955 1872.33 791.955C1874.5 791.955 1876.46 792.358 1878.21 793.163C1879.95 793.969 1881.38 795.096 1882.49 796.546C1883.61 797.996 1884.3 799.687 1884.57 801.62H1879.82C1879.45 800.211 1878.65 798.962 1877.4 797.875C1876.17 796.774 1874.5 796.224 1872.41 796.224C1870.55 796.224 1868.93 796.707 1867.53 797.674C1866.15 798.627 1865.07 799.976 1864.29 801.721C1863.53 803.452 1863.15 805.486 1863.15 807.822C1863.15 810.211 1863.52 812.291 1864.27 814.063C1865.04 815.835 1866.11 817.211 1867.49 818.191C1868.89 819.171 1870.53 819.661 1872.41 819.661C1873.64 819.661 1874.76 819.446 1875.77 819.017C1876.78 818.587 1877.63 817.97 1878.33 817.164C1879.03 816.359 1879.52 815.392 1879.82 814.265H1884.57C1884.3 816.09 1883.64 817.735 1882.58 819.198C1881.53 820.647 1880.14 821.802 1878.41 822.661C1876.69 823.507 1874.69 823.929 1872.41 823.929ZM1895.95 812.01L1895.86 806.13H1896.83L1910.36 792.358H1916.24L1901.82 806.936H1901.42L1895.95 812.01ZM1891.52 823.285V782.049H1896.27V823.285H1891.52ZM1911.17 823.285L1899.09 807.983L1902.47 804.68L1917.21 823.285H1911.17ZM1944.26 799.284L1940 800.492C1939.73 799.781 1939.33 799.09 1938.81 798.419C1938.3 797.734 1937.6 797.17 1936.71 796.727C1935.83 796.284 1934.69 796.063 1933.31 796.063C1931.42 796.063 1929.84 796.499 1928.58 797.371C1927.33 798.231 1926.71 799.325 1926.71 800.653C1926.71 801.835 1927.14 802.768 1927.99 803.452C1928.85 804.137 1930.2 804.707 1932.02 805.164L1936.61 806.291C1939.38 806.962 1941.44 807.989 1942.79 809.372C1944.15 810.741 1944.83 812.506 1944.83 814.667C1944.83 816.439 1944.32 818.023 1943.3 819.419C1942.29 820.815 1940.88 821.916 1939.07 822.721C1937.26 823.527 1935.15 823.929 1932.75 823.929C1929.59 823.929 1926.98 823.245 1924.91 821.876C1922.85 820.507 1921.54 818.506 1920.99 815.875L1925.5 814.748C1925.93 816.412 1926.74 817.661 1927.93 818.493C1929.14 819.325 1930.72 819.741 1932.67 819.741C1934.88 819.741 1936.64 819.272 1937.94 818.332C1939.26 817.379 1939.91 816.238 1939.91 814.909C1939.91 813.835 1939.54 812.936 1938.79 812.211C1938.04 811.473 1936.88 810.922 1935.32 810.56L1930.17 809.352C1927.34 808.681 1925.26 807.64 1923.93 806.231C1922.61 804.808 1921.95 803.029 1921.95 800.895C1921.95 799.15 1922.44 797.606 1923.42 796.264C1924.42 794.922 1925.77 793.868 1927.47 793.103C1929.19 792.338 1931.14 791.955 1933.31 791.955C1936.37 791.955 1938.77 792.626 1940.52 793.969C1942.28 795.311 1943.53 797.083 1944.26 799.284ZM1955.44 823.607C1954.45 823.607 1953.6 823.252 1952.89 822.54C1952.18 821.829 1951.82 820.976 1951.82 819.983C1951.82 818.99 1952.18 818.137 1952.89 817.426C1953.6 816.714 1954.45 816.359 1955.44 816.359C1956.44 816.359 1957.29 816.714 1958 817.426C1958.71 818.137 1959.07 818.99 1959.07 819.983C1959.07 820.641 1958.9 821.245 1958.56 821.795C1958.24 822.346 1957.81 822.788 1957.26 823.124C1956.72 823.446 1956.12 823.607 1955.44 823.607Z" fill="white"/>
<path d="M1241.42 381.561C1251.51 550.192 1127.76 708.019 1010.52 592.529C842.452 611.839 833.429 546.541 829.101 411.051C824.774 275.561 959.805 200.083 1060 200.083C1160.2 200.083 1241.42 281.334 1241.42 381.561Z" fill="#B7AC5C"/>
<path d="M1437.61 248.909C1444.37 361.437 1361.45 466.755 1282.9 389.689C1170.29 402.574 1218.71 303.652 1169.01 313.789C1119.3 323.926 1026.71 217.345 1111.19 180.083C1178.32 180.083 1437.61 182.027 1437.61 248.909Z" fill="#5C80B7"/>
<path d="M840.605 424.536C754.93 363.095 727.189 240.997 829.302 229.577C886.12 140.479 929.489 233.839 951.335 191.891C973.181 149.944 1104.98 145.757 1082.39 228.864C1042.94 277.452 889.165 463.963 840.605 424.536Z" fill="#B25CB7"/>
<path d="M1392.58 430.831C1399.96 554.181 1309.46 669.629 1223.74 585.15C1100.84 599.275 1094.24 551.511 1091.07 452.402C1087.91 353.294 1186.65 298.083 1259.92 298.083C1333.18 298.083 1392.58 357.516 1392.58 430.831Z" fill="#5CB75C"/>
<path d="M993.667 477.685C999.483 574.882 928.166 665.852 860.606 599.285C763.752 610.415 758.553 572.778 756.058 494.683C753.564 416.588 831.379 373.083 889.119 373.083C946.859 373.083 993.667 419.915 993.667 477.685Z" fill="#B75C5C"/>
</svg>
