<svg width="2164" height="1118" viewBox="0 0 2164 1118" fill="none" xmlns="http://www.w3.org/2000/svg">
<mask id="mask0_624_201" style="mask-type:alpha" maskUnits="userSpaceOnUse" x="0" y="0" width="2164" height="1118">
<rect y="0.613281" width="2163.1" height="1116.99" rx="85.05" fill="#171717"/>
</mask>
<g mask="url(#mask0_624_201)">
<path d="M1567.57 703.914C1610.04 1413.18 1089.24 2077 595.888 1591.25C-111.391 1672.47 -149.36 1397.82 -167.573 827.95C-185.786 258.077 382.457 -59.3867 804.105 -59.3867C1225.75 -59.3867 1567.57 282.354 1567.57 703.914Z" fill="#B7AC5C"/>
<path d="M2391.56 144.937C2419.98 619.602 2071.48 1063.85 1741.35 738.773C1268.07 793.126 1471.57 375.852 1262.68 418.613C1053.79 461.374 664.63 11.793 1019.67 -145.387C1301.82 -145.387 2391.56 -137.185 2391.56 144.937Z" fill="#5C80B7"/>
<path d="M-120.347 884.358C-480.825 625.845 -597.545 112.119 -167.905 64.0697C71.1563 -310.808 253.632 82.002 345.55 -94.4925C437.468 -270.987 991.998 -288.601 896.963 61.0701C730.98 265.502 83.9691 1050.25 -120.347 884.358Z" fill="#B25CB7"/>
<path d="M2203.22 910.49C2234.26 1428.87 1853.7 1914.05 1493.19 1559.02C976.365 1618.38 948.621 1417.65 935.312 1001.15C922.003 584.639 1337.23 352.613 1645.34 352.613C1953.45 352.613 2203.22 602.383 2203.22 910.49Z" fill="#5CB75C"/>
<path d="M525.247 1107.61C549.725 1516.46 249.579 1899.12 -34.7533 1619.11C-442.375 1665.93 -464.257 1507.61 -474.754 1179.11C-485.25 850.613 -157.759 667.613 85.2466 667.613C328.252 667.613 525.247 864.608 525.247 1107.61Z" fill="#B75C5C"/>
</g>
<g filter="url(#filter0_i_624_201)">
<mask id="mask1_624_201" style="mask-type:alpha" maskUnits="userSpaceOnUse" x="529" y="290" width="1111" height="312">
<text fill="white" stroke="black" stroke-width="20" xml:space="preserve" style="white-space: pre" font-family="Inter" font-size="362.88" letter-spacing="0em"><tspan x="528.112" y="578.07">Colors</tspan></text>
</mask>
<g mask="url(#mask1_624_201)">
<g filter="url(#filter1_i_624_201)">
<mask id="mask2_624_201" style="mask-type:alpha" maskUnits="userSpaceOnUse" x="147" y="-649" width="1987" height="2370">
<rect x="1201.3" y="1738.12" width="2143.1" height="1096.99" rx="75.05" transform="rotate(-120 1201.3 1738.12)" fill="#171717" stroke="black" stroke-width="20"/>
</mask>
<g mask="url(#mask2_624_201)">
<path d="M1022.94 42.5756C1615.94 -348.839 2451.23 -229.73 2277.23 440.404C2701.21 1012.32 2482.34 1182.52 1997.92 1483.23C1513.51 1783.94 954.453 1450.56 743.629 1085.4C532.805 720.244 657.855 253.355 1022.94 42.5756Z" fill="#604141"/>
<path d="M126.852 -391.535C523.713 -653.481 1082.7 -573.802 966.233 -125.357C1249.95 257.342 786.823 289.738 928.299 449.261C1069.78 608.784 875.01 1170.6 561.366 941.713C420.291 697.364 -117.473 -250.474 126.852 -391.535Z" fill="#405068"/>
<path d="M1675.52 889.134C1631.88 1330.57 1245.34 1688.52 988.904 1340.46C544.72 1320.87 793.665 966.436 594.858 975.08C396.05 983.724 103.531 512.294 453.872 419.761C713.907 461.291 1717.02 629.246 1675.52 889.134Z" fill="#BF92C2"/>
<path d="M884.01 -611.207C1317.43 -897.277 1927.88 -810.291 1800.67 -320.57C2110.49 97.3354 1950.52 221.728 1596.47 441.507C1242.42 661.285 833.868 417.699 679.814 150.869C525.759 -115.96 617.181 -457.154 884.01 -611.207Z" fill="#5A835A"/>
<path d="M1448.75 433.528C1790.59 207.904 2272.05 276.51 2171.72 662.753C2416.08 992.355 2289.91 1090.46 2010.67 1263.8C1731.43 1437.14 1409.2 1245.03 1287.7 1034.58C1166.2 824.131 1238.3 555.031 1448.75 433.528Z" fill="#B18888"/>
</g>
</g>
</g>
</g>
<defs>
<filter id="filter0_i_624_201" x="529.762" y="290.092" width="1110.21" height="311.645" filterUnits="userSpaceOnUse" color-interpolation-filters="sRGB">
<feFlood flood-opacity="0" result="BackgroundImageFix"/>
<feBlend mode="normal" in="SourceGraphic" in2="BackgroundImageFix" result="shape"/>
<feColorMatrix in="SourceAlpha" type="matrix" values="0 0 0 0 0 0 0 0 0 0 0 0 0 0 0 0 0 0 127 0" result="hardAlpha"/>
<feOffset dx="1356" dy="4"/>
<feGaussianBlur stdDeviation="2"/>
<feComposite in2="hardAlpha" operator="arithmetic" k2="-1" k3="1"/>
<feColorMatrix type="matrix" values="0 0 0 0 1 0 0 0 0 1 0 0 0 0 1 0 0 0 0.1 0"/>
<feBlend mode="normal" in2="shape" result="effect1_innerShadow_624_201"/>
</filter>
<filter id="filter1_i_624_201" x="147.207" y="-648.904" width="1986.66" height="2248.9" filterUnits="userSpaceOnUse" color-interpolation-filters="sRGB">
<feFlood flood-opacity="0" result="BackgroundImageFix"/>
<feBlend mode="normal" in="SourceGraphic" in2="BackgroundImageFix" result="shape"/>
<feColorMatrix in="SourceAlpha" type="matrix" values="0 0 0 0 0 0 0 0 0 0 0 0 0 0 0 0 0 0 127 0" result="hardAlpha"/>
<feOffset dx="2388" dy="4"/>
<feGaussianBlur stdDeviation="2"/>
<feComposite in2="hardAlpha" operator="arithmetic" k2="-1" k3="1"/>
<feColorMatrix type="matrix" values="0 0 0 0 0 0 0 0 0 0 0 0 0 0 0 0 0 0 0.25 0"/>
<feBlend mode="normal" in2="shape" result="effect1_innerShadow_624_201"/>
</filter>
</defs>
</svg>
