<svg width="2164" height="1117" viewBox="0 0 2164 1117" fill="none" xmlns="http://www.w3.org/2000/svg">
<rect width="2163.1" height="1116.99" rx="85.05" fill="#171717"/>
<path d="M84.1491 131.427C80.3691 131.427 76.965 130.676 73.9367 129.172C70.9084 127.669 68.4815 125.607 66.6559 122.987C64.8303 120.367 63.8316 117.381 63.6598 114.031H71.3916C71.6923 117.016 73.0454 119.486 75.4508 121.441C77.8778 123.373 80.7772 124.34 84.1491 124.34C86.8553 124.34 89.2607 123.706 91.3655 122.439C93.4917 121.172 95.1562 119.432 96.359 117.22C97.5832 114.987 98.1953 112.463 98.1953 109.649C98.1953 106.772 97.5617 104.205 96.2945 101.95C95.0488 99.6733 93.3307 97.8799 91.14 96.5698C88.9493 95.2597 86.4472 94.5939 83.6337 94.5724C81.6148 94.551 79.5422 94.8624 77.416 95.5067C75.2898 96.1295 73.5394 96.9349 72.1648 97.9229L64.6907 97.0208L68.6855 64.5472H102.963V71.6347H75.3864L73.0669 91.0931H73.4534C74.8065 90.0193 76.5032 89.1279 78.5436 88.4192C80.5839 87.7104 82.7101 87.3561 84.9223 87.3561C88.96 87.3561 92.5575 88.3226 95.7146 90.2555C98.8933 92.167 101.385 94.7872 103.189 98.1162C105.014 101.445 105.927 105.247 105.927 109.521C105.927 113.73 104.982 117.489 103.092 120.796C101.224 124.082 98.6463 126.681 95.3603 128.592C92.0742 130.482 88.3372 131.427 84.1491 131.427ZM121.914 131.041C120.325 131.041 118.961 130.472 117.823 129.333C116.685 128.195 116.115 126.831 116.115 125.242C116.115 123.653 116.685 122.289 117.823 121.151C118.961 120.012 120.325 119.443 121.914 119.443C123.504 119.443 124.867 120.012 126.006 121.151C127.144 122.289 127.713 123.653 127.713 125.242C127.713 126.294 127.445 127.261 126.908 128.141C126.392 129.022 125.694 129.731 124.814 130.268C123.955 130.783 122.988 131.041 121.914 131.041Z" fill="white"/>
<path d="M93.4433 203.65H88.4498C88.1545 202.214 87.6377 200.952 86.8995 199.865C86.1746 198.777 85.2887 197.865 84.2416 197.126C83.208 196.375 82.0604 195.811 80.7986 195.435C79.5368 195.059 78.2213 194.871 76.8521 194.871C74.3554 194.871 72.0936 195.502 70.0666 196.764C68.0531 198.026 66.4491 199.885 65.2544 202.341C64.0731 204.798 63.4825 207.811 63.4825 211.382C63.4825 214.952 64.0731 217.966 65.2544 220.422C66.4491 222.879 68.0531 224.738 70.0666 226C72.0936 227.262 74.3554 227.892 76.8521 227.892C78.2213 227.892 79.5368 227.705 80.7986 227.329C82.0604 226.953 83.208 226.396 84.2416 225.657C85.2887 224.906 86.1746 223.986 86.8995 222.899C87.6377 221.798 88.1545 220.537 88.4498 219.114H93.4433C93.0675 221.221 92.3829 223.107 91.3895 224.772C90.3962 226.436 89.1613 227.852 87.6847 229.02C86.2082 230.174 84.5504 231.054 82.7114 231.658C80.8858 232.262 78.9327 232.564 76.8521 232.564C73.3352 232.564 70.2076 231.705 67.4692 229.987C64.7309 228.268 62.5764 225.825 61.0059 222.657C59.4354 219.489 58.6501 215.731 58.6501 211.382C58.6501 207.033 59.4354 203.274 61.0059 200.106C62.5764 196.938 64.7309 194.495 67.4692 192.777C70.2076 191.059 73.3352 190.2 76.8521 190.2C78.9327 190.2 80.8858 190.502 82.7114 191.106C84.5504 191.71 86.2082 192.596 87.6847 193.764C89.1613 194.918 90.3962 196.328 91.3895 197.992C92.3829 199.643 93.0675 201.529 93.4433 203.65ZM105.62 190.764V232H100.868V190.764H105.62ZM114.323 232V201.073H119.075V232H114.323ZM116.739 195.918C115.813 195.918 115.015 195.603 114.343 194.972C113.686 194.341 113.357 193.583 113.357 192.697C113.357 191.811 113.686 191.052 114.343 190.421C115.015 189.79 115.813 189.475 116.739 189.475C117.666 189.475 118.458 189.79 119.115 190.421C119.787 191.052 120.122 191.811 120.122 192.697C120.122 193.583 119.787 194.341 119.115 194.972C118.458 195.603 117.666 195.918 116.739 195.918ZM140.343 232.644C137.443 232.644 134.946 231.96 132.852 230.591C130.758 229.221 129.148 227.335 128.02 224.933C126.892 222.53 126.329 219.785 126.329 216.697C126.329 213.556 126.906 210.784 128.06 208.382C129.228 205.966 130.852 204.08 132.933 202.724C135.027 201.355 137.47 200.67 140.262 200.67C142.437 200.67 144.396 201.073 146.141 201.878C147.887 202.684 149.316 203.811 150.43 205.261C151.544 206.711 152.236 208.402 152.504 210.335H147.752C147.39 208.925 146.584 207.677 145.336 206.59C144.101 205.489 142.437 204.939 140.343 204.939C138.49 204.939 136.866 205.422 135.47 206.388C134.087 207.341 133.007 208.69 132.228 210.435C131.463 212.167 131.081 214.201 131.081 216.536C131.081 218.926 131.456 221.006 132.208 222.778C132.973 224.55 134.047 225.926 135.43 226.906C136.826 227.886 138.463 228.376 140.343 228.376C141.578 228.376 142.698 228.161 143.705 227.731C144.712 227.302 145.564 226.684 146.262 225.879C146.96 225.074 147.457 224.107 147.752 222.98H152.504C152.236 224.805 151.571 226.449 150.511 227.913C149.464 229.362 148.074 230.517 146.343 231.376C144.625 232.221 142.625 232.644 140.343 232.644ZM163.88 220.724L163.8 214.845H164.766L178.297 201.073H184.176L169.76 215.65H169.357L163.88 220.724ZM159.451 232V190.764H164.203V232H159.451ZM179.102 232L167.021 216.697L170.404 213.395L185.143 232H179.102ZM190.292 232V201.073H195.044V232H190.292ZM192.709 195.918C191.782 195.918 190.984 195.603 190.313 194.972C189.655 194.341 189.326 193.583 189.326 192.697C189.326 191.811 189.655 191.052 190.313 190.421C190.984 189.79 191.782 189.475 192.709 189.475C193.635 189.475 194.427 189.79 195.085 190.421C195.756 191.052 196.091 191.811 196.091 192.697C196.091 193.583 195.756 194.341 195.085 194.972C194.427 195.603 193.635 195.918 192.709 195.918ZM208.499 213.395V232H203.748V201.073H208.338V205.905H208.741C209.466 204.335 210.567 203.073 212.043 202.12C213.52 201.153 215.426 200.67 217.761 200.67C219.856 200.67 221.688 201.1 223.258 201.959C224.829 202.804 226.05 204.093 226.923 205.825C227.795 207.543 228.232 209.717 228.232 212.348V232H223.48V212.67C223.48 210.241 222.849 208.348 221.587 206.992C220.325 205.623 218.594 204.939 216.392 204.939C214.875 204.939 213.52 205.268 212.325 205.925C211.144 206.583 210.211 207.543 209.526 208.805C208.842 210.066 208.499 211.597 208.499 213.395ZM249.399 244.242C247.103 244.242 245.13 243.947 243.479 243.356C241.828 242.779 240.452 242.014 239.351 241.061C238.264 240.121 237.398 239.114 236.754 238.04L240.539 235.383C240.969 235.946 241.512 236.591 242.17 237.316C242.828 238.054 243.727 238.692 244.868 239.228C246.023 239.779 247.533 240.054 249.399 240.054C251.895 240.054 253.956 239.45 255.58 238.242C257.204 237.034 258.016 235.141 258.016 232.564V226.282H257.614C257.265 226.845 256.768 227.543 256.124 228.376C255.493 229.195 254.58 229.926 253.385 230.57C252.204 231.201 250.607 231.517 248.593 231.517C246.096 231.517 243.855 230.926 241.868 229.745C239.895 228.564 238.331 226.845 237.177 224.59C236.036 222.335 235.465 219.597 235.465 216.375C235.465 213.207 236.022 210.449 237.136 208.1C238.25 205.737 239.801 203.912 241.787 202.623C243.774 201.321 246.07 200.67 248.674 200.67C250.687 200.67 252.285 201.006 253.466 201.677C254.66 202.335 255.573 203.086 256.204 203.932C256.848 204.764 257.345 205.449 257.694 205.986H258.177V201.073H262.768V232.886C262.768 235.544 262.164 237.705 260.956 239.369C259.761 241.047 258.15 242.276 256.124 243.054C254.11 243.846 251.868 244.242 249.399 244.242ZM249.237 227.248C251.144 227.248 252.754 226.812 254.07 225.939C255.385 225.067 256.385 223.812 257.07 222.174C257.755 220.537 258.097 218.577 258.097 216.295C258.097 214.066 257.761 212.1 257.09 210.395C256.419 208.69 255.426 207.355 254.11 206.388C252.795 205.422 251.17 204.939 249.237 204.939C247.224 204.939 245.546 205.449 244.204 206.469C242.875 207.489 241.875 208.858 241.204 210.576C240.546 212.295 240.217 214.201 240.217 216.295C240.217 218.442 240.553 220.342 241.224 221.993C241.908 223.631 242.915 224.919 244.244 225.859C245.586 226.785 247.251 227.248 249.237 227.248ZM300.863 201.073V205.1H284.836V201.073H300.863ZM289.507 193.663H294.259V223.141C294.259 224.483 294.454 225.49 294.843 226.161C295.246 226.819 295.756 227.262 296.373 227.49C297.004 227.705 297.669 227.812 298.367 227.812C298.89 227.812 299.32 227.785 299.655 227.731C299.991 227.664 300.259 227.611 300.461 227.57L301.427 231.839C301.105 231.96 300.655 232.081 300.078 232.201C299.501 232.336 298.769 232.403 297.883 232.403C296.541 232.403 295.226 232.114 293.937 231.537C292.662 230.96 291.601 230.08 290.756 228.899C289.923 227.718 289.507 226.228 289.507 224.429V193.663ZM313.428 213.395V232H308.676V190.764H313.428V205.905H313.83C314.555 204.308 315.642 203.039 317.092 202.1C318.555 201.147 320.502 200.67 322.931 200.67C325.039 200.67 326.884 201.093 328.468 201.939C330.052 202.771 331.281 204.053 332.153 205.784C333.039 207.502 333.482 209.69 333.482 212.348V232H328.73V212.67C328.73 210.214 328.093 208.315 326.817 206.972C325.556 205.617 323.804 204.939 321.562 204.939C320.005 204.939 318.609 205.268 317.374 205.925C316.153 206.583 315.186 207.543 314.475 208.805C313.777 210.066 313.428 211.597 313.428 213.395ZM355.142 232.644C352.162 232.644 349.592 231.987 347.431 230.671C345.283 229.342 343.625 227.49 342.457 225.114C341.303 222.725 340.726 219.946 340.726 216.778C340.726 213.61 341.303 210.818 342.457 208.402C343.625 205.972 345.249 204.08 347.33 202.724C349.424 201.355 351.867 200.67 354.659 200.67C356.27 200.67 357.86 200.938 359.431 201.475C361.001 202.012 362.431 202.885 363.72 204.093C365.008 205.288 366.035 206.872 366.8 208.845C367.565 210.818 367.948 213.248 367.948 216.134V218.147H344.108V214.04H363.116C363.116 212.295 362.767 210.738 362.069 209.368C361.384 207.999 360.404 206.919 359.129 206.127C357.867 205.335 356.377 204.939 354.659 204.939C352.766 204.939 351.129 205.408 349.746 206.348C348.377 207.274 347.323 208.482 346.585 209.972C345.847 211.462 345.477 213.06 345.477 214.764V217.503C345.477 219.838 345.88 221.818 346.686 223.443C347.504 225.053 348.639 226.282 350.088 227.127C351.538 227.96 353.223 228.376 355.142 228.376C356.391 228.376 357.518 228.201 358.525 227.852C359.545 227.49 360.424 226.953 361.163 226.241C361.901 225.517 362.471 224.617 362.874 223.543L367.465 224.832C366.982 226.389 366.169 227.758 365.028 228.939C363.887 230.107 362.478 231.02 360.8 231.678C359.122 232.322 357.236 232.644 355.142 232.644ZM395.875 213.395V232H391.123V190.764H395.875V205.905H396.278C397.003 204.308 398.09 203.039 399.54 202.1C401.003 201.147 402.949 200.67 405.379 200.67C407.486 200.67 409.332 201.093 410.916 201.939C412.5 202.771 413.728 204.053 414.601 205.784C415.487 207.502 415.93 209.69 415.93 212.348V232H411.178V212.67C411.178 210.214 410.54 208.315 409.265 206.972C408.003 205.617 406.251 204.939 404.01 204.939C402.453 204.939 401.057 205.268 399.822 205.925C398.6 206.583 397.634 207.543 396.922 208.805C396.224 210.066 395.875 211.597 395.875 213.395ZM437.59 232.644C434.61 232.644 432.039 231.987 429.878 230.671C427.73 229.342 426.073 227.49 424.905 225.114C423.75 222.725 423.173 219.946 423.173 216.778C423.173 213.61 423.75 210.818 424.905 208.402C426.073 205.972 427.697 204.08 429.777 202.724C431.871 201.355 434.314 200.67 437.106 200.67C438.717 200.67 440.308 200.938 441.878 201.475C443.449 202.012 444.879 202.885 446.167 204.093C447.456 205.288 448.483 206.872 449.248 208.845C450.013 210.818 450.396 213.248 450.396 216.134V218.147H426.556V214.04H445.563C445.563 212.295 445.214 210.738 444.516 209.368C443.832 207.999 442.852 206.919 441.576 206.127C440.315 205.335 438.825 204.939 437.106 204.939C435.214 204.939 433.576 205.408 432.194 206.348C430.824 207.274 429.771 208.482 429.032 209.972C428.294 211.462 427.925 213.06 427.925 214.764V217.503C427.925 219.838 428.328 221.818 429.133 223.443C429.952 225.053 431.086 226.282 432.536 227.127C433.986 227.96 435.67 228.376 437.59 228.376C438.838 228.376 439.966 228.201 440.972 227.852C441.993 227.49 442.872 226.953 443.61 226.241C444.348 225.517 444.919 224.617 445.322 223.543L449.912 224.832C449.429 226.389 448.617 227.758 447.476 228.939C446.335 230.107 444.926 231.02 443.248 231.678C441.57 232.322 439.684 232.644 437.59 232.644ZM460.337 201.073L467.747 213.717L475.157 201.073H480.633L470.646 216.536L480.633 232H475.157L467.747 220L460.337 232H454.86L464.686 216.536L454.86 201.073H460.337ZM515.925 232.644C513.025 232.644 510.529 231.96 508.435 230.591C506.341 229.221 504.73 227.335 503.602 224.933C502.475 222.53 501.911 219.785 501.911 216.697C501.911 213.556 502.488 210.784 503.642 208.382C504.81 205.966 506.434 204.08 508.515 202.724C510.609 201.355 513.052 200.67 515.844 200.67C518.019 200.67 519.979 201.073 521.724 201.878C523.469 202.684 524.898 203.811 526.012 205.261C527.126 206.711 527.818 208.402 528.086 210.335H523.334C522.972 208.925 522.167 207.677 520.918 206.59C519.683 205.489 518.019 204.939 515.925 204.939C514.072 204.939 512.448 205.422 511.052 206.388C509.669 207.341 508.589 208.69 507.81 210.435C507.045 212.167 506.663 214.201 506.663 216.536C506.663 218.926 507.039 221.006 507.79 222.778C508.555 224.55 509.629 225.926 511.012 226.906C512.408 227.886 514.045 228.376 515.925 228.376C517.16 228.376 518.281 228.161 519.287 227.731C520.294 227.302 521.146 226.684 521.844 225.879C522.542 225.074 523.039 224.107 523.334 222.98H528.086C527.818 224.805 527.153 226.449 526.093 227.913C525.046 229.362 523.657 230.517 521.925 231.376C520.207 232.221 518.207 232.644 515.925 232.644ZM547.597 232.644C544.805 232.644 542.355 231.98 540.248 230.651C538.154 229.322 536.516 227.463 535.335 225.074C534.167 222.684 533.583 219.892 533.583 216.697C533.583 213.476 534.167 210.664 535.335 208.261C536.516 205.858 538.154 203.992 540.248 202.663C542.355 201.334 544.805 200.67 547.597 200.67C550.389 200.67 552.832 201.334 554.926 202.663C557.034 203.992 558.671 205.858 559.839 208.261C561.02 210.664 561.611 213.476 561.611 216.697C561.611 219.892 561.02 222.684 559.839 225.074C558.671 227.463 557.034 229.322 554.926 230.651C552.832 231.98 550.389 232.644 547.597 232.644ZM547.597 228.376C549.718 228.376 551.463 227.832 552.832 226.745C554.201 225.657 555.215 224.228 555.872 222.456C556.53 220.684 556.859 218.765 556.859 216.697C556.859 214.63 556.53 212.704 555.872 210.919C555.215 209.133 554.201 207.69 552.832 206.59C551.463 205.489 549.718 204.939 547.597 204.939C545.476 204.939 543.731 205.489 542.362 206.59C540.993 207.69 539.979 209.133 539.322 210.919C538.664 212.704 538.335 214.63 538.335 216.697C538.335 218.765 538.664 220.684 539.322 222.456C539.979 224.228 540.993 225.657 542.362 226.745C543.731 227.832 545.476 228.376 547.597 228.376ZM580.543 232.644C577.966 232.644 575.69 231.993 573.717 230.691C571.744 229.376 570.2 227.523 569.086 225.134C567.972 222.731 567.415 219.892 567.415 216.617C567.415 213.368 567.972 210.55 569.086 208.16C570.2 205.771 571.751 203.925 573.737 202.623C575.724 201.321 578.019 200.67 580.623 200.67C582.637 200.67 584.227 201.006 585.395 201.677C586.577 202.335 587.476 203.086 588.093 203.932C588.724 204.764 589.214 205.449 589.563 205.986H589.966V190.764H594.718V232H590.127V227.248H589.563C589.214 227.812 588.718 228.523 588.073 229.382C587.429 230.228 586.509 230.987 585.315 231.658C584.12 232.315 582.529 232.644 580.543 232.644ZM581.187 228.376C583.093 228.376 584.704 227.879 586.019 226.886C587.335 225.879 588.335 224.49 589.02 222.718C589.704 220.932 590.046 218.872 590.046 216.536C590.046 214.228 589.711 212.207 589.04 210.476C588.369 208.731 587.375 207.375 586.06 206.408C584.744 205.429 583.12 204.939 581.187 204.939C579.174 204.939 577.496 205.455 576.153 206.489C574.824 207.509 573.824 208.899 573.153 210.657C572.496 212.402 572.167 214.362 572.167 216.536C572.167 218.738 572.502 220.738 573.173 222.537C573.858 224.322 574.865 225.745 576.194 226.805C577.536 227.852 579.2 228.376 581.187 228.376ZM617.047 232.644C614.067 232.644 611.497 231.987 609.336 230.671C607.188 229.342 605.53 227.49 604.362 225.114C603.208 222.725 602.631 219.946 602.631 216.778C602.631 213.61 603.208 210.818 604.362 208.402C605.53 205.972 607.154 204.08 609.235 202.724C611.329 201.355 613.772 200.67 616.564 200.67C618.175 200.67 619.766 200.938 621.336 201.475C622.907 202.012 624.336 202.885 625.625 204.093C626.914 205.288 627.94 206.872 628.706 208.845C629.471 210.818 629.853 213.248 629.853 216.134V218.147H606.013V214.04H625.021C625.021 212.295 624.672 210.738 623.974 209.368C623.289 207.999 622.309 206.919 621.034 206.127C619.772 205.335 618.282 204.939 616.564 204.939C614.672 204.939 613.034 205.408 611.651 206.348C610.282 207.274 609.228 208.482 608.49 209.972C607.752 211.462 607.383 213.06 607.383 214.764V217.503C607.383 219.838 607.785 221.818 608.591 223.443C609.41 225.053 610.544 226.282 611.994 227.127C613.443 227.96 615.128 228.376 617.047 228.376C618.296 228.376 619.423 228.201 620.43 227.852C621.45 227.49 622.33 226.953 623.068 226.241C623.806 225.517 624.377 224.617 624.779 223.543L629.37 224.832C628.887 226.389 628.075 227.758 626.934 228.939C625.793 230.107 624.383 231.02 622.705 231.678C621.027 232.322 619.141 232.644 617.047 232.644ZM211.779 283.603C211.779 278.529 212.437 273.865 213.752 269.61C215.081 265.341 216.974 261.415 219.43 257.831H223.618C222.652 259.16 221.746 260.797 220.9 262.744C220.068 264.677 219.336 266.804 218.705 269.126C218.074 271.435 217.578 273.825 217.215 276.294C216.866 278.764 216.692 281.201 216.692 283.603C216.692 286.798 217.001 290.04 217.618 293.329C218.235 296.617 219.068 299.671 220.115 302.49C221.162 305.309 222.33 307.604 223.618 309.376H219.43C216.974 305.792 215.081 301.873 213.752 297.617C212.437 293.349 211.779 288.677 211.779 283.603ZM246.013 301L252.779 259.764H256.806L250.04 301H246.013ZM227.248 289.563L227.892 285.536H258.658L258.014 289.563H227.248ZM231.516 301L238.281 259.764H242.308L235.543 301H231.516ZM229.664 275.227L230.308 271.2H261.074L260.43 275.227H229.664ZM267.044 301V259.764H291.77V264.193H272.038V278.127H289.918V282.556H272.038V301H267.044ZM300.322 301V259.764H325.048V264.193H305.316V278.127H323.196V282.556H305.316V301H300.322ZM333.6 301V259.764H358.326V264.193H338.594V278.127H356.474V282.556H338.594V301H333.6ZM366.878 301V259.764H391.604V264.193H371.872V278.127H389.752V282.556H371.872V301H366.878ZM400.156 301V259.764H424.882V264.193H405.15V278.127H423.03V282.556H405.15V301H400.156ZM433.434 301V259.764H458.16V264.193H438.428V278.127H456.308V282.556H438.428V301H433.434ZM476.216 280.382C476.216 285.456 475.552 290.127 474.223 294.396C472.907 298.651 471.021 302.571 468.565 306.155H464.377C465.343 304.826 466.243 303.188 467.075 301.242C467.92 299.309 468.659 297.188 469.29 294.879C469.921 292.557 470.411 290.161 470.76 287.691C471.122 285.207 471.303 282.771 471.303 280.382C471.303 277.187 470.994 273.945 470.377 270.657C469.759 267.368 468.927 264.314 467.88 261.495C466.833 258.676 465.665 256.381 464.377 254.609H468.565C471.021 258.193 472.907 262.119 474.223 266.388C475.552 270.643 476.216 275.308 476.216 280.382ZM74.9066 370V328.764H79.6584V343.986H80.0611C80.4101 343.449 80.8933 342.764 81.5108 341.932C82.1417 341.086 83.0411 340.335 84.2089 339.677C85.3901 339.006 86.9875 338.67 89.001 338.67C91.6051 338.67 93.9005 339.321 95.8872 340.623C97.8738 341.925 99.4242 343.771 100.538 346.16C101.652 348.55 102.21 351.368 102.21 354.617C102.21 357.892 101.652 360.731 100.538 363.134C99.4242 365.523 97.8805 367.376 95.9073 368.691C93.9341 369.993 91.6588 370.644 89.0816 370.644C87.0949 370.644 85.5042 370.315 84.3096 369.658C83.1149 368.987 82.1954 368.228 81.5511 367.382C80.9068 366.523 80.4101 365.812 80.0611 365.248H79.4973V370H74.9066ZM79.5779 354.536C79.5779 356.872 79.9202 358.932 80.6047 360.718C81.2893 362.49 82.2894 363.879 83.6048 364.886C84.9203 365.879 86.5311 366.376 88.4372 366.376C90.4239 366.376 92.0817 365.852 93.4106 364.805C94.7529 363.745 95.7596 362.322 96.4308 360.537C97.1154 358.738 97.4577 356.738 97.4577 354.536C97.4577 352.362 97.1221 350.402 96.4509 348.657C95.7932 346.899 94.7932 345.509 93.4508 344.489C92.1219 343.455 90.4507 342.939 88.4372 342.939C86.5043 342.939 84.8801 343.429 83.5646 344.408C82.2491 345.375 81.2558 346.731 80.5846 348.476C79.9134 350.207 79.5779 352.228 79.5779 354.536ZM109.478 370V339.073H114.069V343.744H114.391C114.955 342.214 115.975 340.972 117.452 340.019C118.928 339.066 120.593 338.589 122.445 338.589C122.794 338.589 123.23 338.596 123.754 338.61C124.277 338.623 124.673 338.643 124.942 338.67V343.502C124.781 343.462 124.412 343.402 123.834 343.321C123.271 343.227 122.673 343.18 122.042 343.18C120.539 343.18 119.197 343.496 118.015 344.127C116.848 344.744 115.921 345.603 115.237 346.704C114.566 347.791 114.23 349.033 114.23 350.429V370H109.478ZM130.575 370V339.073H135.326V370H130.575ZM132.991 333.918C132.065 333.918 131.266 333.603 130.595 332.972C129.937 332.341 129.608 331.583 129.608 330.697C129.608 329.811 129.937 329.052 130.595 328.421C131.266 327.79 132.065 327.475 132.991 327.475C133.917 327.475 134.709 327.79 135.367 328.421C136.038 329.052 136.373 329.811 136.373 330.697C136.373 331.583 136.038 332.341 135.367 332.972C134.709 333.603 133.917 333.918 132.991 333.918ZM148.782 351.395V370H144.03V339.073H148.621V343.905H149.023C149.748 342.335 150.849 341.073 152.325 340.12C153.802 339.153 155.708 338.67 158.044 338.67C160.138 338.67 161.97 339.1 163.541 339.959C165.111 340.804 166.333 342.093 167.205 343.825C168.078 345.543 168.514 347.717 168.514 350.348V370H163.762V350.67C163.762 348.241 163.131 346.348 161.869 344.992C160.608 343.623 158.876 342.939 156.675 342.939C155.158 342.939 153.802 343.268 152.607 343.925C151.426 344.583 150.493 345.543 149.809 346.805C149.124 348.066 148.782 349.597 148.782 351.395ZM189.681 382.242C187.385 382.242 185.412 381.947 183.761 381.356C182.11 380.779 180.734 380.014 179.633 379.061C178.546 378.121 177.68 377.114 177.036 376.04L180.821 373.383C181.251 373.946 181.795 374.591 182.452 375.316C183.11 376.054 184.009 376.692 185.15 377.228C186.305 377.779 187.815 378.054 189.681 378.054C192.177 378.054 194.238 377.45 195.862 376.242C197.486 375.034 198.299 373.141 198.299 370.564V364.282H197.896C197.547 364.845 197.05 365.543 196.406 366.376C195.775 367.195 194.862 367.926 193.667 368.57C192.486 369.201 190.889 369.517 188.875 369.517C186.379 369.517 184.137 368.926 182.15 367.745C180.177 366.564 178.613 364.845 177.459 362.59C176.318 360.335 175.747 357.597 175.747 354.375C175.747 351.207 176.304 348.449 177.419 346.1C178.533 343.737 180.083 341.912 182.07 340.623C184.056 339.321 186.352 338.67 188.956 338.67C190.969 338.67 192.567 339.006 193.748 339.677C194.943 340.335 195.855 341.086 196.486 341.932C197.131 342.764 197.627 343.449 197.976 343.986H198.46V339.073H203.05V370.886C203.05 373.544 202.446 375.705 201.238 377.369C200.044 379.047 198.433 380.276 196.406 381.054C194.392 381.846 192.151 382.242 189.681 382.242ZM189.52 365.248C191.426 365.248 193.037 364.812 194.352 363.939C195.668 363.067 196.668 361.812 197.352 360.174C198.037 358.537 198.379 356.577 198.379 354.295C198.379 352.066 198.043 350.1 197.372 348.395C196.701 346.69 195.708 345.355 194.392 344.388C193.077 343.422 191.453 342.939 189.52 342.939C187.506 342.939 185.828 343.449 184.486 344.469C183.157 345.489 182.157 346.858 181.486 348.576C180.828 350.295 180.499 352.201 180.499 354.295C180.499 356.442 180.835 358.342 181.506 359.993C182.191 361.631 183.197 362.919 184.526 363.859C185.869 364.785 187.533 365.248 189.52 365.248ZM233.655 345.999L229.387 347.207C229.118 346.496 228.722 345.805 228.199 345.133C227.689 344.449 226.991 343.885 226.105 343.442C225.219 342.999 224.085 342.778 222.702 342.778C220.809 342.778 219.232 343.214 217.97 344.086C216.722 344.945 216.098 346.039 216.098 347.368C216.098 348.55 216.527 349.482 217.386 350.167C218.246 350.852 219.588 351.422 221.413 351.879L226.004 353.006C228.769 353.677 230.83 354.704 232.186 356.087C233.541 357.456 234.219 359.221 234.219 361.382C234.219 363.154 233.709 364.738 232.689 366.134C231.682 367.53 230.273 368.631 228.461 369.436C226.649 370.242 224.541 370.644 222.138 370.644C218.984 370.644 216.373 369.96 214.306 368.591C212.239 367.221 210.93 365.221 210.379 362.59L214.89 361.463C215.319 363.127 216.131 364.376 217.326 365.208C218.534 366.04 220.111 366.456 222.058 366.456C224.273 366.456 226.031 365.986 227.333 365.047C228.649 364.094 229.306 362.953 229.306 361.624C229.306 360.55 228.93 359.651 228.179 358.926C227.427 358.188 226.273 357.637 224.716 357.275L219.561 356.067C216.729 355.395 214.648 354.355 213.319 352.946C212.004 351.523 211.346 349.744 211.346 347.61C211.346 345.865 211.836 344.321 212.816 342.979C213.809 341.637 215.158 340.583 216.863 339.818C218.581 339.053 220.527 338.67 222.702 338.67C225.763 338.67 228.165 339.341 229.91 340.684C231.669 342.026 232.917 343.798 233.655 345.999ZM260.38 381.598C259.574 381.598 258.856 381.531 258.225 381.396C257.594 381.276 257.158 381.155 256.916 381.034L258.124 376.846C259.279 377.141 260.299 377.249 261.185 377.168C262.071 377.087 262.856 376.692 263.541 375.98C264.239 375.282 264.876 374.148 265.454 372.577L266.34 370.161L254.903 339.073H260.057L268.595 363.718H268.917L277.454 339.073H282.609L269.481 374.51C268.89 376.108 268.158 377.43 267.286 378.477C266.413 379.537 265.4 380.323 264.245 380.833C263.104 381.343 261.816 381.598 260.38 381.598ZM300.337 370.644C297.545 370.644 295.096 369.98 292.988 368.651C290.894 367.322 289.256 365.463 288.075 363.074C286.907 360.684 286.323 357.892 286.323 354.697C286.323 351.476 286.907 348.664 288.075 346.261C289.256 343.858 290.894 341.992 292.988 340.663C295.096 339.334 297.545 338.67 300.337 338.67C303.129 338.67 305.572 339.334 307.666 340.663C309.774 341.992 311.412 343.858 312.579 346.261C313.761 348.664 314.351 351.476 314.351 354.697C314.351 357.892 313.761 360.684 312.579 363.074C311.412 365.463 309.774 367.322 307.666 368.651C305.572 369.98 303.129 370.644 300.337 370.644ZM300.337 366.376C302.458 366.376 304.203 365.832 305.572 364.745C306.942 363.657 307.955 362.228 308.613 360.456C309.271 358.684 309.599 356.765 309.599 354.697C309.599 352.63 309.271 350.704 308.613 348.919C307.955 347.133 306.942 345.69 305.572 344.59C304.203 343.489 302.458 342.939 300.337 342.939C298.216 342.939 296.471 343.489 295.102 344.59C293.733 345.69 292.72 347.133 292.062 348.919C291.404 350.704 291.075 352.63 291.075 354.697C291.075 356.765 291.404 358.684 292.062 360.456C292.72 362.228 293.733 363.657 295.102 364.745C296.471 365.832 298.216 366.376 300.337 366.376ZM341.096 357.355V339.073H345.847V370H341.096V364.765H340.773C340.048 366.335 338.921 367.671 337.391 368.772C335.86 369.859 333.927 370.403 331.592 370.403C329.659 370.403 327.941 369.98 326.437 369.134C324.934 368.275 323.753 366.986 322.894 365.268C322.034 363.537 321.605 361.355 321.605 358.724V339.073H326.357V358.402C326.357 360.657 326.988 362.456 328.249 363.798C329.525 365.141 331.149 365.812 333.122 365.812C334.303 365.812 335.505 365.51 336.726 364.906C337.961 364.302 338.995 363.376 339.827 362.127C340.673 360.879 341.096 359.288 341.096 357.355ZM370.498 370V339.073H375.249V370H370.498ZM372.914 333.918C371.988 333.918 371.189 333.603 370.518 332.972C369.86 332.341 369.531 331.583 369.531 330.697C369.531 329.811 369.86 329.052 370.518 328.421C371.189 327.79 371.988 327.475 372.914 327.475C373.84 327.475 374.632 327.79 375.29 328.421C375.961 329.052 376.296 329.811 376.296 330.697C376.296 331.583 375.961 332.341 375.29 332.972C374.632 333.603 373.84 333.918 372.914 333.918ZM388.705 351.395V370H383.953V339.073H388.544V343.905H388.946C389.671 342.335 390.772 341.073 392.248 340.12C393.725 339.153 395.631 338.67 397.967 338.67C400.061 338.67 401.893 339.1 403.464 339.959C405.034 340.804 406.256 342.093 407.128 343.825C408.001 345.543 408.437 347.717 408.437 350.348V370H403.685V350.67C403.685 348.241 403.054 346.348 401.792 344.992C400.531 343.623 398.799 342.939 396.597 342.939C395.081 342.939 393.725 343.268 392.53 343.925C391.349 344.583 390.416 345.543 389.731 346.805C389.047 348.066 388.705 349.597 388.705 351.395ZM430.57 339.073V343.1H414.543V339.073H430.57ZM419.214 331.663H423.966V361.141C423.966 362.483 424.161 363.49 424.55 364.161C424.953 364.819 425.463 365.262 426.08 365.49C426.711 365.705 427.375 365.812 428.073 365.812C428.597 365.812 429.026 365.785 429.362 365.731C429.698 365.664 429.966 365.611 430.167 365.57L431.134 369.839C430.812 369.96 430.362 370.081 429.785 370.201C429.208 370.336 428.476 370.403 427.59 370.403C426.248 370.403 424.932 370.114 423.644 369.537C422.369 368.96 421.308 368.08 420.462 366.899C419.63 365.718 419.214 364.228 419.214 362.429V331.663ZM449.95 370.644C447.158 370.644 444.708 369.98 442.601 368.651C440.507 367.322 438.869 365.463 437.688 363.074C436.52 360.684 435.936 357.892 435.936 354.697C435.936 351.476 436.52 348.664 437.688 346.261C438.869 343.858 440.507 341.992 442.601 340.663C444.708 339.334 447.158 338.67 449.95 338.67C452.742 338.67 455.185 339.334 457.279 340.663C459.387 341.992 461.024 343.858 462.192 346.261C463.373 348.664 463.964 351.476 463.964 354.697C463.964 357.892 463.373 360.684 462.192 363.074C461.024 365.463 459.387 367.322 457.279 368.651C455.185 369.98 452.742 370.644 449.95 370.644ZM449.95 366.376C452.071 366.376 453.816 365.832 455.185 364.745C456.554 363.657 457.568 362.228 458.226 360.456C458.883 358.684 459.212 356.765 459.212 354.697C459.212 352.63 458.883 350.704 458.226 348.919C457.568 347.133 456.554 345.69 455.185 344.59C453.816 343.489 452.071 342.939 449.95 342.939C447.829 342.939 446.084 343.489 444.715 344.59C443.346 345.69 442.332 347.133 441.675 348.919C441.017 350.704 440.688 352.63 440.688 354.697C440.688 356.765 441.017 358.684 441.675 360.456C442.332 362.228 443.346 363.657 444.715 364.745C446.084 365.832 447.829 366.376 449.95 366.376ZM491.916 351.395V370H487.164V328.764H491.916V343.905H492.319C493.044 342.308 494.131 341.039 495.581 340.1C497.044 339.147 498.99 338.67 501.42 338.67C503.527 338.67 505.373 339.093 506.957 339.939C508.541 340.771 509.769 342.053 510.642 343.784C511.528 345.502 511.971 347.69 511.971 350.348V370H507.219V350.67C507.219 348.214 506.581 346.315 505.306 344.972C504.044 343.617 502.293 342.939 500.051 342.939C498.494 342.939 497.098 343.268 495.863 343.925C494.641 344.583 493.675 345.543 492.963 346.805C492.265 348.066 491.916 349.597 491.916 351.395ZM533.631 370.644C530.651 370.644 528.08 369.987 525.919 368.671C523.771 367.342 522.114 365.49 520.946 363.114C519.791 360.725 519.214 357.946 519.214 354.778C519.214 351.61 519.791 348.818 520.946 346.402C522.114 343.972 523.738 342.08 525.819 340.724C527.913 339.355 530.356 338.67 533.148 338.67C534.758 338.67 536.349 338.938 537.92 339.475C539.49 340.012 540.92 340.885 542.208 342.093C543.497 343.288 544.524 344.872 545.289 346.845C546.054 348.818 546.437 351.248 546.437 354.134V356.147H522.597V352.04H541.604C541.604 350.295 541.255 348.738 540.557 347.368C539.873 345.999 538.893 344.919 537.618 344.127C536.356 343.335 534.866 342.939 533.148 342.939C531.255 342.939 529.617 343.408 528.235 344.348C526.866 345.274 525.812 346.482 525.074 347.972C524.335 349.462 523.966 351.06 523.966 352.764V355.503C523.966 357.838 524.369 359.818 525.174 361.443C525.993 363.053 527.127 364.282 528.577 365.127C530.027 365.96 531.711 366.376 533.631 366.376C534.879 366.376 536.007 366.201 537.014 365.852C538.034 365.49 538.913 364.953 539.651 364.241C540.389 363.517 540.96 362.617 541.363 361.543L545.953 362.832C545.47 364.389 544.658 365.758 543.517 366.939C542.376 368.107 540.967 369.02 539.289 369.678C537.611 370.322 535.725 370.644 533.631 370.644ZM553.665 370V339.073H558.256V343.744H558.578C559.142 342.214 560.162 340.972 561.639 340.019C563.115 339.066 564.78 338.589 566.632 338.589C566.981 338.589 567.417 338.596 567.941 338.61C568.464 338.623 568.86 338.643 569.129 338.67V343.502C568.968 343.462 568.599 343.402 568.021 343.321C567.458 343.227 566.86 343.18 566.229 343.18C564.726 343.18 563.384 343.496 562.202 344.127C561.035 344.744 560.108 345.603 559.424 346.704C558.753 347.791 558.417 349.033 558.417 350.429V370H553.665ZM586.787 370.644C583.807 370.644 581.237 369.987 579.075 368.671C576.928 367.342 575.27 365.49 574.102 363.114C572.948 360.725 572.371 357.946 572.371 354.778C572.371 351.61 572.948 348.818 574.102 346.402C575.27 343.972 576.894 342.08 578.975 340.724C581.069 339.355 583.512 338.67 586.304 338.67C587.915 338.67 589.505 338.938 591.076 339.475C592.646 340.012 594.076 340.885 595.365 342.093C596.653 343.288 597.68 344.872 598.445 346.845C599.21 348.818 599.593 351.248 599.593 354.134V356.147H575.753V352.04H594.761C594.761 350.295 594.412 348.738 593.714 347.368C593.029 345.999 592.049 344.919 590.774 344.127C589.512 343.335 588.022 342.939 586.304 342.939C584.411 342.939 582.774 343.408 581.391 344.348C580.022 345.274 578.968 346.482 578.23 347.972C577.491 349.462 577.122 351.06 577.122 352.764V355.503C577.122 357.838 577.525 359.818 578.33 361.443C579.149 363.053 580.284 364.282 581.733 365.127C583.183 365.96 584.868 366.376 586.787 366.376C588.035 366.376 589.163 366.201 590.17 365.852C591.19 365.49 592.069 364.953 592.807 364.241C593.546 363.517 594.116 362.617 594.519 361.543L599.11 362.832C598.626 364.389 597.814 365.758 596.673 366.939C595.532 368.107 594.123 369.02 592.445 369.678C590.767 370.322 588.881 370.644 586.787 370.644ZM610.285 370.322C609.291 370.322 608.439 369.966 607.727 369.255C607.016 368.544 606.66 367.691 606.66 366.698C606.66 365.705 607.016 364.852 607.727 364.141C608.439 363.429 609.291 363.074 610.285 363.074C611.278 363.074 612.13 363.429 612.842 364.141C613.553 364.852 613.909 365.705 613.909 366.698C613.909 367.356 613.741 367.96 613.406 368.51C613.083 369.06 612.647 369.503 612.097 369.839C611.56 370.161 610.956 370.322 610.285 370.322ZM77.6021 466.764V508H72.6087V466.764H77.6021ZM100.42 477.073V481.1H84.3926V477.073H100.42ZM89.064 469.663H93.8158V499.141C93.8158 500.483 94.0104 501.49 94.3997 502.161C94.8024 502.819 95.3125 503.262 95.93 503.49C96.5609 503.705 97.2253 503.812 97.9233 503.812C98.4468 503.812 98.8764 503.785 99.212 503.731C99.5475 503.664 99.816 503.611 100.017 503.57L100.984 507.839C100.662 507.96 100.212 508.081 99.6348 508.201C99.0576 508.336 98.326 508.403 97.4401 508.403C96.0978 508.403 94.7823 508.114 93.4936 507.537C92.2184 506.96 91.158 506.08 90.3123 504.899C89.4801 503.718 89.064 502.228 89.064 500.429V469.663ZM132.616 508.725C130.656 508.725 128.877 508.356 127.28 507.617C125.683 506.866 124.414 505.785 123.475 504.376C122.535 502.953 122.065 501.235 122.065 499.221C122.065 497.449 122.414 496.013 123.112 494.912C123.81 493.798 124.743 492.926 125.911 492.295C127.079 491.664 128.367 491.194 129.777 490.885C131.2 490.563 132.629 490.308 134.066 490.12C135.945 489.879 137.468 489.697 138.636 489.577C139.817 489.442 140.677 489.221 141.213 488.912C141.764 488.603 142.039 488.066 142.039 487.301V487.14C142.039 485.154 141.495 483.61 140.408 482.509C139.334 481.408 137.703 480.858 135.515 480.858C133.247 480.858 131.468 481.355 130.18 482.348C128.891 483.341 127.985 484.402 127.461 485.529L122.951 483.919C123.756 482.039 124.83 480.576 126.173 479.529C127.528 478.469 129.005 477.73 130.602 477.314C132.213 476.885 133.797 476.67 135.354 476.67C136.348 476.67 137.488 476.791 138.777 477.032C140.079 477.261 141.334 477.737 142.542 478.462C143.764 479.187 144.777 480.281 145.583 481.744C146.388 483.207 146.791 485.167 146.791 487.623V508H142.039V503.812H141.797C141.475 504.483 140.938 505.201 140.187 505.966C139.435 506.731 138.435 507.383 137.186 507.919C135.938 508.456 134.415 508.725 132.616 508.725ZM133.341 504.456C135.22 504.456 136.804 504.087 138.093 503.349C139.395 502.611 140.374 501.657 141.032 500.49C141.703 499.322 142.039 498.094 142.039 496.805V492.456C141.838 492.697 141.395 492.919 140.71 493.12C140.039 493.308 139.26 493.476 138.374 493.624C137.502 493.758 136.65 493.879 135.817 493.986C134.998 494.08 134.334 494.161 133.824 494.228C132.589 494.389 131.435 494.651 130.361 495.013C129.3 495.362 128.441 495.892 127.783 496.604C127.139 497.302 126.817 498.255 126.817 499.463C126.817 501.114 127.428 502.362 128.649 503.208C129.884 504.04 131.448 504.456 133.341 504.456ZM160.216 466.764V508H155.464V466.764H160.216ZM173.671 466.764V508H168.919V466.764H173.671ZM194.939 508.644C192.146 508.644 189.697 507.98 187.589 506.651C185.495 505.322 183.858 503.463 182.676 501.074C181.509 498.684 180.925 495.892 180.925 492.697C180.925 489.476 181.509 486.664 182.676 484.261C183.858 481.858 185.495 479.992 187.589 478.663C189.697 477.334 192.146 476.67 194.939 476.67C197.731 476.67 200.174 477.334 202.268 478.663C204.375 479.992 206.013 481.858 207.181 484.261C208.362 486.664 208.952 489.476 208.952 492.697C208.952 495.892 208.362 498.684 207.181 501.074C206.013 503.463 204.375 505.322 202.268 506.651C200.174 507.98 197.731 508.644 194.939 508.644ZM194.939 504.376C197.059 504.376 198.804 503.832 200.174 502.745C201.543 501.657 202.556 500.228 203.214 498.456C203.872 496.684 204.201 494.765 204.201 492.697C204.201 490.63 203.872 488.704 203.214 486.919C202.556 485.133 201.543 483.69 200.174 482.59C198.804 481.489 197.059 480.939 194.939 480.939C192.818 480.939 191.073 481.489 189.703 482.59C188.334 483.69 187.321 485.133 186.663 486.919C186.005 488.704 185.676 490.63 185.676 492.697C185.676 494.765 186.005 496.684 186.663 498.456C187.321 500.228 188.334 501.657 189.703 502.745C191.073 503.832 192.818 504.376 194.939 504.376ZM222.161 508L212.738 477.073H217.731L224.416 500.751H224.738L231.342 477.073H236.416L242.94 500.671H243.262L249.947 477.073H254.941L245.517 508H240.846L234.081 484.241H233.598L226.832 508H222.161ZM283.13 483.999L278.861 485.207C278.592 484.496 278.197 483.805 277.673 483.133C277.163 482.449 276.465 481.885 275.579 481.442C274.693 480.999 273.559 480.778 272.176 480.778C270.283 480.778 268.706 481.214 267.444 482.086C266.196 482.945 265.572 484.039 265.572 485.368C265.572 486.55 266.001 487.482 266.861 488.167C267.72 488.852 269.062 489.422 270.888 489.879L275.478 491.006C278.243 491.677 280.304 492.704 281.66 494.087C283.015 495.456 283.693 497.221 283.693 499.382C283.693 501.154 283.183 502.738 282.163 504.134C281.156 505.53 279.747 506.631 277.935 507.436C276.123 508.242 274.015 508.644 271.612 508.644C268.458 508.644 265.847 507.96 263.78 506.591C261.713 505.221 260.404 503.221 259.854 500.59L264.364 499.463C264.793 501.127 265.605 502.376 266.8 503.208C268.008 504.04 269.585 504.456 271.532 504.456C273.747 504.456 275.505 503.986 276.807 503.047C278.123 502.094 278.78 500.953 278.78 499.624C278.78 498.55 278.405 497.651 277.653 496.926C276.901 496.188 275.747 495.637 274.19 495.275L269.035 494.067C266.203 493.395 264.122 492.355 262.793 490.946C261.478 489.523 260.82 487.744 260.82 485.61C260.82 483.865 261.31 482.321 262.29 480.979C263.283 479.637 264.632 478.583 266.337 477.818C268.055 477.053 270.002 476.67 272.176 476.67C275.237 476.67 277.639 477.341 279.384 478.684C281.143 480.026 282.391 481.798 283.13 483.999ZM309.854 519.598C309.048 519.598 308.33 519.531 307.699 519.396C307.068 519.276 306.632 519.155 306.39 519.034L307.599 514.846C308.753 515.141 309.773 515.249 310.659 515.168C311.545 515.087 312.33 514.692 313.015 513.98C313.713 513.282 314.35 512.148 314.928 510.577L315.814 508.161L304.377 477.073H309.531L318.069 501.718H318.391L326.928 477.073H332.083L318.955 512.51C318.364 514.108 317.632 515.43 316.76 516.477C315.887 517.537 314.874 518.323 313.72 518.833C312.579 519.343 311.29 519.598 309.854 519.598ZM349.811 508.644C347.019 508.644 344.57 507.98 342.462 506.651C340.368 505.322 338.731 503.463 337.549 501.074C336.381 498.684 335.798 495.892 335.798 492.697C335.798 489.476 336.381 486.664 337.549 484.261C338.731 481.858 340.368 479.992 342.462 478.663C344.57 477.334 347.019 476.67 349.811 476.67C352.603 476.67 355.047 477.334 357.141 478.663C359.248 479.992 360.886 481.858 362.053 484.261C363.235 486.664 363.825 489.476 363.825 492.697C363.825 495.892 363.235 498.684 362.053 501.074C360.886 503.463 359.248 505.322 357.141 506.651C355.047 507.98 352.603 508.644 349.811 508.644ZM349.811 504.376C351.932 504.376 353.677 503.832 355.047 502.745C356.416 501.657 357.429 500.228 358.087 498.456C358.745 496.684 359.074 494.765 359.074 492.697C359.074 490.63 358.745 488.704 358.087 486.919C357.429 485.133 356.416 483.69 355.047 482.59C353.677 481.489 351.932 480.939 349.811 480.939C347.691 480.939 345.946 481.489 344.576 482.59C343.207 483.69 342.194 485.133 341.536 486.919C340.878 488.704 340.549 490.63 340.549 492.697C340.549 494.765 340.878 496.684 341.536 498.456C342.194 500.228 343.207 501.657 344.576 502.745C345.946 503.832 347.691 504.376 349.811 504.376ZM390.57 495.355V477.073H395.321V508H390.57V502.765H390.247C389.523 504.335 388.395 505.671 386.865 506.772C385.335 507.859 383.402 508.403 381.066 508.403C379.133 508.403 377.415 507.98 375.911 507.134C374.408 506.275 373.227 504.986 372.368 503.268C371.509 501.537 371.079 499.355 371.079 496.724V477.073H375.831V496.402C375.831 498.657 376.462 500.456 377.724 501.798C378.999 503.141 380.623 503.812 382.596 503.812C383.777 503.812 384.979 503.51 386.2 502.906C387.435 502.302 388.469 501.376 389.301 500.127C390.147 498.879 390.57 497.288 390.57 495.355ZM433.422 477.073V481.1H417.394V477.073H433.422ZM422.066 469.663H426.818V499.141C426.818 500.483 427.012 501.49 427.401 502.161C427.804 502.819 428.314 503.262 428.932 503.49C429.563 503.705 430.227 503.812 430.925 503.812C431.449 503.812 431.878 503.785 432.214 503.731C432.549 503.664 432.818 503.611 433.019 503.57L433.986 507.839C433.663 507.96 433.214 508.081 432.637 508.201C432.059 508.336 431.328 508.403 430.442 508.403C429.1 508.403 427.784 508.114 426.495 507.537C425.22 506.96 424.16 506.08 423.314 504.899C422.482 503.718 422.066 502.228 422.066 500.429V469.663ZM452.802 508.644C450.01 508.644 447.56 507.98 445.452 506.651C443.358 505.322 441.721 503.463 440.54 501.074C439.372 498.684 438.788 495.892 438.788 492.697C438.788 489.476 439.372 486.664 440.54 484.261C441.721 481.858 443.358 479.992 445.452 478.663C447.56 477.334 450.01 476.67 452.802 476.67C455.594 476.67 458.037 477.334 460.131 478.663C462.238 479.992 463.876 481.858 465.044 484.261C466.225 486.664 466.816 489.476 466.816 492.697C466.816 495.892 466.225 498.684 465.044 501.074C463.876 503.463 462.238 505.322 460.131 506.651C458.037 507.98 455.594 508.644 452.802 508.644ZM452.802 504.376C454.923 504.376 456.668 503.832 458.037 502.745C459.406 501.657 460.419 500.228 461.077 498.456C461.735 496.684 462.064 494.765 462.064 492.697C462.064 490.63 461.735 488.704 461.077 486.919C460.419 485.133 459.406 483.69 458.037 482.59C456.668 481.489 454.923 480.939 452.802 480.939C450.681 480.939 448.936 481.489 447.567 482.59C446.197 483.69 445.184 485.133 444.526 486.919C443.868 488.704 443.54 490.63 443.54 492.697C443.54 494.765 443.868 496.684 444.526 498.456C445.184 500.228 446.197 501.657 447.567 502.745C448.936 503.832 450.681 504.376 452.802 504.376ZM490.016 508V477.073H494.768V508H490.016ZM492.432 471.918C491.506 471.918 490.707 471.603 490.036 470.972C489.379 470.341 489.05 469.583 489.05 468.697C489.05 467.811 489.379 467.052 490.036 466.421C490.707 465.79 491.506 465.475 492.432 465.475C493.359 465.475 494.15 465.79 494.808 466.421C495.479 467.052 495.815 467.811 495.815 468.697C495.815 469.583 495.479 470.341 494.808 470.972C494.15 471.603 493.359 471.918 492.432 471.918ZM508.223 489.395V508H503.471V477.073H508.062V481.905H508.465C509.19 480.335 510.29 479.073 511.767 478.12C513.243 477.153 515.15 476.67 517.485 476.67C519.579 476.67 521.412 477.1 522.982 477.959C524.553 478.804 525.774 480.093 526.647 481.825C527.519 483.543 527.955 485.717 527.955 488.348V508H523.204V488.67C523.204 486.241 522.573 484.348 521.311 482.992C520.049 481.623 518.317 480.939 516.116 480.939C514.599 480.939 513.243 481.268 512.049 481.925C510.868 482.583 509.935 483.543 509.25 484.805C508.565 486.066 508.223 487.597 508.223 489.395ZM536.639 519.598V477.073H541.229V481.986H541.793C542.142 481.449 542.625 480.764 543.243 479.932C543.874 479.086 544.773 478.335 545.941 477.677C547.122 477.006 548.72 476.67 550.733 476.67C553.337 476.67 555.633 477.321 557.619 478.623C559.606 479.925 561.156 481.771 562.27 484.16C563.384 486.55 563.942 489.368 563.942 492.617C563.942 495.892 563.384 498.731 562.27 501.134C561.156 503.523 559.613 505.376 557.639 506.691C555.666 507.993 553.391 508.644 550.814 508.644C548.827 508.644 547.236 508.315 546.042 507.658C544.847 506.987 543.927 506.228 543.283 505.382C542.639 504.523 542.142 503.812 541.793 503.248H541.39V519.598H536.639ZM541.31 492.536C541.31 494.872 541.652 496.932 542.337 498.718C543.021 500.49 544.021 501.879 545.337 502.886C546.652 503.879 548.263 504.376 550.169 504.376C552.156 504.376 553.814 503.852 555.143 502.805C556.485 501.745 557.492 500.322 558.163 498.537C558.847 496.738 559.19 494.738 559.19 492.536C559.19 490.362 558.854 488.402 558.183 486.657C557.525 484.899 556.525 483.509 555.183 482.489C553.854 481.455 552.183 480.939 550.169 480.939C548.236 480.939 546.612 481.429 545.297 482.408C543.981 483.375 542.988 484.731 542.317 486.476C541.645 488.207 541.31 490.228 541.31 492.536ZM590.681 495.355V477.073H595.433V508H590.681V502.765H590.359C589.634 504.335 588.506 505.671 586.976 506.772C585.446 507.859 583.513 508.403 581.177 508.403C579.244 508.403 577.526 507.98 576.023 507.134C574.519 506.275 573.338 504.986 572.479 503.268C571.62 501.537 571.19 499.355 571.19 496.724V477.073H575.942V496.402C575.942 498.657 576.573 500.456 577.835 501.798C579.11 503.141 580.734 503.812 582.707 503.812C583.889 503.812 585.09 503.51 586.311 502.906C587.546 502.302 588.58 501.376 589.412 500.127C590.258 498.879 590.681 497.288 590.681 495.355ZM617.586 477.073V481.1H601.559V477.073H617.586ZM606.23 469.663H610.982V499.141C610.982 500.483 611.176 501.49 611.566 502.161C611.968 502.819 612.478 503.262 613.096 503.49C613.727 503.705 614.391 503.812 615.089 503.812C615.613 503.812 616.042 503.785 616.378 503.731C616.714 503.664 616.982 503.611 617.183 503.57L618.15 507.839C617.828 507.96 617.378 508.081 616.801 508.201C616.224 508.336 615.492 508.403 614.606 508.403C613.264 508.403 611.948 508.114 610.66 507.537C609.384 506.96 608.324 506.08 607.478 504.899C606.646 503.718 606.23 502.228 606.23 500.429V469.663ZM118.549 577.564C116.858 577.537 115.166 577.215 113.475 576.597C111.784 575.98 110.24 574.94 108.844 573.476C107.448 572 106.327 570.006 105.481 567.496C104.636 564.973 104.213 561.805 104.213 557.993C104.213 554.341 104.555 551.106 105.24 548.288C105.924 545.455 106.918 543.073 108.22 541.14C109.522 539.193 111.092 537.717 112.931 536.71C114.784 535.703 116.871 535.2 119.193 535.2C121.502 535.2 123.556 535.663 125.355 536.589C127.167 537.502 128.643 538.777 129.784 540.415C130.925 542.052 131.664 543.938 131.999 546.073H127.086C126.63 544.22 125.744 542.683 124.428 541.462C123.113 540.24 121.368 539.63 119.193 539.63C115.999 539.63 113.482 541.019 111.643 543.797C109.817 546.576 108.898 550.476 108.884 555.496H109.206C109.958 554.355 110.851 553.382 111.884 552.576C112.931 551.757 114.086 551.127 115.348 550.684C116.609 550.241 117.945 550.019 119.354 550.019C121.717 550.019 123.878 550.61 125.838 551.791C127.798 552.959 129.368 554.576 130.549 556.644C131.731 558.697 132.321 561.053 132.321 563.711C132.321 566.261 131.751 568.597 130.61 570.718C129.469 572.825 127.865 574.503 125.798 575.752C123.744 576.987 121.328 577.591 118.549 577.564ZM118.549 573.134C120.24 573.134 121.757 572.711 123.1 571.866C124.455 571.02 125.522 569.886 126.301 568.463C127.093 567.04 127.489 565.456 127.489 563.711C127.489 562.006 127.106 560.456 126.341 559.06C125.59 557.65 124.549 556.529 123.22 555.697C121.905 554.865 120.401 554.449 118.71 554.449C117.435 554.449 116.247 554.704 115.146 555.214C114.046 555.711 113.079 556.395 112.247 557.268C111.428 558.14 110.784 559.14 110.314 560.268C109.844 561.382 109.609 562.557 109.609 563.791C109.609 565.429 109.992 566.959 110.757 568.382C111.535 569.805 112.596 570.953 113.938 571.825C115.294 572.698 116.831 573.134 118.549 573.134ZM158.039 557.107V561.536H139.998V557.107H158.039ZM178.964 577.644C176.065 577.644 173.568 576.96 171.474 575.591C169.38 574.221 167.769 572.335 166.641 569.933C165.514 567.53 164.95 564.785 164.95 561.697C164.95 558.556 165.527 555.784 166.682 553.382C167.849 550.966 169.474 549.08 171.554 547.724C173.648 546.355 176.091 545.67 178.883 545.67C181.058 545.67 183.018 546.073 184.763 546.878C186.508 547.684 187.937 548.811 189.052 550.261C190.166 551.711 190.857 553.402 191.125 555.335H186.374C186.011 553.925 185.206 552.677 183.957 551.59C182.722 550.489 181.058 549.939 178.964 549.939C177.112 549.939 175.487 550.422 174.091 551.388C172.709 552.341 171.628 553.69 170.85 555.435C170.084 557.167 169.702 559.201 169.702 561.536C169.702 563.926 170.078 566.006 170.829 567.778C171.595 569.55 172.668 570.926 174.051 571.906C175.447 572.886 177.085 573.376 178.964 573.376C180.199 573.376 181.32 573.161 182.326 572.731C183.333 572.302 184.186 571.684 184.884 570.879C185.582 570.074 186.078 569.107 186.374 567.98H191.125C190.857 569.805 190.193 571.449 189.132 572.913C188.085 574.362 186.696 575.517 184.964 576.376C183.246 577.221 181.246 577.644 178.964 577.644ZM202.824 558.395V577H198.072V535.764H202.824V550.905H203.227C203.951 549.308 205.039 548.039 206.488 547.1C207.952 546.147 209.898 545.67 212.328 545.67C214.435 545.67 216.281 546.093 217.865 546.939C219.449 547.771 220.677 549.053 221.549 550.784C222.435 552.502 222.878 554.69 222.878 557.348V577H218.126V557.67C218.126 555.214 217.489 553.315 216.214 551.972C214.952 550.617 213.2 549.939 210.958 549.939C209.401 549.939 208.005 550.268 206.77 550.925C205.549 551.583 204.582 552.543 203.871 553.805C203.173 555.066 202.824 556.597 202.824 558.395ZM240.673 577.725C238.713 577.725 236.934 577.356 235.337 576.617C233.739 575.866 232.471 574.785 231.531 573.376C230.592 571.953 230.122 570.235 230.122 568.221C230.122 566.449 230.471 565.013 231.169 563.912C231.867 562.798 232.8 561.926 233.968 561.295C235.135 560.664 236.424 560.194 237.833 559.885C239.256 559.563 240.686 559.308 242.122 559.12C244.001 558.879 245.525 558.697 246.693 558.577C247.874 558.442 248.733 558.221 249.27 557.912C249.82 557.603 250.096 557.066 250.096 556.301V556.14C250.096 554.154 249.552 552.61 248.465 551.509C247.391 550.408 245.76 549.858 243.572 549.858C241.303 549.858 239.525 550.355 238.236 551.348C236.948 552.341 236.041 553.402 235.518 554.529L231.008 552.919C231.813 551.039 232.887 549.576 234.229 548.529C235.585 547.469 237.062 546.73 238.659 546.314C240.27 545.885 241.854 545.67 243.411 545.67C244.404 545.67 245.545 545.791 246.834 546.032C248.136 546.261 249.391 546.737 250.599 547.462C251.821 548.187 252.834 549.281 253.639 550.744C254.445 552.207 254.848 554.167 254.848 556.623V577H250.096V572.812H249.854C249.532 573.483 248.995 574.201 248.243 574.966C247.492 575.731 246.492 576.383 245.243 576.919C243.995 577.456 242.471 577.725 240.673 577.725ZM241.397 573.456C243.277 573.456 244.861 573.087 246.149 572.349C247.451 571.611 248.431 570.657 249.089 569.49C249.76 568.322 250.096 567.094 250.096 565.805V561.456C249.894 561.697 249.451 561.919 248.767 562.12C248.096 562.308 247.317 562.476 246.431 562.624C245.559 562.758 244.706 562.879 243.874 562.986C243.055 563.08 242.391 563.161 241.881 563.228C240.646 563.389 239.491 563.651 238.417 564.013C237.357 564.362 236.498 564.892 235.84 565.604C235.196 566.302 234.874 567.255 234.874 568.463C234.874 570.114 235.484 571.362 236.706 572.208C237.941 573.04 239.505 573.456 241.397 573.456ZM263.521 577V546.073H268.111V550.744H268.434C268.997 549.214 270.018 547.972 271.494 547.019C272.971 546.066 274.635 545.589 276.488 545.589C276.837 545.589 277.273 545.596 277.796 545.61C278.32 545.623 278.716 545.643 278.984 545.67V550.502C278.823 550.462 278.454 550.402 277.877 550.321C277.313 550.227 276.716 550.18 276.085 550.18C274.581 550.18 273.239 550.496 272.058 551.127C270.89 551.744 269.964 552.603 269.279 553.704C268.608 554.791 268.272 556.033 268.272 557.429V577H263.521ZM305.316 558.395V577H300.564V535.764H305.316V550.905H305.718C306.443 549.308 307.531 548.039 308.98 547.1C310.443 546.147 312.39 545.67 314.819 545.67C316.927 545.67 318.773 546.093 320.357 546.939C321.94 547.771 323.169 549.053 324.041 550.784C324.927 552.502 325.37 554.69 325.37 557.348V577H320.618V557.67C320.618 555.214 319.981 553.315 318.705 551.972C317.444 550.617 315.692 549.939 313.45 549.939C311.893 549.939 310.497 550.268 309.262 550.925C308.041 551.583 307.074 552.543 306.363 553.805C305.665 555.066 305.316 556.597 305.316 558.395ZM347.03 577.644C344.05 577.644 341.48 576.987 339.319 575.671C337.171 574.342 335.513 572.49 334.345 570.114C333.191 567.725 332.614 564.946 332.614 561.778C332.614 558.61 333.191 555.818 334.345 553.402C335.513 550.972 337.137 549.08 339.218 547.724C341.312 546.355 343.755 545.67 346.547 545.67C348.158 545.67 349.749 545.938 351.319 546.475C352.89 547.012 354.319 547.885 355.608 549.093C356.896 550.288 357.923 551.872 358.688 553.845C359.454 555.818 359.836 558.248 359.836 561.134V563.147H335.996V559.04H355.004C355.004 557.295 354.655 555.738 353.957 554.368C353.272 552.999 352.292 551.919 351.017 551.127C349.755 550.335 348.265 549.939 346.547 549.939C344.654 549.939 343.017 550.408 341.634 551.348C340.265 552.274 339.211 553.482 338.473 554.972C337.735 556.462 337.366 558.06 337.366 559.764V562.503C337.366 564.838 337.768 566.818 338.574 568.443C339.392 570.053 340.527 571.282 341.976 572.127C343.426 572.96 345.111 573.376 347.03 573.376C348.279 573.376 349.406 573.201 350.413 572.852C351.433 572.49 352.312 571.953 353.051 571.241C353.789 570.517 354.359 569.617 354.762 568.543L359.353 569.832C358.87 571.389 358.058 572.758 356.917 573.939C355.776 575.107 354.366 576.02 352.688 576.678C351.01 577.322 349.124 577.644 347.03 577.644ZM369.778 546.073L377.187 558.717L384.597 546.073H390.074L380.087 561.536L390.074 577H384.597L377.187 565L369.778 577H364.301L374.127 561.536L364.301 546.073H369.778ZM425.365 577.644C422.466 577.644 419.969 576.96 417.875 575.591C415.781 574.221 414.17 572.335 413.043 569.933C411.915 567.53 411.351 564.785 411.351 561.697C411.351 558.556 411.929 555.784 413.083 553.382C414.251 550.966 415.875 549.08 417.956 547.724C420.05 546.355 422.493 545.67 425.285 545.67C427.459 545.67 429.419 546.073 431.164 546.878C432.909 547.684 434.339 548.811 435.453 550.261C436.567 551.711 437.258 553.402 437.527 555.335H432.775C432.413 553.925 431.607 552.677 430.359 551.59C429.124 550.489 427.459 549.939 425.365 549.939C423.513 549.939 421.889 550.422 420.493 551.388C419.11 552.341 418.029 553.69 417.251 555.435C416.486 557.167 416.103 559.201 416.103 561.536C416.103 563.926 416.479 566.006 417.231 567.778C417.996 569.55 419.07 570.926 420.452 571.906C421.848 572.886 423.486 573.376 425.365 573.376C426.6 573.376 427.721 573.161 428.728 572.731C429.735 572.302 430.587 571.684 431.285 570.879C431.983 570.074 432.48 569.107 432.775 567.98H437.527C437.258 569.805 436.594 571.449 435.533 572.913C434.486 574.362 433.097 575.517 431.366 576.376C429.647 577.221 427.647 577.644 425.365 577.644ZM457.038 577.644C454.246 577.644 451.796 576.98 449.688 575.651C447.594 574.322 445.957 572.463 444.775 570.074C443.608 567.684 443.024 564.892 443.024 561.697C443.024 558.476 443.608 555.664 444.775 553.261C445.957 550.858 447.594 548.992 449.688 547.663C451.796 546.334 454.246 545.67 457.038 545.67C459.83 545.67 462.273 546.334 464.367 547.663C466.474 548.992 468.112 550.858 469.28 553.261C470.461 555.664 471.051 558.476 471.051 561.697C471.051 564.892 470.461 567.684 469.28 570.074C468.112 572.463 466.474 574.322 464.367 575.651C462.273 576.98 459.83 577.644 457.038 577.644ZM457.038 573.376C459.158 573.376 460.903 572.832 462.273 571.745C463.642 570.657 464.655 569.228 465.313 567.456C465.971 565.684 466.3 563.765 466.3 561.697C466.3 559.63 465.971 557.704 465.313 555.919C464.655 554.133 463.642 552.69 462.273 551.59C460.903 550.489 459.158 549.939 457.038 549.939C454.917 549.939 453.172 550.489 451.802 551.59C450.433 552.69 449.42 554.133 448.762 555.919C448.104 557.704 447.775 559.63 447.775 561.697C447.775 563.765 448.104 565.684 448.762 567.456C449.42 569.228 450.433 570.657 451.802 571.745C453.172 572.832 454.917 573.376 457.038 573.376ZM489.983 577.644C487.406 577.644 485.131 576.993 483.158 575.691C481.184 574.376 479.641 572.523 478.527 570.134C477.412 567.731 476.855 564.892 476.855 561.617C476.855 558.368 477.412 555.55 478.527 553.16C479.641 550.771 481.191 548.925 483.178 547.623C485.164 546.321 487.46 545.67 490.064 545.67C492.077 545.67 493.668 546.006 494.836 546.677C496.017 547.335 496.917 548.086 497.534 548.932C498.165 549.764 498.655 550.449 499.004 550.986H499.407V535.764H504.158V577H499.568V572.248H499.004C498.655 572.812 498.158 573.523 497.514 574.382C496.87 575.228 495.95 575.987 494.755 576.658C493.561 577.315 491.97 577.644 489.983 577.644ZM490.628 573.376C492.534 573.376 494.145 572.879 495.46 571.886C496.776 570.879 497.776 569.49 498.46 567.718C499.145 565.932 499.487 563.872 499.487 561.536C499.487 559.228 499.151 557.207 498.48 555.476C497.809 553.731 496.816 552.375 495.5 551.408C494.185 550.429 492.561 549.939 490.628 549.939C488.614 549.939 486.936 550.455 485.594 551.489C484.265 552.509 483.265 553.899 482.594 555.657C481.936 557.402 481.607 559.362 481.607 561.536C481.607 563.738 481.943 565.738 482.614 567.537C483.299 569.322 484.305 570.745 485.634 571.805C486.977 572.852 488.641 573.376 490.628 573.376ZM526.488 577.644C523.508 577.644 520.937 576.987 518.776 575.671C516.629 574.342 514.971 572.49 513.803 570.114C512.649 567.725 512.071 564.946 512.071 561.778C512.071 558.61 512.649 555.818 513.803 553.402C514.971 550.972 516.595 549.08 518.676 547.724C520.77 546.355 523.213 545.67 526.005 545.67C527.616 545.67 529.206 545.938 530.777 546.475C532.347 547.012 533.777 547.885 535.066 549.093C536.354 550.288 537.381 551.872 538.146 553.845C538.911 555.818 539.294 558.248 539.294 561.134V563.147H515.454V559.04H534.461C534.461 557.295 534.112 555.738 533.414 554.368C532.73 552.999 531.75 551.919 530.475 551.127C529.213 550.335 527.723 549.939 526.005 549.939C524.112 549.939 522.474 550.408 521.092 551.348C519.723 552.274 518.669 553.482 517.931 554.972C517.192 556.462 516.823 558.06 516.823 559.764V562.503C516.823 564.838 517.226 566.818 518.031 568.443C518.85 570.053 519.984 571.282 521.434 572.127C522.884 572.96 524.568 573.376 526.488 573.376C527.736 573.376 528.864 573.201 529.871 572.852C530.891 572.49 531.77 571.953 532.508 571.241C533.247 570.517 533.817 569.617 534.22 568.543L538.811 569.832C538.327 571.389 537.515 572.758 536.374 573.939C535.233 575.107 533.824 576.02 532.146 576.678C530.468 577.322 528.582 577.644 526.488 577.644ZM568.429 552.999L564.161 554.207C563.892 553.496 563.496 552.805 562.973 552.133C562.462 551.449 561.764 550.885 560.879 550.442C559.993 549.999 558.858 549.778 557.476 549.778C555.583 549.778 554.006 550.214 552.744 551.086C551.496 551.945 550.871 553.039 550.871 554.368C550.871 555.55 551.301 556.482 552.16 557.167C553.019 557.852 554.362 558.422 556.187 558.879L560.778 560.006C563.543 560.677 565.604 561.704 566.959 563.087C568.315 564.456 568.993 566.221 568.993 568.382C568.993 570.154 568.483 571.738 567.463 573.134C566.456 574.53 565.046 575.631 563.234 576.436C561.422 577.242 559.315 577.644 556.912 577.644C553.757 577.644 551.147 576.96 549.079 575.591C547.012 574.221 545.703 572.221 545.153 569.59L549.663 568.463C550.093 570.127 550.905 571.376 552.1 572.208C553.308 573.04 554.885 573.456 556.831 573.456C559.046 573.456 560.805 572.986 562.107 572.047C563.422 571.094 564.08 569.953 564.08 568.624C564.08 567.55 563.704 566.651 562.952 565.926C562.201 565.188 561.046 564.637 559.489 564.275L554.335 563.067C551.502 562.395 549.422 561.355 548.093 559.946C546.777 558.523 546.12 556.744 546.12 554.61C546.12 552.865 546.61 551.321 547.589 549.979C548.583 548.637 549.932 547.583 551.637 546.818C553.355 546.053 555.301 545.67 557.476 545.67C560.536 545.67 562.939 546.341 564.684 547.684C566.442 549.026 567.691 550.798 568.429 552.999ZM579.609 577.322C578.616 577.322 577.763 576.966 577.052 576.255C576.34 575.544 575.985 574.691 575.985 573.698C575.985 572.705 576.34 571.852 577.052 571.141C577.763 570.429 578.616 570.074 579.609 570.074C580.602 570.074 581.455 570.429 582.166 571.141C582.878 571.852 583.233 572.705 583.233 573.698C583.233 574.356 583.065 574.96 582.73 575.51C582.408 576.06 581.971 576.503 581.421 576.839C580.884 577.161 580.28 577.322 579.609 577.322Z" fill="white"/>
<rect x="713.847" y="72.8468" width="737.106" height="970.066" fill="white" fill-opacity="0.28" stroke="#565656" stroke-width="6.3063" stroke-linejoin="round"/>
<rect x="832" y="244.79" width="116.173" height="116.173" fill="#75C6B0"/>
<rect x="832" y="372.58" width="116.173" height="116.173" fill="#75C6B0"/>
<rect x="832" y="500.371" width="116.173" height="116.173" fill="#75C6B0"/>
<rect x="832" y="628.16" width="116.173" height="116.173" fill="#75C6B0"/>
<rect x="959.789" y="244.79" width="116.173" height="116.173" fill="#75C6B0"/>
<rect x="959.789" y="372.58" width="116.173" height="116.173" fill="#75C6B0"/>
<rect x="959.789" y="500.371" width="116.173" height="116.173" fill="#75C6B0"/>
<rect x="959.789" y="628.16" width="116.173" height="116.173" fill="#75C6B0"/>
<rect x="1087.58" y="244.79" width="116.173" height="116.173" fill="#75C6B0"/>
<rect x="1087.58" y="372.58" width="116.173" height="116.173" fill="#75C6B0"/>
<rect x="1087.58" y="500.371" width="116.173" height="116.173" fill="#75C6B0"/>
<rect x="1087.58" y="628.16" width="116.173" height="116.173" fill="#75C6B0"/>
<rect x="1215.37" y="244.79" width="116.173" height="116.173" fill="#75C6B0"/>
<rect x="1215.37" y="372.58" width="116.173" height="116.173" fill="#75C6B0"/>
<rect x="1215.37" y="500.371" width="116.173" height="116.173" fill="#75C6B0"/>
<rect x="1215.37" y="628.16" width="116.173" height="116.173" fill="#75C6B0"/>
<rect x="1087.58" y="755.951" width="243.963" height="116.173" fill="#75C6B0"/>
<rect x="832" y="117" width="499.543" height="116.173" fill="#00C469"/>
<path d="M889.662 308.641C887.924 308.641 886.443 308.168 885.22 307.222C883.997 306.269 883.063 304.888 882.417 303.08C881.771 301.265 881.448 299.073 881.448 296.504C881.448 293.95 881.771 291.77 882.417 289.962C883.071 288.147 884.009 286.762 885.232 285.808C886.463 284.847 887.939 284.366 889.662 284.366C891.385 284.366 892.858 284.847 894.081 285.808C895.312 286.762 896.25 288.147 896.897 289.962C897.55 291.77 897.877 293.95 897.877 296.504C897.877 299.073 897.554 301.265 896.908 303.08C896.262 304.888 895.327 306.269 894.104 307.222C892.881 308.168 891.401 308.641 889.662 308.641ZM889.662 306.103C891.385 306.103 892.724 305.272 893.678 303.611C894.631 301.95 895.108 299.581 895.108 296.504C895.108 294.458 894.889 292.716 894.451 291.277C894.02 289.839 893.397 288.743 892.581 287.989C891.774 287.235 890.801 286.858 889.662 286.858C887.955 286.858 886.62 287.701 885.659 289.385C884.697 291.062 884.217 293.435 884.217 296.504C884.217 298.55 884.432 300.288 884.863 301.719C885.294 303.149 885.913 304.238 886.72 304.984C887.536 305.73 888.516 306.103 889.662 306.103Z" fill="white"/>
<path d="M879.97 431.263V428.909L890.354 412.48H892.061V416.126H890.907L883.062 428.54V428.725H897.045V431.263H879.97ZM891.092 436.109V430.548V429.452V412.48H893.815V436.109H891.092Z" fill="white"/>
<path d="M889.667 564.222C888.082 564.222 886.682 563.941 885.467 563.38C884.259 562.811 883.317 562.03 882.64 561.038C881.963 560.038 881.629 558.899 881.637 557.622C881.629 556.623 881.825 555.7 882.225 554.853C882.625 554 883.171 553.288 883.863 552.719C884.563 552.142 885.344 551.777 886.205 551.623V551.484C885.075 551.192 884.175 550.558 883.506 549.581C882.836 548.596 882.506 547.477 882.513 546.223C882.506 545.023 882.81 543.95 883.425 543.004C884.04 542.058 884.886 541.312 885.963 540.766C887.048 540.22 888.282 539.947 889.667 539.947C891.036 539.947 892.259 540.22 893.336 540.766C894.413 541.312 895.259 542.058 895.874 543.004C896.497 543.95 896.812 545.023 896.82 546.223C896.812 547.477 896.47 548.596 895.793 549.581C895.124 550.558 894.236 551.192 893.128 551.484V551.623C893.982 551.777 894.751 552.142 895.436 552.719C896.12 553.288 896.666 554 897.074 554.853C897.482 555.7 897.689 556.623 897.697 557.622C897.689 558.899 897.343 560.038 896.659 561.038C895.982 562.03 895.039 562.811 893.832 563.38C892.632 563.941 891.244 564.222 889.667 564.222ZM889.667 561.684C890.736 561.684 891.659 561.511 892.436 561.165C893.213 560.818 893.813 560.33 894.236 559.699C894.659 559.068 894.874 558.33 894.882 557.484C894.874 556.592 894.643 555.803 894.19 555.119C893.736 554.434 893.117 553.896 892.332 553.504C891.555 553.111 890.667 552.915 889.667 552.915C888.659 552.915 887.759 553.111 886.967 553.504C886.182 553.896 885.563 554.434 885.109 555.119C884.663 555.803 884.444 556.592 884.452 557.484C884.444 558.33 884.648 559.068 885.063 559.699C885.486 560.33 886.09 560.818 886.875 561.165C887.659 561.511 888.59 561.684 889.667 561.684ZM889.667 550.469C890.513 550.469 891.263 550.3 891.917 549.961C892.578 549.623 893.097 549.15 893.474 548.542C893.851 547.935 894.043 547.223 894.051 546.408C894.043 545.608 893.855 544.912 893.486 544.32C893.117 543.72 892.605 543.258 891.951 542.935C891.297 542.604 890.536 542.439 889.667 542.439C888.782 542.439 888.009 542.604 887.348 542.935C886.686 543.258 886.175 543.72 885.813 544.32C885.452 544.912 885.275 545.608 885.282 546.408C885.275 547.223 885.456 547.935 885.825 548.542C886.202 549.15 886.721 549.623 887.382 549.961C888.044 550.3 888.805 550.469 889.667 550.469Z" fill="white"/>
<path d="M899.324 675.444H896.462C896.293 674.621 895.997 673.898 895.574 673.275C895.159 672.652 894.651 672.129 894.051 671.706C893.459 671.275 892.801 670.952 892.078 670.737C891.355 670.521 890.601 670.414 889.817 670.414C888.386 670.414 887.09 670.775 885.928 671.498C884.775 672.221 883.855 673.286 883.171 674.694C882.494 676.102 882.156 677.828 882.156 679.874C882.156 681.92 882.494 683.647 883.171 685.055C883.855 686.462 884.775 687.528 885.928 688.251C887.09 688.974 888.386 689.335 889.817 689.335C890.601 689.335 891.355 689.228 892.078 689.012C892.801 688.797 893.459 688.478 894.051 688.055C894.651 687.624 895.159 687.097 895.574 686.474C895.997 685.843 896.293 685.12 896.462 684.305H899.324C899.108 685.512 898.716 686.593 898.147 687.547C897.578 688.501 896.87 689.312 896.024 689.981C895.178 690.643 894.228 691.147 893.174 691.493C892.128 691.839 891.009 692.012 889.817 692.012C887.801 692.012 886.009 691.52 884.44 690.535C882.871 689.551 881.636 688.151 880.736 686.335C879.837 684.52 879.387 682.367 879.387 679.874C879.387 677.382 879.837 675.229 880.736 673.413C881.636 671.598 882.871 670.198 884.44 669.214C886.009 668.229 887.801 667.737 889.817 667.737C891.009 667.737 892.128 667.91 893.174 668.256C894.228 668.602 895.178 669.11 896.024 669.779C896.87 670.44 897.578 671.248 898.147 672.202C898.716 673.148 899.108 674.229 899.324 675.444Z" fill="white"/>
<path d="M1020.92 284.689V308.318H1018.06V287.689H1017.92L1012.15 291.52V288.612L1018.06 284.689H1020.92Z" fill="white"/>
<path d="M1016.76 436.432C1015.4 436.432 1014.18 436.163 1013.1 435.624C1012.01 435.086 1011.15 434.347 1010.49 433.409C1009.84 432.471 1009.48 431.402 1009.42 430.202H1012.19C1012.3 431.271 1012.78 432.155 1013.64 432.855C1014.51 433.548 1015.55 433.894 1016.76 433.894C1017.73 433.894 1018.59 433.667 1019.34 433.213C1020.1 432.759 1020.7 432.136 1021.13 431.344C1021.57 430.544 1021.79 429.64 1021.79 428.632C1021.79 427.602 1021.56 426.683 1021.11 425.875C1020.66 425.06 1020.04 424.417 1019.26 423.948C1018.48 423.479 1017.58 423.241 1016.57 423.233C1015.85 423.225 1015.11 423.337 1014.35 423.567C1013.58 423.791 1012.96 424.079 1012.46 424.433L1009.79 424.11L1011.22 412.48H1023.49V415.018H1013.62L1012.79 421.987H1012.93C1013.41 421.602 1014.02 421.283 1014.75 421.029C1015.48 420.775 1016.24 420.648 1017.03 420.648C1018.48 420.648 1019.77 420.995 1020.9 421.687C1022.04 422.371 1022.93 423.31 1023.58 424.502C1024.23 425.694 1024.56 427.056 1024.56 428.586C1024.56 430.094 1024.22 431.44 1023.54 432.625C1022.87 433.801 1021.95 434.732 1020.77 435.417C1019.59 436.094 1018.26 436.432 1016.76 436.432Z" fill="white"/>
<path d="M1017.28 539.947C1018.25 539.954 1019.22 540.139 1020.19 540.501C1021.16 540.862 1022.05 541.462 1022.85 542.3C1023.65 543.131 1024.29 544.266 1024.77 545.704C1025.26 547.142 1025.5 548.946 1025.5 551.115C1025.5 553.215 1025.3 555.08 1024.9 556.711C1024.51 558.334 1023.94 559.703 1023.19 560.818C1022.45 561.934 1021.55 562.78 1020.49 563.357C1019.44 563.934 1018.25 564.222 1016.92 564.222C1015.59 564.222 1014.41 563.96 1013.37 563.437C1012.34 562.907 1011.5 562.172 1010.84 561.234C1010.18 560.288 1009.76 559.192 1009.58 557.946H1012.39C1012.65 559.03 1013.15 559.926 1013.9 560.634C1014.67 561.334 1015.67 561.684 1016.92 561.684C1018.74 561.684 1020.18 560.888 1021.23 559.295C1022.29 557.703 1022.82 555.453 1022.82 552.546H1022.64C1022.21 553.192 1021.7 553.75 1021.1 554.219C1020.51 554.688 1019.85 555.05 1019.13 555.303C1018.41 555.557 1017.64 555.684 1016.82 555.684C1015.47 555.684 1014.23 555.35 1013.1 554.68C1011.97 554.003 1011.07 553.077 1010.4 551.9C1009.73 550.715 1009.39 549.361 1009.39 547.839C1009.39 546.392 1009.72 545.069 1010.36 543.87C1011.02 542.662 1011.93 541.701 1013.11 540.985C1014.29 540.27 1015.68 539.924 1017.28 539.947ZM1017.28 542.485C1016.32 542.485 1015.44 542.727 1014.67 543.212C1013.9 543.689 1013.28 544.335 1012.83 545.15C1012.39 545.958 1012.16 546.854 1012.16 547.839C1012.16 548.823 1012.38 549.719 1012.81 550.527C1013.25 551.327 1013.84 551.965 1014.6 552.442C1015.36 552.911 1016.22 553.146 1017.19 553.146C1017.92 553.146 1018.6 553.004 1019.23 552.719C1019.87 552.427 1020.42 552.031 1020.88 551.531C1021.36 551.023 1021.73 550.45 1022 549.811C1022.27 549.165 1022.41 548.492 1022.41 547.792C1022.41 546.869 1022.18 546.004 1021.74 545.196C1021.3 544.389 1020.69 543.735 1019.92 543.235C1019.15 542.735 1018.27 542.485 1017.28 542.485Z" fill="white"/>
<path d="M1015.53 691.689H1008.24V668.06H1015.86C1018.15 668.06 1020.11 668.533 1021.74 669.479C1023.37 670.417 1024.62 671.767 1025.49 673.529C1026.36 675.282 1026.79 677.382 1026.79 679.828C1026.79 682.29 1026.36 684.409 1025.48 686.186C1024.6 687.955 1023.32 689.316 1021.65 690.27C1019.97 691.216 1017.93 691.689 1015.53 691.689ZM1011.1 689.151H1015.35C1017.3 689.151 1018.92 688.774 1020.21 688.02C1021.49 687.266 1022.45 686.193 1023.08 684.801C1023.71 683.409 1024.02 681.751 1024.02 679.828C1024.02 677.921 1023.71 676.279 1023.09 674.902C1022.47 673.517 1021.54 672.456 1020.3 671.717C1019.06 670.971 1017.52 670.598 1015.67 670.598H1011.1V689.151Z" fill="white"/>
<path d="M1137.21 308.318V306.242L1145.01 297.704C1145.92 296.704 1146.68 295.835 1147.27 295.096C1147.86 294.35 1148.3 293.65 1148.58 292.996C1148.88 292.335 1149.02 291.643 1149.02 290.92C1149.02 290.089 1148.82 289.37 1148.42 288.762C1148.03 288.154 1147.49 287.685 1146.81 287.354C1146.12 287.024 1145.35 286.858 1144.5 286.858C1143.59 286.858 1142.8 287.047 1142.12 287.424C1141.45 287.793 1140.93 288.312 1140.56 288.981C1140.2 289.65 1140.02 290.435 1140.02 291.335H1137.3C1137.3 289.95 1137.62 288.735 1138.26 287.689C1138.9 286.643 1139.76 285.828 1140.86 285.243C1141.97 284.658 1143.21 284.366 1144.59 284.366C1145.98 284.366 1147.2 284.658 1148.27 285.243C1149.34 285.828 1150.18 286.616 1150.79 287.608C1151.39 288.601 1151.7 289.704 1151.7 290.92C1151.7 291.789 1151.54 292.639 1151.23 293.469C1150.92 294.292 1150.38 295.212 1149.61 296.227C1148.85 297.235 1147.79 298.465 1146.44 299.919L1141.13 305.595V305.78H1152.11V308.318H1137.21Z" fill="white"/>
<path d="M1145.39 436.432C1144.43 436.417 1143.46 436.232 1142.49 435.878C1141.52 435.524 1140.63 434.928 1139.83 434.09C1139.03 433.244 1138.39 432.101 1137.91 430.663C1137.42 429.217 1137.18 427.402 1137.18 425.217C1137.18 423.125 1137.38 421.271 1137.77 419.656C1138.16 418.033 1138.73 416.668 1139.48 415.56C1140.22 414.445 1141.12 413.599 1142.18 413.022C1143.24 412.445 1144.43 412.157 1145.76 412.157C1147.09 412.157 1148.26 412.422 1149.29 412.953C1150.33 413.476 1151.18 414.207 1151.83 415.145C1152.49 416.083 1152.91 417.164 1153.1 418.387H1150.29C1150.03 417.326 1149.52 416.445 1148.76 415.745C1148.01 415.045 1147.01 414.695 1145.76 414.695C1143.93 414.695 1142.49 415.491 1141.44 417.083C1140.39 418.676 1139.86 420.91 1139.86 423.787H1140.04C1140.47 423.133 1140.98 422.575 1141.58 422.114C1142.18 421.645 1142.84 421.283 1143.56 421.029C1144.28 420.775 1145.05 420.648 1145.86 420.648C1147.21 420.648 1148.45 420.987 1149.57 421.664C1150.69 422.333 1151.59 423.26 1152.27 424.444C1152.95 425.621 1153.29 426.971 1153.29 428.494C1153.29 429.955 1152.96 431.294 1152.31 432.509C1151.65 433.717 1150.73 434.678 1149.55 435.394C1148.37 436.101 1146.99 436.447 1145.39 436.432ZM1145.39 433.894C1146.36 433.894 1147.23 433.651 1148 433.167C1148.78 432.682 1149.39 432.032 1149.84 431.217C1150.29 430.402 1150.52 429.494 1150.52 428.494C1150.52 427.517 1150.3 426.629 1149.86 425.829C1149.43 425.021 1148.83 424.379 1148.07 423.902C1147.32 423.425 1146.46 423.187 1145.49 423.187C1144.76 423.187 1144.08 423.333 1143.45 423.625C1142.81 423.91 1142.26 424.302 1141.78 424.802C1141.31 425.302 1140.95 425.875 1140.68 426.521C1140.41 427.16 1140.27 427.833 1140.27 428.54C1140.27 429.479 1140.49 430.355 1140.93 431.171C1141.38 431.986 1141.98 432.644 1142.75 433.144C1143.53 433.644 1144.41 433.894 1145.39 433.894Z" fill="white"/>
<path d="M1137.58 563.899H1134.58L1143.25 540.27H1146.21L1154.88 563.899H1151.89L1144.82 544.008H1144.64L1137.58 563.899ZM1138.69 554.669H1150.78V557.207H1138.69V554.669Z" fill="white"/>
<path d="M1137.75 691.689V668.06H1152.01V670.598H1140.61V678.582H1151.27V681.12H1140.61V689.151H1152.19V691.689H1137.75Z" fill="white"/>
<path d="M1273.12 308.641C1271.59 308.641 1270.24 308.38 1269.04 307.857C1267.86 307.334 1266.92 306.607 1266.22 305.676C1265.52 304.738 1265.15 303.649 1265.09 302.411H1267.99C1268.05 303.173 1268.32 303.83 1268.78 304.384C1269.24 304.93 1269.84 305.353 1270.59 305.653C1271.34 305.953 1272.16 306.103 1273.07 306.103C1274.09 306.103 1274.99 305.926 1275.77 305.572C1276.55 305.219 1277.17 304.726 1277.62 304.096C1278.06 303.465 1278.29 302.734 1278.29 301.903C1278.29 301.034 1278.07 300.269 1277.64 299.607C1277.21 298.938 1276.58 298.415 1275.75 298.038C1274.92 297.661 1273.9 297.473 1272.7 297.473H1270.81V294.935H1272.7C1273.64 294.935 1274.46 294.765 1275.17 294.427C1275.89 294.089 1276.44 293.612 1276.84 292.996C1277.25 292.381 1277.45 291.658 1277.45 290.827C1277.45 290.027 1277.28 289.331 1276.92 288.739C1276.57 288.147 1276.07 287.685 1275.42 287.354C1274.79 287.024 1274.03 286.858 1273.16 286.858C1272.35 286.858 1271.58 287.008 1270.85 287.308C1270.14 287.601 1269.55 288.027 1269.1 288.589C1268.65 289.143 1268.4 289.812 1268.36 290.597H1265.59C1265.64 289.358 1266.01 288.274 1266.71 287.343C1267.41 286.405 1268.33 285.674 1269.46 285.151C1270.6 284.628 1271.85 284.366 1273.21 284.366C1274.67 284.366 1275.92 284.662 1276.97 285.255C1278.02 285.839 1278.82 286.612 1279.38 287.574C1279.94 288.535 1280.22 289.574 1280.22 290.689C1280.22 292.02 1279.87 293.154 1279.17 294.092C1278.48 295.031 1277.54 295.681 1276.35 296.042V296.227C1277.84 296.473 1279 297.108 1279.84 298.131C1280.68 299.146 1281.1 300.404 1281.1 301.903C1281.1 303.188 1280.75 304.342 1280.05 305.365C1279.36 306.38 1278.41 307.18 1277.21 307.765C1276.01 308.349 1274.65 308.641 1273.12 308.641Z" fill="white"/>
<path d="M1266.81 436.109L1277.38 415.203V415.018H1265.2V412.48H1280.33V415.157L1269.81 436.109H1266.81Z" fill="white"/>
<path d="M1264.81 563.899V540.27H1273.07C1274.72 540.27 1276.08 540.554 1277.14 541.124C1278.21 541.685 1279.01 542.443 1279.53 543.397C1280.06 544.343 1280.32 545.393 1280.32 546.546C1280.32 547.562 1280.14 548.4 1279.78 549.062C1279.42 549.723 1278.95 550.246 1278.37 550.631C1277.79 551.015 1277.16 551.3 1276.49 551.484V551.715C1277.21 551.761 1277.94 552.015 1278.67 552.477C1279.4 552.938 1280.01 553.6 1280.5 554.461C1280.99 555.323 1281.24 556.376 1281.24 557.622C1281.24 558.807 1280.97 559.872 1280.43 560.818C1279.89 561.764 1279.04 562.514 1277.88 563.068C1276.72 563.622 1275.21 563.899 1273.35 563.899H1264.81ZM1267.67 561.361H1273.35C1275.22 561.361 1276.54 560.999 1277.33 560.276C1278.12 559.545 1278.52 558.661 1278.52 557.622C1278.52 556.823 1278.31 556.084 1277.91 555.407C1277.5 554.723 1276.92 554.177 1276.16 553.769C1275.41 553.354 1274.52 553.146 1273.49 553.146H1267.67V561.361ZM1267.67 550.654H1272.98C1273.84 550.654 1274.62 550.484 1275.31 550.146C1276.01 549.808 1276.56 549.331 1276.97 548.715C1277.39 548.1 1277.59 547.377 1277.59 546.546C1277.59 545.508 1277.23 544.627 1276.51 543.904C1275.79 543.173 1274.64 542.808 1273.07 542.808H1267.67V550.654Z" fill="white"/>
<path d="M1265.71 691.689V668.06H1279.88V670.598H1268.57V678.582H1278.82V681.12H1268.57V691.689H1265.71Z" fill="white"/>
<path d="M1189.6 819.479H1182.31V795.85H1189.92C1192.21 795.85 1194.17 796.323 1195.8 797.269C1197.43 798.207 1198.68 799.557 1199.55 801.319C1200.42 803.072 1200.86 805.172 1200.86 807.618C1200.86 810.08 1200.42 812.199 1199.54 813.976C1198.67 815.745 1197.39 817.106 1195.71 818.06C1194.04 819.006 1192 819.479 1189.6 819.479ZM1185.17 816.941H1189.41C1191.37 816.941 1192.99 816.564 1194.27 815.81C1195.55 815.056 1196.51 813.983 1197.14 812.591C1197.77 811.199 1198.09 809.541 1198.09 807.618C1198.09 805.711 1197.78 804.069 1197.15 802.692C1196.53 801.307 1195.6 800.246 1194.36 799.507C1193.12 798.761 1191.58 798.388 1189.74 798.388H1185.17V816.941ZM1205.66 819.479V795.85H1219.92V798.388H1208.52V806.372H1219.18V808.911H1208.52V816.941H1220.1V819.479H1205.66ZM1225.08 819.479V795.85H1227.94V816.941H1238.92V819.479H1225.08Z" fill="white"/>
<path d="M914.959 963.553H912.098C911.929 962.73 911.633 962.007 911.209 961.384C910.794 960.761 910.286 960.238 909.687 959.815C909.094 959.384 908.437 959.061 907.714 958.845C906.991 958.63 906.237 958.522 905.452 958.522C904.022 958.522 902.725 958.884 901.564 959.607C900.41 960.33 899.491 961.395 898.807 962.803C898.13 964.21 897.791 965.937 897.791 967.983C897.791 970.029 898.13 971.756 898.807 973.164C899.491 974.571 900.41 975.637 901.564 976.36C902.725 977.083 904.022 977.444 905.452 977.444C906.237 977.444 906.991 977.336 907.714 977.121C908.437 976.906 909.094 976.587 909.687 976.163C910.286 975.733 910.794 975.206 911.209 974.583C911.633 973.952 911.929 973.229 912.098 972.414H914.959C914.744 973.621 914.352 974.702 913.782 975.656C913.213 976.61 912.506 977.421 911.659 978.09C910.813 978.752 909.863 979.256 908.81 979.602C907.764 979.948 906.644 980.121 905.452 980.121C903.437 980.121 901.645 979.629 900.076 978.644C898.507 977.66 897.272 976.26 896.372 974.444C895.472 972.629 895.022 970.475 895.022 967.983C895.022 965.491 895.472 963.337 896.372 961.522C897.272 959.707 898.507 958.307 900.076 957.323C901.645 956.338 903.437 955.846 905.452 955.846C906.644 955.846 907.764 956.019 908.81 956.365C909.863 956.711 910.813 957.219 911.659 957.888C912.506 958.549 913.213 959.357 913.782 960.311C914.352 961.257 914.744 962.338 914.959 963.553ZM920.552 979.798H917.552L926.229 956.169H929.182L937.859 979.798H934.859L927.798 959.907H927.613L920.552 979.798ZM921.66 970.568H933.751V973.106H921.66V970.568ZM960.276 956.169V979.798H957.507L944.631 961.245H944.4V979.798H941.539V956.169H944.308L957.23 974.767H957.461V956.169H960.276ZM985.016 963.553H982.154C981.985 962.73 981.689 962.007 981.266 961.384C980.851 960.761 980.343 960.238 979.743 959.815C979.151 959.384 978.493 959.061 977.77 958.845C977.047 958.63 976.293 958.522 975.509 958.522C974.078 958.522 972.782 958.884 971.621 959.607C970.467 960.33 969.548 961.395 968.863 962.803C968.186 964.21 967.848 965.937 967.848 967.983C967.848 970.029 968.186 971.756 968.863 973.164C969.548 974.571 970.467 975.637 971.621 976.36C972.782 977.083 974.078 977.444 975.509 977.444C976.293 977.444 977.047 977.336 977.77 977.121C978.493 976.906 979.151 976.587 979.743 976.163C980.343 975.733 980.851 975.206 981.266 974.583C981.689 973.952 981.985 973.229 982.154 972.414H985.016C984.8 973.621 984.408 974.702 983.839 975.656C983.27 976.61 982.562 977.421 981.716 978.09C980.87 978.752 979.92 979.256 978.866 979.602C977.82 979.948 976.701 980.121 975.509 980.121C973.494 980.121 971.701 979.629 970.132 978.644C968.563 977.66 967.329 976.26 966.429 974.444C965.529 972.629 965.079 970.475 965.079 967.983C965.079 965.491 965.529 963.337 966.429 961.522C967.329 959.707 968.563 958.307 970.132 957.323C971.701 956.338 973.494 955.846 975.509 955.846C976.701 955.846 977.82 956.019 978.866 956.365C979.92 956.711 980.87 957.219 981.716 957.888C982.562 958.549 983.27 959.357 983.839 960.311C984.408 961.257 984.8 962.338 985.016 963.553ZM989.639 979.798V956.169H1003.9V958.707H992.501V966.691H1003.16V969.229H992.501V977.26H1004.08V979.798H989.639ZM1009.06 979.798V956.169H1011.92V977.26H1022.9V979.798H1009.06Z" fill="white"/>
</svg>
