<svg width="2164" height="1117" viewBox="0 0 2164 1117" fill="none" xmlns="http://www.w3.org/2000/svg">
<mask id="mask0_624_201" style="mask-type:alpha" maskUnits="userSpaceOnUse" x="0" y="0" width="2164" height="1117">
<rect width="2163.1" height="1116.99" rx="85.05" fill="#171717"/>
</mask>
<g mask="url(#mask0_624_201)">
<path d="M1567.57 703.3C1610.04 1412.57 1089.24 2076.39 595.888 1590.64C-111.391 1671.85 -149.36 1397.21 -167.573 827.337C-185.786 257.464 382.457 -60 804.105 -60C1225.75 -60 1567.57 281.741 1567.57 703.3Z" fill="#B7AC5C"/>
<path d="M2391.56 144.324C2419.98 618.989 2071.48 1063.24 1741.35 738.16C1268.07 792.513 1471.57 375.239 1262.68 418C1053.79 460.761 664.63 11.1797 1019.67 -146C1301.82 -146 2391.56 -137.798 2391.56 144.324Z" fill="#5C80B7"/>
<path d="M-120.347 883.745C-480.825 625.232 -597.545 111.506 -167.905 63.4569C71.1563 -311.421 253.632 81.3892 345.55 -95.1053C437.468 -271.6 991.998 -289.214 896.963 60.4573C730.98 264.889 83.9691 1049.63 -120.347 883.745Z" fill="#B25CB7"/>
<path d="M2203.22 909.877C2234.26 1428.26 1853.7 1913.43 1493.19 1558.41C976.365 1617.77 948.621 1417.04 935.312 1000.53C922.003 584.026 1337.23 352 1645.34 352C1953.45 352 2203.22 601.77 2203.22 909.877Z" fill="#5CB75C"/>
<path d="M525.247 1107C549.725 1515.85 249.579 1898.51 -34.7533 1618.5C-442.375 1665.32 -464.257 1507 -474.754 1178.5C-485.25 850 -157.759 667 85.2466 667C328.252 667 525.247 863.995 525.247 1107Z" fill="#B75C5C"/>
</g>
<g filter="url(#filter0_i_624_201)">
<mask id="mask1_624_201" style="mask-type:alpha" maskUnits="userSpaceOnUse" x="529" y="289" width="1111" height="313">
<mask id="path-7-outside-1_624_201" maskUnits="userSpaceOnUse" x="529" y="289" width="1111" height="313" fill="black">
<rect fill="white" x="529" y="289" width="1111" height="313"/>
<path d="M772.437 395.56H740.479C738.589 386.368 735.282 378.292 730.557 371.334C725.918 364.375 720.248 358.533 713.547 353.808C706.932 348.997 699.586 345.389 691.511 342.984C683.436 340.578 675.016 339.375 666.254 339.375C650.275 339.375 635.799 343.413 622.827 351.489C609.94 359.564 599.674 371.463 592.028 387.184C584.468 402.905 580.688 422.192 580.688 445.044C580.688 467.895 584.468 487.182 592.028 502.903C599.674 518.625 609.94 530.523 622.827 538.599C635.799 546.674 650.275 550.712 666.254 550.712C675.016 550.712 683.436 549.509 691.511 547.104C699.586 544.698 706.932 541.133 713.547 536.408C720.248 531.597 725.918 525.712 730.557 518.754C735.282 511.709 738.589 503.634 740.479 494.527H772.437C770.032 508.015 765.651 520.085 759.293 530.738C752.936 541.391 745.032 550.454 735.582 557.928C726.132 565.316 715.523 570.943 703.753 574.809C692.069 578.675 679.57 580.608 666.254 580.608C643.746 580.608 623.729 575.11 606.203 564.114C588.678 553.117 574.889 537.482 564.838 517.207C554.787 496.933 549.761 472.878 549.761 445.044C549.761 417.209 554.787 393.155 564.838 372.88C574.889 352.605 588.678 336.97 606.203 325.974C623.729 314.977 643.746 309.479 666.254 309.479C679.57 309.479 692.069 311.412 703.753 315.278C715.523 319.144 726.132 324.814 735.582 332.288C745.032 339.676 752.936 348.697 759.293 359.349C765.651 369.916 770.032 381.986 772.437 395.56ZM900.367 581.124C882.498 581.124 866.819 576.871 853.331 568.366C839.93 559.861 829.449 547.963 821.889 532.671C814.415 517.379 810.678 499.51 810.678 479.064C810.678 458.445 814.415 440.448 821.889 425.07C829.449 409.692 839.93 397.751 853.331 389.246C866.819 380.741 882.498 376.488 900.367 376.488C918.236 376.488 933.871 380.741 947.273 389.246C960.761 397.751 971.242 409.692 978.716 425.07C986.276 440.448 990.056 458.445 990.056 479.064C990.056 499.51 986.276 517.379 978.716 532.671C971.242 547.963 960.761 559.861 947.273 568.366C933.871 576.871 918.236 581.124 900.367 581.124ZM900.367 553.805C913.94 553.805 925.109 550.325 933.871 543.367C942.634 536.408 949.12 527.259 953.33 515.919C957.539 504.579 959.644 492.294 959.644 479.064C959.644 465.834 957.539 453.506 953.33 442.08C949.12 430.654 942.634 421.419 933.871 414.374C925.109 407.33 913.94 403.807 900.367 403.807C886.793 403.807 875.625 407.33 866.862 414.374C858.099 421.419 851.613 430.654 847.404 442.08C843.194 453.506 841.089 465.834 841.089 479.064C841.089 492.294 843.194 504.579 847.404 515.919C851.613 527.259 858.099 536.408 866.862 543.367C875.625 550.325 886.793 553.805 900.367 553.805ZM1066.89 313.087V577H1036.48V313.087H1066.89ZM1203 581.124C1185.13 581.124 1169.46 576.871 1155.97 568.366C1142.57 559.861 1132.09 547.963 1124.53 532.671C1117.05 517.379 1113.31 499.51 1113.31 479.064C1113.31 458.445 1117.05 440.448 1124.53 425.07C1132.09 409.692 1142.57 397.751 1155.97 389.246C1169.46 380.741 1185.13 376.488 1203 376.488C1220.87 376.488 1236.51 380.741 1249.91 389.246C1263.4 397.751 1273.88 409.692 1281.35 425.07C1288.91 440.448 1292.69 458.445 1292.69 479.064C1292.69 499.51 1288.91 517.379 1281.35 532.671C1273.88 547.963 1263.4 559.861 1249.91 568.366C1236.51 576.871 1220.87 581.124 1203 581.124ZM1203 553.805C1216.58 553.805 1227.74 550.325 1236.51 543.367C1245.27 536.408 1251.76 527.259 1255.97 515.919C1260.18 504.579 1262.28 492.294 1262.28 479.064C1262.28 465.834 1260.18 453.506 1255.97 442.08C1251.76 430.654 1245.27 421.419 1236.51 414.374C1227.74 407.33 1216.58 403.807 1203 403.807C1189.43 403.807 1178.26 407.33 1169.5 414.374C1160.74 421.419 1154.25 430.654 1150.04 442.08C1145.83 453.506 1143.73 465.834 1143.73 479.064C1143.73 492.294 1145.83 504.579 1150.04 515.919C1154.25 527.259 1160.74 536.408 1169.5 543.367C1178.26 550.325 1189.43 553.805 1203 553.805ZM1339.12 577V379.065H1368.5V408.962H1370.56C1374.17 399.168 1380.7 391.222 1390.15 385.122C1399.6 379.022 1410.25 375.973 1422.1 375.973C1424.34 375.973 1427.13 376.016 1430.48 376.102C1433.83 376.188 1436.36 376.316 1438.08 376.488V407.415C1437.05 407.158 1434.69 406.771 1430.99 406.256C1427.39 405.654 1423.56 405.354 1419.53 405.354C1409.9 405.354 1401.31 407.373 1393.75 411.41C1386.28 415.362 1380.35 420.86 1375.97 427.905C1371.67 434.863 1369.53 442.81 1369.53 451.745V577H1339.12ZM1614.34 423.395L1587.02 431.126C1585.3 426.573 1582.76 422.149 1579.41 417.853C1576.15 413.472 1571.68 409.864 1566.01 407.029C1560.34 404.194 1553.08 402.776 1544.23 402.776C1532.12 402.776 1522.03 405.568 1513.95 411.153C1505.96 416.651 1501.97 423.652 1501.97 432.157C1501.97 439.717 1504.72 445.688 1510.21 450.069C1515.71 454.451 1524.3 458.102 1535.99 461.023L1565.37 468.239C1583.06 472.535 1596.25 479.107 1604.93 487.955C1613.61 496.718 1617.94 508.015 1617.94 521.846C1617.94 533.186 1614.68 543.324 1608.15 552.258C1601.71 561.193 1592.69 568.237 1581.09 573.392C1569.49 578.546 1556 581.124 1540.63 581.124C1520.44 581.124 1503.73 576.742 1490.5 567.98C1477.27 559.217 1468.89 546.416 1465.37 529.578L1494.23 522.362C1496.98 533.015 1502.18 541.004 1509.83 546.33C1517.56 551.657 1527.65 554.32 1540.11 554.32C1554.29 554.32 1565.54 551.313 1573.87 545.3C1582.29 539.2 1586.5 531.898 1586.5 523.393C1586.5 516.52 1584.1 510.764 1579.28 506.125C1574.47 501.4 1567.09 497.878 1557.12 495.558L1524.13 487.826C1506 483.531 1492.69 476.873 1484.18 467.853C1475.76 458.746 1471.55 447.363 1471.55 433.704C1471.55 422.535 1474.69 412.656 1480.96 404.065C1487.32 395.474 1495.95 388.73 1506.86 383.833C1517.86 378.937 1530.32 376.488 1544.23 376.488C1563.82 376.488 1579.2 380.784 1590.37 389.375C1601.62 397.965 1609.61 409.305 1614.34 423.395Z"/>
</mask>
<path d="M772.437 395.56H740.479C738.589 386.368 735.282 378.292 730.557 371.334C725.918 364.375 720.248 358.533 713.547 353.808C706.932 348.997 699.586 345.389 691.511 342.984C683.436 340.578 675.016 339.375 666.254 339.375C650.275 339.375 635.799 343.413 622.827 351.489C609.94 359.564 599.674 371.463 592.028 387.184C584.468 402.905 580.688 422.192 580.688 445.044C580.688 467.895 584.468 487.182 592.028 502.903C599.674 518.625 609.94 530.523 622.827 538.599C635.799 546.674 650.275 550.712 666.254 550.712C675.016 550.712 683.436 549.509 691.511 547.104C699.586 544.698 706.932 541.133 713.547 536.408C720.248 531.597 725.918 525.712 730.557 518.754C735.282 511.709 738.589 503.634 740.479 494.527H772.437C770.032 508.015 765.651 520.085 759.293 530.738C752.936 541.391 745.032 550.454 735.582 557.928C726.132 565.316 715.523 570.943 703.753 574.809C692.069 578.675 679.57 580.608 666.254 580.608C643.746 580.608 623.729 575.11 606.203 564.114C588.678 553.117 574.889 537.482 564.838 517.207C554.787 496.933 549.761 472.878 549.761 445.044C549.761 417.209 554.787 393.155 564.838 372.88C574.889 352.605 588.678 336.97 606.203 325.974C623.729 314.977 643.746 309.479 666.254 309.479C679.57 309.479 692.069 311.412 703.753 315.278C715.523 319.144 726.132 324.814 735.582 332.288C745.032 339.676 752.936 348.697 759.293 359.349C765.651 369.916 770.032 381.986 772.437 395.56ZM900.367 581.124C882.498 581.124 866.819 576.871 853.331 568.366C839.93 559.861 829.449 547.963 821.889 532.671C814.415 517.379 810.678 499.51 810.678 479.064C810.678 458.445 814.415 440.448 821.889 425.07C829.449 409.692 839.93 397.751 853.331 389.246C866.819 380.741 882.498 376.488 900.367 376.488C918.236 376.488 933.871 380.741 947.273 389.246C960.761 397.751 971.242 409.692 978.716 425.07C986.276 440.448 990.056 458.445 990.056 479.064C990.056 499.51 986.276 517.379 978.716 532.671C971.242 547.963 960.761 559.861 947.273 568.366C933.871 576.871 918.236 581.124 900.367 581.124ZM900.367 553.805C913.94 553.805 925.109 550.325 933.871 543.367C942.634 536.408 949.12 527.259 953.33 515.919C957.539 504.579 959.644 492.294 959.644 479.064C959.644 465.834 957.539 453.506 953.33 442.08C949.12 430.654 942.634 421.419 933.871 414.374C925.109 407.33 913.94 403.807 900.367 403.807C886.793 403.807 875.625 407.33 866.862 414.374C858.099 421.419 851.613 430.654 847.404 442.08C843.194 453.506 841.089 465.834 841.089 479.064C841.089 492.294 843.194 504.579 847.404 515.919C851.613 527.259 858.099 536.408 866.862 543.367C875.625 550.325 886.793 553.805 900.367 553.805ZM1066.89 313.087V577H1036.48V313.087H1066.89ZM1203 581.124C1185.13 581.124 1169.46 576.871 1155.97 568.366C1142.57 559.861 1132.09 547.963 1124.53 532.671C1117.05 517.379 1113.31 499.51 1113.31 479.064C1113.31 458.445 1117.05 440.448 1124.53 425.07C1132.09 409.692 1142.57 397.751 1155.97 389.246C1169.46 380.741 1185.13 376.488 1203 376.488C1220.87 376.488 1236.51 380.741 1249.91 389.246C1263.4 397.751 1273.88 409.692 1281.35 425.07C1288.91 440.448 1292.69 458.445 1292.69 479.064C1292.69 499.51 1288.91 517.379 1281.35 532.671C1273.88 547.963 1263.4 559.861 1249.91 568.366C1236.51 576.871 1220.87 581.124 1203 581.124ZM1203 553.805C1216.58 553.805 1227.74 550.325 1236.51 543.367C1245.27 536.408 1251.76 527.259 1255.97 515.919C1260.18 504.579 1262.28 492.294 1262.28 479.064C1262.28 465.834 1260.18 453.506 1255.97 442.08C1251.76 430.654 1245.27 421.419 1236.51 414.374C1227.74 407.33 1216.58 403.807 1203 403.807C1189.43 403.807 1178.26 407.33 1169.5 414.374C1160.74 421.419 1154.25 430.654 1150.04 442.08C1145.83 453.506 1143.73 465.834 1143.73 479.064C1143.73 492.294 1145.83 504.579 1150.04 515.919C1154.25 527.259 1160.74 536.408 1169.5 543.367C1178.26 550.325 1189.43 553.805 1203 553.805ZM1339.12 577V379.065H1368.5V408.962H1370.56C1374.17 399.168 1380.7 391.222 1390.15 385.122C1399.6 379.022 1410.25 375.973 1422.1 375.973C1424.34 375.973 1427.13 376.016 1430.48 376.102C1433.83 376.188 1436.36 376.316 1438.08 376.488V407.415C1437.05 407.158 1434.69 406.771 1430.99 406.256C1427.39 405.654 1423.56 405.354 1419.53 405.354C1409.9 405.354 1401.31 407.373 1393.75 411.41C1386.28 415.362 1380.35 420.86 1375.97 427.905C1371.67 434.863 1369.53 442.81 1369.53 451.745V577H1339.12ZM1614.34 423.395L1587.02 431.126C1585.3 426.573 1582.76 422.149 1579.41 417.853C1576.15 413.472 1571.68 409.864 1566.01 407.029C1560.34 404.194 1553.08 402.776 1544.23 402.776C1532.12 402.776 1522.03 405.568 1513.95 411.153C1505.96 416.651 1501.97 423.652 1501.97 432.157C1501.97 439.717 1504.72 445.688 1510.21 450.069C1515.71 454.451 1524.3 458.102 1535.99 461.023L1565.37 468.239C1583.06 472.535 1596.25 479.107 1604.93 487.955C1613.61 496.718 1617.94 508.015 1617.94 521.846C1617.94 533.186 1614.68 543.324 1608.15 552.258C1601.71 561.193 1592.69 568.237 1581.09 573.392C1569.49 578.546 1556 581.124 1540.63 581.124C1520.44 581.124 1503.73 576.742 1490.5 567.98C1477.27 559.217 1468.89 546.416 1465.37 529.578L1494.23 522.362C1496.98 533.015 1502.18 541.004 1509.83 546.33C1517.56 551.657 1527.65 554.32 1540.11 554.32C1554.29 554.32 1565.54 551.313 1573.87 545.3C1582.29 539.2 1586.5 531.898 1586.5 523.393C1586.5 516.52 1584.1 510.764 1579.28 506.125C1574.47 501.4 1567.09 497.878 1557.12 495.558L1524.13 487.826C1506 483.531 1492.69 476.873 1484.18 467.853C1475.76 458.746 1471.55 447.363 1471.55 433.704C1471.55 422.535 1474.69 412.656 1480.96 404.065C1487.32 395.474 1495.95 388.73 1506.86 383.833C1517.86 378.937 1530.32 376.488 1544.23 376.488C1563.82 376.488 1579.2 380.784 1590.37 389.375C1601.62 397.965 1609.61 409.305 1614.34 423.395Z" fill="white"/>
<path d="M772.437 395.56V415.56H796.293L792.13 392.07L772.437 395.56ZM740.479 395.56L720.889 399.588L724.173 415.56H740.479V395.56ZM730.557 371.334L713.916 382.428L713.963 382.498L714.011 382.569L730.557 371.334ZM713.547 353.808L701.783 369.983L701.902 370.069L702.021 370.153L713.547 353.808ZM691.511 342.984L685.801 362.151L685.801 362.151L691.511 342.984ZM622.827 351.489L612.257 334.51L612.232 334.526L612.206 334.541L622.827 351.489ZM592.028 387.184L574.042 378.437L574.023 378.477L574.004 378.516L592.028 387.184ZM592.028 502.903L574.004 511.571L574.023 511.611L574.042 511.651L592.028 502.903ZM622.827 538.599L612.206 555.546L612.232 555.562L612.257 555.578L622.827 538.599ZM691.511 547.104L685.801 527.936L685.801 527.936L691.511 547.104ZM713.547 536.408L725.171 552.683L725.191 552.669L725.211 552.654L713.547 536.408ZM730.557 518.754L713.947 507.613L713.931 507.636L713.916 507.66L730.557 518.754ZM740.479 494.527V474.527H724.204L720.896 490.463L740.479 494.527ZM772.437 494.527L792.127 498.039L796.32 474.527H772.437V494.527ZM759.293 530.738L742.119 520.489L742.119 520.489L759.293 530.738ZM735.582 557.928L747.901 573.684L747.945 573.65L747.989 573.615L735.582 557.928ZM703.753 574.809L697.512 555.808L697.491 555.815L697.47 555.822L703.753 574.809ZM606.203 564.114L595.573 581.055L595.573 581.055L606.203 564.114ZM564.838 517.207L582.757 508.324L582.757 508.324L564.838 517.207ZM703.753 315.278L697.47 334.266L697.491 334.272L697.512 334.279L703.753 315.278ZM735.582 332.288L723.176 347.975L723.22 348.01L723.264 348.044L735.582 332.288ZM759.293 359.349L742.119 369.598L742.137 369.629L742.156 369.66L759.293 359.349ZM772.437 375.56H740.479V415.56H772.437V375.56ZM760.069 391.532C757.71 380.059 753.469 369.474 747.103 360.099L714.011 382.569C717.094 387.11 719.468 392.676 720.889 399.588L760.069 391.532ZM747.198 360.24C741.219 351.272 733.828 343.637 725.072 337.463L702.021 370.153C706.667 373.429 710.616 377.478 713.916 382.428L747.198 360.24ZM725.31 337.633C716.806 331.449 707.403 326.849 697.22 323.816L685.801 362.151C691.77 363.929 697.057 366.546 701.783 369.983L725.31 337.633ZM697.22 323.816C687.219 320.837 676.872 319.375 666.254 319.375V359.375C673.161 359.375 679.652 360.32 685.801 362.151L697.22 323.816ZM666.254 319.375C646.718 319.375 628.55 324.367 612.257 334.51L633.396 368.468C643.048 362.459 653.832 359.375 666.254 359.375V319.375ZM612.206 334.541C595.693 344.89 583.077 359.861 574.042 378.437L610.014 395.931C616.272 383.064 624.188 374.238 633.447 368.436L612.206 334.541ZM574.004 378.516C564.805 397.645 560.688 420.083 560.688 445.044H600.688C600.688 424.3 604.131 408.165 610.053 395.851L574.004 378.516ZM560.688 445.044C560.688 470.004 564.805 492.442 574.004 511.571L610.053 494.236C604.131 481.922 600.688 465.787 600.688 445.044H560.688ZM574.042 511.651C583.077 530.226 595.693 545.197 612.206 555.546L633.447 521.651C624.188 515.849 616.272 507.023 610.014 494.156L574.042 511.651ZM612.257 555.578C628.55 565.72 646.718 570.712 666.254 570.712V530.712C653.832 530.712 643.048 527.628 633.396 521.62L612.257 555.578ZM666.254 570.712C676.872 570.712 687.219 569.25 697.22 566.271L685.801 527.936C679.652 529.768 673.161 530.712 666.254 530.712V570.712ZM697.22 566.271C707.336 563.258 716.693 558.739 725.171 552.683L701.922 520.133C697.171 523.527 691.837 526.138 685.801 527.936L697.22 566.271ZM725.211 552.654C733.895 546.42 741.242 538.781 747.198 529.848L713.916 507.66C710.593 512.644 706.6 516.774 701.883 520.161L725.211 552.654ZM747.166 529.894C753.463 520.507 757.698 509.982 760.062 498.592L720.896 490.463C719.48 497.285 717.1 502.911 713.947 507.613L747.166 529.894ZM740.479 514.527H772.437V474.527H740.479V514.527ZM752.748 491.016C750.723 502.372 747.115 512.117 742.119 520.489L776.467 540.987C784.186 528.053 789.341 513.658 792.127 498.039L752.748 491.016ZM742.119 520.489C736.97 529.117 730.663 536.32 723.176 542.241L747.989 573.615C759.402 564.588 768.902 553.664 776.467 540.987L742.119 520.489ZM723.264 542.172C715.696 548.089 707.156 552.64 697.512 555.808L709.994 593.811C723.889 589.247 736.568 582.544 747.901 573.684L723.264 542.172ZM697.47 555.822C687.973 558.964 677.61 560.608 666.254 560.608V600.608C681.53 600.608 696.166 598.386 710.036 593.797L697.47 555.822ZM666.254 560.608C647.163 560.608 630.895 555.995 616.833 547.172L595.573 581.055C616.563 594.225 640.328 600.608 666.254 600.608V560.608ZM616.833 547.172C602.724 538.32 591.328 525.612 582.757 508.324L546.919 526.091C558.451 549.352 574.631 567.915 595.573 581.055L616.833 547.172ZM582.757 508.324C574.353 491.373 569.761 470.492 569.761 445.044H529.761C529.761 475.264 535.22 502.493 546.919 526.091L582.757 508.324ZM569.761 445.044C569.761 419.595 574.353 398.715 582.757 381.763L546.919 363.997C535.22 387.595 529.761 414.823 529.761 445.044H569.761ZM582.757 381.763C591.328 364.475 602.724 351.768 616.833 342.915L595.573 309.032C574.631 322.173 558.451 340.736 546.919 363.997L582.757 381.763ZM616.833 342.915C630.895 334.092 647.163 329.479 666.254 329.479V289.479C640.328 289.479 616.563 295.863 595.573 309.032L616.833 342.915ZM666.254 329.479C677.61 329.479 687.973 331.123 697.47 334.266L710.036 296.29C696.166 291.701 681.53 289.479 666.254 289.479V329.479ZM697.512 334.279C707.111 337.432 715.622 342.001 723.176 347.975L747.989 316.601C736.643 307.627 723.934 300.855 709.994 296.277L697.512 334.279ZM723.264 348.044C730.703 353.86 736.983 360.992 742.119 369.598L776.467 349.1C768.889 336.402 759.362 325.492 747.901 316.532L723.264 348.044ZM742.156 369.66C747.111 377.896 750.716 387.604 752.744 399.05L792.13 392.07C789.348 376.369 784.19 361.936 776.431 349.039L742.156 369.66ZM853.331 568.366L842.615 585.253L842.639 585.268L842.664 585.284L853.331 568.366ZM821.889 532.671L803.92 541.453L803.94 541.494L803.96 541.535L821.889 532.671ZM821.889 425.07L803.94 416.246L803.921 416.286L803.901 416.327L821.889 425.07ZM853.331 389.246L842.664 372.328L842.639 372.344L842.615 372.359L853.331 389.246ZM947.273 389.246L936.557 406.132L936.581 406.148L936.605 406.163L947.273 389.246ZM978.716 425.07L960.728 433.812L960.748 433.853L960.767 433.894L978.716 425.07ZM978.716 532.671L960.787 523.807L960.767 523.848L960.747 523.889L978.716 532.671ZM947.273 568.366L936.605 551.449L936.581 551.464L936.557 551.48L947.273 568.366ZM933.871 543.367L921.434 527.704L921.434 527.704L933.871 543.367ZM953.33 515.919L972.079 522.879L972.079 522.879L953.33 515.919ZM953.33 442.08L972.097 435.166L972.097 435.166L953.33 442.08ZM933.871 414.374L946.402 398.787L946.402 398.787L933.871 414.374ZM866.862 414.374L854.331 398.787L854.331 398.787L866.862 414.374ZM847.404 442.08L828.637 435.166L828.637 435.166L847.404 442.08ZM847.404 515.919L828.654 522.879L828.654 522.879L847.404 515.919ZM866.862 543.367L879.3 527.704L879.3 527.704L866.862 543.367ZM900.367 561.124C885.804 561.124 873.918 557.703 863.999 551.449L842.664 585.284C859.72 596.039 879.191 601.124 900.367 601.124V561.124ZM864.048 551.48C853.971 545.085 845.88 536.07 839.817 523.807L803.96 541.535C813.018 559.856 825.888 574.638 842.615 585.253L864.048 551.48ZM839.857 523.889C833.962 511.828 830.678 497.071 830.678 479.064H790.678C790.678 501.949 794.867 522.931 803.92 541.453L839.857 523.889ZM830.678 479.064C830.678 460.859 833.972 445.962 839.877 433.812L803.901 416.327C794.858 434.933 790.678 456.032 790.678 479.064H830.678ZM839.837 433.894C845.908 421.545 853.999 412.509 864.048 406.132L842.615 372.359C825.86 382.992 812.99 397.839 803.94 416.246L839.837 433.894ZM863.999 406.163C873.918 399.908 885.804 396.488 900.367 396.488V356.488C879.191 356.488 859.72 361.573 842.664 372.328L863.999 406.163ZM900.367 396.488C914.932 396.488 926.75 399.909 936.557 406.132L957.99 372.359C940.992 361.572 921.54 356.488 900.367 356.488V396.488ZM936.605 406.163C946.709 412.534 954.761 421.536 960.728 433.812L996.704 416.327C987.722 397.848 974.812 382.967 957.941 372.328L936.605 406.163ZM960.767 433.894C966.731 446.023 970.056 460.891 970.056 479.064H1010.06C1010.06 456 1005.82 434.872 996.664 416.246L960.767 433.894ZM970.056 479.064C970.056 497.04 966.74 511.766 960.787 523.807L996.644 541.535C1005.81 522.992 1010.06 501.98 1010.06 479.064H970.056ZM960.747 523.889C954.79 536.078 946.738 545.06 936.605 551.449L957.941 585.284C974.784 574.663 987.694 559.848 996.684 541.453L960.747 523.889ZM936.557 551.48C926.75 557.703 914.932 561.124 900.367 561.124V601.124C921.54 601.124 940.992 596.039 957.99 585.253L936.557 551.48ZM900.367 573.805C917.464 573.805 933.303 569.357 946.309 559.029L921.434 527.704C916.914 531.293 910.417 533.805 900.367 533.805V573.805ZM946.309 559.029C958.161 549.617 966.706 537.354 972.079 522.879L934.58 508.958C931.534 517.163 927.107 523.199 921.434 527.704L946.309 559.029ZM972.079 522.879C977.19 509.112 979.644 494.447 979.644 479.064H939.644C939.644 490.14 937.888 500.046 934.58 508.958L972.079 522.879ZM979.644 479.064C979.644 463.679 977.19 448.99 972.097 435.166L934.563 448.994C937.889 458.022 939.644 467.989 939.644 479.064H979.644ZM972.097 435.166C966.741 420.629 958.225 408.291 946.402 398.787L921.34 429.962C927.043 434.546 931.499 440.679 934.563 448.994L972.097 435.166ZM946.402 398.787C933.393 388.328 917.52 383.807 900.367 383.807V423.807C910.361 423.807 916.824 426.331 921.34 429.962L946.402 398.787ZM900.367 383.807C883.213 383.807 867.34 388.328 854.331 398.787L879.393 429.962C883.91 426.331 890.373 423.807 900.367 423.807V383.807ZM854.331 398.787C842.508 408.291 833.992 420.629 828.637 435.166L866.171 448.994C869.234 440.679 873.691 434.546 879.393 429.962L854.331 398.787ZM828.637 435.166C823.544 448.99 821.089 463.679 821.089 479.064H861.089C861.089 467.989 862.845 458.022 866.171 448.994L828.637 435.166ZM821.089 479.064C821.089 494.447 823.543 509.112 828.654 522.879L866.154 508.958C862.845 500.046 861.089 490.14 861.089 479.064H821.089ZM828.654 522.879C834.027 537.354 842.572 549.617 854.425 559.029L879.3 527.704C873.627 523.199 869.199 517.163 866.154 508.958L828.654 522.879ZM854.425 559.029C867.431 569.357 883.27 573.805 900.367 573.805V533.805C890.316 533.805 883.819 531.293 879.3 527.704L854.425 559.029ZM1066.89 313.087H1086.89V293.087H1066.89V313.087ZM1066.89 577V597H1086.89V577H1066.89ZM1036.48 577H1016.48V597H1036.48V577ZM1036.48 313.087V293.087H1016.48V313.087H1036.48ZM1046.89 313.087V577H1086.89V313.087H1046.89ZM1066.89 557H1036.48V597H1066.89V557ZM1056.48 577V313.087H1016.48V577H1056.48ZM1036.48 333.087H1066.89V293.087H1036.48V333.087ZM1155.97 568.366L1145.25 585.253L1145.28 585.268L1145.3 585.284L1155.97 568.366ZM1124.53 532.671L1106.56 541.453L1106.58 541.494L1106.6 541.535L1124.53 532.671ZM1124.53 425.07L1106.58 416.246L1106.56 416.286L1106.54 416.327L1124.53 425.07ZM1155.97 389.246L1145.3 372.328L1145.28 372.344L1145.25 372.359L1155.97 389.246ZM1249.91 389.246L1239.19 406.132L1239.22 406.148L1239.24 406.163L1249.91 389.246ZM1281.35 425.07L1263.36 433.812L1263.38 433.853L1263.4 433.894L1281.35 425.07ZM1281.35 532.671L1263.42 523.807L1263.4 523.848L1263.38 523.889L1281.35 532.671ZM1249.91 568.366L1239.24 551.449L1239.22 551.464L1239.19 551.48L1249.91 568.366ZM1236.51 543.367L1224.07 527.704L1224.07 527.704L1236.51 543.367ZM1255.97 515.919L1274.72 522.879L1274.72 522.879L1255.97 515.919ZM1255.97 442.08L1274.73 435.166L1274.73 435.166L1255.97 442.08ZM1236.51 414.374L1249.04 398.787L1249.04 398.787L1236.51 414.374ZM1169.5 414.374L1156.97 398.787L1156.97 398.787L1169.5 414.374ZM1150.04 442.08L1131.27 435.166L1131.27 435.166L1150.04 442.08ZM1150.04 515.919L1131.29 522.879L1131.29 522.879L1150.04 515.919ZM1169.5 543.367L1181.94 527.704L1181.94 527.704L1169.5 543.367ZM1203 561.124C1188.44 561.124 1176.55 557.703 1166.64 551.449L1145.3 585.284C1162.36 596.039 1181.83 601.124 1203 601.124V561.124ZM1166.68 551.48C1156.61 545.085 1148.52 536.07 1142.45 523.807L1106.6 541.535C1115.65 559.856 1128.52 574.638 1145.25 585.253L1166.68 551.48ZM1142.49 523.889C1136.6 511.828 1133.31 497.071 1133.31 479.064H1093.31C1093.31 501.949 1097.5 522.931 1106.56 541.453L1142.49 523.889ZM1133.31 479.064C1133.31 460.859 1136.61 445.962 1142.51 433.812L1106.54 416.327C1097.49 434.933 1093.31 456.032 1093.31 479.064H1133.31ZM1142.47 433.894C1148.54 421.545 1156.64 412.509 1166.68 406.132L1145.25 372.359C1128.5 382.992 1115.63 397.839 1106.58 416.246L1142.47 433.894ZM1166.64 406.163C1176.55 399.908 1188.44 396.488 1203 396.488V356.488C1181.83 356.488 1162.36 361.573 1145.3 372.328L1166.64 406.163ZM1203 396.488C1217.57 396.488 1229.39 399.909 1239.19 406.132L1260.63 372.359C1243.63 361.572 1224.18 356.488 1203 356.488V396.488ZM1239.24 406.163C1249.35 412.534 1257.4 421.536 1263.36 433.812L1299.34 416.327C1290.36 397.848 1277.45 382.967 1260.58 372.328L1239.24 406.163ZM1263.4 433.894C1269.37 446.023 1272.69 460.891 1272.69 479.064H1312.69C1312.69 456 1308.46 434.872 1299.3 416.246L1263.4 433.894ZM1272.69 479.064C1272.69 497.04 1269.38 511.766 1263.42 523.807L1299.28 541.535C1308.45 522.992 1312.69 501.98 1312.69 479.064H1272.69ZM1263.38 523.889C1257.43 536.078 1249.37 545.06 1239.24 551.449L1260.58 585.284C1277.42 574.663 1290.33 559.848 1299.32 541.453L1263.38 523.889ZM1239.19 551.48C1229.39 557.703 1217.57 561.124 1203 561.124V601.124C1224.18 601.124 1243.63 596.039 1260.63 585.253L1239.19 551.48ZM1203 573.805C1220.1 573.805 1235.94 569.357 1248.95 559.029L1224.07 527.704C1219.55 531.293 1213.05 533.805 1203 533.805V573.805ZM1248.95 559.029C1260.8 549.617 1269.34 537.354 1274.72 522.879L1237.22 508.958C1234.17 517.163 1229.74 523.199 1224.07 527.704L1248.95 559.029ZM1274.72 522.879C1279.83 509.112 1282.28 494.447 1282.28 479.064H1242.28C1242.28 490.14 1240.52 500.046 1237.22 508.958L1274.72 522.879ZM1282.28 479.064C1282.28 463.679 1279.83 448.99 1274.73 435.166L1237.2 448.994C1240.53 458.022 1242.28 467.989 1242.28 479.064H1282.28ZM1274.73 435.166C1269.38 420.629 1260.86 408.291 1249.04 398.787L1223.98 429.962C1229.68 434.546 1234.14 440.679 1237.2 448.994L1274.73 435.166ZM1249.04 398.787C1236.03 388.328 1220.16 383.807 1203 383.807V423.807C1213 423.807 1219.46 426.331 1223.98 429.962L1249.04 398.787ZM1203 383.807C1185.85 383.807 1169.98 388.328 1156.97 398.787L1182.03 429.962C1186.55 426.331 1193.01 423.807 1203 423.807V383.807ZM1156.97 398.787C1145.14 408.291 1136.63 420.629 1131.27 435.166L1168.81 448.994C1171.87 440.679 1176.33 434.546 1182.03 429.962L1156.97 398.787ZM1131.27 435.166C1126.18 448.99 1123.73 463.679 1123.73 479.064H1163.73C1163.73 467.989 1165.48 458.022 1168.81 448.994L1131.27 435.166ZM1123.73 479.064C1123.73 494.447 1126.18 509.112 1131.29 522.879L1168.79 508.958C1165.48 500.046 1163.73 490.14 1163.73 479.064H1123.73ZM1131.29 522.879C1136.66 537.354 1145.21 549.617 1157.06 559.029L1181.94 527.704C1176.26 523.199 1171.84 517.163 1168.79 508.958L1131.29 522.879ZM1157.06 559.029C1170.07 569.357 1185.91 573.805 1203 573.805V533.805C1192.95 533.805 1186.46 531.293 1181.94 527.704L1157.06 559.029ZM1339.12 577H1319.12V597H1339.12V577ZM1339.12 379.065V359.065H1319.12V379.065H1339.12ZM1368.5 379.065H1388.5V359.065H1368.5V379.065ZM1368.5 408.962H1348.5V428.962H1368.5V408.962ZM1370.56 408.962V428.962H1384.5L1389.32 415.876L1370.56 408.962ZM1390.15 385.122L1379.3 368.318L1379.3 368.318L1390.15 385.122ZM1438.08 376.488H1458.08V358.388L1440.07 356.587L1438.08 376.488ZM1438.08 407.415L1433.23 426.818L1458.08 433.031V407.415H1438.08ZM1430.99 406.256L1427.71 425.984L1427.97 426.027L1428.23 426.064L1430.99 406.256ZM1393.75 411.41L1403.1 429.091L1403.14 429.071L1403.18 429.052L1393.75 411.41ZM1375.97 427.905L1358.99 417.342L1358.97 417.371L1358.95 417.399L1375.97 427.905ZM1369.53 577V597H1389.53V577H1369.53ZM1359.12 577V379.065H1319.12V577H1359.12ZM1339.12 399.065H1368.5V359.065H1339.12V399.065ZM1348.5 379.065V408.962H1388.5V379.065H1348.5ZM1368.5 428.962H1370.56V388.962H1368.5V428.962ZM1389.32 415.876C1391.32 410.473 1394.88 405.868 1400.99 401.926L1379.3 368.318C1366.51 376.575 1357.02 387.863 1351.79 402.048L1389.32 415.876ZM1400.99 401.926C1407.03 398.028 1413.88 395.973 1422.1 395.973V355.973C1406.62 355.973 1392.16 360.017 1379.3 368.318L1400.99 401.926ZM1422.1 395.973C1424.1 395.973 1426.71 396.012 1429.97 396.095L1430.99 356.108C1427.55 356.02 1424.57 355.973 1422.1 355.973V395.973ZM1429.97 396.095C1433.19 396.178 1435.13 396.293 1436.09 396.389L1440.07 356.587C1437.6 356.34 1434.47 356.197 1430.99 356.108L1429.97 396.095ZM1418.08 376.488V407.415H1458.08V376.488H1418.08ZM1442.93 388.013C1440.66 387.444 1437.15 386.921 1433.76 386.448L1428.23 426.064C1430 426.31 1431.34 426.512 1432.31 426.67C1432.79 426.749 1433.12 426.807 1433.33 426.847C1433.58 426.894 1433.5 426.886 1433.23 426.818L1442.93 388.013ZM1434.28 386.528C1429.48 385.728 1424.55 385.354 1419.53 385.354V425.354C1422.57 425.354 1425.29 425.581 1427.71 425.984L1434.28 386.528ZM1419.53 385.354C1407.03 385.354 1395.13 388.001 1384.33 393.769L1403.18 429.052C1407.5 426.744 1412.78 425.354 1419.53 425.354V385.354ZM1384.4 393.73C1373.86 399.303 1365.28 407.231 1358.99 417.342L1392.95 438.467C1395.43 434.489 1398.69 431.421 1403.1 429.091L1384.4 393.73ZM1358.95 417.399C1352.53 427.805 1349.53 439.455 1349.53 451.745H1389.53C1389.53 446.165 1390.82 441.922 1392.99 438.41L1358.95 417.399ZM1349.53 451.745V577H1389.53V451.745H1349.53ZM1369.53 557H1339.12V597H1369.53V557ZM1614.34 423.395L1619.78 442.639L1639.97 436.926L1633.3 417.035L1614.34 423.395ZM1587.02 431.126L1568.3 438.187L1574.79 455.372L1592.46 450.37L1587.02 431.126ZM1579.41 417.853L1563.38 429.803L1563.51 429.98L1563.64 430.154L1579.41 417.853ZM1566.01 407.029L1574.96 389.14L1574.96 389.14L1566.01 407.029ZM1513.95 411.153L1525.29 427.628L1525.31 427.615L1525.33 427.603L1513.95 411.153ZM1510.21 450.069L1497.75 465.711L1497.75 465.711L1510.21 450.069ZM1535.99 461.023L1531.14 480.426L1531.18 480.436L1531.22 480.445L1535.99 461.023ZM1565.37 468.239L1560.6 487.662L1560.62 487.668L1560.65 487.675L1565.37 468.239ZM1604.93 487.955L1590.65 501.958L1590.68 501.993L1590.72 502.028L1604.93 487.955ZM1608.15 552.258L1592 540.458L1591.97 540.509L1591.93 540.56L1608.15 552.258ZM1490.5 567.98L1501.54 551.305L1501.54 551.305L1490.5 567.98ZM1465.37 529.578L1460.52 510.175L1441.85 514.842L1445.79 533.673L1465.37 529.578ZM1494.23 522.362L1513.6 517.364L1508.64 498.145L1489.38 502.959L1494.23 522.362ZM1509.83 546.33L1498.4 562.741L1498.44 562.771L1498.48 562.801L1509.83 546.33ZM1573.87 545.3L1585.58 561.518L1585.59 561.507L1585.61 561.496L1573.87 545.3ZM1579.28 506.125L1565.27 520.394L1565.34 520.458L1565.4 520.522L1579.28 506.125ZM1557.12 495.558L1552.56 515.031L1552.57 515.034L1552.59 515.037L1557.12 495.558ZM1524.13 487.826L1519.52 507.287L1519.54 507.293L1519.57 507.299L1524.13 487.826ZM1484.18 467.853L1469.5 481.43L1469.56 481.502L1469.63 481.573L1484.18 467.853ZM1480.96 404.065L1464.88 392.168L1464.85 392.22L1464.81 392.273L1480.96 404.065ZM1506.86 383.833L1498.73 365.563L1498.7 365.575L1498.67 365.587L1506.86 383.833ZM1590.37 389.375L1578.17 405.227L1578.2 405.25L1578.23 405.272L1590.37 389.375ZM1608.89 404.15L1581.57 411.882L1592.46 450.37L1619.78 442.639L1608.89 404.15ZM1605.73 424.065C1603.22 417.417 1599.63 411.249 1595.18 405.553L1563.64 430.154C1565.9 433.048 1567.38 435.729 1568.3 438.187L1605.73 424.065ZM1595.45 405.904C1590.04 398.643 1582.97 393.149 1574.96 389.14L1557.07 424.917C1560.39 426.578 1562.26 428.302 1563.38 429.803L1595.45 405.904ZM1574.96 389.14C1565.63 384.479 1555.03 382.776 1544.23 382.776V422.776C1551.13 422.776 1555.05 423.909 1557.07 424.917L1574.96 389.14ZM1544.23 382.776C1529.02 382.776 1514.7 386.315 1502.58 394.702L1525.33 427.603C1529.35 424.822 1535.23 422.776 1544.23 422.776V382.776ZM1502.61 394.677C1490.08 403.299 1481.97 416.066 1481.97 432.157H1521.97C1521.97 431.182 1522.16 430.752 1522.33 430.439C1522.57 430.03 1523.28 429.013 1525.29 427.628L1502.61 394.677ZM1481.97 432.157C1481.97 445.279 1487.09 457.218 1497.75 465.711L1522.68 434.428C1522.41 434.212 1522.29 434.071 1522.25 434.023C1522.21 433.98 1522.2 433.961 1522.2 433.941C1522.18 433.917 1522.13 433.803 1522.08 433.547C1522.03 433.284 1521.97 432.835 1521.97 432.157H1481.97ZM1497.75 465.711C1506.54 472.718 1518.38 477.237 1531.14 480.426L1540.84 441.62C1530.22 438.967 1524.88 436.183 1522.68 434.428L1497.75 465.711ZM1531.22 480.445L1560.6 487.662L1570.14 448.816L1540.76 441.6L1531.22 480.445ZM1560.65 487.675C1576.32 491.477 1585.54 496.751 1590.65 501.958L1619.21 473.952C1606.96 461.462 1589.81 453.592 1570.08 448.803L1560.65 487.675ZM1590.72 502.028C1595.22 506.576 1597.94 512.586 1597.94 521.846H1637.94C1637.94 503.444 1631.99 486.86 1619.14 473.883L1590.72 502.028ZM1597.94 521.846C1597.94 529.057 1595.96 535.039 1592 540.458L1624.3 564.059C1633.4 551.609 1637.94 537.316 1637.94 521.846H1597.94ZM1591.93 540.56C1587.85 546.211 1581.83 551.177 1572.97 555.116L1589.21 591.668C1603.54 585.298 1615.56 576.175 1624.37 563.957L1591.93 540.56ZM1572.97 555.116C1564.41 558.92 1553.78 561.124 1540.63 561.124V601.124C1558.22 601.124 1574.58 598.173 1589.21 591.668L1572.97 555.116ZM1540.63 561.124C1523.3 561.124 1510.71 557.378 1501.54 551.305L1479.45 584.654C1496.75 596.107 1517.57 601.124 1540.63 601.124V561.124ZM1501.54 551.305C1493.09 545.708 1487.49 537.646 1484.95 525.483L1445.79 533.673C1450.29 555.187 1461.44 572.726 1479.45 584.654L1501.54 551.305ZM1470.22 548.981L1499.09 541.765L1489.38 502.959L1460.52 510.175L1470.22 548.981ZM1474.87 527.359C1478.59 541.763 1486.14 554.203 1498.4 562.741L1521.26 529.92C1518.22 527.805 1515.38 524.267 1513.6 517.364L1474.87 527.359ZM1498.48 562.801C1510.48 571.069 1524.91 574.32 1540.11 574.32V534.32C1530.4 534.32 1524.63 532.245 1521.17 529.86L1498.48 562.801ZM1540.11 574.32C1556.93 574.32 1572.76 570.767 1585.58 561.518L1562.17 529.082C1558.32 531.86 1551.64 534.32 1540.11 534.32V574.32ZM1585.61 561.496C1597.92 552.575 1606.5 539.76 1606.5 523.393H1566.5C1566.5 524.035 1566.66 525.825 1562.14 529.103L1585.61 561.496ZM1606.5 523.393C1606.5 511.263 1602.01 500.255 1593.17 491.728L1565.4 520.522C1566.18 521.273 1566.5 521.777 1566.5 523.393H1606.5ZM1593.3 491.856C1584.84 483.553 1573.48 478.832 1561.65 476.079L1552.59 515.037C1560.69 516.923 1564.1 519.247 1565.27 520.394L1593.3 491.856ZM1561.68 476.086L1528.69 468.354L1519.57 507.299L1552.56 515.031L1561.68 476.086ZM1528.74 468.365C1512.63 464.547 1503.53 459.215 1498.74 454.132L1469.63 481.573C1481.85 494.531 1499.38 502.515 1519.52 507.287L1528.74 468.365ZM1498.87 454.275C1494.22 449.252 1491.55 442.884 1491.55 433.704H1451.55C1451.55 451.843 1457.3 468.24 1469.5 481.43L1498.87 454.275ZM1491.55 433.704C1491.55 426.549 1493.47 420.846 1497.12 415.857L1464.81 392.273C1455.91 404.465 1451.55 418.522 1451.55 433.704H1491.55ZM1497.04 415.962C1501.12 410.445 1506.89 405.742 1515.05 402.08L1498.67 365.587C1485.01 371.718 1473.52 380.503 1464.88 392.168L1497.04 415.962ZM1515 402.104C1523.07 398.512 1532.68 396.488 1544.23 396.488V356.488C1527.95 356.488 1512.65 359.361 1498.73 365.563L1515 402.104ZM1544.23 396.488C1561.1 396.488 1571.64 400.2 1578.17 405.227L1602.56 373.522C1586.76 361.367 1566.54 356.488 1544.23 356.488V396.488ZM1578.23 405.272C1586.15 411.313 1591.85 419.256 1595.37 429.754L1633.3 417.035C1627.37 399.355 1617.1 384.618 1602.5 373.477L1578.23 405.272Z" fill="black" mask="url(#path-7-outside-1_624_201)"/>
</mask>
<g mask="url(#mask1_624_201)">
<g filter="url(#filter1_i_624_201)">
<mask id="mask2_624_201" style="mask-type:alpha" maskUnits="userSpaceOnUse" x="147" y="-650" width="1987" height="2371">
<rect x="1201.3" y="1737.5" width="2143.1" height="1096.99" rx="75.05" transform="rotate(-120 1201.3 1737.5)" fill="#171717" stroke="black" stroke-width="20"/>
</mask>
<g mask="url(#mask2_624_201)">
<path d="M1022.94 41.9622C1615.94 -349.453 2451.23 -230.343 2277.23 439.791C2701.21 1011.71 2482.34 1181.91 1997.92 1482.62C1513.51 1783.33 954.453 1449.95 743.629 1084.79C532.805 719.631 657.855 252.742 1022.94 41.9622Z" fill="#604141"/>
<path d="M126.852 -392.148C523.713 -654.094 1082.7 -574.414 966.233 -125.97C1249.95 256.73 786.823 289.125 928.299 448.648C1069.78 608.171 875.01 1169.99 561.366 941.1C420.291 696.751 -117.473 -251.087 126.852 -392.148Z" fill="#405068"/>
<path d="M1675.52 888.52C1631.88 1329.96 1245.34 1687.91 988.904 1339.85C544.72 1320.26 793.665 965.823 594.858 974.467C396.05 983.111 103.531 511.68 453.872 419.148C713.908 460.678 1717.02 628.632 1675.52 888.52Z" fill="#BF92C2"/>
<path d="M884.01 -611.82C1317.43 -897.89 1927.88 -810.903 1800.67 -321.183C2110.49 96.7229 1950.52 221.115 1596.47 440.894C1242.42 660.673 833.868 417.087 679.814 150.257C525.759 -116.573 617.181 -457.766 884.01 -611.82Z" fill="#5A835A"/>
<path d="M1448.75 432.915C1790.59 207.29 2272.05 275.896 2171.72 662.139C2416.08 991.742 2289.91 1089.85 2010.67 1263.19C1731.43 1436.53 1409.2 1244.41 1287.7 1033.97C1166.2 823.517 1238.3 554.417 1448.75 432.915Z" fill="#B18888"/>
</g>
</g>
</g>
</g>
<defs>
<filter id="filter0_i_624_201" x="529.762" y="289.479" width="1110.21" height="311.645" filterUnits="userSpaceOnUse" color-interpolation-filters="sRGB">
<feFlood flood-opacity="0" result="BackgroundImageFix"/>
<feBlend mode="normal" in="SourceGraphic" in2="BackgroundImageFix" result="shape"/>
<feColorMatrix in="SourceAlpha" type="matrix" values="0 0 0 0 0 0 0 0 0 0 0 0 0 0 0 0 0 0 127 0" result="hardAlpha"/>
<feOffset dx="1356" dy="4"/>
<feGaussianBlur stdDeviation="2"/>
<feComposite in2="hardAlpha" operator="arithmetic" k2="-1" k3="1"/>
<feColorMatrix type="matrix" values="0 0 0 0 1 0 0 0 0 1 0 0 0 0 1 0 0 0 0.1 0"/>
<feBlend mode="normal" in2="shape" result="effect1_innerShadow_624_201"/>
</filter>
<filter id="filter1_i_624_201" x="147.207" y="-649.519" width="1986.66" height="2248.9" filterUnits="userSpaceOnUse" color-interpolation-filters="sRGB">
<feFlood flood-opacity="0" result="BackgroundImageFix"/>
<feBlend mode="normal" in="SourceGraphic" in2="BackgroundImageFix" result="shape"/>
<feColorMatrix in="SourceAlpha" type="matrix" values="0 0 0 0 0 0 0 0 0 0 0 0 0 0 0 0 0 0 127 0" result="hardAlpha"/>
<feOffset dx="2388" dy="4"/>
<feGaussianBlur stdDeviation="2"/>
<feComposite in2="hardAlpha" operator="arithmetic" k2="-1" k3="1"/>
<feColorMatrix type="matrix" values="0 0 0 0 0 0 0 0 0 0 0 0 0 0 0 0 0 0 0.25 0"/>
<feBlend mode="normal" in2="shape" result="effect1_innerShadow_624_201"/>
</filter>
</defs>
</svg>
