<svg xmlns="http://www.w3.org/2000/svg" width="2885" height="1490" fill="none"><rect width="2884.1" height="1489.3" fill="#171717" rx="113.4"/><path fill="#fff" d="M115.6 85.7v88H105V96.9h-.5L83 111.2v-10.9l22-14.6h10.6Zm27.7 88.7c-2.1 0-4-.8-5.5-2.3a7.4 7.4 0 0 1-2.2-5.4c0-2.2.7-4 2.2-5.5a7.4 7.4 0 0 1 5.5-2.3c2.1 0 4 .8 5.5 2.3a7.4 7.4 0 0 1 2.2 5.5c0 1.4-.3 2.6-1 3.8a8 8 0 0 1-2.8 2.9c-1.2.6-2.5 1-3.9 1Zm621.1 885.2v-4.8c0-1.5.3-3 .8-4.7a20 20 0 0 1 2.3-4.8c1-1.6 2.3-3 3.7-4l3.4 2.7a35.3 35.3 0 0 0-3 5c-.8 1.8-1.2 3.7-1.2 5.6v5h-6Zm13.8 0v-4.8c0-1.5.2-3 .7-4.7a20 20 0 0 1 2.4-4.8c1-1.6 2.2-3 3.6-4l3.5 2.7a35.4 35.4 0 0 0-3 5c-.8 1.8-1.2 3.7-1.2 5.6v5h-6Zm48-3.5a8.4 8.4 0 0 0-3.8-6.3 15 15 0 0 0-8.5-2.3c-2.4 0-4.5.5-6.3 1.2a9.7 9.7 0 0 0-4.3 3.3 7.8 7.8 0 0 0-.4 8.5c.7 1 1.6 1.9 2.7 2.6 1.1.7 2.3 1.2 3.5 1.7l3.3 1 5.6 1.5 4.8 1.6c1.8.6 3.5 1.5 5 2.7a14 14 0 0 1 4.1 4.3 14.5 14.5 0 0 1-.8 14.6 16 16 0 0 1-6.7 5.7c-3 1.4-6.6 2.1-10.8 2.1-4 0-7.3-.6-10.2-1.9a15.1 15.1 0 0 1-9.5-13.2h6.8c.2 2 1 3.8 2.1 5.2 1.3 1.3 2.8 2.3 4.7 3a19 19 0 0 0 13-.3c2-.8 3.6-2 4.8-3.5a8.3 8.3 0 0 0 1.7-5.3c0-1.8-.5-3.3-1.5-4.4a12 12 0 0 0-4-2.8l-5.4-1.9-6.8-2c-4.3-1.2-7.7-3-10.2-5.2a11.6 11.6 0 0 1-3.7-9c0-3 .8-5.8 2.5-8a15 15 0 0 1 6.7-5.4c2.9-1.3 6-2 9.6-2 3.5 0 6.6.7 9.4 2 2.8 1.2 5 3 6.6 5.1 1.6 2.2 2.4 4.7 2.5 7.4h-6.4Zm35.3 0v5.4h-21.4v-5.4h21.4Zm-15.1-9.8h6.3v39.3c0 1.8.3 3.1.8 4a4 4 0 0 0 2 1.8 11.4 11.4 0 0 0 4.4.3l1-.2 1.4 5.7a13 13 0 0 1-4.8.7c-1.8 0-3.5-.4-5.2-1.1-1.7-.8-3.1-2-4.3-3.5a10.1 10.1 0 0 1-1.6-6v-41Zm41 52c-3.8 0-7-1-9.9-2.7a18 18 0 0 1-6.5-7.5 25.1 25.1 0 0 1-2.3-11.1c0-4.3.7-8 2.3-11.3a18 18 0 0 1 6.5-7.4 18 18 0 0 1 9.8-2.7 17.6 17.6 0 0 1 16.4 10.1c1.5 3.2 2.3 7 2.3 11.3 0 4.2-.8 8-2.3 11.1a17.8 17.8 0 0 1-6.6 7.5c-2.8 1.8-6 2.6-9.8 2.6Zm0-5.8c2.8 0 5.1-.7 7-2.1 1.8-1.5 3.1-3.4 4-5.8a21 21 0 0 0 1.3-7.6c0-2.8-.4-5.3-1.3-7.7a13 13 0 0 0-4-5.8 10.8 10.8 0 0 0-7-2.2c-2.9 0-5.2.7-7 2.2a13 13 0 0 0-4 5.8 21.9 21.9 0 0 0 0 15.4c.8 2.3 2.1 4.2 4 5.7a11 11 0 0 0 7 2.1Zm28.3 20.3v-56.7h6.1v6.6h.8a61 61 0 0 1 2-2.7c.7-1.2 2-2.2 3.5-3a12 12 0 0 1 6.4-1.4 16.3 16.3 0 0 1 15.4 10c1.5 3.2 2.2 7 2.2 11.3 0 4.3-.7 8.1-2.2 11.3a16.1 16.1 0 0 1-15.3 10c-2.6 0-4.8-.4-6.4-1.3a11 11 0 0 1-3.6-3 40 40 0 0 1-2-2.9h-.6v21.8h-6.3Zm6.2-36c0 3 .5 5.8 1.4 8.2a13 13 0 0 0 4 5.6c1.8 1.3 3.9 2 6.4 2 2.7 0 4.9-.8 6.7-2.1 1.8-1.5 3.1-3.4 4-5.7 1-2.4 1.4-5.1 1.4-8 0-3-.5-5.5-1.4-7.9-.8-2.3-2.2-4.2-4-5.5-1.7-1.4-4-2.1-6.7-2.1a10.5 10.5 0 0 0-10.4 7.4 20 20 0 0 0-1.4 8Zm45.5-34.4v4.8a19.2 19.2 0 0 1-6.8 13.5l-3.4-2.7 2.9-5c.8-1.8 1.2-3.7 1.2-5.7v-4.9h6Zm13.7 0v4.8a19.2 19.2 0 0 1-6.8 13.5l-3.4-2.7c1.1-1.6 2.1-3.3 3-5 .8-1.8 1.2-3.7 1.2-5.7v-4.9h6Zm60 23-5.8 1.6c-.3-1-.8-1.9-1.5-2.8a7.8 7.8 0 0 0-2.8-2.2 11.4 11.4 0 0 0-10.9.8c-1.6 1.2-2.5 2.6-2.5 4.4 0 1.6.6 2.8 1.7 3.7 1.2 1 3 1.7 5.4 2.3l6.1 1.5a17 17 0 0 1 8.3 4.1 9.6 9.6 0 0 1 2.7 7c0 2.5-.7 4.6-2 6.4a13.6 13.6 0 0 1-5.7 4.4 20 20 0 0 1-8.4 1.6 19 19 0 0 1-10.5-2.7 12.1 12.1 0 0 1-5.2-8l6-1.5a8.4 8.4 0 0 0 3.3 5 11 11 0 0 0 6.3 1.7c3 0 5.3-.7 7-2 1.8-1.2 2.6-2.7 2.6-4.5 0-1.4-.5-2.6-1.5-3.6s-2.5-1.7-4.6-2.2l-6.9-1.6c-3.7-.9-6.5-2.3-8.3-4.2a10.1 10.1 0 0 1-2.6-7c0-2.4.6-4.5 2-6.3 1.3-1.7 3-3.1 5.4-4.2a19 19 0 0 1 7.7-1.5c4.1 0 7.3.9 9.6 2.7 2.4 1.8 4 4.1 5 7Zm28.2-9.3v5.4h-21.4v-5.4h21.4Zm-15.2-9.8h6.4v39.3c0 1.8.2 3.1.7 4a4 4 0 0 0 2 1.8 11.4 11.4 0 0 0 4.4.3l1.1-.2 1.3 5.7a13 13 0 0 1-4.7.7 14 14 0 0 1-5.3-1.1c-1.7-.8-3-2-4.2-3.5a10.1 10.1 0 0 1-1.7-6v-41Zm41 52c-3.7 0-7-1-9.8-2.7a18 18 0 0 1-6.5-7.5 25 25 0 0 1-2.4-11.1c0-4.3.8-8 2.3-11.3a18 18 0 0 1 6.6-7.4 18 18 0 0 1 9.8-2.7c3.7 0 7 .9 9.8 2.7 2.8 1.7 5 4.2 6.5 7.4a25 25 0 0 1 2.4 11.3c0 4.2-.8 8-2.4 11.1a17.8 17.8 0 0 1-6.5 7.5c-2.8 1.8-6 2.6-9.8 2.6Zm0-5.8c2.8 0 5.2-.7 7-2.1 1.8-1.5 3.2-3.4 4-5.8a22 22 0 0 0 0-15.4 13 13 0 0 0-4-5.7 10.8 10.8 0 0 0-7-2.2c-2.8 0-5.2.7-7 2.2a13 13 0 0 0-4 5.8 22.3 22.3 0 0 0 0 15.4c.8 2.3 2.2 4.2 4 5.7 1.8 1.4 4.2 2.1 7 2.1Zm28.4 20.3v-56.7h6v6.6h.8l2-2.7a9 9 0 0 1 3.6-3c1.5-1 3.7-1.4 6.3-1.4a16.3 16.3 0 0 1 15.4 10c1.5 3.2 2.3 7 2.3 11.3 0 4.3-.8 8.1-2.3 11.3a16.1 16.1 0 0 1-15.3 10c-2.6 0-4.7-.4-6.3-1.3-1.6-.9-2.8-1.9-3.7-3l-2-2.9h-.5v21.8h-6.3Zm6.2-36c0 3 .4 5.8 1.3 8.2a14 14 0 0 0 4 5.6c1.8 1.3 4 2 6.5 2 2.6 0 4.9-.8 6.6-2.1 1.8-1.5 3.2-3.4 4-5.7 1-2.4 1.4-5.1 1.4-8 0-3-.4-5.5-1.3-7.9a12 12 0 0 0-4-5.5c-1.8-1.4-4-2.1-6.7-2.1a10.5 10.5 0 0 0-10.5 7.4 22 22 0 0 0-1.3 8Zm69-11.4-5.7 1.6c-.3-1-.8-1.9-1.5-2.8a8.8 8.8 0 0 0-2.8-2.2 11.4 11.4 0 0 0-10.9.8c-1.6 1.2-2.5 2.6-2.5 4.4 0 1.6.6 2.8 1.7 3.7 1.2 1 3 1.7 5.4 2.3l6.1 1.5a17 17 0 0 1 8.3 4.1 9.6 9.6 0 0 1 2.7 7c0 2.5-.7 4.6-2 6.4a13.6 13.6 0 0 1-5.7 4.4 20 20 0 0 1-8.4 1.6 19 19 0 0 1-10.5-2.7 12.1 12.1 0 0 1-5.2-8l6-1.5a8.4 8.4 0 0 0 3.3 5 11 11 0 0 0 6.3 1.7c3 0 5.3-.7 7-2 1.8-1.2 2.6-2.7 2.6-4.5 0-1.4-.5-2.6-1.5-3.6s-2.5-1.7-4.6-2.2l-6.9-1.6c-3.7-.9-6.5-2.3-8.3-4.2a10 10 0 0 1-2.6-7c0-2.4.6-4.5 2-6.3 1.3-1.7 3-3.1 5.3-4.2a19 19 0 0 1 7.8-1.5c4.1 0 7.3.9 9.6 2.7 2.4 1.8 4 4.1 5 7Zm49.5-9.3v5.4h-21.4v-5.4h21.4Zm-15.1-9.8h6.3v39.3c0 1.8.3 3.1.8 4a4 4 0 0 0 2 1.8 11.4 11.4 0 0 0 4.4.3l1-.2 1.4 5.7a13 13 0 0 1-4.8.7c-1.8 0-3.5-.4-5.2-1.1-1.7-.8-3.1-2-4.3-3.5a10.1 10.1 0 0 1-1.6-6v-41Zm31.9 26.3v24.8h-6.4v-55h6.4v20.2h.5c1-2.1 2.4-3.8 4.4-5a14 14 0 0 1 7.7-2c2.9 0 5.3.6 7.4 1.7 2.1 1.1 3.8 2.8 5 5.1a19 19 0 0 1 1.7 8.8v26.2h-6.3v-25.8c0-3.3-.9-5.8-2.6-7.6a9 9 0 0 0-7-2.7c-2 0-4 .4-5.6 1.3a9.5 9.5 0 0 0-3.8 3.9c-1 1.6-1.4 3.7-1.4 6Zm55.6 25.6a17.5 17.5 0 0 1-17-10 25.3 25.3 0 0 1-2.2-11.1c0-4.2.7-8 2.3-11.2a17.5 17.5 0 0 1 16.3-10.3c2 0 4.2.4 6.3 1a15.9 15.9 0 0 1 9.8 10 27 27 0 0 1 1.6 9.6v2.7h-31.8v-5.5h25.3c0-2.3-.4-4.4-1.4-6.2a10.5 10.5 0 0 0-9.8-5.9 11 11 0 0 0-6.6 1.9 12.3 12.3 0 0 0-4.2 4.8 14 14 0 0 0-1.5 6.4v3.6c0 3.2.5 5.8 1.6 8 1.1 2.1 2.6 3.8 4.5 4.9a14.8 14.8 0 0 0 11.3.9 9.7 9.7 0 0 0 3.5-2.1c1-1 1.8-2.2 2.3-3.6l6.1 1.7c-.6 2.1-1.7 4-3.2 5.5a15.8 15.8 0 0 1-5.7 3.7c-2.2.8-4.7 1.2-7.5 1.2Zm60.1.1c-2.6 0-5-.5-7.1-1.4-2.1-1-3.8-2.5-5-4.4a12.2 12.2 0 0 1-2-6.8c0-2.4.5-4.3 1.4-5.8 1-1.5 2.2-2.6 3.8-3.5 1.5-.8 3.2-1.4 5.1-1.8a63 63 0 0 1 11.8-1.8c1.6-.2 2.8-.5 3.5-.9.7-.4 1-1.1 1-2.1v-.2c0-2.7-.7-4.7-2.1-6.2-1.4-1.5-3.6-2.2-6.5-2.2-3 0-5.4.6-7.1 2a11 11 0 0 0-3.7 4.2l-6-2.1a14.5 14.5 0 0 1 10.2-8.8 24.2 24.2 0 0 1 11-.4c1.7.3 3.3 1 5 1.9 1.6 1 3 2.4 4 4.4 1 2 1.6 4.5 1.6 7.8v27.2h-6.3v-5.6h-.4a12.2 12.2 0 0 1-6.2 5.5 15 15 0 0 1-6 1Zm1-5.6c2.5 0 4.6-.5 6.3-1.5a10.1 10.1 0 0 0 5.3-8.8v-5.8c-.3.4-.9.7-1.8 1a30.6 30.6 0 0 1-6.5 1l-2.7.4a24 24 0 0 0-4.6 1 8 8 0 0 0-3.4 2.2c-.9 1-1.3 2.2-1.3 3.8 0 2.2.8 3.9 2.4 5a11 11 0 0 0 6.3 1.7Zm35.8-20.1v24.8h-6.3V1056h6v6.5h.6c1-2.1 2.5-3.8 4.4-5 2-1.3 4.5-2 7.6-2 2.8 0 5.3.6 7.4 1.7a13 13 0 0 1 4.9 5.2 19 19 0 0 1 1.7 8.7v26.2h-6.3v-25.8c0-3.2-.9-5.8-2.5-7.6a9 9 0 0 0-7-2.7c-2 0-3.8.4-5.4 1.3a9.4 9.4 0 0 0-3.7 3.9c-1 1.6-1.4 3.7-1.4 6Zm37.9 24.8V1056h6.3v41.3h-6.3Zm3.2-48.1c-1.2 0-2.3-.5-3.2-1.3a4 4 0 0 1-1.3-3 4 4 0 0 1 1.3-3 4.7 4.7 0 0 1 6.4-.1 4 4 0 0 1 1.3 3 4 4 0 0 1-1.3 3.1c-.9.8-2 1.3-3.2 1.3Zm14.7 48v-41.2h6.2v6.5h.5c.8-2.2 2.2-4 4.2-5.1 1.9-1.3 4.2-1.9 6.8-1.9a11.7 11.7 0 0 1 11.1 6.9h.4a12 12 0 0 1 4.8-5 14 14 0 0 1 7.6-1.9c3.7 0 6.7 1.2 9 3.5 2.4 2.3 3.5 5.8 3.5 10.7v27.6h-6.3v-27.6c0-3-.8-5.2-2.5-6.5a9.2 9.2 0 0 0-5.9-2c-2.9 0-5.1.9-6.7 2.6a9.4 9.4 0 0 0-2.4 6.6v26.9h-6.4V1069c0-2.3-.8-4.2-2.3-5.6a8.2 8.2 0 0 0-5.9-2.2c-1.6 0-3.2.4-4.6 1.3a10 10 0 0 0-3.5 3.7c-.8 1.5-1.2 3.3-1.2 5.3v25.8h-6.4Zm77.9 1c-2.6 0-5-.5-7.2-1.4-2-1-3.8-2.5-5-4.4a12.2 12.2 0 0 1-1.9-6.8c0-2.4.5-4.3 1.4-5.8 1-1.5 2.2-2.6 3.7-3.5 1.6-.8 3.3-1.4 5.2-1.8a63 63 0 0 1 11.8-1.8c1.6-.2 2.7-.5 3.4-.9.8-.4 1.1-1.1 1.1-2.1v-.2c0-2.7-.7-4.7-2.1-6.2-1.5-1.5-3.6-2.2-6.6-2.2-3 0-5.4.6-7 2a11 11 0 0 0-3.7 4.2l-6-2.1a14.5 14.5 0 0 1 10.2-8.8 24.2 24.2 0 0 1 10.9-.4c1.7.3 3.4 1 5 1.9 1.6 1 3 2.4 4 4.4 1.1 2 1.7 4.5 1.7 7.8v27.2h-6.4v-5.6h-.3a10 10 0 0 1-2.1 2.9 13.2 13.2 0 0 1-10.1 3.6Zm1-5.6c2.4 0 4.5-.5 6.3-1.5a10.1 10.1 0 0 0 5.2-8.8v-5.8c-.2.4-.8.7-1.7 1a30.6 30.6 0 0 1-6.6 1l-2.6.4a24 24 0 0 0-4.6 1 8.1 8.1 0 0 0-3.5 2.2c-.8 1-1.3 2.2-1.3 3.8 0 2.2.8 3.9 2.5 5a11 11 0 0 0 6.2 1.7Zm47.4-36.6v5.4h-21.4v-5.4h21.4Zm-15.2-9.8h6.4v39.3c0 1.8.2 3.1.7 4a4 4 0 0 0 2 1.8 11.5 11.5 0 0 0 4.4.3l1.1-.2 1.3 5.7a13 13 0 0 1-4.7.7c-1.8 0-3.5-.4-5.3-1.1-1.7-.8-3-2-4.2-3.5a10.1 10.1 0 0 1-1.7-6v-41Zm24.7 51v-41.2h6.3v41.3h-6.3Zm3.2-48c-1.2 0-2.3-.5-3.2-1.3a4 4 0 0 1-1.3-3 4 4 0 0 1 1.3-3c1-.9 2-1.3 3.2-1.3 1.3 0 2.3.4 3.2 1.2a4 4 0 0 1 1.3 3 4 4 0 0 1-1.3 3.1c-.9.8-2 1.3-3.2 1.3Zm31.5 49c-3.7 0-7-1-9.8-2.7a18 18 0 0 1-6.6-7.5 25 25 0 0 1-2.3-11.1c0-4.3.8-8 2.3-11.3a18 18 0 0 1 6.6-7.4 18 18 0 0 1 9.8-2.7c3.7 0 7 .9 9.8 2.7 2.8 1.7 5 4.2 6.5 7.4a25 25 0 0 1 2.4 11.3c0 4.2-.8 8-2.4 11.1a17.8 17.8 0 0 1-6.5 7.5c-2.8 1.8-6 2.6-9.8 2.6Zm0-5.8c2.8 0 5.1-.7 7-2.1 1.8-1.5 3.2-3.4 4-5.8a21 21 0 0 0 1.3-7.6 22 22 0 0 0-1.3-7.7 13 13 0 0 0-4-5.8 10.8 10.8 0 0 0-7-2.2c-2.8 0-5.2.7-7 2.2a13 13 0 0 0-4 5.8 22.3 22.3 0 0 0 0 15.4c.8 2.3 2.2 4.2 4 5.7 1.8 1.4 4.2 2.1 7 2.1Zm34.7-20v24.9h-6.3V1056h6v6.5h.6c1-2.1 2.4-3.8 4.4-5 2-1.3 4.5-2 7.6-2 2.8 0 5.3.6 7.4 1.7 2 1.2 3.7 2.9 4.8 5.2 1.2 2.3 1.8 5.2 1.8 8.7v26.2h-6.3v-25.8c0-3.2-.9-5.8-2.6-7.6a9 9 0 0 0-6.9-2.7c-2 0-3.8.4-5.4 1.3a9.5 9.5 0 0 0-3.8 3.9c-.9 1.6-1.3 3.7-1.3 6Zm68.5 24.9-12.6-41.3h6.7l8.9 31.6h.4l8.8-31.6h6.8l8.7 31.5h.4l9-31.5h6.6l-12.6 41.3h-6.2l-9-31.7h-.7l-9 31.7h-6.2Zm58.4-24.8v24.8h-6.3v-55h6.3v20.2h.5c1-2.1 2.4-3.8 4.4-5a14 14 0 0 1 7.8-2c2.8 0 5.2.6 7.4 1.7a12 12 0 0 1 4.9 5.1 19 19 0 0 1 1.7 8.8v26.2h-6.3v-25.8c0-3.3-.8-5.8-2.6-7.6a9 9 0 0 0-7-2.7c-2 0-3.9.4-5.5 1.3a10 10 0 0 0-4 3.9c-.8 1.6-1.3 3.7-1.3 6Zm55.6 25.6c-4 0-7.4-.8-10.3-2.6-2.8-1.8-5-4.2-6.6-7.4a25.3 25.3 0 0 1-2.3-11.1c0-4.2.8-8 2.3-11.2 1.6-3.2 3.7-5.8 6.5-7.6a19.4 19.4 0 0 1 16.1-1.7 15.9 15.9 0 0 1 9.9 10 27 27 0 0 1 1.5 9.6v2.7h-31.8v-5.5h25.3c0-2.3-.4-4.4-1.3-6.2a10.6 10.6 0 0 0-10-5.9 11 11 0 0 0-6.5 1.9 12.3 12.3 0 0 0-4.2 4.8 14 14 0 0 0-1.5 6.4v3.6c0 3.2.6 5.8 1.6 8 1.1 2.1 2.6 3.8 4.6 4.9a14.7 14.7 0 0 0 11.2.9 9.7 9.7 0 0 0 3.5-2.1c1-1 1.8-2.2 2.3-3.6l6.1 1.7c-.6 2.1-1.7 4-3.2 5.5a15.9 15.9 0 0 1-5.6 3.7 21 21 0 0 1-7.6 1.2Zm26.7-.8V1056h6.1v6.3h.5a10 10 0 0 1 4-5 12 12 0 0 1 6.7-1.9 63 63 0 0 1 3.3.1v6.5a23.2 23.2 0 0 0-3.8-.5c-2 0-3.8.4-5.4 1.3a10 10 0 0 0-3.7 3.4 9.3 9.3 0 0 0-1.3 5v26h-6.4Zm44.2.8c-4 0-7.4-.8-10.3-2.6-2.9-1.8-5-4.2-6.6-7.4a25.3 25.3 0 0 1-2.3-11.1c0-4.2.7-8 2.3-11.2a17.5 17.5 0 0 1 16.3-10.3c2 0 4.2.4 6.3 1a15.8 15.8 0 0 1 9.8 10 27 27 0 0 1 1.6 9.6v2.7h-31.8v-5.5h25.3c0-2.3-.5-4.4-1.4-6.2a10.6 10.6 0 0 0-9.9-5.9c-2.5 0-4.7.6-6.5 1.9a12.3 12.3 0 0 0-4.2 4.8 14 14 0 0 0-1.5 6.4v3.6c0 3.2.5 5.8 1.6 8 1.1 2.1 2.6 3.8 4.6 4.9 1.9 1 4.1 1.6 6.7 1.6 1.6 0 3.1-.2 4.5-.7a9.5 9.5 0 0 0 5.8-5.7l6.1 1.7c-.6 2.1-1.7 4-3.2 5.5a15.8 15.8 0 0 1-5.7 3.7c-2.2.8-4.7 1.2-7.5 1.2Zm48-.8V1056h6.3v41.3h-6.3Zm3.2-48.1c-1.3 0-2.3-.5-3.2-1.3a4 4 0 0 1-1.3-3 4 4 0 0 1 1.3-3c.9-.9 2-1.3 3.2-1.3 1.2 0 2.3.4 3.2 1.2a4 4 0 0 1 1.3 3 4 4 0 0 1-1.3 3.1 5 5 0 0 1-3.2 1.3Zm32.6 6.8v5.4h-21.3v-5.4h21.3Zm-15.1-9.8h6.3v39.3c0 1.8.3 3.1.8 4a4 4 0 0 0 2 1.8 11.3 11.3 0 0 0 4.4.3l1.1-.2 1.3 5.7a13 13 0 0 1-4.7.7 14 14 0 0 1-5.3-1.1 11 11 0 0 1-4.2-3.5 10.1 10.1 0 0 1-1.7-6v-41Zm46 51v-41.2h6.3v41.3h-6.4Zm3.2-48c-1.3 0-2.4-.5-3.3-1.3a4 4 0 0 1-1.3-3 4 4 0 0 1 1.3-3c1-.9 2-1.3 3.3-1.3 1.2 0 2.2.4 3.1 1.2a4 4 0 0 1 1.4 3 4 4 0 0 1-1.4 3.1c-.9.8-2 1.3-3.2 1.3Zm43.9 16-5.7 1.7c-.4-1-.9-1.9-1.6-2.8a7.8 7.8 0 0 0-2.8-2.2 10 10 0 0 0-4.5-1c-2.5 0-4.7.7-6.3 1.8-1.7 1.2-2.5 2.6-2.5 4.4 0 1.6.5 2.8 1.7 3.7 1.1 1 3 1.7 5.3 2.3l6.2 1.5a17 17 0 0 1 8.2 4.1 9.6 9.6 0 0 1 2.7 7c0 2.5-.7 4.6-2 6.4a13.6 13.6 0 0 1-5.7 4.4 20 20 0 0 1-8.4 1.6c-4.2 0-7.7-.9-10.4-2.7a12.1 12.1 0 0 1-5.3-8l6-1.5a8.3 8.3 0 0 0 3.3 5 11 11 0 0 0 6.3 1.7c3 0 5.3-.7 7-2 1.8-1.2 2.7-2.7 2.7-4.5 0-1.4-.5-2.6-1.5-3.6s-2.6-1.7-4.6-2.2l-7-1.6c-3.7-.9-6.5-2.3-8.2-4.2a10.1 10.1 0 0 1-2.7-7c0-2.4.7-4.5 2-6.3 1.3-1.7 3.1-3.1 5.4-4.2a19 19 0 0 1 7.8-1.5c4 0 7.3.9 9.6 2.7 2.3 1.8 4 4.1 5 7Zm14.9 32.5c-1.3 0-2.5-.5-3.4-1.4-1-1-1.4-2.1-1.4-3.4 0-1.3.4-2.5 1.4-3.4a4.6 4.6 0 0 1 6.8 0c1 1 1.4 2 1.4 3.4 0 .8-.2 1.7-.7 2.4a4.7 4.7 0 0 1-4.2 2.4Zm-1582.2 41.5v-5.9h41.3v5.9h-17.3v49h-6.7v-49h-17.3Zm57 24.3v24.8h-6.3v-55h6.3v20.2h.6c1-2.1 2.4-3.8 4.3-5a14 14 0 0 1 7.8-2c2.8 0 5.3.6 7.4 1.7a12 12 0 0 1 4.9 5.1 19 19 0 0 1 1.8 8.8v26.2h-6.4v-25.8c0-3.3-.8-5.8-2.5-7.6a9 9 0 0 0-7-2.7c-2.1 0-4 .4-5.6 1.3-1.6.9-3 2.2-3.9 3.9-1 1.6-1.4 3.7-1.4 6Zm38.4 24.8V1147h6.3v41.3h-6.3Zm3.2-48.1c-1.3 0-2.3-.5-3.2-1.3a4 4 0 0 1-1.3-3 4 4 0 0 1 1.3-3c.9-.9 2-1.3 3.2-1.3 1.2 0 2.3.4 3.1 1.2a4 4 0 0 1 1.4 3 4 4 0 0 1-1.4 3.1c-.8.8-1.9 1.3-3.1 1.3Zm43.9 16-5.7 1.7c-.3-1-.9-1.9-1.6-2.8a7 7 0 0 0-2.8-2.2 11.4 11.4 0 0 0-10.8.8c-1.7 1.2-2.5 2.6-2.5 4.4 0 1.6.6 2.8 1.7 3.7 1.2 1 3 1.7 5.4 2.3l6.1 1.5a17 17 0 0 1 8.2 4.1 9.6 9.6 0 0 1 2.8 7c0 2.5-.7 4.6-2 6.4a13.6 13.6 0 0 1-5.7 4.4 20.2 20.2 0 0 1-8.5 1.6c-4.2 0-7.6-.9-10.4-2.7a12.1 12.1 0 0 1-5.2-8l6-1.5a8.3 8.3 0 0 0 3.2 5 11 11 0 0 0 6.3 1.7c3 0 5.3-.7 7-2 1.8-1.2 2.7-2.7 2.7-4.5 0-1.4-.5-2.6-1.5-3.6s-2.5-1.7-4.6-2.2l-6.9-1.6c-3.8-.9-6.5-2.3-8.3-4.2a10 10 0 0 1-2.6-7c0-2.4.6-4.5 2-6.3 1.2-1.7 3-3.1 5.3-4.2a19 19 0 0 1 7.8-1.5c4 0 7.3.9 9.6 2.7 2.4 1.8 4 4.1 5 7Zm48.3 33c-3.7 0-7-1-9.8-2.7a18 18 0 0 1-6.5-7.5 25.1 25.1 0 0 1-2.4-11.1c0-4.3.8-8 2.4-11.3a18 18 0 0 1 6.5-7.4 18 18 0 0 1 9.8-2.7c3.7 0 7 .9 9.8 2.7 2.8 1.7 5 4.2 6.5 7.4a25 25 0 0 1 2.4 11.3c0 4.2-.8 8-2.4 11.1a17.8 17.8 0 0 1-6.5 7.5c-2.8 1.8-6 2.6-9.8 2.6Zm0-5.8c2.8 0 5.2-.7 7-2.1 1.8-1.5 3.2-3.4 4-5.8a22.1 22.1 0 0 0 0-15.4 13 13 0 0 0-4-5.7 10.8 10.8 0 0 0-7-2.2c-2.8 0-5.1.7-7 2.2a13 13 0 0 0-4 5.8c-.9 2.4-1.3 5-1.3 7.7s.4 5.3 1.3 7.7c.9 2.3 2.2 4.2 4 5.7 1.9 1.4 4.2 2.1 7 2.1Zm34.7-20v24.9h-6.3V1147h6v6.5h.6c1-2.1 2.5-3.8 4.4-5 2-1.3 4.5-2 7.7-2 2.7 0 5.2.6 7.3 1.7a13 13 0 0 1 4.9 5.2c1.1 2.3 1.7 5.2 1.7 8.7v26.2H772v-25.8c0-3.2-.9-5.8-2.5-7.6a9 9 0 0 0-7-2.7c-2 0-3.8.4-5.4 1.3a9.4 9.4 0 0 0-3.7 3.9c-1 1.6-1.4 3.7-1.4 6Zm44.2-30.1v55h-6.3v-55h6.3Zm15.7 70.4a14.6 14.6 0 0 1-4.6-.7l1.6-5.6c1.5.4 2.9.5 4 .4a5 5 0 0 0 3.2-1.6c1-.9 1.8-2.4 2.6-4.5l1.2-3.2-15.3-41.5h6.9l11.4 32.9h.4l11.4-32.9h6.8l-17.5 47.3c-.7 2.1-1.7 3.9-2.9 5.3a10.9 10.9 0 0 1-4 3.1c-1.6.7-3.3 1-5.2 1Zm77.2-56.7v5.4h-21.4v-5.4H889Zm-15.1-9.8h6.3v39.3c0 1.8.3 3.1.8 4a4 4 0 0 0 2 1.8 11.4 11.4 0 0 0 4.4.3l1-.2 1.4 5.7a13 13 0 0 1-4.8.7c-1.8 0-3.5-.4-5.2-1.1-1.7-.8-3.1-2-4.3-3.5a10.1 10.1 0 0 1-1.6-6v-41Zm36.8 52c-2.6 0-5-.5-7.1-1.4-2.2-1-3.9-2.5-5.1-4.4a12.2 12.2 0 0 1-1.9-6.8c0-2.4.5-4.3 1.4-5.8 1-1.5 2.2-2.6 3.7-3.5 1.6-.8 3.3-1.4 5.2-1.8a62.4 62.4 0 0 1 11.8-1.8c1.6-.2 2.7-.5 3.4-.9.8-.4 1.1-1.1 1.1-2.1v-.2c0-2.7-.7-4.7-2.1-6.2-1.5-1.5-3.6-2.2-6.6-2.2-3 0-5.4.6-7 2a11 11 0 0 0-3.7 4.2l-6-2.1a14.4 14.4 0 0 1 10.2-8.8 24.2 24.2 0 0 1 10.9-.4c1.7.3 3.4 1 5 1.9 1.6 1 3 2.4 4 4.4 1.1 2 1.7 4.5 1.7 7.8v27.2h-6.4v-5.6h-.3a10 10 0 0 1-2.1 2.9 13.2 13.2 0 0 1-10.1 3.6Zm1-5.6c2.4 0 4.6-.5 6.3-1.5a10.1 10.1 0 0 0 5.2-8.8v-5.8c-.2.4-.8.7-1.7 1a30.9 30.9 0 0 1-6.6 1l-2.6.4a24 24 0 0 0-4.6 1 8 8 0 0 0-3.5 2.2c-.8 1-1.3 2.2-1.3 3.8 0 2.2.9 3.9 2.5 5a11 11 0 0 0 6.2 1.7Zm35.3-10.4v-7.8h1.2l18-18.4h7.9l-19.2 19.5h-.6l-7.3 6.8Zm-5.9 15v-54.9h6.4v55H941Zm26.2 0-16-20.3 4.4-4.4 19.7 24.8h-8Zm30.6 1a17.6 17.6 0 0 1-17-10 25.3 25.3 0 0 1-2.3-11.2c0-4.2.8-8 2.3-11.2 1.6-3.2 3.8-5.8 6.5-7.6a19.5 19.5 0 0 1 16.1-1.7 15.9 15.9 0 0 1 9.9 10 27 27 0 0 1 1.5 9.6v2.7h-31.8v-5.5h25.4c0-2.3-.5-4.4-1.4-6.2a10.6 10.6 0 0 0-9.9-5.9c-2.5 0-4.7.6-6.5 1.9a12.3 12.3 0 0 0-4.3 4.8 14 14 0 0 0-1.4 6.4v3.6c0 3.2.5 5.8 1.6 8 1 2.1 2.6 3.8 4.5 4.9a14.8 14.8 0 0 0 11.3.9 9.7 9.7 0 0 0 3.5-2.1c1-1 1.7-2.2 2.3-3.6l6 1.7c-.6 2.1-1.7 4-3.2 5.5a15.8 15.8 0 0 1-5.6 3.7c-2.2.8-4.8 1.2-7.5 1.2Zm55.9-33-5.7 1.7a11 11 0 0 0-1.6-2.8 7.8 7.8 0 0 0-2.8-2.2 10 10 0 0 0-4.5-1 11 11 0 0 0-6.3 1.8c-1.7 1.2-2.5 2.6-2.5 4.4 0 1.6.5 2.8 1.7 3.7 1.1 1 3 1.7 5.4 2.3l6 1.5a17 17 0 0 1 8.3 4.1 9.6 9.6 0 0 1 2.7 7c0 2.5-.7 4.6-2 6.4a13.6 13.6 0 0 1-5.7 4.4 20 20 0 0 1-8.4 1.6c-4.2 0-7.7-.9-10.4-2.7a12.1 12.1 0 0 1-5.3-8l6-1.5a8.4 8.4 0 0 0 3.3 5 11 11 0 0 0 6.3 1.7c3 0 5.3-.7 7-2 1.8-1.2 2.7-2.7 2.7-4.5 0-1.4-.5-2.6-1.5-3.6s-2.6-1.7-4.7-2.2l-6.8-1.6c-3.8-.9-6.6-2.3-8.3-4.2a10 10 0 0 1-2.7-7c0-2.4.7-4.5 2-6.3 1.3-1.7 3.1-3.1 5.4-4.2a19 19 0 0 1 7.8-1.5c4 0 7.3.9 9.6 2.7 2.3 1.8 4 4.1 5 7Zm43.7 33c-2.7 0-5-.5-7.2-1.4-2-1-3.8-2.5-5-4.4a12.2 12.2 0 0 1-2-6.8c0-2.4.6-4.3 1.5-5.8 1-1.5 2.2-2.6 3.7-3.5 1.6-.8 3.3-1.4 5.2-1.8a63 63 0 0 1 11.8-1.8c1.6-.2 2.7-.5 3.4-.9.8-.4 1.1-1.1 1.1-2.1v-.2c0-2.7-.7-4.7-2.2-6.2-1.4-1.5-3.6-2.2-6.5-2.2-3 0-5.4.6-7 2a11 11 0 0 0-3.7 4.2l-6-2.1a14 14 0 0 1 4.3-5.9c1.8-1.4 3.7-2.4 5.9-3a24.2 24.2 0 0 1 10.9-.3c1.7.3 3.4 1 5 1.9 1.6 1 3 2.4 4 4.4 1.1 2 1.7 4.5 1.7 7.8v27.2h-6.4v-5.6h-.3a12.2 12.2 0 0 1-6.2 5.5 15 15 0 0 1-6 1Zm1-5.6c2.4 0 4.5-.5 6.3-1.5a10.1 10.1 0 0 0 5.2-8.8v-5.8c-.3.4-.8.7-1.8 1a31.2 31.2 0 0 1-6.5 1l-2.6.4a24 24 0 0 0-4.6 1 8.1 8.1 0 0 0-3.5 2.2c-.8 1-1.3 2.2-1.3 3.8 0 2.2.8 3.9 2.5 5a11 11 0 0 0 6.2 1.7Zm47.8-36.6v5.4H1124v-5.4h22.2Zm-15.6 41.3v-47c0-2.3.6-4.3 1.7-5.9a10 10 0 0 1 4.3-3.5 15.8 15.8 0 0 1 11.6-.1l-1.8 5.5-1.3-.4c-.6-.2-1.3-.3-2.2-.3-2.1 0-3.7.6-4.6 1.6-.9 1-1.4 2.6-1.4 4.7v45.4h-6.3Zm42.8-41.3v5.4h-22.2v-5.4h22.2Zm-15.5 41.3v-47c0-2.3.5-4.3 1.6-5.9 1.1-1.5 2.6-2.7 4.3-3.5a16 16 0 0 1 11.6-.1l-1.8 5.5-1.3-.4c-.6-.2-1.3-.3-2.2-.3-2.1 0-3.6.6-4.5 1.6-1 1-1.4 2.6-1.4 4.7v45.4h-6.3Zm40 .8c-4 0-7.4-.8-10.3-2.6-2.9-1.8-5-4.2-6.6-7.4a25.4 25.4 0 0 1-2.3-11.1c0-4.2.8-8 2.3-11.2a17.5 17.5 0 0 1 16.3-10.3c2.1 0 4.2.4 6.3 1a15.8 15.8 0 0 1 9.8 10 27 27 0 0 1 1.6 9.6v2.7h-31.8v-5.5h25.3c0-2.3-.4-4.4-1.4-6.2a10.6 10.6 0 0 0-9.9-5.9 11 11 0 0 0-6.5 1.9 12.3 12.3 0 0 0-4.2 4.8 14 14 0 0 0-1.5 6.4v3.6c0 3.2.6 5.8 1.6 8 1.1 2.1 2.6 3.8 4.6 4.9 1.9 1 4.1 1.6 6.7 1.6 1.7 0 3.2-.2 4.5-.7a9.5 9.5 0 0 0 5.8-5.7l6.1 1.7c-.6 2.1-1.7 4-3.2 5.5a15.8 15.8 0 0 1-5.7 3.7c-2.2.8-4.7 1.2-7.5 1.2Zm43.5 0a18 18 0 0 1-10-2.7c-2.8-1.8-5-4.3-6.5-7.5a25.6 25.6 0 0 1-2.2-11c0-4.2.8-8 2.3-11.1a17.5 17.5 0 0 1 16.3-10.3c2.9 0 5.5.5 7.8 1.6 2.3 1 4.2 2.6 5.7 4.5a14 14 0 0 1 2.8 6.8h-6.4a9.6 9.6 0 0 0-9.9-7.2 11 11 0 0 0-6.4 2c-1.9 1.2-3.3 3-4.4 5.3a20 20 0 0 0-1.5 8.2c0 3.2.5 6 1.5 8.3 1 2.4 2.5 4.2 4.3 5.5a11.2 11.2 0 0 0 11.1 1 9.4 9.4 0 0 0 5.3-6.3h6.4a14.7 14.7 0 0 1-8.2 11.3 20 20 0 0 1-8 1.6Zm43.4-42v5.3h-21.4v-5.4h21.4Zm-15.2-10h6.4v39.4c0 1.8.2 3.1.8 4a4 4 0 0 0 2 1.8c.8.3 1.7.4 2.6.4l1.8-.1 1-.2 1.3 5.7a13 13 0 0 1-4.7.7c-1.8 0-3.5-.4-5.3-1.1-1.7-.8-3-2-4.2-3.5a10.1 10.1 0 0 1-1.7-6v-41Zm55.3 51.2-12.6-41.3h6.7l9 31.6h.4l8.8-31.6h6.7l8.7 31.5h.4l9-31.5h6.6l-12.5 41.3h-6.3l-9-31.7h-.6l-9 31.7h-6.3Zm58.4-24.8v24.8h-6.3v-55h6.3v20.2h.6c1-2.1 2.4-3.8 4.3-5 2-1.4 4.6-2 7.8-2 2.8 0 5.3.6 7.4 1.7a12 12 0 0 1 4.9 5.1c1.2 2.3 1.8 5.2 1.8 8.8v26.2h-6.4v-25.8c0-3.3-.8-5.8-2.5-7.6a9 9 0 0 0-7-2.7c-2.1 0-4 .4-5.6 1.3-1.6.9-3 2.2-3.9 3.9-1 1.6-1.4 3.7-1.4 6Zm55.6 25.6a17.8 17.8 0 0 1-16.9-10 25.3 25.3 0 0 1-2.3-11.1c0-4.2.8-8 2.3-11.2 1.6-3.2 3.8-5.8 6.5-7.6a19.4 19.4 0 0 1 16.1-1.7 15.7 15.7 0 0 1 9.9 10 27 27 0 0 1 1.5 9.6v2.7h-31.8v-5.5h25.4c0-2.3-.5-4.4-1.4-6.2a10.6 10.6 0 0 0-9.9-5.9c-2.5 0-4.7.6-6.6 1.9a12.3 12.3 0 0 0-4.2 4.8 14 14 0 0 0-1.4 6.4v3.6c0 3.2.5 5.8 1.6 8 1 2.1 2.6 3.8 4.5 4.9a14.8 14.8 0 0 0 11.3.9 9.5 9.5 0 0 0 5.8-5.7l6 1.7c-.6 2.1-1.7 4-3.2 5.5a15.8 15.8 0 0 1-5.6 3.7c-2.3.8-4.8 1.2-7.5 1.2Zm33-25.6v24.8h-6.2V1147h6v6.5h.6c1-2.1 2.4-3.8 4.4-5 2-1.3 4.5-2 7.6-2 2.8 0 5.3.6 7.4 1.7a13 13 0 0 1 4.9 5.2c1.1 2.3 1.7 5.2 1.7 8.7v26.2h-6.3v-25.8c0-3.2-.9-5.8-2.5-7.6a9 9 0 0 0-7-2.7c-2 0-3.8.4-5.4 1.3a9.5 9.5 0 0 0-3.7 3.9c-1 1.6-1.4 3.7-1.4 6Zm77.2-16.5v5.4h-21.4v-5.4h21.4Zm-15.2-9.8h6.4v39.3c0 1.8.2 3.1.8 4a4 4 0 0 0 2 1.8c.8.3 1.7.4 2.6.4l1.8-.1 1-.2 1.3 5.7a13 13 0 0 1-4.7.7c-1.8 0-3.5-.4-5.3-1.1-1.7-.8-3-2-4.2-3.5a10.1 10.1 0 0 1-1.7-6v-41Zm32 26.3v24.8h-6.4v-55h6.3v20.2h.6c1-2.1 2.4-3.8 4.3-5a14 14 0 0 1 7.8-2c2.8 0 5.3.6 7.4 1.7 2.1 1.1 3.7 2.8 4.9 5.1a19 19 0 0 1 1.8 8.8v26.2h-6.4v-25.8c0-3.3-.8-5.8-2.5-7.6a9 9 0 0 0-7-2.7c-2.1 0-4 .4-5.6 1.3-1.6.9-3 2.2-3.9 3.9-.9 1.6-1.4 3.7-1.4 6Zm55.5 25.6a17.5 17.5 0 0 1-17-10 25.3 25.3 0 0 1-2.2-11.1c0-4.2.8-8 2.3-11.2 1.6-3.2 3.8-5.8 6.5-7.6a19.5 19.5 0 0 1 16.1-1.7 15.9 15.9 0 0 1 9.9 10 27 27 0 0 1 1.5 9.6v2.7h-31.8v-5.5h25.4c0-2.3-.5-4.4-1.4-6.2a10.5 10.5 0 0 0-9.9-5.9c-2.5 0-4.7.6-6.6 1.9a12.3 12.3 0 0 0-4.2 4.8 14 14 0 0 0-1.4 6.4v3.6c0 3.2.5 5.8 1.6 8 1 2.1 2.6 3.8 4.5 4.9a14.8 14.8 0 0 0 11.3.9 9.7 9.7 0 0 0 3.5-2.1c1-1 1.7-2.2 2.3-3.6l6 1.7c-.6 2.1-1.7 4-3.2 5.5a15.8 15.8 0 0 1-5.6 3.7c-2.2.8-4.8 1.2-7.5 1.2Zm64.8 0c-3.8 0-7-.9-9.8-2.6a18 18 0 0 1-6.6-7.5 25 25 0 0 1-2.3-11.1c0-4.3.8-8 2.3-11.3a18 18 0 0 1 6.6-7.4 18 18 0 0 1 9.8-2.7c3.7 0 7 .9 9.8 2.7 2.8 1.7 5 4.2 6.5 7.4a25 25 0 0 1 2.4 11.3c0 4.2-.8 8-2.4 11.1a17.8 17.8 0 0 1-6.5 7.5 17.7 17.7 0 0 1-9.8 2.6Zm0-5.7c2.8 0 5.1-.7 7-2.1 1.8-1.5 3.1-3.4 4-5.8a21 21 0 0 0 1.3-7.6 22 22 0 0 0-1.3-7.7 13 13 0 0 0-4-5.8 10.8 10.8 0 0 0-7-2.2c-2.8 0-5.2.7-7 2.2a13 13 0 0 0-4 5.8 22.3 22.3 0 0 0 0 15.4c.8 2.3 2.2 4.2 4 5.7 1.8 1.4 4.2 2.1 7 2.1Zm29.2 4.9v-55h6.3v20.3h.6c.4-.7 1-1.6 1.9-2.7a9 9 0 0 1 3.6-3 12 12 0 0 1 6.4-1.4 16.3 16.3 0 0 1 15.4 10c1.5 3.2 2.2 7 2.2 11.3 0 4.3-.8 8.1-2.2 11.3a16.1 16.1 0 0 1-15.3 10 13 13 0 0 1-6.4-1.3c-1.6-.9-2.8-1.9-3.7-3l-2-2.9h-.7v6.4h-6.1Zm6.2-20.6c0 3 .5 5.8 1.4 8.2.9 2.4 2.2 4.2 4 5.6 1.7 1.3 3.9 2 6.4 2 2.7 0 4.9-.8 6.7-2.1 1.8-1.5 3.1-3.4 4-5.7a22.8 22.8 0 0 0 0-15.9 12 12 0 0 0-4-5.5c-1.8-1.4-4-2.1-6.7-2.1a11 11 0 0 0-6.5 2c-1.7 1.3-3 3-4 5.4-.8 2.3-1.3 5-1.3 8Zm39.9-20.7h6.3v44.3c0 2.5-.4 4.7-1.3 6.6a9.5 9.5 0 0 1-4 4.3c-1.6 1-3.8 1.5-6.5 1.5h-1.3v-5.9h1.2c2 0 3.3-.5 4.3-1.7a7.6 7.6 0 0 0 1.3-4.8V1147Zm3.1-6.8c-1.2 0-2.3-.5-3.2-1.3a4 4 0 0 1-1.3-3 4 4 0 0 1 1.3-3c.9-.9 2-1.3 3.2-1.3 1.2 0 2.3.4 3.2 1.2a4 4 0 0 1 1.3 3 4 4 0 0 1-1.3 3.1 5 5 0 0 1-3.2 1.3Zm32.1 49c-4 0-7.4-1-10.3-2.7-2.8-1.8-5-4.2-6.6-7.4a25.4 25.4 0 0 1-2.3-11.1c0-4.2.8-8 2.3-11.2 1.6-3.2 3.7-5.8 6.5-7.6a19.5 19.5 0 0 1 16.1-1.7 15.8 15.8 0 0 1 9.9 10 27 27 0 0 1 1.5 9.6v2.7H1782v-5.5h25.4c0-2.3-.5-4.4-1.5-6.2a10.6 10.6 0 0 0-9.8-5.9c-2.5 0-4.7.6-6.6 1.9a12.3 12.3 0 0 0-4.2 4.8 14 14 0 0 0-1.5 6.4v3.6c0 3.2.6 5.8 1.6 8 1.1 2.1 2.7 3.8 4.6 4.9a14.7 14.7 0 0 0 11.2.9 9.5 9.5 0 0 0 5.8-5.7l6.2 1.7a14 14 0 0 1-3.3 5.5 15.8 15.8 0 0 1-5.6 3.7c-2.3.8-4.8 1.2-7.6 1.2Zm43.5 0a17.6 17.6 0 0 1-16.5-10.3 25.6 25.6 0 0 1-2.2-11c0-4.2.8-8 2.3-11.1 1.6-3.2 3.7-5.8 6.5-7.6 2.8-1.8 6-2.7 9.8-2.7 2.9 0 5.5.5 7.8 1.6 2.3 1 4.3 2.6 5.7 4.5a14 14 0 0 1 2.8 6.8h-6.3a9.6 9.6 0 0 0-9.9-7.2 11 11 0 0 0-6.5 2c-1.9 1.2-3.3 3-4.3 5.3a20 20 0 0 0-1.6 8.2c0 3.2.5 6 1.5 8.3 1 2.4 2.5 4.2 4.3 5.5a11.2 11.2 0 0 0 11.1 1 9.4 9.4 0 0 0 5.4-6.3h6.3a14.7 14.7 0 0 1-8.2 11.3 20 20 0 0 1-8 1.6Zm43.4-42.2v5.4h-21.4v-5.4h21.4Zm-15.2-9.8h6.4v39.3c0 1.8.3 3.1.8 4a4 4 0 0 0 2 1.8 11.3 11.3 0 0 0 4.4.3l1-.2 1.4 5.7a13 13 0 0 1-4.8.7c-1.8 0-3.5-.4-5.2-1.1-1.7-.8-3.2-2-4.3-3.5a10.1 10.1 0 0 1-1.7-6v-41Zm46 51v-41.2h6.3v41.3h-6.3Zm3.2-48c-1.2 0-2.3-.5-3.2-1.3a4 4 0 0 1-1.3-3 4 4 0 0 1 1.3-3 4.7 4.7 0 0 1 6.4-.1 4 4 0 0 1 1.3 3 4 4 0 0 1-1.3 3.1c-.9.8-2 1.3-3.2 1.3Zm44 16-5.8 1.7c-.3-1-.8-1.9-1.5-2.8a8.8 8.8 0 0 0-2.8-2.2 11.4 11.4 0 0 0-10.9.8c-1.6 1.2-2.5 2.6-2.5 4.4 0 1.6.6 2.8 1.7 3.7 1.2 1 3 1.7 5.4 2.3l6.1 1.5a17 17 0 0 1 8.3 4.1 9.6 9.6 0 0 1 2.7 7c0 2.5-.7 4.6-2 6.4a13.6 13.6 0 0 1-5.7 4.4 20 20 0 0 1-8.4 1.6 19 19 0 0 1-10.5-2.7 12.1 12.1 0 0 1-5.2-8l6-1.5a8.4 8.4 0 0 0 3.3 5 11 11 0 0 0 6.3 1.7c3 0 5.3-.7 7-2 1.8-1.2 2.6-2.7 2.6-4.5 0-1.4-.5-2.6-1.5-3.6s-2.5-1.7-4.6-2.2l-6.9-1.6c-3.7-.9-6.5-2.3-8.3-4.2a10.1 10.1 0 0 1-2.6-7c0-2.4.6-4.5 2-6.3 1.3-1.7 3-3.1 5.3-4.2a19 19 0 0 1 7.8-1.5c4.1 0 7.3.9 9.6 2.7 2.4 1.8 4 4.1 5 7Zm43.6 33c-2.6 0-5-.5-7-1.4-2.2-1-4-2.5-5.2-4.4a12.2 12.2 0 0 1-1.8-6.8 9.6 9.6 0 0 1 5.1-9.3c1.5-.8 3.3-1.4 5.1-1.8a62 62 0 0 1 11.8-1.8c1.6-.2 2.8-.5 3.5-.9.7-.4 1-1.1 1-2.1v-.2c0-2.7-.6-4.7-2-6.2-1.5-1.5-3.7-2.2-6.6-2.2-3 0-5.4.6-7.1 2-1.7 1.3-3 2.7-3.6 4.2l-6-2.1c1-2.5 2.4-4.5 4.2-5.9a16 16 0 0 1 6-3 24.2 24.2 0 0 1 10.8-.3c1.8.3 3.5 1 5 1.9 1.7 1 3 2.4 4.1 4.4 1 2 1.6 4.5 1.6 7.8v27.2h-6.3v-5.6h-.3a12.4 12.4 0 0 1-6.1 5.5c-1.8.7-3.8 1-6.2 1Zm1-5.6c2.5 0 4.6-.5 6.3-1.5a10 10 0 0 0 5.3-8.8v-5.8c-.3.4-.9.7-1.8 1a30.6 30.6 0 0 1-6.5 1l-2.7.4a31 31 0 0 0-4.6 1 8.1 8.1 0 0 0-3.4 2.2c-.9 1-1.3 2.2-1.3 3.8 0 2.2.8 3.9 2.4 5a11 11 0 0 0 6.3 1.7Zm35.8-20.1v24.8h-6.3V1147h6.1v6.5h.5c1-2.1 2.5-3.8 4.4-5 2-1.3 4.6-2 7.7-2 2.8 0 5.2.6 7.3 1.7a13 13 0 0 1 4.9 5.2c1.2 2.3 1.7 5.2 1.7 8.7v26.2h-6.3v-25.8c0-3.2-.8-5.8-2.5-7.6a9 9 0 0 0-7-2.7c-2 0-3.8.4-5.4 1.3a9.5 9.5 0 0 0-3.7 3.9c-1 1.6-1.4 3.7-1.4 6Zm38 24.8V1147h6.2v41.3h-6.3Zm3.1-48.1c-1.2 0-2.3-.5-3.2-1.3a4 4 0 0 1-1.3-3 4 4 0 0 1 1.3-3c1-.9 2-1.3 3.2-1.3 1.3 0 2.3.4 3.2 1.2a4 4 0 0 1 1.3 3 4 4 0 0 1-1.3 3.1c-.9.8-2 1.3-3.2 1.3Zm14.8 48v-41.2h6v6.5h.6c.9-2.2 2.3-4 4.2-5.1 1.9-1.3 4.2-1.9 6.9-1.9a11.4 11.4 0 0 1 11 6.9h.5a12 12 0 0 1 4.7-5c2.1-1.3 4.7-1.9 7.6-1.9 3.7 0 6.7 1.2 9 3.5 2.4 2.3 3.6 5.8 3.6 10.7v27.6h-6.4v-27.6c0-3-.8-5.2-2.5-6.5a9.2 9.2 0 0 0-5.8-2c-3 0-5.2.9-6.8 2.6a9.4 9.4 0 0 0-2.4 6.6v26.9h-6.4V1160c0-2.3-.8-4.2-2.3-5.6a8.2 8.2 0 0 0-5.9-2.2c-1.6 0-3.2.4-4.6 1.3a10 10 0 0 0-4.7 9v25.8h-6.4Zm77.8 1c-2.6 0-5-.5-7.1-1.4-2.1-1-3.8-2.5-5.1-4.4a12.2 12.2 0 0 1-1.9-6.8c0-2.4.5-4.3 1.4-5.8 1-1.5 2.2-2.6 3.8-3.5 1.5-.8 3.2-1.4 5.1-1.8a62 62 0 0 1 11.8-1.8c1.6-.2 2.7-.5 3.4-.9.8-.4 1.2-1.1 1.2-2.1v-.2c0-2.7-.8-4.7-2.2-6.2-1.4-1.5-3.6-2.2-6.5-2.2-3 0-5.4.6-7.2 2a11.6 11.6 0 0 0-3.6 4.2l-6-2.1a14.5 14.5 0 0 1 10.2-8.8 24.2 24.2 0 0 1 11-.4c1.6.3 3.3 1 5 1.9 1.6 1 3 2.4 4 4.4 1 2 1.6 4.5 1.6 7.8v27.2h-6.3v-5.6h-.4c-.4.9-1.1 1.9-2.1 2.9s-2.3 1.9-4 2.6a16 16 0 0 1-6.1 1Zm1-5.6c2.5 0 4.6-.5 6.3-1.5a10 10 0 0 0 5.3-8.8v-5.8c-.3.4-.9.7-1.8 1a30.6 30.6 0 0 1-6.5 1l-2.7.4a31 31 0 0 0-4.6 1 8 8 0 0 0-3.5 2.2c-.8 1-1.2 2.2-1.2 3.8 0 2.2.8 3.9 2.4 5a11 11 0 0 0 6.3 1.7Zm47.4-36.6v5.4h-21.4v-5.4h21.4Zm-15.1-9.8h6.3v39.3c0 1.8.2 3.1.8 4a4 4 0 0 0 2 1.8 11.4 11.4 0 0 0 4.4.3l1-.2 1.3 5.7a13 13 0 0 1-4.7.7c-1.8 0-3.5-.4-5.3-1.1-1.7-.8-3-2-4.2-3.5a10.1 10.1 0 0 1-1.6-6v-41Zm24.6 51v-41.2h6.4v41.3h-6.4Zm3.2-48c-1.2 0-2.3-.5-3.2-1.3a4 4 0 0 1-1.3-3 4 4 0 0 1 1.3-3c1-.9 2-1.3 3.2-1.3 1.3 0 2.3.4 3.2 1.2a4 4 0 0 1 1.3 3 4 4 0 0 1-1.3 3.1c-.9.8-2 1.3-3.2 1.3Zm21.1 23.3v24.8h-6.3V1147h6v6.5h.6c1-2.1 2.4-3.8 4.4-5 2-1.3 4.5-2 7.6-2 2.8 0 5.3.6 7.4 1.7a13 13 0 0 1 4.9 5.2c1.1 2.3 1.7 5.2 1.7 8.7v26.2h-6.3v-25.8c0-3.2-.9-5.8-2.6-7.6a9 9 0 0 0-6.9-2.7c-2 0-3.8.4-5.4 1.3a9.5 9.5 0 0 0-3.7 3.9c-1 1.6-1.4 3.7-1.4 6Zm54.5 41.1c-3 0-5.7-.4-7.9-1.2a16.8 16.8 0 0 1-9-7l5.1-3.6 2.2 2.6c.9 1 2 1.8 3.6 2.5 1.5.8 3.5 1.1 6 1.1 3.4 0 6.1-.8 8.3-2.4 2.1-1.6 3.2-4.1 3.2-7.6v-8.3h-.5l-2 2.8c-.8 1-2 2-3.7 2.9a14 14 0 0 1-6.4 1.2c-3.3 0-6.3-.8-9-2.3a16.5 16.5 0 0 1-6.2-6.9 24 24 0 0 1-2.3-11c0-4.2.8-7.8 2.3-11a16.3 16.3 0 0 1 15.4-9.9c2.7 0 4.8.4 6.3 1.3 1.6 1 2.9 2 3.7 3l2 2.8h.6v-6.6h6.2v42.5c0 3.5-.8 6.4-2.5 8.6a13.8 13.8 0 0 1-6.4 5c-2.7 1-5.7 1.5-9 1.5Zm-.2-22.7c2.5 0 4.7-.5 6.5-1.7a11 11 0 0 0 4-5c.9-2.2 1.3-4.8 1.3-7.9 0-3-.4-5.6-1.3-7.8a13 13 0 0 0-4-5.4c-1.7-1.3-4-1.9-6.5-1.9-2.7 0-5 .7-6.7 2a12.4 12.4 0 0 0-4 5.5 21 21 0 0 0-1.3 7.6c0 2.9.4 5.4 1.3 7.6 1 2.2 2.3 4 4 5.2 1.8 1.2 4 1.8 6.7 1.8Zm34.3 6.8c-1.4 0-2.5-.5-3.4-1.4a4.6 4.6 0 0 1 0-6.8 4.6 4.6 0 0 1 6.8 0c1 1 1.4 2 1.4 3.4 0 .8-.2 1.7-.7 2.4a4.7 4.7 0 0 1-4.2 2.4Z"/><path fill="#565656" stroke="#565656" stroke-linejoin="round" stroke-width="35.2" d="M542.4 311.4h1793.2v353.2H542.4z"/><path fill="#fff" d="M566.7 402v-55h33v6h-26.4v18.5h23.9v6h-23.9V402h-6.6Zm43.5 0v-41.2h6.3V402h-6.3Zm3.2-48.1c-1.2 0-2.3-.4-3.2-1.3a4 4 0 0 1-1.3-3 4 4 0 0 1 1.3-3c.9-.9 2-1.3 3.2-1.3 1.2 0 2.3.4 3.2 1.3a4 4 0 0 1 1.3 3 4 4 0 0 1-1.3 3c-1 .9-2 1.3-3.2 1.3ZM628 402v-41.2h6.1v6.2h.5a10 10 0 0 1 4-5c2-1.2 4.2-1.9 6.7-1.9a69.8 69.8 0 0 1 3.3.1v6.5a18.9 18.9 0 0 0-3.8-.5c-2 0-3.8.5-5.4 1.3a9.3 9.3 0 0 0-5 8.4V402H628Zm57.3-32-5.6 1.6c-.4-1-1-1.9-1.6-2.8a7.8 7.8 0 0 0-2.8-2.2c-1.2-.6-2.7-.9-4.6-.9-2.5 0-4.6.6-6.3 1.7-1.6 1.2-2.5 2.7-2.5 4.4 0 1.6.6 2.8 1.8 3.8a14 14 0 0 0 5.3 2.2l6.1 1.5a17 17 0 0 1 8.3 4.1 9.6 9.6 0 0 1 2.7 7.1c0 2.4-.7 4.5-2 6.3a13.5 13.5 0 0 1-5.7 4.4 20 20 0 0 1-8.4 1.7 19 19 0 0 1-10.5-2.8 12.1 12.1 0 0 1-5.2-8l6-1.5a8.4 8.4 0 0 0 3.3 5 11 11 0 0 0 6.3 1.7c3 0 5.3-.7 7-1.9 1.8-1.3 2.6-2.8 2.6-4.6 0-1.4-.5-2.6-1.5-3.6s-2.5-1.7-4.6-2.2l-6.8-1.6c-3.8-.9-6.6-2.3-8.4-4.1a10 10 0 0 1-2.6-7.2c0-2.3.7-4.3 2-6.1 1.3-1.8 3-3.2 5.4-4.2a19 19 0 0 1 7.7-1.6c4.1 0 7.3 1 9.7 2.7 2.3 1.8 4 4.2 5 7.1Zm28.3-9.2v5.3h-21.4v-5.3h21.4Zm-15.2-10h6.4v39.4c0 1.8.2 3.1.7 4a4 4 0 0 0 2 1.8 11.3 11.3 0 0 0 4.4.3l1.1-.2 1.3 5.7a13 13 0 0 1-4.7.7c-1.8 0-3.5-.3-5.3-1.1-1.7-.8-3-2-4.2-3.5a10.1 10.1 0 0 1-1.7-6v-41Zm58.1 52.2c-2.6 0-5-.5-7.1-1.5-2.1-1-3.8-2.5-5-4.3a12.2 12.2 0 0 1-2-6.9c0-2.4.5-4.3 1.4-5.8 1-1.4 2.2-2.6 3.8-3.4 1.5-.9 3.2-1.5 5.1-2a63 63 0 0 1 11.8-1.7c1.6-.1 2.7-.4 3.5-.9.7-.4 1-1 1-2.1v-.2c0-2.7-.7-4.7-2.1-6.2-1.4-1.5-3.6-2.2-6.5-2.2-3 0-5.4.7-7.2 2a11.6 11.6 0 0 0-3.6 4.2l-6-2.1A14.4 14.4 0 0 1 754 361a24.5 24.5 0 0 1 11-.4c1.6.3 3.3 1 5 2 1.6.9 3 2.3 4 4.3s1.6 4.6 1.6 7.8V402h-6.3v-5.6h-.4c-.4 1-1.1 1.9-2.1 2.9s-2.3 1.9-4 2.6a16 16 0 0 1-6.1 1Zm1-5.7c2.5 0 4.6-.5 6.3-1.5a10 10 0 0 0 5.3-8.7v-5.8c-.3.3-.9.6-1.8.9a29.8 29.8 0 0 1-6.5 1.1l-2.7.3-4.6 1a8 8 0 0 0-3.4 2.2c-1 1-1.3 2.2-1.3 3.8 0 2.2.8 3.9 2.4 5a11 11 0 0 0 6.3 1.7Zm46.2 5.6a18 18 0 0 1-10-2.8c-2.8-1.8-5-4.3-6.4-7.5a25.6 25.6 0 0 1-2.3-11c0-4.2.8-7.9 2.3-11a17.5 17.5 0 0 1 16.3-10.3c3 0 5.5.5 7.8 1.5a14 14 0 0 1 8.5 11.3h-6.3a9.6 9.6 0 0 0-9.9-7.2c-2.5 0-4.6.7-6.5 2a12 12 0 0 0-4.3 5.3 20 20 0 0 0-1.5 8.2c0 3.2.5 6 1.5 8.3a12 12 0 0 0 4.3 5.5c1.8 1.3 4 2 6.5 2 1.7 0 3.2-.3 4.5-.9a9.2 9.2 0 0 0 5.4-6.3h6.3a14.7 14.7 0 0 1-8.2 11.2 18 18 0 0 1-8 1.7Zm43.4-42.1v5.3H826v-5.3h21.3Zm-15.1-10h6.3v39.4c0 1.8.3 3.1.8 4a4 4 0 0 0 2 1.8 11.3 11.3 0 0 0 4.4.3l1-.2 1.4 5.7a13 13 0 0 1-4.7.7c-1.8 0-3.6-.3-5.3-1.1-1.7-.8-3.1-2-4.3-3.5a10.1 10.1 0 0 1-1.6-6v-41Zm24.7 51.2v-41.2h6.3V402h-6.3Zm3.2-48.1c-1.3 0-2.3-.4-3.2-1.3a4 4 0 0 1-1.3-3 4 4 0 0 1 1.3-3c.9-.9 2-1.3 3.2-1.3a4 4 0 0 1 3.1 1.3 4 4 0 0 1 1.4 3 4 4 0 0 1-1.4 3 4 4 0 0 1-3.1 1.3Zm48.4 6.9L893.2 402h-6.5l-15.2-41.2h6.8l11.4 32.8h.5l11.3-32.8h7Zm19.3 42.2c-2.7 0-5-.5-7.2-1.5a13 13 0 0 1-5-4.3 12.2 12.2 0 0 1-2-6.9 9.8 9.8 0 0 1 5.1-9.2c1.7-.9 3.4-1.5 5.3-2a63 63 0 0 1 11.8-1.7c1.6-.1 2.7-.4 3.4-.9.8-.4 1.1-1 1.1-2.1v-.2c0-2.7-.7-4.7-2.2-6.2-1.4-1.5-3.6-2.2-6.5-2.2-3 0-5.4.7-7 2a11 11 0 0 0-3.7 4.2l-6-2.1A14.4 14.4 0 0 1 925 361a24.5 24.5 0 0 1 10.9-.4c1.7.3 3.4 1 5 2 1.6.9 3 2.3 4 4.3 1.1 2 1.7 4.6 1.7 7.8V402h-6.4v-5.6h-.3c-.4 1-1.1 1.9-2.1 2.9a13.2 13.2 0 0 1-10.1 3.6Zm1-5.7c2.4 0 4.5-.5 6.3-1.5a10 10 0 0 0 5.2-8.7v-5.8c-.2.3-.8.6-1.8.9a29.8 29.8 0 0 1-6.5 1.1l-2.6.3-4.6 1a8 8 0 0 0-3.5 2.2c-.8 1-1.3 2.2-1.3 3.8 0 2.2.8 3.9 2.5 5a11 11 0 0 0 6.2 1.7Zm47.4-36.5v5.3h-21.4v-5.3H976Zm-15.2-10h6.3v39.4c0 1.8.3 3.1.8 4a4 4 0 0 0 2 1.8 11.3 11.3 0 0 0 4.4.3l1.1-.2 1.3 5.7a13 13 0 0 1-4.7.7c-1.8 0-3.6-.3-5.3-1.1-1.7-.8-3-2-4.2-3.5a10.1 10.1 0 0 1-1.7-6v-41Zm24.7 51.2v-41.2h6.3V402h-6.3Zm3.2-48.1c-1.2 0-2.3-.4-3.2-1.3a4 4 0 0 1-1.3-3 4 4 0 0 1 1.3-3c1-.9 2-1.3 3.2-1.3 1.2 0 2.3.4 3.2 1.3a4 4 0 0 1 1.3 3 4 4 0 0 1-1.3 3c-.9.9-2 1.3-3.2 1.3Zm31.5 49c-3.7 0-7-1-9.8-2.7a18 18 0 0 1-6.6-7.4c-1.5-3.2-2.3-7-2.3-11.2 0-4.3.8-8 2.3-11.3a18 18 0 0 1 6.6-7.4 18 18 0 0 1 9.8-2.7 17.4 17.4 0 0 1 16.3 10.1c1.6 3.3 2.4 7 2.4 11.3 0 4.3-.8 8-2.4 11.2a17.8 17.8 0 0 1-6.5 7.4 17.8 17.8 0 0 1-9.8 2.7Zm0-5.7c2.8 0 5.1-.8 7-2.2 1.8-1.5 3.1-3.4 4-5.7.9-2.4 1.3-5 1.3-7.7a22 22 0 0 0-1.3-7.7 13 13 0 0 0-4-5.8 10.8 10.8 0 0 0-7-2.2c-2.8 0-5.2.8-7 2.2a13 13 0 0 0-4 5.8 22 22 0 0 0 0 15.4c.8 2.3 2.2 4.2 4 5.7 1.8 1.4 4.2 2.2 7 2.2Zm34.7-20V402h-6.4v-41.2h6.2v6.4h.5c1-2 2.4-3.8 4.4-5 2-1.3 4.5-2 7.6-2 2.8 0 5.3.6 7.4 1.7 2 1.2 3.7 2.9 4.8 5.2 1.2 2.3 1.8 5.2 1.8 8.7V402h-6.4v-25.8c0-3.2-.8-5.7-2.5-7.5a9 9 0 0 0-7-2.8c-2 0-3.7.5-5.3 1.3a9.4 9.4 0 0 0-3.8 3.9c-.9 1.7-1.3 3.7-1.3 6Zm61.4 1.6a58 58 0 0 1 10.2-34.4h5.6c-1.3 1.8-2.5 4-3.7 6.6a63.7 63.7 0 0 0-4.9 18 70.4 70.4 0 0 0 3.9 35c1.4 3.7 3 6.8 4.7 9.2h-5.6a58.1 58.1 0 0 1-10.2-34.4Zm37.3 24.2c-2.7 0-5-.5-7.2-1.5-2.1-1-3.8-2.5-5-4.3a12.1 12.1 0 0 1-2-6.9 9.8 9.8 0 0 1 5.1-9.2c1.7-.9 3.4-1.5 5.3-2a63 63 0 0 1 11.8-1.7 7 7 0 0 0 3.4-.9c.7-.4 1.1-1 1.1-2.1v-.2c0-2.7-.7-4.7-2.2-6.2-1.4-1.5-3.6-2.2-6.5-2.2-3 0-5.4.7-7.1 2-1.7 1.3-3 2.7-3.6 4.2l-6-2.1a14 14 0 0 1 4.3-5.9c1.8-1.4 3.7-2.4 5.9-3a24.5 24.5 0 0 1 10.9-.3c1.7.3 3.4 1 5 2 1.6.9 3 2.3 4 4.3 1.1 2 1.6 4.6 1.6 7.8V402h-6.3v-5.6h-.3a12.4 12.4 0 0 1-6.2 5.5c-1.6.7-3.7 1-6 1Zm1-5.7c2.4 0 4.5-.5 6.3-1.5a10.1 10.1 0 0 0 5.2-8.7v-5.8c-.3.3-.9.6-1.8.9a30.3 30.3 0 0 1-6.5 1.1l-2.6.3-4.7 1a8 8 0 0 0-3.4 2.2c-.9 1-1.3 2.2-1.3 3.8 0 2.2.8 3.9 2.5 5a11 11 0 0 0 6.2 1.7Zm35.8-20.1V402h-6.4v-41.2h6.1v6.4h.6c1-2 2.4-3.8 4.4-5 2-1.3 4.5-2 7.6-2 2.8 0 5.2.6 7.3 1.7 2.1 1.2 3.8 2.9 5 5.2 1 2.3 1.7 5.2 1.7 8.7V402h-6.4v-25.8c0-3.2-.8-5.7-2.5-7.5a9 9 0 0 0-7-2.8c-2 0-3.8.5-5.4 1.3a9.4 9.4 0 0 0-3.7 3.9c-.9 1.7-1.3 3.7-1.3 6Zm37.8 24.8v-41.2h6.4V402h-6.4Zm3.3-48.1c-1.3 0-2.3-.4-3.2-1.3a4 4 0 0 1-1.4-3 4 4 0 0 1 1.4-3c.8-.9 2-1.3 3.1-1.3 1.3 0 2.3.4 3.2 1.3a4 4 0 0 1 1.4 3 4 4 0 0 1-1.4 3c-.9.9-2 1.3-3.2 1.3Zm14.7 48.1v-41.2h6v6.4h.6c.9-2.2 2.3-3.9 4.2-5.1 2-1.3 4.2-1.9 6.9-1.9s5 .6 6.8 1.9a12 12 0 0 1 4.3 5.1h.4a12 12 0 0 1 4.7-5c2.1-1.3 4.7-2 7.6-2 3.7 0 6.7 1.2 9 3.5 2.4 2.3 3.6 5.9 3.6 10.7V402h-6.3v-27.6c0-3-.9-5.2-2.5-6.5a9.2 9.2 0 0 0-6-2 9 9 0 0 0-6.7 2.6 9.4 9.4 0 0 0-2.3 6.7V402h-6.5v-28.2c0-2.4-.8-4.3-2.3-5.7a8.2 8.2 0 0 0-5.8-2.2c-1.7 0-3.2.5-4.7 1.3a11 11 0 0 0-3.4 3.7c-.9 1.5-1.3 3.3-1.3 5.3V402h-6.3Zm77.8 1c-2.6 0-5-.5-7.1-1.5-2.1-1-3.8-2.5-5-4.3a12.1 12.1 0 0 1-2-6.9c0-2.4.5-4.3 1.4-5.8 1-1.4 2.2-2.6 3.8-3.4 1.5-.9 3.3-1.5 5.1-2a63 63 0 0 1 11.8-1.7 7 7 0 0 0 3.5-.9c.7-.4 1-1 1-2.1v-.2c0-2.7-.6-4.7-2.1-6.2-1.4-1.5-3.6-2.2-6.5-2.2a11.5 11.5 0 0 0-10.8 6.2l-6-2.1a14.8 14.8 0 0 1 10.3-8.9 24.5 24.5 0 0 1 10.8-.3c1.8.3 3.4 1 5 2 1.7.9 3 2.3 4.1 4.3 1 2 1.6 4.6 1.6 7.8V402h-6.3v-5.6h-.3a12.4 12.4 0 0 1-6.1 5.5c-1.8.7-3.8 1-6.2 1Zm1-5.7c2.5 0 4.6-.5 6.3-1.5a10.1 10.1 0 0 0 5.3-8.7v-5.8c-.3.3-.9.6-1.8.9a30.3 30.3 0 0 1-6.5 1.1l-2.7.3-4.6 1a8 8 0 0 0-3.4 2.2c-.9 1-1.3 2.2-1.3 3.8 0 2.2.8 3.9 2.4 5a11 11 0 0 0 6.3 1.7Zm47.4-36.5v5.3H1351v-5.3h21.4Zm-15.1-10h6.3v39.4c0 1.8.3 3.1.8 4a4 4 0 0 0 2 1.8 11.3 11.3 0 0 0 5.5.1l1.3 5.7a13.1 13.1 0 0 1-4.8.7c-1.8 0-3.5-.3-5.2-1.1-1.7-.8-3.1-2-4.3-3.5a10.1 10.1 0 0 1-1.6-6v-41Zm41.5 52a17.6 17.6 0 0 1-17-10 25.3 25.3 0 0 1-2.2-11.1c0-4.2.7-8 2.3-11.2a17.4 17.4 0 0 1 16.3-10.3c2 0 4.2.4 6.3 1.1a15.8 15.8 0 0 1 9.8 9.8 27 27 0 0 1 1.6 9.7v2.7h-31.8v-5.4h25.3a14 14 0 0 0-1.4-6.3 10.5 10.5 0 0 0-9.9-5.9c-2.5 0-4.7.6-6.5 1.9a12.4 12.4 0 0 0-4.2 4.8 14 14 0 0 0-1.5 6.4v3.7c0 3 .5 5.7 1.6 7.9 1.1 2.1 2.6 3.8 4.6 4.9a13 13 0 0 0 6.7 1.7c1.6 0 3.2-.3 4.5-.7a9.7 9.7 0 0 0 3.5-2.2 9 9 0 0 0 2.3-3.6l6.1 1.7c-.6 2.1-1.7 4-3.2 5.5a15.8 15.8 0 0 1-5.7 3.7c-2.2.8-4.7 1.3-7.5 1.3Zm42.3 0a16.2 16.2 0 0 1-15.3-10c-1.5-3.2-2.2-7-2.2-11.3 0-4.3.7-8.1 2.2-11.3a16.4 16.4 0 0 1 15.4-10c2.7 0 4.8.5 6.3 1.4a9 9 0 0 1 3.6 3c.9 1 1.5 2 2 2.7h.5V347h6.4v55h-6.1v-6.3h-.8l-2 2.8c-.9 1.1-2 2.1-3.7 3-1.6 1-3.7 1.4-6.3 1.4Zm.8-5.6c2.6 0 4.7-.7 6.5-2a14 14 0 0 0 4-5.6c.9-2.4 1.3-5.1 1.3-8.2 0-3.1-.4-5.8-1.3-8.1s-2.2-4.1-4-5.4c-1.7-1.3-3.9-2-6.5-2-2.7 0-4.9.7-6.7 2a12.4 12.4 0 0 0-4 5.6 22 22 0 0 0-1.3 7.9c0 3 .5 5.6 1.3 8a13 13 0 0 0 4 5.7c1.9 1.4 4 2 6.7 2Zm44-18.4a57.8 57.8 0 0 1-10.2 34.4h-5.5a61.4 61.4 0 0 0 8.5-24.6 68 68 0 0 0-8.5-44.2h5.6a57.7 57.7 0 0 1 10.2 34.4Z"/><path fill="#87A37A" d="M825 554a5 5 0 0 0 0 10v-10Zm1290.5 8.5c2-2 2-5 0-7l-31.8-31.9a5 5 0 0 0-7 7.1l28.2 28.3-28.3 28.3a5 5 0 0 0 7.1 7l31.8-31.8ZM825 564h1287v-10H825v10Z"/><circle cx="648" cy="559" r="88" fill="#DD9C63" fill-opacity=".4"/><circle cx="1434" cy="559" r="88" fill="#DD9C63"/><path fill="#fff" d="M825 554a5 5 0 0 0 0 10v-10Zm456.5 8.5c2-2 2-5 0-7l-31.8-31.9a5 5 0 0 0-7 7.1l28.2 28.3-28.3 28.3a5 5 0 0 0 7.1 7l31.8-31.8ZM825 564h453v-10H825v10Z"/></svg>