<svg xmlns="http://www.w3.org/2000/svg" width="2885" height="1490" fill="none"><rect width="2884.1" height="1489.3" fill="#171717" rx="113.4"/><path fill="#fff" d="M112.2 174.9c-5 0-9.6-1-13.6-3s-7.3-4.8-9.7-8.3a22.5 22.5 0 0 1-4-11.9h10.3c.4 4 2.2 7.3 5.4 9.9a18 18 0 0 0 11.6 3.9 18.3 18.3 0 0 0 16.3-9.5c1.6-3 2.4-6.4 2.4-10.1 0-3.9-.8-7.3-2.5-10.3a18.6 18.6 0 0 0-16.9-9.8 27.5 27.5 0 0 0-15.3 4.4l-10-1.2 5.4-43.3h45.7v9.5h-36.8l-3 26h.4a25.7 25.7 0 0 1 15.3-5 27 27 0 0 1 24.4 14.3c2.4 4.4 3.6 9.5 3.6 15.2 0 5.6-1.2 10.6-3.7 15a27.6 27.6 0 0 1-25.3 14.2Zm50.4-.5c-2.2 0-4-.8-5.5-2.3a7.4 7.4 0 0 1-2.3-5.4c0-2.2.8-4 2.3-5.5a7.4 7.4 0 0 1 5.5-2.3c2 0 3.9.8 5.4 2.3a7.4 7.4 0 0 1 2.3 5.5c0 1.4-.4 2.6-1 3.8a8 8 0 0 1-2.9 2.9 8 8 0 0 1-3.8 1Zm143.8 885.2v-4.8c0-1.5.3-3 .8-4.7a20 20 0 0 1 2.3-4.8c1-1.6 2.2-3 3.7-4l3.4 2.7a35.3 35.3 0 0 0-3 5c-.8 1.8-1.2 3.7-1.2 5.6v5h-6Zm13.8 0v-4.8c0-1.5.2-3 .7-4.7a20 20 0 0 1 2.3-4.8c1-1.6 2.3-3 3.7-4l3.5 2.7a35.4 35.4 0 0 0-3 5c-.8 1.8-1.2 3.7-1.2 5.6v5h-6Zm18 37.8v-55h18.6c4.3 0 7.8.7 10.6 2.2a14 14 0 0 1 6 6c1.4 2.5 2 5.4 2 8.7 0 3.2-.6 6-2 8.6a14 14 0 0 1-6 5.9 22.7 22.7 0 0 1-10.5 2.1h-15v-6h14.8c3 0 5.3-.4 7-1.3 1.9-.9 3.2-2 4-3.6.8-1.6 1.2-3.5 1.2-5.7s-.4-4.2-1.2-5.8c-.8-1.7-2.2-3-4-3.8a16 16 0 0 0-7.1-1.4h-11.7v49h-6.7Zm25.9-24.7 13.5 24.7H370l-13.3-24.7h7.5Zm38.5 25.5a17.8 17.8 0 0 1-17-10 25.3 25.3 0 0 1-2.3-11.1c0-4.2.8-8 2.3-11.2 1.6-3.2 3.8-5.8 6.5-7.6a19.4 19.4 0 0 1 16.1-1.7 15.8 15.8 0 0 1 9.9 10 27 27 0 0 1 1.5 9.6v2.7h-31.8v-5.5h25.4c0-2.3-.5-4.4-1.4-6.2a10.6 10.6 0 0 0-9.9-5.9c-2.5 0-4.7.6-6.5 1.9a12.3 12.3 0 0 0-4.3 4.8 14 14 0 0 0-1.4 6.4v3.6c0 3.2.5 5.8 1.6 8 1 2.1 2.6 3.8 4.5 4.9a14.8 14.8 0 0 0 11.3.9 9.6 9.6 0 0 0 3.5-2.1c1-1 1.7-2.2 2.3-3.6l6 1.7c-.6 2.1-1.6 4-3.2 5.5a15.8 15.8 0 0 1-5.6 3.7c-2.2.8-4.8 1.2-7.5 1.2Zm55.9-32.8-5.7 1.6c-.4-1-.9-1.9-1.6-2.8a7.8 7.8 0 0 0-2.8-2.2 10 10 0 0 0-4.5-1 11 11 0 0 0-6.3 1.8c-1.7 1.2-2.5 2.6-2.5 4.4 0 1.6.5 2.8 1.7 3.7 1.1 1 3 1.7 5.4 2.3l6 1.5a17 17 0 0 1 8.3 4.1 9.6 9.6 0 0 1 2.7 7c0 2.5-.7 4.6-2 6.4a13.6 13.6 0 0 1-5.7 4.4 20 20 0 0 1-8.4 1.6c-4.2 0-7.7-.9-10.4-2.7a12.1 12.1 0 0 1-5.3-8l6-1.5a8.4 8.4 0 0 0 3.3 5 11 11 0 0 0 6.3 1.7c3 0 5.3-.7 7-2 1.8-1.2 2.7-2.7 2.7-4.5 0-1.4-.5-2.6-1.5-3.6s-2.6-1.7-4.6-2.2l-7-1.6c-3.7-.9-6.5-2.3-8.2-4.2a10 10 0 0 1-2.7-7c0-2.4.7-4.5 2-6.3 1.3-1.7 3.1-3.1 5.4-4.2a19 19 0 0 1 7.8-1.5c4 0 7.3.9 9.6 2.7 2.3 1.8 4 4.1 5 7Zm28.2-9.3v5.4h-21.4v-5.4h21.4Zm-15.1-9.8h6.3v39.3c0 1.8.3 3.1.8 4a4 4 0 0 0 2 1.8 11.4 11.4 0 0 0 4.4.3l1-.2 1.3 5.7a13 13 0 0 1-4.7.7c-1.8 0-3.5-.4-5.2-1.1-1.7-.8-3.2-2-4.3-3.5a10.1 10.1 0 0 1-1.6-6v-41Zm36.8 52c-2.6 0-5-.5-7.2-1.4-2-1-3.8-2.5-5-4.4a12.2 12.2 0 0 1-1.9-6.8c0-2.4.5-4.3 1.4-5.8 1-1.5 2.2-2.6 3.7-3.5 1.6-.8 3.3-1.4 5.2-1.8a62.4 62.4 0 0 1 11.8-1.8c1.6-.2 2.7-.5 3.4-.9.8-.4 1.1-1.1 1.1-2.1v-.2c0-2.7-.7-4.7-2.1-6.2-1.5-1.5-3.7-2.2-6.6-2.2-3 0-5.4.6-7 2a11 11 0 0 0-3.7 4.2l-6-2.1a14.4 14.4 0 0 1 10.2-8.8 24.2 24.2 0 0 1 10.9-.4c1.7.3 3.4 1 5 1.9 1.6 1 3 2.4 4 4.4 1.1 2 1.7 4.5 1.7 7.8v27.2h-6.4v-5.6h-.3a10 10 0 0 1-2.1 2.9 13.2 13.2 0 0 1-10.1 3.6Zm1-5.6c2.4 0 4.5-.5 6.3-1.5a10.1 10.1 0 0 0 5.2-8.8v-5.8c-.2.4-.8.7-1.7 1a31 31 0 0 1-6.6 1l-2.6.4c-1.7.2-3.2.6-4.6 1a8 8 0 0 0-3.5 2.2c-.8 1-1.3 2.2-1.3 3.8 0 2.2.8 3.9 2.5 5a11 11 0 0 0 6.2 1.7Zm29.4 4.7V1056h6.1v6.3h.5c.7-2 2-3.7 4-5a12 12 0 0 1 6.7-1.9 62.9 62.9 0 0 1 3.3.1v6.5a23.1 23.1 0 0 0-3.8-.5c-2 0-3.8.4-5.4 1.3a9.2 9.2 0 0 0-5 8.4v26h-6.4Zm48.7-41.3v5.4H566v-5.4h21.4Zm-15.2-9.8h6.4v39.3c0 1.8.2 3.1.7 4a4 4 0 0 0 2 1.8 11.4 11.4 0 0 0 4.4.3l1.1-.2 1.3 5.7a13 13 0 0 1-4.7.7c-1.8 0-3.5-.4-5.3-1.1-1.7-.8-3-2-4.2-3.5a10.1 10.1 0 0 1-1.7-6v-41Zm32.4-3.9v4.8a19.2 19.2 0 0 1-6.8 13.5l-3.4-2.7c1.2-1.6 2.1-3.3 3-5 .8-1.8 1.2-3.7 1.2-5.7v-4.9h6Zm13.8 0v4.8a19.2 19.2 0 0 1-6.8 13.5l-3.4-2.7c1.1-1.6 2-3.3 2.9-5a14 14 0 0 0 1.3-5.7v-4.9h6Zm30.7 55V1056h6.1v6.3h.5c.7-2 2-3.7 4-5a12 12 0 0 1 6.7-1.9 62.9 62.9 0 0 1 3.3.1v6.5a23.2 23.2 0 0 0-3.8-.5c-2 0-3.8.4-5.4 1.3a9.2 9.2 0 0 0-5 8.4v26h-6.4Zm44.2.8c-4 0-7.4-.8-10.3-2.6-2.9-1.8-5-4.2-6.7-7.4a25.3 25.3 0 0 1-2.3-11.1c0-4.2.8-8 2.3-11.2 1.6-3.2 3.8-5.8 6.5-7.6a19.4 19.4 0 0 1 16.1-1.7 15.8 15.8 0 0 1 10 10 27 27 0 0 1 1.4 9.6v2.7h-31.7v-5.5H704c0-2.3-.5-4.4-1.4-6.2a10.6 10.6 0 0 0-9.9-5.9c-2.5 0-4.7.6-6.5 1.9a12.3 12.3 0 0 0-4.2 4.8 14 14 0 0 0-1.5 6.4v3.6c0 3.2.5 5.8 1.6 8 1 2.1 2.6 3.8 4.5 4.9a14.8 14.8 0 0 0 11.3.9 9.6 9.6 0 0 0 3.5-2.1c1-1 1.7-2.2 2.3-3.6l6 1.7c-.6 2.1-1.6 4-3.2 5.5a15.8 15.8 0 0 1-5.6 3.7c-2.2.8-4.7 1.2-7.5 1.2Zm55.9-32.8-5.7 1.6c-.4-1-.9-1.9-1.6-2.8a7.8 7.8 0 0 0-2.8-2.2 11.4 11.4 0 0 0-10.8.8c-1.7 1.2-2.5 2.6-2.5 4.4 0 1.6.5 2.8 1.7 3.7 1.1 1 3 1.7 5.4 2.3l6 1.5a17 17 0 0 1 8.3 4.1 9.6 9.6 0 0 1 2.7 7 10 10 0 0 1-2 6.4 13.6 13.6 0 0 1-5.6 4.4 20.8 20.8 0 0 1-8.5 1.6c-4.2 0-7.7-.9-10.4-2.7a12.1 12.1 0 0 1-5.3-8l6-1.5a8.3 8.3 0 0 0 3.3 5 11 11 0 0 0 6.3 1.7c3 0 5.3-.7 7-2 1.8-1.2 2.7-2.7 2.7-4.5 0-1.4-.5-2.6-1.5-3.6s-2.6-1.7-4.6-2.2l-7-1.6c-3.7-.9-6.5-2.3-8.2-4.2a10 10 0 0 1-2.7-7c0-2.4.7-4.5 2-6.3 1.3-1.7 3.1-3.1 5.4-4.2a19 19 0 0 1 7.8-1.5c4 0 7.3.9 9.6 2.7 2.3 1.8 4 4.1 5 7Zm28.2-9.3v5.4h-21.4v-5.4h21.4Zm-15.1-9.8h6.3v39.3c0 1.8.3 3.1.8 4a4 4 0 0 0 2 1.8 11.4 11.4 0 0 0 4.4.3l1-.2 1.4 5.7a13 13 0 0 1-4.8.7c-1.8 0-3.5-.4-5.2-1.1-1.7-.8-3.1-2-4.3-3.5a10.1 10.1 0 0 1-1.6-6v-41Zm36.8 52c-2.6 0-5-.5-7.1-1.4-2.2-1-3.9-2.5-5.1-4.4a12.2 12.2 0 0 1-1.9-6.8c0-2.4.5-4.3 1.4-5.8 1-1.5 2.2-2.6 3.7-3.5 1.6-.8 3.3-1.4 5.2-1.8a62.4 62.4 0 0 1 11.8-1.8c1.6-.2 2.7-.5 3.4-.9.8-.4 1.1-1.1 1.1-2.1v-.2c0-2.7-.7-4.7-2.1-6.2-1.5-1.5-3.6-2.2-6.6-2.2-3 0-5.4.6-7 2a11 11 0 0 0-3.7 4.2l-6-2.1a14.4 14.4 0 0 1 10.2-8.8 24.2 24.2 0 0 1 10.9-.4c1.7.3 3.4 1 5 1.9 1.6 1 3 2.4 4 4.4 1.1 2 1.7 4.5 1.7 7.8v27.2h-6.4v-5.6h-.3a10 10 0 0 1-2.1 2.9 13.2 13.2 0 0 1-10.1 3.6Zm1-5.6c2.4 0 4.6-.5 6.3-1.5a10.1 10.1 0 0 0 5.2-8.8v-5.8c-.2.4-.8.7-1.7 1a31 31 0 0 1-6.6 1l-2.6.4c-1.7.2-3.2.6-4.6 1a8 8 0 0 0-3.5 2.2c-.8 1-1.3 2.2-1.3 3.8 0 2.2.9 3.9 2.5 5a11 11 0 0 0 6.2 1.7Zm29.4 4.7V1056h6.2v6.3h.4c.7-2 2.1-3.7 4-5 2-1.3 4.3-1.9 6.7-1.9a62.9 62.9 0 0 1 3.4.1v6.5a23.1 23.1 0 0 0-4-.5c-2 0-3.7.4-5.3 1.3a9.2 9.2 0 0 0-5 8.4v26h-6.4Zm48.7-41.3v5.4h-21.4v-5.4h21.4Zm-15.2-9.8h6.4v39.3c0 1.8.2 3.1.8 4a4 4 0 0 0 2 1.8 11.4 11.4 0 0 0 4.4.3l1-.2 1.3 5.7a13 13 0 0 1-4.7.7c-1.8 0-3.5-.4-5.3-1.1-1.7-.8-3-2-4.2-3.5a10.1 10.1 0 0 1-1.7-6v-41Zm53.2 19-5.7 1.7c-.4-1-.9-1.9-1.6-2.8a7.8 7.8 0 0 0-2.8-2.2 11.4 11.4 0 0 0-10.8.8c-1.7 1.2-2.5 2.6-2.5 4.4 0 1.6.5 2.8 1.7 3.7 1.1 1 3 1.7 5.4 2.3l6 1.5a17 17 0 0 1 8.3 4.1 9.6 9.6 0 0 1 2.7 7 10 10 0 0 1-2 6.4 13.6 13.6 0 0 1-5.6 4.4 20.8 20.8 0 0 1-8.5 1.6c-4.2 0-7.7-.9-10.4-2.7a12.1 12.1 0 0 1-5.3-8l6-1.5a8.3 8.3 0 0 0 3.3 5 11 11 0 0 0 6.3 1.7c3 0 5.3-.7 7-2 1.8-1.2 2.7-2.7 2.7-4.5 0-1.4-.5-2.6-1.5-3.6s-2.6-1.7-4.6-2.2l-7-1.6c-3.7-.9-6.5-2.3-8.2-4.2a10 10 0 0 1-2.7-7c0-2.4.7-4.5 2-6.3 1.3-1.7 3.1-3.1 5.4-4.2a19 19 0 0 1 7.8-1.5c4 0 7.3.9 9.6 2.7 2.3 1.8 4 4.1 5 7Zm49.5-9.2v5.4h-21.4v-5.4h21.4Zm-15.2-9.8h6.4v39.3c0 1.8.2 3.1.7 4a4 4 0 0 0 2 1.8 11.4 11.4 0 0 0 4.4.3l1.1-.2 1.3 5.7a13 13 0 0 1-4.7.7c-1.8 0-3.5-.4-5.3-1.1-1.7-.8-3-2-4.2-3.5a10.1 10.1 0 0 1-1.7-6v-41Zm32 26.3v24.8h-6.4v-55h6.3v20.2h.6c1-2.1 2.4-3.8 4.3-5a14 14 0 0 1 7.8-2c2.8 0 5.3.6 7.4 1.7a12 12 0 0 1 4.9 5.1 19 19 0 0 1 1.8 8.8v26.2h-6.4v-25.8c0-3.3-.8-5.8-2.5-7.6a9 9 0 0 0-7-2.7c-2.1 0-4 .4-5.6 1.3-1.6.9-3 2.2-3.9 3.9-1 1.6-1.4 3.7-1.4 6Zm55.5 25.6a17.5 17.5 0 0 1-17-10 25.3 25.3 0 0 1-2.2-11.1c0-4.2.8-8 2.3-11.2 1.6-3.2 3.8-5.8 6.5-7.6a19.5 19.5 0 0 1 16.1-1.7 15.9 15.9 0 0 1 9.9 10 27 27 0 0 1 1.5 9.6v2.7h-31.8v-5.5h25.4c0-2.3-.5-4.4-1.4-6.2a10.6 10.6 0 0 0-9.9-5.9c-2.5 0-4.7.6-6.5 1.9a12.2 12.2 0 0 0-4.3 4.8 14 14 0 0 0-1.5 6.4v3.6c0 3.2.6 5.8 1.7 8 1 2.1 2.6 3.8 4.5 4.9a14.7 14.7 0 0 0 11.3.9 9.7 9.7 0 0 0 3.5-2.1c1-1 1.7-2.2 2.3-3.6l6 1.7c-.6 2.1-1.7 4-3.2 5.5a15.8 15.8 0 0 1-5.6 3.7c-2.3.8-4.8 1.2-7.6 1.2Zm60.2.1c-2.7 0-5-.5-7.2-1.4-2-1-3.8-2.5-5-4.4a12.2 12.2 0 0 1-2-6.8c0-2.4.6-4.3 1.5-5.8 1-1.5 2.2-2.6 3.7-3.5 1.6-.8 3.3-1.4 5.2-1.8a63 63 0 0 1 11.8-1.8c1.5-.2 2.7-.5 3.4-.9.8-.4 1.1-1.1 1.1-2.1v-.2c0-2.7-.7-4.7-2.2-6.2-1.4-1.5-3.6-2.2-6.5-2.2-3 0-5.4.6-7.1 2-1.7 1.3-3 2.7-3.6 4.2l-6-2.1a14.5 14.5 0 0 1 10.2-8.8 24.2 24.2 0 0 1 10.9-.4c1.7.3 3.4 1 5 1.9 1.6 1 3 2.4 4 4.4 1.1 2 1.7 4.5 1.7 7.8v27.2h-6.4v-5.6h-.3a12.2 12.2 0 0 1-6.2 5.5 15 15 0 0 1-6 1Zm1-5.6c2.4 0 4.5-.5 6.3-1.5a10.1 10.1 0 0 0 5.2-8.8v-5.8c-.3.4-.8.7-1.8 1a30.6 30.6 0 0 1-6.5 1l-2.6.4a24 24 0 0 0-4.7 1 8 8 0 0 0-3.4 2.2c-.8 1-1.3 2.2-1.3 3.8 0 2.2.8 3.9 2.5 5a11 11 0 0 0 6.2 1.7Zm35.8-20.1v24.8h-6.4V1056h6.1v6.5h.6c1-2.1 2.4-3.8 4.4-5 2-1.3 4.5-2 7.6-2 2.8 0 5.2.6 7.3 1.7 2.1 1.2 3.8 2.9 5 5.2a19 19 0 0 1 1.7 8.7v26.2h-6.4v-25.8c0-3.2-.8-5.8-2.5-7.6a9 9 0 0 0-7-2.7c-2 0-3.8.4-5.3 1.3a9.5 9.5 0 0 0-3.8 3.9c-.9 1.6-1.4 3.7-1.4 6Zm37.8 24.8V1056h6.4v41.3h-6.4Zm3.3-48.1c-1.3 0-2.3-.5-3.2-1.3a4 4 0 0 1-1.3-3 4 4 0 0 1 1.3-3c.9-.9 2-1.3 3.2-1.3 1.2 0 2.3.4 3.1 1.2a4 4 0 0 1 1.4 3 4 4 0 0 1-1.4 3.1c-.8.8-2 1.3-3.1 1.3Zm14.7 48v-41.2h6.1v6.5h.5c.9-2.2 2.3-4 4.2-5.1 2-1.3 4.2-1.9 6.9-1.9s5 .6 6.8 1.9c1.8 1.2 3.2 2.9 4.3 5h.4a12 12 0 0 1 4.7-5c2.2-1.3 4.7-1.9 7.6-1.9 3.7 0 6.7 1.2 9 3.5 2.4 2.3 3.6 5.8 3.6 10.7v27.6h-6.3v-27.6c0-3-.9-5.2-2.5-6.5a9.2 9.2 0 0 0-6-2 9 9 0 0 0-6.7 2.6 9.4 9.4 0 0 0-2.3 6.6v26.9h-6.5V1069a7 7 0 0 0-2.3-5.6 8.2 8.2 0 0 0-5.8-2.2c-1.7 0-3.2.4-4.7 1.3a10 10 0 0 0-3.4 3.7c-.9 1.5-1.3 3.3-1.3 5.3v25.8h-6.3Zm77.8 1c-2.6 0-5-.5-7.1-1.4-2.1-1-3.8-2.5-5-4.4a12.2 12.2 0 0 1-2-6.8 10.2 10.2 0 0 1 5.2-9.3c1.5-.8 3.3-1.4 5.1-1.8a63 63 0 0 1 11.8-1.8c1.6-.2 2.8-.5 3.5-.9.7-.4 1-1.1 1-2.1v-.2c0-2.7-.6-4.7-2-6.2-1.5-1.5-3.7-2.2-6.6-2.2-3 0-5.4.6-7.1 2a11 11 0 0 0-3.7 4.2l-6-2.1a14.5 14.5 0 0 1 10.2-8.8 24.2 24.2 0 0 1 11-.4c1.7.3 3.3 1 5 1.9 1.6 1 3 2.4 4 4.4 1 2 1.6 4.5 1.6 7.8v27.2h-6.3v-5.6h-.3a12.2 12.2 0 0 1-6.2 5.5c-1.6.7-3.7 1-6 1Zm1-5.6c2.5 0 4.6-.5 6.3-1.5a10.1 10.1 0 0 0 5.3-8.8v-5.8c-.3.4-.9.7-1.8 1a30.6 30.6 0 0 1-6.5 1l-2.7.4a24 24 0 0 0-4.6 1 8 8 0 0 0-3.4 2.2c-.9 1-1.3 2.2-1.3 3.8 0 2.2.8 3.9 2.4 5a11 11 0 0 0 6.3 1.7Zm47.4-36.6v5.4h-21.3v-5.4h21.3Zm-15.1-9.8h6.3v39.3c0 1.8.3 3.1.8 4a4 4 0 0 0 2 1.8 11.4 11.4 0 0 0 4.4.3l1-.2 1.4 5.7a13 13 0 0 1-4.8.7c-1.8 0-3.5-.4-5.2-1.1-1.7-.8-3.1-2-4.3-3.5a10.1 10.1 0 0 1-1.6-6v-41Zm24.7 51v-41.2h6.3v41.3h-6.3Zm3.2-48c-1.3 0-2.3-.5-3.2-1.3a4 4 0 0 1-1.3-3 4 4 0 0 1 1.3-3c.9-.9 2-1.3 3.2-1.3 1.2 0 2.3.4 3.1 1.2a4 4 0 0 1 1.4 3 4 4 0 0 1-1.4 3.1c-.8.8-1.9 1.3-3.1 1.3Zm31.4 49c-3.7 0-7-1-9.8-2.7a18 18 0 0 1-6.5-7.5 25 25 0 0 1-2.3-11.1c0-4.3.7-8 2.3-11.3a18 18 0 0 1 6.5-7.4 18 18 0 0 1 9.8-2.7 17.6 17.6 0 0 1 16.4 10.1c1.5 3.2 2.3 7 2.3 11.3 0 4.2-.8 8-2.3 11.1a17.8 17.8 0 0 1-6.6 7.5c-2.8 1.8-6 2.6-9.8 2.6Zm0-5.8a11 11 0 0 0 7-2.1c1.8-1.5 3.2-3.4 4-5.8a22 22 0 0 0 0-15.4 13 13 0 0 0-4-5.7 10.8 10.8 0 0 0-7-2.2c-2.8 0-5.1.7-7 2.2a12.9 12.9 0 0 0-4 5.8 22 22 0 0 0-1.3 7.7c0 2.7.4 5.3 1.3 7.7.9 2.3 2.2 4.2 4 5.7 1.9 1.4 4.2 2.1 7 2.1Zm34.7-20v24.9h-6.3V1056h6.1v6.5h.5c1-2.1 2.5-3.8 4.5-5 2-1.3 4.5-2 7.6-2 2.8 0 5.2.6 7.3 1.7 2.1 1.2 3.7 2.9 4.9 5.2 1.2 2.3 1.7 5.2 1.7 8.7v26.2h-6.3v-25.8c0-3.2-.8-5.8-2.5-7.6a9 9 0 0 0-7-2.7c-2 0-3.8.4-5.4 1.3a9.5 9.5 0 0 0-3.7 3.9c-1 1.6-1.4 3.7-1.4 6Zm71.3 25.8c-2.6 0-5-.5-7.1-1.4-2.1-1-3.8-2.5-5-4.4a12.2 12.2 0 0 1-2-6.8c0-2.4.5-4.3 1.4-5.8 1-1.5 2.2-2.6 3.8-3.5 1.5-.8 3.3-1.4 5.1-1.8a62.3 62.3 0 0 1 11.8-1.8c1.6-.2 2.8-.5 3.5-.9.7-.4 1-1.1 1-2.1v-.2c0-2.7-.6-4.7-2-6.2-1.5-1.5-3.7-2.2-6.6-2.2-3 0-5.4.6-7.1 2a11 11 0 0 0-3.7 4.2l-6-2.1a14.8 14.8 0 0 1 10.3-8.9 24.2 24.2 0 0 1 10.8-.3c1.8.3 3.4 1 5 1.9 1.7 1 3 2.4 4.1 4.4 1 2 1.6 4.5 1.6 7.8v27.2h-6.3v-5.6h-.3a12.3 12.3 0 0 1-6.1 5.5c-1.8.7-3.8 1-6.2 1Zm1-5.6c2.5 0 4.6-.5 6.3-1.5a10.2 10.2 0 0 0 5.3-8.8v-5.8c-.3.4-.9.7-1.8 1a30.8 30.8 0 0 1-6.5 1l-2.7.4a24 24 0 0 0-4.6 1 8.1 8.1 0 0 0-3.4 2.2c-.9 1-1.3 2.2-1.3 3.8 0 2.2.8 3.9 2.4 5a11 11 0 0 0 6.3 1.7Zm35.8-20.1v24.8h-6.3V1056h6.1v6.5h.5c1-2.1 2.5-3.8 4.4-5 2-1.3 4.5-2 7.7-2 2.8 0 5.2.6 7.3 1.7a13 13 0 0 1 4.9 5.2c1.1 2.3 1.7 5.2 1.7 8.7v26.2h-6.3v-25.8c0-3.2-.8-5.8-2.5-7.6a9 9 0 0 0-7-2.7c-2 0-3.8.4-5.4 1.3a9.4 9.4 0 0 0-3.7 3.9c-1 1.6-1.4 3.7-1.4 6Zm53.5 25.6a16.1 16.1 0 0 1-15.3-10c-1.5-3.2-2.2-7-2.2-11.3 0-4.4.7-8.1 2.2-11.3a16.3 16.3 0 0 1 15.4-10c2.7 0 4.8.4 6.3 1.3 1.6 1 2.8 2 3.6 3l2 2.8h.5v-20.3h6.4v55h-6.2v-6.4h-.7a38 38 0 0 1-2 2.9 11.6 11.6 0 0 1-10 4.3Zm.8-5.7a10 10 0 0 0 6.5-2c1.7-1.3 3-3.1 4-5.5a23 23 0 0 0 1.3-8.2c0-3.1-.4-5.8-1.3-8.1a10.7 10.7 0 0 0-10.5-7.4c-2.7 0-4.9.7-6.7 2a12.4 12.4 0 0 0-4 5.6 22 22 0 0 0-1.3 7.9c0 2.9.4 5.6 1.3 8a13 13 0 0 0 4 5.7c1.9 1.3 4 2 6.7 2Zm51.8 20.3v-56.7h6.1v6.6h.8l2-2.7a11.4 11.4 0 0 1 10-4.4 16.3 16.3 0 0 1 15.3 10c1.5 3.2 2.2 7 2.2 11.3 0 4.3-.7 8.1-2.2 11.3a16.1 16.1 0 0 1-15.3 10c-2.6 0-4.8-.4-6.3-1.3-1.6-.9-2.9-1.9-3.7-3l-2-2.9h-.5v21.8h-6.4Zm6.3-36c0 3 .4 5.8 1.3 8.2a14 14 0 0 0 4 5.6c1.8 1.3 4 2 6.5 2a11 11 0 0 0 6.6-2.1c1.8-1.5 3.1-3.4 4-5.7a24.2 24.2 0 0 0 .1-15.9c-1-2.3-2.3-4.2-4-5.5-1.8-1.4-4-2.1-6.7-2.1a10.6 10.6 0 0 0-10.5 7.4 22 22 0 0 0-1.3 8Zm46.1-34.4v55h-6.3v-55h6.3Zm23.8 56c-2.7 0-5-.6-7.2-1.5a12.2 12.2 0 0 1-7-11.2 12 12 0 0 1 1.5-5.8c1-1.5 2.2-2.6 3.7-3.5 1.6-.8 3.3-1.4 5.2-1.8a62.3 62.3 0 0 1 11.8-1.8c1.6-.2 2.7-.5 3.4-.9.8-.4 1.1-1.1 1.1-2.1v-.2c0-2.7-.7-4.7-2.2-6.2-1.4-1.5-3.5-2.2-6.5-2.2a11.3 11.3 0 0 0-10.7 6.2l-6-2.1a14 14 0 0 1 4.3-5.9 16 16 0 0 1 5.9-3 24.2 24.2 0 0 1 10.9-.3c1.7.3 3.4 1 5 1.9 1.6 1 3 2.4 4 4.4 1.1 2 1.7 4.5 1.7 7.8v27.2h-6.4v-5.6h-.3a10 10 0 0 1-2.1 2.9 13.2 13.2 0 0 1-10.1 3.6Zm1-5.8c2.4 0 4.5-.4 6.3-1.4a10.2 10.2 0 0 0 5.2-8.8v-5.8c-.2.4-.8.7-1.7 1a31.4 31.4 0 0 1-6.6 1l-2.6.4a24 24 0 0 0-4.6 1 8 8 0 0 0-3.5 2.2c-.8 1-1.3 2.2-1.3 3.8 0 2.2.9 3.9 2.5 5a11 11 0 0 0 6.2 1.7Zm32 20.2a14.6 14.6 0 0 1-4.6-.7l1.6-5.6c1.6.4 3 .5 4.1.4a5 5 0 0 0 3.2-1.6 13 13 0 0 0 2.5-4.5l1.2-3.2-15.3-41.5h6.9l11.4 32.9h.4l11.4-32.9h6.9l-17.5 47.3a18 18 0 0 1-3 5.3 10.9 10.9 0 0 1-4 3.1c-1.5.7-3.3 1-5.2 1Zm67.2-47.4-5.6 1.6c-.4-1-1-1.9-1.6-2.8a7.8 7.8 0 0 0-2.8-2.2 11.4 11.4 0 0 0-10.9.8c-1.6 1.2-2.5 2.6-2.5 4.4 0 1.6.6 2.8 1.8 3.7 1.1 1 2.9 1.7 5.3 2.3l6.1 1.5a17 17 0 0 1 8.3 4.1 9.6 9.6 0 0 1 2.7 7c0 2.5-.7 4.6-2 6.4a13.6 13.6 0 0 1-5.7 4.4 20 20 0 0 1-8.4 1.6 19 19 0 0 1-10.5-2.7 12.1 12.1 0 0 1-5.2-8l6-1.5a8.4 8.4 0 0 0 3.3 5 11 11 0 0 0 6.3 1.7c3 0 5.3-.7 7-2 1.8-1.2 2.6-2.7 2.6-4.5 0-1.4-.5-2.6-1.5-3.6s-2.5-1.7-4.6-2.2l-6.9-1.6c-3.7-.9-6.5-2.3-8.3-4.2a10 10 0 0 1-2.6-7c0-2.4.6-4.5 2-6.3 1.3-1.7 3-3.1 5.3-4.2a19 19 0 0 1 7.8-1.5c4.1 0 7.3.9 9.7 2.7 2.3 1.8 4 4.1 5 7Zm31.6 32V1056h6.3v41.3h-6.3Zm3.2-48.1c-1.2 0-2.3-.5-3.2-1.3a4 4 0 0 1-1.3-3 4 4 0 0 1 1.3-3c1-.9 2-1.3 3.2-1.3 1.3 0 2.3.4 3.2 1.2a4 4 0 0 1 1.3 3 4 4 0 0 1-1.3 3.1c-.9.8-2 1.3-3.2 1.3Zm32.7 6.8v5.4h-21.4v-5.4h21.4Zm-15.2-9.8h6.4v39.3c0 1.8.2 3.1.7 4a4 4 0 0 0 2 1.8 11.4 11.4 0 0 0 4.4.3l1.1-.2 1.3 5.7a13 13 0 0 1-4.7.7c-1.8 0-3.5-.4-5.3-1.1-1.7-.8-3-2-4.2-3.5a10.1 10.1 0 0 1-1.7-6v-41Zm64.3 9.8v5.4H1881v-5.4h22.2Zm-15.5 41.3v-47c0-2.3.5-4.3 1.6-5.9 1.1-1.5 2.6-2.7 4.3-3.5a15.8 15.8 0 0 1 11.6-.1l-1.8 5.5-1.3-.4c-.6-.2-1.3-.3-2.2-.3-2.1 0-3.6.6-4.5 1.6-1 1-1.4 2.6-1.4 4.7v45.4h-6.3Zm24.4 0V1056h6.1v6.3h.5a10 10 0 0 1 4-5 12 12 0 0 1 6.7-1.9 63 63 0 0 1 3.3.1v6.5a22 22 0 0 0-3.8-.5c-2 0-3.8.4-5.4 1.3a9.3 9.3 0 0 0-5 8.4v26h-6.4Zm43.6.8c-3.7 0-7-.9-9.8-2.6a18 18 0 0 1-6.5-7.5 25 25 0 0 1-2.4-11.1c0-4.3.8-8 2.4-11.3a18 18 0 0 1 6.5-7.4 18 18 0 0 1 9.8-2.7 17.8 17.8 0 0 1 16.3 10.1 25 25 0 0 1 2.4 11.3c0 4.2-.8 8-2.4 11.1a17.7 17.7 0 0 1-6.5 7.5c-2.8 1.8-6 2.6-9.8 2.6Zm0-5.7a11 11 0 0 0 7-2.1c1.8-1.5 3.2-3.4 4-5.8a22 22 0 0 0 0-15.4c-.8-2.3-2.2-4.2-4-5.7a10.8 10.8 0 0 0-7-2.2c-2.8 0-5.1.7-7 2.2a12.9 12.9 0 0 0-4 5.8 22 22 0 0 0-1.3 7.7c0 2.7.4 5.3 1.3 7.7.9 2.3 2.2 4.2 4 5.7 1.9 1.4 4.2 2.1 7 2.1Zm28.4 4.9V1056h6.1v6.5h.5c.9-2.2 2.3-4 4.2-5.1 2-1.3 4.2-1.9 6.9-1.9s5 .6 6.8 1.9c1.8 1.2 3.3 2.9 4.3 5h.4a12 12 0 0 1 4.8-5c2-1.3 4.6-1.9 7.5-1.9a12 12 0 0 1 9 3.5c2.4 2.3 3.6 5.8 3.6 10.7v27.6h-6.3v-27.6c0-3-.9-5.2-2.5-6.5a9.2 9.2 0 0 0-5.9-2c-2.9 0-5.2.9-6.7 2.6a9.4 9.4 0 0 0-2.4 6.6v26.9h-6.5V1069a7 7 0 0 0-2.3-5.6 8.2 8.2 0 0 0-5.8-2.2c-1.7 0-3.2.4-4.6 1.3a10 10 0 0 0-3.5 3.7c-.9 1.5-1.3 3.3-1.3 5.3v25.8h-6.3ZM2089 1056v5.4h-21.4v-5.4h21.4Zm-15.2-9.8h6.4v39.3c0 1.8.2 3.1.8 4a4 4 0 0 0 2 1.8 11.4 11.4 0 0 0 4.4.3l1-.2 1.3 5.7a13 13 0 0 1-4.7.7c-1.8 0-3.5-.4-5.3-1.1-1.6-.8-3-2-4.2-3.5a10.1 10.1 0 0 1-1.7-6v-41Zm32 26.3v24.8h-6.4v-55h6.3v20.2h.6c1-2.1 2.4-3.8 4.3-5a14 14 0 0 1 7.8-2c2.8 0 5.3.6 7.4 1.7 2.1 1.1 3.8 2.8 5 5.1a19 19 0 0 1 1.7 8.8v26.2h-6.4v-25.8c0-3.3-.8-5.8-2.5-7.6a9 9 0 0 0-7-2.7c-2 0-4 .4-5.6 1.3-1.6.9-3 2.2-3.9 3.9-.9 1.6-1.4 3.7-1.4 6Zm55.6 25.6a17.8 17.8 0 0 1-17-10 25.3 25.3 0 0 1-2.3-11.1c0-4.2.8-8 2.3-11.2 1.6-3.2 3.8-5.8 6.5-7.6a19.4 19.4 0 0 1 16.1-1.7 15.9 15.9 0 0 1 10 10 27 27 0 0 1 1.4 9.6v2.7h-31.8v-5.5h25.4c0-2.3-.5-4.4-1.4-6.2a10.6 10.6 0 0 0-9.9-5.9c-2.5 0-4.7.6-6.5 1.9a12.3 12.3 0 0 0-4.3 4.8 14 14 0 0 0-1.4 6.4v3.6c0 3.2.5 5.8 1.6 8 1 2.1 2.6 3.8 4.5 4.9a14.8 14.8 0 0 0 11.3.9 9.7 9.7 0 0 0 3.5-2.1c1-1 1.7-2.2 2.3-3.6l6 1.7a11 11 0 0 1-3.2 5.5 15.8 15.8 0 0 1-5.6 3.7c-2.2.8-4.8 1.2-7.5 1.2Zm48.8-.8v-55h6.3v20.3h.6c.4-.7 1-1.6 1.9-2.7a9 9 0 0 1 3.6-3 12 12 0 0 1 6.4-1.4 16.3 16.3 0 0 1 15.4 10c1.5 3.2 2.2 7 2.2 11.3 0 4.3-.7 8.1-2.2 11.3a16.2 16.2 0 0 1-15.3 10 13 13 0 0 1-6.4-1.3 11 11 0 0 1-3.6-3c-.9-1.2-1.6-2.1-2-2.9h-.8v6.4h-6.1Zm6.2-20.6c0 3 .5 5.8 1.4 8.2a13 13 0 0 0 4 5.6c1.8 1.3 3.9 2 6.4 2 2.7 0 4.9-.8 6.7-2.1 1.8-1.5 3.1-3.4 4-5.7 1-2.4 1.4-5.1 1.4-8 0-3-.5-5.5-1.4-7.9a12 12 0 0 0-4-5.5c-1.8-1.4-4-2.1-6.7-2.1a10.5 10.5 0 0 0-10.4 7.4 20 20 0 0 0-1.4 8Zm57.2 21.4a17.5 17.5 0 0 1-17-10 25.3 25.3 0 0 1-2.2-11.1c0-4.2.7-8 2.3-11.2a17.5 17.5 0 0 1 16.3-10.3c2 0 4.2.4 6.3 1a15.9 15.9 0 0 1 9.8 10 27 27 0 0 1 1.6 9.6v2.7h-31.8v-5.5h25.3c0-2.3-.4-4.4-1.4-6.2a10.5 10.5 0 0 0-9.9-5.9c-2.5 0-4.7.6-6.5 1.9a12.3 12.3 0 0 0-4.2 4.8 14 14 0 0 0-1.5 6.4v3.6c0 3.2.5 5.8 1.6 8 1.1 2.1 2.6 3.8 4.5 4.9a14.8 14.8 0 0 0 11.3.9 9.7 9.7 0 0 0 3.5-2.1c1-1 1.8-2.2 2.3-3.6l6.1 1.7c-.6 2.1-1.7 4-3.2 5.5a15.8 15.8 0 0 1-5.7 3.7c-2.2.8-4.7 1.2-7.5 1.2Zm43.3 15.5c-3 0-5.7-.4-7.9-1.2a16.8 16.8 0 0 1-9-7l5.1-3.6 2.2 2.6c.9 1 2 1.8 3.6 2.5 1.5.8 3.5 1.1 6 1.1 3.4 0 6.1-.8 8.3-2.4 2.1-1.6 3.2-4.1 3.2-7.6v-8.3h-.5l-2 2.8c-.8 1-2 2-3.7 2.9-1.5.8-3.6 1.2-6.3 1.2a18 18 0 0 1-9-2.3 16.5 16.5 0 0 1-6.3-6.9 24 24 0 0 1-2.2-11c0-4.2.7-7.8 2.2-11a16.3 16.3 0 0 1 15.4-9.9c2.7 0 4.8.4 6.4 1.3 1.5 1 2.8 2 3.6 3l2 2.8h.6v-6.6h6.2v42.5c0 3.5-.8 6.4-2.5 8.6a13.8 13.8 0 0 1-6.4 5c-2.7 1-5.7 1.5-9 1.5Zm-.2-22.7c2.6 0 4.7-.5 6.5-1.7a11 11 0 0 0 4-5c.9-2.2 1.3-4.8 1.3-7.9 0-3-.4-5.6-1.3-7.8-.9-2.3-2.2-4-4-5.4a10.4 10.4 0 0 0-6.5-1.9c-2.7 0-4.9.7-6.7 2a12.4 12.4 0 0 0-4 5.5 21 21 0 0 0-1.3 7.6c0 2.9.4 5.4 1.3 7.6 1 2.2 2.3 4 4 5.2 1.8 1.2 4 1.8 6.7 1.8Zm29.7 6.4V1056h6.3v41.3h-6.3Zm3.2-48.1c-1.3 0-2.3-.5-3.2-1.3a4 4 0 0 1-1.3-3 4 4 0 0 1 1.3-3c.9-.9 2-1.3 3.2-1.3 1.2 0 2.3.4 3.2 1.2a4 4 0 0 1 1.3 3 4 4 0 0 1-1.3 3.1 5 5 0 0 1-3.2 1.3Zm21 23.3v24.8h-6.3V1056h6.1v6.5h.6c1-2.1 2.4-3.8 4.4-5 2-1.3 4.5-2 7.6-2 2.8 0 5.2.6 7.3 1.7 2.1 1.2 3.7 2.9 4.9 5.2 1.2 2.3 1.8 5.2 1.8 8.7v26.2h-6.4v-25.8c0-3.2-.8-5.8-2.5-7.6a9 9 0 0 0-7-2.7c-2 0-3.8.4-5.4 1.3a9.4 9.4 0 0 0-3.7 3.9c-1 1.6-1.4 3.7-1.4 6Zm44.3 0v24.8h-6.4V1056h6.1v6.5h.6c1-2.1 2.4-3.8 4.4-5 2-1.3 4.5-2 7.6-2 2.8 0 5.2.6 7.3 1.7 2.1 1.2 3.8 2.9 5 5.2a19 19 0 0 1 1.7 8.7v26.2h-6.4v-25.8c0-3.2-.8-5.8-2.5-7.6a9 9 0 0 0-7-2.7c-2 0-3.8.4-5.3 1.3a9.5 9.5 0 0 0-3.8 3.9c-.9 1.6-1.3 3.7-1.3 6Zm37.8 24.8V1056h6.4v41.3h-6.3Zm3.3-48.1c-1.3 0-2.3-.5-3.2-1.3a4 4 0 0 1-1.3-3 4 4 0 0 1 1.3-3c.9-.9 2-1.3 3.2-1.3 1.2 0 2.3.4 3.1 1.2a4 4 0 0 1 1.4 3 4 4 0 0 1-1.4 3.1c-.8.8-1.9 1.3-3.1 1.3Zm21 23.3v24.8h-6.3V1056h6.1v6.5h.5c1-2.1 2.5-3.8 4.4-5 2-1.3 4.6-2 7.7-2 2.8 0 5.2.6 7.3 1.7 2.1 1.2 3.7 2.9 4.9 5.2 1.2 2.3 1.7 5.2 1.7 8.7v26.2h-6.3v-25.8c0-3.2-.8-5.8-2.5-7.6a9 9 0 0 0-7-2.7c-2 0-3.8.4-5.4 1.3a9.5 9.5 0 0 0-3.7 3.9c-1 1.6-1.4 3.7-1.4 6Zm54.6 41.1a24 24 0 0 1-8-1.2 16.8 16.8 0 0 1-8.9-7l5-3.6 2.2 2.6c.9 1 2 1.8 3.6 2.5 1.6.8 3.6 1.1 6 1.1 3.4 0 6.1-.8 8.3-2.4 2.2-1.6 3.3-4.1 3.3-7.6v-8.3h-.6l-2 2.8c-.8 1-2 2-3.6 2.9a18.3 18.3 0 0 1-15.4-1.1 16.5 16.5 0 0 1-6.2-6.9 24 24 0 0 1-2.3-11c0-4.2.7-7.8 2.2-11a16.3 16.3 0 0 1 15.4-9.9c2.7 0 4.8.4 6.4 1.3 1.6 1 2.8 2 3.6 3 .9 1.2 1.6 2 2 2.8h.7v-6.6h6v42.5c0 3.5-.7 6.4-2.3 8.6a13.9 13.9 0 0 1-6.5 5c-2.7 1-5.7 1.5-9 1.5Zm-.3-22.7c2.6 0 4.7-.5 6.5-1.7 1.7-1.2 3-2.8 4-5 .9-2.2 1.3-4.8 1.3-7.9 0-3-.4-5.6-1.3-7.8-.9-2.3-2.2-4-4-5.4a10.4 10.4 0 0 0-6.5-1.9 10.8 10.8 0 0 0-10.7 7.5 21 21 0 0 0-1.3 7.6c0 2.9.5 5.4 1.4 7.6a11 11 0 0 0 4 5.2c1.8 1.2 4 1.8 6.6 1.8Zm34.3 6.8c-1.3 0-2.5-.5-3.4-1.4-1-1-1.4-2.1-1.4-3.4 0-1.3.4-2.5 1.4-3.4 1-1 2-1.5 3.4-1.5 1.3 0 2.5.5 3.4 1.5 1 1 1.4 2 1.4 3.4a5 5 0 0 1-.6 2.4 4.7 4.7 0 0 1-4.2 2.4Z"/><path fill="#565656" stroke="#565656" stroke-linejoin="round" stroke-width="35.2" d="M542.4 311.4h1793.2v353.2H542.4z"/><path fill="#fff" d="M566.7 402v-55h33v6h-26.4v18.5h23.9v6h-23.9V402h-6.6Zm43.5 0v-41.2h6.3V402h-6.3Zm3.2-48.1c-1.2 0-2.3-.4-3.2-1.3a4 4 0 0 1-1.3-3 4 4 0 0 1 1.3-3c.9-.9 2-1.3 3.2-1.3 1.2 0 2.3.4 3.2 1.3a4 4 0 0 1 1.3 3 4 4 0 0 1-1.3 3c-1 .9-2 1.3-3.2 1.3ZM628 402v-41.2h6.1v6.2h.5a10 10 0 0 1 4-5c2-1.2 4.2-1.9 6.7-1.9a69.8 69.8 0 0 1 3.3.1v6.5a18.9 18.9 0 0 0-3.8-.5c-2 0-3.8.5-5.4 1.3a9.3 9.3 0 0 0-5 8.4V402H628Zm57.3-32-5.6 1.6c-.4-1-1-1.9-1.6-2.8a7.8 7.8 0 0 0-2.8-2.2c-1.2-.6-2.7-.9-4.6-.9-2.5 0-4.6.6-6.3 1.7-1.6 1.2-2.5 2.7-2.5 4.4 0 1.6.6 2.8 1.8 3.8a14 14 0 0 0 5.3 2.2l6.1 1.5a17 17 0 0 1 8.3 4.1 9.6 9.6 0 0 1 2.7 7.1c0 2.4-.7 4.5-2 6.3a13.5 13.5 0 0 1-5.7 4.4 20 20 0 0 1-8.4 1.7 19 19 0 0 1-10.5-2.8 12.1 12.1 0 0 1-5.2-8l6-1.5a8.4 8.4 0 0 0 3.3 5 11 11 0 0 0 6.3 1.7c3 0 5.3-.7 7-1.9 1.8-1.3 2.6-2.8 2.6-4.6 0-1.4-.5-2.6-1.5-3.6s-2.5-1.7-4.6-2.2l-6.8-1.6c-3.8-.9-6.6-2.3-8.4-4.1a10 10 0 0 1-2.6-7.2c0-2.3.7-4.3 2-6.1 1.3-1.8 3-3.2 5.4-4.2a19 19 0 0 1 7.7-1.6c4.1 0 7.3 1 9.7 2.7 2.3 1.8 4 4.2 5 7.1Zm28.3-9.2v5.3h-21.4v-5.3h21.4Zm-15.2-10h6.4v39.4c0 1.8.2 3.1.7 4a4 4 0 0 0 2 1.8 11.3 11.3 0 0 0 4.4.3l1.1-.2 1.3 5.7a13 13 0 0 1-4.7.7c-1.8 0-3.5-.3-5.3-1.1-1.7-.8-3-2-4.2-3.5a10.1 10.1 0 0 1-1.7-6v-41Zm58.1 52.2c-2.6 0-5-.5-7.1-1.5-2.1-1-3.8-2.5-5-4.3a12.2 12.2 0 0 1-2-6.9c0-2.4.5-4.3 1.4-5.8 1-1.4 2.2-2.6 3.8-3.4 1.5-.9 3.2-1.5 5.1-2a63 63 0 0 1 11.8-1.7c1.6-.1 2.7-.4 3.5-.9.7-.4 1-1 1-2.1v-.2c0-2.7-.7-4.7-2.1-6.2-1.4-1.5-3.6-2.2-6.5-2.2-3 0-5.4.7-7.2 2a11.6 11.6 0 0 0-3.6 4.2l-6-2.1A14.4 14.4 0 0 1 754 361a24.5 24.5 0 0 1 11-.4c1.6.3 3.3 1 5 2 1.6.9 3 2.3 4 4.3s1.6 4.6 1.6 7.8V402h-6.3v-5.6h-.4c-.4 1-1.1 1.9-2.1 2.9s-2.3 1.9-4 2.6a16 16 0 0 1-6.1 1Zm1-5.7c2.5 0 4.6-.5 6.3-1.5a10 10 0 0 0 5.3-8.7v-5.8c-.3.3-.9.6-1.8.9a29.8 29.8 0 0 1-6.5 1.1l-2.7.3-4.6 1a8 8 0 0 0-3.4 2.2c-1 1-1.3 2.2-1.3 3.8 0 2.2.8 3.9 2.4 5a11 11 0 0 0 6.3 1.7Zm46.2 5.6a18 18 0 0 1-10-2.8c-2.8-1.8-5-4.3-6.4-7.5a25.6 25.6 0 0 1-2.3-11c0-4.2.8-7.9 2.3-11a17.5 17.5 0 0 1 16.3-10.3c3 0 5.5.5 7.8 1.5a14 14 0 0 1 8.5 11.3h-6.3a9.6 9.6 0 0 0-9.9-7.2c-2.5 0-4.6.7-6.5 2a12 12 0 0 0-4.3 5.3 20 20 0 0 0-1.5 8.2c0 3.2.5 6 1.5 8.3a12 12 0 0 0 4.3 5.5c1.8 1.3 4 2 6.5 2 1.7 0 3.2-.3 4.5-.9a9.2 9.2 0 0 0 5.4-6.3h6.3a14.7 14.7 0 0 1-8.2 11.2 18 18 0 0 1-8 1.7Zm43.4-42.1v5.3H826v-5.3h21.3Zm-15.1-10h6.3v39.4c0 1.8.3 3.1.8 4a4 4 0 0 0 2 1.8 11.3 11.3 0 0 0 4.4.3l1-.2 1.4 5.7a13 13 0 0 1-4.7.7c-1.8 0-3.6-.3-5.3-1.1-1.7-.8-3.1-2-4.3-3.5a10.1 10.1 0 0 1-1.6-6v-41Zm24.7 51.2v-41.2h6.3V402h-6.3Zm3.2-48.1c-1.3 0-2.3-.4-3.2-1.3a4 4 0 0 1-1.3-3 4 4 0 0 1 1.3-3c.9-.9 2-1.3 3.2-1.3a4 4 0 0 1 3.1 1.3 4 4 0 0 1 1.4 3 4 4 0 0 1-1.4 3 4 4 0 0 1-3.1 1.3Zm48.4 6.9L893.2 402h-6.5l-15.2-41.2h6.8l11.4 32.8h.5l11.3-32.8h7Zm19.3 42.2c-2.7 0-5-.5-7.2-1.5a13 13 0 0 1-5-4.3 12.2 12.2 0 0 1-2-6.9 9.8 9.8 0 0 1 5.1-9.2c1.7-.9 3.4-1.5 5.3-2a63 63 0 0 1 11.8-1.7c1.6-.1 2.7-.4 3.4-.9.8-.4 1.1-1 1.1-2.1v-.2c0-2.7-.7-4.7-2.2-6.2-1.4-1.5-3.6-2.2-6.5-2.2-3 0-5.4.7-7 2a11 11 0 0 0-3.7 4.2l-6-2.1A14.4 14.4 0 0 1 925 361a24.5 24.5 0 0 1 10.9-.4c1.7.3 3.4 1 5 2 1.6.9 3 2.3 4 4.3 1.1 2 1.7 4.6 1.7 7.8V402h-6.4v-5.6h-.3c-.4 1-1.1 1.9-2.1 2.9a13.2 13.2 0 0 1-10.1 3.6Zm1-5.7c2.4 0 4.5-.5 6.3-1.5a10 10 0 0 0 5.2-8.7v-5.8c-.2.3-.8.6-1.8.9a29.8 29.8 0 0 1-6.5 1.1l-2.6.3-4.6 1a8 8 0 0 0-3.5 2.2c-.8 1-1.3 2.2-1.3 3.8 0 2.2.8 3.9 2.5 5a11 11 0 0 0 6.2 1.7Zm47.4-36.5v5.3h-21.4v-5.3H976Zm-15.2-10h6.3v39.4c0 1.8.3 3.1.8 4a4 4 0 0 0 2 1.8 11.3 11.3 0 0 0 4.4.3l1.1-.2 1.3 5.7a13 13 0 0 1-4.7.7c-1.8 0-3.6-.3-5.3-1.1-1.7-.8-3-2-4.2-3.5a10.1 10.1 0 0 1-1.7-6v-41Zm24.7 51.2v-41.2h6.3V402h-6.3Zm3.2-48.1c-1.2 0-2.3-.4-3.2-1.3a4 4 0 0 1-1.3-3 4 4 0 0 1 1.3-3c1-.9 2-1.3 3.2-1.3 1.2 0 2.3.4 3.2 1.3a4 4 0 0 1 1.3 3 4 4 0 0 1-1.3 3c-.9.9-2 1.3-3.2 1.3Zm31.5 49c-3.7 0-7-1-9.8-2.7a18 18 0 0 1-6.6-7.4c-1.5-3.2-2.3-7-2.3-11.2 0-4.3.8-8 2.3-11.3a18 18 0 0 1 6.6-7.4 18 18 0 0 1 9.8-2.7 17.4 17.4 0 0 1 16.3 10.1c1.6 3.3 2.4 7 2.4 11.3 0 4.3-.8 8-2.4 11.2a17.8 17.8 0 0 1-6.5 7.4 17.8 17.8 0 0 1-9.8 2.7Zm0-5.7c2.8 0 5.1-.8 7-2.2 1.8-1.5 3.1-3.4 4-5.7.9-2.4 1.3-5 1.3-7.7a22 22 0 0 0-1.3-7.7 13 13 0 0 0-4-5.8 10.8 10.8 0 0 0-7-2.2c-2.8 0-5.2.8-7 2.2a13 13 0 0 0-4 5.8 22 22 0 0 0 0 15.4c.8 2.3 2.2 4.2 4 5.7 1.8 1.4 4.2 2.2 7 2.2Zm34.7-20V402h-6.4v-41.2h6.2v6.4h.5c1-2 2.4-3.8 4.4-5 2-1.3 4.5-2 7.6-2 2.8 0 5.3.6 7.4 1.7 2 1.2 3.7 2.9 4.8 5.2 1.2 2.3 1.8 5.2 1.8 8.7V402h-6.4v-25.8c0-3.2-.8-5.7-2.5-7.5a9 9 0 0 0-7-2.8c-2 0-3.7.5-5.3 1.3a9.4 9.4 0 0 0-3.8 3.9c-.9 1.7-1.3 3.7-1.3 6Zm61.4 1.6a58 58 0 0 1 10.2-34.4h5.6c-1.3 1.8-2.5 4-3.7 6.6a63.7 63.7 0 0 0-4.9 18 70.4 70.4 0 0 0 3.9 35c1.4 3.7 3 6.8 4.7 9.2h-5.6a58.1 58.1 0 0 1-10.2-34.4Zm37.3 24.2c-2.7 0-5-.5-7.2-1.5-2.1-1-3.8-2.5-5-4.3a12.1 12.1 0 0 1-2-6.9 9.8 9.8 0 0 1 5.1-9.2c1.7-.9 3.4-1.5 5.3-2a63 63 0 0 1 11.8-1.7 7 7 0 0 0 3.4-.9c.7-.4 1.1-1 1.1-2.1v-.2c0-2.7-.7-4.7-2.2-6.2-1.4-1.5-3.6-2.2-6.5-2.2-3 0-5.4.7-7.1 2-1.7 1.3-3 2.7-3.6 4.2l-6-2.1a14 14 0 0 1 4.3-5.9c1.8-1.4 3.7-2.4 5.9-3a24.5 24.5 0 0 1 10.9-.3c1.7.3 3.4 1 5 2 1.6.9 3 2.3 4 4.3 1.1 2 1.6 4.6 1.6 7.8V402h-6.3v-5.6h-.3a12.4 12.4 0 0 1-6.2 5.5c-1.6.7-3.7 1-6 1Zm1-5.7c2.4 0 4.5-.5 6.3-1.5a10.1 10.1 0 0 0 5.2-8.7v-5.8c-.3.3-.9.6-1.8.9a30.3 30.3 0 0 1-6.5 1.1l-2.6.3-4.7 1a8 8 0 0 0-3.4 2.2c-.9 1-1.3 2.2-1.3 3.8 0 2.2.8 3.9 2.5 5a11 11 0 0 0 6.2 1.7Zm35.8-50.3v55h-6.4v-55h6.4Zm11.5 55v-41.2h6.2v6.2h.4c.8-2 2.1-3.7 4-5a13 13 0 0 1 6.7-1.9 69.3 69.3 0 0 1 3.4.1v6.5a19.5 19.5 0 0 0-3.9-.5c-2 0-3.8.5-5.4 1.3a9.2 9.2 0 0 0-5 8.4V402h-6.4Zm44.2.9a17.7 17.7 0 0 1-17-10 25.3 25.3 0 0 1-2.2-11.2c0-4.2.8-8 2.3-11.2a17.4 17.4 0 0 1 16.3-10.3c2.1 0 4.2.4 6.3 1.1a15.8 15.8 0 0 1 9.9 9.8 27 27 0 0 1 1.5 9.7v2.7h-31.8v-5.4h25.3a14 14 0 0 0-1.3-6.3 10.6 10.6 0 0 0-10-5.9 11 11 0 0 0-6.5 1.9 12.4 12.4 0 0 0-4.2 4.8 14 14 0 0 0-1.5 6.4v3.7c0 3 .6 5.7 1.6 7.9 1.1 2.1 2.6 3.8 4.6 4.9 2 1.1 4.2 1.7 6.7 1.7 1.7 0 3.2-.3 4.5-.7a9.7 9.7 0 0 0 3.5-2.2 9 9 0 0 0 2.3-3.6l6.1 1.7c-.6 2.1-1.7 4-3.2 5.5a15.9 15.9 0 0 1-5.6 3.7 21 21 0 0 1-7.6 1.3Zm38.9 0c-2.6 0-5-.4-7.2-1.4a13 13 0 0 1-5-4.3 12.2 12.2 0 0 1-2-6.9 9.8 9.8 0 0 1 5.1-9.2c1.7-.9 3.4-1.5 5.3-2a63.6 63.6 0 0 1 11.8-1.7c1.6-.1 2.7-.4 3.4-.9.8-.4 1.1-1 1.1-2.1v-.2c0-2.7-.7-4.7-2.1-6.2-1.5-1.5-3.7-2.2-6.6-2.2-3 0-5.4.7-7 2a11 11 0 0 0-3.7 4.2l-6-2.1a14.5 14.5 0 0 1 10.2-8.8 24.5 24.5 0 0 1 10.9-.4c1.7.3 3.4 1 5 2 1.6.9 3 2.3 4 4.3 1.1 2 1.7 4.6 1.7 7.8V402h-6.4v-5.6h-.3a12.3 12.3 0 0 1-6.1 5.5 16 16 0 0 1-6.1 1Zm1-5.6c2.4 0 4.5-.5 6.3-1.5a10 10 0 0 0 5.2-8.7v-5.8c-.3.3-.8.6-1.8.9a29.5 29.5 0 0 1-6.5 1.1l-2.6.3-4.7 1a8 8 0 0 0-3.4 2.2c-.8 1-1.3 2.2-1.3 3.8 0 2.2.8 3.9 2.5 5a11 11 0 0 0 6.2 1.7Zm45 5.6a16.2 16.2 0 0 1-15.3-10 27 27 0 0 1-2.2-11.4c0-4.3.7-8.1 2.2-11.3 1.5-3.2 3.6-5.6 6.2-7.4a16.8 16.8 0 0 1 15.6-1.2c1.5.8 2.7 1.8 3.6 3l2 2.7h.5V347h6.3v55h-6.1v-6.3h-.8l-2 2.8a12.2 12.2 0 0 1-10 4.4Zm.9-5.7c2.5 0 4.6-.7 6.4-2a13 13 0 0 0 4-5.6 23 23 0 0 0 1.4-8.2c0-3.1-.5-5.8-1.4-8.1-.9-2.3-2.2-4.1-4-5.4-1.7-1.3-3.9-2-6.5-2s-4.9.7-6.7 2a12.4 12.4 0 0 0-4 5.6 22 22 0 0 0-1.3 7.9c0 3 .5 5.6 1.4 8a13 13 0 0 0 4 5.7c1.8 1.4 4 2 6.7 2Zm34.6 20.3a13.8 13.8 0 0 1-4.7-.8l1.6-5.6c1.6.4 3 .6 4.1.5 1.2-.2 2.3-.7 3.2-1.6a13 13 0 0 0 2.5-4.6l1.2-3.2-15.2-41.4h6.8l11.4 32.8h.4l11.4-32.8h6.9l-17.5 47.2c-.8 2.1-1.8 4-3 5.3a11 11 0 0 1-4 3.1 12 12 0 0 1-5.1 1ZM1438 403c-2.7 0-5-.5-7.2-1.5a13 13 0 0 1-5-4.3 12.2 12.2 0 0 1-2-6.9 9.8 9.8 0 0 1 5.1-9.2c1.7-.9 3.4-1.5 5.3-2a63.6 63.6 0 0 1 11.8-1.7c1.6-.1 2.7-.4 3.4-.9.8-.4 1.1-1 1.1-2.1v-.2c0-2.7-.7-4.7-2.2-6.2-1.4-1.5-3.6-2.2-6.5-2.2-3 0-5.4.7-7 2a11 11 0 0 0-3.7 4.2l-6-2.1a14 14 0 0 1 4.3-5.9 16 16 0 0 1 5.9-3 24.5 24.5 0 0 1 10.9-.3c1.7.3 3.4 1 5 2 1.6.9 3 2.3 4 4.3 1.1 2 1.7 4.6 1.7 7.8V402h-6.4v-5.6h-.3a12.3 12.3 0 0 1-6.2 5.5 15 15 0 0 1-6 1Zm1-5.7c2.4 0 4.5-.5 6.3-1.5a10 10 0 0 0 5.2-8.7v-5.8c-.3.3-.8.6-1.8.9a30 30 0 0 1-6.5 1.1l-2.6.3-4.6 1a8 8 0 0 0-3.5 2.2c-.8 1-1.3 2.2-1.3 3.8 0 2.2.8 3.9 2.5 5a11 11 0 0 0 6.2 1.7Zm46.2 5.6a17.6 17.6 0 0 1-16.5-10.3 25.6 25.6 0 0 1-2.2-11c0-4.2.8-7.9 2.3-11a17.5 17.5 0 0 1 16.3-10.3c2.9 0 5.5.5 7.8 1.5a15 15 0 0 1 5.7 4.5 14 14 0 0 1 2.8 6.8h-6.4a9.8 9.8 0 0 0-9.8-7.2 11 11 0 0 0-6.5 2c-1.9 1.2-3.3 3-4.4 5.3a20 20 0 0 0-1.5 8.2c0 3.2.5 6 1.5 8.3 1 2.4 2.5 4.2 4.3 5.5 1.9 1.3 4 2 6.6 2 1.6 0 3.1-.3 4.5-.9a9.3 9.3 0 0 0 5.3-6.3h6.4a14.6 14.6 0 0 1-8.2 11.2c-2.3 1.1-5 1.7-8 1.7Zm43.4-42.1v5.3h-21.4v-5.3h21.4Zm-15.2-10h6.4v39.4c0 1.8.2 3.1.8 4a4 4 0 0 0 2 1.8 11.2 11.2 0 0 0 4.4.3l1-.2 1.3 5.7a13 13 0 0 1-4.7.7c-1.8 0-3.5-.3-5.3-1.1-1.6-.8-3-2-4.2-3.5a10.1 10.1 0 0 1-1.7-6v-41Zm24.7 51.2v-41.2h6.4V402h-6.4Zm3.2-48.1c-1.2 0-2.3-.4-3.2-1.3a4 4 0 0 1-1.3-3 4 4 0 0 1 1.3-3c1-.9 2-1.3 3.2-1.3 1.3 0 2.3.4 3.2 1.3a4 4 0 0 1 1.3 3 4 4 0 0 1-1.3 3c-.9.9-2 1.3-3.2 1.3Zm48.5 6.9-15.3 41.2h-6.4l-15.3-41.2h7l11.3 32.8h.4l11.4-32.8h6.9ZM1609 403c-2.6 0-5-.5-7.1-1.5-2.1-1-3.8-2.5-5-4.3a12.2 12.2 0 0 1-2-6.9c0-2.4.5-4.3 1.4-5.8 1-1.4 2.2-2.6 3.8-3.4 1.5-.9 3.3-1.5 5.1-2a63.6 63.6 0 0 1 11.8-1.7 7 7 0 0 0 3.5-.9c.7-.4 1-1 1-2.1v-.2c0-2.7-.6-4.7-2-6.2-1.5-1.5-3.7-2.2-6.6-2.2a11.5 11.5 0 0 0-10.8 6.2l-6-2.1c1.1-2.5 2.5-4.5 4.3-5.9a16 16 0 0 1 6-3 24.5 24.5 0 0 1 10.8-.3c1.8.3 3.4 1 5 2 1.7.9 3 2.3 4.1 4.3 1 2 1.6 4.6 1.6 7.8V402h-6.3v-5.6h-.3a12.3 12.3 0 0 1-6.2 5.5c-1.6.7-3.7 1-6 1Zm1-5.7c2.5 0 4.6-.5 6.3-1.5a10 10 0 0 0 5.3-8.7v-5.8c-.3.3-.9.6-1.8.9a30 30 0 0 1-6.5 1.1l-2.7.3-4.6 1a8 8 0 0 0-3.4 2.2c-.9 1-1.3 2.2-1.3 3.8 0 2.2.8 3.9 2.4 5a11 11 0 0 0 6.3 1.7Zm47.4-36.5v5.3H1636v-5.3h21.4Zm-15.1-10h6.3v39.4c0 1.8.3 3.1.8 4a4 4 0 0 0 2 1.8 11.2 11.2 0 0 0 4.4.3l1-.2 1.4 5.7a13 13 0 0 1-4.8.7c-1.8 0-3.5-.3-5.2-1.1-1.7-.8-3.1-2-4.3-3.5a10.1 10.1 0 0 1-1.6-6v-41Zm41.5 52c-4 0-7.4-.8-10.3-2.6-2.8-1.7-5-4.2-6.6-7.4a25.3 25.3 0 0 1-2.3-11.1c0-4.2.7-8 2.3-11.2a17.4 17.4 0 0 1 16.3-10.3c2 0 4.2.4 6.3 1.1a15.8 15.8 0 0 1 9.8 9.8 27 27 0 0 1 1.6 9.7v2.7H1669v-5.4h25.3c0-2.4-.4-4.5-1.4-6.3a10.6 10.6 0 0 0-9.8-5.9 11 11 0 0 0-6.6 1.9 12.4 12.4 0 0 0-4.2 4.8 14 14 0 0 0-1.5 6.4v3.7c0 3 .5 5.7 1.6 7.9 1.1 2.1 2.6 3.8 4.5 4.9 2 1.1 4.2 1.7 6.8 1.7 1.7 0 3.2-.3 4.5-.7a9.7 9.7 0 0 0 3.5-2.2 9 9 0 0 0 2.3-3.6l6.1 1.7c-.6 2.1-1.7 4-3.2 5.5a15.9 15.9 0 0 1-5.7 3.7 21 21 0 0 1-7.5 1.3Zm42.3 0a16.2 16.2 0 0 1-15.3-10c-1.5-3.2-2.2-7-2.2-11.3 0-4.3.7-8.1 2.2-11.3a16.4 16.4 0 0 1 15.4-10c2.7 0 4.8.5 6.3 1.4a9 9 0 0 1 3.6 3c.9 1 1.5 2 2 2.7h.5V347h6.4v55h-6.2v-6.3h-.7l-2 2.8c-.8 1.1-2 2.1-3.7 3-1.6 1-3.7 1.4-6.3 1.4Zm.8-5.6c2.6 0 4.7-.7 6.5-2a14 14 0 0 0 4-5.6 23 23 0 0 0 1.3-8.2c0-3.1-.4-5.8-1.3-8.1s-2.2-4.1-4-5.4c-1.7-1.3-3.9-2-6.5-2-2.7 0-4.9.7-6.7 2a12.4 12.4 0 0 0-4 5.6c-.9 2.4-1.3 5-1.3 7.9 0 3 .4 5.6 1.3 8a13 13 0 0 0 4 5.7c1.9 1.4 4 2 6.7 2Zm44-18.4a57.7 57.7 0 0 1-10.2 34.4h-5.5a61.4 61.4 0 0 0 8.5-24.6 66.5 66.5 0 0 0-.5-22.8c-.8-4.3-2-8.4-3.3-12.2a38 38 0 0 0-4.7-9.2h5.6a57.6 57.6 0 0 1 10.2 34.4ZM825 554a5 5 0 0 0 0 10v-10Zm1246.5 8.5c2-2 2-5 0-7l-31.8-31.9a5 5 0 0 0-7 7.1l28.2 28.3-28.3 28.3a5 5 0 0 0 7.1 7l31.8-31.8ZM825 564h1243v-10H825v10Z"/><path fill="#87A37A" d="M2068 506a5 5 0 0 0 0-10v10Zm-1246.5-8.5a5 5 0 0 0 0 7l31.8 31.9a5 5 0 1 0 7-7.1L832.2 501l28.3-28.3a5 5 0 1 0-7.1-7l-31.8 31.8ZM2068 496H825v10h1243v-10Z"/><circle cx="648" cy="559" r="88" fill="#DD9C63"/><circle cx="2235" cy="559" r="88" fill="#DD9C63" fill-opacity=".4"/></svg>