<svg width="2302" height="1190" viewBox="0 0 2302 1190" fill="none" xmlns="http://www.w3.org/2000/svg">
<rect y="0.923828" width="2301.52" height="1188.46" rx="90.4922" fill="#171717"/>
<path d="M92.2746 69.9699V140.17H83.7738V78.882H83.3625L66.2238 90.2621V81.6242L83.7738 69.9699H92.2746ZM114.349 140.718C112.658 140.718 111.207 140.113 109.996 138.902C108.785 137.691 108.179 136.239 108.179 134.548C108.179 132.857 108.785 131.406 109.996 130.195C111.207 128.984 112.658 128.379 114.349 128.379C116.04 128.379 117.491 128.984 118.702 130.195C119.914 131.406 120.519 132.857 120.519 134.548C120.519 135.668 120.234 136.696 119.662 137.633C119.114 138.57 118.371 139.324 117.434 139.896C116.52 140.444 115.492 140.718 114.349 140.718Z" fill="white"/>
<path d="M802.885 837.207V832.494H835.791V837.207H821.994V876.369H816.681V837.207H802.885ZM848.361 856.574V876.369H843.305V832.494H848.361V848.604H848.79C849.561 846.905 850.718 845.555 852.26 844.555C853.817 843.541 855.888 843.034 858.473 843.034C860.715 843.034 862.679 843.484 864.364 844.384C866.05 845.27 867.356 846.634 868.285 848.476C869.227 850.304 869.699 852.632 869.699 855.46V876.369H864.643V855.803C864.643 853.189 863.964 851.168 862.608 849.74C861.265 848.297 859.401 847.576 857.016 847.576C855.359 847.576 853.874 847.926 852.56 848.626C851.26 849.326 850.232 850.347 849.475 851.689C848.732 853.032 848.361 854.66 848.361 856.574ZM878.948 876.369V843.463H884.004V876.369H878.948ZM881.519 837.979C880.534 837.979 879.684 837.643 878.97 836.972C878.27 836.3 877.92 835.493 877.92 834.551C877.92 833.608 878.27 832.801 878.97 832.13C879.684 831.459 880.534 831.123 881.519 831.123C882.505 831.123 883.347 831.459 884.047 832.13C884.761 832.801 885.118 833.608 885.118 834.551C885.118 835.493 884.761 836.3 884.047 836.972C883.347 837.643 882.505 837.979 881.519 837.979ZM916.573 850.833L912.031 852.118C911.746 851.361 911.324 850.625 910.767 849.911C910.224 849.183 909.482 848.583 908.539 848.112C907.597 847.64 906.39 847.405 904.919 847.405C902.905 847.405 901.227 847.869 899.884 848.797C898.556 849.711 897.892 850.875 897.892 852.289C897.892 853.546 898.349 854.539 899.263 855.267C900.177 855.996 901.605 856.603 903.548 857.088L908.432 858.288C911.374 859.002 913.567 860.095 915.009 861.566C916.452 863.022 917.173 864.901 917.173 867.2C917.173 869.085 916.63 870.771 915.545 872.256C914.473 873.741 912.974 874.912 911.046 875.769C909.118 876.626 906.875 877.055 904.319 877.055C900.962 877.055 898.185 876.326 895.985 874.87C893.786 873.413 892.393 871.285 891.808 868.485L896.606 867.286C897.063 869.057 897.927 870.385 899.199 871.27C900.484 872.156 902.162 872.599 904.233 872.599C906.59 872.599 908.461 872.099 909.846 871.099C911.246 870.085 911.945 868.871 911.945 867.457C911.945 866.314 911.546 865.358 910.746 864.586C909.946 863.801 908.718 863.215 907.061 862.83L901.577 861.544C898.563 860.83 896.349 859.723 894.935 858.224C893.536 856.71 892.836 854.817 892.836 852.546C892.836 850.69 893.357 849.047 894.4 847.619C895.457 846.191 896.892 845.07 898.706 844.256C900.534 843.441 902.605 843.034 904.919 843.034C908.175 843.034 910.732 843.749 912.588 845.177C914.459 846.605 915.787 848.49 916.573 850.833ZM941.751 876.369V843.463H946.807V876.369H941.751ZM944.322 837.979C943.336 837.979 942.486 837.643 941.772 836.972C941.072 836.3 940.722 835.493 940.722 834.551C940.722 833.608 941.072 832.801 941.772 832.13C942.486 831.459 943.336 831.123 944.322 831.123C945.307 831.123 946.15 831.459 946.849 832.13C947.564 832.801 947.921 833.608 947.921 834.551C947.921 835.493 947.564 836.3 946.849 836.972C946.15 837.643 945.307 837.979 944.322 837.979ZM979.375 850.833L974.834 852.118C974.548 851.361 974.127 850.625 973.57 849.911C973.027 849.183 972.284 848.583 971.342 848.112C970.399 847.64 969.192 847.405 967.721 847.405C965.707 847.405 964.029 847.869 962.687 848.797C961.358 849.711 960.694 850.875 960.694 852.289C960.694 853.546 961.151 854.539 962.065 855.267C962.979 855.996 964.408 856.603 966.35 857.088L971.235 858.288C974.177 859.002 976.369 860.095 977.812 861.566C979.254 863.022 979.975 864.901 979.975 867.2C979.975 869.085 979.433 870.771 978.347 872.256C977.276 873.741 975.776 874.912 973.848 875.769C971.92 876.626 969.678 877.055 967.121 877.055C963.765 877.055 960.987 876.326 958.788 874.87C956.588 873.413 955.196 871.285 954.61 868.485L959.409 867.286C959.866 869.057 960.73 870.385 962.001 871.27C963.287 872.156 964.965 872.599 967.036 872.599C969.392 872.599 971.263 872.099 972.649 871.099C974.048 870.085 974.748 868.871 974.748 867.457C974.748 866.314 974.348 865.358 973.548 864.586C972.749 863.801 971.52 863.215 969.864 862.83L964.379 861.544C961.366 860.83 959.152 859.723 957.738 858.224C956.338 856.71 955.638 854.817 955.638 852.546C955.638 850.69 956.16 849.047 957.202 847.619C958.259 846.191 959.695 845.07 961.508 844.256C963.337 843.441 965.407 843.034 967.721 843.034C970.978 843.034 973.534 843.749 975.391 845.177C977.262 846.605 978.59 848.49 979.375 850.833ZM1014.24 877.14C1012.15 877.14 1010.26 876.748 1008.56 875.962C1006.86 875.162 1005.51 874.013 1004.51 872.513C1003.51 870.999 1003.01 869.171 1003.01 867.029C1003.01 865.143 1003.38 863.615 1004.12 862.444C1004.87 861.259 1005.86 860.33 1007.1 859.659C1008.35 858.988 1009.72 858.488 1011.22 858.159C1012.73 857.817 1014.25 857.545 1015.78 857.345C1017.78 857.088 1019.4 856.895 1020.64 856.767C1021.9 856.624 1022.81 856.388 1023.38 856.06C1023.97 855.731 1024.26 855.16 1024.26 854.346V854.175C1024.26 852.061 1023.68 850.418 1022.53 849.247C1021.38 848.076 1019.65 847.49 1017.32 847.49C1014.91 847.49 1013.02 848.019 1011.64 849.076C1010.27 850.133 1009.31 851.261 1008.75 852.461L1003.95 850.747C1004.81 848.747 1005.95 847.191 1007.38 846.077C1008.82 844.948 1010.39 844.163 1012.09 843.72C1013.81 843.263 1015.49 843.034 1017.15 843.034C1018.21 843.034 1019.42 843.163 1020.79 843.42C1022.18 843.663 1023.51 844.17 1024.8 844.941C1026.1 845.712 1027.18 846.876 1028.03 848.433C1028.89 849.99 1029.32 852.075 1029.32 854.689V876.369H1024.26V871.913H1024.01C1023.66 872.627 1023.09 873.391 1022.29 874.205C1021.49 875.019 1020.43 875.712 1019.1 876.283C1017.77 876.855 1016.15 877.14 1014.24 877.14ZM1015.01 872.599C1017.01 872.599 1018.69 872.206 1020.06 871.42C1021.45 870.635 1022.49 869.621 1023.19 868.378C1023.91 867.136 1024.26 865.829 1024.26 864.458V859.83C1024.05 860.087 1023.58 860.323 1022.85 860.537C1022.13 860.737 1021.31 860.916 1020.36 861.073C1019.44 861.216 1018.53 861.344 1017.64 861.458C1016.77 861.558 1016.06 861.644 1015.52 861.716C1014.21 861.887 1012.98 862.165 1011.84 862.551C1010.71 862.922 1009.79 863.487 1009.1 864.244C1008.41 864.986 1008.07 866 1008.07 867.286C1008.07 869.042 1008.72 870.371 1010.02 871.27C1011.33 872.156 1012.99 872.599 1015.01 872.599ZM1053.8 846.205V842.349C1053.8 841.178 1054.01 839.935 1054.42 838.621C1054.85 837.293 1055.46 836.015 1056.26 834.786C1057.08 833.544 1058.06 832.466 1059.2 831.552L1061.94 833.78C1061.04 835.065 1060.26 836.407 1059.58 837.807C1058.93 839.192 1058.6 840.678 1058.6 842.263V846.205H1053.8ZM1064.77 846.205V842.349C1064.77 841.178 1064.98 839.935 1065.39 838.621C1065.82 837.293 1066.43 836.015 1067.23 834.786C1068.05 833.544 1069.03 832.466 1070.17 831.552L1072.91 833.78C1072.01 835.065 1071.22 836.407 1070.55 837.807C1069.9 839.192 1069.57 840.678 1069.57 842.263V846.205H1064.77ZM1078.49 888.709V843.463H1083.38V848.69H1083.97C1084.35 848.119 1084.86 847.39 1085.52 846.505C1086.19 845.605 1087.15 844.805 1088.39 844.106C1089.65 843.391 1091.34 843.034 1093.49 843.034C1096.26 843.034 1098.7 843.727 1100.81 845.112C1102.93 846.498 1104.58 848.462 1105.76 851.004C1106.95 853.546 1107.54 856.545 1107.54 860.002C1107.54 863.487 1106.95 866.507 1105.76 869.064C1104.58 871.606 1102.93 873.577 1100.84 874.977C1098.74 876.362 1096.31 877.055 1093.57 877.055C1091.46 877.055 1089.77 876.705 1088.5 876.005C1087.22 875.291 1086.25 874.484 1085.56 873.584C1084.87 872.67 1084.35 871.913 1083.97 871.313H1083.55V888.709H1078.49ZM1083.46 859.916C1083.46 862.401 1083.83 864.593 1084.55 866.493C1085.28 868.378 1086.35 869.856 1087.75 870.928C1089.15 871.984 1090.86 872.513 1092.89 872.513C1095 872.513 1096.76 871.956 1098.18 870.842C1099.61 869.714 1100.68 868.2 1101.39 866.3C1102.12 864.386 1102.48 862.258 1102.48 859.916C1102.48 857.602 1102.13 855.517 1101.41 853.66C1100.71 851.789 1099.65 850.311 1098.22 849.226C1096.81 848.126 1095.03 847.576 1092.89 847.576C1090.83 847.576 1089.1 848.097 1087.7 849.14C1086.3 850.168 1085.25 851.611 1084.53 853.468C1083.82 855.31 1083.46 857.459 1083.46 859.916ZM1124.94 877.14C1122.85 877.14 1120.96 876.748 1119.26 875.962C1117.56 875.162 1116.21 874.013 1115.21 872.513C1114.21 870.999 1113.71 869.171 1113.71 867.029C1113.71 865.143 1114.08 863.615 1114.82 862.444C1115.57 861.259 1116.56 860.33 1117.8 859.659C1119.04 858.988 1120.42 858.488 1121.92 858.159C1123.43 857.817 1124.95 857.545 1126.48 857.345C1128.48 857.088 1130.1 856.895 1131.34 856.767C1132.6 856.624 1133.51 856.388 1134.08 856.06C1134.67 855.731 1134.96 855.16 1134.96 854.346V854.175C1134.96 852.061 1134.38 850.418 1133.23 849.247C1132.08 848.076 1130.35 847.49 1128.02 847.49C1125.61 847.49 1123.72 848.019 1122.34 849.076C1120.97 850.133 1120.01 851.261 1119.45 852.461L1114.65 850.747C1115.51 848.747 1116.65 847.191 1118.08 846.077C1119.52 844.948 1121.09 844.163 1122.79 843.72C1124.51 843.263 1126.19 843.034 1127.85 843.034C1128.91 843.034 1130.12 843.163 1131.49 843.42C1132.88 843.663 1134.21 844.17 1135.5 844.941C1136.8 845.712 1137.88 846.876 1138.73 848.433C1139.59 849.99 1140.02 852.075 1140.02 854.689V876.369H1134.96V871.913H1134.71C1134.36 872.627 1133.79 873.391 1132.99 874.205C1132.19 875.019 1131.13 875.712 1129.8 876.283C1128.47 876.855 1126.85 877.14 1124.94 877.14ZM1125.71 872.599C1127.71 872.599 1129.39 872.206 1130.76 871.42C1132.15 870.635 1133.19 869.621 1133.89 868.378C1134.61 867.136 1134.96 865.829 1134.96 864.458V859.83C1134.75 860.087 1134.28 860.323 1133.55 860.537C1132.83 860.737 1132.01 860.916 1131.06 861.073C1130.14 861.216 1129.23 861.344 1128.34 861.458C1127.47 861.558 1126.76 861.644 1126.22 861.716C1124.91 861.887 1123.68 862.165 1122.54 862.551C1121.41 862.922 1120.49 863.487 1119.79 864.244C1119.11 864.986 1118.77 866 1118.77 867.286C1118.77 869.042 1119.42 870.371 1120.72 871.27C1122.03 872.156 1123.69 872.599 1125.71 872.599ZM1149.25 876.369V843.463H1154.13V848.433H1154.47C1155.07 846.805 1156.16 845.484 1157.73 844.47C1159.3 843.456 1161.07 842.949 1163.04 842.949C1163.41 842.949 1163.88 842.956 1164.44 842.97C1164.99 842.984 1165.41 843.006 1165.7 843.034V848.176C1165.53 848.133 1165.14 848.069 1164.52 847.983C1163.92 847.883 1163.29 847.833 1162.61 847.833C1161.02 847.833 1159.59 848.169 1158.33 848.84C1157.09 849.497 1156.1 850.411 1155.37 851.582C1154.66 852.739 1154.3 854.06 1154.3 855.546V876.369H1149.25ZM1188.07 843.463V847.748H1171.01V843.463H1188.07ZM1175.98 835.579H1181.04V866.943C1181.04 868.371 1181.25 869.442 1181.66 870.156C1182.09 870.856 1182.63 871.328 1183.29 871.57C1183.96 871.799 1184.67 871.913 1185.41 871.913C1185.97 871.913 1186.42 871.885 1186.78 871.827C1187.14 871.756 1187.42 871.699 1187.64 871.656L1188.67 876.198C1188.32 876.326 1187.84 876.455 1187.23 876.583C1186.62 876.726 1185.84 876.798 1184.89 876.798C1183.47 876.798 1182.07 876.491 1180.7 875.876C1179.34 875.262 1178.21 874.327 1177.31 873.07C1176.43 871.813 1175.98 870.228 1175.98 868.314V835.579ZM1195.67 876.369V843.463H1200.73V876.369H1195.67ZM1198.24 837.979C1197.26 837.979 1196.41 837.643 1195.69 836.972C1194.99 836.3 1194.64 835.493 1194.64 834.551C1194.64 833.608 1194.99 832.801 1195.69 832.13C1196.41 831.459 1197.26 831.123 1198.24 831.123C1199.23 831.123 1200.07 831.459 1200.77 832.13C1201.48 832.801 1201.84 833.608 1201.84 834.551C1201.84 835.493 1201.48 836.3 1200.77 836.972C1200.07 837.643 1199.23 837.979 1198.24 837.979ZM1223.36 877.055C1220.27 877.055 1217.61 876.326 1215.39 874.87C1213.16 873.413 1211.44 871.406 1210.24 868.85C1209.04 866.293 1208.44 863.372 1208.44 860.087C1208.44 856.745 1209.06 853.796 1210.29 851.24C1211.53 848.669 1213.26 846.662 1215.47 845.22C1217.7 843.763 1220.3 843.034 1223.27 843.034C1225.58 843.034 1227.67 843.463 1229.53 844.32C1231.38 845.177 1232.9 846.376 1234.09 847.919C1235.27 849.461 1236.01 851.261 1236.29 853.318H1231.24C1230.85 851.818 1230 850.49 1228.67 849.333C1227.35 848.162 1225.58 847.576 1223.36 847.576C1221.38 847.576 1219.66 848.09 1218.17 849.119C1216.7 850.133 1215.55 851.568 1214.72 853.425C1213.91 855.267 1213.5 857.431 1213.5 859.916C1213.5 862.458 1213.9 864.672 1214.7 866.557C1215.51 868.443 1216.66 869.906 1218.13 870.949C1219.61 871.992 1221.36 872.513 1223.36 872.513C1224.67 872.513 1225.86 872.284 1226.93 871.827C1228 871.37 1228.91 870.713 1229.65 869.856C1230.4 869 1230.92 867.971 1231.24 866.771H1236.29C1236.01 868.714 1235.3 870.463 1234.17 872.02C1233.06 873.563 1231.58 874.791 1229.74 875.705C1227.91 876.605 1225.78 877.055 1223.36 877.055ZM1248.74 832.494V876.369H1243.69V832.494H1248.74ZM1271.8 877.055C1268.63 877.055 1265.89 876.355 1263.59 874.955C1261.31 873.541 1259.54 871.57 1258.3 869.042C1257.07 866.5 1256.46 863.544 1256.46 860.173C1256.46 856.802 1257.07 853.832 1258.3 851.261C1259.54 848.676 1261.27 846.662 1263.49 845.22C1265.71 843.763 1268.31 843.034 1271.28 843.034C1273 843.034 1274.69 843.32 1276.36 843.891C1278.03 844.463 1279.55 845.391 1280.93 846.676C1282.3 847.948 1283.39 849.633 1284.2 851.732C1285.02 853.832 1285.42 856.417 1285.42 859.488V861.63H1260.06V857.26H1280.28C1280.28 855.403 1279.91 853.746 1279.17 852.289C1278.44 850.833 1277.4 849.683 1276.04 848.84C1274.7 847.997 1273.11 847.576 1271.28 847.576C1269.27 847.576 1267.53 848.076 1266.06 849.076C1264.6 850.061 1263.48 851.347 1262.69 852.932C1261.91 854.517 1261.52 856.217 1261.52 858.031V860.944C1261.52 863.429 1261.94 865.536 1262.8 867.264C1263.67 868.978 1264.88 870.285 1266.42 871.185C1267.96 872.07 1269.76 872.513 1271.8 872.513C1273.13 872.513 1274.33 872.327 1275.4 871.956C1276.48 871.57 1277.42 870.999 1278.2 870.242C1278.99 869.471 1279.6 868.514 1280.03 867.371L1284.91 868.742C1284.4 870.399 1283.53 871.856 1282.32 873.113C1281.1 874.355 1279.6 875.327 1277.82 876.026C1276.03 876.712 1274.03 877.055 1271.8 877.055ZM1297.57 832.494V836.35C1297.57 837.521 1297.36 838.771 1296.93 840.099C1296.51 841.413 1295.9 842.692 1295.09 843.934C1294.29 845.162 1293.31 846.234 1292.17 847.148L1289.43 844.92C1290.33 843.634 1291.11 842.299 1291.77 840.914C1292.44 839.514 1292.77 838.021 1292.77 836.436V832.494H1297.57ZM1308.54 832.494V836.35C1308.54 837.521 1308.33 838.771 1307.9 840.099C1307.48 841.413 1306.87 842.692 1306.05 843.934C1305.25 845.162 1304.28 846.234 1303.14 847.148L1300.4 844.92C1301.3 843.634 1302.08 842.299 1302.73 840.914C1303.41 839.514 1303.74 838.021 1303.74 836.436V832.494H1308.54ZM1333.74 876.369V832.494H1338.8V848.69H1339.23C1339.6 848.119 1340.11 847.39 1340.77 846.505C1341.44 845.605 1342.4 844.805 1343.64 844.106C1344.9 843.391 1346.6 843.034 1348.74 843.034C1351.51 843.034 1353.95 843.727 1356.07 845.112C1358.18 846.498 1359.83 848.462 1361.02 851.004C1362.2 853.546 1362.79 856.545 1362.79 860.002C1362.79 863.487 1362.2 866.507 1361.02 869.064C1359.83 871.606 1358.19 873.577 1356.09 874.977C1353.99 876.362 1351.57 877.055 1348.83 877.055C1346.71 877.055 1345.02 876.705 1343.75 876.005C1342.48 875.291 1341.5 874.484 1340.81 873.584C1340.13 872.67 1339.6 871.913 1339.23 871.313H1338.63V876.369H1333.74ZM1338.71 859.916C1338.71 862.401 1339.08 864.593 1339.81 866.493C1340.54 868.378 1341.6 869.856 1343 870.928C1344.4 871.984 1346.11 872.513 1348.14 872.513C1350.25 872.513 1352.02 871.956 1353.43 870.842C1354.86 869.714 1355.93 868.2 1356.65 866.3C1357.37 864.386 1357.74 862.258 1357.74 859.916C1357.74 857.602 1357.38 855.517 1356.67 853.66C1355.97 851.789 1354.9 850.311 1353.48 849.226C1352.06 848.126 1350.28 847.576 1348.14 847.576C1346.08 847.576 1344.36 848.097 1342.96 849.14C1341.56 850.168 1340.5 851.611 1339.79 853.468C1339.07 855.31 1338.71 857.459 1338.71 859.916ZM1375.58 832.494V876.369H1370.53V832.494H1375.58ZM1398.21 877.055C1395.24 877.055 1392.64 876.348 1390.39 874.934C1388.16 873.52 1386.42 871.542 1385.17 869C1383.92 866.457 1383.3 863.487 1383.3 860.087C1383.3 856.66 1383.92 853.668 1385.17 851.111C1386.42 848.554 1388.16 846.569 1390.39 845.155C1392.64 843.741 1395.24 843.034 1398.21 843.034C1401.18 843.034 1403.78 843.741 1406.01 845.155C1408.25 846.569 1410 848.554 1411.24 851.111C1412.49 853.668 1413.12 856.66 1413.12 860.087C1413.12 863.487 1412.49 866.457 1411.24 869C1410 871.542 1408.25 873.52 1406.01 874.934C1403.78 876.348 1401.18 877.055 1398.21 877.055ZM1398.21 872.513C1400.47 872.513 1402.33 871.935 1403.78 870.778C1405.24 869.621 1406.32 868.1 1407.02 866.214C1407.72 864.329 1408.07 862.287 1408.07 860.087C1408.07 857.888 1407.72 855.838 1407.02 853.939C1406.32 852.039 1405.24 850.504 1403.78 849.333C1402.33 848.162 1400.47 847.576 1398.21 847.576C1395.96 847.576 1394.1 848.162 1392.64 849.333C1391.19 850.504 1390.11 852.039 1389.41 853.939C1388.71 855.838 1388.36 857.888 1388.36 860.087C1388.36 862.287 1388.71 864.329 1389.41 866.214C1390.11 868.1 1391.19 869.621 1392.64 870.778C1394.1 871.935 1395.96 872.513 1398.21 872.513ZM1434.21 877.055C1431.12 877.055 1428.47 876.326 1426.24 874.87C1424.01 873.413 1422.3 871.406 1421.1 868.85C1419.9 866.293 1419.3 863.372 1419.3 860.087C1419.3 856.745 1419.91 853.796 1421.14 851.24C1422.38 848.669 1424.11 846.662 1426.33 845.22C1428.55 843.763 1431.15 843.034 1434.12 843.034C1436.44 843.034 1438.52 843.463 1440.38 844.32C1442.24 845.177 1443.76 846.376 1444.94 847.919C1446.13 849.461 1446.86 851.261 1447.15 853.318H1442.09C1441.71 851.818 1440.85 850.49 1439.52 849.333C1438.21 848.162 1436.44 847.576 1434.21 847.576C1432.24 847.576 1430.51 848.09 1429.02 849.119C1427.55 850.133 1426.4 851.568 1425.58 853.425C1424.76 855.267 1424.35 857.431 1424.35 859.916C1424.35 862.458 1424.75 864.672 1425.55 866.557C1426.37 868.443 1427.51 869.906 1428.98 870.949C1430.47 871.992 1432.21 872.513 1434.21 872.513C1435.52 872.513 1436.72 872.284 1437.79 871.827C1438.86 871.37 1439.76 870.713 1440.51 869.856C1441.25 869 1441.78 867.971 1442.09 866.771H1447.15C1446.86 868.714 1446.16 870.463 1445.03 872.02C1443.91 873.563 1442.44 874.791 1440.59 875.705C1438.77 876.605 1436.64 877.055 1434.21 877.055ZM1459.25 864.372L1459.17 858.116H1460.2L1474.59 843.463H1480.85L1465.51 858.973H1465.08L1459.25 864.372ZM1454.54 876.369V832.494H1459.6V876.369H1454.54ZM1475.45 876.369L1462.59 860.087L1466.19 856.574L1481.88 876.369H1475.45ZM1491.04 876.712C1489.98 876.712 1489.08 876.333 1488.32 875.576C1487.56 874.82 1487.18 873.913 1487.18 872.856C1487.18 871.799 1487.56 870.892 1488.32 870.135C1489.08 869.378 1489.98 869 1491.04 869C1492.1 869 1493 869.378 1493.76 870.135C1494.52 870.892 1494.9 871.799 1494.9 872.856C1494.9 873.556 1494.72 874.198 1494.36 874.784C1494.02 875.369 1493.55 875.841 1492.97 876.198C1492.4 876.541 1491.75 876.712 1491.04 876.712ZM350.536 905.494V949.369H345.223V905.494H350.536ZM374.814 916.463V920.748H357.761V916.463H374.814ZM362.731 908.579H367.787V939.943C367.787 941.371 367.994 942.442 368.409 943.156C368.837 943.856 369.38 944.328 370.037 944.57C370.708 944.799 371.415 944.913 372.158 944.913C372.715 944.913 373.172 944.885 373.529 944.827C373.886 944.756 374.171 944.699 374.386 944.656L375.414 949.198C375.071 949.326 374.593 949.455 373.979 949.583C373.364 949.726 372.586 949.798 371.643 949.798C370.215 949.798 368.816 949.491 367.445 948.876C366.088 948.262 364.959 947.327 364.06 946.07C363.174 944.813 362.731 943.228 362.731 941.314V908.579ZM412.755 950.055C409.67 950.055 407.013 949.326 404.785 947.87C402.557 946.413 400.843 944.406 399.644 941.85C398.444 939.293 397.844 936.372 397.844 933.087C397.844 929.745 398.458 926.796 399.687 924.24C400.929 921.669 402.657 919.662 404.871 918.22C407.099 916.763 409.698 916.034 412.669 916.034C414.983 916.034 417.068 916.463 418.925 917.32C420.781 918.177 422.303 919.376 423.488 920.919C424.673 922.461 425.409 924.261 425.695 926.318H420.639C420.253 924.818 419.396 923.49 418.068 922.333C416.754 921.162 414.983 920.576 412.755 920.576C410.784 920.576 409.056 921.09 407.57 922.119C406.099 923.133 404.95 924.568 404.121 926.425C403.307 928.267 402.9 930.431 402.9 932.916C402.9 935.458 403.3 937.672 404.1 939.557C404.914 941.443 406.057 942.906 407.528 943.949C409.013 944.992 410.755 945.513 412.755 945.513C414.069 945.513 415.261 945.284 416.333 944.827C417.404 944.37 418.311 943.713 419.053 942.856C419.796 942 420.324 940.971 420.639 939.771H425.695C425.409 941.714 424.702 943.463 423.574 945.02C422.46 946.563 420.981 947.791 419.139 948.705C417.311 949.605 415.183 950.055 412.755 950.055ZM442.769 950.14C440.684 950.14 438.791 949.748 437.092 948.962C435.392 948.162 434.043 947.013 433.043 945.513C432.043 943.999 431.543 942.171 431.543 940.029C431.543 938.143 431.914 936.615 432.657 935.444C433.4 934.259 434.392 933.33 435.635 932.659C436.878 931.988 438.249 931.488 439.748 931.159C441.262 930.817 442.783 930.545 444.311 930.345C446.311 930.088 447.932 929.895 449.175 929.767C450.431 929.624 451.345 929.388 451.917 929.06C452.502 928.731 452.795 928.16 452.795 927.346V927.175C452.795 925.061 452.217 923.418 451.06 922.247C449.917 921.076 448.182 920.49 445.854 920.49C443.44 920.49 441.548 921.019 440.177 922.076C438.806 923.133 437.842 924.261 437.285 925.461L432.486 923.747C433.343 921.747 434.485 920.191 435.914 919.077C437.356 917.948 438.927 917.163 440.627 916.72C442.341 916.263 444.026 916.034 445.683 916.034C446.739 916.034 447.953 916.163 449.325 916.42C450.71 916.663 452.045 917.17 453.331 917.941C454.63 918.712 455.709 919.876 456.566 921.433C457.423 922.99 457.851 925.075 457.851 927.689V949.369H452.795V944.913H452.538C452.195 945.627 451.624 946.391 450.824 947.205C450.024 948.019 448.96 948.712 447.632 949.283C446.304 949.855 444.683 950.14 442.769 950.14ZM443.54 945.599C445.54 945.599 447.225 945.206 448.596 944.42C449.982 943.635 451.024 942.621 451.724 941.378C452.438 940.136 452.795 938.829 452.795 937.458V932.83C452.581 933.087 452.11 933.323 451.381 933.537C450.667 933.737 449.839 933.916 448.896 934.073C447.968 934.216 447.061 934.344 446.175 934.458C445.304 934.558 444.597 934.644 444.054 934.716C442.74 934.887 441.512 935.165 440.37 935.551C439.241 935.922 438.327 936.487 437.627 937.244C436.942 937.986 436.599 939 436.599 940.286C436.599 942.042 437.249 943.371 438.549 944.27C439.863 945.156 441.526 945.599 443.54 945.599ZM472.135 929.574V949.369H467.079V916.463H471.964V921.604H472.392C473.163 919.933 474.334 918.591 475.906 917.577C477.477 916.549 479.505 916.034 481.99 916.034C484.218 916.034 486.167 916.491 487.838 917.406C489.509 918.305 490.809 919.676 491.737 921.519C492.666 923.347 493.13 925.661 493.13 928.46V949.369H488.074V928.803C488.074 926.218 487.403 924.204 486.06 922.761C484.718 921.305 482.875 920.576 480.533 920.576C478.919 920.576 477.477 920.926 476.205 921.626C474.949 922.326 473.956 923.347 473.228 924.689C472.499 926.032 472.135 927.66 472.135 929.574ZM520.022 949.369V905.494H525.077V921.69H525.506C525.877 921.119 526.391 920.39 527.048 919.505C527.72 918.605 528.677 917.805 529.919 917.106C531.176 916.391 532.876 916.034 535.018 916.034C537.789 916.034 540.231 916.727 542.345 918.112C544.458 919.498 546.108 921.462 547.293 924.004C548.479 926.546 549.072 929.545 549.072 933.002C549.072 936.487 548.479 939.507 547.293 942.064C546.108 944.606 544.466 946.577 542.366 947.977C540.267 949.362 537.846 950.055 535.104 950.055C532.99 950.055 531.297 949.705 530.026 949.005C528.755 948.291 527.777 947.484 527.091 946.584C526.406 945.67 525.877 944.913 525.506 944.313H524.906V949.369H520.022ZM524.992 932.916C524.992 935.401 525.356 937.593 526.084 939.493C526.813 941.378 527.877 942.856 529.276 943.928C530.676 944.984 532.39 945.513 534.418 945.513C536.532 945.513 538.296 944.956 539.71 943.842C541.138 942.714 542.209 941.2 542.923 939.3C543.651 937.386 544.016 935.258 544.016 932.916C544.016 930.602 543.659 928.517 542.945 926.66C542.245 924.789 541.181 923.311 539.752 922.226C538.339 921.126 536.56 920.576 534.418 920.576C532.361 920.576 530.633 921.097 529.234 922.14C527.834 923.168 526.777 924.611 526.063 926.468C525.349 928.31 524.992 930.459 524.992 932.916ZM570.602 950.055C567.431 950.055 564.696 949.355 562.397 947.955C560.112 946.541 558.348 944.57 557.105 942.042C555.877 939.5 555.263 936.544 555.263 933.173C555.263 929.802 555.877 926.832 557.105 924.261C558.348 921.676 560.076 919.662 562.29 918.22C564.518 916.763 567.117 916.034 570.088 916.034C571.802 916.034 573.494 916.32 575.165 916.891C576.836 917.463 578.357 918.391 579.728 919.676C581.099 920.948 582.192 922.633 583.006 924.732C583.82 926.832 584.227 929.417 584.227 932.488V934.63H558.862V930.26H579.086C579.086 928.403 578.714 926.746 577.972 925.289C577.243 923.833 576.201 922.683 574.844 921.84C573.501 920.997 571.916 920.576 570.088 920.576C568.074 920.576 566.332 921.076 564.861 922.076C563.404 923.061 562.283 924.347 561.497 925.932C560.712 927.517 560.319 929.217 560.319 931.031V933.944C560.319 936.429 560.747 938.536 561.604 940.264C562.475 941.978 563.682 943.285 565.225 944.185C566.767 945.07 568.56 945.513 570.602 945.513C571.93 945.513 573.13 945.327 574.201 944.956C575.287 944.57 576.222 943.999 577.008 943.242C577.793 942.471 578.4 941.514 578.829 940.371L583.713 941.742C583.199 943.399 582.335 944.856 581.121 946.113C579.907 947.355 578.407 948.327 576.622 949.026C574.837 949.712 572.83 950.055 570.602 950.055ZM622.254 950.055C619.169 950.055 616.512 949.326 614.284 947.87C612.056 946.413 610.342 944.406 609.143 941.85C607.943 939.293 607.343 936.372 607.343 933.087C607.343 929.745 607.957 926.796 609.185 924.24C610.428 921.669 612.156 919.662 614.37 918.22C616.598 916.763 619.197 916.034 622.168 916.034C624.482 916.034 626.567 916.463 628.424 917.32C630.28 918.177 631.801 919.376 632.987 920.919C634.172 922.461 634.908 924.261 635.193 926.318H630.138C629.752 924.818 628.895 923.49 627.567 922.333C626.253 921.162 624.482 920.576 622.254 920.576C620.283 920.576 618.555 921.09 617.069 922.119C615.598 923.133 614.448 924.568 613.62 926.425C612.806 928.267 612.399 930.431 612.399 932.916C612.399 935.458 612.799 937.672 613.599 939.557C614.413 941.443 615.555 942.906 617.026 943.949C618.512 944.992 620.254 945.513 622.254 945.513C623.568 945.513 624.76 945.284 625.831 944.827C626.903 944.37 627.81 943.713 628.552 942.856C629.295 942 629.823 940.971 630.138 939.771H635.193C634.908 941.714 634.201 943.463 633.073 945.02C631.959 946.563 630.48 947.791 628.638 948.705C626.81 949.605 624.682 950.055 622.254 950.055ZM655.953 950.055C652.982 950.055 650.375 949.348 648.133 947.934C645.905 946.52 644.163 944.542 642.906 942C641.663 939.457 641.042 936.487 641.042 933.087C641.042 929.66 641.663 926.668 642.906 924.111C644.163 921.554 645.905 919.569 648.133 918.155C650.375 916.741 652.982 916.034 655.953 916.034C658.923 916.034 661.523 916.741 663.751 918.155C665.993 919.569 667.736 921.554 668.978 924.111C670.235 926.668 670.863 929.66 670.863 933.087C670.863 936.487 670.235 939.457 668.978 942C667.736 944.542 665.993 946.52 663.751 947.934C661.523 949.348 658.923 950.055 655.953 950.055ZM655.953 945.513C658.209 945.513 660.066 944.935 661.523 943.778C662.98 942.621 664.058 941.1 664.758 939.214C665.457 937.329 665.807 935.287 665.807 933.087C665.807 930.888 665.457 928.838 664.758 926.939C664.058 925.039 662.98 923.504 661.523 922.333C660.066 921.162 658.209 920.576 655.953 920.576C653.696 920.576 651.839 921.162 650.383 922.333C648.926 923.504 647.848 925.039 647.148 926.939C646.448 928.838 646.098 930.888 646.098 933.087C646.098 935.287 646.448 937.329 647.148 939.214C647.848 941.1 648.926 942.621 650.383 943.778C651.839 944.935 653.696 945.513 655.953 945.513ZM683.637 905.494V949.369H678.581V905.494H683.637ZM706.265 950.055C703.295 950.055 700.688 949.348 698.446 947.934C696.218 946.52 694.475 944.542 693.219 942C691.976 939.457 691.355 936.487 691.355 933.087C691.355 929.66 691.976 926.668 693.219 924.111C694.475 921.554 696.218 919.569 698.446 918.155C700.688 916.741 703.295 916.034 706.265 916.034C709.236 916.034 711.835 916.741 714.063 918.155C716.306 919.569 718.048 921.554 719.291 924.111C720.548 926.668 721.176 929.66 721.176 933.087C721.176 936.487 720.548 939.457 719.291 942C718.048 944.542 716.306 946.52 714.063 947.934C711.835 949.348 709.236 950.055 706.265 950.055ZM706.265 945.513C708.522 945.513 710.379 944.935 711.835 943.778C713.292 942.621 714.371 941.1 715.07 939.214C715.77 937.329 716.12 935.287 716.12 933.087C716.12 930.888 715.77 928.838 715.07 926.939C714.371 925.039 713.292 923.504 711.835 922.333C710.379 921.162 708.522 920.576 706.265 920.576C704.009 920.576 702.152 921.162 700.695 922.333C699.239 923.504 698.16 925.039 697.46 926.939C696.761 928.838 696.411 930.888 696.411 933.087C696.411 935.287 696.761 937.329 697.46 939.214C698.16 941.1 699.239 942.621 700.695 943.778C702.152 944.935 704.009 945.513 706.265 945.513ZM728.894 949.369V916.463H733.778V921.433H734.121C734.721 919.805 735.806 918.484 737.377 917.47C738.948 916.456 740.719 915.949 742.69 915.949C743.062 915.949 743.526 915.956 744.083 915.97C744.64 915.984 745.061 916.006 745.347 916.034V921.176C745.176 921.133 744.783 921.069 744.169 920.983C743.569 920.883 742.933 920.833 742.262 920.833C740.662 920.833 739.234 921.169 737.977 921.84C736.735 922.497 735.749 923.411 735.021 924.582C734.307 925.739 733.95 927.06 733.95 928.546V949.369H728.894ZM764.135 950.055C760.965 950.055 758.229 949.355 755.93 947.955C753.645 946.541 751.881 944.57 750.638 942.042C749.41 939.5 748.796 936.544 748.796 933.173C748.796 929.802 749.41 926.832 750.638 924.261C751.881 921.676 753.609 919.662 755.823 918.22C758.051 916.763 760.65 916.034 763.621 916.034C765.335 916.034 767.027 916.32 768.698 916.891C770.369 917.463 771.89 918.391 773.262 919.676C774.633 920.948 775.725 922.633 776.539 924.732C777.353 926.832 777.76 929.417 777.76 932.488V934.63H752.395V930.26H772.619C772.619 928.403 772.247 926.746 771.505 925.289C770.776 923.833 769.734 922.683 768.377 921.84C767.034 920.997 765.449 920.576 763.621 920.576C761.607 920.576 759.865 921.076 758.394 922.076C756.937 923.061 755.816 924.347 755.03 925.932C754.245 927.517 753.852 929.217 753.852 931.031V933.944C753.852 936.429 754.28 938.536 755.137 940.264C756.009 941.978 757.215 943.285 758.758 944.185C760.3 945.07 762.093 945.513 764.135 945.513C765.463 945.513 766.663 945.327 767.734 944.956C768.82 944.57 769.755 943.999 770.541 943.242C771.326 942.471 771.933 941.514 772.362 940.371L777.246 941.742C776.732 943.399 775.868 944.856 774.654 946.113C773.44 947.355 771.94 948.327 770.155 949.026C768.37 949.712 766.363 950.055 764.135 950.055ZM797.877 950.055C795.135 950.055 792.714 949.362 790.614 947.977C788.515 946.577 786.872 944.606 785.687 942.064C784.502 939.507 783.909 936.487 783.909 933.002C783.909 929.545 784.502 926.546 785.687 924.004C786.872 921.462 788.522 919.498 790.636 918.112C792.75 916.727 795.192 916.034 797.963 916.034C800.105 916.034 801.797 916.391 803.04 917.106C804.297 917.805 805.254 918.605 805.911 919.505C806.582 920.39 807.103 921.119 807.475 921.69H807.903V905.494H812.959V949.369H808.074V944.313H807.475C807.103 944.913 806.575 945.67 805.889 946.584C805.204 947.484 804.225 948.291 802.954 949.005C801.683 949.705 799.991 950.055 797.877 950.055ZM798.563 945.513C800.591 945.513 802.304 944.984 803.704 943.928C805.104 942.856 806.168 941.378 806.896 939.493C807.625 937.593 807.989 935.401 807.989 932.916C807.989 930.459 807.632 928.31 806.918 926.468C806.203 924.611 805.147 923.168 803.747 922.14C802.347 921.097 800.619 920.576 798.563 920.576C796.42 920.576 794.635 921.126 793.207 922.226C791.793 923.311 790.729 924.789 790.015 926.66C789.315 928.517 788.965 930.602 788.965 932.916C788.965 935.258 789.322 937.386 790.036 939.3C790.764 941.2 791.836 942.714 793.25 943.842C794.678 944.956 796.449 945.513 798.563 945.513ZM854.199 916.463V920.748H837.146V916.463H854.199ZM842.116 908.579H847.172V939.943C847.172 941.371 847.379 942.442 847.793 943.156C848.222 943.856 848.765 944.328 849.422 944.57C850.093 944.799 850.8 944.913 851.542 944.913C852.099 944.913 852.556 944.885 852.914 944.827C853.271 944.756 853.556 944.699 853.77 944.656L854.799 949.198C854.456 949.326 853.978 949.455 853.363 949.583C852.749 949.726 851.971 949.798 851.028 949.798C849.6 949.798 848.2 949.491 846.829 948.876C845.472 948.262 844.344 947.327 843.444 946.07C842.559 944.813 842.116 943.228 842.116 941.314V908.579ZM869.26 949.369L859.233 916.463H864.546L871.659 941.657H872.002L879.029 916.463H884.427L891.368 941.571H891.711L898.824 916.463H904.137L894.111 949.369H889.14L881.942 924.09H881.428L874.23 949.369H869.26ZM923.07 950.055C920.099 950.055 917.492 949.348 915.25 947.934C913.022 946.52 911.28 944.542 910.023 942C908.78 939.457 908.159 936.487 908.159 933.087C908.159 929.66 908.78 926.668 910.023 924.111C911.28 921.554 913.022 919.569 915.25 918.155C917.492 916.741 920.099 916.034 923.07 916.034C926.04 916.034 928.64 916.741 930.868 918.155C933.11 919.569 934.852 921.554 936.095 924.111C937.352 926.668 937.98 929.66 937.98 933.087C937.98 936.487 937.352 939.457 936.095 942C934.852 944.542 933.11 946.52 930.868 947.934C928.64 949.348 926.04 950.055 923.07 950.055ZM923.07 945.513C925.326 945.513 927.183 944.935 928.64 943.778C930.096 942.621 931.175 941.1 931.875 939.214C932.574 937.329 932.924 935.287 932.924 933.087C932.924 930.888 932.574 928.838 931.875 926.939C931.175 925.039 930.096 923.504 928.64 922.333C927.183 921.162 925.326 920.576 923.07 920.576C920.813 920.576 918.956 921.162 917.5 922.333C916.043 923.504 914.964 925.039 914.265 926.939C913.565 928.838 913.215 930.888 913.215 933.087C913.215 935.287 913.565 937.329 914.265 939.214C914.964 941.1 916.043 942.621 917.5 943.778C918.956 944.935 920.813 945.513 923.07 945.513ZM976.033 950.055C972.948 950.055 970.292 949.326 968.064 947.87C965.836 946.413 964.122 944.406 962.922 941.85C961.723 939.293 961.123 936.372 961.123 933.087C961.123 929.745 961.737 926.796 962.965 924.24C964.208 921.669 965.936 919.662 968.15 918.22C970.378 916.763 972.977 916.034 975.948 916.034C978.261 916.034 980.347 916.463 982.203 917.32C984.06 918.177 985.581 919.376 986.767 920.919C987.952 922.461 988.688 924.261 988.973 926.318H983.917C983.532 924.818 982.675 923.49 981.346 922.333C980.032 921.162 978.261 920.576 976.033 920.576C974.063 920.576 972.334 921.09 970.849 922.119C969.378 923.133 968.228 924.568 967.4 926.425C966.586 928.267 966.179 930.431 966.179 932.916C966.179 935.458 966.579 937.672 967.378 939.557C968.193 941.443 969.335 942.906 970.806 943.949C972.292 944.992 974.034 945.513 976.033 945.513C977.347 945.513 978.54 945.284 979.611 944.827C980.682 944.37 981.589 943.713 982.332 942.856C983.075 942 983.603 940.971 983.917 939.771H988.973C988.688 941.714 987.981 943.463 986.852 945.02C985.738 946.563 984.26 947.791 982.418 948.705C980.589 949.605 978.461 950.055 976.033 950.055ZM1009.73 950.055C1006.76 950.055 1004.16 949.348 1001.91 947.934C999.685 946.52 997.942 944.542 996.686 942C995.443 939.457 994.822 936.487 994.822 933.087C994.822 929.66 995.443 926.668 996.686 924.111C997.942 921.554 999.685 919.569 1001.91 918.155C1004.16 916.741 1006.76 916.034 1009.73 916.034C1012.7 916.034 1015.3 916.741 1017.53 918.155C1019.77 919.569 1021.52 921.554 1022.76 924.111C1024.01 926.668 1024.64 929.66 1024.64 933.087C1024.64 936.487 1024.01 939.457 1022.76 942C1021.52 944.542 1019.77 946.52 1017.53 947.934C1015.3 949.348 1012.7 950.055 1009.73 950.055ZM1009.73 945.513C1011.99 945.513 1013.85 944.935 1015.3 943.778C1016.76 942.621 1017.84 941.1 1018.54 939.214C1019.24 937.329 1019.59 935.287 1019.59 933.087C1019.59 930.888 1019.24 928.838 1018.54 926.939C1017.84 925.039 1016.76 923.504 1015.3 922.333C1013.85 921.162 1011.99 920.576 1009.73 920.576C1007.48 920.576 1005.62 921.162 1004.16 922.333C1002.71 923.504 1001.63 925.039 1000.93 926.939C1000.23 928.838 999.878 930.888 999.878 933.087C999.878 935.287 1000.23 937.329 1000.93 939.214C1001.63 941.1 1002.71 942.621 1004.16 943.778C1005.62 944.935 1007.48 945.513 1009.73 945.513ZM1037.42 905.494V949.369H1032.36V905.494H1037.42ZM1060.05 950.055C1057.07 950.055 1054.47 949.348 1052.23 947.934C1050 946.52 1048.26 944.542 1047 942C1045.76 939.457 1045.13 936.487 1045.13 933.087C1045.13 929.66 1045.76 926.668 1047 924.111C1048.26 921.554 1050 919.569 1052.23 918.155C1054.47 916.741 1057.07 916.034 1060.05 916.034C1063.02 916.034 1065.62 916.741 1067.84 918.155C1070.09 919.569 1071.83 921.554 1073.07 924.111C1074.33 926.668 1074.96 929.66 1074.96 933.087C1074.96 936.487 1074.33 939.457 1073.07 942C1071.83 944.542 1070.09 946.52 1067.84 947.934C1065.62 949.348 1063.02 950.055 1060.05 950.055ZM1060.05 945.513C1062.3 945.513 1064.16 944.935 1065.62 943.778C1067.07 942.621 1068.15 941.1 1068.85 939.214C1069.55 937.329 1069.9 935.287 1069.9 933.087C1069.9 930.888 1069.55 928.838 1068.85 926.939C1068.15 925.039 1067.07 923.504 1065.62 922.333C1064.16 921.162 1062.3 920.576 1060.05 920.576C1057.79 920.576 1055.93 921.162 1054.48 922.333C1053.02 923.504 1051.94 925.039 1051.24 926.939C1050.54 928.838 1050.19 930.888 1050.19 933.087C1050.19 935.287 1050.54 937.329 1051.24 939.214C1051.94 941.1 1053.02 942.621 1054.48 943.778C1055.93 944.935 1057.79 945.513 1060.05 945.513ZM1082.67 949.369V916.463H1087.56V921.433H1087.9C1088.5 919.805 1089.59 918.484 1091.16 917.47C1092.73 916.456 1094.5 915.949 1096.47 915.949C1096.84 915.949 1097.31 915.956 1097.86 915.97C1098.42 915.984 1098.84 916.006 1099.13 916.034V921.176C1098.96 921.133 1098.56 921.069 1097.95 920.983C1097.35 920.883 1096.71 920.833 1096.04 920.833C1094.44 920.833 1093.01 921.169 1091.76 921.84C1090.51 922.497 1089.53 923.411 1088.8 924.582C1088.09 925.739 1087.73 927.06 1087.73 928.546V949.369H1082.67ZM1128.43 923.833L1123.89 925.118C1123.6 924.361 1123.18 923.625 1122.62 922.911C1122.08 922.183 1121.34 921.583 1120.39 921.112C1119.45 920.64 1118.25 920.405 1116.77 920.405C1114.76 920.405 1113.08 920.869 1111.74 921.797C1110.41 922.711 1109.75 923.875 1109.75 925.289C1109.75 926.546 1110.2 927.539 1111.12 928.267C1112.03 928.996 1113.46 929.603 1115.4 930.088L1120.29 931.288C1123.23 932.002 1125.42 933.095 1126.86 934.566C1128.31 936.022 1129.03 937.901 1129.03 940.2C1129.03 942.085 1128.49 943.771 1127.4 945.256C1126.33 946.741 1124.83 947.912 1122.9 948.769C1120.97 949.626 1118.73 950.055 1116.17 950.055C1112.82 950.055 1110.04 949.326 1107.84 947.87C1105.64 946.413 1104.25 944.285 1103.66 941.485L1108.46 940.286C1108.92 942.057 1109.78 943.385 1111.05 944.27C1112.34 945.156 1114.02 945.599 1116.09 945.599C1118.45 945.599 1120.32 945.099 1121.7 944.099C1123.1 943.085 1123.8 941.871 1123.8 940.457C1123.8 939.314 1123.4 938.358 1122.6 937.586C1121.8 936.801 1120.57 936.215 1118.92 935.83L1113.43 934.544C1110.42 933.83 1108.2 932.723 1106.79 931.224C1105.39 929.71 1104.69 927.817 1104.69 925.546C1104.69 923.69 1105.21 922.047 1106.26 920.619C1107.31 919.191 1108.75 918.07 1110.56 917.256C1112.39 916.441 1114.46 916.034 1116.77 916.034C1120.03 916.034 1122.59 916.749 1124.44 918.177C1126.31 919.605 1127.64 921.49 1128.43 923.833ZM1161.06 949.369L1151.04 916.463H1156.35L1163.46 941.657H1163.8L1170.83 916.463H1176.23L1183.17 941.571H1183.51L1190.63 916.463H1195.94L1185.91 949.369H1180.94L1173.74 924.09H1173.23L1166.03 949.369H1161.06ZM1207.68 929.574V949.369H1202.62V905.494H1207.68V921.604H1208.11C1208.88 919.905 1210.04 918.555 1211.58 917.555C1213.13 916.541 1215.21 916.034 1217.79 916.034C1220.03 916.034 1222 916.484 1223.68 917.384C1225.37 918.27 1226.67 919.634 1227.6 921.476C1228.55 923.304 1229.02 925.632 1229.02 928.46V949.369H1223.96V928.803C1223.96 926.189 1223.28 924.168 1221.93 922.74C1220.58 921.297 1218.72 920.576 1216.33 920.576C1214.68 920.576 1213.19 920.926 1211.88 921.626C1210.58 922.326 1209.55 923.347 1208.79 924.689C1208.05 926.032 1207.68 927.66 1207.68 929.574ZM1238.27 949.369V916.463H1243.32V949.369H1238.27ZM1240.84 910.979C1239.85 910.979 1239 910.643 1238.29 909.972C1237.59 909.3 1237.24 908.493 1237.24 907.551C1237.24 906.608 1237.59 905.801 1238.29 905.13C1239 904.459 1239.85 904.123 1240.84 904.123C1241.82 904.123 1242.66 904.459 1243.36 905.13C1244.08 905.801 1244.44 906.608 1244.44 907.551C1244.44 908.493 1244.08 909.3 1243.36 909.972C1242.66 910.643 1241.82 910.979 1240.84 910.979ZM1265.95 950.055C1262.87 950.055 1260.21 949.326 1257.98 947.87C1255.75 946.413 1254.04 944.406 1252.84 941.85C1251.64 939.293 1251.04 936.372 1251.04 933.087C1251.04 929.745 1251.65 926.796 1252.88 924.24C1254.12 921.669 1255.85 919.662 1258.07 918.22C1260.29 916.763 1262.89 916.034 1265.86 916.034C1268.18 916.034 1270.26 916.463 1272.12 917.32C1273.98 918.177 1275.5 919.376 1276.68 920.919C1277.87 922.461 1278.6 924.261 1278.89 926.318H1273.83C1273.45 924.818 1272.59 923.49 1271.26 922.333C1269.95 921.162 1268.18 920.576 1265.95 920.576C1263.98 920.576 1262.25 921.09 1260.77 922.119C1259.29 923.133 1258.14 924.568 1257.32 926.425C1256.5 928.267 1256.1 930.431 1256.1 932.916C1256.1 935.458 1256.5 937.672 1257.3 939.557C1258.11 941.443 1259.25 942.906 1260.72 943.949C1262.21 944.992 1263.95 945.513 1265.95 945.513C1267.26 945.513 1268.46 945.284 1269.53 944.827C1270.6 944.37 1271.51 943.713 1272.25 942.856C1272.99 942 1273.52 940.971 1273.83 939.771H1278.89C1278.6 941.714 1277.9 943.463 1276.77 945.02C1275.65 946.563 1274.18 947.791 1272.33 948.705C1270.51 949.605 1268.38 950.055 1265.95 950.055ZM1291.34 929.574V949.369H1286.28V905.494H1291.34V921.604H1291.77C1292.54 919.905 1293.69 918.555 1295.24 917.555C1296.79 916.541 1298.86 916.034 1301.45 916.034C1303.69 916.034 1305.65 916.484 1307.34 917.384C1309.03 918.27 1310.33 919.634 1311.26 921.476C1312.2 923.304 1312.67 925.632 1312.67 928.46V949.369H1307.62V928.803C1307.62 926.189 1306.94 924.168 1305.58 922.74C1304.24 921.297 1302.38 920.576 1299.99 920.576C1298.34 920.576 1296.85 920.926 1295.54 921.626C1294.24 922.326 1293.21 923.347 1292.45 924.689C1291.71 926.032 1291.34 927.66 1291.34 929.574ZM1338.89 949.369V916.463H1343.95V949.369H1338.89ZM1341.46 910.979C1340.48 910.979 1339.63 910.643 1338.91 909.972C1338.21 909.3 1337.86 908.493 1337.86 907.551C1337.86 906.608 1338.21 905.801 1338.91 905.13C1339.63 904.459 1340.48 904.123 1341.46 904.123C1342.45 904.123 1343.29 904.459 1343.99 905.13C1344.7 905.801 1345.06 906.608 1345.06 907.551C1345.06 908.493 1344.7 909.3 1343.99 909.972C1343.29 910.643 1342.45 910.979 1341.46 910.979ZM1367.52 916.463V920.748H1350.47V916.463H1367.52ZM1355.44 908.579H1360.49V939.943C1360.49 941.371 1360.7 942.442 1361.11 943.156C1361.54 943.856 1362.08 944.328 1362.74 944.57C1363.41 944.799 1364.12 944.913 1364.86 944.913C1365.42 944.913 1365.88 944.885 1366.23 944.827C1366.59 944.756 1366.88 944.699 1367.09 944.656L1368.12 949.198C1367.78 949.326 1367.3 949.455 1366.68 949.583C1366.07 949.726 1365.29 949.798 1364.35 949.798C1362.92 949.798 1361.52 949.491 1360.15 948.876C1358.79 948.262 1357.66 947.327 1356.76 946.07C1355.88 944.813 1355.44 943.228 1355.44 941.314V908.579ZM1406.74 916.463V920.748H1389.01V916.463H1406.74ZM1394.32 949.369V911.921C1394.32 910.036 1394.76 908.465 1395.65 907.208C1396.53 905.951 1397.68 905.009 1399.1 904.38C1400.51 903.752 1402 903.437 1403.57 903.437C1404.82 903.437 1405.83 903.537 1406.62 903.737C1407.4 903.937 1407.99 904.123 1408.37 904.294L1406.92 908.665C1406.66 908.579 1406.3 908.472 1405.84 908.343C1405.4 908.215 1404.82 908.151 1404.09 908.151C1402.42 908.151 1401.21 908.572 1400.47 909.415C1399.74 910.257 1399.37 911.493 1399.37 913.121V949.369H1394.32ZM1422.57 950.14C1420.49 950.14 1418.59 949.748 1416.89 948.962C1415.19 948.162 1413.84 947.013 1412.84 945.513C1411.84 943.999 1411.35 942.171 1411.35 940.029C1411.35 938.143 1411.72 936.615 1412.46 935.444C1413.2 934.259 1414.19 933.33 1415.44 932.659C1416.68 931.988 1418.05 931.488 1419.55 931.159C1421.06 930.817 1422.59 930.545 1424.11 930.345C1426.11 930.088 1427.73 929.895 1428.98 929.767C1430.23 929.624 1431.15 929.388 1431.72 929.06C1432.3 928.731 1432.6 928.16 1432.6 927.346V927.175C1432.6 925.061 1432.02 923.418 1430.86 922.247C1429.72 921.076 1427.98 920.49 1425.66 920.49C1423.24 920.49 1421.35 921.019 1419.98 922.076C1418.61 923.133 1417.64 924.261 1417.09 925.461L1412.29 923.747C1413.14 921.747 1414.29 920.191 1415.72 919.077C1417.16 917.948 1418.73 917.163 1420.43 916.72C1422.14 916.263 1423.83 916.034 1425.48 916.034C1426.54 916.034 1427.76 916.163 1429.13 916.42C1430.51 916.663 1431.85 917.17 1433.13 917.941C1434.43 918.712 1435.51 919.876 1436.37 921.433C1437.22 922.99 1437.65 925.075 1437.65 927.689V949.369H1432.6V944.913H1432.34C1432 945.627 1431.43 946.391 1430.63 947.205C1429.83 948.019 1428.76 948.712 1427.43 949.283C1426.11 949.855 1424.48 950.14 1422.57 950.14ZM1423.34 945.599C1425.34 945.599 1427.03 945.206 1428.4 944.42C1429.78 943.635 1430.83 942.621 1431.53 941.378C1432.24 940.136 1432.6 938.829 1432.6 937.458V932.83C1432.38 933.087 1431.91 933.323 1431.18 933.537C1430.47 933.737 1429.64 933.916 1428.7 934.073C1427.77 934.216 1426.86 934.344 1425.98 934.458C1425.11 934.558 1424.4 934.644 1423.86 934.716C1422.54 934.887 1421.31 935.165 1420.17 935.551C1419.04 935.922 1418.13 936.487 1417.43 937.244C1416.74 937.986 1416.4 939 1416.4 940.286C1416.4 942.042 1417.05 943.371 1418.35 944.27C1419.66 945.156 1421.33 945.599 1423.34 945.599ZM1459.31 950.055C1456.56 950.055 1454.14 949.362 1452.04 947.977C1449.94 946.577 1448.3 944.606 1447.12 942.064C1445.93 939.507 1445.34 936.487 1445.34 933.002C1445.34 929.545 1445.93 926.546 1447.12 924.004C1448.3 921.462 1449.95 919.498 1452.07 918.112C1454.18 916.727 1456.62 916.034 1459.39 916.034C1461.53 916.034 1463.23 916.391 1464.47 917.106C1465.73 917.805 1466.68 918.605 1467.34 919.505C1468.01 920.39 1468.53 921.119 1468.9 921.69H1469.33V905.494H1474.39V949.369H1469.5V944.313H1468.9C1468.53 944.913 1468 945.67 1467.32 946.584C1466.63 947.484 1465.65 948.291 1464.38 949.005C1463.11 949.705 1461.42 950.055 1459.31 950.055ZM1459.99 945.513C1462.02 945.513 1463.73 944.984 1465.13 943.928C1466.53 942.856 1467.6 941.378 1468.33 939.493C1469.05 937.593 1469.42 935.401 1469.42 932.916C1469.42 930.459 1469.06 928.31 1468.35 926.468C1467.63 924.611 1466.58 923.168 1465.18 922.14C1463.78 921.097 1462.05 920.576 1459.99 920.576C1457.85 920.576 1456.06 921.126 1454.64 922.226C1453.22 923.311 1452.16 924.789 1451.44 926.66C1450.74 928.517 1450.39 930.602 1450.39 932.916C1450.39 935.258 1450.75 937.386 1451.47 939.3C1452.19 941.2 1453.27 942.714 1454.68 943.842C1456.11 944.956 1457.88 945.513 1459.99 945.513ZM1498.15 950.055C1494.98 950.055 1492.24 949.355 1489.94 947.955C1487.66 946.541 1485.89 944.57 1484.65 942.042C1483.42 939.5 1482.81 936.544 1482.81 933.173C1482.81 929.802 1483.42 926.832 1484.65 924.261C1485.89 921.676 1487.62 919.662 1489.83 918.22C1492.06 916.763 1494.66 916.034 1497.63 916.034C1499.35 916.034 1501.04 916.32 1502.71 916.891C1504.38 917.463 1505.9 918.391 1507.27 919.676C1508.64 920.948 1509.74 922.633 1510.55 924.732C1511.37 926.832 1511.77 929.417 1511.77 932.488V934.63H1486.41V930.26H1506.63C1506.63 928.403 1506.26 926.746 1505.52 925.289C1504.79 923.833 1503.75 922.683 1502.39 921.84C1501.05 920.997 1499.46 920.576 1497.63 920.576C1495.62 920.576 1493.88 921.076 1492.41 922.076C1490.95 923.061 1489.83 924.347 1489.04 925.932C1488.26 927.517 1487.86 929.217 1487.86 931.031V933.944C1487.86 936.429 1488.29 938.536 1489.15 940.264C1490.02 941.978 1491.23 943.285 1492.77 944.185C1494.31 945.07 1496.1 945.513 1498.15 945.513C1499.48 945.513 1500.68 945.327 1501.75 944.956C1502.83 944.57 1503.77 943.999 1504.55 943.242C1505.34 942.471 1505.95 941.514 1506.37 940.371L1511.26 941.742C1510.74 943.399 1509.88 944.856 1508.67 946.113C1507.45 947.355 1505.95 948.327 1504.17 949.026C1502.38 949.712 1500.38 950.055 1498.15 950.055ZM1542.77 923.833L1538.23 925.118C1537.94 924.361 1537.52 923.625 1536.97 922.911C1536.42 922.183 1535.68 921.583 1534.74 921.112C1533.8 920.64 1532.59 920.405 1531.12 920.405C1529.1 920.405 1527.43 920.869 1526.08 921.797C1524.75 922.711 1524.09 923.875 1524.09 925.289C1524.09 926.546 1524.55 927.539 1525.46 928.267C1526.38 928.996 1527.8 929.603 1529.75 930.088L1534.63 931.288C1537.57 932.002 1539.77 933.095 1541.21 934.566C1542.65 936.022 1543.37 937.901 1543.37 940.2C1543.37 942.085 1542.83 943.771 1541.74 945.256C1540.67 946.741 1539.17 947.912 1537.24 948.769C1535.32 949.626 1533.07 950.055 1530.52 950.055C1527.16 950.055 1524.38 949.326 1522.18 947.87C1519.98 946.413 1518.59 944.285 1518.01 941.485L1522.81 940.286C1523.26 942.057 1524.13 943.385 1525.4 944.27C1526.68 945.156 1528.36 945.599 1530.43 945.599C1532.79 945.599 1534.66 945.099 1536.04 944.099C1537.44 943.085 1538.14 941.871 1538.14 940.457C1538.14 939.314 1537.74 938.358 1536.94 937.586C1536.14 936.801 1534.92 936.215 1533.26 935.83L1527.78 934.544C1524.76 933.83 1522.55 932.723 1521.13 931.224C1519.73 929.71 1519.03 927.817 1519.03 925.546C1519.03 923.69 1519.56 922.047 1520.6 920.619C1521.66 919.191 1523.09 918.07 1524.9 917.256C1526.73 916.441 1528.8 916.034 1531.12 916.034C1534.37 916.034 1536.93 916.749 1538.79 918.177C1540.66 919.605 1541.99 921.49 1542.77 923.833ZM1582.6 916.463V920.748H1564.86V916.463H1582.6ZM1570.18 949.369V911.921C1570.18 910.036 1570.62 908.465 1571.51 907.208C1572.39 905.951 1573.54 905.009 1574.96 904.38C1576.37 903.752 1577.86 903.437 1579.43 903.437C1580.68 903.437 1581.69 903.537 1582.47 903.737C1583.26 903.937 1583.85 904.123 1584.23 904.294L1582.77 908.665C1582.52 908.579 1582.16 908.472 1581.7 908.343C1581.26 908.215 1580.68 908.151 1579.95 908.151C1578.28 908.151 1577.07 908.572 1576.33 909.415C1575.6 910.257 1575.23 911.493 1575.23 913.121V949.369H1570.18ZM1589.69 949.369V916.463H1594.57V921.433H1594.92C1595.52 919.805 1596.6 918.484 1598.17 917.47C1599.74 916.456 1601.51 915.949 1603.49 915.949C1603.86 915.949 1604.32 915.956 1604.88 915.97C1605.44 915.984 1605.86 916.006 1606.14 916.034V921.176C1605.97 921.133 1605.58 921.069 1604.96 920.983C1604.36 920.883 1603.73 920.833 1603.06 920.833C1601.46 920.833 1600.03 921.169 1598.77 921.84C1597.53 922.497 1596.54 923.411 1595.82 924.582C1595.1 925.739 1594.74 927.06 1594.74 928.546V949.369H1589.69ZM1624.5 950.055C1621.53 950.055 1618.92 949.348 1616.68 947.934C1614.45 946.52 1612.71 944.542 1611.46 942C1610.21 939.457 1609.59 936.487 1609.59 933.087C1609.59 929.66 1610.21 926.668 1611.46 924.111C1612.71 921.554 1614.45 919.569 1616.68 918.155C1618.92 916.741 1621.53 916.034 1624.5 916.034C1627.47 916.034 1630.07 916.741 1632.3 918.155C1634.54 919.569 1636.28 921.554 1637.53 924.111C1638.78 926.668 1639.41 929.66 1639.41 933.087C1639.41 936.487 1638.78 939.457 1637.53 942C1636.28 944.542 1634.54 946.52 1632.3 947.934C1630.07 949.348 1627.47 950.055 1624.5 950.055ZM1624.5 945.513C1626.76 945.513 1628.62 944.935 1630.07 943.778C1631.53 942.621 1632.61 941.1 1633.31 939.214C1634.01 937.329 1634.36 935.287 1634.36 933.087C1634.36 930.888 1634.01 928.838 1633.31 926.939C1632.61 925.039 1631.53 923.504 1630.07 922.333C1628.62 921.162 1626.76 920.576 1624.5 920.576C1622.25 920.576 1620.39 921.162 1618.93 922.333C1617.48 923.504 1616.4 925.039 1615.7 926.939C1615 928.838 1614.65 930.888 1614.65 933.087C1614.65 935.287 1615 937.329 1615.7 939.214C1616.4 941.1 1617.48 942.621 1618.93 943.778C1620.39 944.935 1622.25 945.513 1624.5 945.513ZM1647.13 949.369V916.463H1652.01V921.604H1652.44C1653.13 919.848 1654.24 918.484 1655.76 917.513C1657.29 916.527 1659.13 916.034 1661.27 916.034C1663.44 916.034 1665.25 916.527 1666.69 917.513C1668.15 918.484 1669.28 919.848 1670.1 921.604H1670.44C1671.28 919.905 1672.55 918.555 1674.23 917.555C1675.92 916.541 1677.94 916.034 1680.29 916.034C1683.24 916.034 1685.64 916.956 1687.51 918.798C1689.38 920.626 1690.32 923.475 1690.32 927.346V949.369H1685.26V927.346C1685.26 924.918 1684.6 923.183 1683.27 922.14C1681.94 921.097 1680.38 920.576 1678.58 920.576C1676.27 920.576 1674.47 921.276 1673.2 922.676C1671.93 924.061 1671.3 925.818 1671.3 927.946V949.369H1666.15V926.832C1666.15 924.961 1665.55 923.454 1664.33 922.311C1663.12 921.155 1661.56 920.576 1659.64 920.576C1658.33 920.576 1657.1 920.926 1655.96 921.626C1654.83 922.326 1653.91 923.297 1653.21 924.539C1652.53 925.768 1652.19 927.189 1652.19 928.803V949.369H1647.13ZM1726.21 950.14C1724.13 950.14 1722.24 949.748 1720.54 948.962C1718.84 948.162 1717.49 947.013 1716.49 945.513C1715.49 943.999 1714.99 942.171 1714.99 940.029C1714.99 938.143 1715.36 936.615 1716.1 935.444C1716.85 934.259 1717.84 933.33 1719.08 932.659C1720.32 931.988 1721.69 931.488 1723.19 931.159C1724.71 930.817 1726.23 930.545 1727.76 930.345C1729.76 930.088 1731.38 929.895 1732.62 929.767C1733.88 929.624 1734.79 929.388 1735.36 929.06C1735.95 928.731 1736.24 928.16 1736.24 927.346V927.175C1736.24 925.061 1735.66 923.418 1734.51 922.247C1733.36 921.076 1731.63 920.49 1729.3 920.49C1726.89 920.49 1724.99 921.019 1723.62 922.076C1722.25 923.133 1721.29 924.261 1720.73 925.461L1715.93 923.747C1716.79 921.747 1717.93 920.191 1719.36 919.077C1720.8 917.948 1722.37 917.163 1724.07 916.72C1725.79 916.263 1727.47 916.034 1729.13 916.034C1730.19 916.034 1731.4 916.163 1732.77 916.42C1734.16 916.663 1735.49 917.17 1736.78 917.941C1738.08 918.712 1739.15 919.876 1740.01 921.433C1740.87 922.99 1741.3 925.075 1741.3 927.689V949.369H1736.24V944.913H1735.98C1735.64 945.627 1735.07 946.391 1734.27 947.205C1733.47 948.019 1732.41 948.712 1731.08 949.283C1729.75 949.855 1728.13 950.14 1726.21 950.14ZM1726.99 945.599C1728.99 945.599 1730.67 945.206 1732.04 944.42C1733.43 943.635 1734.47 942.621 1735.17 941.378C1735.88 940.136 1736.24 938.829 1736.24 937.458V932.83C1736.03 933.087 1735.56 933.323 1734.83 933.537C1734.11 933.737 1733.28 933.916 1732.34 934.073C1731.41 934.216 1730.51 934.344 1729.62 934.458C1728.75 934.558 1728.04 934.644 1727.5 934.716C1726.19 934.887 1724.96 935.165 1723.82 935.551C1722.69 935.922 1721.77 936.487 1721.07 937.244C1720.39 937.986 1720.04 939 1720.04 940.286C1720.04 942.042 1720.69 943.371 1721.99 944.27C1723.31 945.156 1724.97 945.599 1726.99 945.599ZM1755.58 929.574V949.369H1750.52V916.463H1755.41V921.604H1755.84C1756.61 919.933 1757.78 918.591 1759.35 917.577C1760.92 916.549 1762.95 916.034 1765.44 916.034C1767.66 916.034 1769.61 916.491 1771.28 917.406C1772.96 918.305 1774.25 919.676 1775.18 921.519C1776.11 923.347 1776.58 925.661 1776.58 928.46V949.369H1771.52V928.803C1771.52 926.218 1770.85 924.204 1769.51 922.761C1768.16 921.305 1766.32 920.576 1763.98 920.576C1762.36 920.576 1760.92 920.926 1759.65 921.626C1758.39 922.326 1757.4 923.347 1756.67 924.689C1755.94 926.032 1755.58 927.66 1755.58 929.574ZM1798.24 950.055C1795.5 950.055 1793.08 949.362 1790.98 947.977C1788.88 946.577 1787.24 944.606 1786.05 942.064C1784.86 939.507 1784.27 936.487 1784.27 933.002C1784.27 929.545 1784.86 926.546 1786.05 924.004C1787.24 921.462 1788.89 919.498 1791 918.112C1793.11 916.727 1795.55 916.034 1798.33 916.034C1800.47 916.034 1802.16 916.391 1803.4 917.106C1804.66 917.805 1805.62 918.605 1806.27 919.505C1806.94 920.39 1807.47 921.119 1807.84 921.69H1808.27V905.494H1813.32V949.369H1808.44V944.313H1807.84C1807.47 944.913 1806.94 945.67 1806.25 946.584C1805.57 947.484 1804.59 948.291 1803.32 949.005C1802.05 949.705 1800.35 950.055 1798.24 950.055ZM1798.93 945.513C1800.95 945.513 1802.67 944.984 1804.07 943.928C1805.47 942.856 1806.53 941.378 1807.26 939.493C1807.99 937.593 1808.35 935.401 1808.35 932.916C1808.35 930.459 1807.99 928.31 1807.28 926.468C1806.57 924.611 1805.51 923.168 1804.11 922.14C1802.71 921.097 1800.98 920.576 1798.93 920.576C1796.78 920.576 1795 921.126 1793.57 922.226C1792.16 923.311 1791.09 924.789 1790.38 926.66C1789.68 928.517 1789.33 930.602 1789.33 932.916C1789.33 935.258 1789.68 937.386 1790.4 939.3C1791.13 941.2 1792.2 942.714 1793.61 943.842C1795.04 944.956 1796.81 945.513 1798.93 945.513ZM1840.25 949.369V916.463H1845.31V949.369H1840.25ZM1842.82 910.979C1841.84 910.979 1840.99 910.643 1840.27 909.972C1839.57 909.3 1839.22 908.493 1839.22 907.551C1839.22 906.608 1839.57 905.801 1840.27 905.13C1840.99 904.459 1841.84 904.123 1842.82 904.123C1843.81 904.123 1844.65 904.459 1845.35 905.13C1846.06 905.801 1846.42 906.608 1846.42 907.551C1846.42 908.493 1846.06 909.3 1845.35 909.972C1844.65 910.643 1843.81 910.979 1842.82 910.979ZM1859.62 929.574V949.369H1854.57V916.463H1859.45V921.604H1859.88C1860.65 919.933 1861.82 918.591 1863.39 917.577C1864.96 916.549 1866.99 916.034 1869.48 916.034C1871.71 916.034 1873.66 916.491 1875.33 917.406C1877 918.305 1878.3 919.676 1879.23 921.519C1880.15 923.347 1880.62 925.661 1880.62 928.46V949.369H1875.56V928.803C1875.56 926.218 1874.89 924.204 1873.55 922.761C1872.21 921.305 1870.36 920.576 1868.02 920.576C1866.41 920.576 1864.96 920.926 1863.69 921.626C1862.44 922.326 1861.44 923.347 1860.72 924.689C1859.99 926.032 1859.62 927.66 1859.62 929.574ZM1904.17 916.463V920.748H1887.11V916.463H1904.17ZM1892.08 908.579H1897.14V939.943C1897.14 941.371 1897.35 942.442 1897.76 943.156C1898.19 943.856 1898.73 944.328 1899.39 944.57C1900.06 944.799 1900.77 944.913 1901.51 944.913C1902.07 944.913 1902.53 944.885 1902.88 944.827C1903.24 944.756 1903.52 944.699 1903.74 944.656L1904.77 949.198C1904.42 949.326 1903.95 949.455 1903.33 949.583C1902.72 949.726 1901.94 949.798 1901 949.798C1899.57 949.798 1898.17 949.491 1896.8 948.876C1895.44 948.262 1894.31 947.327 1893.41 946.07C1892.53 944.813 1892.08 943.228 1892.08 941.314V908.579ZM1924.79 950.055C1921.82 950.055 1919.21 949.348 1916.97 947.934C1914.74 946.52 1913 944.542 1911.74 942C1910.5 939.457 1909.88 936.487 1909.88 933.087C1909.88 929.66 1910.5 926.668 1911.74 924.111C1913 921.554 1914.74 919.569 1916.97 918.155C1919.21 916.741 1921.82 916.034 1924.79 916.034C1927.76 916.034 1930.36 916.741 1932.59 918.155C1934.83 919.569 1936.57 921.554 1937.81 924.111C1939.07 926.668 1939.7 929.66 1939.7 933.087C1939.7 936.487 1939.07 939.457 1937.81 942C1936.57 944.542 1934.83 946.52 1932.59 947.934C1930.36 949.348 1927.76 950.055 1924.79 950.055ZM1924.79 945.513C1927.04 945.513 1928.9 944.935 1930.36 943.778C1931.81 942.621 1932.89 941.1 1933.59 939.214C1934.29 937.329 1934.64 935.287 1934.64 933.087C1934.64 930.888 1934.29 928.838 1933.59 926.939C1932.89 925.039 1931.81 923.504 1930.36 922.333C1928.9 921.162 1927.04 920.576 1924.79 920.576C1922.53 920.576 1920.67 921.162 1919.22 922.333C1917.76 923.504 1916.68 925.039 1915.98 926.939C1915.28 928.838 1914.93 930.888 1914.93 933.087C1914.93 935.287 1915.28 937.329 1915.98 939.214C1916.68 941.1 1917.76 942.621 1919.22 943.778C1920.67 944.935 1922.53 945.513 1924.79 945.513ZM1951.1 949.712C1950.04 949.712 1949.14 949.333 1948.38 948.576C1947.62 947.82 1947.24 946.913 1947.24 945.856C1947.24 944.799 1947.62 943.892 1948.38 943.135C1949.14 942.378 1950.04 942 1951.1 942C1952.16 942 1953.06 942.378 1953.82 943.135C1954.58 943.892 1954.96 944.799 1954.96 945.856C1954.96 946.556 1954.78 947.198 1954.42 947.784C1954.08 948.369 1953.61 948.841 1953.03 949.198C1952.46 949.541 1951.81 949.712 1951.1 949.712ZM783.025 978.494V1022.37H777.712V978.494H783.025ZM807.303 989.463V993.748H790.25V989.463H807.303ZM795.22 981.579H800.276V1012.94C800.276 1014.37 800.483 1015.44 800.898 1016.16C801.326 1016.86 801.869 1017.33 802.526 1017.57C803.197 1017.8 803.904 1017.91 804.647 1017.91C805.204 1017.91 805.661 1017.88 806.018 1017.83C806.375 1017.76 806.661 1017.7 806.875 1017.66L807.903 1022.2C807.56 1022.33 807.082 1022.45 806.468 1022.58C805.854 1022.73 805.075 1022.8 804.133 1022.8C802.704 1022.8 801.305 1022.49 799.934 1021.88C798.577 1021.26 797.448 1020.33 796.549 1019.07C795.663 1017.81 795.22 1016.23 795.22 1014.31V981.579ZM836.932 1002.57V1022.37H831.876V978.494H836.932V994.604H837.36C838.131 992.905 839.288 991.555 840.831 990.555C842.388 989.541 844.458 989.034 847.044 989.034C849.286 989.034 851.25 989.484 852.935 990.384C854.62 991.27 855.927 992.634 856.855 994.476C857.798 996.304 858.269 998.632 858.269 1001.46V1022.37H853.213V1001.8C853.213 999.189 852.535 997.168 851.178 995.74C849.836 994.297 847.972 993.576 845.587 993.576C843.93 993.576 842.445 993.926 841.131 994.626C839.831 995.326 838.803 996.347 838.046 997.689C837.303 999.032 836.932 1000.66 836.932 1002.57ZM877.202 1023.14C875.117 1023.14 873.225 1022.75 871.525 1021.96C869.825 1021.16 868.476 1020.01 867.476 1018.51C866.476 1017 865.976 1015.17 865.976 1013.03C865.976 1011.14 866.348 1009.62 867.09 1008.44C867.833 1007.26 868.826 1006.33 870.068 1005.66C871.311 1004.99 872.682 1004.49 874.182 1004.16C875.695 1003.82 877.216 1003.55 878.745 1003.35C880.744 1003.09 882.365 1002.9 883.608 1002.77C884.865 1002.62 885.779 1002.39 886.35 1002.06C886.936 1001.73 887.228 1001.16 887.228 1000.35V1000.17C887.228 998.061 886.65 996.418 885.493 995.247C884.35 994.076 882.615 993.49 880.287 993.49C877.873 993.49 875.981 994.019 874.61 995.076C873.239 996.133 872.275 997.261 871.718 998.461L866.919 996.747C867.776 994.747 868.919 993.191 870.347 992.077C871.789 990.948 873.36 990.163 875.06 989.72C876.774 989.263 878.459 989.034 880.116 989.034C881.173 989.034 882.387 989.163 883.758 989.42C885.143 989.663 886.479 990.17 887.764 990.941C889.064 991.712 890.142 992.876 890.999 994.433C891.856 995.99 892.284 998.075 892.284 1000.69V1022.37H887.228V1017.91H886.971C886.628 1018.63 886.057 1019.39 885.257 1020.21C884.458 1021.02 883.394 1021.71 882.065 1022.28C880.737 1022.85 879.116 1023.14 877.202 1023.14ZM877.973 1018.6C879.973 1018.6 881.658 1018.21 883.029 1017.42C884.415 1016.63 885.457 1015.62 886.157 1014.38C886.871 1013.14 887.228 1011.83 887.228 1010.46V1005.83C887.014 1006.09 886.543 1006.32 885.814 1006.54C885.1 1006.74 884.272 1006.92 883.329 1007.07C882.401 1007.22 881.494 1007.34 880.609 1007.46C879.737 1007.56 879.03 1007.64 878.488 1007.72C877.174 1007.89 875.945 1008.17 874.803 1008.55C873.675 1008.92 872.76 1009.49 872.061 1010.24C871.375 1010.99 871.032 1012 871.032 1013.29C871.032 1015.04 871.682 1016.37 872.982 1017.27C874.296 1018.16 875.96 1018.6 877.973 1018.6ZM924.821 996.833L920.279 998.118C919.994 997.361 919.572 996.625 919.015 995.911C918.472 995.183 917.73 994.583 916.787 994.112C915.845 993.64 914.638 993.405 913.167 993.405C911.153 993.405 909.475 993.869 908.132 994.797C906.804 995.711 906.14 996.875 906.14 998.289C906.14 999.546 906.597 1000.54 907.511 1001.27C908.425 1002 909.853 1002.6 911.796 1003.09L916.68 1004.29C919.622 1005 921.815 1006.09 923.257 1007.57C924.7 1009.02 925.421 1010.9 925.421 1013.2C925.421 1015.09 924.878 1016.77 923.793 1018.26C922.721 1019.74 921.222 1020.91 919.294 1021.77C917.366 1022.63 915.123 1023.05 912.567 1023.05C909.21 1023.05 906.433 1022.33 904.233 1020.87C902.034 1019.41 900.641 1017.28 900.056 1014.49L904.854 1013.29C905.311 1015.06 906.175 1016.38 907.447 1017.27C908.732 1018.16 910.41 1018.6 912.481 1018.6C914.838 1018.6 916.709 1018.1 918.094 1017.1C919.494 1016.08 920.193 1014.87 920.193 1013.46C920.193 1012.31 919.794 1011.36 918.994 1010.59C918.194 1009.8 916.966 1009.22 915.309 1008.83L909.825 1007.54C906.811 1006.83 904.597 1005.72 903.183 1004.22C901.784 1002.71 901.084 1000.82 901.084 998.546C901.084 996.69 901.605 995.047 902.648 993.619C903.705 992.191 905.14 991.07 906.954 990.256C908.782 989.441 910.853 989.034 913.167 989.034C916.423 989.034 918.979 989.749 920.836 991.177C922.707 992.605 924.035 994.49 924.821 996.833ZM959.682 1023.14C957.597 1023.14 955.704 1022.75 954.005 1021.96C952.305 1021.16 950.956 1020.01 949.956 1018.51C948.956 1017 948.456 1015.17 948.456 1013.03C948.456 1011.14 948.828 1009.62 949.57 1008.44C950.313 1007.26 951.306 1006.33 952.548 1005.66C953.791 1004.99 955.162 1004.49 956.661 1004.16C958.175 1003.82 959.696 1003.55 961.225 1003.35C963.224 1003.09 964.845 1002.9 966.088 1002.77C967.344 1002.62 968.259 1002.39 968.83 1002.06C969.415 1001.73 969.708 1001.16 969.708 1000.35V1000.17C969.708 998.061 969.13 996.418 967.973 995.247C966.83 994.076 965.095 993.49 962.767 993.49C960.353 993.49 958.461 994.019 957.09 995.076C955.719 996.133 954.755 997.261 954.198 998.461L949.399 996.747C950.256 994.747 951.398 993.191 952.827 992.077C954.269 990.948 955.84 990.163 957.54 989.72C959.254 989.263 960.939 989.034 962.596 989.034C963.653 989.034 964.867 989.163 966.238 989.42C967.623 989.663 968.958 990.17 970.244 990.941C971.543 991.712 972.622 992.876 973.479 994.433C974.336 995.99 974.764 998.075 974.764 1000.69V1022.37H969.708V1017.91H969.451C969.108 1018.63 968.537 1019.39 967.737 1020.21C966.937 1021.02 965.873 1021.71 964.545 1022.28C963.217 1022.85 961.596 1023.14 959.682 1023.14ZM960.453 1018.6C962.453 1018.6 964.138 1018.21 965.509 1017.42C966.895 1016.63 967.937 1015.62 968.637 1014.38C969.351 1013.14 969.708 1011.83 969.708 1010.46V1005.83C969.494 1006.09 969.023 1006.32 968.294 1006.54C967.58 1006.74 966.752 1006.92 965.809 1007.07C964.881 1007.22 963.974 1007.34 963.088 1007.46C962.217 1007.56 961.51 1007.64 960.967 1007.72C959.654 1007.89 958.425 1008.17 957.283 1008.55C956.154 1008.92 955.24 1009.49 954.54 1010.24C953.855 1010.99 953.512 1012 953.512 1013.29C953.512 1015.04 954.162 1016.37 955.462 1017.27C956.776 1018.16 958.44 1018.6 960.453 1018.6ZM1027.87 989.463L1015.7 1022.37H1010.56L998.389 989.463H1003.87L1012.96 1015.69H1013.3L1022.38 989.463H1027.87ZM1043.22 1023.14C1041.14 1023.14 1039.24 1022.75 1037.55 1021.96C1035.85 1021.16 1034.5 1020.01 1033.5 1018.51C1032.5 1017 1032 1015.17 1032 1013.03C1032 1011.14 1032.37 1009.62 1033.11 1008.44C1033.85 1007.26 1034.85 1006.33 1036.09 1005.66C1037.33 1004.99 1038.7 1004.49 1040.2 1004.16C1041.72 1003.82 1043.24 1003.55 1044.76 1003.35C1046.76 1003.09 1048.39 1002.9 1049.63 1002.77C1050.88 1002.62 1051.8 1002.39 1052.37 1002.06C1052.96 1001.73 1053.25 1001.16 1053.25 1000.35V1000.17C1053.25 998.061 1052.67 996.418 1051.51 995.247C1050.37 994.076 1048.64 993.49 1046.31 993.49C1043.89 993.49 1042 994.019 1040.63 995.076C1039.26 996.133 1038.3 997.261 1037.74 998.461L1032.94 996.747C1033.8 994.747 1034.94 993.191 1036.37 992.077C1037.81 990.948 1039.38 990.163 1041.08 989.72C1042.79 989.263 1044.48 989.034 1046.14 989.034C1047.19 989.034 1048.41 989.163 1049.78 989.42C1051.16 989.663 1052.5 990.17 1053.78 990.941C1055.08 991.712 1056.16 992.876 1057.02 994.433C1057.88 995.99 1058.3 998.075 1058.3 1000.69V1022.37H1053.25V1017.91H1052.99C1052.65 1018.63 1052.08 1019.39 1051.28 1020.21C1050.48 1021.02 1049.41 1021.71 1048.09 1022.28C1046.76 1022.85 1045.14 1023.14 1043.22 1023.14ZM1043.99 1018.6C1045.99 1018.6 1047.68 1018.21 1049.05 1017.42C1050.43 1016.63 1051.48 1015.62 1052.18 1014.38C1052.89 1013.14 1053.25 1011.83 1053.25 1010.46V1005.83C1053.03 1006.09 1052.56 1006.32 1051.83 1006.54C1051.12 1006.74 1050.29 1006.92 1049.35 1007.07C1048.42 1007.22 1047.51 1007.34 1046.63 1007.46C1045.76 1007.56 1045.05 1007.64 1044.51 1007.72C1043.19 1007.89 1041.97 1008.17 1040.82 1008.55C1039.69 1008.92 1038.78 1009.49 1038.08 1010.24C1037.4 1010.99 1037.05 1012 1037.05 1013.29C1037.05 1015.04 1037.7 1016.37 1039 1017.27C1040.32 1018.16 1041.98 1018.6 1043.99 1018.6ZM1067.53 1022.37V989.463H1072.42V994.433H1072.76C1073.36 992.805 1074.45 991.484 1076.02 990.47C1077.59 989.456 1079.36 988.949 1081.33 988.949C1081.7 988.949 1082.16 988.956 1082.72 988.97C1083.28 988.984 1083.7 989.006 1083.99 989.034V994.176C1083.81 994.133 1083.42 994.069 1082.81 993.983C1082.21 993.883 1081.57 993.833 1080.9 993.833C1079.3 993.833 1077.87 994.169 1076.62 994.84C1075.37 995.497 1074.39 996.411 1073.66 997.582C1072.95 998.739 1072.59 1000.06 1072.59 1001.55V1022.37H1067.53ZM1089.98 1022.37V989.463H1095.03V1022.37H1089.98ZM1092.55 983.979C1091.56 983.979 1090.71 983.643 1090 982.972C1089.3 982.3 1088.95 981.493 1088.95 980.551C1088.95 979.608 1089.3 978.801 1090 978.13C1090.71 977.459 1091.56 977.123 1092.55 977.123C1093.54 977.123 1094.38 977.459 1095.08 978.13C1095.79 978.801 1096.15 979.608 1096.15 980.551C1096.15 981.493 1095.79 982.3 1095.08 982.972C1094.38 983.643 1093.54 983.979 1092.55 983.979ZM1118.09 1023.05C1114.92 1023.05 1112.19 1022.35 1109.89 1020.96C1107.6 1019.54 1105.84 1017.57 1104.59 1015.04C1103.37 1012.5 1102.75 1009.54 1102.75 1006.17C1102.75 1002.8 1103.37 999.832 1104.59 997.261C1105.84 994.676 1107.57 992.662 1109.78 991.22C1112.01 989.763 1114.61 989.034 1117.58 989.034C1119.29 989.034 1120.98 989.32 1122.65 989.891C1124.33 990.463 1125.85 991.391 1127.22 992.676C1128.59 993.948 1129.68 995.633 1130.5 997.732C1131.31 999.832 1131.72 1002.42 1131.72 1005.49V1007.63H1106.35V1003.26H1126.58C1126.58 1001.4 1126.2 999.746 1125.46 998.289C1124.73 996.833 1123.69 995.683 1122.33 994.84C1120.99 993.997 1119.41 993.576 1117.58 993.576C1115.56 993.576 1113.82 994.076 1112.35 995.076C1110.89 996.061 1109.77 997.347 1108.99 998.932C1108.2 1000.52 1107.81 1002.22 1107.81 1004.03V1006.94C1107.81 1009.43 1108.24 1011.54 1109.09 1013.26C1109.97 1014.98 1111.17 1016.28 1112.71 1017.18C1114.26 1018.07 1116.05 1018.51 1118.09 1018.51C1119.42 1018.51 1120.62 1018.33 1121.69 1017.96C1122.78 1017.57 1123.71 1017 1124.5 1016.24C1125.28 1015.47 1125.89 1014.51 1126.32 1013.37L1131.2 1014.74C1130.69 1016.4 1129.82 1017.86 1128.61 1019.11C1127.4 1020.36 1125.9 1021.33 1124.11 1022.03C1122.33 1022.71 1120.32 1023.05 1118.09 1023.05ZM1153.72 989.463V993.748H1136.67V989.463H1153.72ZM1141.64 981.579H1146.69V1012.94C1146.69 1014.37 1146.9 1015.44 1147.31 1016.16C1147.74 1016.86 1148.28 1017.33 1148.94 1017.57C1149.61 1017.8 1150.32 1017.91 1151.06 1017.91C1151.62 1017.91 1152.08 1017.88 1152.43 1017.83C1152.79 1017.76 1153.08 1017.7 1153.29 1017.66L1154.32 1022.2C1153.98 1022.33 1153.5 1022.45 1152.88 1022.58C1152.27 1022.73 1151.49 1022.8 1150.55 1022.8C1149.12 1022.8 1147.72 1022.49 1146.35 1021.88C1144.99 1021.26 1143.86 1020.33 1142.96 1019.07C1142.08 1017.81 1141.64 1016.23 1141.64 1014.31V981.579ZM1164.58 1034.71C1163.72 1034.71 1162.96 1034.64 1162.29 1034.49C1161.62 1034.37 1161.15 1034.24 1160.9 1034.11L1162.18 1029.65C1163.41 1029.97 1164.49 1030.08 1165.44 1030C1166.38 1029.91 1167.22 1029.49 1167.94 1028.73C1168.69 1027.99 1169.36 1026.78 1169.98 1025.11L1170.92 1022.54L1158.75 989.463H1164.24L1173.32 1015.69H1173.66L1182.75 989.463H1188.23L1174.26 1027.17C1173.64 1028.87 1172.86 1030.27 1171.93 1031.39C1171 1032.52 1169.92 1033.35 1168.69 1033.89C1167.48 1034.44 1166.11 1034.71 1164.58 1034.71ZM1225.24 1023.05C1222.27 1023.05 1219.66 1022.35 1217.42 1020.93C1215.19 1019.52 1213.45 1017.54 1212.19 1015C1210.95 1012.46 1210.33 1009.49 1210.33 1006.09C1210.33 1002.66 1210.95 999.668 1212.19 997.111C1213.45 994.554 1215.19 992.569 1217.42 991.155C1219.66 989.741 1222.27 989.034 1225.24 989.034C1228.21 989.034 1230.81 989.741 1233.04 991.155C1235.28 992.569 1237.02 994.554 1238.27 997.111C1239.52 999.668 1240.15 1002.66 1240.15 1006.09C1240.15 1009.49 1239.52 1012.46 1238.27 1015C1237.02 1017.54 1235.28 1019.52 1233.04 1020.93C1230.81 1022.35 1228.21 1023.05 1225.24 1023.05ZM1225.24 1018.51C1227.5 1018.51 1229.35 1017.93 1230.81 1016.78C1232.27 1015.62 1233.35 1014.1 1234.05 1012.21C1234.75 1010.33 1235.1 1008.29 1235.1 1006.09C1235.1 1003.89 1234.75 1001.84 1234.05 999.939C1233.35 998.039 1232.27 996.504 1230.81 995.333C1229.35 994.162 1227.5 993.576 1225.24 993.576C1222.98 993.576 1221.13 994.162 1219.67 995.333C1218.21 996.504 1217.14 998.039 1216.44 999.939C1215.74 1001.84 1215.39 1003.89 1215.39 1006.09C1215.39 1008.29 1215.74 1010.33 1216.44 1012.21C1217.14 1014.1 1218.21 1015.62 1219.67 1016.78C1221.13 1017.93 1222.98 1018.51 1225.24 1018.51ZM1262.52 989.463V993.748H1244.78V989.463H1262.52ZM1250.1 1022.37V984.921C1250.1 983.036 1250.54 981.465 1251.43 980.208C1252.31 978.951 1253.46 978.009 1254.87 977.38C1256.29 976.752 1257.78 976.437 1259.35 976.437C1260.59 976.437 1261.61 976.537 1262.39 976.737C1263.18 976.937 1263.77 977.123 1264.15 977.294L1262.69 981.665C1262.44 981.579 1262.08 981.472 1261.62 981.343C1261.18 981.215 1260.59 981.151 1259.87 981.151C1258.19 981.151 1256.99 981.572 1256.25 982.415C1255.52 983.257 1255.15 984.493 1255.15 986.121V1022.37H1250.1ZM1309.88 996.833L1305.34 998.118C1305.06 997.361 1304.64 996.625 1304.08 995.911C1303.54 995.183 1302.79 994.583 1301.85 994.112C1300.91 993.64 1299.7 993.405 1298.23 993.405C1296.22 993.405 1294.54 993.869 1293.2 994.797C1291.87 995.711 1291.2 996.875 1291.2 998.289C1291.2 999.546 1291.66 1000.54 1292.57 1001.27C1293.49 1002 1294.92 1002.6 1296.86 1003.09L1301.74 1004.29C1304.69 1005 1306.88 1006.09 1308.32 1007.57C1309.76 1009.02 1310.48 1010.9 1310.48 1013.2C1310.48 1015.09 1309.94 1016.77 1308.86 1018.26C1307.78 1019.74 1306.28 1020.91 1304.36 1021.77C1302.43 1022.63 1300.19 1023.05 1297.63 1023.05C1294.27 1023.05 1291.5 1022.33 1289.3 1020.87C1287.1 1019.41 1285.7 1017.28 1285.12 1014.49L1289.92 1013.29C1290.37 1015.06 1291.24 1016.38 1292.51 1017.27C1293.8 1018.16 1295.47 1018.6 1297.54 1018.6C1299.9 1018.6 1301.77 1018.1 1303.16 1017.1C1304.56 1016.08 1305.26 1014.87 1305.26 1013.46C1305.26 1012.31 1304.86 1011.36 1304.06 1010.59C1303.26 1009.8 1302.03 1009.22 1300.37 1008.83L1294.89 1007.54C1291.87 1006.83 1289.66 1005.72 1288.25 1004.22C1286.85 1002.71 1286.15 1000.82 1286.15 998.546C1286.15 996.69 1286.67 995.047 1287.71 993.619C1288.77 992.191 1290.2 991.07 1292.02 990.256C1293.85 989.441 1295.92 989.034 1298.23 989.034C1301.49 989.034 1304.04 989.749 1305.9 991.177C1307.77 992.605 1309.1 994.49 1309.88 996.833ZM1331.89 1023.05C1328.72 1023.05 1325.99 1022.35 1323.69 1020.96C1321.4 1019.54 1319.64 1017.57 1318.39 1015.04C1317.17 1012.5 1316.55 1009.54 1316.55 1006.17C1316.55 1002.8 1317.17 999.832 1318.39 997.261C1319.64 994.676 1321.37 992.662 1323.58 991.22C1325.81 989.763 1328.41 989.034 1331.38 989.034C1333.09 989.034 1334.78 989.32 1336.45 989.891C1338.13 990.463 1339.65 991.391 1341.02 992.676C1342.39 993.948 1343.48 995.633 1344.3 997.732C1345.11 999.832 1345.52 1002.42 1345.52 1005.49V1007.63H1320.15V1003.26H1340.37C1340.37 1001.4 1340 999.746 1339.26 998.289C1338.53 996.833 1337.49 995.683 1336.13 994.84C1334.79 993.997 1333.21 993.576 1331.38 993.576C1329.36 993.576 1327.62 994.076 1326.15 995.076C1324.69 996.061 1323.57 997.347 1322.79 998.932C1322 1000.52 1321.61 1002.22 1321.61 1004.03V1006.94C1321.61 1009.43 1322.04 1011.54 1322.89 1013.26C1323.76 1014.98 1324.97 1016.28 1326.51 1017.18C1328.06 1018.07 1329.85 1018.51 1331.89 1018.51C1333.22 1018.51 1334.42 1018.33 1335.49 1017.96C1336.58 1017.57 1337.51 1017 1338.3 1016.24C1339.08 1015.47 1339.69 1014.51 1340.12 1013.37L1345 1014.74C1344.49 1016.4 1343.62 1017.86 1342.41 1019.11C1341.2 1020.36 1339.7 1021.33 1337.91 1022.03C1336.13 1022.71 1334.12 1023.05 1331.89 1023.05ZM1367.52 989.463V993.748H1350.47V989.463H1367.52ZM1355.44 981.579H1360.49V1012.94C1360.49 1014.37 1360.7 1015.44 1361.11 1016.16C1361.54 1016.86 1362.08 1017.33 1362.74 1017.57C1363.41 1017.8 1364.12 1017.91 1364.86 1017.91C1365.42 1017.91 1365.88 1017.88 1366.23 1017.83C1366.59 1017.76 1366.88 1017.7 1367.09 1017.66L1368.12 1022.2C1367.78 1022.33 1367.3 1022.45 1366.68 1022.58C1366.07 1022.73 1365.29 1022.8 1364.35 1022.8C1362.92 1022.8 1361.52 1022.49 1360.15 1021.88C1358.79 1021.26 1357.66 1020.33 1356.76 1019.07C1355.88 1017.81 1355.44 1016.23 1355.44 1014.31V981.579ZM1389.43 989.463V993.748H1372.38V989.463H1389.43ZM1377.35 981.579H1382.41V1012.94C1382.41 1014.37 1382.61 1015.44 1383.03 1016.16C1383.46 1016.86 1384 1017.33 1384.66 1017.57C1385.33 1017.8 1386.04 1017.91 1386.78 1017.91C1387.33 1017.91 1387.79 1017.88 1388.15 1017.83C1388.51 1017.76 1388.79 1017.7 1389.01 1017.66L1390.03 1022.2C1389.69 1022.33 1389.21 1022.45 1388.6 1022.58C1387.98 1022.73 1387.21 1022.8 1386.26 1022.8C1384.84 1022.8 1383.44 1022.49 1382.06 1021.88C1380.71 1021.26 1379.58 1020.33 1378.68 1019.07C1377.79 1017.81 1377.35 1016.23 1377.35 1014.31V981.579ZM1397.04 1022.37V989.463H1402.1V1022.37H1397.04ZM1399.61 983.979C1398.62 983.979 1397.78 983.643 1397.06 982.972C1396.36 982.3 1396.01 981.493 1396.01 980.551C1396.01 979.608 1396.36 978.801 1397.06 978.13C1397.78 977.459 1398.62 977.123 1399.61 977.123C1400.6 977.123 1401.44 977.459 1402.14 978.13C1402.85 978.801 1403.21 979.608 1403.21 980.551C1403.21 981.493 1402.85 982.3 1402.14 982.972C1401.44 983.643 1400.6 983.979 1399.61 983.979ZM1416.41 1002.57V1022.37H1411.36V989.463H1416.24V994.604H1416.67C1417.44 992.933 1418.61 991.591 1420.18 990.577C1421.75 989.549 1423.78 989.034 1426.27 989.034C1428.49 989.034 1430.44 989.491 1432.11 990.406C1433.79 991.305 1435.09 992.676 1436.01 994.519C1436.94 996.347 1437.41 998.661 1437.41 1001.46V1022.37H1432.35V1001.8C1432.35 999.218 1431.68 997.204 1430.34 995.761C1428.99 994.305 1427.15 993.576 1424.81 993.576C1423.2 993.576 1421.75 993.926 1420.48 994.626C1419.23 995.326 1418.23 996.347 1417.5 997.689C1416.78 999.032 1416.41 1000.66 1416.41 1002.57ZM1459.93 1035.39C1457.49 1035.39 1455.39 1035.08 1453.63 1034.45C1451.87 1033.84 1450.41 1033.02 1449.24 1032.01C1448.08 1031.01 1447.16 1029.94 1446.47 1028.8L1450.5 1025.97C1450.96 1026.57 1451.54 1027.25 1452.24 1028.02C1452.94 1028.81 1453.89 1029.49 1455.11 1030.06C1456.34 1030.65 1457.94 1030.94 1459.93 1030.94C1462.58 1030.94 1464.78 1030.3 1466.5 1029.01C1468.23 1027.72 1469.1 1025.71 1469.1 1022.97V1016.28H1468.67C1468.3 1016.88 1467.77 1017.63 1467.08 1018.51C1466.41 1019.38 1465.44 1020.16 1464.17 1020.85C1462.91 1021.52 1461.21 1021.85 1459.07 1021.85C1456.41 1021.85 1454.03 1021.23 1451.92 1019.97C1449.82 1018.71 1448.15 1016.88 1446.92 1014.49C1445.71 1012.09 1445.1 1009.17 1445.1 1005.74C1445.1 1002.37 1445.7 999.439 1446.88 996.94C1448.07 994.426 1449.72 992.484 1451.83 991.112C1453.94 989.727 1456.39 989.034 1459.16 989.034C1461.3 989.034 1463 989.391 1464.26 990.106C1465.53 990.805 1466.5 991.605 1467.17 992.505C1467.85 993.39 1468.38 994.119 1468.75 994.69H1469.27V989.463H1474.15V1023.31C1474.15 1026.14 1473.51 1028.44 1472.22 1030.21C1470.95 1032 1469.24 1033.3 1467.08 1034.13C1464.94 1034.97 1462.56 1035.39 1459.93 1035.39ZM1459.76 1017.31C1461.78 1017.31 1463.5 1016.85 1464.9 1015.92C1466.3 1014.99 1467.36 1013.66 1468.09 1011.91C1468.82 1010.17 1469.18 1008.09 1469.18 1005.66C1469.18 1003.29 1468.83 1001.2 1468.11 999.382C1467.4 997.568 1466.34 996.147 1464.94 995.119C1463.54 994.09 1461.81 993.576 1459.76 993.576C1457.61 993.576 1455.83 994.119 1454.4 995.204C1452.99 996.29 1451.92 997.747 1451.21 999.575C1450.51 1001.4 1450.16 1003.43 1450.16 1005.66C1450.16 1007.94 1450.52 1009.97 1451.23 1011.72C1451.96 1013.46 1453.03 1014.84 1454.44 1015.84C1455.87 1016.82 1457.64 1017.31 1459.76 1017.31ZM1506.72 996.833L1502.17 998.118C1501.89 997.361 1501.47 996.625 1500.91 995.911C1500.37 995.183 1499.63 994.583 1498.68 994.112C1497.74 993.64 1496.53 993.405 1495.06 993.405C1493.05 993.405 1491.37 993.869 1490.03 994.797C1488.7 995.711 1488.04 996.875 1488.04 998.289C1488.04 999.546 1488.49 1000.54 1489.41 1001.27C1490.32 1002 1491.75 1002.6 1493.69 1003.09L1498.58 1004.29C1501.52 1005 1503.71 1006.09 1505.15 1007.57C1506.6 1009.02 1507.32 1010.9 1507.32 1013.2C1507.32 1015.09 1506.77 1016.77 1505.69 1018.26C1504.62 1019.74 1503.12 1020.91 1501.19 1021.77C1499.26 1022.63 1497.02 1023.05 1494.46 1023.05C1491.11 1023.05 1488.33 1022.33 1486.13 1020.87C1483.93 1019.41 1482.54 1017.28 1481.95 1014.49L1486.75 1013.29C1487.21 1015.06 1488.07 1016.38 1489.34 1017.27C1490.63 1018.16 1492.31 1018.6 1494.38 1018.6C1496.73 1018.6 1498.6 1018.1 1499.99 1017.1C1501.39 1016.08 1502.09 1014.87 1502.09 1013.46C1502.09 1012.31 1501.69 1011.36 1500.89 1010.59C1500.09 1009.8 1498.86 1009.22 1497.2 1008.83L1491.72 1007.54C1488.71 1006.83 1486.49 1005.72 1485.08 1004.22C1483.68 1002.71 1482.98 1000.82 1482.98 998.546C1482.98 996.69 1483.5 995.047 1484.54 993.619C1485.6 992.191 1487.04 991.07 1488.85 990.256C1490.68 989.441 1492.75 989.034 1495.06 989.034C1498.32 989.034 1500.88 989.749 1502.73 991.177C1504.6 992.605 1505.93 994.49 1506.72 996.833ZM1518.61 1022.71C1517.55 1022.71 1516.65 1022.33 1515.89 1021.58C1515.13 1020.82 1514.76 1019.91 1514.76 1018.86C1514.76 1017.8 1515.13 1016.89 1515.89 1016.13C1516.65 1015.38 1517.55 1015 1518.61 1015C1519.67 1015 1520.58 1015.38 1521.33 1016.13C1522.09 1016.89 1522.47 1017.8 1522.47 1018.86C1522.47 1019.56 1522.29 1020.2 1521.93 1020.78C1521.59 1021.37 1521.13 1021.84 1520.54 1022.2C1519.97 1022.54 1519.33 1022.71 1518.61 1022.71Z" fill="white"/>
<rect x="1004.46" y="290.5" width="15.082" height="15.082" fill="#C14DBA"/>
<rect x="1058.76" y="326.697" width="15.082" height="15.082" fill="#AA4DC1"/>
<rect x="1094.95" y="350.828" width="9.04922" height="9.04922" fill="#C14DBA"/>
<rect x="1152.27" y="299.549" width="9.04922" height="9.04922" fill="#C14DBA"/>
<rect x="1179.41" y="284.467" width="15.082" height="15.082" fill="#C14DBA"/>
<rect x="1278.96" y="287.482" width="15.082" height="15.082" fill="#C14DBA"/>
<rect x="1218.63" y="359.877" width="15.082" height="15.082" fill="#AA4DC1"/>
<rect x="1263.88" y="390.041" width="15.082" height="15.082" fill="#964DC1"/>
<rect x="1275.94" y="477.518" width="15.082" height="15.082" fill="#964DC1"/>
<rect x="1215.61" y="474.5" width="15.082" height="15.082" fill="#6654A8"/>
<rect x="1173.38" y="492.6" width="9.04922" height="9.04922" fill="#964DC1"/>
<rect x="1143.22" y="441.32" width="15.082" height="15.082" fill="#6654A8"/>
<rect x="1064.79" y="510.697" width="15.082" height="15.082" fill="#6654A8"/>
<rect x="1010.49" y="510.697" width="9.04922" height="9.04922" fill="#964DC1"/>
<rect x="1004.46" y="371.943" width="15.082" height="15.082" fill="#AA4DC1"/>
<rect x="998.43" y="571.025" width="15.082" height="15.082" fill="#6654A8"/>
<rect x="1110.04" y="558.959" width="15.082" height="15.082" fill="#6654A8"/>
<rect x="1278.96" y="561.977" width="9.04922" height="9.04922" fill="#6654A8"/>
</svg>
