<svg width="3069" height="1585" viewBox="0 0 3069 1585" fill="none" xmlns="http://www.w3.org/2000/svg">
<rect y="0.230469" width="3068.69" height="1584.62" rx="120.656" fill="#171717"/>
<path d="M123.033 91.9586V185.559H111.698V103.841H111.15L88.2984 119.015V107.498L111.698 91.9586H123.033ZM152.466 186.29C150.211 186.29 148.276 185.482 146.661 183.868C145.046 182.253 144.239 180.318 144.239 178.063C144.239 175.809 145.046 173.874 146.661 172.259C148.276 170.644 150.211 169.837 152.466 169.837C154.72 169.837 156.655 170.644 158.27 172.259C159.885 173.874 160.692 175.809 160.692 178.063C160.692 179.556 160.311 180.927 159.55 182.177C158.818 183.426 157.828 184.431 156.579 185.193C155.36 185.924 153.989 186.29 152.466 186.29Z" fill="white"/>
<path d="M1070.35 1115.94V1109.66H1114.22V1115.94H1095.83V1168.16H1088.74V1115.94H1070.35ZM1130.98 1141.76V1168.16H1124.24V1109.66H1130.98V1131.14H1131.56C1132.58 1128.87 1134.13 1127.07 1136.18 1125.74C1138.26 1124.39 1141.02 1123.71 1144.47 1123.71C1147.46 1123.71 1150.07 1124.31 1152.32 1125.51C1154.57 1126.69 1156.31 1128.51 1157.55 1130.97C1158.81 1133.4 1159.43 1136.51 1159.43 1140.28V1168.16H1152.69V1140.74C1152.69 1137.25 1151.79 1134.56 1149.98 1132.65C1148.19 1130.73 1145.7 1129.77 1142.52 1129.77C1140.32 1129.77 1138.33 1130.23 1136.58 1131.17C1134.85 1132.1 1133.48 1133.46 1132.47 1135.25C1131.48 1137.04 1130.98 1139.21 1130.98 1141.76ZM1171.77 1168.16V1124.28H1178.51V1168.16H1171.77ZM1175.19 1116.97C1173.88 1116.97 1172.75 1116.52 1171.8 1115.63C1170.86 1114.73 1170.4 1113.66 1170.4 1112.4C1170.4 1111.14 1170.86 1110.07 1171.8 1109.17C1172.75 1108.28 1173.88 1107.83 1175.19 1107.83C1176.51 1107.83 1177.63 1108.28 1178.57 1109.17C1179.52 1110.07 1179.99 1111.14 1179.99 1112.4C1179.99 1113.66 1179.52 1114.73 1178.57 1115.63C1177.63 1116.52 1176.51 1116.97 1175.19 1116.97ZM1221.93 1134.11L1215.88 1135.82C1215.5 1134.81 1214.93 1133.83 1214.19 1132.88C1213.47 1131.91 1212.48 1131.11 1211.22 1130.48C1209.96 1129.85 1208.36 1129.54 1206.39 1129.54C1203.71 1129.54 1201.47 1130.16 1199.68 1131.4C1197.91 1132.61 1197.03 1134.17 1197.03 1136.05C1197.03 1137.73 1197.63 1139.05 1198.85 1140.02C1200.07 1140.99 1201.98 1141.8 1204.57 1142.45L1211.08 1144.05C1215 1145 1217.92 1146.46 1219.85 1148.42C1221.77 1150.36 1222.73 1152.87 1222.73 1155.93C1222.73 1158.45 1222.01 1160.69 1220.56 1162.67C1219.13 1164.65 1217.13 1166.22 1214.56 1167.36C1211.99 1168.5 1209 1169.07 1205.59 1169.07C1201.12 1169.07 1197.42 1168.1 1194.48 1166.16C1191.55 1164.22 1189.69 1161.38 1188.91 1157.65L1195.31 1156.05C1195.92 1158.41 1197.07 1160.18 1198.77 1161.36C1200.48 1162.54 1202.72 1163.13 1205.48 1163.13C1208.62 1163.13 1211.12 1162.46 1212.96 1161.13C1214.83 1159.78 1215.76 1158.16 1215.76 1156.28C1215.76 1154.75 1215.23 1153.48 1214.16 1152.45C1213.1 1151.4 1211.46 1150.62 1209.25 1150.11L1201.94 1148.39C1197.92 1147.44 1194.97 1145.96 1193.08 1143.96C1191.22 1141.95 1190.28 1139.42 1190.28 1136.39C1190.28 1133.92 1190.98 1131.73 1192.37 1129.82C1193.78 1127.92 1195.69 1126.43 1198.11 1125.34C1200.55 1124.25 1203.31 1123.71 1206.39 1123.71C1210.74 1123.71 1214.14 1124.66 1216.62 1126.57C1219.11 1128.47 1220.89 1130.99 1221.93 1134.11ZM1255.5 1168.16V1124.28H1262.24V1168.16H1255.5ZM1258.93 1116.97C1257.62 1116.97 1256.48 1116.52 1255.53 1115.63C1254.6 1114.73 1254.13 1113.66 1254.13 1112.4C1254.13 1111.14 1254.6 1110.07 1255.53 1109.17C1256.48 1108.28 1257.62 1107.83 1258.93 1107.83C1260.25 1107.83 1261.37 1108.28 1262.3 1109.17C1263.25 1110.07 1263.73 1111.14 1263.73 1112.4C1263.73 1113.66 1263.25 1114.73 1262.3 1115.63C1261.37 1116.52 1260.25 1116.97 1258.93 1116.97ZM1305.67 1134.11L1299.61 1135.82C1299.23 1134.81 1298.67 1133.83 1297.93 1132.88C1297.21 1131.91 1296.22 1131.11 1294.96 1130.48C1293.7 1129.85 1292.09 1129.54 1290.13 1129.54C1287.45 1129.54 1285.21 1130.16 1283.42 1131.4C1281.65 1132.61 1280.76 1134.17 1280.76 1136.05C1280.76 1137.73 1281.37 1139.05 1282.59 1140.02C1283.81 1140.99 1285.71 1141.8 1288.3 1142.45L1294.82 1144.05C1298.74 1145 1301.66 1146.46 1303.58 1148.42C1305.51 1150.36 1306.47 1152.87 1306.47 1155.93C1306.47 1158.45 1305.75 1160.69 1304.3 1162.67C1302.87 1164.65 1300.87 1166.22 1298.3 1167.36C1295.73 1168.5 1292.74 1169.07 1289.33 1169.07C1284.86 1169.07 1281.15 1168.1 1278.22 1166.16C1275.29 1164.22 1273.43 1161.38 1272.65 1157.65L1279.05 1156.05C1279.66 1158.41 1280.81 1160.18 1282.5 1161.36C1284.22 1162.54 1286.46 1163.13 1289.22 1163.13C1292.36 1163.13 1294.85 1162.46 1296.7 1161.13C1298.57 1159.78 1299.5 1158.16 1299.5 1156.28C1299.5 1154.75 1298.97 1153.48 1297.9 1152.45C1296.83 1151.4 1295.2 1150.62 1292.99 1150.11L1285.67 1148.39C1281.66 1147.44 1278.71 1145.96 1276.82 1143.96C1274.95 1141.95 1274.02 1139.42 1274.02 1136.39C1274.02 1133.92 1274.72 1131.73 1276.11 1129.82C1277.51 1127.92 1279.43 1126.43 1281.85 1125.34C1284.28 1124.25 1287.05 1123.71 1290.13 1123.71C1294.47 1123.71 1297.88 1124.66 1300.36 1126.57C1302.85 1128.47 1304.62 1130.99 1305.67 1134.11ZM1352.15 1169.19C1349.37 1169.19 1346.85 1168.66 1344.58 1167.62C1342.32 1166.55 1340.52 1165.02 1339.18 1163.02C1337.85 1161 1337.18 1158.56 1337.18 1155.7C1337.18 1153.19 1337.68 1151.15 1338.67 1149.59C1339.66 1148.01 1340.98 1146.77 1342.64 1145.88C1344.3 1144.98 1346.12 1144.32 1348.12 1143.88C1350.14 1143.42 1352.17 1143.06 1354.21 1142.79C1356.87 1142.45 1359.04 1142.19 1360.69 1142.02C1362.37 1141.83 1363.59 1141.52 1364.35 1141.08C1365.13 1140.64 1365.52 1139.88 1365.52 1138.79V1138.57C1365.52 1135.75 1364.75 1133.56 1363.21 1132C1361.68 1130.43 1359.37 1129.65 1356.26 1129.65C1353.05 1129.65 1350.52 1130.36 1348.7 1131.77C1346.87 1133.18 1345.58 1134.68 1344.84 1136.28L1338.44 1134C1339.58 1131.33 1341.11 1129.25 1343.01 1127.77C1344.93 1126.26 1347.03 1125.22 1349.3 1124.63C1351.58 1124.02 1353.83 1123.71 1356.04 1123.71C1357.45 1123.71 1359.06 1123.88 1360.89 1124.23C1362.74 1124.55 1364.52 1125.23 1366.23 1126.25C1367.97 1127.28 1369.4 1128.83 1370.55 1130.91C1371.69 1132.99 1372.26 1135.77 1372.26 1139.25V1168.16H1365.52V1162.22H1365.18C1364.72 1163.17 1363.96 1164.19 1362.89 1165.27C1361.83 1166.36 1360.41 1167.28 1358.64 1168.04C1356.86 1168.81 1354.7 1169.19 1352.15 1169.19ZM1353.18 1163.13C1355.85 1163.13 1358.09 1162.61 1359.92 1161.56C1361.77 1160.51 1363.16 1159.16 1364.09 1157.5C1365.04 1155.85 1365.52 1154.1 1365.52 1152.28V1146.11C1365.23 1146.45 1364.61 1146.76 1363.63 1147.05C1362.68 1147.32 1361.58 1147.55 1360.32 1147.76C1359.08 1147.95 1357.87 1148.12 1356.69 1148.28C1355.53 1148.41 1354.59 1148.52 1353.87 1148.62C1352.11 1148.85 1350.48 1149.22 1348.95 1149.73C1347.45 1150.23 1346.23 1150.98 1345.3 1151.99C1344.38 1152.98 1343.92 1154.33 1343.92 1156.05C1343.92 1158.39 1344.79 1160.16 1346.52 1161.36C1348.28 1162.54 1350.49 1163.13 1353.18 1163.13ZM1404.9 1127.94V1122.8C1404.9 1121.24 1405.18 1119.58 1405.73 1117.83C1406.3 1116.06 1407.12 1114.35 1408.19 1112.71C1409.27 1111.06 1410.58 1109.62 1412.1 1108.4L1415.76 1111.37C1414.56 1113.09 1413.51 1114.88 1412.62 1116.74C1411.74 1118.59 1411.3 1120.57 1411.3 1122.68V1127.94H1404.9ZM1419.53 1127.94V1122.8C1419.53 1121.24 1419.8 1119.58 1420.36 1117.83C1420.93 1116.06 1421.75 1114.35 1422.81 1112.71C1423.9 1111.06 1425.2 1109.62 1426.73 1108.4L1430.38 1111.37C1429.18 1113.09 1428.14 1114.88 1427.24 1116.74C1426.36 1118.59 1425.93 1120.57 1425.93 1122.68V1127.94H1419.53ZM1437.82 1184.61V1124.28H1444.34V1131.25H1445.14C1445.63 1130.49 1446.32 1129.52 1447.19 1128.34C1448.09 1127.14 1449.36 1126.07 1451.02 1125.14C1452.7 1124.19 1454.96 1123.71 1457.82 1123.71C1461.51 1123.71 1464.77 1124.64 1467.59 1126.48C1470.41 1128.33 1472.61 1130.95 1474.19 1134.34C1475.77 1137.73 1476.56 1141.73 1476.56 1146.33C1476.56 1150.98 1475.77 1155.01 1474.19 1158.42C1472.61 1161.81 1470.42 1164.44 1467.62 1166.3C1464.82 1168.15 1461.59 1169.07 1457.93 1169.07C1455.11 1169.07 1452.86 1168.61 1451.16 1167.67C1449.47 1166.72 1448.16 1165.64 1447.25 1164.44C1446.34 1163.23 1445.63 1162.22 1445.14 1161.42H1444.56V1184.61H1437.82ZM1444.45 1146.22C1444.45 1149.53 1444.94 1152.46 1445.91 1154.99C1446.88 1157.5 1448.3 1159.47 1450.16 1160.9C1452.03 1162.31 1454.31 1163.02 1457.02 1163.02C1459.84 1163.02 1462.19 1162.27 1464.07 1160.79C1465.98 1159.28 1467.41 1157.27 1468.36 1154.73C1469.33 1152.18 1469.82 1149.34 1469.82 1146.22C1469.82 1143.14 1469.34 1140.36 1468.39 1137.88C1467.45 1135.39 1466.04 1133.41 1464.13 1131.97C1462.25 1130.5 1459.88 1129.77 1457.02 1129.77C1454.28 1129.77 1451.97 1130.46 1450.11 1131.85C1448.24 1133.22 1446.83 1135.15 1445.88 1137.62C1444.93 1140.08 1444.45 1142.95 1444.45 1146.22ZM1499.75 1169.19C1496.97 1169.19 1494.45 1168.66 1492.18 1167.62C1489.92 1166.55 1488.12 1165.02 1486.78 1163.02C1485.45 1161 1484.78 1158.56 1484.78 1155.7C1484.78 1153.19 1485.28 1151.15 1486.27 1149.59C1487.26 1148.01 1488.58 1146.77 1490.24 1145.88C1491.9 1144.98 1493.72 1144.32 1495.72 1143.88C1497.74 1143.42 1499.77 1143.06 1501.81 1142.79C1504.47 1142.45 1506.64 1142.19 1508.29 1142.02C1509.97 1141.83 1511.19 1141.52 1511.95 1141.08C1512.73 1140.64 1513.12 1139.88 1513.12 1138.79V1138.57C1513.12 1135.75 1512.35 1133.56 1510.81 1132C1509.28 1130.43 1506.97 1129.65 1503.86 1129.65C1500.65 1129.65 1498.12 1130.36 1496.29 1131.77C1494.47 1133.18 1493.18 1134.68 1492.44 1136.28L1486.04 1134C1487.18 1131.33 1488.71 1129.25 1490.61 1127.77C1492.53 1126.26 1494.63 1125.22 1496.89 1124.63C1499.18 1124.02 1501.43 1123.71 1503.64 1123.71C1505.05 1123.71 1506.66 1123.88 1508.49 1124.23C1510.34 1124.55 1512.12 1125.23 1513.83 1126.25C1515.57 1127.28 1517 1128.83 1518.15 1130.91C1519.29 1132.99 1519.86 1135.77 1519.86 1139.25V1168.16H1513.12V1162.22H1512.78C1512.32 1163.17 1511.56 1164.19 1510.49 1165.27C1509.42 1166.36 1508.01 1167.28 1506.24 1168.04C1504.46 1168.81 1502.3 1169.19 1499.75 1169.19ZM1500.78 1163.13C1503.45 1163.13 1505.69 1162.61 1507.52 1161.56C1509.37 1160.51 1510.76 1159.16 1511.69 1157.5C1512.64 1155.85 1513.12 1154.1 1513.12 1152.28V1146.11C1512.83 1146.45 1512.21 1146.76 1511.23 1147.05C1510.28 1147.32 1509.18 1147.55 1507.92 1147.76C1506.68 1147.95 1505.47 1148.12 1504.29 1148.28C1503.13 1148.41 1502.19 1148.52 1501.46 1148.62C1499.71 1148.85 1498.08 1149.22 1496.55 1149.73C1495.05 1150.23 1493.83 1150.98 1492.9 1151.99C1491.98 1152.98 1491.52 1154.33 1491.52 1156.05C1491.52 1158.39 1492.39 1160.16 1494.12 1161.36C1495.88 1162.54 1498.09 1163.13 1500.78 1163.13ZM1532.16 1168.16V1124.28H1538.68V1130.91H1539.13C1539.93 1128.74 1541.38 1126.98 1543.48 1125.63C1545.57 1124.27 1547.93 1123.6 1550.56 1123.6C1551.06 1123.6 1551.67 1123.61 1552.42 1123.63C1553.16 1123.65 1553.72 1123.67 1554.1 1123.71V1130.57C1553.87 1130.51 1553.35 1130.42 1552.53 1130.31C1551.73 1130.18 1550.88 1130.11 1549.99 1130.11C1547.86 1130.11 1545.95 1130.56 1544.28 1131.45C1542.62 1132.33 1541.31 1133.55 1540.33 1135.11C1539.38 1136.65 1538.91 1138.41 1538.91 1140.39V1168.16H1532.16ZM1583.92 1124.28V1130H1561.19V1124.28H1583.92ZM1567.81 1113.77H1574.55V1155.59C1574.55 1157.49 1574.83 1158.92 1575.38 1159.87C1575.95 1160.81 1576.68 1161.44 1577.55 1161.76C1578.45 1162.06 1579.39 1162.22 1580.38 1162.22C1581.12 1162.22 1581.73 1162.18 1582.21 1162.1C1582.69 1162.01 1583.07 1161.93 1583.35 1161.87L1584.72 1167.93C1584.27 1168.1 1583.63 1168.27 1582.81 1168.44C1581.99 1168.63 1580.95 1168.73 1579.7 1168.73C1577.79 1168.73 1575.93 1168.32 1574.1 1167.5C1572.29 1166.68 1570.78 1165.44 1569.58 1163.76C1568.4 1162.08 1567.81 1159.97 1567.81 1157.42V1113.77ZM1594.06 1168.16V1124.28H1600.81V1168.16H1594.06ZM1597.49 1116.97C1596.18 1116.97 1595.04 1116.52 1594.09 1115.63C1593.16 1114.73 1592.69 1113.66 1592.69 1112.4C1592.69 1111.14 1593.16 1110.07 1594.09 1109.17C1595.04 1108.28 1596.18 1107.83 1597.49 1107.83C1598.81 1107.83 1599.93 1108.28 1600.86 1109.17C1601.81 1110.07 1602.29 1111.14 1602.29 1112.4C1602.29 1113.66 1601.81 1114.73 1600.86 1115.63C1599.93 1116.52 1598.81 1116.97 1597.49 1116.97ZM1630.98 1169.07C1626.86 1169.07 1623.32 1168.1 1620.35 1166.16C1617.38 1164.22 1615.09 1161.54 1613.49 1158.13C1611.9 1154.72 1611.1 1150.83 1611.1 1146.45C1611.1 1141.99 1611.91 1138.06 1613.55 1134.65C1615.21 1131.22 1617.51 1128.55 1620.46 1126.63C1623.44 1124.68 1626.9 1123.71 1630.86 1123.71C1633.95 1123.71 1636.73 1124.28 1639.2 1125.43C1641.68 1126.57 1643.71 1128.17 1645.29 1130.22C1646.87 1132.28 1647.85 1134.68 1648.23 1137.42H1641.49C1640.97 1135.42 1639.83 1133.65 1638.06 1132.11C1636.31 1130.55 1633.95 1129.77 1630.98 1129.77C1628.35 1129.77 1626.04 1130.45 1624.06 1131.82C1622.1 1133.18 1620.57 1135.09 1619.46 1137.57C1618.38 1140.02 1617.84 1142.91 1617.84 1146.22C1617.84 1149.61 1618.37 1152.56 1619.44 1155.08C1620.52 1157.59 1622.05 1159.54 1624.01 1160.93C1625.99 1162.32 1628.31 1163.02 1630.98 1163.02C1632.73 1163.02 1634.32 1162.71 1635.75 1162.1C1637.17 1161.49 1638.38 1160.62 1639.37 1159.47C1640.36 1158.33 1641.07 1156.96 1641.49 1155.36H1648.23C1647.85 1157.95 1646.91 1160.28 1645.4 1162.36C1643.92 1164.42 1641.95 1166.05 1639.49 1167.27C1637.05 1168.47 1634.21 1169.07 1630.98 1169.07ZM1664.83 1109.66V1168.16H1658.08V1109.66H1664.83ZM1695.57 1169.07C1691.34 1169.07 1687.69 1168.14 1684.63 1166.27C1681.58 1164.39 1679.23 1161.76 1677.57 1158.39C1675.93 1155 1675.12 1151.06 1675.12 1146.56C1675.12 1142.07 1675.93 1138.11 1677.57 1134.68C1679.23 1131.23 1681.53 1128.55 1684.48 1126.63C1687.46 1124.68 1690.92 1123.71 1694.88 1123.71C1697.17 1123.71 1699.42 1124.09 1701.65 1124.85C1703.88 1125.62 1705.91 1126.85 1707.74 1128.57C1709.56 1130.26 1711.02 1132.51 1712.11 1135.31C1713.19 1138.11 1713.73 1141.56 1713.73 1145.65V1148.51H1679.91V1142.68H1706.88C1706.88 1140.2 1706.38 1137.99 1705.39 1136.05C1704.42 1134.11 1703.03 1132.58 1701.22 1131.45C1699.43 1130.33 1697.32 1129.77 1694.88 1129.77C1692.2 1129.77 1689.87 1130.43 1687.91 1131.77C1685.97 1133.08 1684.48 1134.79 1683.43 1136.91C1682.38 1139.02 1681.86 1141.29 1681.86 1143.71V1147.59C1681.86 1150.91 1682.43 1153.71 1683.57 1156.02C1684.73 1158.3 1686.34 1160.05 1688.4 1161.25C1690.45 1162.43 1692.84 1163.02 1695.57 1163.02C1697.34 1163.02 1698.94 1162.77 1700.37 1162.27C1701.81 1161.76 1703.06 1161 1704.11 1159.99C1705.16 1158.96 1705.97 1157.68 1706.54 1156.16L1713.05 1157.99C1712.36 1160.2 1711.21 1162.14 1709.59 1163.82C1707.97 1165.47 1705.97 1166.77 1703.59 1167.7C1701.21 1168.62 1698.54 1169.07 1695.57 1169.07ZM1729.93 1109.66V1114.8C1729.93 1116.36 1729.65 1118.03 1729.07 1119.8C1728.52 1121.55 1727.7 1123.25 1726.62 1124.91C1725.55 1126.55 1724.26 1127.98 1722.73 1129.2L1719.08 1126.23C1720.28 1124.51 1721.31 1122.73 1722.19 1120.88C1723.08 1119.02 1723.53 1117.03 1723.53 1114.91V1109.66H1729.93ZM1744.56 1109.66V1114.8C1744.56 1116.36 1744.27 1118.03 1743.7 1119.8C1743.15 1121.55 1742.33 1123.25 1741.24 1124.91C1740.18 1126.55 1738.88 1127.98 1737.36 1129.2L1733.7 1126.23C1734.9 1124.51 1735.94 1122.73 1736.81 1120.88C1737.71 1119.02 1738.16 1117.03 1738.16 1114.91V1109.66H1744.56ZM1778.16 1168.16V1109.66H1784.9V1131.25H1785.47C1785.97 1130.49 1786.65 1129.52 1787.53 1128.34C1788.43 1127.14 1789.7 1126.07 1791.36 1125.14C1793.03 1124.19 1795.3 1123.71 1798.16 1123.71C1801.85 1123.71 1805.11 1124.64 1807.93 1126.48C1810.74 1128.33 1812.94 1130.95 1814.52 1134.34C1816.1 1137.73 1816.9 1141.73 1816.9 1146.33C1816.9 1150.98 1816.1 1155.01 1814.52 1158.42C1812.94 1161.81 1810.75 1164.44 1807.95 1166.3C1805.16 1168.15 1801.93 1169.07 1798.27 1169.07C1795.45 1169.07 1793.2 1168.61 1791.5 1167.67C1789.81 1166.72 1788.5 1165.64 1787.59 1164.44C1786.67 1163.23 1785.97 1162.22 1785.47 1161.42H1784.67V1168.16H1778.16ZM1784.79 1146.22C1784.79 1149.53 1785.27 1152.46 1786.25 1154.99C1787.22 1157.5 1788.64 1159.47 1790.5 1160.9C1792.37 1162.31 1794.65 1163.02 1797.36 1163.02C1800.18 1163.02 1802.53 1162.27 1804.41 1160.79C1806.32 1159.28 1807.75 1157.27 1808.7 1154.73C1809.67 1152.18 1810.15 1149.34 1810.15 1146.22C1810.15 1143.14 1809.68 1140.36 1808.73 1137.88C1807.79 1135.39 1806.37 1133.41 1804.47 1131.97C1802.58 1130.5 1800.21 1129.77 1797.36 1129.77C1794.61 1129.77 1792.31 1130.46 1790.44 1131.85C1788.58 1133.22 1787.17 1135.15 1786.22 1137.62C1785.26 1140.08 1784.79 1142.95 1784.79 1146.22ZM1833.95 1109.66V1168.16H1827.21V1109.66H1833.95ZM1864.12 1169.07C1860.16 1169.07 1856.68 1168.13 1853.69 1166.24C1850.72 1164.36 1848.4 1161.72 1846.72 1158.33C1845.07 1154.94 1844.24 1150.98 1844.24 1146.45C1844.24 1141.88 1845.07 1137.89 1846.72 1134.48C1848.4 1131.07 1850.72 1128.43 1853.69 1126.54C1856.68 1124.65 1860.16 1123.71 1864.12 1123.71C1868.08 1123.71 1871.55 1124.65 1874.52 1126.54C1877.51 1128.43 1879.83 1131.07 1881.49 1134.48C1883.16 1137.89 1884 1141.88 1884 1146.45C1884 1150.98 1883.16 1154.94 1881.49 1158.33C1879.83 1161.72 1877.51 1164.36 1874.52 1166.24C1871.55 1168.13 1868.08 1169.07 1864.12 1169.07ZM1864.12 1163.02C1867.13 1163.02 1869.6 1162.25 1871.55 1160.7C1873.49 1159.16 1874.93 1157.13 1875.86 1154.62C1876.79 1152.1 1877.26 1149.38 1877.26 1146.45C1877.26 1143.52 1876.79 1140.78 1875.86 1138.25C1874.93 1135.72 1873.49 1133.67 1871.55 1132.11C1869.6 1130.55 1867.13 1129.77 1864.12 1129.77C1861.11 1129.77 1858.64 1130.55 1856.69 1132.11C1854.75 1133.67 1853.31 1135.72 1852.38 1138.25C1851.45 1140.78 1850.98 1143.52 1850.98 1146.45C1850.98 1149.38 1851.45 1152.1 1852.38 1154.62C1853.31 1157.13 1854.75 1159.16 1856.69 1160.7C1858.64 1162.25 1861.11 1163.02 1864.12 1163.02ZM1912.11 1169.07C1908 1169.07 1904.46 1168.1 1901.49 1166.16C1898.52 1164.22 1896.23 1161.54 1894.63 1158.13C1893.03 1154.72 1892.23 1150.83 1892.23 1146.45C1892.23 1141.99 1893.05 1138.06 1894.69 1134.65C1896.35 1131.22 1898.65 1128.55 1901.6 1126.63C1904.57 1124.68 1908.04 1123.71 1912 1123.71C1915.09 1123.71 1917.87 1124.28 1920.34 1125.43C1922.82 1126.57 1924.84 1128.17 1926.43 1130.22C1928.01 1132.28 1928.99 1134.68 1929.37 1137.42H1922.63C1922.11 1135.42 1920.97 1133.65 1919.2 1132.11C1917.45 1130.55 1915.09 1129.77 1912.11 1129.77C1909.49 1129.77 1907.18 1130.45 1905.2 1131.82C1903.24 1133.18 1901.71 1135.09 1900.6 1137.57C1899.52 1140.02 1898.98 1142.91 1898.98 1146.22C1898.98 1149.61 1899.51 1152.56 1900.57 1155.08C1901.66 1157.59 1903.18 1159.54 1905.15 1160.93C1907.13 1162.32 1909.45 1163.02 1912.11 1163.02C1913.87 1163.02 1915.46 1162.71 1916.89 1162.1C1918.31 1161.49 1919.52 1160.62 1920.51 1159.47C1921.5 1158.33 1922.21 1156.96 1922.63 1155.36H1929.37C1928.99 1157.95 1928.04 1160.28 1926.54 1162.36C1925.05 1164.42 1923.08 1166.05 1920.63 1167.27C1918.19 1168.47 1915.35 1169.07 1912.11 1169.07ZM1945.51 1152.16L1945.39 1143.82H1946.76L1965.96 1124.28H1974.3L1953.85 1144.96H1953.28L1945.51 1152.16ZM1939.22 1168.16V1109.66H1945.96V1168.16H1939.22ZM1967.1 1168.16L1949.96 1146.45L1954.76 1141.76L1975.67 1168.16H1967.1ZM1987.89 1168.62C1986.48 1168.62 1985.27 1168.11 1984.26 1167.1C1983.25 1166.09 1982.75 1164.88 1982.75 1163.47C1982.75 1162.06 1983.25 1160.86 1984.26 1159.85C1985.27 1158.84 1986.48 1158.33 1987.89 1158.33C1989.3 1158.33 1990.51 1158.84 1991.52 1159.85C1992.53 1160.86 1993.03 1162.06 1993.03 1163.47C1993.03 1164.41 1992.79 1165.26 1992.32 1166.04C1991.86 1166.83 1991.24 1167.45 1990.46 1167.93C1989.7 1168.39 1988.84 1168.62 1987.89 1168.62ZM420.479 1206.66V1265.16H413.395V1206.66H420.479ZM452.85 1221.28V1227H430.112V1221.28H452.85ZM436.739 1210.77H443.48V1252.59C443.48 1254.49 443.757 1255.92 444.309 1256.87C444.88 1257.81 445.604 1258.44 446.48 1258.76C447.375 1259.06 448.317 1259.22 449.308 1259.22C450.05 1259.22 450.66 1259.18 451.136 1259.1C451.612 1259.01 451.993 1258.93 452.278 1258.87L453.649 1264.93C453.192 1265.1 452.554 1265.27 451.736 1265.44C450.917 1265.63 449.879 1265.73 448.622 1265.73C446.718 1265.73 444.852 1265.32 443.023 1264.5C441.214 1263.68 439.71 1262.44 438.51 1260.76C437.33 1259.08 436.739 1256.97 436.739 1254.42V1210.77ZM503.437 1266.07C499.324 1266.07 495.782 1265.1 492.811 1263.16C489.841 1261.22 487.555 1258.54 485.956 1255.13C484.356 1251.72 483.556 1247.83 483.556 1243.45C483.556 1238.99 484.375 1235.06 486.013 1231.65C487.67 1228.22 489.974 1225.55 492.925 1223.63C495.896 1221.68 499.362 1220.71 503.323 1220.71C506.408 1220.71 509.188 1221.28 511.664 1222.43C514.139 1223.57 516.167 1225.17 517.748 1227.22C519.329 1229.28 520.309 1231.68 520.69 1234.42H513.949C513.435 1232.42 512.292 1230.65 510.521 1229.11C508.769 1227.55 506.408 1226.77 503.437 1226.77C500.809 1226.77 498.505 1227.45 496.525 1228.82C494.563 1230.18 493.03 1232.09 491.926 1234.57C490.84 1237.02 490.298 1239.91 490.298 1243.22C490.298 1246.61 490.831 1249.56 491.897 1252.08C492.983 1254.59 494.506 1256.54 496.467 1257.93C498.448 1259.32 500.771 1260.02 503.437 1260.02C505.189 1260.02 506.779 1259.71 508.207 1259.1C509.636 1258.49 510.845 1257.62 511.835 1256.47C512.825 1255.33 513.53 1253.96 513.949 1252.36H520.69C520.309 1254.95 519.367 1257.28 517.862 1259.36C516.377 1261.42 514.406 1263.05 511.949 1264.27C509.512 1265.47 506.675 1266.07 503.437 1266.07ZM543.456 1266.19C540.676 1266.19 538.153 1265.66 535.886 1264.62C533.62 1263.55 531.821 1262.02 530.488 1260.02C529.155 1258 528.488 1255.56 528.488 1252.7C528.488 1250.19 528.983 1248.15 529.974 1246.59C530.964 1245.01 532.287 1243.77 533.944 1242.88C535.601 1241.98 537.429 1241.32 539.428 1240.88C541.447 1240.42 543.475 1240.06 545.513 1239.79C548.179 1239.45 550.34 1239.19 551.997 1239.02C553.673 1238.83 554.891 1238.52 555.653 1238.08C556.434 1237.64 556.824 1236.88 556.824 1235.79V1235.57C556.824 1232.75 556.053 1230.56 554.51 1229C552.987 1227.43 550.673 1226.65 547.569 1226.65C544.351 1226.65 541.828 1227.36 540 1228.77C538.172 1230.18 536.886 1231.68 536.144 1233.28L529.745 1231C530.888 1228.33 532.411 1226.25 534.315 1224.77C536.239 1223.26 538.333 1222.22 540.6 1221.63C542.885 1221.02 545.132 1220.71 547.341 1220.71C548.75 1220.71 550.369 1220.88 552.197 1221.23C554.044 1221.55 555.824 1222.23 557.538 1223.25C559.271 1224.28 560.709 1225.83 561.852 1227.91C562.994 1229.99 563.565 1232.77 563.565 1236.25V1265.16H556.824V1259.22H556.481C556.024 1260.17 555.263 1261.19 554.196 1262.27C553.13 1263.36 551.711 1264.28 549.94 1265.04C548.169 1265.81 546.008 1266.19 543.456 1266.19ZM544.484 1260.13C547.15 1260.13 549.397 1259.61 551.226 1258.56C553.073 1257.51 554.463 1256.16 555.396 1254.5C556.348 1252.85 556.824 1251.1 556.824 1249.28V1243.11C556.539 1243.45 555.91 1243.76 554.939 1244.05C553.987 1244.32 552.882 1244.55 551.625 1244.76C550.388 1244.95 549.178 1245.12 547.998 1245.28C546.836 1245.41 545.894 1245.52 545.17 1245.62C543.418 1245.85 541.78 1246.22 540.257 1246.73C538.752 1247.23 537.534 1247.98 536.601 1248.99C535.686 1249.98 535.229 1251.33 535.229 1253.05C535.229 1255.39 536.096 1257.16 537.829 1258.36C539.581 1259.54 541.799 1260.13 544.484 1260.13ZM582.611 1238.76V1265.16H575.87V1221.28H582.382V1228.14H582.954C583.982 1225.91 585.543 1224.12 587.638 1222.77C589.733 1221.4 592.437 1220.71 595.75 1220.71C598.721 1220.71 601.32 1221.32 603.548 1222.54C605.777 1223.74 607.509 1225.57 608.747 1228.02C609.985 1230.46 610.604 1233.55 610.604 1237.28V1265.16H603.863V1237.74C603.863 1234.29 602.968 1231.6 601.178 1229.68C599.388 1227.74 596.931 1226.77 593.808 1226.77C591.656 1226.77 589.733 1227.23 588.038 1228.17C586.362 1229.1 585.039 1230.46 584.068 1232.25C583.096 1234.04 582.611 1236.21 582.611 1238.76ZM646.459 1265.16V1206.66H653.201V1228.25H653.772C654.267 1227.49 654.953 1226.52 655.829 1225.34C656.724 1224.14 657.999 1223.07 659.656 1222.14C661.332 1221.19 663.598 1220.71 666.455 1220.71C670.149 1220.71 673.405 1221.64 676.224 1223.48C679.042 1225.33 681.241 1227.95 682.822 1231.34C684.403 1234.73 685.193 1238.73 685.193 1243.33C685.193 1247.98 684.403 1252.01 682.822 1255.42C681.241 1258.81 679.051 1261.44 676.252 1263.3C673.453 1265.15 670.225 1266.07 666.569 1266.07C663.75 1266.07 661.494 1265.61 659.799 1264.67C658.104 1263.72 656.8 1262.64 655.886 1261.44C654.972 1260.23 654.267 1259.22 653.772 1258.42H652.972V1265.16H646.459ZM653.086 1243.22C653.086 1246.53 653.572 1249.46 654.543 1251.99C655.514 1254.5 656.933 1256.47 658.799 1257.9C660.665 1259.31 662.951 1260.02 665.655 1260.02C668.473 1260.02 670.825 1259.27 672.71 1257.79C674.614 1256.28 676.043 1254.27 676.995 1251.73C677.966 1249.18 678.452 1246.34 678.452 1243.22C678.452 1240.14 677.976 1237.36 677.023 1234.88C676.09 1232.39 674.672 1230.41 672.767 1228.97C670.882 1227.5 668.511 1226.77 665.655 1226.77C662.913 1226.77 660.608 1227.46 658.742 1228.85C656.876 1230.22 655.467 1232.15 654.515 1234.62C653.562 1237.08 653.086 1239.95 653.086 1243.22ZM713.9 1266.07C709.673 1266.07 706.026 1265.14 702.96 1263.27C699.913 1261.39 697.561 1258.76 695.905 1255.39C694.267 1252 693.448 1248.06 693.448 1243.56C693.448 1239.07 694.267 1235.11 695.905 1231.68C697.561 1228.23 699.865 1225.55 702.817 1223.63C705.788 1221.68 709.254 1220.71 713.215 1220.71C715.5 1220.71 717.756 1221.09 719.984 1221.85C722.212 1222.62 724.24 1223.85 726.069 1225.57C727.897 1227.26 729.353 1229.51 730.439 1232.31C731.524 1235.11 732.067 1238.56 732.067 1242.65V1245.51H698.247V1239.68H725.212C725.212 1237.2 724.717 1234.99 723.726 1233.05C722.755 1231.11 721.365 1229.58 719.556 1228.45C717.766 1227.33 715.652 1226.77 713.215 1226.77C710.53 1226.77 708.206 1227.43 706.245 1228.77C704.302 1230.08 702.808 1231.79 701.76 1233.91C700.713 1236.02 700.189 1238.29 700.189 1240.71V1244.59C700.189 1247.91 700.76 1250.71 701.903 1253.02C703.065 1255.3 704.674 1257.05 706.73 1258.25C708.787 1259.43 711.177 1260.02 713.9 1260.02C715.671 1260.02 717.271 1259.77 718.699 1259.27C720.146 1258.76 721.394 1258 722.441 1256.99C723.488 1255.96 724.298 1254.68 724.869 1253.16L731.382 1254.99C730.696 1257.2 729.544 1259.14 727.925 1260.82C726.307 1262.47 724.307 1263.77 721.927 1264.7C719.546 1265.62 716.871 1266.07 713.9 1266.07ZM782.769 1266.07C778.656 1266.07 775.114 1265.1 772.143 1263.16C769.172 1261.22 766.887 1258.54 765.288 1255.13C763.688 1251.72 762.888 1247.83 762.888 1243.45C762.888 1238.99 763.707 1235.06 765.345 1231.65C767.001 1228.22 769.306 1225.55 772.257 1223.63C775.228 1221.68 778.694 1220.71 782.655 1220.71C785.74 1220.71 788.52 1221.28 790.996 1222.43C793.471 1223.57 795.499 1225.17 797.08 1227.22C798.66 1229.28 799.641 1231.68 800.022 1234.42H793.281C792.767 1232.42 791.624 1230.65 789.853 1229.11C788.101 1227.55 785.74 1226.77 782.769 1226.77C780.141 1226.77 777.837 1227.45 775.856 1228.82C773.895 1230.18 772.362 1232.09 771.258 1234.57C770.172 1237.02 769.629 1239.91 769.629 1243.22C769.629 1246.61 770.163 1249.56 771.229 1252.08C772.314 1254.59 773.838 1256.54 775.799 1257.93C777.78 1259.32 780.103 1260.02 782.769 1260.02C784.521 1260.02 786.111 1259.71 787.539 1259.1C788.968 1258.49 790.177 1257.62 791.167 1256.47C792.157 1255.33 792.862 1253.96 793.281 1252.36H800.022C799.641 1254.95 798.698 1257.28 797.194 1259.36C795.709 1261.42 793.738 1263.05 791.281 1264.27C788.844 1265.47 786.006 1266.07 782.769 1266.07ZM827.701 1266.07C823.74 1266.07 820.265 1265.13 817.275 1263.24C814.304 1261.36 811.981 1258.72 810.305 1255.33C808.648 1251.94 807.82 1247.98 807.82 1243.45C807.82 1238.88 808.648 1234.89 810.305 1231.48C811.981 1228.07 814.304 1225.43 817.275 1223.54C820.265 1221.65 823.74 1220.71 827.701 1220.71C831.662 1220.71 835.128 1221.65 838.098 1223.54C841.088 1225.43 843.411 1228.07 845.068 1231.48C846.744 1234.89 847.582 1238.88 847.582 1243.45C847.582 1247.98 846.744 1251.94 845.068 1255.33C843.411 1258.72 841.088 1261.36 838.098 1263.24C835.128 1265.13 831.662 1266.07 827.701 1266.07ZM827.701 1260.02C830.71 1260.02 833.185 1259.25 835.128 1257.7C837.07 1256.16 838.508 1254.13 839.441 1251.62C840.374 1249.1 840.841 1246.38 840.841 1243.45C840.841 1240.52 840.374 1237.78 839.441 1235.25C838.508 1232.72 837.07 1230.67 835.128 1229.11C833.185 1227.55 830.71 1226.77 827.701 1226.77C824.692 1226.77 822.217 1227.55 820.274 1229.11C818.332 1230.67 816.894 1232.72 815.961 1235.25C815.028 1237.78 814.561 1240.52 814.561 1243.45C814.561 1246.38 815.028 1249.1 815.961 1251.62C816.894 1254.13 818.332 1256.16 820.274 1257.7C822.217 1259.25 824.692 1260.02 827.701 1260.02ZM864.613 1206.66V1265.16H857.872V1206.66H864.613ZM894.785 1266.07C890.824 1266.07 887.348 1265.13 884.358 1263.24C881.388 1261.36 879.065 1258.72 877.389 1255.33C875.732 1251.94 874.904 1247.98 874.904 1243.45C874.904 1238.88 875.732 1234.89 877.389 1231.48C879.065 1228.07 881.388 1225.43 884.358 1223.54C887.348 1221.65 890.824 1220.71 894.785 1220.71C898.745 1220.71 902.211 1221.65 905.182 1223.54C908.172 1225.43 910.495 1228.07 912.152 1231.48C913.827 1234.89 914.665 1238.88 914.665 1243.45C914.665 1247.98 913.827 1251.94 912.152 1255.33C910.495 1258.72 908.172 1261.36 905.182 1263.24C902.211 1265.13 898.745 1266.07 894.785 1266.07ZM894.785 1260.02C897.793 1260.02 900.269 1259.25 902.211 1257.7C904.154 1256.16 905.591 1254.13 906.525 1251.62C907.458 1249.1 907.924 1246.38 907.924 1243.45C907.924 1240.52 907.458 1237.78 906.525 1235.25C905.591 1232.72 904.154 1230.67 902.211 1229.11C900.269 1227.55 897.793 1226.77 894.785 1226.77C891.776 1226.77 889.3 1227.55 887.358 1229.11C885.415 1230.67 883.978 1232.72 883.045 1235.25C882.111 1237.78 881.645 1240.52 881.645 1243.45C881.645 1246.38 882.111 1249.1 883.045 1251.62C883.978 1254.13 885.415 1256.16 887.358 1257.7C889.3 1259.25 891.776 1260.02 894.785 1260.02ZM952.606 1247.22V1221.28H959.347V1265.16H952.606V1257.73H952.149C951.121 1259.96 949.521 1261.85 947.35 1263.42C945.179 1264.96 942.437 1265.73 939.124 1265.73C936.382 1265.73 933.944 1265.13 931.811 1263.93C929.678 1262.71 928.003 1260.88 926.784 1258.45C925.565 1255.99 924.956 1252.89 924.956 1249.16V1221.28H931.697V1248.71C931.697 1251.9 932.592 1254.46 934.382 1256.36C936.191 1258.26 938.495 1259.22 941.295 1259.22C942.97 1259.22 944.675 1258.79 946.408 1257.93C948.16 1257.07 949.626 1255.76 950.807 1253.99C952.006 1252.22 952.606 1249.96 952.606 1247.22ZM971.694 1265.16V1221.28H978.207V1227.91H978.664C979.464 1225.74 980.911 1223.98 983.006 1222.63C985.101 1221.27 987.462 1220.6 990.09 1220.6C990.585 1220.6 991.204 1220.61 991.947 1220.63C992.689 1220.65 993.251 1220.67 993.632 1220.71V1227.57C993.403 1227.51 992.88 1227.42 992.061 1227.31C991.261 1227.18 990.414 1227.11 989.519 1227.11C987.386 1227.11 985.481 1227.56 983.806 1228.45C982.149 1229.33 980.835 1230.55 979.864 1232.11C978.912 1233.65 978.436 1235.41 978.436 1237.39V1265.16H971.694ZM1018.68 1266.07C1014.46 1266.07 1010.81 1265.14 1007.74 1263.27C1004.7 1261.39 1002.34 1258.76 1000.69 1255.39C999.05 1252 998.231 1248.06 998.231 1243.56C998.231 1239.07 999.05 1235.11 1000.69 1231.68C1002.34 1228.23 1004.65 1225.55 1007.6 1223.63C1010.57 1221.68 1014.04 1220.71 1018 1220.71C1020.28 1220.71 1022.54 1221.09 1024.77 1221.85C1027 1222.62 1029.02 1223.85 1030.85 1225.57C1032.68 1227.26 1034.14 1229.51 1035.22 1232.31C1036.31 1235.11 1036.85 1238.56 1036.85 1242.65V1245.51H1003.03V1239.68H1029.99C1029.99 1237.2 1029.5 1234.99 1028.51 1233.05C1027.54 1231.11 1026.15 1229.58 1024.34 1228.45C1022.55 1227.33 1020.43 1226.77 1018 1226.77C1015.31 1226.77 1012.99 1227.43 1011.03 1228.77C1009.09 1230.08 1007.59 1231.79 1006.54 1233.91C1005.5 1236.02 1004.97 1238.29 1004.97 1240.71V1244.59C1004.97 1247.91 1005.54 1250.71 1006.69 1253.02C1007.85 1255.3 1009.46 1257.05 1011.51 1258.25C1013.57 1259.43 1015.96 1260.02 1018.68 1260.02C1020.45 1260.02 1022.05 1259.77 1023.48 1259.27C1024.93 1258.76 1026.18 1258 1027.22 1256.99C1028.27 1255.96 1029.08 1254.68 1029.65 1253.16L1036.16 1254.99C1035.48 1257.2 1034.33 1259.14 1032.71 1260.82C1031.09 1262.47 1029.09 1263.77 1026.71 1264.7C1024.33 1265.62 1021.65 1266.07 1018.68 1266.07ZM1063.67 1266.07C1060.02 1266.07 1056.79 1265.15 1053.99 1263.3C1051.19 1261.44 1049 1258.81 1047.42 1255.42C1045.84 1252.01 1045.05 1247.98 1045.05 1243.33C1045.05 1238.73 1045.84 1234.73 1047.42 1231.34C1049 1227.95 1051.2 1225.33 1054.02 1223.48C1056.84 1221.64 1060.09 1220.71 1063.79 1220.71C1066.64 1220.71 1068.9 1221.19 1070.56 1222.14C1072.23 1223.07 1073.51 1224.14 1074.38 1225.34C1075.28 1226.52 1075.97 1227.49 1076.47 1228.25H1077.04V1206.66H1083.78V1265.16H1077.27V1258.42H1076.47C1075.97 1259.22 1075.27 1260.23 1074.35 1261.44C1073.44 1262.64 1072.14 1263.72 1070.44 1264.67C1068.75 1265.61 1066.49 1266.07 1063.67 1266.07ZM1064.59 1260.02C1067.29 1260.02 1069.58 1259.31 1071.44 1257.9C1073.31 1256.47 1074.73 1254.5 1075.7 1251.99C1076.67 1249.46 1077.15 1246.53 1077.15 1243.22C1077.15 1239.95 1076.68 1237.08 1075.73 1234.62C1074.77 1232.15 1073.36 1230.22 1071.5 1228.85C1069.63 1227.46 1067.33 1226.77 1064.59 1226.77C1061.73 1226.77 1059.35 1227.5 1057.44 1228.97C1055.56 1230.41 1054.14 1232.39 1053.19 1234.88C1052.26 1237.36 1051.79 1240.14 1051.79 1243.22C1051.79 1246.34 1052.27 1249.18 1053.22 1251.73C1054.19 1254.27 1055.62 1256.28 1057.5 1257.79C1059.41 1259.27 1061.77 1260.02 1064.59 1260.02ZM1138.77 1221.28V1227H1116.03V1221.28H1138.77ZM1122.66 1210.77H1129.4V1252.59C1129.4 1254.49 1129.67 1255.92 1130.23 1256.87C1130.8 1257.81 1131.52 1258.44 1132.4 1258.76C1133.29 1259.06 1134.24 1259.22 1135.23 1259.22C1135.97 1259.22 1136.58 1259.18 1137.05 1259.1C1137.53 1259.01 1137.91 1258.93 1138.2 1258.87L1139.57 1264.93C1139.11 1265.1 1138.47 1265.27 1137.65 1265.44C1136.83 1265.63 1135.8 1265.73 1134.54 1265.73C1132.64 1265.73 1130.77 1265.32 1128.94 1264.5C1127.13 1263.68 1125.63 1262.44 1124.43 1260.76C1123.25 1259.08 1122.66 1256.97 1122.66 1254.42V1210.77ZM1158.85 1265.16L1145.48 1221.28H1152.56L1162.05 1254.87H1162.5L1171.87 1221.28H1179.07L1188.33 1254.76H1188.78L1198.27 1221.28H1205.35L1191.98 1265.16H1185.36L1175.76 1231.45H1175.07L1165.48 1265.16H1158.85ZM1230.6 1266.07C1226.63 1266.07 1223.16 1265.13 1220.17 1263.24C1217.2 1261.36 1214.88 1258.72 1213.2 1255.33C1211.54 1251.94 1210.71 1247.98 1210.71 1243.45C1210.71 1238.88 1211.54 1234.89 1213.2 1231.48C1214.88 1228.07 1217.2 1225.43 1220.17 1223.54C1223.16 1221.65 1226.63 1220.71 1230.6 1220.71C1234.56 1220.71 1238.02 1221.65 1240.99 1223.54C1243.98 1225.43 1246.31 1228.07 1247.96 1231.48C1249.64 1234.89 1250.48 1238.88 1250.48 1243.45C1250.48 1247.98 1249.64 1251.94 1247.96 1255.33C1246.31 1258.72 1243.98 1261.36 1240.99 1263.24C1238.02 1265.13 1234.56 1266.07 1230.6 1266.07ZM1230.6 1260.02C1233.6 1260.02 1236.08 1259.25 1238.02 1257.7C1239.96 1256.16 1241.4 1254.13 1242.34 1251.62C1243.27 1249.1 1243.74 1246.38 1243.74 1243.45C1243.74 1240.52 1243.27 1237.78 1242.34 1235.25C1241.4 1232.72 1239.96 1230.67 1238.02 1229.11C1236.08 1227.55 1233.6 1226.77 1230.6 1226.77C1227.59 1226.77 1225.11 1227.55 1223.17 1229.11C1221.23 1230.67 1219.79 1232.72 1218.86 1235.25C1217.92 1237.78 1217.46 1240.52 1217.46 1243.45C1217.46 1246.38 1217.92 1249.1 1218.86 1251.62C1219.79 1254.13 1221.23 1256.16 1223.17 1257.7C1225.11 1259.25 1227.59 1260.02 1230.6 1260.02ZM1301.21 1266.07C1297.1 1266.07 1293.56 1265.1 1290.59 1263.16C1287.62 1261.22 1285.33 1258.54 1283.73 1255.13C1282.13 1251.72 1281.33 1247.83 1281.33 1243.45C1281.33 1238.99 1282.15 1235.06 1283.79 1231.65C1285.45 1228.22 1287.75 1225.55 1290.7 1223.63C1293.67 1221.68 1297.14 1220.71 1301.1 1220.71C1304.18 1220.71 1306.96 1221.28 1309.44 1222.43C1311.92 1223.57 1313.94 1225.17 1315.52 1227.22C1317.11 1229.28 1318.09 1231.68 1318.47 1234.42H1311.73C1311.21 1232.42 1310.07 1230.65 1308.3 1229.11C1306.55 1227.55 1304.18 1226.77 1301.21 1226.77C1298.59 1226.77 1296.28 1227.45 1294.3 1228.82C1292.34 1230.18 1290.81 1232.09 1289.7 1234.57C1288.62 1237.02 1288.07 1239.91 1288.07 1243.22C1288.07 1246.61 1288.61 1249.56 1289.67 1252.08C1290.76 1254.59 1292.28 1256.54 1294.24 1257.93C1296.22 1259.32 1298.55 1260.02 1301.21 1260.02C1302.97 1260.02 1304.56 1259.71 1305.98 1259.1C1307.41 1258.49 1308.62 1257.62 1309.61 1256.47C1310.6 1255.33 1311.31 1253.96 1311.73 1252.36H1318.47C1318.09 1254.95 1317.14 1257.28 1315.64 1259.36C1314.15 1261.42 1312.18 1263.05 1309.73 1264.27C1307.29 1265.47 1304.45 1266.07 1301.21 1266.07ZM1346.15 1266.07C1342.18 1266.07 1338.71 1265.13 1335.72 1263.24C1332.75 1261.36 1330.43 1258.72 1328.75 1255.33C1327.09 1251.94 1326.26 1247.98 1326.26 1243.45C1326.26 1238.88 1327.09 1234.89 1328.75 1231.48C1330.43 1228.07 1332.75 1225.43 1335.72 1223.54C1338.71 1221.65 1342.18 1220.71 1346.15 1220.71C1350.11 1220.71 1353.57 1221.65 1356.54 1223.54C1359.53 1225.43 1361.86 1228.07 1363.51 1231.48C1365.19 1234.89 1366.03 1238.88 1366.03 1243.45C1366.03 1247.98 1365.19 1251.94 1363.51 1255.33C1361.86 1258.72 1359.53 1261.36 1356.54 1263.24C1353.57 1265.13 1350.11 1266.07 1346.15 1266.07ZM1346.15 1260.02C1349.15 1260.02 1351.63 1259.25 1353.57 1257.7C1355.51 1256.16 1356.95 1254.13 1357.89 1251.62C1358.82 1249.1 1359.29 1246.38 1359.29 1243.45C1359.29 1240.52 1358.82 1237.78 1357.89 1235.25C1356.95 1232.72 1355.51 1230.67 1353.57 1229.11C1351.63 1227.55 1349.15 1226.77 1346.15 1226.77C1343.14 1226.77 1340.66 1227.55 1338.72 1229.11C1336.78 1230.67 1335.34 1232.72 1334.41 1235.25C1333.47 1237.78 1333.01 1240.52 1333.01 1243.45C1333.01 1246.38 1333.47 1249.1 1334.41 1251.62C1335.34 1254.13 1336.78 1256.16 1338.72 1257.7C1340.66 1259.25 1343.14 1260.02 1346.15 1260.02ZM1383.06 1206.66V1265.16H1376.32V1206.66H1383.06ZM1413.23 1266.07C1409.27 1266.07 1405.79 1265.13 1402.8 1263.24C1399.83 1261.36 1397.51 1258.72 1395.83 1255.33C1394.18 1251.94 1393.35 1247.98 1393.35 1243.45C1393.35 1238.88 1394.18 1234.89 1395.83 1231.48C1397.51 1228.07 1399.83 1225.43 1402.8 1223.54C1405.79 1221.65 1409.27 1220.71 1413.23 1220.71C1417.19 1220.71 1420.66 1221.65 1423.63 1223.54C1426.62 1225.43 1428.94 1228.07 1430.6 1231.48C1432.27 1234.89 1433.11 1238.88 1433.11 1243.45C1433.11 1247.98 1432.27 1251.94 1430.6 1255.33C1428.94 1258.72 1426.62 1261.36 1423.63 1263.24C1420.66 1265.13 1417.19 1266.07 1413.23 1266.07ZM1413.23 1260.02C1416.24 1260.02 1418.71 1259.25 1420.66 1257.7C1422.6 1256.16 1424.04 1254.13 1424.97 1251.62C1425.9 1249.1 1426.37 1246.38 1426.37 1243.45C1426.37 1240.52 1425.9 1237.78 1424.97 1235.25C1424.04 1232.72 1422.6 1230.67 1420.66 1229.11C1418.71 1227.55 1416.24 1226.77 1413.23 1226.77C1410.22 1226.77 1407.74 1227.55 1405.8 1229.11C1403.86 1230.67 1402.42 1232.72 1401.49 1235.25C1400.56 1237.78 1400.09 1240.52 1400.09 1243.45C1400.09 1246.38 1400.56 1249.1 1401.49 1251.62C1402.42 1254.13 1403.86 1256.16 1405.8 1257.7C1407.74 1259.25 1410.22 1260.02 1413.23 1260.02ZM1471.05 1247.22V1221.28H1477.79V1265.16H1471.05V1257.73H1470.59C1469.57 1259.96 1467.97 1261.85 1465.8 1263.42C1463.62 1264.96 1460.88 1265.73 1457.57 1265.73C1454.83 1265.73 1452.39 1265.13 1450.26 1263.93C1448.12 1262.71 1446.45 1260.88 1445.23 1258.45C1444.01 1255.99 1443.4 1252.89 1443.4 1249.16V1221.28H1450.14V1248.71C1450.14 1251.9 1451.04 1254.46 1452.83 1256.36C1454.64 1258.26 1456.94 1259.22 1459.74 1259.22C1461.42 1259.22 1463.12 1258.79 1464.85 1257.93C1466.6 1257.07 1468.07 1255.76 1469.25 1253.99C1470.45 1252.22 1471.05 1249.96 1471.05 1247.22ZM1490.14 1265.16V1221.28H1496.65V1227.91H1497.11C1497.91 1225.74 1499.36 1223.98 1501.45 1222.63C1503.55 1221.27 1505.91 1220.6 1508.53 1220.6C1509.03 1220.6 1509.65 1220.61 1510.39 1220.63C1511.13 1220.65 1511.7 1220.67 1512.08 1220.71V1227.57C1511.85 1227.51 1511.32 1227.42 1510.51 1227.31C1509.71 1227.18 1508.86 1227.11 1507.96 1227.11C1505.83 1227.11 1503.93 1227.56 1502.25 1228.45C1500.59 1229.33 1499.28 1230.55 1498.31 1232.11C1497.36 1233.65 1496.88 1235.41 1496.88 1237.39V1265.16H1490.14ZM1551.15 1231.11L1545.09 1232.82C1544.71 1231.81 1544.15 1230.83 1543.4 1229.88C1542.68 1228.91 1541.69 1228.11 1540.43 1227.48C1539.18 1226.85 1537.57 1226.54 1535.61 1226.54C1532.92 1226.54 1530.68 1227.16 1528.89 1228.4C1527.12 1229.61 1526.24 1231.17 1526.24 1233.05C1526.24 1234.73 1526.85 1236.05 1528.07 1237.02C1529.28 1237.99 1531.19 1238.8 1533.78 1239.45L1540.29 1241.05C1544.21 1242 1547.14 1243.46 1549.06 1245.42C1550.98 1247.36 1551.95 1249.87 1551.95 1252.93C1551.95 1255.45 1551.22 1257.69 1549.77 1259.67C1548.35 1261.65 1546.35 1263.22 1543.78 1264.36C1541.21 1265.5 1538.22 1266.07 1534.81 1266.07C1530.33 1266.07 1526.63 1265.1 1523.7 1263.16C1520.76 1261.22 1518.91 1258.38 1518.13 1254.65L1524.52 1253.05C1525.13 1255.41 1526.29 1257.18 1527.98 1258.36C1529.69 1259.54 1531.93 1260.13 1534.69 1260.13C1537.83 1260.13 1540.33 1259.46 1542.18 1258.13C1544.04 1256.78 1544.98 1255.16 1544.98 1253.28C1544.98 1251.75 1544.44 1250.48 1543.38 1249.45C1542.31 1248.4 1540.67 1247.62 1538.46 1247.11L1531.15 1245.39C1527.13 1244.44 1524.18 1242.96 1522.3 1240.96C1520.43 1238.95 1519.5 1236.42 1519.5 1233.39C1519.5 1230.92 1520.19 1228.73 1521.58 1226.82C1522.99 1224.92 1524.9 1223.43 1527.32 1222.34C1529.76 1221.25 1532.52 1220.71 1535.61 1220.71C1539.95 1220.71 1543.36 1221.66 1545.83 1223.57C1548.33 1225.47 1550.1 1227.99 1551.15 1231.11ZM1594.66 1265.16L1581.29 1221.28H1588.37L1597.86 1254.87H1598.31L1607.68 1221.28H1614.88L1624.14 1254.76H1624.59L1634.08 1221.28H1641.16L1627.79 1265.16H1621.16L1611.57 1231.45H1610.88L1601.28 1265.16H1594.66ZM1656.81 1238.76V1265.16H1650.07V1206.66H1656.81V1228.14H1657.38C1658.41 1225.87 1659.95 1224.07 1662.01 1222.74C1664.09 1221.39 1666.85 1220.71 1670.3 1220.71C1673.28 1220.71 1675.9 1221.31 1678.15 1222.51C1680.4 1223.69 1682.14 1225.51 1683.38 1227.97C1684.63 1230.4 1685.26 1233.51 1685.26 1237.28V1265.16H1678.52V1237.74C1678.52 1234.25 1677.62 1231.56 1675.81 1229.65C1674.02 1227.73 1671.53 1226.77 1668.35 1226.77C1666.14 1226.77 1664.16 1227.23 1662.41 1228.17C1660.68 1229.1 1659.31 1230.46 1658.3 1232.25C1657.31 1234.04 1656.81 1236.21 1656.81 1238.76ZM1697.6 1265.16V1221.28H1704.34V1265.16H1697.6ZM1701.02 1213.97C1699.71 1213.97 1698.58 1213.52 1697.62 1212.63C1696.69 1211.73 1696.22 1210.66 1696.22 1209.4C1696.22 1208.14 1696.69 1207.07 1697.62 1206.17C1698.58 1205.28 1699.71 1204.83 1701.02 1204.83C1702.34 1204.83 1703.46 1205.28 1704.39 1206.17C1705.35 1207.07 1705.82 1208.14 1705.82 1209.4C1705.82 1210.66 1705.35 1211.73 1704.39 1212.63C1703.46 1213.52 1702.34 1213.97 1701.02 1213.97ZM1734.51 1266.07C1730.39 1266.07 1726.85 1265.1 1723.88 1263.16C1720.91 1261.22 1718.63 1258.54 1717.03 1255.13C1715.43 1251.72 1714.63 1247.83 1714.63 1243.45C1714.63 1238.99 1715.45 1235.06 1717.08 1231.65C1718.74 1228.22 1721.04 1225.55 1724 1223.63C1726.97 1221.68 1730.43 1220.71 1734.39 1220.71C1737.48 1220.71 1740.26 1221.28 1742.73 1222.43C1745.21 1223.57 1747.24 1225.17 1748.82 1227.22C1750.4 1229.28 1751.38 1231.68 1751.76 1234.42H1745.02C1744.51 1232.42 1743.36 1230.65 1741.59 1229.11C1739.84 1227.55 1737.48 1226.77 1734.51 1226.77C1731.88 1226.77 1729.58 1227.45 1727.6 1228.82C1725.63 1230.18 1724.1 1232.09 1723 1234.57C1721.91 1237.02 1721.37 1239.91 1721.37 1243.22C1721.37 1246.61 1721.9 1249.56 1722.97 1252.08C1724.05 1254.59 1725.58 1256.54 1727.54 1257.93C1729.52 1259.32 1731.84 1260.02 1734.51 1260.02C1736.26 1260.02 1737.85 1259.71 1739.28 1259.1C1740.71 1258.49 1741.92 1257.62 1742.91 1256.47C1743.9 1255.33 1744.6 1253.96 1745.02 1252.36H1751.76C1751.38 1254.95 1750.44 1257.28 1748.93 1259.36C1747.45 1261.42 1745.48 1263.05 1743.02 1264.27C1740.58 1265.47 1737.75 1266.07 1734.51 1266.07ZM1768.36 1238.76V1265.16H1761.62V1206.66H1768.36V1228.14H1768.93C1769.96 1225.87 1771.5 1224.07 1773.56 1222.74C1775.63 1221.39 1778.39 1220.71 1781.84 1220.71C1784.83 1220.71 1787.45 1221.31 1789.69 1222.51C1791.94 1223.69 1793.68 1225.51 1794.92 1227.97C1796.18 1230.4 1796.81 1233.51 1796.81 1237.28V1265.16H1790.07V1237.74C1790.07 1234.25 1789.16 1231.56 1787.35 1229.65C1785.56 1227.73 1783.08 1226.77 1779.9 1226.77C1777.69 1226.77 1775.71 1227.23 1773.96 1228.17C1772.22 1229.1 1770.85 1230.46 1769.84 1232.25C1768.85 1234.04 1768.36 1236.21 1768.36 1238.76ZM1831.76 1265.16V1221.28H1838.5V1265.16H1831.76ZM1835.19 1213.97C1833.88 1213.97 1832.74 1213.52 1831.79 1212.63C1830.86 1211.73 1830.39 1210.66 1830.39 1209.4C1830.39 1208.14 1830.86 1207.07 1831.79 1206.17C1832.74 1205.28 1833.88 1204.83 1835.19 1204.83C1836.5 1204.83 1837.63 1205.28 1838.56 1206.17C1839.51 1207.07 1839.99 1208.14 1839.99 1209.4C1839.99 1210.66 1839.51 1211.73 1838.56 1212.63C1837.63 1213.52 1836.5 1213.97 1835.19 1213.97ZM1869.93 1221.28V1227H1847.19V1221.28H1869.93ZM1853.82 1210.77H1860.56V1252.59C1860.56 1254.49 1860.84 1255.92 1861.39 1256.87C1861.96 1257.81 1862.69 1258.44 1863.56 1258.76C1864.46 1259.06 1865.4 1259.22 1866.39 1259.22C1867.13 1259.22 1867.74 1259.18 1868.22 1259.1C1868.69 1259.01 1869.08 1258.93 1869.36 1258.87L1870.73 1264.93C1870.28 1265.1 1869.64 1265.27 1868.82 1265.44C1868 1265.63 1866.96 1265.73 1865.7 1265.73C1863.8 1265.73 1861.93 1265.32 1860.11 1264.5C1858.3 1263.68 1856.79 1262.44 1855.59 1260.76C1854.41 1259.08 1853.82 1256.97 1853.82 1254.42V1210.77ZM1922.23 1221.28V1227H1898.58V1221.28H1922.23ZM1905.67 1265.16V1215.23C1905.67 1212.71 1906.26 1210.62 1907.44 1208.94C1908.62 1207.27 1910.15 1206.01 1912.04 1205.17C1913.92 1204.33 1915.91 1203.92 1918.01 1203.92C1919.66 1203.92 1921.02 1204.05 1922.06 1204.32C1923.11 1204.58 1923.89 1204.83 1924.4 1205.06L1922.46 1210.89C1922.12 1210.77 1921.64 1210.63 1921.03 1210.46C1920.44 1210.29 1919.66 1210.2 1918.69 1210.2C1916.46 1210.2 1914.85 1210.76 1913.86 1211.89C1912.89 1213.01 1912.41 1214.66 1912.41 1216.83V1265.16H1905.67ZM1943.34 1266.19C1940.56 1266.19 1938.03 1265.66 1935.77 1264.62C1933.5 1263.55 1931.7 1262.02 1930.37 1260.02C1929.03 1258 1928.37 1255.56 1928.37 1252.7C1928.37 1250.19 1928.86 1248.15 1929.85 1246.59C1930.84 1245.01 1932.17 1243.77 1933.82 1242.88C1935.48 1241.98 1937.31 1241.32 1939.31 1240.88C1941.33 1240.42 1943.35 1240.06 1945.39 1239.79C1948.06 1239.45 1950.22 1239.19 1951.88 1239.02C1953.55 1238.83 1954.77 1238.52 1955.53 1238.08C1956.31 1237.64 1956.7 1236.88 1956.7 1235.79V1235.57C1956.7 1232.75 1955.93 1230.56 1954.39 1229C1952.87 1227.43 1950.55 1226.65 1947.45 1226.65C1944.23 1226.65 1941.71 1227.36 1939.88 1228.77C1938.05 1230.18 1936.77 1231.68 1936.02 1233.28L1929.62 1231C1930.77 1228.33 1932.29 1226.25 1934.2 1224.77C1936.12 1223.26 1938.21 1222.22 1940.48 1221.63C1942.76 1221.02 1945.01 1220.71 1947.22 1220.71C1948.63 1220.71 1950.25 1220.88 1952.08 1221.23C1953.92 1221.55 1955.7 1222.23 1957.42 1223.25C1959.15 1224.28 1960.59 1225.83 1961.73 1227.91C1962.87 1229.99 1963.45 1232.77 1963.45 1236.25V1265.16H1956.7V1259.22H1956.36C1955.9 1260.17 1955.14 1261.19 1954.08 1262.27C1953.01 1263.36 1951.59 1264.28 1949.82 1265.04C1948.05 1265.81 1945.89 1266.19 1943.34 1266.19ZM1944.36 1260.13C1947.03 1260.13 1949.28 1259.61 1951.11 1258.56C1952.95 1257.51 1954.34 1256.16 1955.28 1254.5C1956.23 1252.85 1956.7 1251.1 1956.7 1249.28V1243.11C1956.42 1243.45 1955.79 1243.76 1954.82 1244.05C1953.87 1244.32 1952.76 1244.55 1951.51 1244.76C1950.27 1244.95 1949.06 1245.12 1947.88 1245.28C1946.72 1245.41 1945.77 1245.52 1945.05 1245.62C1943.3 1245.85 1941.66 1246.22 1940.14 1246.73C1938.63 1247.23 1937.41 1247.98 1936.48 1248.99C1935.57 1249.98 1935.11 1251.33 1935.11 1253.05C1935.11 1255.39 1935.98 1257.16 1937.71 1258.36C1939.46 1259.54 1941.68 1260.13 1944.36 1260.13ZM1992.32 1266.07C1988.66 1266.07 1985.43 1265.15 1982.63 1263.3C1979.83 1261.44 1977.64 1258.81 1976.06 1255.42C1974.48 1252.01 1973.69 1247.98 1973.69 1243.33C1973.69 1238.73 1974.48 1234.73 1976.06 1231.34C1977.64 1227.95 1979.84 1225.33 1982.66 1223.48C1985.48 1221.64 1988.74 1220.71 1992.43 1220.71C1995.29 1220.71 1997.54 1221.19 1999.2 1222.14C2000.88 1223.07 2002.15 1224.14 2003.03 1225.34C2003.92 1226.52 2004.62 1227.49 2005.11 1228.25H2005.68V1206.66H2012.43V1265.16H2005.91V1258.42H2005.11C2004.62 1259.22 2003.91 1260.23 2003 1261.44C2002.09 1262.64 2000.78 1263.72 1999.09 1264.67C1997.39 1265.61 1995.14 1266.07 1992.32 1266.07ZM1993.23 1260.02C1995.93 1260.02 1998.22 1259.31 2000.09 1257.9C2001.95 1256.47 2003.37 1254.5 2004.34 1251.99C2005.31 1249.46 2005.8 1246.53 2005.8 1243.22C2005.8 1239.95 2005.32 1237.08 2004.37 1234.62C2003.42 1232.15 2002.01 1230.22 2000.14 1228.85C1998.28 1227.46 1995.97 1226.77 1993.23 1226.77C1990.37 1226.77 1987.99 1227.5 1986.09 1228.97C1984.2 1230.41 1982.79 1232.39 1981.83 1234.88C1980.9 1237.36 1980.43 1240.14 1980.43 1243.22C1980.43 1246.34 1980.91 1249.18 1981.86 1251.73C1982.83 1254.27 1984.26 1256.28 1986.15 1257.79C1988.05 1259.27 1990.41 1260.02 1993.23 1260.02ZM2044.1 1266.07C2039.88 1266.07 2036.23 1265.14 2033.16 1263.27C2030.12 1261.39 2027.77 1258.76 2026.11 1255.39C2024.47 1252 2023.65 1248.06 2023.65 1243.56C2023.65 1239.07 2024.47 1235.11 2026.11 1231.68C2027.77 1228.23 2030.07 1225.55 2033.02 1223.63C2035.99 1221.68 2039.46 1220.71 2043.42 1220.71C2045.7 1220.71 2047.96 1221.09 2050.19 1221.85C2052.42 1222.62 2054.44 1223.85 2056.27 1225.57C2058.1 1227.26 2059.56 1229.51 2060.64 1232.31C2061.73 1235.11 2062.27 1238.56 2062.27 1242.65V1245.51H2028.45V1239.68H2055.42C2055.42 1237.2 2054.92 1234.99 2053.93 1233.05C2052.96 1231.11 2051.57 1229.58 2049.76 1228.45C2047.97 1227.33 2045.86 1226.77 2043.42 1226.77C2040.73 1226.77 2038.41 1227.43 2036.45 1228.77C2034.51 1230.08 2033.01 1231.79 2031.96 1233.91C2030.92 1236.02 2030.39 1238.29 2030.39 1240.71V1244.59C2030.39 1247.91 2030.96 1250.71 2032.11 1253.02C2033.27 1255.3 2034.88 1257.05 2036.93 1258.25C2038.99 1259.43 2041.38 1260.02 2044.1 1260.02C2045.88 1260.02 2047.47 1259.77 2048.9 1259.27C2050.35 1258.76 2051.6 1258 2052.64 1256.99C2053.69 1255.96 2054.5 1254.68 2055.07 1253.16L2061.59 1254.99C2060.9 1257.2 2059.75 1259.14 2058.13 1260.82C2056.51 1262.47 2054.51 1263.77 2052.13 1264.7C2049.75 1265.62 2047.07 1266.07 2044.1 1266.07ZM2103.6 1231.11L2097.55 1232.82C2097.17 1231.81 2096.61 1230.83 2095.86 1229.88C2095.14 1228.91 2094.15 1228.11 2092.89 1227.48C2091.64 1226.85 2090.03 1226.54 2088.06 1226.54C2085.38 1226.54 2083.14 1227.16 2081.35 1228.4C2079.58 1229.61 2078.7 1231.17 2078.7 1233.05C2078.7 1234.73 2079.3 1236.05 2080.52 1237.02C2081.74 1237.99 2083.65 1238.8 2086.24 1239.45L2092.75 1241.05C2096.67 1242 2099.6 1243.46 2101.52 1245.42C2103.44 1247.36 2104.4 1249.87 2104.4 1252.93C2104.4 1255.45 2103.68 1257.69 2102.23 1259.67C2100.8 1261.65 2098.8 1263.22 2096.23 1264.36C2093.66 1265.5 2090.67 1266.07 2087.26 1266.07C2082.79 1266.07 2079.09 1265.1 2076.15 1263.16C2073.22 1261.22 2071.36 1258.38 2070.58 1254.65L2076.98 1253.05C2077.59 1255.41 2078.74 1257.18 2080.44 1258.36C2082.15 1259.54 2084.39 1260.13 2087.15 1260.13C2090.29 1260.13 2092.79 1259.46 2094.63 1258.13C2096.5 1256.78 2097.43 1255.16 2097.43 1253.28C2097.43 1251.75 2096.9 1250.48 2095.83 1249.45C2094.77 1248.4 2093.13 1247.62 2090.92 1247.11L2083.61 1245.39C2079.59 1244.44 2076.64 1242.96 2074.75 1240.96C2072.89 1238.95 2071.95 1236.42 2071.95 1233.39C2071.95 1230.92 2072.65 1228.73 2074.04 1226.82C2075.45 1224.92 2077.36 1223.43 2079.78 1222.34C2082.22 1221.25 2084.98 1220.71 2088.06 1220.71C2092.41 1220.71 2095.82 1221.66 2098.29 1223.57C2100.79 1225.47 2102.56 1227.99 2103.6 1231.11ZM2156.71 1221.28V1227H2133.06V1221.28H2156.71ZM2140.14 1265.16V1215.23C2140.14 1212.71 2140.74 1210.62 2141.92 1208.94C2143.1 1207.27 2144.63 1206.01 2146.51 1205.17C2148.4 1204.33 2150.39 1203.92 2152.48 1203.92C2154.14 1203.92 2155.49 1204.05 2156.54 1204.32C2157.59 1204.58 2158.37 1204.83 2158.88 1205.06L2156.94 1210.89C2156.6 1210.77 2156.12 1210.63 2155.51 1210.46C2154.92 1210.29 2154.14 1210.2 2153.17 1210.2C2150.94 1210.2 2149.33 1210.76 2148.34 1211.89C2147.37 1213.01 2146.89 1214.66 2146.89 1216.83V1265.16H2140.14ZM2166.16 1265.16V1221.28H2172.67V1227.91H2173.13C2173.93 1225.74 2175.38 1223.98 2177.47 1222.63C2179.57 1221.27 2181.93 1220.6 2184.56 1220.6C2185.05 1220.6 2185.67 1220.61 2186.41 1220.63C2187.15 1220.65 2187.72 1220.67 2188.1 1220.71V1227.57C2187.87 1227.51 2187.35 1227.42 2186.53 1227.31C2185.73 1227.18 2184.88 1227.11 2183.98 1227.11C2181.85 1227.11 2179.95 1227.56 2178.27 1228.45C2176.61 1229.33 2175.3 1230.55 2174.33 1232.11C2173.38 1233.65 2172.9 1235.41 2172.9 1237.39V1265.16H2166.16ZM2212.58 1266.07C2208.62 1266.07 2205.14 1265.13 2202.15 1263.24C2199.18 1261.36 2196.86 1258.72 2195.18 1255.33C2193.52 1251.94 2192.7 1247.98 2192.7 1243.45C2192.7 1238.88 2193.52 1234.89 2195.18 1231.48C2196.86 1228.07 2199.18 1225.43 2202.15 1223.54C2205.14 1221.65 2208.62 1220.71 2212.58 1220.71C2216.54 1220.71 2220 1221.65 2222.97 1223.54C2225.96 1225.43 2228.29 1228.07 2229.94 1231.48C2231.62 1234.89 2232.46 1238.88 2232.46 1243.45C2232.46 1247.98 2231.62 1251.94 2229.94 1255.33C2228.29 1258.72 2225.96 1261.36 2222.97 1263.24C2220 1265.13 2216.54 1266.07 2212.58 1266.07ZM2212.58 1260.02C2215.59 1260.02 2218.06 1259.25 2220 1257.7C2221.95 1256.16 2223.38 1254.13 2224.32 1251.62C2225.25 1249.1 2225.72 1246.38 2225.72 1243.45C2225.72 1240.52 2225.25 1237.78 2224.32 1235.25C2223.38 1232.72 2221.95 1230.67 2220 1229.11C2218.06 1227.55 2215.59 1226.77 2212.58 1226.77C2209.57 1226.77 2207.09 1227.55 2205.15 1229.11C2203.21 1230.67 2201.77 1232.72 2200.84 1235.25C2199.9 1237.78 2199.44 1240.52 2199.44 1243.45C2199.44 1246.38 2199.9 1249.1 2200.84 1251.62C2201.77 1254.13 2203.21 1256.16 2205.15 1257.7C2207.09 1259.25 2209.57 1260.02 2212.58 1260.02ZM2242.75 1265.16V1221.28H2249.26V1228.14H2249.83C2250.75 1225.8 2252.22 1223.98 2254.26 1222.68C2256.3 1221.37 2258.74 1220.71 2261.6 1220.71C2264.5 1220.71 2266.9 1221.37 2268.83 1222.68C2270.77 1223.98 2272.28 1225.8 2273.37 1228.14H2273.83C2274.95 1225.87 2276.64 1224.07 2278.88 1222.74C2281.13 1221.39 2283.82 1220.71 2286.97 1220.71C2290.89 1220.71 2294.1 1221.94 2296.59 1224.4C2299.09 1226.83 2300.33 1230.63 2300.33 1235.79V1265.16H2293.59V1235.79C2293.59 1232.56 2292.71 1230.24 2290.94 1228.85C2289.17 1227.46 2287.08 1226.77 2284.68 1226.77C2281.6 1226.77 2279.21 1227.7 2277.51 1229.57C2275.82 1231.41 2274.97 1233.76 2274.97 1236.59V1265.16H2268.11V1235.11C2268.11 1232.61 2267.3 1230.6 2265.69 1229.08C2264.07 1227.54 2261.98 1226.77 2259.43 1226.77C2257.68 1226.77 2256.04 1227.23 2254.52 1228.17C2253.01 1229.1 2251.79 1230.4 2250.86 1232.05C2249.95 1233.69 2249.49 1235.58 2249.49 1237.74V1265.16H2242.75ZM2348.19 1266.19C2345.41 1266.19 2342.89 1265.66 2340.62 1264.62C2338.36 1263.55 2336.56 1262.02 2335.23 1260.02C2333.89 1258 2333.23 1255.56 2333.23 1252.7C2333.23 1250.19 2333.72 1248.15 2334.71 1246.59C2335.7 1245.01 2337.03 1243.77 2338.68 1242.88C2340.34 1241.98 2342.17 1241.32 2344.17 1240.88C2346.18 1240.42 2348.21 1240.06 2350.25 1239.79C2352.92 1239.45 2355.08 1239.19 2356.73 1239.02C2358.41 1238.83 2359.63 1238.52 2360.39 1238.08C2361.17 1237.64 2361.56 1236.88 2361.56 1235.79V1235.57C2361.56 1232.75 2360.79 1230.56 2359.25 1229C2357.72 1227.43 2355.41 1226.65 2352.31 1226.65C2349.09 1226.65 2346.57 1227.36 2344.74 1228.77C2342.91 1230.18 2341.62 1231.68 2340.88 1233.28L2334.48 1231C2335.63 1228.33 2337.15 1226.25 2339.05 1224.77C2340.98 1223.26 2343.07 1222.22 2345.34 1221.63C2347.62 1221.02 2349.87 1220.71 2352.08 1220.71C2353.49 1220.71 2355.11 1220.88 2356.93 1221.23C2358.78 1221.55 2360.56 1222.23 2362.28 1223.25C2364.01 1224.28 2365.45 1225.83 2366.59 1227.91C2367.73 1229.99 2368.3 1232.77 2368.3 1236.25V1265.16H2361.56V1259.22H2361.22C2360.76 1260.17 2360 1261.19 2358.93 1262.27C2357.87 1263.36 2356.45 1264.28 2354.68 1265.04C2352.91 1265.81 2350.75 1266.19 2348.19 1266.19ZM2349.22 1260.13C2351.89 1260.13 2354.14 1259.61 2355.96 1258.56C2357.81 1257.51 2359.2 1256.16 2360.13 1254.5C2361.09 1252.85 2361.56 1251.1 2361.56 1249.28V1243.11C2361.28 1243.45 2360.65 1243.76 2359.68 1244.05C2358.72 1244.32 2357.62 1244.55 2356.36 1244.76C2355.13 1244.95 2353.92 1245.12 2352.74 1245.28C2351.57 1245.41 2350.63 1245.52 2349.91 1245.62C2348.16 1245.85 2346.52 1246.22 2344.99 1246.73C2343.49 1247.23 2342.27 1247.98 2341.34 1248.99C2340.42 1249.98 2339.97 1251.33 2339.97 1253.05C2339.97 1255.39 2340.83 1257.16 2342.57 1258.36C2344.32 1259.54 2346.54 1260.13 2349.22 1260.13ZM2387.35 1238.76V1265.16H2380.61V1221.28H2387.12V1228.14H2387.69C2388.72 1225.91 2390.28 1224.12 2392.38 1222.77C2394.47 1221.4 2397.17 1220.71 2400.49 1220.71C2403.46 1220.71 2406.06 1221.32 2408.29 1222.54C2410.51 1223.74 2412.25 1225.57 2413.49 1228.02C2414.72 1230.46 2415.34 1233.55 2415.34 1237.28V1265.16H2408.6V1237.74C2408.6 1234.29 2407.71 1231.6 2405.92 1229.68C2404.13 1227.74 2401.67 1226.77 2398.55 1226.77C2396.39 1226.77 2394.47 1227.23 2392.78 1228.17C2391.1 1229.1 2389.78 1230.46 2388.81 1232.25C2387.83 1234.04 2387.35 1236.21 2387.35 1238.76ZM2444.23 1266.07C2440.57 1266.07 2437.34 1265.15 2434.54 1263.3C2431.74 1261.44 2429.56 1258.81 2427.97 1255.42C2426.39 1252.01 2425.6 1247.98 2425.6 1243.33C2425.6 1238.73 2426.39 1234.73 2427.97 1231.34C2429.56 1227.95 2431.75 1225.33 2434.57 1223.48C2437.39 1221.64 2440.65 1220.71 2444.34 1220.71C2447.2 1220.71 2449.45 1221.19 2451.11 1222.14C2452.79 1223.07 2454.06 1224.14 2454.94 1225.34C2455.83 1226.52 2456.53 1227.49 2457.02 1228.25H2457.6V1206.66H2464.34V1265.16H2457.82V1258.42H2457.02C2456.53 1259.22 2455.82 1260.23 2454.91 1261.44C2454 1262.64 2452.69 1263.72 2451 1264.67C2449.3 1265.61 2447.05 1266.07 2444.23 1266.07ZM2445.14 1260.02C2447.85 1260.02 2450.13 1259.31 2452 1257.9C2453.86 1256.47 2455.28 1254.5 2456.25 1251.99C2457.22 1249.46 2457.71 1246.53 2457.71 1243.22C2457.71 1239.95 2457.23 1237.08 2456.28 1234.62C2455.33 1232.15 2453.92 1230.22 2452.05 1228.85C2450.19 1227.46 2447.88 1226.77 2445.14 1226.77C2442.29 1226.77 2439.9 1227.5 2438 1228.97C2436.12 1230.41 2434.7 1232.39 2433.74 1234.88C2432.81 1237.36 2432.34 1240.14 2432.34 1243.22C2432.34 1246.34 2432.82 1249.18 2433.77 1251.73C2434.74 1254.27 2436.17 1256.28 2438.06 1257.79C2439.96 1259.27 2442.32 1260.02 2445.14 1260.02ZM2500.24 1265.16V1221.28H2506.98V1265.16H2500.24ZM2503.67 1213.97C2502.36 1213.97 2501.22 1213.52 2500.27 1212.63C2499.34 1211.73 2498.87 1210.66 2498.87 1209.4C2498.87 1208.14 2499.34 1207.07 2500.27 1206.17C2501.22 1205.28 2502.36 1204.83 2503.67 1204.83C2504.98 1204.83 2506.11 1205.28 2507.04 1206.17C2507.99 1207.07 2508.47 1208.14 2508.47 1209.4C2508.47 1210.66 2507.99 1211.73 2507.04 1212.63C2506.11 1213.52 2504.98 1213.97 2503.67 1213.97ZM2526.07 1238.76V1265.16H2519.33V1221.28H2525.84V1228.14H2526.41C2527.44 1225.91 2529 1224.12 2531.1 1222.77C2533.19 1221.4 2535.9 1220.71 2539.21 1220.71C2542.18 1220.71 2544.78 1221.32 2547.01 1222.54C2549.24 1223.74 2550.97 1225.57 2552.21 1228.02C2553.45 1230.46 2554.06 1233.55 2554.06 1237.28V1265.16H2547.32V1237.74C2547.32 1234.29 2546.43 1231.6 2544.64 1229.68C2542.85 1227.74 2540.39 1226.77 2537.27 1226.77C2535.12 1226.77 2533.19 1227.23 2531.5 1228.17C2529.82 1229.1 2528.5 1230.46 2527.53 1232.25C2526.56 1234.04 2526.07 1236.21 2526.07 1238.76ZM2585.46 1221.28V1227H2562.73V1221.28H2585.46ZM2569.35 1210.77H2576.1V1252.59C2576.1 1254.49 2576.37 1255.92 2576.92 1256.87C2577.5 1257.81 2578.22 1258.44 2579.09 1258.76C2579.99 1259.06 2580.93 1259.22 2581.92 1259.22C2582.67 1259.22 2583.27 1259.18 2583.75 1259.1C2584.23 1259.01 2584.61 1258.93 2584.89 1258.87L2586.26 1264.93C2585.81 1265.1 2585.17 1265.27 2584.35 1265.44C2583.53 1265.63 2582.49 1265.73 2581.24 1265.73C2579.33 1265.73 2577.47 1265.32 2575.64 1264.5C2573.83 1263.68 2572.33 1262.44 2571.13 1260.76C2569.94 1259.08 2569.35 1256.97 2569.35 1254.42V1210.77ZM2612.96 1266.07C2609 1266.07 2605.52 1265.13 2602.53 1263.24C2599.56 1261.36 2597.24 1258.72 2595.56 1255.33C2593.91 1251.94 2593.08 1247.98 2593.08 1243.45C2593.08 1238.88 2593.91 1234.89 2595.56 1231.48C2597.24 1228.07 2599.56 1225.43 2602.53 1223.54C2605.52 1221.65 2609 1220.71 2612.96 1220.71C2616.92 1220.71 2620.38 1221.65 2623.36 1223.54C2626.35 1225.43 2628.67 1228.07 2630.33 1231.48C2632 1234.89 2632.84 1238.88 2632.84 1243.45C2632.84 1247.98 2632 1251.94 2630.33 1255.33C2628.67 1258.72 2626.35 1261.36 2623.36 1263.24C2620.38 1265.13 2616.92 1266.07 2612.96 1266.07ZM2612.96 1260.02C2615.97 1260.02 2618.44 1259.25 2620.38 1257.7C2622.33 1256.16 2623.76 1254.13 2624.7 1251.62C2625.63 1249.1 2626.1 1246.38 2626.1 1243.45C2626.1 1240.52 2625.63 1237.78 2624.7 1235.25C2623.76 1232.72 2622.33 1230.67 2620.38 1229.11C2618.44 1227.55 2615.97 1226.77 2612.96 1226.77C2609.95 1226.77 2607.47 1227.55 2605.53 1229.11C2603.59 1230.67 2602.15 1232.72 2601.22 1235.25C2600.28 1237.78 2599.82 1240.52 2599.82 1243.45C2599.82 1246.38 2600.28 1249.1 2601.22 1251.62C2602.15 1254.13 2603.59 1256.16 2605.53 1257.7C2607.47 1259.25 2609.95 1260.02 2612.96 1260.02ZM2648.04 1265.62C2646.63 1265.62 2645.42 1265.11 2644.41 1264.1C2643.41 1263.09 2642.9 1261.88 2642.9 1260.47C2642.9 1259.06 2643.41 1257.86 2644.41 1256.85C2645.42 1255.84 2646.63 1255.33 2648.04 1255.33C2649.45 1255.33 2650.66 1255.84 2651.67 1256.85C2652.68 1257.86 2653.18 1259.06 2653.18 1260.47C2653.18 1261.41 2652.95 1262.26 2652.47 1263.04C2652.01 1263.83 2651.39 1264.45 2650.61 1264.93C2649.85 1265.39 2648.99 1265.62 2648.04 1265.62ZM1043.87 1303.66V1362.16H1036.79V1303.66H1043.87ZM1076.24 1318.28V1324H1053.5V1318.28H1076.24ZM1060.13 1307.77H1066.87V1349.59C1066.87 1351.49 1067.15 1352.92 1067.7 1353.87C1068.27 1354.81 1068.99 1355.44 1069.87 1355.76C1070.77 1356.06 1071.71 1356.22 1072.7 1356.22C1073.44 1356.22 1074.05 1356.18 1074.53 1356.1C1075 1356.01 1075.38 1355.93 1075.67 1355.87L1077.04 1361.93C1076.58 1362.1 1075.95 1362.27 1075.13 1362.44C1074.31 1362.63 1073.27 1362.73 1072.01 1362.73C1070.11 1362.73 1068.24 1362.32 1066.41 1361.5C1064.6 1360.68 1063.1 1359.44 1061.9 1357.76C1060.72 1356.08 1060.13 1353.97 1060.13 1351.42V1307.77ZM1115.74 1335.76V1362.16H1109V1303.66H1115.74V1325.14H1116.32C1117.34 1322.87 1118.89 1321.07 1120.94 1319.74C1123.02 1318.39 1125.78 1317.71 1129.23 1317.71C1132.22 1317.71 1134.84 1318.31 1137.08 1319.51C1139.33 1320.69 1141.07 1322.51 1142.31 1324.97C1143.57 1327.4 1144.2 1330.51 1144.2 1334.28V1362.16H1137.45V1334.74C1137.45 1331.25 1136.55 1328.56 1134.74 1326.65C1132.95 1324.73 1130.47 1323.77 1127.28 1323.77C1125.08 1323.77 1123.1 1324.23 1121.34 1325.17C1119.61 1326.1 1118.24 1327.46 1117.23 1329.25C1116.24 1331.04 1115.74 1333.21 1115.74 1335.76ZM1169.44 1363.19C1166.66 1363.19 1164.14 1362.66 1161.87 1361.62C1159.6 1360.55 1157.8 1359.02 1156.47 1357.02C1155.14 1355 1154.47 1352.56 1154.47 1349.7C1154.47 1347.19 1154.97 1345.15 1155.96 1343.59C1156.95 1342.01 1158.27 1340.77 1159.93 1339.88C1161.58 1338.98 1163.41 1338.32 1165.41 1337.88C1167.43 1337.42 1169.46 1337.06 1171.5 1336.79C1174.16 1336.45 1176.32 1336.19 1177.98 1336.02C1179.66 1335.83 1180.87 1335.52 1181.64 1335.08C1182.42 1334.64 1182.81 1333.88 1182.81 1332.79V1332.57C1182.81 1329.75 1182.04 1327.56 1180.49 1326C1178.97 1324.43 1176.66 1323.65 1173.55 1323.65C1170.33 1323.65 1167.81 1324.36 1165.98 1325.77C1164.15 1327.18 1162.87 1328.68 1162.13 1330.28L1155.73 1328C1156.87 1325.33 1158.39 1323.25 1160.3 1321.77C1162.22 1320.26 1164.32 1319.22 1166.58 1318.63C1168.87 1318.02 1171.11 1317.71 1173.32 1317.71C1174.73 1317.71 1176.35 1317.88 1178.18 1318.23C1180.03 1318.55 1181.81 1319.23 1183.52 1320.25C1185.25 1321.28 1186.69 1322.83 1187.83 1324.91C1188.98 1326.99 1189.55 1329.77 1189.55 1333.25V1362.16H1182.81V1356.22H1182.46C1182.01 1357.17 1181.25 1358.19 1180.18 1359.27C1179.11 1360.36 1177.69 1361.28 1175.92 1362.04C1174.15 1362.81 1171.99 1363.19 1169.44 1363.19ZM1170.47 1357.13C1173.13 1357.13 1175.38 1356.61 1177.21 1355.56C1179.06 1354.51 1180.45 1353.16 1181.38 1351.5C1182.33 1349.85 1182.81 1348.1 1182.81 1346.28V1340.11C1182.52 1340.45 1181.89 1340.76 1180.92 1341.05C1179.97 1341.32 1178.87 1341.55 1177.61 1341.76C1176.37 1341.95 1175.16 1342.12 1173.98 1342.28C1172.82 1342.41 1171.88 1342.52 1171.15 1342.62C1169.4 1342.85 1167.76 1343.22 1166.24 1343.73C1164.74 1344.23 1163.52 1344.98 1162.58 1345.99C1161.67 1346.98 1161.21 1348.33 1161.21 1350.05C1161.21 1352.39 1162.08 1354.16 1163.81 1355.36C1165.56 1356.54 1167.78 1357.13 1170.47 1357.13ZM1232.93 1328.11L1226.87 1329.82C1226.49 1328.81 1225.93 1327.83 1225.19 1326.88C1224.47 1325.91 1223.48 1325.11 1222.22 1324.48C1220.96 1323.85 1219.35 1323.54 1217.39 1323.54C1214.71 1323.54 1212.47 1324.16 1210.68 1325.4C1208.91 1326.61 1208.02 1328.17 1208.02 1330.05C1208.02 1331.73 1208.63 1333.05 1209.85 1334.02C1211.07 1334.99 1212.97 1335.8 1215.56 1336.45L1222.08 1338.05C1226 1339 1228.92 1340.46 1230.85 1342.42C1232.77 1344.36 1233.73 1346.87 1233.73 1349.93C1233.73 1352.45 1233.01 1354.69 1231.56 1356.67C1230.13 1358.65 1228.13 1360.22 1225.56 1361.36C1222.99 1362.5 1220 1363.07 1216.59 1363.07C1212.12 1363.07 1208.41 1362.1 1205.48 1360.16C1202.55 1358.22 1200.69 1355.38 1199.91 1351.65L1206.31 1350.05C1206.92 1352.41 1208.07 1354.18 1209.76 1355.36C1211.48 1356.54 1213.72 1357.13 1216.48 1357.13C1219.62 1357.13 1222.11 1356.46 1223.96 1355.13C1225.83 1353.78 1226.76 1352.16 1226.76 1350.28C1226.76 1348.75 1226.23 1347.48 1225.16 1346.45C1224.09 1345.4 1222.46 1344.62 1220.25 1344.11L1212.94 1342.39C1208.92 1341.44 1205.97 1339.96 1204.08 1337.96C1202.21 1335.95 1201.28 1333.42 1201.28 1330.39C1201.28 1327.92 1201.98 1325.73 1203.37 1323.82C1204.78 1321.92 1206.69 1320.43 1209.11 1319.34C1211.55 1318.25 1214.31 1317.71 1217.39 1317.71C1221.73 1317.71 1225.14 1318.66 1227.62 1320.57C1230.11 1322.47 1231.88 1324.99 1232.93 1328.11ZM1279.41 1363.19C1276.63 1363.19 1274.11 1362.66 1271.84 1361.62C1269.58 1360.55 1267.78 1359.02 1266.44 1357.02C1265.11 1355 1264.44 1352.56 1264.44 1349.7C1264.44 1347.19 1264.94 1345.15 1265.93 1343.59C1266.92 1342.01 1268.24 1340.77 1269.9 1339.88C1271.56 1338.98 1273.38 1338.32 1275.38 1337.88C1277.4 1337.42 1279.43 1337.06 1281.47 1336.79C1284.13 1336.45 1286.3 1336.19 1287.95 1336.02C1289.63 1335.83 1290.85 1335.52 1291.61 1335.08C1292.39 1334.64 1292.78 1333.88 1292.78 1332.79V1332.57C1292.78 1329.75 1292.01 1327.56 1290.47 1326C1288.94 1324.43 1286.63 1323.65 1283.53 1323.65C1280.31 1323.65 1277.78 1324.36 1275.96 1325.77C1274.13 1327.18 1272.84 1328.68 1272.1 1330.28L1265.7 1328C1266.84 1325.33 1268.37 1323.25 1270.27 1321.77C1272.19 1320.26 1274.29 1319.22 1276.56 1318.63C1278.84 1318.02 1281.09 1317.71 1283.3 1317.71C1284.71 1317.71 1286.32 1317.88 1288.15 1318.23C1290 1318.55 1291.78 1319.23 1293.49 1320.25C1295.23 1321.28 1296.66 1322.83 1297.81 1324.91C1298.95 1326.99 1299.52 1329.77 1299.52 1333.25V1362.16H1292.78V1356.22H1292.44C1291.98 1357.17 1291.22 1358.19 1290.15 1359.27C1289.09 1360.36 1287.67 1361.28 1285.9 1362.04C1284.13 1362.81 1281.96 1363.19 1279.41 1363.19ZM1280.44 1357.13C1283.11 1357.13 1285.35 1356.61 1287.18 1355.56C1289.03 1354.51 1290.42 1353.16 1291.35 1351.5C1292.3 1349.85 1292.78 1348.1 1292.78 1346.28V1340.11C1292.49 1340.45 1291.87 1340.76 1290.89 1341.05C1289.94 1341.32 1288.84 1341.55 1287.58 1341.76C1286.34 1341.95 1285.13 1342.12 1283.95 1342.28C1282.79 1342.41 1281.85 1342.52 1281.13 1342.62C1279.37 1342.85 1277.74 1343.22 1276.21 1343.73C1274.71 1344.23 1273.49 1344.98 1272.56 1345.99C1271.64 1346.98 1271.19 1348.33 1271.19 1350.05C1271.19 1352.39 1272.05 1354.16 1273.78 1355.36C1275.54 1356.54 1277.76 1357.13 1280.44 1357.13ZM1370.33 1318.28L1354.1 1362.16H1347.25L1331.02 1318.28H1338.33L1350.44 1353.25H1350.9L1363.01 1318.28H1370.33ZM1390.8 1363.19C1388.02 1363.19 1385.5 1362.66 1383.23 1361.62C1380.96 1360.55 1379.16 1359.02 1377.83 1357.02C1376.5 1355 1375.83 1352.56 1375.83 1349.7C1375.83 1347.19 1376.33 1345.15 1377.32 1343.59C1378.31 1342.01 1379.63 1340.77 1381.29 1339.88C1382.94 1338.98 1384.77 1338.32 1386.77 1337.88C1388.79 1337.42 1390.82 1337.06 1392.86 1336.79C1395.52 1336.45 1397.68 1336.19 1399.34 1336.02C1401.02 1335.83 1402.23 1335.52 1403 1335.08C1403.78 1334.64 1404.17 1333.88 1404.17 1332.79V1332.57C1404.17 1329.75 1403.4 1327.56 1401.85 1326C1400.33 1324.43 1398.02 1323.65 1394.91 1323.65C1391.69 1323.65 1389.17 1324.36 1387.34 1325.77C1385.51 1327.18 1384.23 1328.68 1383.49 1330.28L1377.09 1328C1378.23 1325.33 1379.75 1323.25 1381.66 1321.77C1383.58 1320.26 1385.68 1319.22 1387.94 1318.63C1390.23 1318.02 1392.47 1317.71 1394.68 1317.71C1396.09 1317.71 1397.71 1317.88 1399.54 1318.23C1401.39 1318.55 1403.17 1319.23 1404.88 1320.25C1406.61 1321.28 1408.05 1322.83 1409.19 1324.91C1410.34 1326.99 1410.91 1329.77 1410.91 1333.25V1362.16H1404.17V1356.22H1403.82C1403.37 1357.17 1402.61 1358.19 1401.54 1359.27C1400.47 1360.36 1399.05 1361.28 1397.28 1362.04C1395.51 1362.81 1393.35 1363.19 1390.8 1363.19ZM1391.83 1357.13C1394.49 1357.13 1396.74 1356.61 1398.57 1355.56C1400.42 1354.51 1401.81 1353.16 1402.74 1351.5C1403.69 1349.85 1404.17 1348.1 1404.17 1346.28V1340.11C1403.88 1340.45 1403.25 1340.76 1402.28 1341.05C1401.33 1341.32 1400.23 1341.55 1398.97 1341.76C1397.73 1341.95 1396.52 1342.12 1395.34 1342.28C1394.18 1342.41 1393.24 1342.52 1392.51 1342.62C1390.76 1342.85 1389.12 1343.22 1387.6 1343.73C1386.1 1344.23 1384.88 1344.98 1383.94 1345.99C1383.03 1346.98 1382.57 1348.33 1382.57 1350.05C1382.57 1352.39 1383.44 1354.16 1385.17 1355.36C1386.92 1356.54 1389.14 1357.13 1391.83 1357.13ZM1423.21 1362.16V1318.28H1429.73V1324.91H1430.18C1430.98 1322.74 1432.43 1320.98 1434.52 1319.63C1436.62 1318.27 1438.98 1317.6 1441.61 1317.6C1442.1 1317.6 1442.72 1317.61 1443.46 1317.63C1444.21 1317.65 1444.77 1317.67 1445.15 1317.71V1324.57C1444.92 1324.51 1444.4 1324.42 1443.58 1324.31C1442.78 1324.18 1441.93 1324.11 1441.04 1324.11C1438.9 1324.11 1437 1324.56 1435.32 1325.45C1433.67 1326.33 1432.35 1327.55 1431.38 1329.11C1430.43 1330.65 1429.95 1332.41 1429.95 1334.39V1362.16H1423.21ZM1453.14 1362.16V1318.28H1459.88V1362.16H1453.14ZM1456.57 1310.97C1455.25 1310.97 1454.12 1310.52 1453.17 1309.63C1452.24 1308.73 1451.77 1307.66 1451.77 1306.4C1451.77 1305.14 1452.24 1304.07 1453.17 1303.17C1454.12 1302.28 1455.25 1301.83 1456.57 1301.83C1457.88 1301.83 1459.01 1302.28 1459.94 1303.17C1460.89 1304.07 1461.37 1305.14 1461.37 1306.4C1461.37 1307.66 1460.89 1308.73 1459.94 1309.63C1459.01 1310.52 1457.88 1310.97 1456.57 1310.97ZM1490.62 1363.07C1486.4 1363.07 1482.75 1362.14 1479.68 1360.27C1476.64 1358.39 1474.29 1355.76 1472.63 1352.39C1470.99 1349 1470.17 1345.06 1470.17 1340.56C1470.17 1336.07 1470.99 1332.11 1472.63 1328.68C1474.29 1325.23 1476.59 1322.55 1479.54 1320.63C1482.51 1318.68 1485.98 1317.71 1489.94 1317.71C1492.22 1317.71 1494.48 1318.09 1496.71 1318.85C1498.94 1319.62 1500.97 1320.85 1502.79 1322.57C1504.62 1324.26 1506.08 1326.51 1507.16 1329.31C1508.25 1332.11 1508.79 1335.56 1508.79 1339.65V1342.51H1474.97V1336.68H1501.94C1501.94 1334.2 1501.44 1331.99 1500.45 1330.05C1499.48 1328.11 1498.09 1326.58 1496.28 1325.45C1494.49 1324.33 1492.38 1323.77 1489.94 1323.77C1487.25 1323.77 1484.93 1324.43 1482.97 1325.77C1481.03 1327.08 1479.53 1328.79 1478.48 1330.91C1477.44 1333.02 1476.91 1335.29 1476.91 1337.71V1341.59C1476.91 1344.91 1477.49 1347.71 1478.63 1350.02C1479.79 1352.3 1481.4 1354.05 1483.46 1355.25C1485.51 1356.43 1487.9 1357.02 1490.62 1357.02C1492.4 1357.02 1494 1356.77 1495.42 1356.27C1496.87 1355.76 1498.12 1355 1499.17 1353.99C1500.21 1352.96 1501.02 1351.68 1501.59 1350.16L1508.11 1351.99C1507.42 1354.2 1506.27 1356.14 1504.65 1357.82C1503.03 1359.47 1501.03 1360.77 1498.65 1361.7C1496.27 1362.62 1493.6 1363.07 1490.62 1363.07ZM1538.13 1318.28V1324H1515.39V1318.28H1538.13ZM1522.02 1307.77H1528.76V1349.59C1528.76 1351.49 1529.03 1352.92 1529.59 1353.87C1530.16 1354.81 1530.88 1355.44 1531.76 1355.76C1532.65 1356.06 1533.6 1356.22 1534.59 1356.22C1535.33 1356.22 1535.94 1356.18 1536.41 1356.1C1536.89 1356.01 1537.27 1355.93 1537.56 1355.87L1538.93 1361.93C1538.47 1362.1 1537.83 1362.27 1537.01 1362.44C1536.19 1362.63 1535.16 1362.73 1533.9 1362.73C1532 1362.73 1530.13 1362.32 1528.3 1361.5C1526.49 1360.68 1524.99 1359.44 1523.79 1357.76C1522.61 1356.08 1522.02 1353.97 1522.02 1351.42V1307.77ZM1552.61 1378.61C1551.47 1378.61 1550.45 1378.52 1549.55 1378.33C1548.66 1378.15 1548.04 1377.98 1547.7 1377.81L1549.41 1371.87C1551.05 1372.29 1552.5 1372.44 1553.75 1372.33C1555.01 1372.21 1556.12 1371.65 1557.09 1370.64C1558.08 1369.65 1558.99 1368.04 1559.81 1365.81L1561.06 1362.39L1544.84 1318.28H1552.15L1564.26 1353.25H1564.72L1576.83 1318.28H1584.14L1565.52 1368.56C1564.68 1370.82 1563.65 1372.7 1562.41 1374.18C1561.17 1375.69 1559.73 1376.8 1558.09 1377.53C1556.48 1378.25 1554.65 1378.61 1552.61 1378.61ZM1633.49 1363.07C1629.53 1363.07 1626.05 1362.13 1623.06 1360.24C1620.09 1358.36 1617.77 1355.72 1616.09 1352.33C1614.44 1348.94 1613.61 1344.98 1613.61 1340.45C1613.61 1335.88 1614.44 1331.89 1616.09 1328.48C1617.77 1325.07 1620.09 1322.43 1623.06 1320.54C1626.05 1318.65 1629.53 1317.71 1633.49 1317.71C1637.45 1317.71 1640.92 1318.65 1643.89 1320.54C1646.88 1322.43 1649.2 1325.07 1650.86 1328.48C1652.53 1331.89 1653.37 1335.88 1653.37 1340.45C1653.37 1344.98 1652.53 1348.94 1650.86 1352.33C1649.2 1355.72 1646.88 1358.36 1643.89 1360.24C1640.92 1362.13 1637.45 1363.07 1633.49 1363.07ZM1633.49 1357.02C1636.5 1357.02 1638.97 1356.25 1640.92 1354.7C1642.86 1353.16 1644.3 1351.13 1645.23 1348.62C1646.16 1346.1 1646.63 1343.38 1646.63 1340.45C1646.63 1337.52 1646.16 1334.78 1645.23 1332.25C1644.3 1329.72 1642.86 1327.67 1640.92 1326.11C1638.97 1324.55 1636.5 1323.77 1633.49 1323.77C1630.48 1323.77 1628.01 1324.55 1626.06 1326.11C1624.12 1327.67 1622.68 1329.72 1621.75 1332.25C1620.82 1334.78 1620.35 1337.52 1620.35 1340.45C1620.35 1343.38 1620.82 1346.1 1621.75 1348.62C1622.68 1351.13 1624.12 1353.16 1626.06 1354.7C1628.01 1356.25 1630.48 1357.02 1633.49 1357.02ZM1683.2 1318.28V1324H1659.55V1318.28H1683.2ZM1666.63 1362.16V1312.23C1666.63 1309.71 1667.22 1307.62 1668.4 1305.94C1669.58 1304.27 1671.12 1303.01 1673 1302.17C1674.89 1301.33 1676.88 1300.92 1678.97 1300.92C1680.63 1300.92 1681.98 1301.05 1683.03 1301.32C1684.08 1301.58 1684.86 1301.83 1685.37 1302.06L1683.43 1307.89C1683.08 1307.77 1682.61 1307.63 1682 1307.46C1681.41 1307.29 1680.63 1307.2 1679.66 1307.2C1677.43 1307.2 1675.82 1307.76 1674.83 1308.89C1673.86 1310.01 1673.37 1311.66 1673.37 1313.83V1362.16H1666.63ZM1746.35 1328.11L1740.29 1329.82C1739.91 1328.81 1739.35 1327.83 1738.61 1326.88C1737.88 1325.91 1736.89 1325.11 1735.64 1324.48C1734.38 1323.85 1732.77 1323.54 1730.81 1323.54C1728.12 1323.54 1725.89 1324.16 1724.1 1325.4C1722.33 1326.61 1721.44 1328.17 1721.44 1330.05C1721.44 1331.73 1722.05 1333.05 1723.27 1334.02C1724.49 1334.99 1726.39 1335.8 1728.98 1336.45L1735.49 1338.05C1739.42 1339 1742.34 1340.46 1744.26 1342.42C1746.19 1344.36 1747.15 1346.87 1747.15 1349.93C1747.15 1352.45 1746.42 1354.69 1744.98 1356.67C1743.55 1358.65 1741.55 1360.22 1738.98 1361.36C1736.41 1362.5 1733.42 1363.07 1730.01 1363.07C1725.53 1363.07 1721.83 1362.1 1718.9 1360.16C1715.97 1358.22 1714.11 1355.38 1713.33 1351.65L1719.73 1350.05C1720.34 1352.41 1721.49 1354.18 1723.18 1355.36C1724.9 1356.54 1727.13 1357.13 1729.9 1357.13C1733.04 1357.13 1735.53 1356.46 1737.38 1355.13C1739.25 1353.78 1740.18 1352.16 1740.18 1350.28C1740.18 1348.75 1739.65 1347.48 1738.58 1346.45C1737.51 1345.4 1735.87 1344.62 1733.67 1344.11L1726.35 1342.39C1722.33 1341.44 1719.38 1339.96 1717.5 1337.96C1715.63 1335.95 1714.7 1333.42 1714.7 1330.39C1714.7 1327.92 1715.39 1325.73 1716.78 1323.82C1718.19 1321.92 1720.11 1320.43 1722.53 1319.34C1724.96 1318.25 1727.72 1317.71 1730.81 1317.71C1735.15 1317.71 1738.56 1318.66 1741.04 1320.57C1743.53 1322.47 1745.3 1324.99 1746.35 1328.11ZM1775.69 1363.07C1771.46 1363.07 1767.82 1362.14 1764.75 1360.27C1761.7 1358.39 1759.35 1355.76 1757.7 1352.39C1756.06 1349 1755.24 1345.06 1755.24 1340.56C1755.24 1336.07 1756.06 1332.11 1757.7 1328.68C1759.35 1325.23 1761.66 1322.55 1764.61 1320.63C1767.58 1318.68 1771.04 1317.71 1775.01 1317.71C1777.29 1317.71 1779.55 1318.09 1781.78 1318.85C1784 1319.62 1786.03 1320.85 1787.86 1322.57C1789.69 1324.26 1791.14 1326.51 1792.23 1329.31C1793.32 1332.11 1793.86 1335.56 1793.86 1339.65V1342.51H1760.04V1336.68H1787C1787 1334.2 1786.51 1331.99 1785.52 1330.05C1784.55 1328.11 1783.16 1326.58 1781.35 1325.45C1779.56 1324.33 1777.44 1323.77 1775.01 1323.77C1772.32 1323.77 1770 1324.43 1768.04 1325.77C1766.09 1327.08 1764.6 1328.79 1763.55 1330.91C1762.5 1333.02 1761.98 1335.29 1761.98 1337.71V1341.59C1761.98 1344.91 1762.55 1347.71 1763.69 1350.02C1764.86 1352.3 1766.46 1354.05 1768.52 1355.25C1770.58 1356.43 1772.97 1357.02 1775.69 1357.02C1777.46 1357.02 1779.06 1356.77 1780.49 1356.27C1781.94 1355.76 1783.18 1355 1784.23 1353.99C1785.28 1352.96 1786.09 1351.68 1786.66 1350.16L1793.17 1351.99C1792.49 1354.2 1791.33 1356.14 1789.72 1357.82C1788.1 1359.47 1786.1 1360.77 1783.72 1361.7C1781.34 1362.62 1778.66 1363.07 1775.69 1363.07ZM1823.19 1318.28V1324H1800.46V1318.28H1823.19ZM1807.08 1307.77H1813.82V1349.59C1813.82 1351.49 1814.1 1352.92 1814.65 1353.87C1815.22 1354.81 1815.95 1355.44 1816.82 1355.76C1817.72 1356.06 1818.66 1356.22 1819.65 1356.22C1820.39 1356.22 1821 1356.18 1821.48 1356.1C1821.96 1356.01 1822.34 1355.93 1822.62 1355.87L1823.99 1361.93C1823.54 1362.1 1822.9 1362.27 1822.08 1362.44C1821.26 1362.63 1820.22 1362.73 1818.97 1362.73C1817.06 1362.73 1815.2 1362.32 1813.37 1361.5C1811.56 1360.68 1810.05 1359.44 1808.85 1357.76C1807.67 1356.08 1807.08 1353.97 1807.08 1351.42V1307.77ZM1852.42 1318.28V1324H1829.68V1318.28H1852.42ZM1836.3 1307.77H1843.05V1349.59C1843.05 1351.49 1843.32 1352.92 1843.87 1353.87C1844.45 1354.81 1845.17 1355.44 1846.05 1355.76C1846.94 1356.06 1847.88 1356.22 1848.87 1356.22C1849.62 1356.22 1850.23 1356.18 1850.7 1356.1C1851.18 1356.01 1851.56 1355.93 1851.84 1355.87L1853.21 1361.93C1852.76 1362.1 1852.12 1362.27 1851.3 1362.44C1850.48 1362.63 1849.44 1362.73 1848.19 1362.73C1846.28 1362.73 1844.42 1362.32 1842.59 1361.5C1840.78 1360.68 1839.28 1359.44 1838.08 1357.76C1836.9 1356.08 1836.3 1353.97 1836.3 1351.42V1307.77ZM1862.56 1362.16V1318.28H1869.3V1362.16H1862.56ZM1865.98 1310.97C1864.67 1310.97 1863.54 1310.52 1862.58 1309.63C1861.65 1308.73 1861.18 1307.66 1861.18 1306.4C1861.18 1305.14 1861.65 1304.07 1862.58 1303.17C1863.54 1302.28 1864.67 1301.83 1865.98 1301.83C1867.3 1301.83 1868.42 1302.28 1869.35 1303.17C1870.31 1304.07 1870.78 1305.14 1870.78 1306.4C1870.78 1307.66 1870.31 1308.73 1869.35 1309.63C1868.42 1310.52 1867.3 1310.97 1865.98 1310.97ZM1888.38 1335.76V1362.16H1881.64V1318.28H1888.16V1325.14H1888.73C1889.76 1322.91 1891.32 1321.12 1893.41 1319.77C1895.51 1318.4 1898.21 1317.71 1901.52 1317.71C1904.5 1317.71 1907.09 1318.32 1909.32 1319.54C1911.55 1320.74 1913.28 1322.57 1914.52 1325.02C1915.76 1327.46 1916.38 1330.55 1916.38 1334.28V1362.16H1909.64V1334.74C1909.64 1331.29 1908.74 1328.6 1906.95 1326.68C1905.16 1324.74 1902.71 1323.77 1899.58 1323.77C1897.43 1323.77 1895.51 1324.23 1893.81 1325.17C1892.14 1326.1 1890.81 1327.46 1889.84 1329.25C1888.87 1331.04 1888.38 1333.21 1888.38 1335.76ZM1946.41 1379.53C1943.15 1379.53 1940.35 1379.11 1938.01 1378.27C1935.67 1377.45 1933.71 1376.36 1932.15 1375.01C1930.61 1373.68 1929.38 1372.25 1928.47 1370.73L1933.84 1366.96C1934.45 1367.76 1935.22 1368.67 1936.15 1369.7C1937.08 1370.75 1938.36 1371.65 1939.98 1372.41C1941.62 1373.19 1943.76 1373.58 1946.41 1373.58C1949.95 1373.58 1952.87 1372.73 1955.18 1371.01C1957.48 1369.3 1958.63 1366.61 1958.63 1362.96V1354.05H1958.06C1957.57 1354.85 1956.86 1355.84 1955.95 1357.02C1955.05 1358.18 1953.76 1359.22 1952.06 1360.13C1950.39 1361.03 1948.12 1361.47 1945.26 1361.47C1941.72 1361.47 1938.54 1360.63 1935.72 1358.96C1932.92 1357.28 1930.71 1354.85 1929.07 1351.65C1927.45 1348.45 1926.64 1344.56 1926.64 1339.99C1926.64 1335.5 1927.43 1331.58 1929.01 1328.25C1930.59 1324.9 1932.79 1322.31 1935.61 1320.48C1938.43 1318.64 1941.68 1317.71 1945.38 1317.71C1948.23 1317.71 1950.5 1318.19 1952.18 1319.14C1953.87 1320.07 1955.17 1321.14 1956.06 1322.34C1956.98 1323.52 1957.68 1324.49 1958.17 1325.25H1958.86V1318.28H1965.37V1363.42C1965.37 1367.19 1964.52 1370.25 1962.8 1372.61C1961.11 1374.99 1958.82 1376.74 1955.95 1377.84C1953.09 1378.96 1949.91 1379.53 1946.41 1379.53ZM1946.18 1355.42C1948.88 1355.42 1951.17 1354.8 1953.03 1353.56C1954.9 1352.32 1956.32 1350.54 1957.29 1348.22C1958.26 1345.9 1958.75 1343.12 1958.75 1339.88C1958.75 1336.72 1958.27 1333.93 1957.32 1331.51C1956.37 1329.09 1954.96 1327.2 1953.09 1325.82C1951.22 1324.45 1948.92 1323.77 1946.18 1323.77C1943.32 1323.77 1940.94 1324.49 1939.04 1325.94C1937.15 1327.39 1935.73 1329.33 1934.78 1331.77C1933.85 1334.2 1933.38 1336.91 1933.38 1339.88C1933.38 1342.92 1933.86 1345.62 1934.81 1347.96C1935.78 1350.28 1937.21 1352.11 1939.09 1353.45C1941 1354.76 1943.36 1355.42 1946.18 1355.42ZM2008.79 1328.11L2002.74 1329.82C2002.35 1328.81 2001.79 1327.83 2001.05 1326.88C2000.33 1325.91 1999.34 1325.11 1998.08 1324.48C1996.82 1323.85 1995.21 1323.54 1993.25 1323.54C1990.57 1323.54 1988.33 1324.16 1986.54 1325.4C1984.77 1326.61 1983.88 1328.17 1983.88 1330.05C1983.88 1331.73 1984.49 1333.05 1985.71 1334.02C1986.93 1334.99 1988.83 1335.8 1991.42 1336.45L1997.94 1338.05C2001.86 1339 2004.78 1340.46 2006.71 1342.42C2008.63 1344.36 2009.59 1346.87 2009.59 1349.93C2009.59 1352.45 2008.87 1354.69 2007.42 1356.67C2005.99 1358.65 2003.99 1360.22 2001.42 1361.36C1998.85 1362.5 1995.86 1363.07 1992.45 1363.07C1987.98 1363.07 1984.27 1362.1 1981.34 1360.16C1978.41 1358.22 1976.55 1355.38 1975.77 1351.65L1982.17 1350.05C1982.78 1352.41 1983.93 1354.18 1985.63 1355.36C1987.34 1356.54 1989.58 1357.13 1992.34 1357.13C1995.48 1357.13 1997.97 1356.46 1999.82 1355.13C2001.69 1353.78 2002.62 1352.16 2002.62 1350.28C2002.62 1348.75 2002.09 1347.48 2001.02 1346.45C1999.96 1345.4 1998.32 1344.62 1996.11 1344.11L1988.8 1342.39C1984.78 1341.44 1981.83 1339.96 1979.94 1337.96C1978.07 1335.95 1977.14 1333.42 1977.14 1330.39C1977.14 1327.92 1977.84 1325.73 1979.23 1323.82C1980.64 1321.92 1982.55 1320.43 1984.97 1319.34C1987.41 1318.25 1990.17 1317.71 1993.25 1317.71C1997.59 1317.71 2001 1318.66 2003.48 1320.57C2005.97 1322.47 2007.74 1324.99 2008.79 1328.11ZM2024.65 1362.62C2023.24 1362.62 2022.03 1362.11 2021.02 1361.1C2020.01 1360.09 2019.51 1358.88 2019.51 1357.47C2019.51 1356.06 2020.01 1354.86 2021.02 1353.85C2022.03 1352.84 2023.24 1352.33 2024.65 1352.33C2026.06 1352.33 2027.27 1352.84 2028.28 1353.85C2029.29 1354.86 2029.79 1356.06 2029.79 1357.47C2029.79 1358.41 2029.56 1359.26 2029.08 1360.04C2028.62 1360.83 2028 1361.45 2027.22 1361.93C2026.46 1362.39 2025.6 1362.62 2024.65 1362.62Z" fill="white"/>
<rect x="1339.29" y="386.331" width="20.1094" height="20.1094" fill="#C14DBA"/>
<rect x="1411.68" y="434.594" width="20.1094" height="20.1094" fill="#AA4DC1"/>
<rect x="1459.94" y="466.769" width="12.0656" height="12.0656" fill="#C14DBA"/>
<rect x="1536.36" y="398.396" width="12.0656" height="12.0656" fill="#C14DBA"/>
<rect x="1572.55" y="378.287" width="20.1094" height="20.1094" fill="#C14DBA"/>
<rect x="1705.28" y="382.309" width="20.1094" height="20.1094" fill="#C14DBA"/>
<rect x="1624.84" y="478.834" width="20.1094" height="20.1094" fill="#AA4DC1"/>
<rect x="1685.17" y="519.053" width="20.1094" height="20.1094" fill="#964DC1"/>
<rect x="1701.25" y="635.688" width="20.1094" height="20.1094" fill="#964DC1"/>
<rect x="1620.82" y="631.665" width="20.1094" height="20.1094" fill="#6654A8"/>
<rect x="1564.51" y="655.797" width="12.0656" height="12.0656" fill="#964DC1"/>
<rect x="1524.29" y="587.425" width="20.1094" height="20.1094" fill="#6654A8"/>
<rect x="1419.72" y="679.928" width="20.1094" height="20.1094" fill="#6654A8"/>
<rect x="1347.33" y="679.928" width="12.0656" height="12.0656" fill="#964DC1"/>
<rect x="1339.29" y="494.922" width="20.1094" height="20.1094" fill="#AA4DC1"/>
<rect x="1331.24" y="760.365" width="20.1094" height="20.1094" fill="#6654A8"/>
<rect x="1480.05" y="744.277" width="20.1094" height="20.1094" fill="#6654A8"/>
<rect x="1705.28" y="748.3" width="12.0656" height="12.0656" fill="#6654A8"/>
</svg>
