<svg width="3069" height="1585" viewBox="0 0 3069 1585" fill="none" xmlns="http://www.w3.org/2000/svg">
<rect x="0.28125" y="0.318359" width="3068.69" height="1584.62" rx="120.656" fill="#171717"/>
<path d="M122.034 186.926C116.002 186.926 110.624 185.89 105.901 183.818C101.209 181.746 97.4766 178.867 94.7039 175.18C91.9617 171.463 90.4688 167.152 90.225 162.246H101.742C101.986 165.263 103.022 167.868 104.85 170.062C106.678 172.225 109.07 173.901 112.025 175.089C114.981 176.277 118.256 176.871 121.852 176.871C125.873 176.871 129.438 176.171 132.546 174.769C135.654 173.368 138.091 171.418 139.859 168.919C141.626 166.421 142.509 163.526 142.509 160.236C142.509 156.793 141.656 153.761 139.95 151.141C138.244 148.49 135.745 146.418 132.455 144.925C129.164 143.432 125.142 142.686 120.389 142.686H112.894V132.631H120.389C124.106 132.631 127.366 131.961 130.17 130.62C133.003 129.279 135.212 127.39 136.796 124.953C138.411 122.515 139.219 119.651 139.219 116.361C139.219 113.192 138.518 110.434 137.116 108.088C135.715 105.742 133.734 103.914 131.175 102.604C128.646 101.294 125.66 100.639 122.217 100.639C118.988 100.639 115.941 101.233 113.077 102.421C110.243 103.579 107.927 105.27 106.13 107.494C104.332 109.688 103.357 112.339 103.205 115.446H92.2359C92.4188 110.541 93.8965 106.245 96.6691 102.558C99.4418 98.841 103.068 95.9465 107.546 93.8746C112.056 91.8027 117.007 90.7668 122.4 90.7668C128.189 90.7668 133.155 91.9398 137.299 94.2859C141.443 96.6015 144.627 99.6637 146.851 103.472C149.075 107.281 150.188 111.394 150.188 115.812C150.188 121.083 148.801 125.577 146.029 129.295C143.286 133.012 139.554 135.586 134.831 137.018V137.75C140.742 138.725 145.358 141.238 148.679 145.291C152 149.312 153.661 154.294 153.661 160.236C153.661 165.324 152.275 169.894 149.502 173.946C146.76 177.968 143.012 181.137 138.259 183.453C133.506 185.768 128.098 186.926 122.034 186.926ZM177.507 186.378C175.252 186.378 173.317 185.57 171.702 183.955C170.087 182.341 169.28 180.406 169.28 178.151C169.28 175.896 170.087 173.962 171.702 172.347C173.317 170.732 175.252 169.925 177.507 169.925C179.761 169.925 181.696 170.732 183.311 172.347C184.926 173.962 185.733 175.896 185.733 178.151C185.733 179.644 185.352 181.015 184.591 182.264C183.859 183.514 182.869 184.519 181.62 185.281C180.401 186.012 179.03 186.378 177.507 186.378Z" fill="white"/>
<path d="M405.651 1124.37C405.309 1121.48 403.919 1119.23 401.481 1117.63C399.044 1116.03 396.054 1115.23 392.512 1115.23C389.922 1115.23 387.656 1115.65 385.714 1116.49C383.79 1117.33 382.286 1118.48 381.2 1119.94C380.134 1121.41 379.601 1123.08 379.601 1124.94C379.601 1126.5 379.972 1127.85 380.715 1128.97C381.476 1130.07 382.448 1131 383.628 1131.74C384.809 1132.46 386.047 1133.06 387.342 1133.54C388.637 1134 389.827 1134.37 390.912 1134.65L396.854 1136.25C398.377 1136.65 400.072 1137.21 401.938 1137.91C403.823 1138.62 405.623 1139.58 407.337 1140.8C409.07 1142 410.498 1143.54 411.621 1145.42C412.745 1147.31 413.307 1149.62 413.307 1152.36C413.307 1155.53 412.478 1158.38 410.822 1160.93C409.184 1163.49 406.785 1165.51 403.623 1167.02C400.481 1168.52 396.663 1169.27 392.169 1169.27C387.98 1169.27 384.352 1168.6 381.286 1167.25C378.239 1165.89 375.84 1164.01 374.088 1161.59C372.355 1159.17 371.374 1156.36 371.146 1153.16H378.458C378.649 1155.37 379.391 1157.2 380.686 1158.65C382 1160.08 383.657 1161.14 385.656 1161.85C387.675 1162.53 389.846 1162.88 392.169 1162.88C394.873 1162.88 397.301 1162.44 399.453 1161.56C401.605 1160.67 403.309 1159.43 404.566 1157.85C405.823 1156.25 406.451 1154.38 406.451 1152.25C406.451 1150.31 405.909 1148.73 404.823 1147.51C403.738 1146.29 402.309 1145.3 400.538 1144.54C398.767 1143.78 396.854 1143.11 394.797 1142.54L387.599 1140.48C383.028 1139.17 379.41 1137.29 376.744 1134.85C374.078 1132.42 372.745 1129.23 372.745 1125.29C372.745 1122.01 373.631 1119.15 375.402 1116.72C377.192 1114.26 379.591 1112.35 382.6 1111C385.628 1109.63 389.008 1108.95 392.74 1108.95C396.511 1108.95 399.862 1109.62 402.795 1110.97C405.728 1112.31 408.051 1114.14 409.765 1116.46C411.498 1118.78 412.412 1121.42 412.507 1124.37H405.651ZM424.04 1184.7V1124.37H430.553V1131.34H431.352C431.847 1130.58 432.533 1129.61 433.409 1128.43C434.304 1127.23 435.58 1126.16 437.237 1125.23C438.912 1124.28 441.179 1123.8 444.035 1123.8C447.729 1123.8 450.986 1124.72 453.804 1126.57C456.622 1128.42 458.822 1131.04 460.402 1134.43C461.983 1137.82 462.773 1141.81 462.773 1146.42C462.773 1151.07 461.983 1155.1 460.402 1158.51C458.822 1161.9 456.632 1164.52 453.833 1166.39C451.033 1168.24 447.805 1169.16 444.149 1169.16C441.331 1169.16 439.074 1168.69 437.379 1167.76C435.685 1166.81 434.38 1165.73 433.466 1164.53C432.552 1163.31 431.847 1162.3 431.352 1161.5H430.781V1184.7H424.04ZM430.667 1146.31C430.667 1149.62 431.152 1152.55 432.124 1155.08C433.095 1157.59 434.513 1159.56 436.38 1160.99C438.246 1162.4 440.531 1163.1 443.235 1163.1C446.054 1163.1 448.405 1162.36 450.291 1160.88C452.195 1159.37 453.623 1157.35 454.575 1154.82C455.546 1152.27 456.032 1149.43 456.032 1146.31C456.032 1143.22 455.556 1140.44 454.604 1137.97C453.671 1135.47 452.252 1133.5 450.348 1132.05C448.462 1130.59 446.092 1129.86 443.235 1129.86C440.493 1129.86 438.189 1130.55 436.323 1131.94C434.456 1133.31 433.047 1135.24 432.095 1137.71C431.143 1140.17 430.667 1143.03 430.667 1146.31ZM485.968 1169.27C483.187 1169.27 480.664 1168.75 478.398 1167.7C476.132 1166.64 474.332 1165.1 472.999 1163.1C471.666 1161.09 471 1158.65 471 1155.79C471 1153.28 471.495 1151.24 472.485 1149.68C473.475 1148.1 474.799 1146.86 476.456 1145.97C478.112 1145.07 479.94 1144.4 481.94 1143.97C483.959 1143.51 485.987 1143.15 488.024 1142.88C490.69 1142.54 492.852 1142.28 494.508 1142.11C496.184 1141.92 497.403 1141.6 498.165 1141.17C498.945 1140.73 499.336 1139.97 499.336 1138.88V1138.65C499.336 1135.83 498.565 1133.65 497.022 1132.08C495.499 1130.52 493.185 1129.74 490.081 1129.74C486.863 1129.74 484.339 1130.45 482.511 1131.85C480.683 1133.26 479.398 1134.77 478.655 1136.37L472.257 1134.08C473.399 1131.42 474.923 1129.34 476.827 1127.86C478.75 1126.35 480.845 1125.3 483.111 1124.71C485.396 1124.1 487.643 1123.8 489.852 1123.8C491.262 1123.8 492.88 1123.97 494.708 1124.31C496.555 1124.64 498.336 1125.31 500.05 1126.34C501.783 1127.37 503.221 1128.92 504.363 1131C505.506 1133.07 506.077 1135.85 506.077 1139.34V1168.25H499.336V1162.3H498.993C498.536 1163.26 497.774 1164.28 496.708 1165.36C495.641 1166.45 494.223 1167.37 492.452 1168.13C490.681 1168.89 488.519 1169.27 485.968 1169.27ZM486.996 1163.22C489.662 1163.22 491.909 1162.7 493.737 1161.65C495.584 1160.6 496.974 1159.25 497.908 1157.59C498.86 1155.93 499.336 1154.19 499.336 1152.36V1146.19C499.05 1146.54 498.422 1146.85 497.451 1147.14C496.498 1147.4 495.394 1147.64 494.137 1147.85C492.899 1148.04 491.69 1148.21 490.509 1148.37C489.348 1148.5 488.405 1148.61 487.681 1148.71C485.93 1148.94 484.292 1149.31 482.768 1149.82C481.264 1150.32 480.045 1151.07 479.112 1152.08C478.198 1153.07 477.741 1154.42 477.741 1156.13C477.741 1158.48 478.607 1160.25 480.34 1161.45C482.092 1162.63 484.311 1163.22 486.996 1163.22ZM528.322 1168.25L514.953 1124.37H522.037L531.521 1157.96H531.978L541.347 1124.37H548.545L557.8 1157.85H558.257L567.741 1124.37H574.824L561.456 1168.25H554.829L545.232 1134.54H544.546L534.949 1168.25H528.322ZM590.478 1141.85V1168.25H583.737V1124.37H590.249V1131.23H590.821C591.849 1129 593.41 1127.21 595.505 1125.86C597.6 1124.49 600.304 1123.8 603.617 1123.8C606.588 1123.8 609.188 1124.41 611.416 1125.63C613.644 1126.83 615.376 1128.66 616.614 1131.11C617.852 1133.55 618.471 1136.63 618.471 1140.37V1168.25H611.73V1140.82C611.73 1137.38 610.835 1134.69 609.045 1132.77C607.255 1130.83 604.798 1129.86 601.675 1129.86C599.523 1129.86 597.6 1130.32 595.905 1131.26C594.229 1132.19 592.906 1133.55 591.935 1135.34C590.963 1137.13 590.478 1139.3 590.478 1141.85ZM654.327 1168.25V1109.75H674.093C678.663 1109.75 682.415 1110.53 685.348 1112.09C688.28 1113.63 690.451 1115.75 691.86 1118.46C693.269 1121.16 693.974 1124.24 693.974 1127.68C693.974 1131.13 693.269 1134.19 691.86 1136.85C690.451 1139.52 688.29 1141.61 685.376 1143.14C682.462 1144.64 678.74 1145.39 674.207 1145.39H658.211V1139H673.979C677.102 1139 679.616 1138.54 681.52 1137.62C683.443 1136.71 684.833 1135.42 685.69 1133.74C686.566 1132.05 687.004 1130.03 687.004 1127.68C687.004 1125.34 686.566 1123.3 685.69 1121.54C684.814 1119.79 683.415 1118.44 681.491 1117.49C679.568 1116.52 677.026 1116.03 673.865 1116.03H661.41V1168.25H654.327ZM681.863 1141.97L696.259 1168.25H688.033L673.865 1141.97H681.863ZM717.775 1169.27C714.995 1169.27 712.472 1168.75 710.206 1167.7C707.94 1166.64 706.14 1165.1 704.807 1163.1C703.474 1161.09 702.808 1158.65 702.808 1155.79C702.808 1153.28 703.303 1151.24 704.293 1149.68C705.283 1148.1 706.607 1146.86 708.263 1145.97C709.92 1145.07 711.748 1144.4 713.748 1143.97C715.766 1143.51 717.794 1143.15 719.832 1142.88C722.498 1142.54 724.659 1142.28 726.316 1142.11C727.992 1141.92 729.211 1141.6 729.972 1141.17C730.753 1140.73 731.143 1139.97 731.143 1138.88V1138.65C731.143 1135.83 730.372 1133.65 728.83 1132.08C727.306 1130.52 724.993 1129.74 721.889 1129.74C718.67 1129.74 716.147 1130.45 714.319 1131.85C712.491 1133.26 711.205 1134.77 710.463 1136.37L704.064 1134.08C705.207 1131.42 706.73 1129.34 708.635 1127.86C710.558 1126.35 712.653 1125.3 714.919 1124.71C717.204 1124.1 719.451 1123.8 721.66 1123.8C723.069 1123.8 724.688 1123.97 726.516 1124.31C728.363 1124.64 730.144 1125.31 731.858 1126.34C733.59 1127.37 735.028 1128.92 736.171 1131C737.313 1133.07 737.885 1135.85 737.885 1139.34V1168.25H731.143V1162.3H730.801C730.344 1163.26 729.582 1164.28 728.516 1165.36C727.449 1166.45 726.03 1167.37 724.259 1168.13C722.488 1168.89 720.327 1169.27 717.775 1169.27ZM718.804 1163.22C721.47 1163.22 723.717 1162.7 725.545 1161.65C727.392 1160.6 728.782 1159.25 729.715 1157.59C730.667 1155.93 731.143 1154.19 731.143 1152.36V1146.19C730.858 1146.54 730.229 1146.85 729.258 1147.14C728.306 1147.4 727.202 1147.64 725.945 1147.85C724.707 1148.04 723.498 1148.21 722.317 1148.37C721.155 1148.5 720.213 1148.61 719.489 1148.71C717.737 1148.94 716.1 1149.31 714.576 1149.82C713.072 1150.32 711.853 1151.07 710.92 1152.08C710.006 1153.07 709.549 1154.42 709.549 1156.13C709.549 1158.48 710.415 1160.25 712.148 1161.45C713.9 1162.63 716.119 1163.22 718.804 1163.22ZM769.27 1124.37V1130.08H746.533V1124.37H769.27ZM753.16 1113.86H759.901V1155.68C759.901 1157.58 760.177 1159.01 760.729 1159.96C761.3 1160.9 762.024 1161.52 762.9 1161.85C763.795 1162.15 764.738 1162.3 765.728 1162.3C766.471 1162.3 767.08 1162.27 767.556 1162.19C768.032 1162.1 768.413 1162.02 768.699 1161.96L770.07 1168.02C769.613 1168.19 768.975 1168.36 768.156 1168.53C767.337 1168.72 766.299 1168.82 765.042 1168.82C763.138 1168.82 761.272 1168.41 759.444 1167.59C757.635 1166.77 756.13 1165.52 754.931 1163.85C753.75 1162.17 753.16 1160.06 753.16 1157.51V1113.86ZM797.334 1169.16C793.107 1169.16 789.46 1168.23 786.394 1166.36C783.347 1164.48 780.996 1161.85 779.339 1158.48C777.701 1155.09 776.882 1151.15 776.882 1146.65C776.882 1142.16 777.701 1138.2 779.339 1134.77C780.996 1131.32 783.3 1128.64 786.251 1126.71C789.222 1124.77 792.688 1123.8 796.649 1123.8C798.934 1123.8 801.191 1124.18 803.419 1124.94C805.647 1125.7 807.675 1126.94 809.503 1128.66C811.331 1130.35 812.788 1132.6 813.873 1135.4C814.959 1138.2 815.501 1141.64 815.501 1145.74V1148.59H781.681V1142.77H808.646C808.646 1140.29 808.151 1138.08 807.161 1136.14C806.189 1134.2 804.799 1132.66 802.99 1131.54C801.2 1130.42 799.086 1129.86 796.649 1129.86C793.964 1129.86 791.641 1130.52 789.679 1131.85C787.737 1133.17 786.242 1134.88 785.195 1137C784.147 1139.11 783.624 1141.38 783.624 1143.79V1147.68C783.624 1150.99 784.195 1153.8 785.337 1156.11C786.499 1158.39 788.108 1160.13 790.165 1161.33C792.221 1162.51 794.611 1163.1 797.334 1163.1C799.105 1163.1 800.705 1162.86 802.133 1162.36C803.581 1161.85 804.828 1161.09 805.875 1160.08C806.923 1159.05 807.732 1157.77 808.303 1156.25L814.816 1158.08C814.13 1160.29 812.978 1162.23 811.36 1163.9C809.741 1165.56 807.741 1166.86 805.361 1167.79C802.981 1168.7 800.305 1169.16 797.334 1169.16ZM861.29 1169.27C858.51 1169.27 855.987 1168.75 853.721 1167.7C851.455 1166.64 849.655 1165.1 848.322 1163.1C846.989 1161.09 846.322 1158.65 846.322 1155.79C846.322 1153.28 846.818 1151.24 847.808 1149.68C848.798 1148.1 850.122 1146.86 851.778 1145.97C853.435 1145.07 855.263 1144.4 857.263 1143.97C859.281 1143.51 861.309 1143.15 863.347 1142.88C866.013 1142.54 868.174 1142.28 869.831 1142.11C871.507 1141.92 872.726 1141.6 873.487 1141.17C874.268 1140.73 874.658 1139.97 874.658 1138.88V1138.65C874.658 1135.83 873.887 1133.65 872.345 1132.08C870.821 1130.52 868.508 1129.74 865.404 1129.74C862.185 1129.74 859.662 1130.45 857.834 1131.85C856.006 1133.26 854.72 1134.77 853.978 1136.37L847.579 1134.08C848.722 1131.42 850.245 1129.34 852.15 1127.86C854.073 1126.35 856.168 1125.3 858.434 1124.71C860.719 1124.1 862.966 1123.8 865.175 1123.8C866.584 1123.8 868.203 1123.97 870.031 1124.31C871.878 1124.64 873.659 1125.31 875.373 1126.34C877.105 1127.37 878.543 1128.92 879.686 1131C880.828 1133.07 881.4 1135.85 881.4 1139.34V1168.25H874.658V1162.3H874.316C873.859 1163.26 873.097 1164.28 872.03 1165.36C870.964 1166.45 869.545 1167.37 867.774 1168.13C866.003 1168.89 863.842 1169.27 861.29 1169.27ZM862.319 1163.22C864.985 1163.22 867.232 1162.7 869.06 1161.65C870.907 1160.6 872.297 1159.25 873.23 1157.59C874.182 1155.93 874.658 1154.19 874.658 1152.36V1146.19C874.373 1146.54 873.744 1146.85 872.773 1147.14C871.821 1147.4 870.717 1147.64 869.46 1147.85C868.222 1148.04 867.013 1148.21 865.832 1148.37C864.67 1148.5 863.728 1148.61 863.004 1148.71C861.252 1148.94 859.614 1149.31 858.091 1149.82C856.587 1150.32 855.368 1151.07 854.435 1152.08C853.521 1153.07 853.064 1154.42 853.064 1156.13C853.064 1158.48 853.93 1160.25 855.663 1161.45C857.415 1162.63 859.634 1163.22 862.319 1163.22ZM913.242 1124.37V1130.08H889.591V1124.37H913.242ZM896.675 1168.25V1118.32C896.675 1115.8 897.265 1113.71 898.445 1112.03C899.626 1110.36 901.159 1109.1 903.044 1108.26C904.93 1107.42 906.92 1107 909.014 1107C910.671 1107 912.023 1107.14 913.07 1107.4C914.118 1107.67 914.899 1107.92 915.413 1108.15L913.47 1113.97C913.128 1113.86 912.652 1113.72 912.042 1113.55C911.452 1113.37 910.671 1113.29 909.7 1113.29C907.472 1113.29 905.863 1113.85 904.872 1114.97C903.901 1116.1 903.416 1117.74 903.416 1119.92V1168.25H896.675ZM942.228 1124.37V1130.08H918.576V1124.37H942.228ZM925.66 1168.25V1118.32C925.66 1115.8 926.251 1113.71 927.431 1112.03C928.612 1110.36 930.145 1109.1 932.03 1108.26C933.915 1107.42 935.905 1107 938 1107C939.657 1107 941.009 1107.14 942.056 1107.4C943.104 1107.67 943.884 1107.92 944.399 1108.15L942.456 1113.97C942.113 1113.86 941.637 1113.72 941.028 1113.55C940.438 1113.37 939.657 1113.29 938.686 1113.29C936.458 1113.29 934.849 1113.85 933.858 1114.97C932.887 1116.1 932.401 1117.74 932.401 1119.92V1168.25H925.66ZM968.264 1169.16C964.037 1169.16 960.39 1168.23 957.324 1166.36C954.277 1164.48 951.925 1161.85 950.269 1158.48C948.631 1155.09 947.812 1151.15 947.812 1146.65C947.812 1142.16 948.631 1138.2 950.269 1134.77C951.925 1131.32 954.229 1128.64 957.181 1126.71C960.152 1124.77 963.618 1123.8 967.579 1123.8C969.864 1123.8 972.12 1124.18 974.348 1124.94C976.576 1125.7 978.604 1126.94 980.433 1128.66C982.261 1130.35 983.718 1132.6 984.803 1135.4C985.888 1138.2 986.431 1141.64 986.431 1145.74V1148.59H952.611V1142.77H979.576C979.576 1140.29 979.081 1138.08 978.09 1136.14C977.119 1134.2 975.729 1132.66 973.92 1131.54C972.13 1130.42 970.016 1129.86 967.579 1129.86C964.894 1129.86 962.57 1130.52 960.609 1131.85C958.667 1133.17 957.172 1134.88 956.124 1137C955.077 1139.11 954.553 1141.38 954.553 1143.79V1147.68C954.553 1150.99 955.125 1153.8 956.267 1156.11C957.429 1158.39 959.038 1160.13 961.094 1161.33C963.151 1162.51 965.541 1163.1 968.264 1163.1C970.035 1163.1 971.635 1162.86 973.063 1162.36C974.51 1161.85 975.758 1161.09 976.805 1160.08C977.852 1159.05 978.662 1157.77 979.233 1156.25L985.746 1158.08C985.06 1160.29 983.908 1162.23 982.289 1163.9C980.671 1165.56 978.671 1166.86 976.291 1167.79C973.91 1168.7 971.235 1169.16 968.264 1169.16ZM1014.51 1169.16C1010.4 1169.16 1006.85 1168.19 1003.88 1166.25C1000.91 1164.3 998.628 1161.63 997.029 1158.22C995.429 1154.81 994.629 1150.92 994.629 1146.54C994.629 1142.08 995.448 1138.15 997.086 1134.74C998.742 1131.31 1001.05 1128.64 1004 1126.71C1006.97 1124.77 1010.43 1123.8 1014.4 1123.8C1017.48 1123.8 1020.26 1124.37 1022.74 1125.51C1025.21 1126.66 1027.24 1128.26 1028.82 1130.31C1030.4 1132.37 1031.38 1134.77 1031.76 1137.51H1025.02C1024.51 1135.51 1023.36 1133.74 1021.59 1132.2C1019.84 1130.64 1017.48 1129.86 1014.51 1129.86C1011.88 1129.86 1009.58 1130.54 1007.6 1131.91C1005.64 1133.26 1004.1 1135.18 1003 1137.65C1001.91 1140.11 1001.37 1143 1001.37 1146.31C1001.37 1149.7 1001.9 1152.65 1002.97 1155.16C1004.06 1157.68 1005.58 1159.63 1007.54 1161.02C1009.52 1162.41 1011.84 1163.1 1014.51 1163.1C1016.26 1163.1 1017.85 1162.8 1019.28 1162.19C1020.71 1161.58 1021.92 1160.71 1022.91 1159.56C1023.9 1158.42 1024.6 1157.05 1025.02 1155.45H1031.76C1031.38 1158.04 1030.44 1160.37 1028.94 1162.45C1027.45 1164.5 1025.48 1166.14 1023.02 1167.36C1020.58 1168.56 1017.75 1169.16 1014.51 1169.16ZM1060.7 1124.37V1130.08H1037.96V1124.37H1060.7ZM1044.59 1113.86H1051.33V1155.68C1051.33 1157.58 1051.61 1159.01 1052.16 1159.96C1052.73 1160.9 1053.45 1161.52 1054.33 1161.85C1055.22 1162.15 1056.17 1162.3 1057.16 1162.3C1057.9 1162.3 1058.51 1162.27 1058.98 1162.19C1059.46 1162.1 1059.84 1162.02 1060.13 1161.96L1061.5 1168.02C1061.04 1168.19 1060.4 1168.36 1059.58 1168.53C1058.77 1168.72 1057.73 1168.82 1056.47 1168.82C1054.57 1168.82 1052.7 1168.41 1050.87 1167.59C1049.06 1166.77 1047.56 1165.52 1046.36 1163.85C1045.18 1162.17 1044.59 1160.06 1044.59 1157.51V1113.86ZM1101.13 1134.2L1095.08 1135.91C1094.7 1134.9 1094.13 1133.92 1093.39 1132.97C1092.67 1132 1091.68 1131.2 1090.42 1130.57C1089.16 1129.94 1087.55 1129.63 1085.59 1129.63C1082.91 1129.63 1080.67 1130.25 1078.88 1131.48C1077.11 1132.7 1076.22 1134.25 1076.22 1136.14C1076.22 1137.82 1076.83 1139.14 1078.05 1140.11C1079.27 1141.08 1081.17 1141.89 1083.76 1142.54L1090.28 1144.14C1094.2 1145.09 1097.12 1146.55 1099.05 1148.51C1100.97 1150.45 1101.93 1152.95 1101.93 1156.02C1101.93 1158.53 1101.21 1160.78 1099.76 1162.76C1098.33 1164.74 1096.33 1166.3 1093.76 1167.45C1091.19 1168.59 1088.2 1169.16 1084.79 1169.16C1080.32 1169.16 1076.61 1168.19 1073.68 1166.25C1070.75 1164.3 1068.89 1161.47 1068.11 1157.73L1074.51 1156.13C1075.12 1158.5 1076.27 1160.27 1077.97 1161.45C1079.68 1162.63 1081.92 1163.22 1084.68 1163.22C1087.82 1163.22 1090.32 1162.55 1092.16 1161.22C1094.03 1159.87 1094.96 1158.25 1094.96 1156.36C1094.96 1154.84 1094.43 1153.56 1093.36 1152.54C1092.3 1151.49 1090.66 1150.71 1088.45 1150.19L1081.14 1148.48C1077.12 1147.53 1074.17 1146.05 1072.28 1144.05C1070.42 1142.03 1069.48 1139.51 1069.48 1136.48C1069.48 1134.01 1070.18 1131.82 1071.57 1129.91C1072.98 1128.01 1074.89 1126.51 1077.31 1125.43C1079.75 1124.34 1082.51 1123.8 1085.59 1123.8C1089.93 1123.8 1093.34 1124.75 1095.82 1126.66C1098.31 1128.56 1100.08 1131.07 1101.13 1134.2ZM1141.44 1141.85V1168.25H1134.7V1109.75H1141.44V1131.23H1142.01C1143.04 1128.96 1144.59 1127.16 1146.64 1125.83C1148.72 1124.48 1151.48 1123.8 1154.93 1123.8C1157.92 1123.8 1160.53 1124.4 1162.78 1125.6C1165.03 1126.78 1166.77 1128.6 1168.01 1131.06C1169.27 1133.49 1169.89 1136.6 1169.89 1140.37V1168.25H1163.15V1140.82C1163.15 1137.34 1162.25 1134.64 1160.44 1132.74C1158.65 1130.82 1156.16 1129.86 1152.98 1129.86C1150.77 1129.86 1148.79 1130.32 1147.04 1131.26C1145.31 1132.19 1143.94 1133.55 1142.93 1135.34C1141.94 1137.13 1141.44 1139.3 1141.44 1141.85ZM1200.05 1169.16C1196.09 1169.16 1192.61 1168.22 1189.62 1166.33C1186.65 1164.45 1184.33 1161.81 1182.65 1158.42C1181 1155.03 1180.17 1151.07 1180.17 1146.54C1180.17 1141.97 1181 1137.98 1182.65 1134.57C1184.33 1131.16 1186.65 1128.51 1189.62 1126.63C1192.61 1124.74 1196.09 1123.8 1200.05 1123.8C1204.01 1123.8 1207.48 1124.74 1210.45 1126.63C1213.44 1128.51 1215.76 1131.16 1217.42 1134.57C1219.09 1137.98 1219.93 1141.97 1219.93 1146.54C1219.93 1151.07 1219.09 1155.03 1217.42 1158.42C1215.76 1161.81 1213.44 1164.45 1210.45 1166.33C1207.48 1168.22 1204.01 1169.16 1200.05 1169.16ZM1200.05 1163.1C1203.06 1163.1 1205.53 1162.33 1207.48 1160.79C1209.42 1159.25 1210.86 1157.22 1211.79 1154.71C1212.72 1152.19 1213.19 1149.47 1213.19 1146.54C1213.19 1143.6 1212.72 1140.87 1211.79 1138.34C1210.86 1135.81 1209.42 1133.76 1207.48 1132.2C1205.53 1130.64 1203.06 1129.86 1200.05 1129.86C1197.04 1129.86 1194.57 1130.64 1192.62 1132.2C1190.68 1133.76 1189.24 1135.81 1188.31 1138.34C1187.38 1140.87 1186.91 1143.6 1186.91 1146.54C1186.91 1149.47 1187.38 1152.19 1188.31 1154.71C1189.24 1157.22 1190.68 1159.25 1192.62 1160.79C1194.57 1162.33 1197.04 1163.1 1200.05 1163.1ZM1238.67 1168.25L1225.3 1124.37H1232.39L1241.87 1157.96H1242.33L1251.69 1124.37H1258.89L1268.15 1157.85H1268.61L1278.09 1124.37H1285.17L1271.8 1168.25H1265.18L1255.58 1134.54H1254.89L1245.3 1168.25H1238.67ZM1316.71 1168.25V1124.37H1323.22V1131.23H1323.79C1324.71 1128.88 1326.18 1127.07 1328.22 1125.77C1330.26 1124.46 1332.7 1123.8 1335.56 1123.8C1338.45 1123.8 1340.86 1124.46 1342.79 1125.77C1344.73 1127.07 1346.24 1128.88 1347.33 1131.23H1347.79C1348.91 1128.96 1350.59 1127.16 1352.84 1125.83C1355.09 1124.48 1357.78 1123.8 1360.93 1123.8C1364.85 1123.8 1368.06 1125.03 1370.55 1127.48C1373.05 1129.92 1374.29 1133.72 1374.29 1138.88V1168.25H1367.55V1138.88C1367.55 1135.64 1366.67 1133.33 1364.9 1131.94C1363.12 1130.55 1361.04 1129.86 1358.64 1129.86C1355.56 1129.86 1353.17 1130.79 1351.47 1132.65C1349.78 1134.5 1348.93 1136.84 1348.93 1139.68V1168.25H1342.07V1138.2C1342.07 1135.7 1341.26 1133.69 1339.64 1132.17C1338.03 1130.63 1335.94 1129.86 1333.39 1129.86C1331.64 1129.86 1330 1130.32 1328.48 1131.26C1326.97 1132.19 1325.75 1133.48 1324.82 1135.14C1323.91 1136.78 1323.45 1138.67 1323.45 1140.82V1168.25H1316.71ZM1399.53 1169.27C1396.75 1169.27 1394.23 1168.75 1391.96 1167.7C1389.69 1166.64 1387.9 1165.1 1386.56 1163.1C1385.23 1161.09 1384.56 1158.65 1384.56 1155.79C1384.56 1153.28 1385.06 1151.24 1386.05 1149.68C1387.04 1148.1 1388.36 1146.86 1390.02 1145.97C1391.68 1145.07 1393.5 1144.4 1395.5 1143.97C1397.52 1143.51 1399.55 1143.15 1401.59 1142.88C1404.25 1142.54 1406.41 1142.28 1408.07 1142.11C1409.75 1141.92 1410.97 1141.6 1411.73 1141.17C1412.51 1140.73 1412.9 1139.97 1412.9 1138.88V1138.65C1412.9 1135.83 1412.13 1133.65 1410.58 1132.08C1409.06 1130.52 1406.75 1129.74 1403.64 1129.74C1400.43 1129.74 1397.9 1130.45 1396.07 1131.85C1394.25 1133.26 1392.96 1134.77 1392.22 1136.37L1385.82 1134.08C1386.96 1131.42 1388.49 1129.34 1390.39 1127.86C1392.31 1126.35 1394.41 1125.3 1396.67 1124.71C1398.96 1124.1 1401.21 1123.8 1403.42 1123.8C1404.82 1123.8 1406.44 1123.97 1408.27 1124.31C1410.12 1124.64 1411.9 1125.31 1413.61 1126.34C1415.35 1127.37 1416.78 1128.92 1417.93 1131C1419.07 1133.07 1419.64 1135.85 1419.64 1139.34V1168.25H1412.9V1162.3H1412.56C1412.1 1163.26 1411.34 1164.28 1410.27 1165.36C1409.2 1166.45 1407.79 1167.37 1406.01 1168.13C1404.24 1168.89 1402.08 1169.27 1399.53 1169.27ZM1400.56 1163.22C1403.22 1163.22 1405.47 1162.7 1407.3 1161.65C1409.15 1160.6 1410.54 1159.25 1411.47 1157.59C1412.42 1155.93 1412.9 1154.19 1412.9 1152.36V1146.19C1412.61 1146.54 1411.98 1146.85 1411.01 1147.14C1410.06 1147.4 1408.96 1147.64 1407.7 1147.85C1406.46 1148.04 1405.25 1148.21 1404.07 1148.37C1402.91 1148.5 1401.97 1148.61 1401.24 1148.71C1399.49 1148.94 1397.85 1149.31 1396.33 1149.82C1394.83 1150.32 1393.61 1151.07 1392.67 1152.08C1391.76 1153.07 1391.3 1154.42 1391.3 1156.13C1391.3 1158.48 1392.17 1160.25 1393.9 1161.45C1395.66 1162.63 1397.87 1163.22 1400.56 1163.22ZM1438.69 1141.85V1168.25H1431.94V1124.37H1438.46V1131.23H1439.03C1440.06 1129 1441.62 1127.21 1443.71 1125.86C1445.81 1124.49 1448.51 1123.8 1451.82 1123.8C1454.8 1123.8 1457.39 1124.41 1459.62 1125.63C1461.85 1126.83 1463.58 1128.66 1464.82 1131.11C1466.06 1133.55 1466.68 1136.63 1466.68 1140.37V1168.25H1459.94V1140.82C1459.94 1137.38 1459.04 1134.69 1457.25 1132.77C1455.46 1130.83 1453.01 1129.86 1449.88 1129.86C1447.73 1129.86 1445.81 1130.32 1444.11 1131.26C1442.44 1132.19 1441.11 1133.55 1440.14 1135.34C1439.17 1137.13 1438.69 1139.3 1438.69 1141.85ZM1481.77 1184.7C1480.62 1184.7 1479.61 1184.6 1478.71 1184.41C1477.82 1184.24 1477.2 1184.07 1476.85 1183.9L1478.57 1177.96C1480.21 1178.38 1481.65 1178.53 1482.91 1178.42C1484.17 1178.3 1485.28 1177.74 1486.25 1176.73C1487.24 1175.74 1488.15 1174.13 1488.97 1171.9L1490.22 1168.47L1474 1124.37H1481.31L1493.42 1159.33H1493.88L1505.99 1124.37H1513.3L1494.68 1174.64C1493.84 1176.91 1492.8 1178.79 1491.56 1180.27C1490.33 1181.78 1488.89 1182.89 1487.25 1183.61C1485.63 1184.34 1483.8 1184.7 1481.77 1184.7ZM1544.82 1184.7V1124.37H1551.34V1131.34H1552.14C1552.63 1130.58 1553.32 1129.61 1554.19 1128.43C1555.09 1127.23 1556.36 1126.16 1558.02 1125.23C1559.7 1124.28 1561.96 1123.8 1564.82 1123.8C1568.51 1123.8 1571.77 1124.72 1574.59 1126.57C1577.41 1128.42 1579.61 1131.04 1581.19 1134.43C1582.77 1137.82 1583.56 1141.81 1583.56 1146.42C1583.56 1151.07 1582.77 1155.1 1581.19 1158.51C1579.61 1161.9 1577.42 1164.52 1574.62 1166.39C1571.82 1168.24 1568.59 1169.16 1564.93 1169.16C1562.11 1169.16 1559.86 1168.69 1558.16 1167.76C1556.47 1166.81 1555.16 1165.73 1554.25 1164.53C1553.34 1163.31 1552.63 1162.3 1552.14 1161.5H1551.56V1184.7H1544.82ZM1551.45 1146.31C1551.45 1149.62 1551.94 1152.55 1552.91 1155.08C1553.88 1157.59 1555.3 1159.56 1557.16 1160.99C1559.03 1162.4 1561.31 1163.1 1564.02 1163.1C1566.84 1163.1 1569.19 1162.36 1571.07 1160.88C1572.98 1159.37 1574.41 1157.35 1575.36 1154.82C1576.33 1152.27 1576.82 1149.43 1576.82 1146.31C1576.82 1143.22 1576.34 1140.44 1575.39 1137.97C1574.45 1135.47 1573.04 1133.5 1571.13 1132.05C1569.25 1130.59 1566.88 1129.86 1564.02 1129.86C1561.28 1129.86 1558.97 1130.55 1557.11 1131.94C1555.24 1133.31 1553.83 1135.24 1552.88 1137.71C1551.93 1140.17 1551.45 1143.03 1551.45 1146.31ZM1606.75 1169.27C1603.97 1169.27 1601.45 1168.75 1599.18 1167.7C1596.92 1166.64 1595.12 1165.1 1593.78 1163.1C1592.45 1161.09 1591.78 1158.65 1591.78 1155.79C1591.78 1153.28 1592.28 1151.24 1593.27 1149.68C1594.26 1148.1 1595.58 1146.86 1597.24 1145.97C1598.9 1145.07 1600.72 1144.4 1602.72 1143.97C1604.74 1143.51 1606.77 1143.15 1608.81 1142.88C1611.47 1142.54 1613.64 1142.28 1615.29 1142.11C1616.97 1141.92 1618.19 1141.6 1618.95 1141.17C1619.73 1140.73 1620.12 1139.97 1620.12 1138.88V1138.65C1620.12 1135.83 1619.35 1133.65 1617.81 1132.08C1616.28 1130.52 1613.97 1129.74 1610.86 1129.74C1607.65 1129.74 1605.12 1130.45 1603.29 1131.85C1601.47 1133.26 1600.18 1134.77 1599.44 1136.37L1593.04 1134.08C1594.18 1131.42 1595.71 1129.34 1597.61 1127.86C1599.53 1126.35 1601.63 1125.3 1603.89 1124.71C1606.18 1124.1 1608.43 1123.8 1610.64 1123.8C1612.05 1123.8 1613.66 1123.97 1615.49 1124.31C1617.34 1124.64 1619.12 1125.31 1620.83 1126.34C1622.57 1127.37 1624 1128.92 1625.15 1131C1626.29 1133.07 1626.86 1135.85 1626.86 1139.34V1168.25H1620.12V1162.3H1619.78C1619.32 1163.26 1618.56 1164.28 1617.49 1165.36C1616.42 1166.45 1615.01 1167.37 1613.24 1168.13C1611.46 1168.89 1609.3 1169.27 1606.75 1169.27ZM1607.78 1163.22C1610.45 1163.22 1612.69 1162.7 1614.52 1161.65C1616.37 1160.6 1617.76 1159.25 1618.69 1157.59C1619.64 1155.93 1620.12 1154.19 1620.12 1152.36V1146.19C1619.83 1146.54 1619.21 1146.85 1618.23 1147.14C1617.28 1147.4 1616.18 1147.64 1614.92 1147.85C1613.68 1148.04 1612.47 1148.21 1611.29 1148.37C1610.13 1148.5 1609.19 1148.61 1608.46 1148.71C1606.71 1148.94 1605.08 1149.31 1603.55 1149.82C1602.05 1150.32 1600.83 1151.07 1599.9 1152.08C1598.98 1153.07 1598.52 1154.42 1598.52 1156.13C1598.52 1158.48 1599.39 1160.25 1601.12 1161.45C1602.88 1162.63 1605.09 1163.22 1607.78 1163.22ZM1639.16 1168.25V1124.37H1645.68V1131H1646.13C1646.93 1128.83 1648.38 1127.07 1650.48 1125.71C1652.57 1124.36 1654.93 1123.69 1657.56 1123.69C1658.06 1123.69 1658.67 1123.7 1659.42 1123.71C1660.16 1123.73 1660.72 1123.76 1661.1 1123.8V1130.66C1660.87 1130.6 1660.35 1130.51 1659.53 1130.4C1658.73 1130.26 1657.88 1130.2 1656.99 1130.2C1654.86 1130.2 1652.95 1130.65 1651.28 1131.54C1649.62 1132.42 1648.31 1133.64 1647.33 1135.2C1646.38 1136.74 1645.91 1138.5 1645.91 1140.48V1168.25H1639.16ZM1690.92 1124.37V1130.08H1668.19V1124.37H1690.92ZM1674.81 1113.86H1681.55V1155.68C1681.55 1157.58 1681.83 1159.01 1682.38 1159.96C1682.95 1160.9 1683.68 1161.52 1684.55 1161.85C1685.45 1162.15 1686.39 1162.3 1687.38 1162.3C1688.12 1162.3 1688.73 1162.27 1689.21 1162.19C1689.69 1162.1 1690.07 1162.02 1690.35 1161.96L1691.72 1168.02C1691.27 1168.19 1690.63 1168.36 1689.81 1168.53C1688.99 1168.72 1687.95 1168.82 1686.7 1168.82C1684.79 1168.82 1682.93 1168.41 1681.1 1167.59C1679.29 1166.77 1677.78 1165.52 1676.58 1163.85C1675.4 1162.17 1674.81 1160.06 1674.81 1157.51V1113.86ZM1701.06 1168.25V1124.37H1707.81V1168.25H1701.06ZM1704.49 1117.06C1703.18 1117.06 1702.04 1116.61 1701.09 1115.72C1700.16 1114.82 1699.69 1113.75 1699.69 1112.49C1699.69 1111.23 1700.16 1110.16 1701.09 1109.26C1702.04 1108.37 1703.18 1107.92 1704.49 1107.92C1705.81 1107.92 1706.93 1108.37 1707.86 1109.26C1708.81 1110.16 1709.29 1111.23 1709.29 1112.49C1709.29 1113.75 1708.81 1114.82 1707.86 1115.72C1706.93 1116.61 1705.81 1117.06 1704.49 1117.06ZM1737.98 1169.16C1733.86 1169.16 1730.32 1168.19 1727.35 1166.25C1724.38 1164.3 1722.09 1161.63 1720.49 1158.22C1718.9 1154.81 1718.1 1150.92 1718.1 1146.54C1718.1 1142.08 1718.91 1138.15 1720.55 1134.74C1722.21 1131.31 1724.51 1128.64 1727.46 1126.71C1730.44 1124.77 1733.9 1123.8 1737.86 1123.8C1740.95 1123.8 1743.73 1124.37 1746.2 1125.51C1748.68 1126.66 1750.71 1128.26 1752.29 1130.31C1753.87 1132.37 1754.85 1134.77 1755.23 1137.51H1748.49C1747.97 1135.51 1746.83 1133.74 1745.06 1132.2C1743.31 1130.64 1740.95 1129.86 1737.98 1129.86C1735.35 1129.86 1733.04 1130.54 1731.06 1131.91C1729.1 1133.26 1727.57 1135.18 1726.46 1137.65C1725.38 1140.11 1724.84 1143 1724.84 1146.31C1724.84 1149.7 1725.37 1152.65 1726.44 1155.16C1727.52 1157.68 1729.05 1159.63 1731.01 1161.02C1732.99 1162.41 1735.31 1163.1 1737.98 1163.1C1739.73 1163.1 1741.32 1162.8 1742.75 1162.19C1744.17 1161.58 1745.38 1160.71 1746.37 1159.56C1747.36 1158.42 1748.07 1157.05 1748.49 1155.45H1755.23C1754.85 1158.04 1753.91 1160.37 1752.4 1162.45C1750.92 1164.5 1748.94 1166.14 1746.49 1167.36C1744.05 1168.56 1741.21 1169.16 1737.98 1169.16ZM1771.83 1109.75V1168.25H1765.08V1109.75H1771.83ZM1802.57 1169.16C1798.34 1169.16 1794.69 1168.23 1791.63 1166.36C1788.58 1164.48 1786.23 1161.85 1784.57 1158.48C1782.93 1155.09 1782.12 1151.15 1782.12 1146.65C1782.12 1142.16 1782.93 1138.2 1784.57 1134.77C1786.23 1131.32 1788.53 1128.64 1791.48 1126.71C1794.46 1124.77 1797.92 1123.8 1801.88 1123.8C1804.17 1123.8 1806.42 1124.18 1808.65 1124.94C1810.88 1125.7 1812.91 1126.94 1814.74 1128.66C1816.56 1130.35 1818.02 1132.6 1819.11 1135.4C1820.19 1138.2 1820.73 1141.64 1820.73 1145.74V1148.59H1786.91V1142.77H1813.88C1813.88 1140.29 1813.38 1138.08 1812.39 1136.14C1811.42 1134.2 1810.03 1132.66 1808.22 1131.54C1806.43 1130.42 1804.32 1129.86 1801.88 1129.86C1799.2 1129.86 1796.87 1130.52 1794.91 1131.85C1792.97 1133.17 1791.48 1134.88 1790.43 1137C1789.38 1139.11 1788.86 1141.38 1788.86 1143.79V1147.68C1788.86 1150.99 1789.43 1153.8 1790.57 1156.11C1791.73 1158.39 1793.34 1160.13 1795.4 1161.33C1797.45 1162.51 1799.84 1163.1 1802.57 1163.1C1804.34 1163.1 1805.94 1162.86 1807.37 1162.36C1808.81 1161.85 1810.06 1161.09 1811.11 1160.08C1812.16 1159.05 1812.97 1157.77 1813.54 1156.25L1820.05 1158.08C1819.36 1160.29 1818.21 1162.23 1816.59 1163.9C1814.97 1165.56 1812.97 1166.86 1810.59 1167.79C1808.21 1168.7 1805.54 1169.16 1802.57 1169.16ZM1862.07 1134.2L1856.01 1135.91C1855.63 1134.9 1855.07 1133.92 1854.33 1132.97C1853.6 1132 1852.61 1131.2 1851.36 1130.57C1850.1 1129.94 1848.49 1129.63 1846.53 1129.63C1843.84 1129.63 1841.61 1130.25 1839.82 1131.48C1838.04 1132.7 1837.16 1134.25 1837.16 1136.14C1837.16 1137.82 1837.77 1139.14 1838.99 1140.11C1840.21 1141.08 1842.11 1141.89 1844.7 1142.54L1851.21 1144.14C1855.14 1145.09 1858.06 1146.55 1859.98 1148.51C1861.91 1150.45 1862.87 1152.95 1862.87 1156.02C1862.87 1158.53 1862.14 1160.78 1860.7 1162.76C1859.27 1164.74 1857.27 1166.3 1854.7 1167.45C1852.13 1168.59 1849.14 1169.16 1845.73 1169.16C1841.25 1169.16 1837.55 1168.19 1834.62 1166.25C1831.68 1164.3 1829.83 1161.47 1829.05 1157.73L1835.45 1156.13C1836.05 1158.5 1837.21 1160.27 1838.9 1161.45C1840.62 1162.63 1842.85 1163.22 1845.61 1163.22C1848.76 1163.22 1851.25 1162.55 1853.1 1161.22C1854.96 1159.87 1855.9 1158.25 1855.9 1156.36C1855.9 1154.84 1855.36 1153.56 1854.3 1152.54C1853.23 1151.49 1851.59 1150.71 1849.38 1150.19L1842.07 1148.48C1838.05 1147.53 1835.1 1146.05 1833.22 1144.05C1831.35 1142.03 1830.42 1139.51 1830.42 1136.48C1830.42 1134.01 1831.11 1131.82 1832.5 1129.91C1833.91 1128.01 1835.83 1126.51 1838.24 1125.43C1840.68 1124.34 1843.44 1123.8 1846.53 1123.8C1850.87 1123.8 1854.28 1124.75 1856.75 1126.66C1859.25 1128.56 1861.02 1131.07 1862.07 1134.2ZM1926.72 1134.2L1920.66 1135.91C1920.28 1134.9 1919.72 1133.92 1918.97 1132.97C1918.25 1132 1917.26 1131.2 1916 1130.57C1914.75 1129.94 1913.14 1129.63 1911.18 1129.63C1908.49 1129.63 1906.25 1130.25 1904.46 1131.48C1902.69 1132.7 1901.81 1134.25 1901.81 1136.14C1901.81 1137.82 1902.42 1139.14 1903.64 1140.11C1904.85 1141.08 1906.76 1141.89 1909.35 1142.54L1915.86 1144.14C1919.78 1145.09 1922.71 1146.55 1924.63 1148.51C1926.55 1150.45 1927.52 1152.95 1927.52 1156.02C1927.52 1158.53 1926.79 1160.78 1925.34 1162.76C1923.92 1164.74 1921.92 1166.3 1919.35 1167.45C1916.78 1168.59 1913.79 1169.16 1910.38 1169.16C1905.9 1169.16 1902.2 1168.19 1899.27 1166.25C1896.33 1164.3 1894.48 1161.47 1893.7 1157.73L1900.09 1156.13C1900.7 1158.5 1901.86 1160.27 1903.55 1161.45C1905.26 1162.63 1907.5 1163.22 1910.26 1163.22C1913.4 1163.22 1915.9 1162.55 1917.75 1161.22C1919.61 1159.87 1920.55 1158.25 1920.55 1156.36C1920.55 1154.84 1920.01 1153.56 1918.95 1152.54C1917.88 1151.49 1916.24 1150.71 1914.03 1150.19L1906.72 1148.48C1902.7 1147.53 1899.75 1146.05 1897.87 1144.05C1896 1142.03 1895.07 1139.51 1895.07 1136.48C1895.07 1134.01 1895.76 1131.82 1897.15 1129.91C1898.56 1128.01 1900.47 1126.51 1902.89 1125.43C1905.33 1124.34 1908.09 1123.8 1911.18 1123.8C1915.52 1123.8 1918.93 1124.75 1921.4 1126.66C1923.9 1128.56 1925.67 1131.07 1926.72 1134.2ZM1937.66 1184.7V1124.37H1944.18V1131.34H1944.98C1945.47 1130.58 1946.16 1129.61 1947.03 1128.43C1947.93 1127.23 1949.2 1126.16 1950.86 1125.23C1952.54 1124.28 1954.8 1123.8 1957.66 1123.8C1961.35 1123.8 1964.61 1124.72 1967.43 1126.57C1970.25 1128.42 1972.45 1131.04 1974.03 1134.43C1975.61 1137.82 1976.4 1141.81 1976.4 1146.42C1976.4 1151.07 1975.61 1155.1 1974.03 1158.51C1972.45 1161.9 1970.26 1164.52 1967.46 1166.39C1964.66 1168.24 1961.43 1169.16 1957.77 1169.16C1954.95 1169.16 1952.7 1168.69 1951 1167.76C1949.31 1166.81 1948 1165.73 1947.09 1164.53C1946.18 1163.31 1945.47 1162.3 1944.98 1161.5H1944.4V1184.7H1937.66ZM1944.29 1146.31C1944.29 1149.62 1944.78 1152.55 1945.75 1155.08C1946.72 1157.59 1948.14 1159.56 1950 1160.99C1951.87 1162.4 1954.15 1163.1 1956.86 1163.1C1959.68 1163.1 1962.03 1162.36 1963.91 1160.88C1965.82 1159.37 1967.25 1157.35 1968.2 1154.82C1969.17 1152.27 1969.66 1149.43 1969.66 1146.31C1969.66 1143.22 1969.18 1140.44 1968.23 1137.97C1967.29 1135.47 1965.88 1133.5 1963.97 1132.05C1962.09 1130.59 1959.71 1129.86 1956.86 1129.86C1954.12 1129.86 1951.81 1130.55 1949.95 1131.94C1948.08 1133.31 1946.67 1135.24 1945.72 1137.71C1944.77 1140.17 1944.29 1143.03 1944.29 1146.31ZM1999.59 1169.27C1996.81 1169.27 1994.29 1168.75 1992.02 1167.7C1989.76 1166.64 1987.96 1165.1 1986.62 1163.1C1985.29 1161.09 1984.62 1158.65 1984.62 1155.79C1984.62 1153.28 1985.12 1151.24 1986.11 1149.68C1987.1 1148.1 1988.42 1146.86 1990.08 1145.97C1991.74 1145.07 1993.56 1144.4 1995.56 1143.97C1997.58 1143.51 1999.61 1143.15 2001.65 1142.88C2004.31 1142.54 2006.47 1142.28 2008.13 1142.11C2009.81 1141.92 2011.03 1141.6 2011.79 1141.17C2012.57 1140.73 2012.96 1139.97 2012.96 1138.88V1138.65C2012.96 1135.83 2012.19 1133.65 2010.65 1132.08C2009.12 1130.52 2006.81 1129.74 2003.7 1129.74C2000.49 1129.74 1997.96 1130.45 1996.13 1131.85C1994.31 1133.26 1993.02 1134.77 1992.28 1136.37L1985.88 1134.08C1987.02 1131.42 1988.55 1129.34 1990.45 1127.86C1992.37 1126.35 1994.47 1125.3 1996.73 1124.71C1999.02 1124.1 2001.27 1123.8 2003.48 1123.8C2004.88 1123.8 2006.5 1123.97 2008.33 1124.31C2010.18 1124.64 2011.96 1125.31 2013.67 1126.34C2015.41 1127.37 2016.84 1128.92 2017.99 1131C2019.13 1133.07 2019.7 1135.85 2019.7 1139.34V1168.25H2012.96V1162.3H2012.62C2012.16 1163.26 2011.4 1164.28 2010.33 1165.36C2009.26 1166.45 2007.85 1167.37 2006.08 1168.13C2004.3 1168.89 2002.14 1169.27 1999.59 1169.27ZM2000.62 1163.22C2003.29 1163.22 2005.53 1162.7 2007.36 1161.65C2009.21 1160.6 2010.6 1159.25 2011.53 1157.59C2012.48 1155.93 2012.96 1154.19 2012.96 1152.36V1146.19C2012.67 1146.54 2012.05 1146.85 2011.07 1147.14C2010.12 1147.4 2009.02 1147.64 2007.76 1147.85C2006.52 1148.04 2005.31 1148.21 2004.13 1148.37C2002.97 1148.5 2002.03 1148.61 2001.3 1148.71C1999.55 1148.94 1997.92 1149.31 1996.39 1149.82C1994.89 1150.32 1993.67 1151.07 1992.74 1152.08C1991.82 1153.07 1991.36 1154.42 1991.36 1156.13C1991.36 1158.48 1992.23 1160.25 1993.96 1161.45C1995.72 1162.63 1997.93 1163.22 2000.62 1163.22ZM2041.94 1168.25L2028.58 1124.37H2035.66L2045.14 1157.96H2045.6L2054.97 1124.37H2062.17L2071.42 1157.85H2071.88L2081.36 1124.37H2088.45L2075.08 1168.25H2068.45L2058.86 1134.54H2058.17L2048.57 1168.25H2041.94ZM2104.1 1141.85V1168.25H2097.36V1124.37H2103.87V1131.23H2104.44C2105.47 1129 2107.03 1127.21 2109.13 1125.86C2111.22 1124.49 2113.93 1123.8 2117.24 1123.8C2120.21 1123.8 2122.81 1124.41 2125.04 1125.63C2127.27 1126.83 2129 1128.66 2130.24 1131.11C2131.48 1133.55 2132.09 1136.63 2132.09 1140.37V1168.25H2125.35V1140.82C2125.35 1137.38 2124.46 1134.69 2122.67 1132.77C2120.88 1130.83 2118.42 1129.86 2115.3 1129.86C2113.15 1129.86 2111.22 1130.32 2109.53 1131.26C2107.85 1132.19 2106.53 1133.55 2105.56 1135.34C2104.59 1137.13 2104.1 1139.3 2104.1 1141.85ZM2185.43 1169.16C2181.2 1169.16 2177.56 1168.23 2174.49 1166.36C2171.44 1164.48 2169.09 1161.85 2167.44 1158.48C2165.8 1155.09 2164.98 1151.15 2164.98 1146.65C2164.98 1142.16 2165.8 1138.2 2167.44 1134.77C2169.09 1131.32 2171.4 1128.64 2174.35 1126.71C2177.32 1124.77 2180.78 1123.8 2184.75 1123.8C2187.03 1123.8 2189.29 1124.18 2191.52 1124.94C2193.74 1125.7 2195.77 1126.94 2197.6 1128.66C2199.43 1130.35 2200.88 1132.6 2201.97 1135.4C2203.06 1138.2 2203.6 1141.64 2203.6 1145.74V1148.59H2169.78V1142.77H2196.74C2196.74 1140.29 2196.25 1138.08 2195.26 1136.14C2194.29 1134.2 2192.9 1132.66 2191.09 1131.54C2189.3 1130.42 2187.18 1129.86 2184.75 1129.86C2182.06 1129.86 2179.74 1130.52 2177.78 1131.85C2175.83 1133.17 2174.34 1134.88 2173.29 1137C2172.24 1139.11 2171.72 1141.38 2171.72 1143.79V1147.68C2171.72 1150.99 2172.29 1153.8 2173.43 1156.11C2174.6 1158.39 2176.2 1160.13 2178.26 1161.33C2180.32 1162.51 2182.71 1163.1 2185.43 1163.1C2187.2 1163.1 2188.8 1162.86 2190.23 1162.36C2191.68 1161.85 2192.92 1161.09 2193.97 1160.08C2195.02 1159.05 2195.83 1157.77 2196.4 1156.25L2202.91 1158.08C2202.23 1160.29 2201.08 1162.23 2199.46 1163.9C2197.84 1165.56 2195.84 1166.86 2193.46 1167.79C2191.08 1168.7 2188.4 1169.16 2185.43 1169.16ZM2248.39 1124.37L2232.17 1168.25H2225.31L2209.09 1124.37H2216.4L2228.51 1159.33H2228.97L2241.08 1124.37H2248.39ZM2274.12 1169.16C2269.89 1169.16 2266.24 1168.23 2263.18 1166.36C2260.13 1164.48 2257.78 1161.85 2256.12 1158.48C2254.48 1155.09 2253.66 1151.15 2253.66 1146.65C2253.66 1142.16 2254.48 1138.2 2256.12 1134.77C2257.78 1131.32 2260.08 1128.64 2263.03 1126.71C2266 1124.77 2269.47 1123.8 2273.43 1123.8C2275.72 1123.8 2277.97 1124.18 2280.2 1124.94C2282.43 1125.7 2284.46 1126.94 2286.29 1128.66C2288.11 1130.35 2289.57 1132.6 2290.66 1135.4C2291.74 1138.2 2292.28 1141.64 2292.28 1145.74V1148.59H2258.46V1142.77H2285.43C2285.43 1140.29 2284.93 1138.08 2283.94 1136.14C2282.97 1134.2 2281.58 1132.66 2279.77 1131.54C2277.98 1130.42 2275.87 1129.86 2273.43 1129.86C2270.75 1129.86 2268.42 1130.52 2266.46 1131.85C2264.52 1133.17 2263.02 1134.88 2261.98 1137C2260.93 1139.11 2260.41 1141.38 2260.41 1143.79V1147.68C2260.41 1150.99 2260.98 1153.8 2262.12 1156.11C2263.28 1158.39 2264.89 1160.13 2266.95 1161.33C2269 1162.51 2271.39 1163.1 2274.12 1163.1C2275.89 1163.1 2277.49 1162.86 2278.92 1162.36C2280.36 1161.85 2281.61 1161.09 2282.66 1160.08C2283.7 1159.05 2284.51 1157.77 2285.09 1156.25L2291.6 1158.08C2290.91 1160.29 2289.76 1162.23 2288.14 1163.9C2286.52 1165.56 2284.52 1166.86 2282.14 1167.79C2279.76 1168.7 2277.09 1169.16 2274.12 1169.16ZM2302.54 1168.25V1124.37H2309.05V1131H2309.51C2310.31 1128.83 2311.76 1127.07 2313.85 1125.71C2315.94 1124.36 2318.31 1123.69 2320.93 1123.69C2321.43 1123.69 2322.05 1123.7 2322.79 1123.71C2323.53 1123.73 2324.1 1123.76 2324.48 1123.8V1130.66C2324.25 1130.6 2323.72 1130.51 2322.9 1130.4C2322.11 1130.26 2321.26 1130.2 2320.36 1130.2C2318.23 1130.2 2316.33 1130.65 2314.65 1131.54C2312.99 1132.42 2311.68 1133.64 2310.71 1135.2C2309.76 1136.74 2309.28 1138.5 2309.28 1140.48V1168.25H2302.54ZM2338.14 1184.7C2337 1184.7 2335.98 1184.6 2335.09 1184.41C2334.19 1184.24 2333.57 1184.07 2333.23 1183.9L2334.94 1177.96C2336.58 1178.38 2338.03 1178.53 2339.29 1178.42C2340.54 1178.3 2341.66 1177.74 2342.63 1176.73C2343.62 1175.74 2344.52 1174.13 2345.34 1171.9L2346.6 1168.47L2330.37 1124.37H2337.69L2349.8 1159.33H2350.26L2362.37 1124.37H2369.68L2351.06 1174.64C2350.22 1176.91 2349.18 1178.79 2347.94 1180.27C2346.7 1181.78 2345.27 1182.89 2343.63 1183.61C2342.01 1184.34 2340.18 1184.7 2338.14 1184.7ZM2432.28 1134.2L2426.22 1135.91C2425.84 1134.9 2425.28 1133.92 2424.54 1132.97C2423.81 1132 2422.82 1131.2 2421.57 1130.57C2420.31 1129.94 2418.7 1129.63 2416.74 1129.63C2414.05 1129.63 2411.82 1130.25 2410.03 1131.48C2408.26 1132.7 2407.37 1134.25 2407.37 1136.14C2407.37 1137.82 2407.98 1139.14 2409.2 1140.11C2410.42 1141.08 2412.32 1141.89 2414.91 1142.54L2421.42 1144.14C2425.35 1145.09 2428.27 1146.55 2430.19 1148.51C2432.12 1150.45 2433.08 1152.95 2433.08 1156.02C2433.08 1158.53 2432.35 1160.78 2430.91 1162.76C2429.48 1164.74 2427.48 1166.3 2424.91 1167.45C2422.34 1168.59 2419.35 1169.16 2415.94 1169.16C2411.46 1169.16 2407.76 1168.19 2404.83 1166.25C2401.9 1164.3 2400.04 1161.47 2399.26 1157.73L2405.66 1156.13C2406.27 1158.5 2407.42 1160.27 2409.11 1161.45C2410.83 1162.63 2413.06 1163.22 2415.83 1163.22C2418.97 1163.22 2421.46 1162.55 2423.31 1161.22C2425.18 1159.87 2426.11 1158.25 2426.11 1156.36C2426.11 1154.84 2425.58 1153.56 2424.51 1152.54C2423.44 1151.49 2421.8 1150.71 2419.6 1150.19L2412.28 1148.48C2408.27 1147.53 2405.31 1146.05 2403.43 1144.05C2401.56 1142.03 2400.63 1139.51 2400.63 1136.48C2400.63 1134.01 2401.32 1131.82 2402.71 1129.91C2404.12 1128.01 2406.04 1126.51 2408.46 1125.43C2410.89 1124.34 2413.65 1123.8 2416.74 1123.8C2421.08 1123.8 2424.49 1124.75 2426.97 1126.66C2429.46 1128.56 2431.23 1131.07 2432.28 1134.2ZM2461.62 1169.16C2457.39 1169.16 2453.75 1168.23 2450.68 1166.36C2447.63 1164.48 2445.28 1161.85 2443.63 1158.48C2441.99 1155.09 2441.17 1151.15 2441.17 1146.65C2441.17 1142.16 2441.99 1138.2 2443.63 1134.77C2445.28 1131.32 2447.59 1128.64 2450.54 1126.71C2453.51 1124.77 2456.97 1123.8 2460.94 1123.8C2463.22 1123.8 2465.48 1124.18 2467.71 1124.94C2469.93 1125.7 2471.96 1126.94 2473.79 1128.66C2475.62 1130.35 2477.07 1132.6 2478.16 1135.4C2479.25 1138.2 2479.79 1141.64 2479.79 1145.74V1148.59H2445.97V1142.77H2472.93C2472.93 1140.29 2472.44 1138.08 2471.45 1136.14C2470.48 1134.2 2469.09 1132.66 2467.28 1131.54C2465.49 1130.42 2463.37 1129.86 2460.94 1129.86C2458.25 1129.86 2455.93 1130.52 2453.97 1131.85C2452.02 1133.17 2450.53 1134.88 2449.48 1137C2448.43 1139.11 2447.91 1141.38 2447.91 1143.79V1147.68C2447.91 1150.99 2448.48 1153.8 2449.62 1156.11C2450.79 1158.39 2452.39 1160.13 2454.45 1161.33C2456.51 1162.51 2458.9 1163.1 2461.62 1163.1C2463.39 1163.1 2464.99 1162.86 2466.42 1162.36C2467.87 1161.85 2469.11 1161.09 2470.16 1160.08C2471.21 1159.05 2472.02 1157.77 2472.59 1156.25L2479.1 1158.08C2478.42 1160.29 2477.26 1162.23 2475.65 1163.9C2474.03 1165.56 2472.03 1166.86 2469.65 1167.79C2467.27 1168.7 2464.59 1169.16 2461.62 1169.16ZM2507.87 1169.16C2503.75 1169.16 2500.21 1168.19 2497.24 1166.25C2494.27 1164.3 2491.98 1161.63 2490.39 1158.22C2488.79 1154.81 2487.99 1150.92 2487.99 1146.54C2487.99 1142.08 2488.8 1138.15 2490.44 1134.74C2492.1 1131.31 2494.4 1128.64 2497.35 1126.71C2500.33 1124.77 2503.79 1123.8 2507.75 1123.8C2510.84 1123.8 2513.62 1124.37 2516.09 1125.51C2518.57 1126.66 2520.6 1128.26 2522.18 1130.31C2523.76 1132.37 2524.74 1134.77 2525.12 1137.51H2518.38C2517.86 1135.51 2516.72 1133.74 2514.95 1132.2C2513.2 1130.64 2510.84 1129.86 2507.87 1129.86C2505.24 1129.86 2502.93 1130.54 2500.95 1131.91C2498.99 1133.26 2497.46 1135.18 2496.36 1137.65C2495.27 1140.11 2494.73 1143 2494.73 1146.31C2494.73 1149.7 2495.26 1152.65 2496.33 1155.16C2497.41 1157.68 2498.94 1159.63 2500.9 1161.02C2502.88 1162.41 2505.2 1163.1 2507.87 1163.1C2509.62 1163.1 2511.21 1162.8 2512.64 1162.19C2514.07 1161.58 2515.27 1160.71 2516.26 1159.56C2517.25 1158.42 2517.96 1157.05 2518.38 1155.45H2525.12C2524.74 1158.04 2523.8 1160.37 2522.29 1162.45C2520.81 1164.5 2518.84 1166.14 2516.38 1167.36C2513.94 1168.56 2511.1 1169.16 2507.87 1169.16ZM2552.8 1169.16C2548.84 1169.16 2545.36 1168.22 2542.37 1166.33C2539.4 1164.45 2537.08 1161.81 2535.4 1158.42C2533.75 1155.03 2532.92 1151.07 2532.92 1146.54C2532.92 1141.97 2533.75 1137.98 2535.4 1134.57C2537.08 1131.16 2539.4 1128.51 2542.37 1126.63C2545.36 1124.74 2548.84 1123.8 2552.8 1123.8C2556.76 1123.8 2560.23 1124.74 2563.2 1126.63C2566.19 1128.51 2568.51 1131.16 2570.17 1134.57C2571.84 1137.98 2572.68 1141.97 2572.68 1146.54C2572.68 1151.07 2571.84 1155.03 2570.17 1158.42C2568.51 1161.81 2566.19 1164.45 2563.2 1166.33C2560.23 1168.22 2556.76 1169.16 2552.8 1169.16ZM2552.8 1163.1C2555.81 1163.1 2558.28 1162.33 2560.23 1160.79C2562.17 1159.25 2563.61 1157.22 2564.54 1154.71C2565.47 1152.19 2565.94 1149.47 2565.94 1146.54C2565.94 1143.6 2565.47 1140.87 2564.54 1138.34C2563.61 1135.81 2562.17 1133.76 2560.23 1132.2C2558.28 1130.64 2555.81 1129.86 2552.8 1129.86C2549.79 1129.86 2547.31 1130.64 2545.37 1132.2C2543.43 1133.76 2541.99 1135.81 2541.06 1138.34C2540.13 1140.87 2539.66 1143.6 2539.66 1146.54C2539.66 1149.47 2540.13 1152.19 2541.06 1154.71C2541.99 1157.22 2543.43 1159.25 2545.37 1160.79C2547.31 1162.33 2549.79 1163.1 2552.8 1163.1ZM2589.71 1141.85V1168.25H2582.97V1124.37H2589.48V1131.23H2590.05C2591.08 1129 2592.64 1127.21 2594.74 1125.86C2596.83 1124.49 2599.54 1123.8 2602.85 1123.8C2605.82 1123.8 2608.42 1124.41 2610.65 1125.63C2612.88 1126.83 2614.61 1128.66 2615.85 1131.11C2617.09 1133.55 2617.7 1136.63 2617.7 1140.37V1168.25H2610.96V1140.82C2610.96 1137.38 2610.07 1134.69 2608.28 1132.77C2606.49 1130.83 2604.03 1129.86 2600.91 1129.86C2598.76 1129.86 2596.83 1130.32 2595.14 1131.26C2593.46 1132.19 2592.14 1133.55 2591.17 1135.34C2590.2 1137.13 2589.71 1139.3 2589.71 1141.85ZM2646.59 1169.16C2642.93 1169.16 2639.71 1168.24 2636.91 1166.39C2634.11 1164.52 2631.92 1161.9 2630.34 1158.51C2628.76 1155.1 2627.97 1151.07 2627.97 1146.42C2627.97 1141.81 2628.76 1137.82 2630.34 1134.43C2631.92 1131.04 2634.12 1128.42 2636.94 1126.57C2639.75 1124.72 2643.01 1123.8 2646.7 1123.8C2649.56 1123.8 2651.82 1124.28 2653.47 1125.23C2655.15 1126.16 2656.43 1127.23 2657.3 1128.43C2658.2 1129.61 2658.89 1130.58 2659.39 1131.34H2659.96V1109.75H2666.7V1168.25H2660.19V1161.5H2659.39C2658.89 1162.3 2658.19 1163.31 2657.27 1164.53C2656.36 1165.73 2655.05 1166.81 2653.36 1167.76C2651.67 1168.69 2649.41 1169.16 2646.59 1169.16ZM2647.5 1163.1C2650.21 1163.1 2652.49 1162.4 2654.36 1160.99C2656.23 1159.56 2657.64 1157.59 2658.62 1155.08C2659.59 1152.55 2660.07 1149.62 2660.07 1146.31C2660.07 1143.03 2659.6 1140.17 2658.64 1137.71C2657.69 1135.24 2656.28 1133.31 2654.42 1131.94C2652.55 1130.55 2650.25 1129.86 2647.5 1129.86C2644.65 1129.86 2642.27 1130.59 2640.36 1132.05C2638.48 1133.5 2637.06 1135.47 2636.11 1137.97C2635.17 1140.44 2634.71 1143.22 2634.71 1146.31C2634.71 1149.43 2635.18 1152.27 2636.14 1154.82C2637.11 1157.35 2638.54 1159.37 2640.42 1160.88C2642.32 1162.36 2644.69 1163.1 2647.5 1163.1ZM2684.9 1168.7C2683.49 1168.7 2682.28 1168.2 2681.27 1167.19C2680.26 1166.18 2679.75 1164.97 2679.75 1163.56C2679.75 1162.15 2680.26 1160.94 2681.27 1159.93C2682.28 1158.92 2683.49 1158.42 2684.9 1158.42C2686.3 1158.42 2687.51 1158.92 2688.52 1159.93C2689.53 1160.94 2690.04 1162.15 2690.04 1163.56C2690.04 1164.49 2689.8 1165.35 2689.32 1166.13C2688.87 1166.91 2688.25 1167.54 2687.47 1168.02C2686.7 1168.47 2685.85 1168.7 2684.9 1168.7ZM835.254 1213.03V1206.75H879.129V1213.03H860.733V1265.25H853.649V1213.03H835.254ZM895.889 1238.85V1265.25H889.148V1206.75H895.889V1228.23H896.46C897.489 1225.96 899.031 1224.16 901.088 1222.83C903.163 1221.48 905.925 1220.8 909.371 1220.8C912.361 1220.8 914.979 1221.4 917.227 1222.6C919.474 1223.78 921.216 1225.6 922.454 1228.06C923.711 1230.49 924.339 1233.6 924.339 1237.37V1265.25H917.598V1237.82C917.598 1234.34 916.693 1231.64 914.884 1229.74C913.094 1227.82 910.609 1226.86 907.429 1226.86C905.22 1226.86 903.24 1227.32 901.488 1228.26C899.755 1229.19 898.384 1230.55 897.374 1232.34C896.384 1234.13 895.889 1236.3 895.889 1238.85ZM936.672 1265.25V1221.37H943.413V1265.25H936.672ZM940.1 1214.06C938.786 1214.06 937.653 1213.61 936.7 1212.72C935.767 1211.82 935.301 1210.75 935.301 1209.49C935.301 1208.23 935.767 1207.16 936.7 1206.26C937.653 1205.37 938.786 1204.92 940.1 1204.92C941.414 1204.92 942.537 1205.37 943.47 1206.26C944.422 1207.16 944.898 1208.23 944.898 1209.49C944.898 1210.75 944.422 1211.82 943.47 1212.72C942.537 1213.61 941.414 1214.06 940.1 1214.06ZM986.838 1231.2L980.782 1232.91C980.402 1231.9 979.84 1230.92 979.097 1229.97C978.374 1229 977.383 1228.2 976.126 1227.57C974.87 1226.94 973.261 1226.63 971.299 1226.63C968.614 1226.63 966.376 1227.25 964.586 1228.48C962.815 1229.7 961.93 1231.25 961.93 1233.14C961.93 1234.82 962.539 1236.14 963.758 1237.11C964.977 1238.08 966.881 1238.89 969.471 1239.54L975.984 1241.14C979.906 1242.09 982.83 1243.55 984.753 1245.51C986.676 1247.45 987.638 1249.95 987.638 1253.02C987.638 1255.53 986.914 1257.78 985.467 1259.76C984.039 1261.74 982.039 1263.3 979.469 1264.45C976.898 1265.59 973.908 1266.16 970.499 1266.16C966.024 1266.16 962.32 1265.19 959.388 1263.25C956.455 1261.3 954.598 1258.47 953.818 1254.73L960.216 1253.13C960.825 1255.5 961.978 1257.27 963.672 1258.45C965.386 1259.63 967.624 1260.22 970.385 1260.22C973.527 1260.22 976.022 1259.55 977.869 1258.22C979.735 1256.87 980.668 1255.25 980.668 1253.36C980.668 1251.84 980.135 1250.56 979.069 1249.54C978.002 1248.49 976.365 1247.71 974.156 1247.19L966.843 1245.48C962.825 1244.53 959.873 1243.05 957.988 1241.05C956.122 1239.03 955.189 1236.51 955.189 1233.48C955.189 1231.01 955.884 1228.82 957.274 1226.91C958.683 1225.01 960.597 1223.51 963.015 1222.43C965.453 1221.34 968.214 1220.8 971.299 1220.8C975.641 1220.8 979.05 1221.75 981.525 1223.66C984.02 1225.56 985.791 1228.07 986.838 1231.2ZM1038.12 1282.61C1034.86 1282.61 1032.06 1282.19 1029.72 1281.36C1027.38 1280.54 1025.43 1279.45 1023.86 1278.1C1022.32 1276.77 1021.09 1275.34 1020.18 1273.82L1025.55 1270.04C1026.16 1270.84 1026.93 1271.76 1027.86 1272.79C1028.8 1273.83 1030.07 1274.74 1031.69 1275.5C1033.33 1276.28 1035.47 1276.67 1038.12 1276.67C1041.66 1276.67 1044.58 1275.81 1046.89 1274.1C1049.19 1272.39 1050.34 1269.7 1050.34 1266.05V1257.13H1049.77C1049.28 1257.93 1048.57 1258.92 1047.66 1260.1C1046.76 1261.27 1045.47 1262.3 1043.77 1263.22C1042.1 1264.11 1039.83 1264.56 1036.98 1264.56C1033.43 1264.56 1030.25 1263.72 1027.44 1262.05C1024.64 1260.37 1022.42 1257.93 1020.78 1254.73C1019.16 1251.54 1018.35 1247.65 1018.35 1243.08C1018.35 1238.59 1019.14 1234.67 1020.72 1231.34C1022.3 1227.99 1024.5 1225.4 1027.32 1223.57C1030.14 1221.72 1033.4 1220.8 1037.09 1220.8C1039.95 1220.8 1042.21 1221.28 1043.89 1222.23C1045.58 1223.16 1046.88 1224.23 1047.77 1225.43C1048.69 1226.61 1049.39 1227.58 1049.89 1228.34H1050.57V1221.37H1057.09V1266.5C1057.09 1270.27 1056.23 1273.34 1054.51 1275.7C1052.82 1278.08 1050.53 1279.82 1047.66 1280.93C1044.8 1282.05 1041.62 1282.61 1038.12 1282.61ZM1037.89 1258.5C1040.59 1258.5 1042.88 1257.89 1044.75 1256.65C1046.61 1255.41 1048.03 1253.63 1049 1251.31C1049.97 1248.98 1050.46 1246.2 1050.46 1242.97C1050.46 1239.8 1049.98 1237.01 1049.03 1234.6C1048.08 1232.18 1046.67 1230.28 1044.8 1228.91C1042.94 1227.54 1040.63 1226.86 1037.89 1226.86C1035.03 1226.86 1032.65 1227.58 1030.75 1229.03C1028.86 1230.47 1027.44 1232.42 1026.49 1234.85C1025.56 1237.29 1025.09 1240 1025.09 1242.97C1025.09 1246.01 1025.57 1248.71 1026.52 1251.05C1027.49 1253.37 1028.92 1255.2 1030.81 1256.53C1032.71 1257.85 1035.07 1258.5 1037.89 1258.5ZM1087.25 1266.16C1083.29 1266.16 1079.81 1265.22 1076.82 1263.33C1073.85 1261.45 1071.53 1258.81 1069.85 1255.42C1068.2 1252.03 1067.37 1248.07 1067.37 1243.54C1067.37 1238.97 1068.2 1234.98 1069.85 1231.57C1071.53 1228.16 1073.85 1225.51 1076.82 1223.63C1079.81 1221.74 1083.29 1220.8 1087.25 1220.8C1091.21 1220.8 1094.68 1221.74 1097.65 1223.63C1100.64 1225.51 1102.96 1228.16 1104.62 1231.57C1106.29 1234.98 1107.13 1238.97 1107.13 1243.54C1107.13 1248.07 1106.29 1252.03 1104.62 1255.42C1102.96 1258.81 1100.64 1261.45 1097.65 1263.33C1094.68 1265.22 1091.21 1266.16 1087.25 1266.16ZM1087.25 1260.1C1090.26 1260.1 1092.73 1259.33 1094.68 1257.79C1096.62 1256.25 1098.06 1254.22 1098.99 1251.71C1099.92 1249.19 1100.39 1246.47 1100.39 1243.54C1100.39 1240.6 1099.92 1237.87 1098.99 1235.34C1098.06 1232.81 1096.62 1230.76 1094.68 1229.2C1092.73 1227.64 1090.26 1226.86 1087.25 1226.86C1084.24 1226.86 1081.76 1227.64 1079.82 1229.2C1077.88 1230.76 1076.44 1232.81 1075.51 1235.34C1074.58 1237.87 1074.11 1240.6 1074.11 1243.54C1074.11 1246.47 1074.58 1249.19 1075.51 1251.71C1076.44 1254.22 1077.88 1256.25 1079.82 1257.79C1081.76 1259.33 1084.24 1260.1 1087.25 1260.1ZM1135.82 1266.16C1131.59 1266.16 1127.94 1265.23 1124.88 1263.36C1121.83 1261.48 1119.48 1258.85 1117.82 1255.48C1116.18 1252.09 1115.36 1248.15 1115.36 1243.65C1115.36 1239.16 1116.18 1235.2 1117.82 1231.77C1119.48 1228.32 1121.78 1225.64 1124.73 1223.71C1127.7 1221.77 1131.17 1220.8 1135.13 1220.8C1137.42 1220.8 1139.67 1221.18 1141.9 1221.94C1144.13 1222.7 1146.16 1223.94 1147.98 1225.66C1149.81 1227.35 1151.27 1229.6 1152.35 1232.4C1153.44 1235.2 1153.98 1238.64 1153.98 1242.74V1245.59H1120.16V1239.77H1147.13C1147.13 1237.29 1146.63 1235.08 1145.64 1233.14C1144.67 1231.2 1143.28 1229.66 1141.47 1228.54C1139.68 1227.42 1137.57 1226.86 1135.13 1226.86C1132.45 1226.86 1130.12 1227.52 1128.16 1228.85C1126.22 1230.17 1124.72 1231.88 1123.68 1234C1122.63 1236.11 1122.11 1238.38 1122.11 1240.79V1244.68C1122.11 1247.99 1122.68 1250.8 1123.82 1253.11C1124.98 1255.39 1126.59 1257.13 1128.65 1258.33C1130.7 1259.51 1133.09 1260.1 1135.82 1260.1C1137.59 1260.1 1139.19 1259.86 1140.61 1259.36C1142.06 1258.85 1143.31 1258.09 1144.36 1257.08C1145.4 1256.05 1146.21 1254.77 1146.78 1253.25L1153.3 1255.08C1152.61 1257.29 1151.46 1259.23 1149.84 1260.9C1148.22 1262.56 1146.22 1263.86 1143.84 1264.79C1141.46 1265.7 1138.79 1266.16 1135.82 1266.16ZM1195.32 1231.2L1189.26 1232.91C1188.88 1231.9 1188.32 1230.92 1187.57 1229.97C1186.85 1229 1185.86 1228.2 1184.6 1227.57C1183.35 1226.94 1181.74 1226.63 1179.78 1226.63C1177.09 1226.63 1174.85 1227.25 1173.06 1228.48C1171.29 1229.7 1170.41 1231.25 1170.41 1233.14C1170.41 1234.82 1171.02 1236.14 1172.24 1237.11C1173.45 1238.08 1175.36 1238.89 1177.95 1239.54L1184.46 1241.14C1188.38 1242.09 1191.31 1243.55 1193.23 1245.51C1195.15 1247.45 1196.12 1249.95 1196.12 1253.02C1196.12 1255.53 1195.39 1257.78 1193.94 1259.76C1192.52 1261.74 1190.52 1263.3 1187.95 1264.45C1185.38 1265.59 1182.39 1266.16 1178.98 1266.16C1174.5 1266.16 1170.8 1265.19 1167.87 1263.25C1164.93 1261.3 1163.08 1258.47 1162.3 1254.73L1168.69 1253.13C1169.3 1255.5 1170.46 1257.27 1172.15 1258.45C1173.86 1259.63 1176.1 1260.22 1178.86 1260.22C1182 1260.22 1184.5 1259.55 1186.35 1258.22C1188.21 1256.87 1189.15 1255.25 1189.15 1253.36C1189.15 1251.84 1188.61 1250.56 1187.55 1249.54C1186.48 1248.49 1184.84 1247.71 1182.63 1247.19L1175.32 1245.48C1171.3 1244.53 1168.35 1243.05 1166.47 1241.05C1164.6 1239.03 1163.67 1236.51 1163.67 1233.48C1163.67 1231.01 1164.36 1228.82 1165.75 1226.91C1167.16 1225.01 1169.07 1223.51 1171.49 1222.43C1173.93 1221.34 1176.69 1220.8 1179.78 1220.8C1184.12 1220.8 1187.53 1221.75 1190 1223.66C1192.5 1225.56 1194.27 1228.07 1195.32 1231.2ZM1248.42 1221.37V1227.08H1224.77V1221.37H1248.42ZM1231.86 1265.25V1215.32C1231.86 1212.8 1232.45 1210.71 1233.63 1209.03C1234.81 1207.36 1236.34 1206.1 1238.23 1205.26C1240.11 1204.42 1242.1 1204 1244.2 1204C1245.85 1204 1247.21 1204.14 1248.25 1204.4C1249.3 1204.67 1250.08 1204.92 1250.6 1205.15L1248.65 1210.97C1248.31 1210.86 1247.83 1210.72 1247.22 1210.55C1246.63 1210.37 1245.85 1210.29 1244.88 1210.29C1242.65 1210.29 1241.05 1210.85 1240.05 1211.97C1239.08 1213.1 1238.6 1214.74 1238.6 1216.92V1265.25H1231.86ZM1257.87 1265.25V1221.37H1264.38V1228H1264.84C1265.64 1225.83 1267.09 1224.07 1269.18 1222.71C1271.28 1221.36 1273.64 1220.69 1276.27 1220.69C1276.76 1220.69 1277.38 1220.7 1278.12 1220.71C1278.87 1220.73 1279.43 1220.76 1279.81 1220.8V1227.66C1279.58 1227.6 1279.06 1227.51 1278.24 1227.4C1277.44 1227.26 1276.59 1227.2 1275.7 1227.2C1273.56 1227.2 1271.66 1227.65 1269.98 1228.54C1268.33 1229.42 1267.01 1230.64 1266.04 1232.2C1265.09 1233.74 1264.61 1235.5 1264.61 1237.48V1265.25H1257.87ZM1304.29 1266.16C1300.33 1266.16 1296.85 1265.22 1293.86 1263.33C1290.89 1261.45 1288.57 1258.81 1286.89 1255.42C1285.24 1252.03 1284.41 1248.07 1284.41 1243.54C1284.41 1238.97 1285.24 1234.98 1286.89 1231.57C1288.57 1228.16 1290.89 1225.51 1293.86 1223.63C1296.85 1221.74 1300.33 1220.8 1304.29 1220.8C1308.25 1220.8 1311.72 1221.74 1314.69 1223.63C1317.68 1225.51 1320 1228.16 1321.66 1231.57C1323.33 1234.98 1324.17 1238.97 1324.17 1243.54C1324.17 1248.07 1323.33 1252.03 1321.66 1255.42C1320 1258.81 1317.68 1261.45 1314.69 1263.33C1311.72 1265.22 1308.25 1266.16 1304.29 1266.16ZM1304.29 1260.1C1307.3 1260.1 1309.77 1259.33 1311.72 1257.79C1313.66 1256.25 1315.1 1254.22 1316.03 1251.71C1316.96 1249.19 1317.43 1246.47 1317.43 1243.54C1317.43 1240.6 1316.96 1237.87 1316.03 1235.34C1315.1 1232.81 1313.66 1230.76 1311.72 1229.2C1309.77 1227.64 1307.3 1226.86 1304.29 1226.86C1301.28 1226.86 1298.8 1227.64 1296.86 1229.2C1294.92 1230.76 1293.48 1232.81 1292.55 1235.34C1291.62 1237.87 1291.15 1240.6 1291.15 1243.54C1291.15 1246.47 1291.62 1249.19 1292.55 1251.71C1293.48 1254.22 1294.92 1256.25 1296.86 1257.79C1298.8 1259.33 1301.28 1260.1 1304.29 1260.1ZM1334.46 1265.25V1221.37H1340.97V1228.23H1341.54C1342.46 1225.88 1343.93 1224.07 1345.97 1222.77C1348.01 1221.46 1350.46 1220.8 1353.31 1220.8C1356.21 1220.8 1358.62 1221.46 1360.54 1222.77C1362.48 1224.07 1364 1225.88 1365.08 1228.23H1365.54C1366.66 1225.96 1368.35 1224.16 1370.59 1222.83C1372.84 1221.48 1375.54 1220.8 1378.68 1220.8C1382.6 1220.8 1385.81 1222.03 1388.3 1224.48C1390.8 1226.92 1392.05 1230.72 1392.05 1235.88V1265.25H1385.31V1235.88C1385.31 1232.64 1384.42 1230.33 1382.65 1228.94C1380.88 1227.55 1378.79 1226.86 1376.39 1226.86C1373.31 1226.86 1370.92 1227.79 1369.22 1229.65C1367.53 1231.5 1366.68 1233.84 1366.68 1236.68V1265.25H1359.83V1235.2C1359.83 1232.7 1359.02 1230.69 1357.4 1229.17C1355.78 1227.63 1353.69 1226.86 1351.14 1226.86C1349.39 1226.86 1347.75 1227.32 1346.23 1228.26C1344.72 1229.19 1343.51 1230.48 1342.57 1232.14C1341.66 1233.78 1341.2 1235.67 1341.2 1237.82V1265.25H1334.46ZM1445.96 1266.05C1441.66 1266.05 1437.99 1264.87 1434.96 1262.53C1431.94 1260.17 1429.62 1256.75 1428.02 1252.28C1426.42 1247.78 1425.62 1242.36 1425.62 1236C1425.62 1229.67 1426.42 1224.28 1428.02 1219.8C1429.64 1215.31 1431.97 1211.88 1434.99 1209.52C1438.04 1207.14 1441.7 1205.95 1445.96 1205.95C1450.23 1205.95 1453.87 1207.14 1456.9 1209.52C1459.95 1211.88 1462.27 1215.31 1463.87 1219.8C1465.49 1224.28 1466.3 1229.67 1466.3 1236C1466.3 1242.36 1465.5 1247.78 1463.9 1252.28C1462.3 1256.75 1459.99 1260.17 1456.96 1262.53C1453.93 1264.87 1450.27 1266.05 1445.96 1266.05ZM1445.96 1259.76C1450.23 1259.76 1453.54 1257.71 1455.9 1253.59C1458.26 1249.48 1459.44 1243.61 1459.44 1236C1459.44 1230.93 1458.9 1226.62 1457.82 1223.06C1456.75 1219.5 1455.21 1216.78 1453.19 1214.92C1451.19 1213.05 1448.78 1212.12 1445.96 1212.12C1441.73 1212.12 1438.43 1214.2 1436.05 1218.37C1433.67 1222.52 1432.48 1228.4 1432.48 1236C1432.48 1241.06 1433.01 1245.37 1434.08 1248.91C1435.15 1252.45 1436.68 1255.14 1438.68 1256.99C1440.7 1258.84 1443.12 1259.76 1445.96 1259.76ZM1512.8 1266.27C1510.02 1266.27 1507.5 1265.75 1505.23 1264.7C1502.97 1263.64 1501.17 1262.1 1499.83 1260.1C1498.5 1258.09 1497.83 1255.65 1497.83 1252.79C1497.83 1250.28 1498.33 1248.24 1499.32 1246.68C1500.31 1245.1 1501.63 1243.86 1503.29 1242.97C1504.95 1242.07 1506.78 1241.4 1508.78 1240.97C1510.79 1240.51 1512.82 1240.15 1514.86 1239.88C1517.53 1239.54 1519.69 1239.28 1521.34 1239.11C1523.02 1238.92 1524.24 1238.6 1525 1238.17C1525.78 1237.73 1526.17 1236.97 1526.17 1235.88V1235.65C1526.17 1232.83 1525.4 1230.65 1523.86 1229.08C1522.33 1227.52 1520.02 1226.74 1516.92 1226.74C1513.7 1226.74 1511.17 1227.45 1509.35 1228.85C1507.52 1230.26 1506.23 1231.77 1505.49 1233.37L1499.09 1231.08C1500.23 1228.42 1501.76 1226.34 1503.66 1224.86C1505.59 1223.35 1507.68 1222.3 1509.95 1221.71C1512.23 1221.1 1514.48 1220.8 1516.69 1220.8C1518.1 1220.8 1519.72 1220.97 1521.54 1221.31C1523.39 1221.64 1525.17 1222.31 1526.88 1223.34C1528.62 1224.37 1530.06 1225.92 1531.2 1228C1532.34 1230.07 1532.91 1232.85 1532.91 1236.34V1265.25H1526.17V1259.3H1525.83C1525.37 1260.26 1524.61 1261.28 1523.54 1262.36C1522.48 1263.45 1521.06 1264.37 1519.29 1265.13C1517.52 1265.89 1515.35 1266.27 1512.8 1266.27ZM1513.83 1260.22C1516.5 1260.22 1518.74 1259.7 1520.57 1258.65C1522.42 1257.6 1523.81 1256.25 1524.74 1254.59C1525.69 1252.93 1526.17 1251.19 1526.17 1249.36V1243.19C1525.89 1243.54 1525.26 1243.85 1524.29 1244.14C1523.33 1244.4 1522.23 1244.64 1520.97 1244.85C1519.73 1245.04 1518.53 1245.21 1517.34 1245.37C1516.18 1245.5 1515.24 1245.61 1514.52 1245.71C1512.76 1245.94 1511.13 1246.31 1509.6 1246.82C1508.1 1247.32 1506.88 1248.07 1505.95 1249.08C1505.03 1250.07 1504.58 1251.42 1504.58 1253.13C1504.58 1255.48 1505.44 1257.25 1507.18 1258.45C1508.93 1259.63 1511.15 1260.22 1513.83 1260.22ZM1551.96 1206.75V1265.25H1545.22V1206.75H1551.96ZM1571.05 1206.75V1265.25H1564.3V1206.75H1571.05ZM1625.1 1221.37V1227.08H1602.36V1221.37H1625.1ZM1608.99 1210.86H1615.73V1252.68C1615.73 1254.58 1616 1256.01 1616.56 1256.96C1617.13 1257.9 1617.85 1258.52 1618.73 1258.85C1619.62 1259.15 1620.56 1259.3 1621.55 1259.3C1622.3 1259.3 1622.91 1259.27 1623.38 1259.19C1623.86 1259.1 1624.24 1259.02 1624.53 1258.96L1625.9 1265.02C1625.44 1265.19 1624.8 1265.36 1623.98 1265.53C1623.16 1265.72 1622.13 1265.82 1620.87 1265.82C1618.96 1265.82 1617.1 1265.41 1615.27 1264.59C1613.46 1263.77 1611.96 1262.52 1610.76 1260.85C1609.58 1259.17 1608.99 1257.06 1608.99 1254.51V1210.86ZM1642.92 1238.85V1265.25H1636.18V1206.75H1642.92V1228.23H1643.49C1644.52 1225.96 1646.06 1224.16 1648.12 1222.83C1650.2 1221.48 1652.96 1220.8 1656.4 1220.8C1659.39 1220.8 1662.01 1221.4 1664.26 1222.6C1666.51 1223.78 1668.25 1225.6 1669.49 1228.06C1670.74 1230.49 1671.37 1233.6 1671.37 1237.37V1265.25H1664.63V1237.82C1664.63 1234.34 1663.73 1231.64 1661.92 1229.74C1660.13 1227.82 1657.64 1226.86 1654.46 1226.86C1652.25 1226.86 1650.27 1227.32 1648.52 1228.26C1646.79 1229.19 1645.42 1230.55 1644.41 1232.34C1643.42 1234.13 1642.92 1236.3 1642.92 1238.85ZM1702.1 1266.16C1697.87 1266.16 1694.22 1265.23 1691.16 1263.36C1688.11 1261.48 1685.76 1258.85 1684.1 1255.48C1682.47 1252.09 1681.65 1248.15 1681.65 1243.65C1681.65 1239.16 1682.47 1235.2 1684.1 1231.77C1685.76 1228.32 1688.06 1225.64 1691.02 1223.71C1693.99 1221.77 1697.45 1220.8 1701.41 1220.8C1703.7 1220.8 1705.96 1221.18 1708.18 1221.94C1710.41 1222.7 1712.44 1223.94 1714.27 1225.66C1716.1 1227.35 1717.55 1229.6 1718.64 1232.4C1719.72 1235.2 1720.27 1238.64 1720.27 1242.74V1245.59H1686.45V1239.77H1713.41C1713.41 1237.29 1712.92 1235.08 1711.93 1233.14C1710.95 1231.2 1709.56 1229.66 1707.76 1228.54C1705.96 1227.42 1703.85 1226.86 1701.41 1226.86C1698.73 1226.86 1696.41 1227.52 1694.44 1228.85C1692.5 1230.17 1691.01 1231.88 1689.96 1234C1688.91 1236.11 1688.39 1238.38 1688.39 1240.79V1244.68C1688.39 1247.99 1688.96 1250.8 1690.1 1253.11C1691.26 1255.39 1692.87 1257.13 1694.93 1258.33C1696.99 1259.51 1699.38 1260.1 1702.1 1260.1C1703.87 1260.1 1705.47 1259.86 1706.9 1259.36C1708.35 1258.85 1709.59 1258.09 1710.64 1257.08C1711.69 1256.05 1712.5 1254.77 1713.07 1253.25L1719.58 1255.08C1718.9 1257.29 1717.74 1259.23 1716.12 1260.9C1714.51 1262.56 1712.51 1263.86 1710.13 1264.79C1707.75 1265.7 1705.07 1266.16 1702.1 1266.16ZM1763.08 1265.25L1749.72 1221.37H1756.8L1766.28 1254.96H1766.74L1776.11 1221.37H1783.31L1792.56 1254.85H1793.02L1802.5 1221.37H1809.59L1796.22 1265.25H1789.59L1779.99 1231.54H1779.31L1769.71 1265.25H1763.08ZM1831.41 1266.27C1828.63 1266.27 1826.11 1265.75 1823.84 1264.7C1821.57 1263.64 1819.78 1262.1 1818.44 1260.1C1817.11 1258.09 1816.44 1255.65 1816.44 1252.79C1816.44 1250.28 1816.94 1248.24 1817.93 1246.68C1818.92 1245.1 1820.24 1243.86 1821.9 1242.97C1823.56 1242.07 1825.38 1241.4 1827.38 1240.97C1829.4 1240.51 1831.43 1240.15 1833.47 1239.88C1836.13 1239.54 1838.29 1239.28 1839.95 1239.11C1841.63 1238.92 1842.85 1238.6 1843.61 1238.17C1844.39 1237.73 1844.78 1236.97 1844.78 1235.88V1235.65C1844.78 1232.83 1844.01 1230.65 1842.46 1229.08C1840.94 1227.52 1838.63 1226.74 1835.52 1226.74C1832.31 1226.74 1829.78 1227.45 1827.95 1228.85C1826.13 1230.26 1824.84 1231.77 1824.1 1233.37L1817.7 1231.08C1818.84 1228.42 1820.37 1226.34 1822.27 1224.86C1824.19 1223.35 1826.29 1222.3 1828.55 1221.71C1830.84 1221.1 1833.09 1220.8 1835.3 1220.8C1836.7 1220.8 1838.32 1220.97 1840.15 1221.31C1842 1221.64 1843.78 1222.31 1845.49 1223.34C1847.23 1224.37 1848.66 1225.92 1849.81 1228C1850.95 1230.07 1851.52 1232.85 1851.52 1236.34V1265.25H1844.78V1259.3H1844.44C1843.98 1260.26 1843.22 1261.28 1842.15 1262.36C1841.08 1263.45 1839.67 1264.37 1837.89 1265.13C1836.12 1265.89 1833.96 1266.27 1831.41 1266.27ZM1832.44 1260.22C1835.1 1260.22 1837.35 1259.7 1839.18 1258.65C1841.03 1257.6 1842.42 1256.25 1843.35 1254.59C1844.3 1252.93 1844.78 1251.19 1844.78 1249.36V1243.19C1844.49 1243.54 1843.86 1243.85 1842.89 1244.14C1841.94 1244.4 1840.84 1244.64 1839.58 1244.85C1838.34 1245.04 1837.13 1245.21 1835.95 1245.37C1834.79 1245.5 1833.85 1245.61 1833.12 1245.71C1831.37 1245.94 1829.73 1246.31 1828.21 1246.82C1826.71 1247.32 1825.49 1248.07 1824.56 1249.08C1823.64 1250.07 1823.18 1251.42 1823.18 1253.13C1823.18 1255.48 1824.05 1257.25 1825.78 1258.45C1827.54 1259.63 1829.75 1260.22 1832.44 1260.22ZM1866.59 1281.7C1865.45 1281.7 1864.43 1281.6 1863.54 1281.41C1862.64 1281.24 1862.02 1281.07 1861.68 1280.9L1863.4 1274.96C1865.03 1275.38 1866.48 1275.53 1867.74 1275.42C1868.99 1275.3 1870.11 1274.74 1871.08 1273.73C1872.07 1272.74 1872.97 1271.13 1873.79 1268.9L1875.05 1265.47L1858.83 1221.37H1866.14L1878.25 1256.33H1878.71L1890.82 1221.37H1898.13L1879.51 1271.64C1878.67 1273.91 1877.63 1275.79 1876.39 1277.27C1875.15 1278.78 1873.72 1279.89 1872.08 1280.61C1870.46 1281.34 1868.63 1281.7 1866.59 1281.7ZM1948.73 1221.37V1227.08H1925.99V1221.37H1948.73ZM1932.62 1210.86H1939.36V1252.68C1939.36 1254.58 1939.64 1256.01 1940.19 1256.96C1940.76 1257.9 1941.49 1258.52 1942.36 1258.85C1943.26 1259.15 1944.2 1259.3 1945.19 1259.3C1945.93 1259.3 1946.54 1259.27 1947.02 1259.19C1947.49 1259.1 1947.88 1259.02 1948.16 1258.96L1949.53 1265.02C1949.07 1265.19 1948.44 1265.36 1947.62 1265.53C1946.8 1265.72 1945.76 1265.82 1944.5 1265.82C1942.6 1265.82 1940.73 1265.41 1938.91 1264.59C1937.1 1263.77 1935.59 1262.52 1934.39 1260.85C1933.21 1259.17 1932.62 1257.06 1932.62 1254.51V1210.86ZM1976.23 1266.16C1972.26 1266.16 1968.79 1265.22 1965.8 1263.33C1962.83 1261.45 1960.51 1258.81 1958.83 1255.42C1957.17 1252.03 1956.34 1248.07 1956.34 1243.54C1956.34 1238.97 1957.17 1234.98 1958.83 1231.57C1960.51 1228.16 1962.83 1225.51 1965.8 1223.63C1968.79 1221.74 1972.26 1220.8 1976.23 1220.8C1980.19 1220.8 1983.65 1221.74 1986.62 1223.63C1989.61 1225.51 1991.94 1228.16 1993.59 1231.57C1995.27 1234.98 1996.11 1238.97 1996.11 1243.54C1996.11 1248.07 1995.27 1252.03 1993.59 1255.42C1991.94 1258.81 1989.61 1261.45 1986.62 1263.33C1983.65 1265.22 1980.19 1266.16 1976.23 1266.16ZM1976.23 1260.1C1979.23 1260.1 1981.71 1259.33 1983.65 1257.79C1985.59 1256.25 1987.03 1254.22 1987.97 1251.71C1988.9 1249.19 1989.36 1246.47 1989.36 1243.54C1989.36 1240.6 1988.9 1237.87 1987.97 1235.34C1987.03 1232.81 1985.59 1230.76 1983.65 1229.2C1981.71 1227.64 1979.23 1226.86 1976.23 1226.86C1973.22 1226.86 1970.74 1227.64 1968.8 1229.2C1966.86 1230.76 1965.42 1232.81 1964.49 1235.34C1963.55 1237.87 1963.09 1240.6 1963.09 1243.54C1963.09 1246.47 1963.55 1249.19 1964.49 1251.71C1965.42 1254.22 1966.86 1256.25 1968.8 1257.79C1970.74 1259.33 1973.22 1260.1 1976.23 1260.1ZM2049.47 1206.75V1265.25H2042.39V1214.17H2042.04L2027.76 1223.66V1216.46L2042.39 1206.75H2049.47ZM2085.38 1266.05C2081.07 1266.05 2077.41 1264.87 2074.38 1262.53C2071.35 1260.17 2069.04 1256.75 2067.44 1252.28C2065.84 1247.78 2065.04 1242.36 2065.04 1236C2065.04 1229.67 2065.84 1224.28 2067.44 1219.8C2069.06 1215.31 2071.38 1211.88 2074.41 1209.52C2077.46 1207.14 2081.11 1205.95 2085.38 1205.95C2089.64 1205.95 2093.29 1207.14 2096.32 1209.52C2099.36 1211.88 2101.69 1215.31 2103.29 1219.8C2104.91 1224.28 2105.72 1229.67 2105.72 1236C2105.72 1242.36 2104.92 1247.78 2103.32 1252.28C2101.72 1256.75 2099.4 1260.17 2096.37 1262.53C2093.35 1264.87 2089.68 1266.05 2085.38 1266.05ZM2085.38 1259.76C2089.64 1259.76 2092.96 1257.71 2095.32 1253.59C2097.68 1249.48 2098.86 1243.61 2098.86 1236C2098.86 1230.93 2098.32 1226.62 2097.23 1223.06C2096.17 1219.5 2094.62 1216.78 2092.6 1214.92C2090.6 1213.05 2088.2 1212.12 2085.38 1212.12C2081.15 1212.12 2077.85 1214.2 2075.47 1218.37C2073.08 1222.52 2071.89 1228.4 2071.89 1236C2071.89 1241.06 2072.43 1245.37 2073.49 1248.91C2074.56 1252.45 2076.09 1255.14 2078.09 1256.99C2080.11 1258.84 2082.54 1259.76 2085.38 1259.76ZM2135.65 1266.05C2131.35 1266.05 2127.68 1264.87 2124.65 1262.53C2121.63 1260.17 2119.31 1256.75 2117.71 1252.28C2116.11 1247.78 2115.31 1242.36 2115.31 1236C2115.31 1229.67 2116.11 1224.28 2117.71 1219.8C2119.33 1215.31 2121.65 1211.88 2124.68 1209.52C2127.73 1207.14 2131.39 1205.95 2135.65 1205.95C2139.92 1205.95 2143.56 1207.14 2146.59 1209.52C2149.64 1211.88 2151.96 1215.31 2153.56 1219.8C2155.18 1224.28 2155.99 1229.67 2155.99 1236C2155.99 1242.36 2155.19 1247.78 2153.59 1252.28C2151.99 1256.75 2149.68 1260.17 2146.65 1262.53C2143.62 1264.87 2139.95 1266.05 2135.65 1266.05ZM2135.65 1259.76C2139.92 1259.76 2143.23 1257.71 2145.59 1253.59C2147.95 1249.48 2149.13 1243.61 2149.13 1236C2149.13 1230.93 2148.59 1226.62 2147.5 1223.06C2146.44 1219.5 2144.9 1216.78 2142.88 1214.92C2140.88 1213.05 2138.47 1212.12 2135.65 1212.12C2131.42 1212.12 2128.12 1214.2 2125.74 1218.37C2123.36 1222.52 2122.17 1228.4 2122.17 1236C2122.17 1241.06 2122.7 1245.37 2123.77 1248.91C2124.83 1252.45 2126.37 1255.14 2128.37 1256.99C2130.39 1258.84 2132.81 1259.76 2135.65 1259.76ZM2185.92 1266.05C2181.62 1266.05 2177.95 1264.87 2174.93 1262.53C2171.9 1260.17 2169.59 1256.75 2167.99 1252.28C2166.39 1247.78 2165.59 1242.36 2165.59 1236C2165.59 1229.67 2166.39 1224.28 2167.99 1219.8C2169.6 1215.31 2171.93 1211.88 2174.96 1209.52C2178 1207.14 2181.66 1205.95 2185.92 1205.95C2190.19 1205.95 2193.84 1207.14 2196.86 1209.52C2199.91 1211.88 2202.23 1215.31 2203.83 1219.8C2205.45 1224.28 2206.26 1229.67 2206.26 1236C2206.26 1242.36 2205.46 1247.78 2203.86 1252.28C2202.26 1256.75 2199.95 1260.17 2196.92 1262.53C2193.89 1264.87 2190.23 1266.05 2185.92 1266.05ZM2185.92 1259.76C2190.19 1259.76 2193.5 1257.71 2195.86 1253.59C2198.23 1249.48 2199.41 1243.61 2199.41 1236C2199.41 1230.93 2198.86 1226.62 2197.78 1223.06C2196.71 1219.5 2195.17 1216.78 2193.15 1214.92C2191.15 1213.05 2188.74 1212.12 2185.92 1212.12C2181.7 1212.12 2178.39 1214.2 2176.01 1218.37C2173.63 1222.52 2172.44 1228.4 2172.44 1236C2172.44 1241.06 2172.97 1245.37 2174.04 1248.91C2175.11 1252.45 2176.64 1255.14 2178.64 1256.99C2180.66 1258.84 2183.09 1259.76 2185.92 1259.76ZM2220.1 1265.7C2218.69 1265.7 2217.48 1265.2 2216.47 1264.19C2215.46 1263.18 2214.96 1261.97 2214.96 1260.56C2214.96 1259.15 2215.46 1257.94 2216.47 1256.93C2217.48 1255.92 2218.69 1255.42 2220.1 1255.42C2221.51 1255.42 2222.72 1255.92 2223.73 1256.93C2224.74 1257.94 2225.24 1259.15 2225.24 1260.56C2225.24 1261.49 2225 1262.35 2224.53 1263.13C2224.07 1263.91 2223.45 1264.54 2222.67 1265.02C2221.91 1265.47 2221.05 1265.7 2220.1 1265.7Z" fill="white"/>
<rect x="239.58" y="404.517" width="2594.11" height="112.613" fill="#565656" stroke="#565656" stroke-width="28.1531" stroke-linejoin="round"/>
<rect x="239.58" y="653.873" width="2594.11" height="112.613" fill="#565656" stroke="#565656" stroke-width="28.1531" stroke-linejoin="round"/>
<path d="M284.917 445.494C284.643 443.178 283.531 441.38 281.581 440.101C279.631 438.821 277.239 438.181 274.405 438.181C272.334 438.181 270.521 438.516 268.967 439.187C267.428 439.857 266.225 440.779 265.356 441.952C264.503 443.125 264.077 444.458 264.077 445.951C264.077 447.2 264.374 448.274 264.968 449.173C265.577 450.056 266.354 450.795 267.299 451.389C268.243 451.968 269.233 452.448 270.269 452.829C271.305 453.195 272.257 453.492 273.126 453.72L277.879 455C279.098 455.32 280.454 455.762 281.946 456.325C283.455 456.889 284.894 457.658 286.265 458.633C287.652 459.593 288.794 460.827 289.693 462.335C290.592 463.844 291.041 465.695 291.041 467.888C291.041 470.417 290.379 472.702 289.053 474.744C287.743 476.785 285.824 478.408 283.295 479.611C280.781 480.815 277.727 481.416 274.131 481.416C270.78 481.416 267.878 480.876 265.425 479.794C262.987 478.712 261.068 477.204 259.666 475.269C258.28 473.335 257.495 471.087 257.313 468.528H263.163C263.315 470.295 263.909 471.758 264.945 472.916C265.996 474.058 267.321 474.911 268.921 475.475C270.536 476.023 272.273 476.298 274.131 476.298C276.295 476.298 278.237 475.947 279.958 475.246C281.68 474.53 283.043 473.54 284.049 472.276C285.054 470.996 285.557 469.503 285.557 467.797C285.557 466.243 285.123 464.979 284.254 464.004C283.386 463.029 282.244 462.236 280.827 461.627C279.41 461.018 277.879 460.484 276.234 460.027L270.475 458.382C266.819 457.331 263.924 455.83 261.791 453.88C259.659 451.93 258.592 449.379 258.592 446.225C258.592 443.605 259.301 441.32 260.717 439.37C262.149 437.404 264.069 435.881 266.476 434.799C268.898 433.702 271.602 433.154 274.588 433.154C277.605 433.154 280.286 433.695 282.632 434.776C284.978 435.843 286.837 437.305 288.208 439.164C289.594 441.022 290.325 443.132 290.402 445.494H284.917ZM299.628 493.756V445.494H304.838V451.07H305.478C305.874 450.46 306.422 449.683 307.123 448.739C307.839 447.779 308.86 446.926 310.185 446.179C311.526 445.418 313.339 445.037 315.624 445.037C318.579 445.037 321.185 445.776 323.439 447.253C325.694 448.731 327.453 450.826 328.718 453.537C329.982 456.249 330.615 459.448 330.615 463.135C330.615 466.852 329.982 470.074 328.718 472.801C327.453 475.513 325.702 477.615 323.462 479.108C321.223 480.586 318.64 481.325 315.715 481.325C313.461 481.325 311.655 480.952 310.3 480.205C308.944 479.444 307.9 478.583 307.169 477.623C306.438 476.648 305.874 475.841 305.478 475.201H305.021V493.756H299.628ZM304.929 463.044C304.929 465.695 305.318 468.033 306.095 470.059C306.872 472.07 308.007 473.647 309.5 474.789C310.993 475.917 312.821 476.48 314.984 476.48C317.239 476.48 319.12 475.886 320.628 474.698C322.152 473.495 323.294 471.88 324.056 469.854C324.833 467.812 325.222 465.542 325.222 463.044C325.222 460.576 324.841 458.352 324.079 456.371C323.333 454.375 322.198 452.799 320.674 451.641C319.166 450.468 317.269 449.881 314.984 449.881C312.79 449.881 310.947 450.437 309.454 451.549C307.961 452.646 306.834 454.185 306.072 456.165C305.31 458.131 304.929 460.423 304.929 463.044ZM349.17 481.416C346.946 481.416 344.927 480.997 343.114 480.16C341.302 479.306 339.862 478.08 338.795 476.48C337.729 474.866 337.196 472.916 337.196 470.63C337.196 468.62 337.592 466.989 338.384 465.74C339.176 464.476 340.235 463.486 341.561 462.77C342.886 462.054 344.348 461.52 345.948 461.17C347.563 460.804 349.185 460.515 350.815 460.302C352.948 460.027 354.677 459.822 356.003 459.685C357.343 459.532 358.318 459.281 358.928 458.93C359.552 458.58 359.865 457.971 359.865 457.102V456.92C359.865 454.665 359.248 452.913 358.014 451.664C356.795 450.414 354.944 449.79 352.461 449.79C349.886 449.79 347.868 450.354 346.405 451.481C344.943 452.608 343.914 453.812 343.32 455.091L338.201 453.263C339.115 451.13 340.334 449.47 341.858 448.282C343.396 447.078 345.072 446.24 346.885 445.768C348.713 445.28 350.511 445.037 352.278 445.037C353.405 445.037 354.7 445.174 356.163 445.448C357.64 445.707 359.065 446.248 360.436 447.071C361.822 447.893 362.972 449.135 363.886 450.795C364.801 452.456 365.258 454.68 365.258 457.468V480.594H359.865V475.841H359.59C359.225 476.602 358.615 477.417 357.762 478.286C356.909 479.154 355.774 479.893 354.357 480.502C352.941 481.112 351.211 481.416 349.17 481.416ZM349.993 476.572C352.126 476.572 353.923 476.153 355.386 475.315C356.863 474.477 357.976 473.396 358.722 472.07C359.484 470.745 359.865 469.351 359.865 467.888V462.952C359.636 463.227 359.133 463.478 358.356 463.706C357.595 463.92 356.711 464.11 355.706 464.278C354.715 464.43 353.748 464.567 352.803 464.689C351.874 464.796 351.12 464.887 350.541 464.963C349.14 465.146 347.829 465.443 346.611 465.854C345.407 466.251 344.432 466.852 343.686 467.66C342.954 468.452 342.589 469.534 342.589 470.905C342.589 472.779 343.282 474.195 344.668 475.155C346.07 476.1 347.845 476.572 349.993 476.572ZM383.053 480.594L372.359 445.494H378.026L385.613 472.367H385.978L393.474 445.494H399.232L406.636 472.276H407.002L414.588 445.494H420.256L409.561 480.594H404.259L396.581 453.629H396.033L388.355 480.594H383.053ZM432.778 459.479V480.594H427.385V445.494H432.595V450.978H433.052C433.875 449.196 435.124 447.764 436.8 446.682C438.476 445.585 440.639 445.037 443.29 445.037C445.667 445.037 447.746 445.524 449.528 446.499C451.311 447.459 452.697 448.921 453.687 450.887C454.678 452.837 455.173 455.305 455.173 458.291V480.594H449.78V458.656C449.78 455.899 449.064 453.751 447.632 452.212C446.2 450.658 444.234 449.881 441.736 449.881C440.015 449.881 438.476 450.254 437.12 451.001C435.779 451.747 434.721 452.837 433.944 454.269C433.167 455.701 432.778 457.437 432.778 459.479ZM483.857 480.594V433.794H499.67C503.327 433.794 506.328 434.418 508.674 435.668C511.02 436.902 512.757 438.6 513.884 440.763C515.011 442.927 515.575 445.387 515.575 448.145C515.575 450.902 515.011 453.347 513.884 455.48C512.757 457.613 511.028 459.288 508.697 460.507C506.366 461.711 503.388 462.312 499.762 462.312H486.965V457.194H499.579C502.078 457.194 504.088 456.828 505.612 456.097C507.151 455.366 508.263 454.33 508.948 452.989C509.649 451.633 509.999 450.018 509.999 448.145C509.999 446.271 509.649 444.633 508.948 443.231C508.247 441.83 507.128 440.748 505.589 439.987C504.05 439.21 502.017 438.821 499.488 438.821H489.524V480.594H483.857ZM505.886 459.57L517.403 480.594H510.822L499.488 459.57H505.886ZM534.616 481.416C532.392 481.416 530.373 480.997 528.561 480.16C526.748 479.306 525.308 478.08 524.242 476.48C523.175 474.866 522.642 472.916 522.642 470.63C522.642 468.62 523.038 466.989 523.83 465.74C524.622 464.476 525.681 463.486 527.007 462.77C528.332 462.054 529.795 461.52 531.394 461.17C533.009 460.804 534.631 460.515 536.262 460.302C538.394 460.027 540.123 459.822 541.449 459.685C542.789 459.532 543.764 459.281 544.374 458.93C544.998 458.58 545.311 457.971 545.311 457.102V456.92C545.311 454.665 544.694 452.913 543.46 451.664C542.241 450.414 540.39 449.79 537.907 449.79C535.332 449.79 533.314 450.354 531.851 451.481C530.389 452.608 529.36 453.812 528.766 455.091L523.647 453.263C524.562 451.13 525.78 449.47 527.304 448.282C528.842 447.078 530.518 446.24 532.331 445.768C534.159 445.28 535.957 445.037 537.724 445.037C538.851 445.037 540.146 445.174 541.609 445.448C543.087 445.707 544.511 446.248 545.882 447.071C547.268 447.893 548.419 449.135 549.333 450.795C550.247 452.456 550.704 454.68 550.704 457.468V480.594H545.311V475.841H545.037C544.671 476.602 544.062 477.417 543.208 478.286C542.355 479.154 541.22 479.893 539.804 480.502C538.387 481.112 536.658 481.416 534.616 481.416ZM535.439 476.572C537.572 476.572 539.369 476.153 540.832 475.315C542.31 474.477 543.422 473.396 544.168 472.07C544.93 470.745 545.311 469.351 545.311 467.888V462.952C545.082 463.227 544.58 463.478 543.803 463.706C543.041 463.92 542.157 464.11 541.152 464.278C540.162 464.43 539.194 464.567 538.25 464.689C537.32 464.796 536.566 464.887 535.987 464.963C534.586 465.146 533.276 465.443 532.057 465.854C530.853 466.251 529.878 466.852 529.132 467.66C528.401 468.452 528.035 469.534 528.035 470.905C528.035 472.779 528.728 474.195 530.114 475.155C531.516 476.1 533.291 476.572 535.439 476.572ZM575.812 445.494V450.064H557.622V445.494H575.812ZM562.924 437.084H568.317V470.539C568.317 472.062 568.537 473.205 568.979 473.967C569.436 474.713 570.015 475.216 570.716 475.475C571.432 475.719 572.186 475.841 572.978 475.841C573.572 475.841 574.06 475.81 574.441 475.749C574.822 475.673 575.126 475.612 575.355 475.566L576.452 480.411C576.086 480.548 575.576 480.685 574.921 480.822C574.266 480.975 573.435 481.051 572.43 481.051C570.906 481.051 569.413 480.723 567.951 480.068C566.504 479.413 565.3 478.415 564.34 477.075C563.396 475.734 562.924 474.043 562.924 472.002V437.084ZM598.264 481.325C594.882 481.325 591.964 480.579 589.511 479.086C587.074 477.577 585.192 475.475 583.867 472.779C582.557 470.067 581.902 466.913 581.902 463.318C581.902 459.723 582.557 456.554 583.867 453.812C585.192 451.054 587.036 448.906 589.397 447.368C591.774 445.814 594.546 445.037 597.715 445.037C599.543 445.037 601.349 445.341 603.131 445.951C604.913 446.56 606.536 447.55 607.998 448.921C609.461 450.277 610.626 452.075 611.495 454.314C612.363 456.554 612.797 459.311 612.797 462.587V464.872H585.741V460.21H607.313C607.313 458.23 606.917 456.462 606.124 454.909C605.348 453.355 604.235 452.128 602.788 451.229C601.356 450.331 599.665 449.881 597.715 449.881C595.567 449.881 593.708 450.414 592.139 451.481C590.585 452.532 589.39 453.903 588.552 455.594C587.714 457.285 587.295 459.098 587.295 461.033V464.141C587.295 466.791 587.752 469.038 588.666 470.882C589.595 472.71 590.882 474.104 592.528 475.064C594.173 476.008 596.085 476.48 598.264 476.48C599.68 476.48 600.96 476.282 602.103 475.886C603.26 475.475 604.258 474.866 605.096 474.058C605.934 473.236 606.582 472.215 607.039 470.996L612.249 472.459C611.7 474.226 610.779 475.78 609.484 477.12C608.189 478.446 606.589 479.482 604.685 480.228C602.781 480.959 600.64 481.325 598.264 481.325Z" fill="white"/>
<path d="M2801.11 481.234C2797.67 481.234 2794.74 480.297 2792.31 478.423C2789.89 476.534 2788.04 473.799 2786.76 470.219C2785.48 466.624 2784.84 462.282 2784.84 457.194C2784.84 452.136 2785.48 447.817 2786.76 444.237C2788.06 440.642 2789.92 437.899 2792.34 436.01C2794.77 434.106 2797.7 433.154 2801.11 433.154C2804.52 433.154 2807.44 434.106 2809.86 436.01C2812.3 437.899 2814.16 440.642 2815.44 444.237C2816.74 447.817 2817.38 452.136 2817.38 457.194C2817.38 462.282 2816.74 466.624 2815.46 470.219C2814.18 473.799 2812.33 476.534 2809.91 478.423C2807.49 480.297 2804.56 481.234 2801.11 481.234ZM2801.11 476.206C2804.52 476.206 2807.18 474.561 2809.06 471.27C2810.95 467.98 2811.9 463.287 2811.9 457.194C2811.9 453.141 2811.46 449.691 2810.6 446.842C2809.74 443.993 2808.51 441.822 2806.89 440.329C2805.29 438.836 2803.37 438.09 2801.11 438.09C2797.73 438.09 2795.09 439.758 2793.18 443.094C2791.28 446.415 2790.33 451.115 2790.33 457.194C2790.33 461.246 2790.75 464.689 2791.61 467.523C2792.46 470.356 2793.69 472.512 2795.29 473.99C2796.9 475.467 2798.84 476.206 2801.11 476.206Z" fill="white"/>
<path d="M836.426 460.823H2407.37" stroke="white" stroke-width="8.04375" stroke-linecap="round"/>
<rect x="827.98" y="418.594" width="33.7837" height="76.0134" rx="16.8919" fill="#010003"/>
<path d="M284.917 694.849C284.643 692.534 283.531 690.736 281.581 689.456C279.631 688.177 277.239 687.537 274.405 687.537C272.334 687.537 270.521 687.872 268.967 688.542C267.428 689.212 266.225 690.134 265.356 691.307C264.503 692.48 264.077 693.813 264.077 695.306C264.077 696.555 264.374 697.629 264.968 698.528C265.577 699.412 266.354 700.151 267.299 700.745C268.243 701.324 269.233 701.804 270.269 702.185C271.305 702.55 272.257 702.847 273.126 703.076L277.879 704.355C279.098 704.675 280.454 705.117 281.946 705.681C283.455 706.245 284.894 707.014 286.265 707.989C287.652 708.949 288.794 710.183 289.693 711.691C290.592 713.199 291.041 715.05 291.041 717.244C291.041 719.773 290.379 722.058 289.053 724.099C287.743 726.141 285.824 727.763 283.295 728.967C280.781 730.17 277.727 730.772 274.131 730.772C270.78 730.772 267.878 730.231 265.425 729.149C262.987 728.068 261.068 726.56 259.666 724.625C258.28 722.69 257.495 720.443 257.313 717.884H263.163C263.315 719.651 263.909 721.113 264.945 722.271C265.996 723.414 267.321 724.267 268.921 724.83C270.536 725.379 272.273 725.653 274.131 725.653C276.295 725.653 278.237 725.303 279.958 724.602C281.68 723.886 283.043 722.896 284.049 721.631C285.054 720.352 285.557 718.859 285.557 717.152C285.557 715.598 285.123 714.334 284.254 713.359C283.386 712.384 282.244 711.592 280.827 710.982C279.41 710.373 277.879 709.84 276.234 709.383L270.475 707.737C266.819 706.686 263.924 705.186 261.791 703.236C259.659 701.286 258.592 698.734 258.592 695.58C258.592 692.96 259.301 690.675 260.717 688.725C262.149 686.76 264.069 685.236 266.476 684.155C268.898 683.058 271.602 682.509 274.588 682.509C277.605 682.509 280.286 683.05 282.632 684.132C284.978 685.198 286.837 686.661 288.208 688.519C289.594 690.378 290.325 692.488 290.402 694.849H284.917ZM299.628 743.112V694.849H304.838V700.425H305.478C305.874 699.816 306.422 699.039 307.123 698.094C307.839 697.134 308.86 696.281 310.185 695.535C311.526 694.773 313.339 694.392 315.624 694.392C318.579 694.392 321.185 695.131 323.439 696.609C325.694 698.087 327.453 700.181 328.718 702.893C329.982 705.605 330.615 708.804 330.615 712.491C330.615 716.208 329.982 719.43 328.718 722.157C327.453 724.869 325.702 726.971 323.462 728.464C321.223 729.942 318.64 730.68 315.715 730.68C313.461 730.68 311.655 730.307 310.3 729.561C308.944 728.799 307.9 727.938 307.169 726.979C306.438 726.004 305.874 725.196 305.478 724.556H305.021V743.112H299.628ZM304.929 712.399C304.929 715.05 305.318 717.388 306.095 719.415C306.872 721.426 308.007 723.002 309.5 724.145C310.993 725.272 312.821 725.836 314.984 725.836C317.239 725.836 319.12 725.242 320.628 724.054C322.152 722.85 323.294 721.235 324.056 719.209C324.833 717.168 325.222 714.898 325.222 712.399C325.222 709.931 324.841 707.707 324.079 705.727C323.333 703.731 322.198 702.154 320.674 700.996C319.166 699.823 317.269 699.237 314.984 699.237C312.79 699.237 310.947 699.793 309.454 700.905C307.961 702.002 306.834 703.54 306.072 705.521C305.31 707.486 304.929 709.779 304.929 712.399ZM349.17 730.772C346.946 730.772 344.927 730.353 343.114 729.515C341.302 728.662 339.862 727.436 338.795 725.836C337.729 724.221 337.196 722.271 337.196 719.986C337.196 717.975 337.592 716.345 338.384 715.096C339.176 713.831 340.235 712.841 341.561 712.125C342.886 711.409 344.348 710.876 345.948 710.525C347.563 710.16 349.185 709.87 350.815 709.657C352.948 709.383 354.677 709.177 356.003 709.04C357.343 708.888 358.318 708.636 358.928 708.286C359.552 707.936 359.865 707.326 359.865 706.458V706.275C359.865 704.02 359.248 702.268 358.014 701.019C356.795 699.77 354.944 699.145 352.461 699.145C349.886 699.145 347.868 699.709 346.405 700.836C344.943 701.964 343.914 703.167 343.32 704.447L338.201 702.619C339.115 700.486 340.334 698.825 341.858 697.637C343.396 696.434 345.072 695.596 346.885 695.123C348.713 694.636 350.511 694.392 352.278 694.392C353.405 694.392 354.7 694.529 356.163 694.804C357.64 695.062 359.065 695.603 360.436 696.426C361.822 697.249 362.972 698.49 363.886 700.151C364.801 701.811 365.258 704.036 365.258 706.823V729.949H359.865V725.196H359.59C359.225 725.958 358.615 726.773 357.762 727.641C356.909 728.51 355.774 729.248 354.357 729.858C352.941 730.467 351.211 730.772 349.17 730.772ZM349.993 725.927C352.126 725.927 353.923 725.508 355.386 724.671C356.863 723.833 357.976 722.751 358.722 721.426C359.484 720.1 359.865 718.706 359.865 717.244V712.308C359.636 712.582 359.133 712.833 358.356 713.062C357.595 713.275 356.711 713.466 355.706 713.633C354.715 713.786 353.748 713.923 352.803 714.045C351.874 714.151 351.12 714.243 350.541 714.319C349.14 714.502 347.829 714.799 346.611 715.21C345.407 715.606 344.432 716.208 343.686 717.015C342.954 717.807 342.589 718.889 342.589 720.26C342.589 722.134 343.282 723.551 344.668 724.511C346.07 725.455 347.845 725.927 349.993 725.927ZM383.053 729.949L372.359 694.849H378.026L385.613 721.723H385.978L393.474 694.849H399.232L406.636 721.631H407.002L414.588 694.849H420.256L409.561 729.949H404.259L396.581 702.984H396.033L388.355 729.949H383.053ZM432.778 708.834V729.949H427.385V694.849H432.595V700.334H433.052C433.875 698.551 435.124 697.119 436.8 696.037C438.476 694.941 440.639 694.392 443.29 694.392C445.667 694.392 447.746 694.88 449.528 695.855C451.311 696.814 452.697 698.277 453.687 700.242C454.678 702.192 455.173 704.66 455.173 707.646V729.949H449.78V708.012C449.78 705.254 449.064 703.106 447.632 701.568C446.2 700.014 444.234 699.237 441.736 699.237C440.015 699.237 438.476 699.61 437.12 700.356C435.779 701.103 434.721 702.192 433.944 703.624C433.167 705.056 432.778 706.793 432.778 708.834ZM483.857 729.949V683.149H499.67C503.327 683.149 506.328 683.774 508.674 685.023C511.02 686.257 512.757 687.956 513.884 690.119C515.011 692.282 515.575 694.743 515.575 697.5C515.575 700.257 515.011 702.703 513.884 704.835C512.757 706.968 511.028 708.644 508.697 709.863C506.366 711.066 503.388 711.668 499.762 711.668H486.965V706.549H499.579C502.078 706.549 504.088 706.184 505.612 705.452C507.151 704.721 508.263 703.685 508.948 702.345C509.649 700.989 509.999 699.374 509.999 697.5C509.999 695.626 509.649 693.988 508.948 692.587C508.247 691.185 507.128 690.104 505.589 689.342C504.05 688.565 502.017 688.177 499.488 688.177H489.524V729.949H483.857ZM505.886 708.926L517.403 729.949H510.822L499.488 708.926H505.886ZM534.616 730.772C532.392 730.772 530.373 730.353 528.561 729.515C526.748 728.662 525.308 727.436 524.242 725.836C523.175 724.221 522.642 722.271 522.642 719.986C522.642 717.975 523.038 716.345 523.83 715.096C524.622 713.831 525.681 712.841 527.007 712.125C528.332 711.409 529.795 710.876 531.394 710.525C533.009 710.16 534.631 709.87 536.262 709.657C538.394 709.383 540.123 709.177 541.449 709.04C542.789 708.888 543.764 708.636 544.374 708.286C544.998 707.936 545.311 707.326 545.311 706.458V706.275C545.311 704.02 544.694 702.268 543.46 701.019C542.241 699.77 540.39 699.145 537.907 699.145C535.332 699.145 533.314 699.709 531.851 700.836C530.389 701.964 529.36 703.167 528.766 704.447L523.647 702.619C524.562 700.486 525.78 698.825 527.304 697.637C528.842 696.434 530.518 695.596 532.331 695.123C534.159 694.636 535.957 694.392 537.724 694.392C538.851 694.392 540.146 694.529 541.609 694.804C543.087 695.062 544.511 695.603 545.882 696.426C547.268 697.249 548.419 698.49 549.333 700.151C550.247 701.811 550.704 704.036 550.704 706.823V729.949H545.311V725.196H545.037C544.671 725.958 544.062 726.773 543.208 727.641C542.355 728.51 541.22 729.248 539.804 729.858C538.387 730.467 536.658 730.772 534.616 730.772ZM535.439 725.927C537.572 725.927 539.369 725.508 540.832 724.671C542.31 723.833 543.422 722.751 544.168 721.426C544.93 720.1 545.311 718.706 545.311 717.244V712.308C545.082 712.582 544.58 712.833 543.803 713.062C543.041 713.275 542.157 713.466 541.152 713.633C540.162 713.786 539.194 713.923 538.25 714.045C537.32 714.151 536.566 714.243 535.987 714.319C534.586 714.502 533.276 714.799 532.057 715.21C530.853 715.606 529.878 716.208 529.132 717.015C528.401 717.807 528.035 718.889 528.035 720.26C528.035 722.134 528.728 723.551 530.114 724.511C531.516 725.455 533.291 725.927 535.439 725.927ZM575.812 694.849V699.42H557.622V694.849H575.812ZM562.924 686.44H568.317V719.895C568.317 721.418 568.537 722.561 568.979 723.322C569.436 724.069 570.015 724.571 570.716 724.83C571.432 725.074 572.186 725.196 572.978 725.196C573.572 725.196 574.06 725.166 574.441 725.105C574.822 725.029 575.126 724.968 575.355 724.922L576.452 729.766C576.086 729.904 575.576 730.041 574.921 730.178C574.266 730.33 573.435 730.406 572.43 730.406C570.906 730.406 569.413 730.079 567.951 729.424C566.504 728.769 565.3 727.771 564.34 726.43C563.396 725.089 562.924 723.398 562.924 721.357V686.44ZM598.264 730.68C594.882 730.68 591.964 729.934 589.511 728.441C587.074 726.933 585.192 724.83 583.867 722.134C582.557 719.422 581.902 716.269 581.902 712.673C581.902 709.078 582.557 705.909 583.867 703.167C585.192 700.41 587.036 698.262 589.397 696.723C591.774 695.169 594.546 694.392 597.715 694.392C599.543 694.392 601.349 694.697 603.131 695.306C604.913 695.916 606.536 696.906 607.998 698.277C609.461 699.633 610.626 701.43 611.495 703.67C612.363 705.909 612.797 708.667 612.797 711.942V714.227H585.741V709.566H607.313C607.313 707.585 606.917 705.818 606.124 704.264C605.348 702.71 604.235 701.484 602.788 700.585C601.356 699.686 599.665 699.237 597.715 699.237C595.567 699.237 593.708 699.77 592.139 700.836C590.585 701.887 589.39 703.259 588.552 704.95C587.714 706.641 587.295 708.454 587.295 710.388V713.496C587.295 716.147 587.752 718.394 588.666 720.237C589.595 722.065 590.882 723.459 592.528 724.419C594.173 725.364 596.085 725.836 598.264 725.836C599.68 725.836 600.96 725.638 602.103 725.242C603.26 724.83 604.258 724.221 605.096 723.414C605.934 722.591 606.582 721.57 607.039 720.352L612.249 721.814C611.7 723.581 610.779 725.135 609.484 726.476C608.189 727.801 606.589 728.837 604.685 729.584C602.781 730.315 600.64 730.68 598.264 730.68Z" fill="white"/>
<path d="M2688.11 683.149V729.949H2682.44V689.091H2682.17L2670.74 696.677V690.919L2682.44 683.149H2688.11ZM2716.83 730.589C2713.39 730.589 2710.46 729.652 2708.03 727.778C2705.61 725.889 2703.76 723.155 2702.48 719.575C2701.2 715.979 2700.56 711.637 2700.56 706.549C2700.56 701.491 2701.2 697.172 2702.48 693.592C2703.78 689.997 2705.63 687.255 2708.06 685.366C2710.49 683.462 2713.42 682.509 2716.83 682.509C2720.24 682.509 2723.16 683.462 2725.58 685.366C2728.02 687.255 2729.88 689.997 2731.16 693.592C2732.45 697.172 2733.1 701.491 2733.1 706.549C2733.1 711.637 2732.46 715.979 2731.18 719.575C2729.9 723.155 2728.05 725.889 2725.63 727.778C2723.21 729.652 2720.27 730.589 2716.83 730.589ZM2716.83 725.562C2720.24 725.562 2722.9 723.916 2724.78 720.626C2726.67 717.335 2727.62 712.643 2727.62 706.549C2727.62 702.497 2727.18 699.046 2726.32 696.197C2725.46 693.349 2724.23 691.178 2722.61 689.685C2721.01 688.192 2719.09 687.445 2716.83 687.445C2713.45 687.445 2710.81 689.113 2708.9 692.45C2707 695.771 2706.05 700.471 2706.05 706.549C2706.05 710.602 2706.47 714.045 2707.33 716.878C2708.18 719.712 2709.41 721.867 2711 723.345C2712.62 724.823 2714.56 725.562 2716.83 725.562ZM2757.05 730.589C2753.61 730.589 2750.68 729.652 2748.25 727.778C2745.83 725.889 2743.98 723.155 2742.7 719.575C2741.42 715.979 2740.78 711.637 2740.78 706.549C2740.78 701.491 2741.42 697.172 2742.7 693.592C2743.99 689.997 2745.85 687.255 2748.28 685.366C2750.71 683.462 2753.64 682.509 2757.05 682.509C2760.46 682.509 2763.38 683.462 2765.8 685.366C2768.24 687.255 2770.1 689.997 2771.38 693.592C2772.67 697.172 2773.32 701.491 2773.32 706.549C2773.32 711.637 2772.68 715.979 2771.4 719.575C2770.12 723.155 2768.27 725.889 2765.85 727.778C2763.43 729.652 2760.49 730.589 2757.05 730.589ZM2757.05 725.562C2760.46 725.562 2763.11 723.916 2765 720.626C2766.89 717.335 2767.84 712.643 2767.84 706.549C2767.84 702.497 2767.4 699.046 2766.53 696.197C2765.68 693.349 2764.45 691.178 2762.83 689.685C2761.23 688.192 2759.31 687.445 2757.05 687.445C2753.67 687.445 2751.03 689.113 2749.12 692.45C2747.22 695.771 2746.26 700.471 2746.26 706.549C2746.26 710.602 2746.69 714.045 2747.54 716.878C2748.4 719.712 2749.62 721.867 2751.22 723.345C2752.84 724.823 2754.78 725.562 2757.05 725.562ZM2797.27 730.589C2793.83 730.589 2790.89 729.652 2788.47 727.778C2786.05 725.889 2784.2 723.155 2782.92 719.575C2781.64 715.979 2781 711.637 2781 706.549C2781 701.491 2781.64 697.172 2782.92 693.592C2784.21 689.997 2786.07 687.255 2788.49 685.366C2790.93 683.462 2793.86 682.509 2797.27 682.509C2800.68 682.509 2803.6 683.462 2806.02 685.366C2808.46 687.255 2810.32 689.997 2811.6 693.592C2812.89 697.172 2813.54 701.491 2813.54 706.549C2813.54 711.637 2812.9 715.979 2811.62 719.575C2810.34 723.155 2808.49 725.889 2806.07 727.778C2803.65 729.652 2800.71 730.589 2797.27 730.589ZM2797.27 725.562C2800.68 725.562 2803.33 723.916 2805.22 720.626C2807.11 717.335 2808.06 712.643 2808.06 706.549C2808.06 702.497 2807.62 699.046 2806.75 696.197C2805.9 693.349 2804.67 691.178 2803.05 689.685C2801.45 688.192 2799.52 687.445 2797.27 687.445C2793.89 687.445 2791.24 689.113 2789.34 692.45C2787.44 695.771 2786.48 700.471 2786.48 706.549C2786.48 710.602 2786.91 714.045 2787.76 716.878C2788.62 719.712 2789.84 721.867 2791.44 723.345C2793.06 724.823 2795 725.562 2797.27 725.562Z" fill="white"/>
<path d="M836.426 710.179H2407.37" stroke="white" stroke-width="8.04375" stroke-linecap="round"/>
<rect x="2381.23" y="671.971" width="33.7837" height="76.0134" rx="16.8919" fill="#010003"/>
</svg>
