<svg width="2885" height="1490" viewBox="0 0 2885 1490" fill="none" xmlns="http://www.w3.org/2000/svg">
<rect width="2884.14" height="1489.32" rx="113.4" fill="url(#paint0_linear_376_953)"/>
<path d="M1046.86 775.18V423.296H1259.23V461.096H1089.47V579.994H1248.23V617.794H1089.47V737.38H1261.98V775.18H1046.86ZM1371.08 616.42V775.18H1330.53V511.267H1369.71V552.503H1373.14C1379.33 539.102 1388.72 528.334 1401.32 520.202C1413.92 511.954 1430.19 507.831 1450.12 507.831C1467.99 507.831 1483.62 511.496 1497.02 518.827C1510.42 526.043 1520.85 537.04 1528.29 551.816C1535.74 566.478 1539.46 585.034 1539.46 607.485V775.18H1498.91V610.234C1498.91 589.502 1493.53 573.351 1482.76 561.782C1471.99 550.098 1457.22 544.256 1438.43 544.256C1425.49 544.256 1413.92 547.062 1403.73 552.675C1393.65 558.288 1385.68 566.478 1379.84 577.245C1374 588.012 1371.08 601.071 1371.08 616.42ZM1713.21 780.678C1691.22 780.678 1671.8 775.122 1654.97 764.012C1638.13 752.786 1624.96 736.979 1615.45 716.59C1605.94 696.086 1601.19 671.86 1601.19 643.911C1601.19 616.191 1605.94 592.136 1615.45 571.747C1624.96 551.358 1638.19 535.608 1655.14 524.497C1672.09 513.386 1691.68 507.831 1713.9 507.831C1731.08 507.831 1744.66 510.694 1754.62 516.422C1764.7 522.034 1772.38 528.449 1777.64 535.665C1783.03 542.767 1787.21 548.609 1790.19 553.191H1793.62V423.296H1834.17V775.18H1795V734.631H1790.19C1787.21 739.442 1782.97 745.512 1777.47 752.843C1771.97 760.06 1764.13 766.532 1753.93 772.259C1743.74 777.872 1730.17 780.678 1713.21 780.678ZM1718.71 744.252C1734.98 744.252 1748.72 740.014 1759.95 731.538C1771.17 722.947 1779.71 711.092 1785.55 695.972C1791.39 680.737 1794.31 663.154 1794.31 643.223C1794.31 623.522 1791.45 606.282 1785.72 591.506C1779.99 576.615 1771.52 565.046 1760.29 556.799C1749.07 548.437 1735.21 544.256 1718.71 544.256C1701.53 544.256 1687.21 548.666 1675.76 557.486C1664.42 566.192 1655.88 578.047 1650.16 593.052C1644.54 607.943 1641.74 624.667 1641.74 643.223C1641.74 662.009 1644.6 679.076 1650.33 694.425C1656.17 709.66 1664.76 721.802 1676.1 730.851C1687.55 739.785 1701.76 744.252 1718.71 744.252Z" fill="white"/>
<defs>
<linearGradient id="paint0_linear_376_953" x1="1442.07" y1="0" x2="1442.07" y2="1489.32" gradientUnits="userSpaceOnUse">
<stop stop-color="#171717" stop-opacity="0"/>
<stop offset="0.9999" stop-color="#FF0000"/>
</linearGradient>
</defs>
</svg>
