<svg width="2164" height="1117" viewBox="0 0 2164 1117" fill="none" xmlns="http://www.w3.org/2000/svg">
<rect width="2163.1" height="1116.99" rx="85.05" fill="#171717"/>
<path d="M77.3478 638.057C76.9388 657.199 92.1246 673.047 111.266 673.456C130.408 673.865 146.256 658.68 146.665 639.538C147.074 620.397 131.889 604.548 112.747 604.139C93.6055 603.73 77.7568 618.916 77.3478 638.057ZM1996.35 201.057C1995.94 220.199 2011.12 236.047 2030.27 236.456C2049.41 236.865 2065.26 221.68 2065.66 202.538C2066.07 183.397 2050.89 167.548 2031.75 167.139C2012.61 166.73 1996.76 181.916 1996.35 201.057ZM1129.5 561.298L1131.77 567.387L1132.98 566.936L1133.92 566.06L1129.5 561.298ZM110.719 645.169C309.395 685.306 464.935 703.218 620.795 692.348C776.67 681.477 932.48 641.847 1131.77 567.387L1127.22 555.209C928.589 629.423 774.071 668.627 619.89 679.38C465.695 690.133 311.452 672.459 113.294 632.426L110.719 645.169ZM1133.92 566.06C1293.52 417.826 1422.44 326.203 1558.88 272.692C1695.27 219.2 1839.74 203.574 2030.85 208.296L2031.17 195.3C1839.22 190.558 1692.8 206.205 1554.13 260.59C1415.51 314.957 1285.2 407.816 1125.07 556.535L1133.92 566.06Z" fill="#85AD6C"/>
<path d="M80.7531 131.649C75.5887 150.085 86.3475 169.217 104.784 174.382C123.22 179.546 142.352 168.787 147.516 150.351C152.681 131.915 141.922 112.783 123.486 107.618C105.05 102.454 85.9175 113.213 80.7531 131.649ZM1997.75 668.649C1992.59 687.085 2003.35 706.217 2021.78 711.382C2040.22 716.546 2059.35 705.787 2064.52 687.351C2069.68 668.915 2058.92 649.783 2040.49 644.618C2022.05 639.454 2002.92 650.213 1997.75 668.649ZM110.767 146.56C810.952 570.629 1250.43 609.053 2030.51 684.47L2031.76 671.53C1251.94 596.138 815.008 557.887 117.502 135.44L110.767 146.56Z" fill="#BD8181"/>
<path fill-rule="evenodd" clip-rule="evenodd" d="M77.2159 417.527C72.5364 436.092 83.7929 454.936 102.358 459.615C112.593 462.195 122.913 459.931 130.897 454.27C136.35 459.509 141.773 464.723 147.169 469.911L147.22 469.96C354.35 669.103 521.441 829.751 775.286 918.144C1040.67 1010.55 1400.11 1023.82 1998.54 922.182C2002.41 932.456 2011.08 940.729 2022.53 943.615C2041.09 948.295 2059.93 937.038 2064.61 918.473C2069.29 899.908 2058.04 881.064 2039.47 876.385C2020.91 871.705 2002.06 882.962 1997.38 901.527C1996.72 904.15 1996.38 906.778 1996.33 909.372C1398.63 1010.88 1041.83 997.193 779.561 905.867C528.49 818.44 363.355 659.695 155.709 460.085C150.47 455.048 145.203 449.985 139.906 444.896C141.932 441.779 143.487 438.279 144.446 434.473C149.126 415.908 137.869 397.064 119.304 392.385C100.739 387.705 81.8955 398.962 77.2159 417.527Z" fill="#BABA78"/>
<path d="M77.2911 935.752C82.1247 954.278 101.061 965.377 119.587 960.544C138.112 955.71 149.212 936.774 144.378 918.248C139.545 899.722 120.608 888.623 102.083 893.456C83.557 898.29 72.4574 917.226 77.2911 935.752ZM1997.46 434.752C2002.29 453.278 2021.23 464.377 2039.75 459.544C2058.28 454.71 2069.38 435.774 2064.55 417.248C2059.71 398.722 2040.78 387.623 2022.25 392.456C2003.72 397.29 1992.63 416.226 1997.46 434.752ZM116.093 930.821C319.256 651.219 518.252 476.158 805.467 395.98C1093.13 315.677 1470.12 330.295 2029.84 432.394L2032.17 419.605C1472.1 317.442 1092.63 302.317 801.972 383.458C510.865 464.723 309.672 642.294 105.576 923.179L116.093 930.821Z" fill="#5364A9"/>
<mask id="path-6-outside-1_650_1550" maskUnits="userSpaceOnUse" x="107.82" y="297.637" width="1942" height="372" fill="black">
<rect fill="white" x="107.82" y="297.637" width="1942" height="372"/>
<path d="M341.483 399.197H309.525C307.635 390.004 304.328 381.929 299.603 374.97C294.964 368.012 289.294 362.17 282.593 357.445C275.978 352.634 268.632 349.026 260.557 346.62C252.481 344.215 244.062 343.012 235.3 343.012C219.321 343.012 204.845 347.05 191.873 355.125C178.986 363.201 168.72 375.099 161.074 390.821C153.514 406.542 149.734 425.829 149.734 448.68C149.734 471.532 153.514 490.819 161.074 506.54C168.72 522.261 178.986 534.16 191.873 542.235C204.845 550.311 219.321 554.349 235.3 554.349C244.062 554.349 252.481 553.146 260.557 550.74C268.632 548.335 275.978 544.77 282.593 540.045C289.294 535.234 294.964 529.349 299.603 522.39C304.328 515.346 307.635 507.27 309.525 498.164H341.483C339.078 511.652 334.696 523.722 328.339 534.375C321.982 545.027 314.078 554.091 304.628 561.565C295.178 568.953 284.569 574.58 272.799 578.446C261.115 582.312 248.616 584.245 235.3 584.245C212.791 584.245 192.775 578.747 175.249 567.75C157.724 556.754 143.935 541.119 133.884 520.844C123.833 500.569 118.807 476.515 118.807 448.68C118.807 420.846 123.833 396.791 133.884 376.517C143.935 356.242 157.724 340.607 175.249 329.61C192.775 318.614 212.791 313.116 235.3 313.116C248.616 313.116 261.115 315.049 272.799 318.915C284.569 322.781 295.178 328.451 304.628 335.925C314.078 343.313 321.982 352.333 328.339 362.986C334.696 373.553 339.078 385.623 341.483 399.197ZM469.413 584.76C451.544 584.76 435.865 580.508 422.377 572.003C408.976 563.498 398.495 551.599 390.935 536.308C383.461 521.016 379.724 503.147 379.724 482.7C379.724 462.082 383.461 444.084 390.935 428.706C398.495 413.329 408.976 401.387 422.377 392.882C435.865 384.377 451.544 380.125 469.413 380.125C487.282 380.125 502.917 384.377 516.319 392.882C529.807 401.387 540.288 413.329 547.762 428.706C555.322 444.084 559.102 462.082 559.102 482.7C559.102 503.147 555.322 521.016 547.762 536.308C540.288 551.599 529.807 563.498 516.319 572.003C502.917 580.508 487.282 584.76 469.413 584.76ZM469.413 557.441C482.986 557.441 494.154 553.962 502.917 547.003C511.68 540.045 518.166 530.895 522.376 519.555C526.585 508.215 528.69 495.93 528.69 482.7C528.69 469.47 526.585 457.142 522.376 445.716C518.166 434.291 511.68 425.055 502.917 418.011C494.154 410.966 482.986 407.444 469.413 407.444C455.839 407.444 444.671 410.966 435.908 418.011C427.145 425.055 420.659 434.291 416.45 445.716C412.24 457.142 410.135 469.47 410.135 482.7C410.135 495.93 412.24 508.215 416.45 519.555C420.659 530.895 427.145 540.045 435.908 547.003C444.671 553.962 455.839 557.441 469.413 557.441ZM635.937 461.567V580.637H605.525V382.702H634.906V413.629H637.483C642.122 403.578 649.167 395.503 658.617 389.403C668.067 383.218 680.266 380.125 695.214 380.125C708.616 380.125 720.342 382.874 730.394 388.372C740.445 393.784 748.263 402.032 753.847 413.114C759.431 424.11 762.223 438.028 762.223 454.866V580.637H731.811V456.928C731.811 441.378 727.773 429.265 719.698 420.588C711.623 411.825 700.54 407.444 686.451 407.444C676.743 407.444 668.067 409.549 660.421 413.758C652.861 417.968 646.89 424.11 642.509 432.186C638.127 440.261 635.937 450.055 635.937 461.567ZM848.207 461.567V580.637H817.795V382.702H847.176V413.629H849.754C854.393 403.578 861.437 395.503 870.887 389.403C880.337 383.218 892.536 380.125 907.485 380.125C920.886 380.125 932.613 382.874 942.664 388.372C952.716 393.784 960.533 402.032 966.118 413.114C971.702 424.11 974.494 438.028 974.494 454.866V580.637H944.082V456.928C944.082 441.378 940.044 429.265 931.969 420.588C923.893 411.825 912.811 407.444 898.722 407.444C889.014 407.444 880.337 409.549 872.691 413.758C865.131 417.968 859.161 424.11 854.779 432.186C850.398 440.261 848.207 450.055 848.207 461.567ZM1113.05 584.76C1093.98 584.76 1077.53 580.551 1063.7 572.132C1049.95 563.627 1039.34 551.771 1031.87 536.565C1024.48 521.274 1020.79 503.49 1020.79 483.216C1020.79 462.941 1024.48 445.072 1031.87 429.609C1039.34 414.059 1049.74 401.946 1063.06 393.269C1076.46 384.506 1092.09 380.125 1109.96 380.125C1120.27 380.125 1130.45 381.843 1140.5 385.279C1150.55 388.716 1159.7 394.3 1167.95 402.032C1176.2 409.678 1182.77 419.815 1187.67 432.444C1192.56 445.072 1195.01 460.622 1195.01 479.092V491.979H1042.44V465.69H1164.08C1164.08 454.522 1161.85 444.557 1157.38 435.794C1153 427.031 1146.73 420.116 1138.57 415.047C1130.49 409.978 1120.96 407.444 1109.96 407.444C1097.85 407.444 1087.37 410.451 1078.52 416.464C1069.76 422.392 1063.01 430.124 1058.29 439.66C1053.56 449.196 1051.2 459.419 1051.2 470.329V487.855C1051.2 502.803 1053.78 515.475 1058.93 525.87C1064.17 536.179 1071.43 544.039 1080.71 549.452C1089.99 554.778 1100.77 557.441 1113.05 557.441C1121.04 557.441 1128.26 556.324 1134.7 554.091C1141.23 551.771 1146.86 548.335 1151.58 543.782C1156.31 539.143 1159.96 533.387 1162.54 526.514L1191.92 534.761C1188.83 544.727 1183.63 553.489 1176.33 561.049C1169.02 568.524 1160 574.365 1149.26 578.575C1138.53 582.699 1126.46 584.76 1113.05 584.76ZM1321.68 584.76C1303.13 584.76 1287.15 580.379 1273.75 571.616C1260.35 562.854 1250.04 550.783 1242.82 535.406C1235.6 520.028 1232 502.459 1232 482.7C1232 462.598 1235.69 444.857 1243.08 429.48C1250.55 414.016 1260.95 401.946 1274.26 393.269C1287.66 384.506 1303.3 380.125 1321.17 380.125C1335.09 380.125 1347.63 382.702 1358.8 387.857C1369.97 393.011 1379.11 400.228 1386.25 409.506C1393.38 418.784 1397.8 429.609 1399.52 441.979H1369.11C1366.79 432.959 1361.63 424.969 1353.64 418.011C1345.74 410.966 1335.09 407.444 1321.68 407.444C1309.83 407.444 1299.43 410.537 1290.5 416.722C1281.65 422.822 1274.74 431.456 1269.75 442.624C1264.86 453.706 1262.41 466.721 1262.41 481.669C1262.41 496.961 1264.81 510.277 1269.62 521.617C1274.52 532.957 1281.39 541.763 1290.24 548.034C1299.18 554.306 1309.66 557.441 1321.68 557.441C1329.59 557.441 1336.76 556.067 1343.2 553.318C1349.65 550.569 1355.1 546.617 1359.57 541.462C1364.04 536.308 1367.22 530.122 1369.11 522.906H1399.52C1397.8 534.589 1393.55 545.113 1386.76 554.477C1380.06 563.756 1371.17 571.144 1360.09 576.642C1349.09 582.054 1336.29 584.76 1321.68 584.76ZM1530.06 382.702V408.475H1427.48V382.702H1530.06ZM1457.38 335.28H1487.79V523.937C1487.79 532.528 1489.04 538.971 1491.53 543.266C1494.1 547.476 1497.37 550.311 1501.32 551.771C1505.36 553.146 1509.61 553.833 1514.08 553.833C1517.43 553.833 1520.18 553.661 1522.33 553.318C1524.47 552.888 1526.19 552.544 1527.48 552.287L1533.67 579.606C1531.6 580.379 1528.73 581.152 1525.03 581.925C1521.34 582.784 1516.66 583.214 1510.99 583.214C1502.39 583.214 1493.98 581.367 1485.73 577.673C1477.57 573.979 1470.78 568.352 1465.37 560.792C1460.04 553.232 1457.38 543.696 1457.38 532.184V335.28ZM1575.8 580.637V382.702H1606.22V580.637H1575.8ZM1591.27 349.713C1585.34 349.713 1580.23 347.694 1575.93 343.657C1571.72 339.619 1569.62 334.765 1569.62 329.095C1569.62 323.425 1571.72 318.571 1575.93 314.533C1580.23 310.496 1585.34 308.477 1591.27 308.477C1597.19 308.477 1602.26 310.496 1606.47 314.533C1610.77 318.571 1612.92 323.425 1612.92 329.095C1612.92 334.765 1610.77 339.619 1606.47 343.657C1602.26 347.694 1597.19 349.713 1591.27 349.713ZM1692.33 461.567V580.637H1661.92V382.702H1691.3V413.629H1693.87C1698.51 403.578 1705.56 395.503 1715.01 389.403C1724.46 383.218 1736.66 380.125 1751.61 380.125C1765.01 380.125 1776.73 382.874 1786.79 388.372C1796.84 393.784 1804.65 402.032 1810.24 413.114C1815.82 424.11 1818.61 438.028 1818.61 454.866V580.637H1788.2V456.928C1788.2 441.378 1784.17 429.265 1776.09 420.588C1768.01 411.825 1756.93 407.444 1742.84 407.444C1733.14 407.444 1724.46 409.549 1716.81 413.758C1709.25 417.968 1703.28 424.11 1698.9 432.186C1694.52 440.261 1692.33 450.055 1692.33 461.567ZM1954.08 658.986C1939.39 658.986 1926.76 657.096 1916.2 653.316C1905.63 649.622 1896.82 644.725 1889.78 638.625C1882.82 632.612 1877.28 626.169 1873.16 619.296L1897.38 602.286C1900.13 605.894 1903.61 610.018 1907.82 614.657C1912.03 619.382 1917.79 623.462 1925.09 626.899C1932.48 630.421 1942.14 632.182 1954.08 632.182C1970.06 632.182 1983.25 628.316 1993.64 620.584C2004.04 612.853 2009.24 600.739 2009.24 584.245V544.039H2006.66C2004.43 547.648 2001.25 552.115 1997.12 557.441C1993.09 562.682 1987.24 567.364 1979.6 571.487C1972.04 575.525 1961.81 577.544 1948.93 577.544C1932.95 577.544 1918.6 573.764 1905.89 566.204C1893.26 558.644 1883.25 547.648 1875.86 533.215C1868.56 518.782 1864.91 501.257 1864.91 480.639C1864.91 460.364 1868.47 442.71 1875.6 427.676C1882.74 412.556 1892.66 400.872 1905.37 392.625C1918.09 384.292 1932.78 380.125 1949.44 380.125C1962.33 380.125 1972.55 382.273 1980.11 386.568C1987.76 390.778 1993.6 395.589 1997.64 401.001C2001.76 406.327 2004.94 410.709 2007.17 414.145H2010.27V382.702H2039.65V586.307C2039.65 603.317 2035.78 617.148 2028.05 627.801C2020.4 638.539 2010.1 646.4 1997.12 651.383C1984.24 656.451 1969.89 658.986 1954.08 658.986ZM1953.05 550.225C1965.25 550.225 1975.56 547.433 1983.98 541.849C1992.4 536.265 1998.8 528.232 2003.18 517.751C2007.56 507.27 2009.75 494.728 2009.75 480.123C2009.75 465.862 2007.6 453.276 2003.31 442.366C1999.01 431.456 1992.66 422.908 1984.24 416.722C1975.82 410.537 1965.42 407.444 1953.05 407.444C1940.17 407.444 1929.43 410.709 1920.84 417.238C1912.33 423.767 1905.93 432.529 1901.64 443.526C1897.43 454.522 1895.32 466.721 1895.32 480.123C1895.32 493.869 1897.47 506.025 1901.76 516.591C1906.15 527.072 1912.59 535.32 1921.09 541.333C1929.68 547.261 1940.34 550.225 1953.05 550.225Z"/>
</mask>
<path d="M341.483 399.197H309.525C307.635 390.004 304.328 381.929 299.603 374.97C294.964 368.012 289.294 362.17 282.593 357.445C275.978 352.634 268.632 349.026 260.557 346.62C252.481 344.215 244.062 343.012 235.3 343.012C219.321 343.012 204.845 347.05 191.873 355.125C178.986 363.201 168.72 375.099 161.074 390.821C153.514 406.542 149.734 425.829 149.734 448.68C149.734 471.532 153.514 490.819 161.074 506.54C168.72 522.261 178.986 534.16 191.873 542.235C204.845 550.311 219.321 554.349 235.3 554.349C244.062 554.349 252.481 553.146 260.557 550.74C268.632 548.335 275.978 544.77 282.593 540.045C289.294 535.234 294.964 529.349 299.603 522.39C304.328 515.346 307.635 507.27 309.525 498.164H341.483C339.078 511.652 334.696 523.722 328.339 534.375C321.982 545.027 314.078 554.091 304.628 561.565C295.178 568.953 284.569 574.58 272.799 578.446C261.115 582.312 248.616 584.245 235.3 584.245C212.791 584.245 192.775 578.747 175.249 567.75C157.724 556.754 143.935 541.119 133.884 520.844C123.833 500.569 118.807 476.515 118.807 448.68C118.807 420.846 123.833 396.791 133.884 376.517C143.935 356.242 157.724 340.607 175.249 329.61C192.775 318.614 212.791 313.116 235.3 313.116C248.616 313.116 261.115 315.049 272.799 318.915C284.569 322.781 295.178 328.451 304.628 335.925C314.078 343.313 321.982 352.333 328.339 362.986C334.696 373.553 339.078 385.623 341.483 399.197ZM469.413 584.76C451.544 584.76 435.865 580.508 422.377 572.003C408.976 563.498 398.495 551.599 390.935 536.308C383.461 521.016 379.724 503.147 379.724 482.7C379.724 462.082 383.461 444.084 390.935 428.706C398.495 413.329 408.976 401.387 422.377 392.882C435.865 384.377 451.544 380.125 469.413 380.125C487.282 380.125 502.917 384.377 516.319 392.882C529.807 401.387 540.288 413.329 547.762 428.706C555.322 444.084 559.102 462.082 559.102 482.7C559.102 503.147 555.322 521.016 547.762 536.308C540.288 551.599 529.807 563.498 516.319 572.003C502.917 580.508 487.282 584.76 469.413 584.76ZM469.413 557.441C482.986 557.441 494.154 553.962 502.917 547.003C511.68 540.045 518.166 530.895 522.376 519.555C526.585 508.215 528.69 495.93 528.69 482.7C528.69 469.47 526.585 457.142 522.376 445.716C518.166 434.291 511.68 425.055 502.917 418.011C494.154 410.966 482.986 407.444 469.413 407.444C455.839 407.444 444.671 410.966 435.908 418.011C427.145 425.055 420.659 434.291 416.45 445.716C412.24 457.142 410.135 469.47 410.135 482.7C410.135 495.93 412.24 508.215 416.45 519.555C420.659 530.895 427.145 540.045 435.908 547.003C444.671 553.962 455.839 557.441 469.413 557.441ZM635.937 461.567V580.637H605.525V382.702H634.906V413.629H637.483C642.122 403.578 649.167 395.503 658.617 389.403C668.067 383.218 680.266 380.125 695.214 380.125C708.616 380.125 720.342 382.874 730.394 388.372C740.445 393.784 748.263 402.032 753.847 413.114C759.431 424.11 762.223 438.028 762.223 454.866V580.637H731.811V456.928C731.811 441.378 727.773 429.265 719.698 420.588C711.623 411.825 700.54 407.444 686.451 407.444C676.743 407.444 668.067 409.549 660.421 413.758C652.861 417.968 646.89 424.11 642.509 432.186C638.127 440.261 635.937 450.055 635.937 461.567ZM848.207 461.567V580.637H817.795V382.702H847.176V413.629H849.754C854.393 403.578 861.437 395.503 870.887 389.403C880.337 383.218 892.536 380.125 907.485 380.125C920.886 380.125 932.613 382.874 942.664 388.372C952.716 393.784 960.533 402.032 966.118 413.114C971.702 424.11 974.494 438.028 974.494 454.866V580.637H944.082V456.928C944.082 441.378 940.044 429.265 931.969 420.588C923.893 411.825 912.811 407.444 898.722 407.444C889.014 407.444 880.337 409.549 872.691 413.758C865.131 417.968 859.161 424.11 854.779 432.186C850.398 440.261 848.207 450.055 848.207 461.567ZM1113.05 584.76C1093.98 584.76 1077.53 580.551 1063.7 572.132C1049.95 563.627 1039.34 551.771 1031.87 536.565C1024.48 521.274 1020.79 503.49 1020.79 483.216C1020.79 462.941 1024.48 445.072 1031.87 429.609C1039.34 414.059 1049.74 401.946 1063.06 393.269C1076.46 384.506 1092.09 380.125 1109.96 380.125C1120.27 380.125 1130.45 381.843 1140.5 385.279C1150.55 388.716 1159.7 394.3 1167.95 402.032C1176.2 409.678 1182.77 419.815 1187.67 432.444C1192.56 445.072 1195.01 460.622 1195.01 479.092V491.979H1042.44V465.69H1164.08C1164.08 454.522 1161.85 444.557 1157.38 435.794C1153 427.031 1146.73 420.116 1138.57 415.047C1130.49 409.978 1120.96 407.444 1109.96 407.444C1097.85 407.444 1087.37 410.451 1078.52 416.464C1069.76 422.392 1063.01 430.124 1058.29 439.66C1053.56 449.196 1051.2 459.419 1051.2 470.329V487.855C1051.2 502.803 1053.78 515.475 1058.93 525.87C1064.17 536.179 1071.43 544.039 1080.71 549.452C1089.99 554.778 1100.77 557.441 1113.05 557.441C1121.04 557.441 1128.26 556.324 1134.7 554.091C1141.23 551.771 1146.86 548.335 1151.58 543.782C1156.31 539.143 1159.96 533.387 1162.54 526.514L1191.92 534.761C1188.83 544.727 1183.63 553.489 1176.33 561.049C1169.02 568.524 1160 574.365 1149.26 578.575C1138.53 582.699 1126.46 584.76 1113.05 584.76ZM1321.68 584.76C1303.13 584.76 1287.15 580.379 1273.75 571.616C1260.35 562.854 1250.04 550.783 1242.82 535.406C1235.6 520.028 1232 502.459 1232 482.7C1232 462.598 1235.69 444.857 1243.08 429.48C1250.55 414.016 1260.95 401.946 1274.26 393.269C1287.66 384.506 1303.3 380.125 1321.17 380.125C1335.09 380.125 1347.63 382.702 1358.8 387.857C1369.97 393.011 1379.11 400.228 1386.25 409.506C1393.38 418.784 1397.8 429.609 1399.52 441.979H1369.11C1366.79 432.959 1361.63 424.969 1353.64 418.011C1345.74 410.966 1335.09 407.444 1321.68 407.444C1309.83 407.444 1299.43 410.537 1290.5 416.722C1281.65 422.822 1274.74 431.456 1269.75 442.624C1264.86 453.706 1262.41 466.721 1262.41 481.669C1262.41 496.961 1264.81 510.277 1269.62 521.617C1274.52 532.957 1281.39 541.763 1290.24 548.034C1299.18 554.306 1309.66 557.441 1321.68 557.441C1329.59 557.441 1336.76 556.067 1343.2 553.318C1349.65 550.569 1355.1 546.617 1359.57 541.462C1364.04 536.308 1367.22 530.122 1369.11 522.906H1399.52C1397.8 534.589 1393.55 545.113 1386.76 554.477C1380.06 563.756 1371.17 571.144 1360.09 576.642C1349.09 582.054 1336.29 584.76 1321.68 584.76ZM1530.06 382.702V408.475H1427.48V382.702H1530.06ZM1457.38 335.28H1487.79V523.937C1487.79 532.528 1489.04 538.971 1491.53 543.266C1494.1 547.476 1497.37 550.311 1501.32 551.771C1505.36 553.146 1509.61 553.833 1514.08 553.833C1517.43 553.833 1520.18 553.661 1522.33 553.318C1524.47 552.888 1526.19 552.544 1527.48 552.287L1533.67 579.606C1531.6 580.379 1528.73 581.152 1525.03 581.925C1521.34 582.784 1516.66 583.214 1510.99 583.214C1502.39 583.214 1493.98 581.367 1485.73 577.673C1477.57 573.979 1470.78 568.352 1465.37 560.792C1460.04 553.232 1457.38 543.696 1457.38 532.184V335.28ZM1575.8 580.637V382.702H1606.22V580.637H1575.8ZM1591.27 349.713C1585.34 349.713 1580.23 347.694 1575.93 343.657C1571.72 339.619 1569.62 334.765 1569.62 329.095C1569.62 323.425 1571.72 318.571 1575.93 314.533C1580.23 310.496 1585.34 308.477 1591.27 308.477C1597.19 308.477 1602.26 310.496 1606.47 314.533C1610.77 318.571 1612.92 323.425 1612.92 329.095C1612.92 334.765 1610.77 339.619 1606.47 343.657C1602.26 347.694 1597.19 349.713 1591.27 349.713ZM1692.33 461.567V580.637H1661.92V382.702H1691.3V413.629H1693.87C1698.51 403.578 1705.56 395.503 1715.01 389.403C1724.46 383.218 1736.66 380.125 1751.61 380.125C1765.01 380.125 1776.73 382.874 1786.79 388.372C1796.84 393.784 1804.65 402.032 1810.24 413.114C1815.82 424.11 1818.61 438.028 1818.61 454.866V580.637H1788.2V456.928C1788.2 441.378 1784.17 429.265 1776.09 420.588C1768.01 411.825 1756.93 407.444 1742.84 407.444C1733.14 407.444 1724.46 409.549 1716.81 413.758C1709.25 417.968 1703.28 424.11 1698.9 432.186C1694.52 440.261 1692.33 450.055 1692.33 461.567ZM1954.08 658.986C1939.39 658.986 1926.76 657.096 1916.2 653.316C1905.63 649.622 1896.82 644.725 1889.78 638.625C1882.82 632.612 1877.28 626.169 1873.16 619.296L1897.38 602.286C1900.13 605.894 1903.61 610.018 1907.82 614.657C1912.03 619.382 1917.79 623.462 1925.09 626.899C1932.48 630.421 1942.14 632.182 1954.08 632.182C1970.06 632.182 1983.25 628.316 1993.64 620.584C2004.04 612.853 2009.24 600.739 2009.24 584.245V544.039H2006.66C2004.43 547.648 2001.25 552.115 1997.12 557.441C1993.09 562.682 1987.24 567.364 1979.6 571.487C1972.04 575.525 1961.81 577.544 1948.93 577.544C1932.95 577.544 1918.6 573.764 1905.89 566.204C1893.26 558.644 1883.25 547.648 1875.86 533.215C1868.56 518.782 1864.91 501.257 1864.91 480.639C1864.91 460.364 1868.47 442.71 1875.6 427.676C1882.74 412.556 1892.66 400.872 1905.37 392.625C1918.09 384.292 1932.78 380.125 1949.44 380.125C1962.33 380.125 1972.55 382.273 1980.11 386.568C1987.76 390.778 1993.6 395.589 1997.64 401.001C2001.76 406.327 2004.94 410.709 2007.17 414.145H2010.27V382.702H2039.65V586.307C2039.65 603.317 2035.78 617.148 2028.05 627.801C2020.4 638.539 2010.1 646.4 1997.12 651.383C1984.24 656.451 1969.89 658.986 1954.08 658.986ZM1953.05 550.225C1965.25 550.225 1975.56 547.433 1983.98 541.849C1992.4 536.265 1998.8 528.232 2003.18 517.751C2007.56 507.27 2009.75 494.728 2009.75 480.123C2009.75 465.862 2007.6 453.276 2003.31 442.366C1999.01 431.456 1992.66 422.908 1984.24 416.722C1975.82 410.537 1965.42 407.444 1953.05 407.444C1940.17 407.444 1929.43 410.709 1920.84 417.238C1912.33 423.767 1905.93 432.529 1901.64 443.526C1897.43 454.522 1895.32 466.721 1895.32 480.123C1895.32 493.869 1897.47 506.025 1901.76 516.591C1906.15 527.072 1912.59 535.32 1921.09 541.333C1929.68 547.261 1940.34 550.225 1953.05 550.225Z" fill="#F89A00"/>
<path d="M341.483 399.197V409.197C344.441 409.197 347.246 407.888 349.147 405.621C351.047 403.355 351.846 400.364 351.33 397.452L341.483 399.197ZM309.525 399.197L299.73 401.211C300.686 405.86 304.779 409.197 309.525 409.197V399.197ZM299.603 374.97L291.282 380.517C291.298 380.541 291.314 380.564 291.33 380.588L299.603 374.97ZM282.593 357.445L276.711 365.532C276.75 365.561 276.79 365.589 276.83 365.617L282.593 357.445ZM260.557 346.62L257.702 356.204L257.702 356.204L260.557 346.62ZM191.873 355.125L186.588 346.636C186.579 346.641 186.571 346.646 186.562 346.652L191.873 355.125ZM161.074 390.821L152.081 386.447C152.075 386.46 152.068 386.474 152.062 386.487L161.074 390.821ZM161.074 506.54L152.062 510.874C152.068 510.887 152.075 510.9 152.081 510.914L161.074 506.54ZM191.873 542.235L186.562 550.709C186.571 550.714 186.579 550.72 186.588 550.725L191.873 542.235ZM260.557 550.74L257.702 541.156L257.702 541.156L260.557 550.74ZM282.593 540.045L288.405 548.182C288.412 548.177 288.418 548.173 288.425 548.168L282.593 540.045ZM299.603 522.39L291.298 516.82C291.293 516.828 291.287 516.836 291.282 516.843L299.603 522.39ZM309.525 498.164V488.164C304.786 488.164 300.697 491.491 299.734 496.132L309.525 498.164ZM341.483 498.164L351.328 499.92C351.848 497.006 351.05 494.012 349.15 491.744C347.25 489.475 344.443 488.164 341.483 488.164V498.164ZM328.339 534.375L319.752 529.25L319.752 529.25L328.339 534.375ZM304.628 561.565L310.788 569.443C310.802 569.431 310.817 569.42 310.832 569.408L304.628 561.565ZM272.799 578.446L269.678 568.945C269.671 568.948 269.665 568.95 269.658 568.952L272.799 578.446ZM175.249 567.75L169.934 576.221L169.934 576.221L175.249 567.75ZM133.884 520.844L142.843 516.402L142.843 516.402L133.884 520.844ZM272.799 318.915L269.658 328.408C269.665 328.411 269.671 328.413 269.678 328.415L272.799 318.915ZM304.628 335.925L298.425 343.768C298.44 343.78 298.454 343.791 298.469 343.803L304.628 335.925ZM328.339 362.986L319.752 368.111C319.758 368.121 319.764 368.131 319.77 368.141L328.339 362.986ZM341.483 389.197H309.525V409.197H341.483V389.197ZM319.32 397.183C317.196 386.85 313.421 377.52 307.876 369.353L291.33 380.588C295.234 386.338 298.074 393.159 299.73 401.211L319.32 397.183ZM307.923 369.423C302.614 361.46 296.084 354.722 288.355 349.272L276.83 365.617C282.503 369.618 287.313 374.563 291.282 380.517L307.923 369.423ZM288.474 349.358C280.915 343.86 272.54 339.756 263.412 337.037L257.702 356.204C264.724 358.296 271.04 361.408 276.711 365.532L288.474 349.358ZM263.412 337.037C254.373 334.344 244.99 333.012 235.3 333.012V353.012C243.135 353.012 250.59 354.086 257.702 356.204L263.412 337.037ZM235.3 333.012C217.542 333.012 201.22 337.527 186.588 346.636L197.157 363.615C208.469 356.573 221.099 353.012 235.3 353.012V333.012ZM186.562 346.652C171.863 355.864 160.421 369.298 152.081 386.447L170.067 395.194C177.019 380.9 186.11 370.538 197.183 363.599L186.562 346.652ZM152.062 386.487C143.683 403.912 139.734 424.774 139.734 448.68H159.734C159.734 426.883 163.346 409.172 170.086 395.154L152.062 386.487ZM139.734 448.68C139.734 472.586 143.683 493.449 152.062 510.874L170.086 502.206C163.346 488.189 159.734 470.478 159.734 448.68H139.734ZM152.081 510.914C160.421 528.062 171.863 541.497 186.562 550.709L197.183 533.762C186.11 526.823 177.019 516.461 170.067 502.167L152.081 510.914ZM186.588 550.725C201.22 559.834 217.542 564.349 235.3 564.349V544.349C221.099 544.349 208.469 540.788 197.157 533.746L186.588 550.725ZM235.3 564.349C244.99 564.349 254.373 563.017 263.412 560.324L257.702 541.156C250.59 543.275 243.135 544.349 235.3 544.349V564.349ZM263.412 560.324C272.507 557.615 280.858 553.573 288.405 548.182L276.78 531.907C271.097 535.967 264.758 539.055 257.702 541.156L263.412 560.324ZM288.425 548.168C296.117 542.645 302.626 535.883 307.923 527.937L291.282 516.843C287.301 522.815 282.47 527.822 276.761 531.921L288.425 548.168ZM307.907 527.961C313.418 519.745 317.189 510.444 319.316 500.196L299.734 496.132C298.081 504.096 295.237 510.947 291.298 516.82L307.907 527.961ZM309.525 508.164H341.483V488.164H309.525V508.164ZM331.639 496.408C329.423 508.83 325.429 519.738 319.752 529.25L336.926 539.499C343.964 527.706 348.732 514.473 351.328 499.92L331.639 496.408ZM319.752 529.25C313.999 538.891 306.893 547.024 298.425 553.722L310.832 569.408C321.263 561.158 329.965 551.164 336.926 539.499L319.752 529.25ZM298.469 553.687C289.96 560.339 280.385 565.429 269.678 568.945L275.92 587.947C288.752 583.732 300.396 577.567 310.788 569.443L298.469 553.687ZM269.658 568.952C259.067 572.456 247.636 574.245 235.3 574.245V594.245C249.596 594.245 263.163 592.167 275.94 587.94L269.658 568.952ZM235.3 574.245C214.5 574.245 196.358 569.189 180.564 559.28L169.934 576.221C189.192 588.304 211.083 594.245 235.3 594.245V574.245ZM180.564 559.28C164.747 549.355 152.154 535.184 142.843 516.402L124.925 525.286C135.716 547.053 150.701 564.153 169.934 576.221L180.564 559.28ZM142.843 516.402C133.616 497.789 128.807 475.322 128.807 448.68H108.807C108.807 477.708 114.049 503.349 124.925 525.286L142.843 516.402ZM128.807 448.68C128.807 422.039 133.616 399.571 142.843 380.958L124.925 372.075C114.049 394.011 108.807 419.653 108.807 448.68H128.807ZM142.843 380.958C152.154 362.177 164.747 348.005 180.564 338.081L169.934 321.14C150.701 333.208 135.716 350.307 124.925 372.075L142.843 380.958ZM180.564 338.081C196.358 328.171 214.5 323.116 235.3 323.116V303.116C211.083 303.116 189.192 309.057 169.934 321.14L180.564 338.081ZM235.3 323.116C247.636 323.116 259.067 324.904 269.658 328.408L275.94 309.421C263.163 305.193 249.596 303.116 235.3 303.116V323.116ZM269.678 328.415C280.363 331.925 289.923 337.044 298.425 343.768L310.832 328.081C300.433 319.857 288.774 313.636 275.92 309.414L269.678 328.415ZM298.469 343.803C306.914 350.405 314.005 358.481 319.752 368.111L336.926 357.861C329.959 346.186 321.243 336.221 310.788 328.047L298.469 343.803ZM319.77 368.141C325.427 377.543 329.42 388.432 331.637 400.942L351.33 397.452C348.736 382.814 343.966 369.563 336.908 357.831L319.77 368.141ZM422.377 572.003L417.019 580.446C417.027 580.451 417.035 580.456 417.044 580.462L422.377 572.003ZM390.935 536.308L381.95 540.699C381.957 540.712 381.964 540.726 381.97 540.739L390.935 536.308ZM390.935 428.706L381.961 424.295C381.954 424.308 381.947 424.322 381.941 424.335L390.935 428.706ZM422.377 392.882L417.044 384.424C417.035 384.429 417.027 384.434 417.019 384.439L422.377 392.882ZM516.319 392.882L510.961 401.326C510.969 401.331 510.977 401.336 510.985 401.341L516.319 392.882ZM547.762 428.706L538.768 433.078C538.774 433.091 538.781 433.105 538.788 433.118L547.762 428.706ZM547.762 536.308L538.797 531.876C538.791 531.889 538.784 531.903 538.777 531.916L547.762 536.308ZM516.319 572.003L510.985 563.544C510.977 563.549 510.969 563.554 510.961 563.56L516.319 572.003ZM502.917 547.003L496.698 539.172L496.698 539.172L502.917 547.003ZM522.376 519.555L531.751 523.035L531.751 523.035L522.376 519.555ZM522.376 445.716L531.759 442.259L531.759 442.259L522.376 445.716ZM502.917 418.011L509.183 410.217L509.183 410.217L502.917 418.011ZM435.908 418.011L429.643 410.217L429.643 410.217L435.908 418.011ZM416.45 445.716L407.066 442.259L407.066 442.259L416.45 445.716ZM416.45 519.555L407.075 523.035L407.075 523.035L416.45 519.555ZM435.908 547.003L442.127 539.172L442.127 539.172L435.908 547.003ZM469.413 574.76C453.197 574.76 439.415 570.924 427.711 563.544L417.044 580.462C432.316 590.092 449.89 594.76 469.413 594.76V574.76ZM427.736 563.56C415.996 556.11 406.71 545.653 399.899 531.876L381.97 540.739C390.279 557.546 401.955 570.886 417.019 580.446L427.736 563.56ZM399.919 531.916C393.234 518.24 389.724 501.927 389.724 482.7H369.724C369.724 504.366 373.687 523.792 381.95 540.699L399.919 531.916ZM389.724 482.7C389.724 463.289 393.239 446.842 399.929 433.078L381.941 424.335C373.682 441.327 369.724 460.875 369.724 482.7H389.724ZM399.909 433.118C406.724 419.255 416.01 408.767 427.736 401.326L417.019 384.439C401.941 394.008 390.265 407.402 381.961 424.295L399.909 433.118ZM427.711 401.341C439.415 393.961 453.197 390.125 469.413 390.125V370.125C449.89 370.125 432.316 374.794 417.044 384.424L427.711 401.341ZM469.413 390.125C485.63 390.125 499.357 393.962 510.961 401.326L521.677 384.439C506.478 374.793 488.934 370.125 469.413 370.125V390.125ZM510.985 401.341C522.781 408.779 532.047 419.251 538.768 433.078L556.756 424.335C548.528 407.407 536.832 393.996 521.653 384.424L510.985 401.341ZM538.788 433.118C545.549 446.872 549.102 463.305 549.102 482.7H569.102C569.102 460.86 565.094 441.296 556.736 424.295L538.788 433.118ZM549.102 482.7C549.102 501.912 545.554 518.209 538.797 531.876L556.726 540.739C565.09 523.822 569.102 504.382 569.102 482.7H549.102ZM538.777 531.916C532.062 545.657 522.795 556.097 510.985 563.544L521.653 580.462C536.818 570.899 548.514 557.542 556.746 540.699L538.777 531.916ZM510.961 563.56C499.357 570.924 485.63 574.76 469.413 574.76V594.76C488.934 594.76 506.478 590.092 521.677 580.446L510.961 563.56ZM469.413 567.441C484.748 567.441 498.252 563.478 509.136 554.834L496.698 539.172C490.057 544.446 481.225 547.441 469.413 547.441V567.441ZM509.136 554.834C519.444 546.649 526.959 535.943 531.751 523.035L513.001 516.075C509.373 525.848 503.916 533.44 496.698 539.172L509.136 554.834ZM531.751 523.035C536.411 510.482 538.69 497.007 538.69 482.7H518.69C518.69 494.854 516.76 505.949 513.001 516.075L531.751 523.035ZM538.69 482.7C538.69 468.393 536.41 454.884 531.759 442.259L512.992 449.174C516.76 459.4 518.69 470.548 518.69 482.7H538.69ZM531.759 442.259C526.976 429.278 519.475 418.492 509.183 410.217L496.652 425.805C503.884 431.619 509.356 439.303 512.992 449.174L531.759 442.259ZM509.183 410.217C498.297 401.466 484.776 397.444 469.413 397.444V417.444C481.196 417.444 490.012 420.467 496.652 425.805L509.183 410.217ZM469.413 397.444C454.049 397.444 440.528 401.466 429.643 410.217L442.174 425.805C448.813 420.467 457.629 417.444 469.413 417.444V397.444ZM429.643 410.217C419.35 418.492 411.849 429.278 407.066 442.259L425.833 449.174C429.47 439.303 434.941 431.619 442.174 425.805L429.643 410.217ZM407.066 442.259C402.415 454.884 400.135 468.393 400.135 482.7H420.135C420.135 470.548 422.065 459.4 425.833 449.174L407.066 442.259ZM400.135 482.7C400.135 497.007 402.415 510.482 407.075 523.035L425.825 516.075C422.066 505.949 420.135 494.854 420.135 482.7H400.135ZM407.075 523.035C411.866 535.943 419.382 546.649 429.689 554.834L442.127 539.172C434.909 533.44 429.452 525.848 425.825 516.075L407.075 523.035ZM429.689 554.834C440.574 563.478 454.077 567.441 469.413 567.441V547.441C457.601 547.441 448.768 544.446 442.127 539.172L429.689 554.834ZM635.937 580.637V590.637C641.46 590.637 645.937 586.16 645.937 580.637H635.937ZM605.525 580.637H595.525C595.525 586.16 600.002 590.637 605.525 590.637V580.637ZM605.525 382.702V372.702C600.002 372.702 595.525 377.179 595.525 382.702H605.525ZM634.906 382.702H644.906C644.906 377.179 640.429 372.702 634.906 372.702V382.702ZM634.906 413.629H624.906C624.906 419.152 629.383 423.629 634.906 423.629V413.629ZM637.483 413.629V423.629C641.384 423.629 644.928 421.362 646.563 417.82L637.483 413.629ZM658.617 389.403L664.04 397.805C664.058 397.793 664.075 397.782 664.093 397.77L658.617 389.403ZM730.394 388.372L725.595 397.145C725.614 397.156 725.633 397.166 725.653 397.177L730.394 388.372ZM753.847 413.114L744.917 417.614C744.921 417.623 744.926 417.632 744.931 417.642L753.847 413.114ZM762.223 580.637V590.637C767.746 590.637 772.223 586.16 772.223 580.637H762.223ZM731.811 580.637H721.811C721.811 586.16 726.288 590.637 731.811 590.637V580.637ZM719.698 420.588L712.344 427.365C712.356 427.377 712.367 427.389 712.378 427.401L719.698 420.588ZM660.421 413.758L655.598 404.998C655.584 405.006 655.57 405.014 655.556 405.021L660.421 413.758ZM642.509 432.186L633.719 427.417L633.719 427.417L642.509 432.186ZM625.937 461.567V580.637H645.937V461.567H625.937ZM635.937 570.637H605.525V590.637H635.937V570.637ZM615.525 580.637V382.702H595.525V580.637H615.525ZM605.525 392.702H634.906V372.702H605.525V392.702ZM624.906 382.702V413.629H644.906V382.702H624.906ZM634.906 423.629H637.483V403.629H634.906V423.629ZM646.563 417.82C650.394 409.52 656.156 402.893 664.04 397.805L653.194 381.001C642.177 388.112 633.851 397.636 628.403 409.439L646.563 417.82ZM664.093 397.77C671.466 392.944 681.594 390.125 695.214 390.125V370.125C678.938 370.125 664.667 373.491 653.14 381.036L664.093 397.77ZM695.214 390.125C707.224 390.125 717.247 392.579 725.595 397.145L735.193 379.599C723.438 373.169 710.007 370.125 695.214 370.125V390.125ZM725.653 397.177C733.741 401.532 740.17 408.195 744.917 417.614L762.777 408.614C756.355 395.869 747.149 386.037 735.135 379.567L725.653 397.177ZM744.931 417.642C749.591 426.818 752.223 439.056 752.223 454.866H772.223C772.223 437 769.271 421.402 762.763 408.586L744.931 417.642ZM752.223 454.866V580.637H772.223V454.866H752.223ZM762.223 570.637H731.811V590.637H762.223V570.637ZM741.811 580.637V456.928H721.811V580.637H741.811ZM741.811 456.928C741.811 439.66 737.298 424.821 727.018 413.775L712.378 427.401C718.249 433.709 721.811 443.096 721.811 456.928H741.811ZM727.052 413.811C716.737 402.619 702.779 397.444 686.451 397.444V417.444C698.302 417.444 706.508 421.032 712.344 427.365L727.052 413.811ZM686.451 397.444C675.25 397.444 664.881 399.887 655.598 404.998L665.244 422.518C671.252 419.211 678.237 417.444 686.451 417.444V397.444ZM655.556 405.021C646.234 410.212 638.947 417.781 633.719 427.417L651.298 436.955C654.833 430.44 659.488 425.723 665.286 422.495L655.556 405.021ZM633.719 427.417C628.367 437.282 625.937 448.803 625.937 461.567H645.937C645.937 451.307 647.888 443.241 651.298 436.955L633.719 427.417ZM848.207 580.637V590.637C853.73 590.637 858.207 586.16 858.207 580.637H848.207ZM817.795 580.637H807.795C807.795 586.16 812.273 590.637 817.795 590.637V580.637ZM817.795 382.702V372.702C812.273 372.702 807.795 377.179 807.795 382.702H817.795ZM847.176 382.702H857.176C857.176 377.179 852.699 372.702 847.176 372.702V382.702ZM847.176 413.629H837.176C837.176 419.152 841.654 423.629 847.176 423.629V413.629ZM849.754 413.629V423.629C853.654 423.629 857.199 421.362 858.833 417.82L849.754 413.629ZM870.887 389.403L876.31 397.805C876.328 397.793 876.346 397.782 876.364 397.77L870.887 389.403ZM942.664 388.372L937.865 397.145C937.885 397.156 937.904 397.166 937.923 397.177L942.664 388.372ZM966.118 413.114L957.187 417.614C957.192 417.623 957.197 417.632 957.201 417.642L966.118 413.114ZM974.494 580.637V590.637C980.017 590.637 984.494 586.16 984.494 580.637H974.494ZM944.082 580.637H934.082C934.082 586.16 938.559 590.637 944.082 590.637V580.637ZM931.969 420.588L924.615 427.365C924.626 427.377 924.637 427.389 924.648 427.401L931.969 420.588ZM872.691 413.758L867.868 404.998C867.854 405.006 867.84 405.014 867.827 405.021L872.691 413.758ZM854.779 432.186L845.99 427.417L845.99 427.417L854.779 432.186ZM838.207 461.567V580.637H858.207V461.567H838.207ZM848.207 570.637H817.795V590.637H848.207V570.637ZM827.795 580.637V382.702H807.795V580.637H827.795ZM817.795 392.702H847.176V372.702H817.795V392.702ZM837.176 382.702V413.629H857.176V382.702H837.176ZM847.176 423.629H849.754V403.629H847.176V423.629ZM858.833 417.82C862.664 409.52 868.427 402.893 876.31 397.805L865.464 381.001C854.448 388.112 846.121 397.636 840.674 409.439L858.833 417.82ZM876.364 397.77C883.737 392.944 893.865 390.125 907.485 390.125V370.125C891.208 370.125 876.938 373.491 865.411 381.036L876.364 397.77ZM907.485 390.125C919.495 390.125 929.517 392.579 937.865 397.145L947.463 379.599C935.709 373.169 922.278 370.125 907.485 370.125V390.125ZM937.923 397.177C946.012 401.532 952.441 408.195 957.187 417.614L975.048 408.614C968.626 395.869 959.42 386.037 947.405 379.567L937.923 397.177ZM957.201 417.642C961.861 426.818 964.494 439.056 964.494 454.866H984.494C984.494 437 981.542 421.402 975.034 408.586L957.201 417.642ZM964.494 454.866V580.637H984.494V454.866H964.494ZM974.494 570.637H944.082V590.637H974.494V570.637ZM954.082 580.637V456.928H934.082V580.637H954.082ZM954.082 456.928C954.082 439.66 949.569 424.821 939.289 413.775L924.648 427.401C930.519 433.709 934.082 443.096 934.082 456.928H954.082ZM939.322 413.811C929.007 402.619 915.05 397.444 898.722 397.444V417.444C910.572 417.444 918.779 421.032 924.615 427.365L939.322 413.811ZM898.722 397.444C887.521 397.444 877.152 399.887 867.868 404.998L877.514 422.518C883.523 419.211 890.508 417.444 898.722 417.444V397.444ZM867.827 405.021C858.504 410.212 851.218 417.781 845.99 427.417L863.569 436.955C867.104 430.44 871.759 425.723 877.556 422.495L867.827 405.021ZM845.99 427.417C840.638 437.282 838.207 448.803 838.207 461.567H858.207C858.207 451.307 860.158 443.241 863.569 436.955L845.99 427.417ZM1063.7 572.132L1058.44 580.636C1058.46 580.648 1058.48 580.661 1058.5 580.674L1063.7 572.132ZM1031.87 536.565L1022.87 540.916C1022.88 540.936 1022.89 540.956 1022.9 540.977L1031.87 536.565ZM1031.87 429.609L1022.86 425.276C1022.85 425.283 1022.85 425.29 1022.85 425.298L1031.87 429.609ZM1063.06 393.269L1068.51 401.647C1068.52 401.644 1068.52 401.642 1068.53 401.639L1063.06 393.269ZM1140.5 385.279L1143.74 375.817L1143.74 375.817L1140.5 385.279ZM1167.95 402.032L1161.11 409.327C1161.12 409.34 1161.14 409.352 1161.15 409.365L1167.95 402.032ZM1187.67 432.444L1196.99 428.828L1196.99 428.828L1187.67 432.444ZM1195.01 491.979V501.979C1200.53 501.979 1205.01 497.501 1205.01 491.979H1195.01ZM1042.44 491.979H1032.44C1032.44 497.501 1036.91 501.979 1042.44 501.979V491.979ZM1042.44 465.69V455.69C1036.91 455.69 1032.44 460.168 1032.44 465.69H1042.44ZM1164.08 465.69V475.69C1169.61 475.69 1174.08 471.213 1174.08 465.69H1164.08ZM1157.38 435.794L1148.44 440.266C1148.45 440.289 1148.46 440.313 1148.47 440.336L1157.38 435.794ZM1138.57 415.047L1133.25 423.517C1133.27 423.525 1133.28 423.534 1133.29 423.542L1138.57 415.047ZM1078.52 416.464L1084.12 424.747C1084.13 424.743 1084.13 424.739 1084.14 424.735L1078.52 416.464ZM1058.29 439.66L1049.33 435.22L1049.33 435.22L1058.29 439.66ZM1058.93 525.87L1049.97 530.312C1049.99 530.342 1050 530.372 1050.02 530.401L1058.93 525.87ZM1080.71 549.452L1075.67 558.09C1075.69 558.101 1075.71 558.113 1075.73 558.124L1080.71 549.452ZM1134.7 554.091L1137.98 563.539C1138 563.531 1138.03 563.522 1138.05 563.514L1134.7 554.091ZM1151.58 543.782L1158.52 550.983C1158.55 550.961 1158.57 550.939 1158.59 550.917L1151.58 543.782ZM1162.54 526.514L1165.24 516.886C1160.24 515.483 1155 518.14 1153.17 523.003L1162.54 526.514ZM1191.92 534.761L1201.47 537.725C1202.27 535.147 1201.99 532.355 1200.7 529.984C1199.41 527.612 1197.22 525.863 1194.62 525.133L1191.92 534.761ZM1176.33 561.049L1183.48 568.038C1183.49 568.024 1183.51 568.011 1183.52 567.997L1176.33 561.049ZM1149.26 578.575L1152.85 587.91C1152.87 587.902 1152.89 587.894 1152.91 587.885L1149.26 578.575ZM1113.05 574.76C1095.49 574.76 1080.9 570.897 1068.9 563.59L1058.5 580.674C1074.16 590.205 1092.48 594.76 1113.05 594.76V574.76ZM1068.96 563.628C1056.89 556.16 1047.53 545.76 1040.84 532.154L1022.9 540.977C1031.16 557.783 1043.02 571.093 1058.44 580.636L1068.96 563.628ZM1040.87 532.215C1034.26 518.518 1030.79 502.273 1030.79 483.216H1010.79C1010.79 504.708 1014.71 524.029 1022.87 540.916L1040.87 532.215ZM1030.79 483.216C1030.79 464.163 1034.26 447.813 1040.89 433.92L1022.85 425.298C1014.71 442.332 1010.79 461.72 1010.79 483.216H1030.79ZM1040.88 433.941C1047.64 419.893 1056.86 409.241 1068.51 401.647L1057.6 384.891C1042.62 394.651 1031.05 408.225 1022.86 425.276L1040.88 433.941ZM1068.53 401.639C1080.12 394.061 1093.8 390.125 1109.96 390.125V370.125C1090.38 370.125 1072.8 374.952 1057.58 384.899L1068.53 401.639ZM1109.96 390.125C1119.14 390.125 1128.23 391.65 1137.27 394.742L1143.74 375.817C1132.68 372.036 1121.4 370.125 1109.96 370.125V390.125ZM1137.27 394.742C1145.89 397.69 1153.83 402.502 1161.11 409.327L1174.79 394.736C1165.58 386.098 1155.22 379.741 1143.74 375.817L1137.27 394.742ZM1161.15 409.365C1168.08 415.79 1173.88 424.56 1178.34 436.059L1196.99 428.828C1191.66 415.07 1184.31 403.566 1174.75 394.698L1161.15 409.365ZM1178.34 436.059C1182.66 447.199 1185.01 461.438 1185.01 479.092H1205.01C1205.01 459.805 1202.46 442.946 1196.99 428.828L1178.34 436.059ZM1185.01 479.092V491.979H1205.01V479.092H1185.01ZM1195.01 481.979H1042.44V501.979H1195.01V481.979ZM1052.44 491.979V465.69H1032.44V491.979H1052.44ZM1042.44 475.69H1164.08V455.69H1042.44V475.69ZM1174.08 465.69C1174.08 453.159 1171.57 441.602 1166.29 431.252L1148.47 440.336C1152.13 447.512 1154.08 455.885 1154.08 465.69H1174.08ZM1166.33 431.322C1161.14 420.939 1153.61 412.617 1143.85 406.552L1133.29 423.542C1139.85 427.615 1144.87 433.123 1148.44 440.266L1166.33 431.322ZM1143.89 406.577C1133.98 400.363 1122.54 397.444 1109.96 397.444V417.444C1119.37 417.444 1127 419.594 1133.25 423.517L1143.89 406.577ZM1109.96 397.444C1096.12 397.444 1083.62 400.908 1072.9 408.194L1084.14 424.735C1091.12 419.993 1099.58 417.444 1109.96 417.444V397.444ZM1072.92 408.182C1062.71 415.084 1054.82 424.144 1049.33 435.22L1067.25 444.1C1071.21 436.104 1076.8 429.7 1084.12 424.747L1072.92 408.182ZM1049.33 435.22C1043.9 446.172 1041.2 457.919 1041.2 470.329H1061.2C1061.2 460.919 1063.22 452.22 1067.25 444.1L1049.33 435.22ZM1041.2 470.329V487.855H1061.2V470.329H1041.2ZM1041.2 487.855C1041.2 503.915 1043.97 518.197 1049.97 530.312L1067.89 521.427C1063.59 512.752 1061.2 501.691 1061.2 487.855H1041.2ZM1050.02 530.401C1056.06 542.286 1064.61 551.635 1075.67 558.09L1085.75 540.814C1078.26 536.444 1072.29 530.072 1067.85 521.338L1050.02 530.401ZM1075.73 558.124C1086.74 564.442 1099.28 567.441 1113.05 567.441V547.441C1102.25 547.441 1093.24 545.114 1085.69 540.779L1075.73 558.124ZM1113.05 567.441C1121.97 567.441 1130.32 566.195 1137.98 563.539L1131.43 544.642C1126.2 546.454 1120.12 547.441 1113.05 547.441V567.441ZM1138.05 563.514C1145.85 560.745 1152.72 556.579 1158.52 550.983L1144.65 536.581C1141 540.091 1136.62 542.798 1131.36 544.668L1138.05 563.514ZM1158.59 550.917C1164.46 545.15 1168.87 538.114 1171.9 530.025L1153.17 523.003C1151.05 528.659 1148.15 533.135 1144.58 536.646L1158.59 550.917ZM1159.84 536.142L1189.22 544.389L1194.62 525.133L1165.24 516.886L1159.84 536.142ZM1182.37 531.797C1179.74 540.257 1175.36 547.659 1169.13 554.102L1183.52 567.997C1191.9 559.32 1197.91 549.196 1201.47 537.725L1182.37 531.797ZM1169.17 554.061C1162.96 560.421 1155.17 565.518 1145.62 569.265L1152.91 587.885C1164.83 583.213 1175.09 576.626 1183.48 568.038L1169.17 554.061ZM1145.68 569.24C1136.26 572.858 1125.43 574.76 1113.05 574.76V594.76C1127.48 594.76 1140.79 592.539 1152.85 587.91L1145.68 569.24ZM1273.75 571.616L1268.27 579.986L1268.27 579.986L1273.75 571.616ZM1243.08 429.48L1234.07 425.128C1234.07 425.135 1234.07 425.142 1234.06 425.149L1243.08 429.48ZM1274.26 393.269L1279.72 401.647C1279.73 401.644 1279.73 401.642 1279.74 401.639L1274.26 393.269ZM1386.25 409.506L1394.17 403.412L1394.17 403.412L1386.25 409.506ZM1399.52 441.979V451.979C1402.41 451.979 1405.16 450.727 1407.06 448.546C1408.96 446.365 1409.82 443.468 1409.42 440.604L1399.52 441.979ZM1369.11 441.979L1359.42 444.47C1360.56 448.89 1364.54 451.979 1369.11 451.979V441.979ZM1353.64 418.011L1346.99 425.476C1347.02 425.501 1347.05 425.527 1347.07 425.552L1353.64 418.011ZM1290.5 416.722L1296.18 424.956C1296.18 424.952 1296.19 424.948 1296.19 424.944L1290.5 416.722ZM1269.75 442.624L1260.62 438.549C1260.62 438.56 1260.61 438.571 1260.61 438.582L1269.75 442.624ZM1269.62 521.617L1260.42 525.523C1260.43 525.542 1260.43 525.562 1260.44 525.582L1269.62 521.617ZM1290.24 548.034L1284.46 556.193C1284.47 556.202 1284.48 556.21 1284.5 556.219L1290.24 548.034ZM1343.2 553.318L1339.28 544.12L1339.28 544.12L1343.2 553.318ZM1359.57 541.462L1367.13 548.011L1367.13 548.011L1359.57 541.462ZM1369.11 522.906V512.906C1364.56 512.906 1360.58 515.974 1359.43 520.372L1369.11 522.906ZM1399.52 522.906L1409.41 524.361C1409.83 521.486 1408.99 518.569 1407.09 516.369C1405.19 514.17 1402.42 512.906 1399.52 512.906V522.906ZM1386.76 554.477L1378.66 548.609C1378.66 548.613 1378.66 548.618 1378.65 548.622L1386.76 554.477ZM1360.09 576.642L1364.5 585.614C1364.51 585.609 1364.52 585.605 1364.53 585.6L1360.09 576.642ZM1321.68 574.76C1304.76 574.76 1290.75 570.785 1279.22 563.247L1268.27 579.986C1283.55 589.973 1301.5 594.76 1321.68 594.76V574.76ZM1279.22 563.247C1267.47 555.562 1258.35 544.962 1251.87 531.157L1233.77 539.654C1241.72 556.604 1253.22 570.145 1268.27 579.986L1279.22 563.247ZM1251.87 531.157C1245.37 517.309 1242 501.229 1242 482.7H1222C1222 503.689 1225.83 522.747 1233.77 539.654L1251.87 531.157ZM1242 482.7C1242 463.831 1245.46 447.616 1252.09 433.81L1234.06 425.149C1225.92 442.099 1222 461.364 1222 482.7H1242ZM1252.08 433.831C1258.83 419.871 1268.05 409.25 1279.72 401.647L1268.8 384.891C1253.84 394.642 1242.27 408.162 1234.07 425.128L1252.08 433.831ZM1279.74 401.639C1291.33 394.061 1305.01 390.125 1321.17 390.125V370.125C1301.59 370.125 1284 374.952 1268.79 384.899L1279.74 401.639ZM1321.17 390.125C1333.83 390.125 1344.92 392.463 1354.61 396.936L1362.99 378.777C1350.34 372.941 1336.34 370.125 1321.17 370.125V390.125ZM1354.61 396.936C1364.38 401.448 1372.22 407.67 1378.32 415.599L1394.17 403.412C1386.01 392.785 1375.55 384.574 1362.99 378.777L1354.61 396.936ZM1378.32 415.599C1384.32 423.41 1388.12 432.582 1389.61 443.355L1409.42 440.604C1407.48 426.635 1402.43 414.158 1394.17 403.412L1378.32 415.599ZM1399.52 431.979H1369.11V451.979H1399.52V431.979ZM1378.79 439.489C1375.9 428.247 1369.51 418.569 1360.21 410.47L1347.07 425.552C1353.76 431.37 1357.67 437.671 1359.42 444.47L1378.79 439.489ZM1360.3 410.546C1350.11 401.469 1336.87 397.444 1321.68 397.444V417.444C1333.31 417.444 1341.36 420.463 1346.99 425.476L1360.3 410.546ZM1321.68 397.444C1307.99 397.444 1295.57 401.051 1284.81 408.5L1296.19 424.944C1303.3 420.022 1311.67 417.444 1321.68 417.444V397.444ZM1284.82 408.489C1274.26 415.769 1266.25 425.94 1260.62 438.549L1278.88 446.698C1283.22 436.971 1289.04 429.875 1296.18 424.956L1284.82 408.489ZM1260.61 438.582C1255.03 451.198 1252.41 465.646 1252.41 481.669H1272.41C1272.41 467.796 1274.68 456.214 1278.9 446.665L1260.61 438.582ZM1252.41 481.669C1252.41 497.989 1254.97 512.688 1260.42 525.523L1278.83 517.712C1274.65 507.867 1272.41 495.933 1272.41 481.669H1252.41ZM1260.44 525.582C1265.96 538.366 1273.92 548.72 1284.46 556.193L1296.02 539.876C1288.87 534.805 1283.08 527.549 1278.8 517.653L1260.44 525.582ZM1284.5 556.219C1295.28 563.792 1307.82 567.441 1321.68 567.441V547.441C1311.49 547.441 1303.07 544.819 1295.99 539.849L1284.5 556.219ZM1321.68 567.441C1330.76 567.441 1339.3 565.858 1347.13 562.515L1339.28 544.12C1334.23 546.276 1328.41 547.441 1321.68 547.441V567.441ZM1347.13 562.515C1354.93 559.187 1361.64 554.345 1367.13 548.011L1352.01 534.913C1348.57 538.889 1344.37 541.95 1339.28 544.12L1347.13 562.515ZM1367.13 548.011C1372.69 541.593 1376.54 533.998 1378.78 525.439L1359.43 520.372C1357.89 526.247 1355.39 531.022 1352.01 534.913L1367.13 548.011ZM1369.11 532.906H1399.52V512.906H1369.11V532.906ZM1389.62 521.451C1388.14 531.575 1384.48 540.578 1378.66 548.609L1394.86 560.346C1402.61 549.648 1407.46 537.604 1409.41 524.361L1389.62 521.451ZM1378.65 548.622C1372.98 556.479 1365.39 562.848 1355.64 567.684L1364.53 585.6C1376.95 579.44 1387.14 571.032 1394.87 560.332L1378.65 548.622ZM1355.67 567.67C1346.29 572.288 1335.05 574.76 1321.68 574.76V594.76C1337.53 594.76 1351.89 591.82 1364.5 585.614L1355.67 567.67ZM1530.06 382.702H1540.06C1540.06 377.179 1535.58 372.702 1530.06 372.702V382.702ZM1530.06 408.475V418.475C1535.58 418.475 1540.06 413.998 1540.06 408.475H1530.06ZM1427.48 408.475H1417.48C1417.48 413.998 1421.96 418.475 1427.48 418.475V408.475ZM1427.48 382.702V372.702C1421.96 372.702 1417.48 377.179 1417.48 382.702H1427.48ZM1457.38 335.28V325.28C1451.85 325.28 1447.38 329.758 1447.38 335.28H1457.38ZM1487.79 335.28H1497.79C1497.79 329.758 1493.31 325.28 1487.79 325.28V335.28ZM1491.53 543.266L1482.88 548.283C1482.92 548.352 1482.96 548.42 1483 548.488L1491.53 543.266ZM1501.32 551.771L1497.85 561.151C1497.93 561.181 1498.02 561.21 1498.1 561.238L1501.32 551.771ZM1522.33 553.318L1523.91 563.192C1524.03 563.172 1524.16 563.149 1524.29 563.123L1522.33 553.318ZM1527.48 552.287L1537.23 550.078C1536.03 544.788 1530.84 541.417 1525.52 542.481L1527.48 552.287ZM1533.67 579.606L1537.18 588.969C1541.86 587.214 1544.52 582.273 1543.42 577.398L1533.67 579.606ZM1525.03 581.925L1522.98 572.137C1522.91 572.153 1522.84 572.169 1522.77 572.185L1525.03 581.925ZM1485.73 577.673L1481.6 586.783C1481.62 586.788 1481.63 586.794 1481.64 586.799L1485.73 577.673ZM1465.37 560.792L1457.19 566.551C1457.21 566.572 1457.22 566.592 1457.24 566.613L1465.37 560.792ZM1520.06 382.702V408.475H1540.06V382.702H1520.06ZM1530.06 398.475H1427.48V418.475H1530.06V398.475ZM1437.48 408.475V382.702H1417.48V408.475H1437.48ZM1427.48 392.702H1530.06V372.702H1427.48V392.702ZM1457.38 345.28H1487.79V325.28H1457.38V345.28ZM1477.79 335.28V523.937H1497.79V335.28H1477.79ZM1477.79 523.937C1477.79 533.167 1479.07 541.721 1482.88 548.283L1500.18 538.249C1499 536.22 1497.79 531.889 1497.79 523.937H1477.79ZM1483 548.488C1486.54 554.27 1491.45 558.784 1497.85 561.151L1504.79 542.391C1503.29 541.838 1501.67 540.682 1500.06 538.045L1483 548.488ZM1498.1 561.238C1503.22 562.982 1508.57 563.833 1514.08 563.833V543.833C1510.65 543.833 1507.49 543.31 1504.54 542.305L1498.1 561.238ZM1514.08 563.833C1517.71 563.833 1521.04 563.651 1523.91 563.192L1520.75 543.443C1519.32 543.671 1517.15 543.833 1514.08 543.833V563.833ZM1524.29 563.123C1526.43 562.694 1528.15 562.35 1529.44 562.093L1525.52 542.481C1524.23 542.739 1522.51 543.082 1520.36 543.512L1524.29 563.123ZM1517.73 554.495L1523.91 581.814L1543.42 577.398L1537.23 550.078L1517.73 554.495ZM1530.15 570.243C1528.79 570.755 1526.48 571.406 1522.98 572.137L1527.08 591.713C1530.97 590.898 1534.42 590.003 1537.18 588.969L1530.15 570.243ZM1522.77 572.185C1520.08 572.809 1516.23 573.214 1510.99 573.214V593.214C1517.08 593.214 1522.59 592.76 1527.3 591.665L1522.77 572.185ZM1510.99 573.214C1503.88 573.214 1496.85 571.695 1489.82 568.547L1481.64 586.799C1491.11 591.039 1500.91 593.214 1510.99 593.214V573.214ZM1489.85 568.563C1483.35 565.622 1477.93 561.157 1473.5 554.971L1457.24 566.613C1463.63 575.546 1471.78 582.336 1481.6 586.783L1489.85 568.563ZM1473.54 555.032C1469.67 549.531 1467.38 542.143 1467.38 532.184H1447.38C1447.38 545.249 1450.42 556.932 1457.19 566.551L1473.54 555.032ZM1467.38 532.184V335.28H1447.38V532.184H1467.38ZM1575.8 580.637H1565.8C1565.8 586.16 1570.28 590.637 1575.8 590.637V580.637ZM1575.8 382.702V372.702C1570.28 372.702 1565.8 377.179 1565.8 382.702H1575.8ZM1606.22 382.702H1616.22C1616.22 377.179 1611.74 372.702 1606.22 372.702V382.702ZM1606.22 580.637V590.637C1611.74 590.637 1616.22 586.16 1616.22 580.637H1606.22ZM1575.93 343.657L1569.01 350.873C1569.03 350.897 1569.06 350.92 1569.08 350.943L1575.93 343.657ZM1575.93 314.533L1569.08 307.247C1569.06 307.27 1569.03 307.293 1569.01 307.317L1575.93 314.533ZM1606.47 314.533L1599.55 321.75C1599.58 321.773 1599.6 321.797 1599.62 321.82L1606.47 314.533ZM1606.47 343.657L1599.62 336.37C1599.6 336.393 1599.58 336.416 1599.55 336.44L1606.47 343.657ZM1585.8 580.637V382.702H1565.8V580.637H1585.8ZM1575.8 392.702H1606.22V372.702H1575.8V392.702ZM1596.22 382.702V580.637H1616.22V382.702H1596.22ZM1606.22 570.637H1575.8V590.637H1606.22V570.637ZM1591.27 339.713C1587.87 339.713 1585.21 338.654 1582.78 336.37L1569.08 350.943C1575.24 356.734 1582.81 359.713 1591.27 359.713V339.713ZM1582.85 336.44C1580.55 334.227 1579.62 331.954 1579.62 329.095H1559.62C1559.62 337.576 1562.9 345.011 1569.01 350.873L1582.85 336.44ZM1579.62 329.095C1579.62 326.236 1580.55 323.963 1582.85 321.75L1569.01 307.317C1562.9 313.179 1559.62 320.614 1559.62 329.095H1579.62ZM1582.78 321.82C1585.21 319.536 1587.87 318.477 1591.27 318.477V298.477C1582.81 298.477 1575.24 301.455 1569.08 307.247L1582.78 321.82ZM1591.27 318.477C1594.66 318.477 1597.24 319.53 1599.55 321.75L1613.4 307.316C1607.29 301.461 1599.73 298.477 1591.27 298.477V318.477ZM1599.62 321.82C1602 324.052 1602.92 326.306 1602.92 329.095H1622.92C1622.92 320.544 1619.54 313.09 1613.32 307.247L1599.62 321.82ZM1602.92 329.095C1602.92 331.884 1602 334.138 1599.62 336.37L1613.32 350.943C1619.54 345.1 1622.92 337.646 1622.92 329.095H1602.92ZM1599.55 336.44C1597.24 338.659 1594.66 339.713 1591.27 339.713V359.713C1599.73 359.713 1607.29 356.729 1613.4 350.873L1599.55 336.44ZM1692.33 580.637V590.637C1697.85 590.637 1702.33 586.16 1702.33 580.637H1692.33ZM1661.92 580.637H1651.92C1651.92 586.16 1656.39 590.637 1661.92 590.637V580.637ZM1661.92 382.702V372.702C1656.39 372.702 1651.92 377.179 1651.92 382.702H1661.92ZM1691.3 382.702H1701.3C1701.3 377.179 1696.82 372.702 1691.3 372.702V382.702ZM1691.3 413.629H1681.3C1681.3 419.152 1685.77 423.629 1691.3 423.629V413.629ZM1693.87 413.629V423.629C1697.78 423.629 1701.32 421.362 1702.95 417.82L1693.87 413.629ZM1715.01 389.403L1720.43 397.805C1720.45 397.793 1720.47 397.782 1720.49 397.77L1715.01 389.403ZM1786.79 388.372L1781.99 397.145C1782.01 397.156 1782.03 397.166 1782.04 397.177L1786.79 388.372ZM1810.24 413.114L1801.31 417.614C1801.31 417.623 1801.32 417.632 1801.32 417.642L1810.24 413.114ZM1818.61 580.637V590.637C1824.14 590.637 1828.61 586.16 1828.61 580.637H1818.61ZM1788.2 580.637H1778.2C1778.2 586.16 1782.68 590.637 1788.2 590.637V580.637ZM1776.09 420.588L1768.74 427.365C1768.75 427.377 1768.76 427.389 1768.77 427.401L1776.09 420.588ZM1716.81 413.758L1711.99 404.998C1711.98 405.006 1711.96 405.014 1711.95 405.021L1716.81 413.758ZM1698.9 432.186L1690.11 427.417L1690.11 427.417L1698.9 432.186ZM1682.33 461.567V580.637H1702.33V461.567H1682.33ZM1692.33 570.637H1661.92V590.637H1692.33V570.637ZM1671.92 580.637V382.702H1651.92V580.637H1671.92ZM1661.92 392.702H1691.3V372.702H1661.92V392.702ZM1681.3 382.702V413.629H1701.3V382.702H1681.3ZM1691.3 423.629H1693.87V403.629H1691.3V423.629ZM1702.95 417.82C1706.79 409.52 1712.55 402.893 1720.43 397.805L1709.59 381.001C1698.57 388.112 1690.24 397.636 1684.8 409.439L1702.95 417.82ZM1720.49 397.77C1727.86 392.944 1737.99 390.125 1751.61 390.125V370.125C1735.33 370.125 1721.06 373.491 1709.53 381.036L1720.49 397.77ZM1751.61 390.125C1763.62 390.125 1773.64 392.579 1781.99 397.145L1791.58 379.599C1779.83 373.169 1766.4 370.125 1751.61 370.125V390.125ZM1782.04 397.177C1790.13 401.532 1796.56 408.195 1801.31 417.614L1819.17 408.614C1812.75 395.869 1803.54 386.037 1791.53 379.567L1782.04 397.177ZM1801.32 417.642C1805.98 426.818 1808.61 439.056 1808.61 454.866H1828.61C1828.61 437 1825.66 421.402 1819.15 408.586L1801.32 417.642ZM1808.61 454.866V580.637H1828.61V454.866H1808.61ZM1818.61 570.637H1788.2V590.637H1818.61V570.637ZM1798.2 580.637V456.928H1778.2V580.637H1798.2ZM1798.2 456.928C1798.2 439.66 1793.69 424.821 1783.41 413.775L1768.77 427.401C1774.64 433.709 1778.2 443.096 1778.2 456.928H1798.2ZM1783.44 413.811C1773.13 402.619 1759.17 397.444 1742.84 397.444V417.444C1754.69 417.444 1762.9 421.032 1768.74 427.365L1783.44 413.811ZM1742.84 397.444C1731.64 397.444 1721.27 399.887 1711.99 404.998L1721.64 422.518C1727.64 419.211 1734.63 417.444 1742.84 417.444V397.444ZM1711.95 405.021C1702.63 410.212 1695.34 417.781 1690.11 427.417L1707.69 436.955C1711.22 430.44 1715.88 425.723 1721.68 422.495L1711.95 405.021ZM1690.11 427.417C1684.76 437.282 1682.33 448.803 1682.33 461.567H1702.33C1702.33 451.307 1704.28 443.241 1707.69 436.955L1690.11 427.417ZM1916.2 653.316L1919.57 643.9C1919.54 643.892 1919.52 643.884 1919.5 643.876L1916.2 653.316ZM1889.78 638.625L1896.33 631.065L1896.32 631.059L1889.78 638.625ZM1873.16 619.296L1867.41 611.112C1863.12 614.125 1861.88 619.943 1864.58 624.441L1873.16 619.296ZM1897.38 602.286L1905.34 596.225C1902.08 591.953 1896.03 591.015 1891.64 594.102L1897.38 602.286ZM1907.82 614.657L1915.29 608.005C1915.27 607.982 1915.25 607.959 1915.23 607.937L1907.82 614.657ZM1925.09 626.899L1929.39 617.872C1929.38 617.865 1929.36 617.858 1929.35 617.851L1925.09 626.899ZM1993.64 620.584L1999.61 628.608L1999.61 628.608L1993.64 620.584ZM2009.24 544.039H2019.24C2019.24 538.517 2014.76 534.039 2009.24 534.039V544.039ZM2006.66 544.039V534.039C2003.2 534.039 1999.98 535.831 1998.16 538.776L2006.66 544.039ZM1997.12 557.441L1989.22 551.32C1989.21 551.326 1989.21 551.332 1989.2 551.338L1997.12 557.441ZM1979.6 571.487L1984.31 580.308C1984.32 580.302 1984.33 580.295 1984.34 580.289L1979.6 571.487ZM1905.89 566.204L1900.75 574.784C1900.76 574.789 1900.77 574.794 1900.78 574.799L1905.89 566.204ZM1875.86 533.215L1866.94 537.729C1866.95 537.744 1866.95 537.758 1866.96 537.772L1875.86 533.215ZM1875.6 427.676L1884.64 431.961C1884.64 431.954 1884.65 431.948 1884.65 431.941L1875.6 427.676ZM1905.37 392.625L1910.81 401.014C1910.83 401.006 1910.84 400.997 1910.85 400.988L1905.37 392.625ZM1980.11 386.568L1975.17 395.263C1975.21 395.285 1975.25 395.307 1975.29 395.328L1980.11 386.568ZM1997.64 401.001L1989.62 406.98C1989.66 407.028 1989.7 407.075 1989.73 407.123L1997.64 401.001ZM2007.17 414.145L1998.79 419.595C2000.63 422.433 2003.79 424.145 2007.17 424.145V414.145ZM2010.27 414.145V424.145C2015.79 424.145 2020.27 419.668 2020.27 414.145H2010.27ZM2010.27 382.702V372.702C2004.74 372.702 2000.27 377.179 2000.27 382.702H2010.27ZM2039.65 382.702H2049.65C2049.65 377.179 2045.17 372.702 2039.65 372.702V382.702ZM2028.05 627.801L2019.96 621.927C2019.94 621.951 2019.92 621.976 2019.9 622.001L2028.05 627.801ZM1997.12 651.383L1993.54 642.048C1993.51 642.057 1993.49 642.067 1993.46 642.077L1997.12 651.383ZM1983.98 541.849L1978.45 533.515L1978.45 533.515L1983.98 541.849ZM2003.18 517.751L2012.41 521.608L2012.41 521.608L2003.18 517.751ZM2003.31 442.366L2012.61 438.703L2012.61 438.703L2003.31 442.366ZM1984.24 416.722L1978.32 424.781L1978.32 424.781L1984.24 416.722ZM1920.84 417.238L1914.79 409.276C1914.77 409.286 1914.76 409.296 1914.75 409.305L1920.84 417.238ZM1901.64 443.526L1892.32 439.887C1892.31 439.908 1892.3 439.93 1892.3 439.951L1901.64 443.526ZM1901.76 516.591L1892.5 520.357C1892.51 520.388 1892.53 520.418 1892.54 520.448L1901.76 516.591ZM1921.09 541.333L1915.32 549.498C1915.35 549.52 1915.38 549.542 1915.41 549.564L1921.09 541.333ZM1954.08 648.986C1940.21 648.986 1928.78 647.195 1919.57 643.9L1912.83 662.731C1924.75 666.997 1938.58 668.986 1954.08 668.986V648.986ZM1919.5 643.876C1909.89 640.516 1902.25 636.191 1896.33 631.065L1883.23 646.185C1891.4 653.259 1901.37 658.727 1912.9 662.756L1919.5 643.876ZM1896.32 631.059C1890.05 625.639 1885.24 619.991 1881.73 614.151L1864.58 624.441C1869.32 632.347 1875.6 639.584 1883.24 646.191L1896.32 631.059ZM1878.9 627.48L1903.13 610.47L1891.64 594.102L1867.41 611.112L1878.9 627.48ZM1889.43 608.346C1892.4 612.249 1896.08 616.599 1900.42 621.377L1915.23 607.937C1911.14 603.436 1907.86 599.539 1905.34 596.225L1889.43 608.346ZM1900.35 621.309C1905.67 627.277 1912.63 632.088 1920.83 635.947L1929.35 617.851C1922.94 614.836 1918.39 611.487 1915.29 608.005L1900.35 621.309ZM1920.79 635.925C1929.99 640.313 1941.28 642.182 1954.08 642.182V622.182C1943 622.182 1934.96 620.529 1929.39 617.872L1920.79 635.925ZM1954.08 642.182C1971.7 642.182 1987.12 637.898 1999.61 628.608L1987.68 612.561C1979.38 618.734 1968.42 622.182 1954.08 622.182V642.182ZM1999.61 628.608C2013.22 618.485 2019.24 602.948 2019.24 584.245H1999.24C1999.24 598.531 1994.86 607.22 1987.68 612.561L1999.61 628.608ZM2019.24 584.245V544.039H1999.24V584.245H2019.24ZM2009.24 534.039H2006.66V554.039H2009.24V534.039ZM1998.16 538.776C1996.18 541.968 1993.23 546.129 1989.22 551.32L2005.03 563.563C2009.26 558.101 2012.67 553.327 2015.16 549.303L1998.16 538.776ZM1989.2 551.338C1986.24 555.176 1981.63 559.03 1974.85 562.686L1984.34 580.289C1992.86 575.698 1999.93 570.188 2005.04 563.545L1989.2 551.338ZM1974.89 562.667C1969.32 565.637 1960.93 567.544 1948.93 567.544V587.544C1962.7 587.544 1974.75 585.413 1984.31 580.308L1974.89 562.667ZM1948.93 567.544C1934.6 567.544 1922.04 564.176 1911 557.609L1900.78 574.799C1915.16 583.352 1931.3 587.544 1948.93 587.544V567.544ZM1911.02 557.624C1900.16 551.122 1891.39 541.599 1884.76 528.658L1866.96 537.772C1875.11 553.696 1886.35 566.166 1900.75 574.784L1911.02 557.624ZM1884.79 528.7C1878.36 515.998 1874.91 500.107 1874.91 480.639H1854.91C1854.91 502.407 1858.76 521.566 1866.94 537.729L1884.79 528.7ZM1874.91 480.639C1874.91 461.528 1878.27 445.395 1884.64 431.961L1866.57 423.39C1858.68 440.024 1854.91 459.2 1854.91 480.639H1874.91ZM1884.65 431.941C1891.07 418.325 1899.82 408.146 1910.81 401.014L1899.93 384.235C1885.5 393.598 1874.4 406.786 1866.56 423.41L1884.65 431.941ZM1910.85 400.988C1921.78 393.825 1934.53 390.125 1949.44 390.125V370.125C1931.02 370.125 1914.39 374.758 1899.89 384.261L1910.85 400.988ZM1949.44 390.125C1961.37 390.125 1969.67 392.138 1975.17 395.263L1985.05 377.874C1975.43 372.407 1963.29 370.125 1949.44 370.125V390.125ZM1975.29 395.328C1982.04 399.043 1986.65 402.995 1989.62 406.98L2005.65 395.021C2000.55 388.182 1993.48 382.513 1984.94 377.808L1975.29 395.328ZM1989.73 407.123C1993.78 412.35 1996.77 416.487 1998.79 419.595L2015.56 408.695C2013.11 404.93 2009.75 400.304 2005.55 394.879L1989.73 407.123ZM2007.17 424.145H2010.27V404.145H2007.17V424.145ZM2020.27 414.145V382.702H2000.27V414.145H2020.27ZM2010.27 392.702H2039.65V372.702H2010.27V392.702ZM2029.65 382.702V586.307H2049.65V382.702H2029.65ZM2029.65 586.307C2029.65 601.823 2026.13 613.421 2019.96 621.927L2036.14 633.675C2045.43 620.875 2049.65 604.81 2049.65 586.307H2029.65ZM2019.9 622.001C2013.46 631.05 2004.78 637.73 1993.54 642.048L2000.71 660.718C2015.41 655.071 2027.35 646.029 2036.2 633.601L2019.9 622.001ZM1993.46 642.077C1981.9 646.627 1968.81 648.986 1954.08 648.986V668.986C1970.97 668.986 1986.58 666.276 2000.78 660.689L1993.46 642.077ZM1953.05 560.225C1966.8 560.225 1979.14 557.061 1989.51 550.182L1978.45 533.515C1971.98 537.805 1963.7 540.225 1953.05 540.225V560.225ZM1989.51 550.182C1999.77 543.372 2007.36 533.679 2012.41 521.608L1993.95 513.894C1990.24 522.785 1985.02 529.157 1978.45 533.515L1989.51 550.182ZM2012.41 521.608C2017.42 509.611 2019.75 495.69 2019.75 480.123H1999.75C1999.75 493.766 1997.7 504.93 1993.95 513.894L2012.41 521.608ZM2019.75 480.123C2019.75 464.872 2017.46 451.002 2012.61 438.703L1994 446.029C1997.75 455.551 1999.75 466.853 1999.75 480.123H2019.75ZM2012.61 438.703C2007.71 426.258 2000.28 416.098 1990.16 408.663L1978.32 424.781C1985.03 429.717 1990.31 436.653 1994 446.029L2012.61 438.703ZM1990.16 408.663C1979.72 400.997 1967.15 397.444 1953.05 397.444V417.444C1963.7 417.444 1971.91 420.077 1978.32 424.781L1990.16 408.663ZM1953.05 397.444C1938.42 397.444 1925.44 401.182 1914.79 409.276L1926.89 425.199C1933.42 420.235 1941.91 417.444 1953.05 417.444V397.444ZM1914.75 409.305C1904.65 417.055 1897.21 427.369 1892.32 439.887L1910.95 447.164C1914.65 437.69 1920.01 430.478 1926.93 425.17L1914.75 409.305ZM1892.3 439.951C1887.59 452.235 1885.32 465.666 1885.32 480.123H1905.32C1905.32 467.776 1907.26 456.81 1910.97 447.101L1892.3 439.951ZM1885.32 480.123C1885.32 494.901 1887.63 508.376 1892.5 520.357L1911.03 512.826C1907.31 503.673 1905.32 492.836 1905.32 480.123H1885.32ZM1892.54 520.448C1897.58 532.498 1905.14 542.304 1915.32 549.498L1926.87 533.168C1920.03 528.336 1914.72 521.647 1910.99 512.735L1892.54 520.448ZM1915.41 549.564C1926.01 556.875 1938.76 560.225 1953.05 560.225V540.225C1941.92 540.225 1933.36 537.647 1926.77 533.103L1915.41 549.564Z" fill="black" mask="url(#path-6-outside-1_650_1550)"/>
</svg>
