<svg width="763" height="394" viewBox="0 0 763 394" fill="none" xmlns="http://www.w3.org/2000/svg">
<rect width="763" height="394" rx="30" fill="#171717"/>
<path d="M268.727 111.909L292.727 150.636H293.455L317.455 111.909H330.727L301.455 158.455L330.727 205H317.455L293.455 167H292.727L268.727 205H255.455L285.455 158.455L255.455 111.909H268.727ZM422.443 158.455C422.443 168.273 420.67 176.758 417.125 183.909C413.58 191.061 408.716 196.576 402.534 200.455C396.352 204.333 389.292 206.273 381.352 206.273C373.413 206.273 366.352 204.333 360.17 200.455C353.989 196.576 349.125 191.061 345.58 183.909C342.034 176.758 340.261 168.273 340.261 158.455C340.261 148.636 342.034 140.152 345.58 133C349.125 125.848 353.989 120.333 360.17 116.455C366.352 112.576 373.413 110.636 381.352 110.636C389.292 110.636 396.352 112.576 402.534 116.455C408.716 120.333 413.58 125.848 417.125 133C420.67 140.152 422.443 148.636 422.443 158.455ZM411.534 158.455C411.534 150.394 410.186 143.591 407.489 138.045C404.822 132.5 401.201 128.303 396.625 125.455C392.08 122.606 386.989 121.182 381.352 121.182C375.716 121.182 370.61 122.606 366.034 125.455C361.489 128.303 357.867 132.5 355.17 138.045C352.504 143.591 351.17 150.394 351.17 158.455C351.17 166.515 352.504 173.318 355.17 178.864C357.867 184.409 361.489 188.606 366.034 191.455C370.61 194.303 375.716 195.727 381.352 195.727C386.989 195.727 392.08 194.303 396.625 191.455C401.201 188.606 404.822 184.409 407.489 178.864C410.186 173.318 411.534 166.515 411.534 158.455ZM441.398 205V111.909H472.852C480.125 111.909 486.095 113.152 490.761 115.636C495.428 118.091 498.883 121.47 501.125 125.773C503.367 130.076 504.489 134.97 504.489 140.455C504.489 145.939 503.367 150.803 501.125 155.045C498.883 159.288 495.443 162.621 490.807 165.045C486.17 167.439 480.246 168.636 473.034 168.636H447.58V158.455H472.67C477.64 158.455 481.64 157.727 484.67 156.273C487.731 154.818 489.943 152.758 491.307 150.091C492.701 147.394 493.398 144.182 493.398 140.455C493.398 136.727 492.701 133.47 491.307 130.682C489.913 127.894 487.686 125.742 484.625 124.227C481.564 122.682 477.519 121.909 472.489 121.909H452.67V205H441.398ZM485.216 163.182L508.125 205H495.034L472.489 163.182H485.216Z" fill="white"/>
</svg>
