<svg width="2908" height="1502" viewBox="0 0 2908 1502" fill="none" xmlns="http://www.w3.org/2000/svg">
<rect x="0.232422" width="2907.21" height="1501.23" rx="114.307" fill="#171717"/>
<path d="M685.105 514.446C683.027 496.896 674.598 483.272 659.819 473.573C645.04 463.874 626.912 459.025 605.436 459.025C589.734 459.025 575.994 461.565 564.217 466.645C552.555 471.725 543.433 478.711 536.852 487.601C530.386 496.492 527.153 506.595 527.153 517.91C527.153 527.378 529.405 535.518 533.908 542.33C538.526 549.027 544.415 554.627 551.574 559.13C558.732 563.517 566.237 567.155 574.089 570.041C581.94 572.812 589.156 575.064 595.738 576.796L631.762 586.494C640.999 588.919 651.275 592.267 662.59 596.54C674.021 600.812 684.932 606.642 695.324 614.032C705.831 621.306 714.49 630.659 721.302 642.089C728.115 653.52 731.521 667.549 731.521 684.175C731.521 703.342 726.498 720.661 716.453 736.133C706.523 751.605 691.975 763.901 672.808 773.023C653.757 782.144 630.607 786.705 603.358 786.705C577.957 786.705 555.961 782.606 537.372 774.408C518.898 766.211 504.35 754.78 493.727 740.116C483.22 725.453 477.274 708.422 475.888 689.024H520.226C521.38 702.418 525.883 713.502 533.735 722.277C541.702 730.937 551.747 737.403 563.87 741.675C576.109 745.832 589.272 747.91 603.358 747.91C619.754 747.91 634.475 745.254 647.522 739.943C660.57 734.516 670.903 727.011 678.524 717.428C686.144 707.729 689.955 696.414 689.955 683.482C689.955 671.705 686.664 662.122 680.083 654.732C673.501 647.343 664.842 641.339 654.104 636.72C643.366 632.102 631.762 628.061 619.292 624.597L575.647 612.127C547.937 604.16 525.999 592.787 509.834 578.008C493.669 563.229 485.587 543.889 485.587 519.988C485.587 500.129 490.956 482.81 501.694 468.031C512.547 453.136 527.096 441.59 545.339 433.392C563.697 425.079 584.192 420.922 606.822 420.922C629.683 420.922 650.005 425.021 667.786 433.219C685.567 441.301 699.653 452.385 710.045 466.472C720.552 480.558 726.094 496.55 726.671 514.446H685.105ZM964.249 671.705V514.446H1005.12V780.47H964.249V735.44H961.477C955.242 748.949 945.544 760.438 932.381 769.905C919.218 779.258 902.592 783.934 882.502 783.934C865.875 783.934 851.096 780.297 838.164 773.023C825.232 765.633 815.072 754.549 807.682 739.77C800.293 724.875 796.598 706.113 796.598 683.482V514.446H837.471V680.711C837.471 700.109 842.898 715.581 853.752 727.127C864.72 738.673 878.691 744.446 895.664 744.446C905.825 744.446 916.159 741.848 926.666 736.652C937.288 731.457 946.179 723.49 953.337 712.752C960.611 702.014 964.249 688.332 964.249 671.705ZM1085.53 780.47V425.772H1126.4V556.705H1129.86C1132.87 552.087 1137.02 546.198 1142.33 539.04C1147.76 531.765 1155.5 525.3 1165.54 519.642C1175.7 513.869 1189.44 510.982 1206.76 510.982C1229.16 510.982 1248.91 516.582 1265.99 527.782C1283.08 538.982 1296.42 554.858 1306 575.41C1315.58 595.962 1320.38 620.209 1320.38 648.151C1320.38 676.324 1315.58 700.744 1306 721.411C1296.42 741.964 1283.14 757.897 1266.17 769.213C1249.19 780.412 1229.62 786.012 1207.45 786.012C1190.37 786.012 1176.68 783.184 1166.41 777.526C1156.13 771.753 1148.22 765.229 1142.68 757.955C1137.14 750.566 1132.87 744.446 1129.86 739.597H1125.01V780.47H1085.53ZM1125.71 647.458C1125.71 667.549 1128.65 685.272 1134.54 700.628C1140.43 715.869 1149.03 727.82 1160.35 736.479C1171.66 745.023 1185.52 749.296 1201.91 749.296C1219 749.296 1233.26 744.793 1244.69 735.786C1256.24 726.665 1264.9 714.426 1270.67 699.07C1276.56 683.598 1279.5 666.394 1279.5 647.458C1279.5 628.753 1276.62 611.896 1270.84 596.886C1265.19 581.76 1256.58 569.81 1245.04 561.035C1233.61 552.144 1219.23 547.699 1201.91 547.699C1185.29 547.699 1171.31 551.914 1160 560.342C1148.68 568.656 1140.14 580.317 1134.37 595.327C1128.59 610.222 1125.71 627.599 1125.71 647.458ZM1423.77 425.772V780.47H1382.9V425.772H1423.77ZM1610.17 786.012C1584.54 786.012 1562.43 780.355 1543.84 769.039C1525.36 757.609 1511.1 741.675 1501.06 721.238C1491.13 700.686 1486.16 676.786 1486.16 649.537C1486.16 622.288 1491.13 598.271 1501.06 577.488C1511.1 556.59 1525.08 540.31 1542.97 528.648C1560.98 516.871 1582 510.982 1606.01 510.982C1619.87 510.982 1633.55 513.292 1647.06 517.91C1660.57 522.529 1672.87 530.034 1683.95 540.425C1695.04 550.701 1703.87 564.326 1710.45 581.299C1717.03 598.271 1720.32 619.17 1720.32 643.994V661.314H1515.26V625.982H1678.76C1678.76 610.972 1675.75 597.579 1669.75 585.802C1663.86 574.024 1655.43 564.73 1644.46 557.918C1633.61 551.105 1620.79 547.699 1606.01 547.699C1589.73 547.699 1575.65 551.74 1563.76 559.823C1551.98 567.79 1542.91 578.181 1536.56 590.997C1530.21 603.814 1527.04 617.554 1527.04 632.217V655.771C1527.04 675.862 1530.5 692.892 1537.43 706.863C1544.47 720.719 1554.23 731.283 1566.7 738.558C1579.17 745.716 1593.66 749.296 1610.17 749.296C1620.91 749.296 1630.61 747.795 1639.27 744.793C1648.04 741.675 1655.61 737.057 1661.96 730.937C1668.31 724.702 1673.21 716.966 1676.68 707.729L1716.16 718.814C1712.01 732.207 1705.02 743.984 1695.21 754.145C1685.39 764.19 1673.27 772.042 1658.84 777.699C1644.41 783.241 1628.18 786.012 1610.17 786.012ZM1991.93 514.446L1893.56 780.47H1851.99L1753.62 514.446H1797.95L1871.39 726.434H1874.16L1947.59 514.446H1991.93ZM2147.89 786.012C2122.26 786.012 2100.15 780.355 2081.56 769.039C2063.08 757.609 2048.82 741.675 2038.78 721.238C2028.85 700.686 2023.88 676.786 2023.88 649.537C2023.88 622.288 2028.85 598.271 2038.78 577.488C2048.82 556.59 2062.8 540.31 2080.69 528.648C2098.7 516.871 2119.72 510.982 2143.73 510.982C2157.59 510.982 2171.27 513.292 2184.78 517.91C2198.29 522.529 2210.59 530.034 2221.67 540.425C2232.76 550.701 2241.59 564.326 2248.17 581.299C2254.75 598.271 2258.04 619.17 2258.04 643.994V661.314H2052.98V625.982H2216.48C2216.48 610.972 2213.47 597.579 2207.47 585.802C2201.58 574.024 2193.15 564.73 2182.18 557.918C2171.33 551.105 2158.51 547.699 2143.73 547.699C2127.45 547.699 2113.37 551.74 2101.48 559.823C2089.7 567.79 2080.63 578.181 2074.28 590.997C2067.93 603.814 2064.76 617.554 2064.76 632.217V655.771C2064.76 675.862 2068.22 692.892 2075.15 706.863C2082.19 720.719 2091.95 731.283 2104.42 738.558C2116.89 745.716 2131.38 749.296 2147.89 749.296C2158.63 749.296 2168.33 747.795 2176.99 744.793C2185.76 741.675 2193.33 737.057 2199.68 730.937C2206.03 724.702 2210.93 716.966 2214.4 707.729L2253.88 718.814C2249.73 732.207 2242.74 743.984 2232.93 754.145C2223.11 764.19 2210.99 772.042 2196.56 777.699C2182.13 783.241 2165.9 786.012 2147.89 786.012ZM2361.09 425.772V780.47H2320.22V425.772H2361.09ZM2624.39 574.024L2587.67 584.416C2585.36 578.297 2581.96 572.35 2577.45 566.577C2573.06 560.689 2567.06 555.839 2559.44 552.029C2551.82 548.219 2542.06 546.314 2530.17 546.314C2513.89 546.314 2500.32 550.066 2489.47 557.571C2478.73 564.961 2473.36 574.371 2473.36 585.802C2473.36 595.962 2477.06 603.987 2484.45 609.875C2491.84 615.764 2503.38 620.671 2519.09 624.597L2558.57 634.296C2582.36 640.069 2600.08 648.901 2611.74 660.794C2623.41 672.571 2629.24 687.754 2629.24 706.344C2629.24 721.585 2624.85 735.209 2616.07 747.217C2607.41 759.225 2595.29 768.693 2579.7 775.621C2564.12 782.549 2545.99 786.012 2525.32 786.012C2498.19 786.012 2475.73 780.124 2457.95 768.347C2440.17 756.57 2428.91 739.366 2424.18 716.735L2462.97 707.036C2466.67 721.354 2473.65 732.092 2483.93 739.25C2494.32 746.409 2507.89 749.988 2524.63 749.988C2543.68 749.988 2558.8 745.947 2570 737.865C2581.32 729.667 2586.98 719.853 2586.98 708.422C2586.98 699.185 2583.74 691.449 2577.28 685.214C2570.81 678.864 2560.88 674.13 2547.49 671.012L2503.15 660.621C2478.79 654.848 2460.89 645.899 2449.46 633.776C2438.15 621.537 2432.49 606.238 2432.49 587.88C2432.49 572.87 2436.7 559.592 2445.13 548.046C2453.68 536.499 2465.28 527.436 2479.94 520.854C2494.72 514.273 2511.47 510.982 2530.17 510.982C2556.5 510.982 2577.16 516.755 2592.17 528.302C2607.3 539.848 2618.04 555.089 2624.39 574.024Z" fill="#353535"/>
<g filter="url(#filter0_f_462_506)">
<path d="M635.711 514.446C633.632 496.896 625.204 483.272 610.424 473.573C595.645 463.874 577.518 459.025 556.042 459.025C540.339 459.025 526.599 461.565 514.822 466.645C503.16 471.725 494.039 478.711 487.458 487.601C480.992 496.492 477.759 506.595 477.759 517.91C477.759 527.378 480.01 535.518 484.513 542.33C489.132 549.027 495.02 554.627 502.179 559.13C509.338 563.517 516.843 567.155 524.694 570.041C532.545 572.812 539.762 575.064 546.343 576.796L582.367 586.494C591.604 588.919 601.88 592.267 613.196 596.54C624.626 600.812 635.537 606.642 645.929 614.032C656.436 621.306 665.096 630.659 671.908 642.089C678.72 653.52 682.126 667.549 682.126 684.175C682.126 703.342 677.104 720.661 667.058 736.133C657.129 751.605 642.581 763.901 623.414 773.023C604.363 782.144 581.213 786.705 553.964 786.705C528.562 786.705 506.567 782.606 487.977 774.408C469.503 766.211 454.955 754.78 444.333 740.116C433.826 725.453 427.879 708.422 426.494 689.024H470.831C471.986 702.418 476.489 713.502 484.34 722.277C492.307 730.937 502.352 737.403 514.476 741.675C526.715 745.832 539.877 747.91 553.964 747.91C570.359 747.91 585.081 745.254 598.128 739.943C611.175 734.516 621.509 727.011 629.129 717.428C636.75 707.729 640.56 696.414 640.56 683.482C640.56 671.705 637.269 662.122 630.688 654.732C624.107 647.343 615.447 641.339 604.709 636.72C593.971 632.102 582.367 628.061 569.897 624.597L526.253 612.127C498.542 604.16 476.604 592.787 460.44 578.008C444.275 563.229 436.193 543.889 436.193 519.988C436.193 500.129 441.562 482.81 452.3 468.031C463.153 453.136 477.701 441.59 495.944 433.392C514.303 425.079 534.797 420.922 557.427 420.922C580.289 420.922 600.61 425.021 618.391 433.219C636.172 441.301 650.259 452.385 660.65 466.472C671.157 480.558 676.7 496.55 677.277 514.446H635.711ZM914.854 671.705V514.446H955.727V780.47H914.854V735.44H912.083C905.848 748.949 896.149 760.438 882.987 769.905C869.824 779.258 853.197 783.934 833.107 783.934C816.481 783.934 801.701 780.297 788.77 773.023C775.838 765.633 765.677 754.549 758.288 739.77C750.898 724.875 747.203 706.113 747.203 683.482V514.446H788.077V680.711C788.077 700.109 793.504 715.581 804.357 727.127C815.326 738.673 829.297 744.446 846.27 744.446C856.43 744.446 866.764 741.848 877.271 736.652C887.894 731.457 896.784 723.49 903.943 712.752C911.217 702.014 914.854 688.332 914.854 671.705ZM1036.13 780.47V425.772H1077.01V556.705H1080.47C1083.47 552.087 1087.63 546.198 1092.94 539.04C1098.37 531.765 1106.1 525.3 1116.15 519.642C1126.31 513.869 1140.05 510.982 1157.37 510.982C1179.77 510.982 1199.51 516.582 1216.6 527.782C1233.69 538.982 1247.02 554.858 1256.61 575.41C1266.19 595.962 1270.98 620.209 1270.98 648.151C1270.98 676.324 1266.19 700.744 1256.61 721.411C1247.02 741.964 1233.75 757.897 1216.77 769.213C1199.8 780.412 1180.23 786.012 1158.06 786.012C1140.97 786.012 1127.29 783.184 1117.01 777.526C1106.74 771.753 1098.83 765.229 1093.29 757.955C1087.74 750.566 1083.47 744.446 1080.47 739.597H1075.62V780.47H1036.13ZM1076.31 647.458C1076.31 667.549 1079.26 685.272 1085.15 700.628C1091.03 715.869 1099.64 727.82 1110.95 736.479C1122.27 745.023 1136.12 749.296 1152.52 749.296C1169.61 749.296 1183.87 744.793 1195.3 735.786C1206.84 726.665 1215.5 714.426 1221.28 699.07C1227.16 683.598 1230.11 666.394 1230.11 647.458C1230.11 628.753 1227.22 611.896 1221.45 596.886C1215.79 581.76 1207.19 569.81 1195.64 561.035C1184.21 552.144 1169.84 547.699 1152.52 547.699C1135.89 547.699 1121.92 551.914 1110.61 560.342C1099.29 568.656 1090.75 580.317 1084.97 595.327C1079.2 610.222 1076.31 627.599 1076.31 647.458ZM1374.38 425.772V780.47H1333.5V425.772H1374.38ZM1560.78 786.012C1535.14 786.012 1513.03 780.355 1494.44 769.039C1475.97 757.609 1461.71 741.675 1451.66 721.238C1441.74 700.686 1436.77 676.786 1436.77 649.537C1436.77 622.288 1441.74 598.271 1451.66 577.488C1461.71 556.59 1475.68 540.31 1493.58 528.648C1511.59 516.871 1532.6 510.982 1556.62 510.982C1570.48 510.982 1584.16 513.292 1597.67 517.91C1611.18 522.529 1623.47 530.034 1634.56 540.425C1645.64 550.701 1654.47 564.326 1661.05 581.299C1667.64 598.271 1670.93 619.17 1670.93 643.994V661.314H1465.87V625.982H1629.36C1629.36 610.972 1626.36 597.579 1620.35 585.802C1614.47 574.024 1606.04 564.73 1595.07 557.918C1584.21 551.105 1571.4 547.699 1556.62 547.699C1540.34 547.699 1526.25 551.74 1514.36 559.823C1502.58 567.79 1493.52 578.181 1487.17 590.997C1480.82 603.814 1477.64 617.554 1477.64 632.217V655.771C1477.64 675.862 1481.11 692.892 1488.04 706.863C1495.08 720.719 1504.83 731.283 1517.3 738.558C1529.77 745.716 1544.27 749.296 1560.78 749.296C1571.51 749.296 1581.21 747.795 1589.87 744.793C1598.65 741.675 1606.21 737.057 1612.56 730.937C1618.91 724.702 1623.82 716.966 1627.28 707.729L1666.77 718.814C1662.61 732.207 1655.63 743.984 1645.81 754.145C1636 764.19 1623.88 772.042 1609.44 777.699C1595.01 783.241 1578.79 786.012 1560.78 786.012ZM1942.54 514.446L1844.16 780.47H1802.6L1704.22 514.446H1748.56L1821.99 726.434H1824.77L1898.2 514.446H1942.54ZM2098.5 786.012C2072.86 786.012 2050.75 780.355 2032.16 769.039C2013.69 757.609 1999.43 741.675 1989.38 721.238C1979.46 700.686 1974.49 676.786 1974.49 649.537C1974.49 622.288 1979.46 598.271 1989.38 577.488C1999.43 556.59 2013.4 540.31 2031.3 528.648C2049.31 516.871 2070.32 510.982 2094.34 510.982C2108.2 510.982 2121.88 513.292 2135.39 517.91C2148.9 522.529 2161.19 530.034 2172.28 540.425C2183.36 550.701 2192.19 564.326 2198.77 581.299C2205.36 598.271 2208.65 619.17 2208.65 643.994V661.314H2003.59V625.982H2167.08C2167.08 610.972 2164.08 597.579 2158.07 585.802C2152.19 574.024 2143.76 564.73 2132.79 557.918C2121.94 551.105 2109.12 547.699 2094.34 547.699C2078.06 547.699 2063.97 551.74 2052.08 559.823C2040.3 567.79 2031.24 578.181 2024.89 590.997C2018.54 603.814 2015.36 617.554 2015.36 632.217V655.771C2015.36 675.862 2018.83 692.892 2025.76 706.863C2032.8 720.719 2042.56 731.283 2055.02 738.558C2067.49 745.716 2081.99 749.296 2098.5 749.296C2109.23 749.296 2118.93 747.795 2127.59 744.793C2136.37 741.675 2143.93 737.057 2150.28 730.937C2156.63 724.702 2161.54 716.966 2165 707.729L2204.49 718.814C2200.33 732.207 2193.35 743.984 2183.53 754.145C2173.72 764.19 2161.6 772.042 2147.16 777.699C2132.73 783.241 2116.51 786.012 2098.5 786.012ZM2311.7 425.772V780.47H2270.82V425.772H2311.7ZM2574.99 574.024L2538.28 584.416C2535.97 578.297 2532.56 572.35 2528.06 566.577C2523.67 560.689 2517.67 555.839 2510.05 552.029C2502.42 548.219 2492.67 546.314 2480.78 546.314C2464.5 546.314 2450.93 550.066 2440.08 557.571C2429.34 564.961 2423.97 574.371 2423.97 585.802C2423.97 595.962 2427.66 603.987 2435.05 609.875C2442.44 615.764 2453.99 620.671 2469.69 624.597L2509.18 634.296C2532.96 640.069 2550.69 648.901 2562.35 660.794C2574.01 672.571 2579.84 687.754 2579.84 706.344C2579.84 721.585 2575.45 735.209 2566.68 747.217C2558.02 759.225 2545.9 768.693 2530.31 775.621C2514.72 782.549 2496.59 786.012 2475.93 786.012C2448.79 786.012 2426.34 780.124 2408.55 768.347C2390.77 756.57 2379.52 739.366 2374.78 716.735L2413.58 707.036C2417.27 721.354 2424.26 732.092 2434.53 739.25C2444.92 746.409 2458.49 749.988 2475.23 749.988C2494.28 749.988 2509.41 745.947 2520.61 737.865C2531.93 729.667 2537.58 719.853 2537.58 708.422C2537.58 699.185 2534.35 691.449 2527.88 685.214C2521.42 678.864 2511.49 674.13 2498.1 671.012L2453.76 660.621C2429.4 654.848 2411.5 645.899 2400.07 633.776C2388.75 621.537 2383.1 606.238 2383.1 587.88C2383.1 572.87 2387.31 559.592 2395.74 548.046C2404.28 536.499 2415.89 527.436 2430.55 520.854C2445.33 514.273 2462.07 510.982 2480.78 510.982C2507.1 510.982 2527.77 516.755 2542.78 528.302C2557.9 539.848 2568.64 555.089 2574.99 574.024Z" fill="#828282"/>
</g>
<path d="M586.422 514.626C584.343 497.076 575.915 483.452 561.135 473.753C546.356 464.054 528.229 459.205 506.753 459.205C491.05 459.205 477.31 461.745 465.533 466.825C453.871 471.905 444.75 478.891 438.169 487.781C431.703 496.672 428.47 506.775 428.47 518.09C428.47 527.558 430.721 535.698 435.224 542.51C439.843 549.207 445.731 554.807 452.89 559.31C460.049 563.698 467.554 567.335 475.405 570.221C483.256 572.992 490.473 575.244 497.054 576.976L533.078 586.675C542.315 589.099 552.591 592.448 563.906 596.72C575.337 600.992 586.248 606.823 596.64 614.212C607.147 621.486 615.807 630.839 622.619 642.269C629.431 653.7 632.837 667.729 632.837 684.355C632.837 703.522 627.815 720.841 617.769 736.313C607.84 751.785 593.292 764.082 574.125 773.203C555.074 782.325 531.924 786.885 504.675 786.885C479.273 786.885 457.278 782.786 438.688 774.589C420.214 766.391 405.666 754.96 395.044 740.296C384.537 725.633 378.59 708.602 377.205 689.205H421.542C422.697 702.598 427.2 713.683 435.051 722.458C443.018 731.117 453.063 737.583 465.187 741.855C477.426 746.012 490.588 748.09 504.675 748.09C521.07 748.09 535.792 745.435 548.839 740.123C561.886 734.697 572.22 727.192 579.84 717.608C587.461 707.909 591.271 696.594 591.271 683.662C591.271 671.885 587.98 662.302 581.399 654.912C574.818 647.523 566.158 641.519 555.42 636.9C544.682 632.282 533.078 628.241 520.608 624.777L476.964 612.307C449.253 604.34 427.315 592.967 411.151 578.188C394.986 563.409 386.904 544.069 386.904 520.169C386.904 500.309 392.272 482.99 403.01 468.211C413.864 453.316 428.412 441.77 446.655 433.572C465.013 425.259 485.508 421.102 508.138 421.102C531 421.102 551.321 425.201 569.102 433.399C586.883 441.481 600.97 452.566 611.361 466.652C621.868 480.738 627.41 496.73 627.988 514.626H586.422ZM865.565 671.885V514.626H906.438V780.65H865.565V735.62H862.794C856.559 749.129 846.86 760.618 833.697 770.086C820.535 779.438 803.908 784.114 783.818 784.114C767.191 784.114 752.412 780.477 739.481 773.203C726.549 765.814 716.388 754.729 708.999 739.95C701.609 725.056 697.914 706.293 697.914 683.662V514.626H738.788V680.891C738.788 700.289 744.215 715.761 755.068 727.307C766.037 738.853 780.008 744.626 796.981 744.626C807.141 744.626 817.475 742.028 827.982 736.833C838.605 731.637 847.495 723.67 854.654 712.932C861.928 702.194 865.565 688.512 865.565 671.885ZM986.843 780.65V425.952H1027.72V556.885H1031.18C1034.18 552.267 1038.34 546.378 1043.65 539.22C1049.08 531.946 1056.81 525.48 1066.86 519.822C1077.02 514.049 1090.76 511.163 1108.08 511.163C1130.48 511.163 1150.22 516.762 1167.31 527.962C1184.4 539.162 1197.73 555.038 1207.32 575.59C1216.9 596.142 1221.69 620.389 1221.69 648.331C1221.69 676.504 1216.9 700.924 1207.32 721.592C1197.73 742.144 1184.46 758.078 1167.48 769.393C1150.51 780.593 1130.94 786.193 1108.77 786.193C1091.68 786.193 1078 783.364 1067.72 777.706C1057.45 771.933 1049.54 765.409 1044 758.135C1038.45 750.746 1034.18 744.626 1031.18 739.777H1026.33V780.65H986.843ZM1027.02 647.638C1027.02 667.729 1029.97 685.452 1035.86 700.809C1041.75 716.05 1050.35 728 1061.66 736.659C1072.98 745.204 1086.83 749.476 1103.23 749.476C1120.32 749.476 1134.58 744.973 1146.01 735.967C1157.55 726.845 1166.21 714.606 1171.99 699.25C1177.87 683.778 1180.82 666.574 1180.82 647.638C1180.82 628.934 1177.93 612.076 1172.16 597.066C1166.5 581.941 1157.9 569.99 1146.35 561.215C1134.92 552.325 1120.55 547.879 1103.23 547.879C1086.6 547.879 1072.63 552.094 1061.32 560.522C1050 568.836 1041.46 580.497 1035.68 595.507C1029.91 610.402 1027.02 627.779 1027.02 647.638ZM1325.09 425.952V780.65H1284.22V425.952H1325.09ZM1511.49 786.193C1485.85 786.193 1463.74 780.535 1445.15 769.22C1426.68 757.789 1412.42 741.855 1402.38 721.418C1392.45 700.866 1387.48 676.966 1387.48 649.717C1387.48 622.468 1392.45 598.452 1402.38 577.669C1412.42 556.77 1426.39 540.49 1444.29 528.828C1462.3 517.051 1483.31 511.163 1507.33 511.163C1521.19 511.163 1534.87 513.472 1548.38 518.09C1561.89 522.709 1574.18 530.214 1585.27 540.605C1596.35 550.881 1605.18 564.506 1611.77 581.479C1618.35 598.452 1621.64 619.35 1621.64 644.175V661.494H1416.58V626.162H1580.07C1580.07 611.152 1577.07 597.759 1571.07 585.982C1565.18 574.205 1556.75 564.91 1545.78 558.098C1534.93 551.285 1522.11 547.879 1507.33 547.879C1491.05 547.879 1476.96 551.921 1465.07 560.003C1453.29 567.97 1444.23 578.361 1437.88 591.178C1431.53 603.994 1428.35 617.734 1428.35 632.397V655.952C1428.35 676.042 1431.82 693.073 1438.75 707.043C1445.79 720.899 1455.55 731.464 1468.02 738.738C1480.49 745.896 1494.98 749.476 1511.49 749.476C1522.23 749.476 1531.92 747.975 1540.58 744.973C1549.36 741.855 1556.92 737.237 1563.27 731.117C1569.62 724.882 1574.53 717.146 1577.99 707.909L1617.48 718.994C1613.32 732.387 1606.34 744.164 1596.52 754.325C1586.71 764.37 1574.59 772.222 1560.15 777.879C1545.72 783.421 1529.5 786.193 1511.49 786.193ZM1893.25 514.626L1794.87 780.65H1753.31L1654.93 514.626H1699.27L1772.71 726.614H1775.48L1848.91 514.626H1893.25ZM2049.21 786.193C2023.57 786.193 2001.46 780.535 1982.87 769.22C1964.4 757.789 1950.14 741.855 1940.1 721.418C1930.17 700.866 1925.2 676.966 1925.2 649.717C1925.2 622.468 1930.17 598.452 1940.1 577.669C1950.14 556.77 1964.11 540.49 1982.01 528.828C2000.02 517.051 2021.03 511.163 2045.05 511.163C2058.91 511.163 2072.59 513.472 2086.1 518.09C2099.61 522.709 2111.9 530.214 2122.99 540.605C2134.07 550.881 2142.9 564.506 2149.49 581.479C2156.07 598.452 2159.36 619.35 2159.36 644.175V661.494H1954.3V626.162H2117.79C2117.79 611.152 2114.79 597.759 2108.79 585.982C2102.9 574.205 2094.47 564.91 2083.5 558.098C2072.65 551.285 2059.83 547.879 2045.05 547.879C2028.77 547.879 2014.68 551.921 2002.79 560.003C1991.01 567.97 1981.95 578.361 1975.6 591.178C1969.25 603.994 1966.07 617.734 1966.07 632.397V655.952C1966.07 676.042 1969.54 693.073 1976.47 707.043C1983.51 720.899 1993.27 731.464 2005.74 738.738C2018.21 745.896 2032.7 749.476 2049.21 749.476C2059.95 749.476 2069.64 747.975 2078.3 744.973C2087.08 741.855 2094.64 737.237 2100.99 731.117C2107.34 724.882 2112.25 717.146 2115.71 707.909L2155.2 718.994C2151.04 732.387 2144.06 744.164 2134.24 754.325C2124.43 764.37 2112.31 772.222 2097.87 777.879C2083.44 783.421 2067.22 786.193 2049.21 786.193ZM2262.41 425.952V780.65H2221.53V425.952H2262.41ZM2525.7 574.205L2488.99 584.596C2486.68 578.477 2483.27 572.53 2478.77 566.757C2474.38 560.869 2468.38 556.019 2460.76 552.209C2453.14 548.399 2443.38 546.494 2431.49 546.494C2415.21 546.494 2401.64 550.246 2390.79 557.751C2380.05 565.141 2374.68 574.551 2374.68 585.982C2374.68 596.142 2378.37 604.167 2385.76 610.056C2393.15 615.944 2404.7 620.851 2420.4 624.777L2459.89 634.476C2483.68 640.249 2501.4 649.082 2513.06 660.974C2524.72 672.751 2530.55 687.935 2530.55 706.524C2530.55 721.765 2526.17 735.389 2517.39 747.397C2508.73 759.405 2496.61 768.873 2481.02 775.801C2465.43 782.729 2447.31 786.193 2426.64 786.193C2399.5 786.193 2377.05 780.304 2359.27 768.527C2341.48 756.75 2330.23 739.546 2325.49 716.915L2364.29 707.217C2367.98 721.534 2374.97 732.272 2385.24 739.431C2395.64 746.589 2409.2 750.168 2425.94 750.168C2445 750.168 2460.12 746.127 2471.32 738.045C2482.64 729.847 2488.29 720.033 2488.29 708.602C2488.29 699.365 2485.06 691.629 2478.6 685.394C2472.13 679.044 2462.2 674.31 2448.81 671.193L2404.47 660.801C2380.11 655.028 2362.21 646.08 2350.78 633.956C2339.46 621.717 2333.81 606.419 2333.81 588.06C2333.81 573.05 2338.02 559.772 2346.45 548.226C2354.99 536.68 2366.6 527.616 2381.26 521.034C2396.04 514.453 2412.78 511.163 2431.49 511.163C2457.81 511.163 2478.48 516.936 2493.49 528.482C2508.62 540.028 2519.35 555.269 2525.7 574.205Z" fill="white"/>
<defs>
<filter id="filter0_f_462_506" x="422.462" y="416.89" width="2161.41" height="373.847" filterUnits="userSpaceOnUse" color-interpolation-filters="sRGB">
<feFlood flood-opacity="0" result="BackgroundImageFix"/>
<feBlend mode="normal" in="SourceGraphic" in2="BackgroundImageFix" result="shape"/>
<feGaussianBlur stdDeviation="2.016" result="effect1_foregroundBlur_462_506"/>
</filter>
</defs>
</svg>
